M48
; DRILL file {KiCad 8.0.1-rc1} date 2024-04-28T10:37:17-0500
; FORMAT={-:-/ absolute / inch / decimal}
; #@! TF.CreationDate,2024-04-28T10:37:17-05:00
; #@! TF.GenerationSoftware,Kicad,Pcbnew,8.0.1-rc1
; #@! TF.FileFunction,Plated,1,4,PTH
FMAT,2
INCH
; #@! TA.AperFunction,Plated,PTH,ViaDrill
T1C0.0118
; #@! TA.AperFunction,Plated,PTH,ComponentDrill
T2C0.0315
; #@! TA.AperFunction,Plated,PTH,ComponentDrill
T3C0.0394
%
G90
G05
T1
X3.787Y-3.51
X3.808Y-3.644
X3.808Y-3.684
X3.813Y-3.577
X3.8598Y-4.1147
X3.8598Y-4.1577
X3.8824Y-3.8487
X3.891Y-3.621
X3.891Y-3.661
X3.8968Y-4.3067
X3.897Y-4.231
X3.901Y-3.762
X3.911Y-3.641
X3.916Y-4.2817
X3.9204Y-3.8487
X3.9218Y-4.7337
X3.9219Y-4.5445
X3.9219Y-4.639
X3.9219Y-4.6705
X3.9219Y-4.702
X3.931Y-3.621
X3.931Y-3.661
X3.935Y-3.751
X3.951Y-3.641
X3.9574Y-3.8527
X3.971Y-3.621
X3.971Y-3.661
X3.994Y-3.87
X4.008Y-3.79
X4.019Y-4.257
X4.027Y-4.3833
X4.099Y-3.811
X4.099Y-3.871
X4.109Y-3.5762
X4.109Y-3.6162
X4.129Y-3.594
X4.129Y-3.839
X4.1318Y-4.28
X4.149Y-3.5762
X4.149Y-3.6162
X4.159Y-3.811
X4.159Y-3.871
X4.1924Y-3.723
X4.212Y-3.723
X4.2198Y-4.1157
X4.2198Y-4.1587
X4.222Y-3.495
X4.2324Y-3.723
X4.243Y-4.2827
X4.257Y-4.231
X4.267Y-4.3077
X4.2818Y-4.7347
X4.2819Y-4.5455
X4.2819Y-4.64
X4.2819Y-4.6715
X4.2819Y-4.703
X4.289Y-3.6704
X4.289Y-3.69
X4.289Y-3.7104
X4.289Y-3.7564
X4.289Y-3.776
X4.289Y-3.7964
X4.303Y-3.641
X4.3304Y-3.542
X4.3304Y-3.582
X4.34Y-3.648
X4.341Y-3.466
X4.3704Y-3.542
X4.3704Y-3.582
X4.373Y-3.382
X4.373Y-3.647
X4.383Y-4.257
X4.39Y-4.3843
X4.401Y-3.6704
X4.401Y-3.69
X4.401Y-3.7104
X4.401Y-3.7564
X4.401Y-3.776
X4.401Y-3.7964
X4.414Y-3.382
X4.417Y-3.964
X4.421Y-3.6704
X4.421Y-3.69
X4.421Y-3.7104
X4.421Y-3.7564
X4.421Y-3.776
X4.421Y-3.7964
X4.462Y-3.465
X4.476Y-3.8676
X4.476Y-3.912
X4.476Y-3.9717
X4.476Y-4.0397
X4.48Y-4.444
X4.487Y-3.341
X4.492Y-4.28
X4.517Y-3.96
X4.519Y-3.867
X4.519Y-3.995
X4.527Y-3.341
X4.529Y-4.223
X4.53Y-4.274
X4.542Y-4.5737
X4.542Y-4.7383
X4.549Y-4.444
X4.555Y-3.897
X4.563Y-4.236
X4.576Y-4.778
X4.578Y-4.534
X4.588Y-3.8437
X4.588Y-3.9117
X4.588Y-3.9946
X4.588Y-4.0397
X4.631Y-3.868
X4.632Y-3.44
X4.632Y-3.994
X4.657Y-4.038
X4.664Y-3.952
X4.6798Y-4.1147
X4.6798Y-4.1577
X4.7Y-3.9717
X4.7Y-4.0397
X4.706Y-3.403
X4.706Y-3.889
X4.7168Y-4.2817
X4.7169Y-4.315
X4.717Y-4.23
X4.741Y-4.208
X4.7418Y-4.7337
X4.7419Y-4.3788
X4.7419Y-4.5445
X4.7419Y-4.639
X4.7419Y-4.6705
X4.7419Y-4.702
X4.743Y-3.995
X4.748Y-3.963
X4.749Y-4.319
X4.772Y-4.198
X4.778Y-4.164
X4.78Y-3.434
X4.78Y-3.549
X4.8Y-4.32
X4.811Y-3.9717
X4.811Y-4.0397
X4.824Y-3.386
X4.835Y-4.206
X4.8369Y-4.3577
X4.838Y-3.501
X4.84Y-3.763
X4.84Y-3.814
X4.843Y-4.257
X4.844Y-3.435
X4.844Y-3.469
X4.844Y-3.548
X4.844Y-3.58
X4.845Y-4.39
X4.854Y-3.904
X4.854Y-3.995
X4.875Y-3.388
X4.875Y-3.507
X4.888Y-3.764
X4.897Y-3.856
X4.897Y-4.176
X4.923Y-3.9717
X4.923Y-4.0397
X4.9518Y-4.279
X4.953Y-3.799
X4.953Y-3.869
X4.966Y-3.995
X5.003Y-3.784
X5.0398Y-4.1157
X5.0398Y-4.1587
X5.045Y-3.851
X5.0768Y-4.3077
X5.077Y-4.231
X5.0784Y-3.815
X5.1018Y-4.7347
X5.1019Y-4.5455
X5.1019Y-4.64
X5.1019Y-4.6715
X5.1019Y-4.703
X5.102Y-4.2827
X5.115Y-3.732
X5.115Y-3.812
X5.1514Y-3.7842
X5.1514Y-3.8275
X5.202Y-4.257
X5.207Y-4.3843
X5.255Y-3.852
X5.255Y-3.9147
X5.255Y-3.979
X5.255Y-4.0407
X5.299Y-3.996
X5.3Y-3.962
X5.303Y-4.444
X5.312Y-4.281
X5.314Y-3.889
X5.331Y-3.916
X5.343Y-4.223
X5.349Y-4.271
X5.3622Y-4.5737
X5.3622Y-4.7383
X5.367Y-3.8467
X5.367Y-3.9147
X5.367Y-4.0407
X5.3675Y-3.9966
X5.368Y-4.444
X5.385Y-4.234
X5.391Y-4.778
X5.397Y-4.534
X5.412Y-3.996
X5.413Y-3.869
X5.43Y-3.955
X5.44Y-4.029
X5.457Y-3.844
X5.48Y-3.9727
X5.48Y-4.0407
X5.4998Y-4.1157
X5.4998Y-4.1587
X5.503Y-3.799
X5.503Y-3.864
X5.521Y-3.997
X5.527Y-4.2827
X5.537Y-4.231
X5.541Y-3.955
X5.548Y-4.3077
X5.5613Y-4.3788
X5.5618Y-4.7347
X5.5619Y-4.5455
X5.5619Y-4.64
X5.5619Y-4.6715
X5.5619Y-4.703
X5.566Y-4.209
X5.5747Y-4.3287
X5.576Y-3.756
X5.576Y-3.85
X5.59Y-3.9727
X5.59Y-4.0407
X5.593Y-4.174
X5.6194Y-4.32
X5.6278Y-3.814
X5.631Y-3.914
X5.633Y-3.998
X5.6364Y-4.165
X5.65Y-4.206
X5.6562Y-4.3577
X5.662Y-4.257
X5.6648Y-3.815
X5.665Y-3.73
X5.67Y-4.392
X5.701Y-3.7843
X5.701Y-3.8277
X5.702Y-3.9727
X5.702Y-4.0407
X5.7164Y-4.176
X5.746Y-3.997
X5.772Y-4.281
X5.848Y-3.835
X5.853Y-3.962
X5.86Y-4.116
X5.86Y-4.159
X5.875Y-3.888
X5.885Y-4.283
X5.897Y-4.231
X5.905Y-4.308
X5.922Y-4.735
X5.9221Y-4.5458
X5.9221Y-4.6403
X5.9221Y-4.6718
X5.9221Y-4.7033
X5.956Y-4.128
X6.003Y-3.79
X6.022Y-4.257
X6.029Y-4.3846
X6.039Y-3.79
X6.048Y-4.128
X6.059Y-3.854
X6.089Y-3.93
X6.089Y-3.973
X6.1318Y-4.2749
X6.139Y-3.9735
X6.181Y-3.9735
X6.203Y-3.716
X6.227Y-4.122
X6.273Y-3.648
X6.304Y-3.736
X6.3277Y-3.6118
X6.34Y-4.104
X6.342Y-4.376
X6.343Y-3.81
X6.343Y-3.926
X6.357Y-3.685
X6.358Y-3.648
X6.371Y-3.6118
X6.385Y-3.968
X6.385Y-4.166
X6.392Y-3.925
X6.394Y-3.859
X6.402Y-3.736
X6.405Y-4.104
X6.407Y-4.409
X6.408Y-4.377
X6.411Y-3.811
X6.438Y-4.329
T2
X3.8525Y-4.4564
X3.8525Y-4.5564
X3.8525Y-4.6564
X3.8525Y-4.7564
X3.8525Y-4.8564
X4.0525Y-4.4564
X4.0525Y-4.5564
X4.0525Y-4.6564
X4.0525Y-4.7564
X4.0525Y-4.8564
X4.2125Y-4.4564
X4.2125Y-4.5564
X4.2125Y-4.6564
X4.2125Y-4.7564
X4.2125Y-4.8564
X4.4125Y-4.4564
X4.4125Y-4.5564
X4.4125Y-4.6564
X4.4125Y-4.7564
X4.4125Y-4.8564
X4.6725Y-4.4564
X4.6725Y-4.5564
X4.6725Y-4.6564
X4.6725Y-4.7564
X4.6725Y-4.8564
X4.8725Y-4.4564
X4.8725Y-4.5564
X4.8725Y-4.6564
X4.8725Y-4.7564
X4.8725Y-4.8564
X5.0325Y-4.4564
X5.0325Y-4.5564
X5.0325Y-4.6564
X5.0325Y-4.7564
X5.0325Y-4.8564
X5.2325Y-4.4564
X5.2325Y-4.5564
X5.2325Y-4.6564
X5.2325Y-4.7564
X5.2325Y-4.8564
X5.4925Y-4.4564
X5.4925Y-4.5564
X5.4925Y-4.6564
X5.4925Y-4.7564
X5.4925Y-4.8564
X5.6925Y-4.4564
X5.6925Y-4.5564
X5.6925Y-4.6564
X5.6925Y-4.7564
X5.6925Y-4.8564
X5.8525Y-4.4564
X5.8525Y-4.5564
X5.8525Y-4.6564
X5.8525Y-4.7564
X5.8525Y-4.8564
X6.0525Y-4.4564
X6.0525Y-4.5564
X6.0525Y-4.6564
X6.0525Y-4.7564
X6.0525Y-4.8564
T3
X3.7901Y-3.3348
T3
G00X3.4842Y-3.6735
M15
G01X3.4842Y-3.7522
M16
G05
G00X3.5629Y-3.8979
M15
G01X3.6417Y-3.8979
M16
G05
G00X3.7204Y-3.6735
M15
G01X3.7204Y-3.7522
M16
G05
M30
