G04 #@! TF.GenerationSoftware,KiCad,Pcbnew,8.0.1-rc1*
G04 #@! TF.CreationDate,2024-04-28T10:37:14-05:00*
G04 #@! TF.ProjectId,Stopwatch,53746f70-7761-4746-9368-2e6b69636164,rev?*
G04 #@! TF.SameCoordinates,Original*
G04 #@! TF.FileFunction,Copper,L4,Bot*
G04 #@! TF.FilePolarity,Positive*
%FSLAX46Y46*%
G04 Gerber Fmt 4.6, Leading zero omitted, Abs format (unit mm)*
G04 Created by KiCad (PCBNEW 8.0.1-rc1) date 2024-04-28 10:37:14*
%MOMM*%
%LPD*%
G01*
G04 APERTURE LIST*
G04 Aperture macros list*
%AMRoundRect*
0 Rectangle with rounded corners*
0 $1 Rounding radius*
0 $2 $3 $4 $5 $6 $7 $8 $9 X,Y pos of 4 corners*
0 Add a 4 corners polygon primitive as box body*
4,1,4,$2,$3,$4,$5,$6,$7,$8,$9,$2,$3,0*
0 Add four circle primitives for the rounded corners*
1,1,$1+$1,$2,$3*
1,1,$1+$1,$4,$5*
1,1,$1+$1,$6,$7*
1,1,$1+$1,$8,$9*
0 Add four rect primitives between the rounded corners*
20,1,$1+$1,$2,$3,$4,$5,0*
20,1,$1+$1,$4,$5,$6,$7,0*
20,1,$1+$1,$6,$7,$8,$9,0*
20,1,$1+$1,$8,$9,$2,$3,0*%
G04 Aperture macros list end*
%ADD10C,0.150000*%
G04 #@! TA.AperFunction,NonConductor*
%ADD11C,0.150000*%
G04 #@! TD*
G04 #@! TA.AperFunction,ComponentPad*
%ADD12R,1.700000X1.700000*%
G04 #@! TD*
G04 #@! TA.AperFunction,ComponentPad*
%ADD13R,1.600000X1.600000*%
G04 #@! TD*
G04 #@! TA.AperFunction,ComponentPad*
%ADD14C,1.600000*%
G04 #@! TD*
G04 #@! TA.AperFunction,ComponentPad*
%ADD15R,3.500000X3.500000*%
G04 #@! TD*
G04 #@! TA.AperFunction,SMDPad,CuDef*
%ADD16R,0.600000X0.400000*%
G04 #@! TD*
G04 #@! TA.AperFunction,SMDPad,CuDef*
%ADD17R,0.500000X0.600000*%
G04 #@! TD*
G04 #@! TA.AperFunction,SMDPad,CuDef*
%ADD18R,0.600000X0.500000*%
G04 #@! TD*
G04 #@! TA.AperFunction,SMDPad,CuDef*
%ADD19R,1.500000X0.450000*%
G04 #@! TD*
G04 #@! TA.AperFunction,SMDPad,CuDef*
%ADD20RoundRect,0.112500X-0.187500X-0.112500X0.187500X-0.112500X0.187500X0.112500X-0.187500X0.112500X0*%
G04 #@! TD*
G04 #@! TA.AperFunction,SMDPad,CuDef*
%ADD21R,0.400000X0.600000*%
G04 #@! TD*
G04 #@! TA.AperFunction,SMDPad,CuDef*
%ADD22RoundRect,0.250000X-1.025000X0.787500X-1.025000X-0.787500X1.025000X-0.787500X1.025000X0.787500X0*%
G04 #@! TD*
G04 #@! TA.AperFunction,SMDPad,CuDef*
%ADD23RoundRect,0.100000X0.225000X0.100000X-0.225000X0.100000X-0.225000X-0.100000X0.225000X-0.100000X0*%
G04 #@! TD*
G04 #@! TA.AperFunction,SMDPad,CuDef*
%ADD24R,0.850000X0.300000*%
G04 #@! TD*
G04 #@! TA.AperFunction,SMDPad,CuDef*
%ADD25R,0.300000X0.850000*%
G04 #@! TD*
G04 #@! TA.AperFunction,SMDPad,CuDef*
%ADD26R,2.050000X1.050000*%
G04 #@! TD*
G04 #@! TA.AperFunction,SMDPad,CuDef*
%ADD27R,2.500000X1.800000*%
G04 #@! TD*
G04 #@! TA.AperFunction,ViaPad*
%ADD28C,0.450000*%
G04 #@! TD*
G04 #@! TA.AperFunction,Conductor*
%ADD29C,0.254000*%
G04 #@! TD*
G04 #@! TA.AperFunction,Conductor*
%ADD30C,0.088900*%
G04 #@! TD*
G04 #@! TA.AperFunction,Conductor*
%ADD31C,0.635000*%
G04 #@! TD*
G04 APERTURE END LIST*
D10*
D11*
X86775847Y-116563950D02*
X86109180Y-116563950D01*
X87156800Y-116325855D02*
X86442514Y-116087760D01*
X86442514Y-116087760D02*
X86442514Y-116706807D01*
D12*
X96269800Y-84705000D03*
D13*
X118681400Y-113192800D03*
D14*
X118681400Y-115732800D03*
X118681400Y-118272800D03*
X118681400Y-120812800D03*
X118681400Y-123352800D03*
X123761400Y-123352800D03*
X123761400Y-120812800D03*
X123761400Y-118272800D03*
X123761400Y-115732800D03*
X123761400Y-113192800D03*
D15*
X94498000Y-94306200D03*
X88498000Y-94306200D03*
X91498000Y-99006200D03*
D13*
X127825400Y-113192800D03*
D14*
X127825400Y-115732800D03*
X127825400Y-118272800D03*
X127825400Y-120812800D03*
X127825400Y-123352800D03*
X132905400Y-123352800D03*
X132905400Y-120812800D03*
X132905400Y-118272800D03*
X132905400Y-115732800D03*
X132905400Y-113192800D03*
D13*
X97853400Y-113192800D03*
D14*
X97853400Y-115732800D03*
X97853400Y-118272800D03*
X97853400Y-120812800D03*
X97853400Y-123352800D03*
X102933400Y-123352800D03*
X102933400Y-120812800D03*
X102933400Y-118272800D03*
X102933400Y-115732800D03*
X102933400Y-113192800D03*
D13*
X148653400Y-113192800D03*
D14*
X148653400Y-115732800D03*
X148653400Y-118272800D03*
X148653400Y-120812800D03*
X148653400Y-123352800D03*
X153733400Y-123352800D03*
X153733400Y-120812800D03*
X153733400Y-118272800D03*
X153733400Y-115732800D03*
X153733400Y-113192800D03*
D13*
X139509400Y-113192800D03*
D14*
X139509400Y-115732800D03*
X139509400Y-118272800D03*
X139509400Y-120812800D03*
X139509400Y-123352800D03*
X144589400Y-123352800D03*
X144589400Y-120812800D03*
X144589400Y-118272800D03*
X144589400Y-115732800D03*
X144589400Y-113192800D03*
D13*
X106997400Y-113192800D03*
D14*
X106997400Y-115732800D03*
X106997400Y-118272800D03*
X106997400Y-120812800D03*
X106997400Y-123352800D03*
X112077400Y-123352800D03*
X112077400Y-120812800D03*
X112077400Y-118272800D03*
X112077400Y-115732800D03*
X112077400Y-113192800D03*
D16*
X117462900Y-98737000D03*
X117462900Y-99637000D03*
X125971900Y-101962800D03*
X125971900Y-102862800D03*
X142925800Y-102013600D03*
X142925800Y-102913600D03*
D17*
X141998100Y-101913600D03*
X141998100Y-103013600D03*
X116535200Y-98637000D03*
X116535200Y-99737000D03*
D16*
X125785190Y-106688000D03*
X125785190Y-107588000D03*
D17*
X136333900Y-101913600D03*
X136333900Y-103013600D03*
D16*
X153222800Y-96980400D03*
X153222800Y-97880400D03*
X104957190Y-106688000D03*
X104957190Y-107588000D03*
D17*
X106553000Y-105655200D03*
X106553000Y-104555200D03*
D16*
X134416800Y-102013600D03*
X134416800Y-102913600D03*
D17*
X119367900Y-101862800D03*
X119367900Y-102962800D03*
D16*
X163525200Y-110675000D03*
X163525200Y-111575000D03*
D18*
X160724600Y-91740800D03*
X161824600Y-91740800D03*
D17*
X133489100Y-101913600D03*
X133489100Y-103013600D03*
D19*
X112449400Y-106818000D03*
X112449400Y-107468000D03*
X112449400Y-108118000D03*
X112449400Y-108768000D03*
X112449400Y-109418000D03*
X112449400Y-110068000D03*
X112449400Y-110718000D03*
X112449400Y-111368000D03*
X106549400Y-111368000D03*
X106549400Y-110718000D03*
X106549400Y-110068000D03*
X106549400Y-109418000D03*
X106549400Y-108768000D03*
X106549400Y-108118000D03*
X106549400Y-107468000D03*
X106549400Y-106818000D03*
D17*
X139776200Y-97222400D03*
X139776200Y-96122400D03*
X129931000Y-96118400D03*
X129931000Y-97218400D03*
D16*
X123875800Y-96222400D03*
X123875800Y-97122400D03*
D20*
X116461800Y-86432200D03*
X118561800Y-86432200D03*
D16*
X145770600Y-102013600D03*
X145770600Y-102913600D03*
D21*
X161740000Y-97725900D03*
X160840000Y-97725900D03*
D17*
X130845400Y-96118400D03*
X130845400Y-97218400D03*
X113690400Y-101862800D03*
X113690400Y-102962800D03*
D16*
X115366600Y-116173200D03*
X115366600Y-115273200D03*
X140107600Y-102013600D03*
X140107600Y-102913600D03*
X136194600Y-116173200D03*
X136194600Y-115273200D03*
D17*
X144805400Y-96122400D03*
X144805400Y-97222400D03*
D19*
X144961400Y-106818000D03*
X144961400Y-107468000D03*
X144961400Y-108118000D03*
X144961400Y-108768000D03*
X144961400Y-109418000D03*
X144961400Y-110068000D03*
X144961400Y-110718000D03*
X144961400Y-111368000D03*
X139061400Y-111368000D03*
X139061400Y-110718000D03*
X139061400Y-110068000D03*
X139061400Y-109418000D03*
X139061400Y-108768000D03*
X139061400Y-108118000D03*
X139061400Y-107468000D03*
X139061400Y-106818000D03*
D16*
X114618100Y-98737000D03*
X114618100Y-99637000D03*
D19*
X154105400Y-106818000D03*
X154105400Y-107468000D03*
X154105400Y-108118000D03*
X154105400Y-108768000D03*
X154105400Y-109418000D03*
X154105400Y-110068000D03*
X154105400Y-110718000D03*
X154105400Y-111368000D03*
X148205400Y-111368000D03*
X148205400Y-110718000D03*
X148205400Y-110068000D03*
X148205400Y-109418000D03*
X148205400Y-108768000D03*
X148205400Y-108118000D03*
X148205400Y-107468000D03*
X148205400Y-106818000D03*
D16*
X149743000Y-97880400D03*
X149743000Y-96980400D03*
D17*
X125044200Y-101862800D03*
X125044200Y-102962800D03*
D18*
X122139800Y-87235700D03*
X121039800Y-87235700D03*
D21*
X160824600Y-94560200D03*
X161724600Y-94560200D03*
D16*
X123825000Y-86760300D03*
X123825000Y-87660300D03*
X115366600Y-120353200D03*
X115366600Y-121253200D03*
X114618100Y-101962800D03*
X114618100Y-102862800D03*
X141986000Y-96222400D03*
X141986000Y-97122400D03*
X97469800Y-92586200D03*
X97469800Y-93486200D03*
D19*
X103305400Y-106818000D03*
X103305400Y-107468000D03*
X103305400Y-108118000D03*
X103305400Y-108768000D03*
X103305400Y-109418000D03*
X103305400Y-110068000D03*
X103305400Y-110718000D03*
X103305400Y-111368000D03*
X97405400Y-111368000D03*
X97405400Y-110718000D03*
X97405400Y-110068000D03*
X97405400Y-109418000D03*
X97405400Y-108768000D03*
X97405400Y-108118000D03*
X97405400Y-107468000D03*
X97405400Y-106818000D03*
D17*
X136333900Y-98687800D03*
X136333900Y-99787800D03*
D21*
X161689200Y-105156000D03*
X160789200Y-105156000D03*
D22*
X104876600Y-91324700D03*
X104876600Y-97549700D03*
D16*
X123835200Y-89666300D03*
X123835200Y-90566300D03*
D21*
X161740000Y-100621500D03*
X160840000Y-100621500D03*
D16*
X142951200Y-97122400D03*
X142951200Y-96222400D03*
D17*
X139166600Y-101913600D03*
X139166600Y-103013600D03*
D16*
X134929190Y-106688000D03*
X134929190Y-107588000D03*
D23*
X116316800Y-112227600D03*
X116316800Y-112877600D03*
X116316800Y-113527600D03*
X114416800Y-113527600D03*
X114416800Y-112877600D03*
X114416800Y-112227600D03*
D16*
X138836400Y-97122400D03*
X138836400Y-96222400D03*
D17*
X125806200Y-97222400D03*
X125806200Y-96122400D03*
X144842900Y-101913600D03*
X144842900Y-103013600D03*
D19*
X133277400Y-106818000D03*
X133277400Y-107468000D03*
X133277400Y-108118000D03*
X133277400Y-108768000D03*
X133277400Y-109418000D03*
X133277400Y-110068000D03*
X133277400Y-110718000D03*
X133277400Y-111368000D03*
X127377400Y-111368000D03*
X127377400Y-110718000D03*
X127377400Y-110068000D03*
X127377400Y-109418000D03*
X127377400Y-108768000D03*
X127377400Y-108118000D03*
X127377400Y-107468000D03*
X127377400Y-106818000D03*
D16*
X134416800Y-98787800D03*
X134416800Y-99687800D03*
X117462900Y-101962800D03*
X117462900Y-102862800D03*
D18*
X160724600Y-92655200D03*
X161824600Y-92655200D03*
D17*
X114971428Y-86982200D03*
X114971428Y-85882200D03*
D16*
X137261600Y-98787800D03*
X137261600Y-99687800D03*
X128026000Y-96218400D03*
X128026000Y-97118400D03*
X97469800Y-90859000D03*
X97469800Y-91759000D03*
D23*
X137119400Y-112227600D03*
X137119400Y-112877600D03*
X137119400Y-113527600D03*
X135219400Y-113527600D03*
X135219400Y-112877600D03*
X135219400Y-112227600D03*
D16*
X114101190Y-106688000D03*
X114101190Y-107588000D03*
X152232200Y-96980400D03*
X152232200Y-97880400D03*
D17*
X127381000Y-105655200D03*
X127381000Y-104555200D03*
D16*
X120308900Y-101962800D03*
X120308900Y-102862800D03*
D17*
X122936000Y-96122400D03*
X122936000Y-97222400D03*
D18*
X161840000Y-96786100D03*
X160740000Y-96786100D03*
D16*
X97469800Y-94288000D03*
X97469800Y-95188000D03*
X113980828Y-86882200D03*
X113980828Y-85982200D03*
D24*
X152865400Y-100626800D03*
D25*
X152415400Y-101576800D03*
X151915400Y-101576800D03*
X151415400Y-101576800D03*
X150915400Y-101576800D03*
X150415400Y-101576800D03*
X149915400Y-101576800D03*
D24*
X149465400Y-100626800D03*
X149465400Y-100126800D03*
D25*
X149915400Y-99176800D03*
X150415400Y-99176800D03*
X150915400Y-99176800D03*
X151415400Y-99176800D03*
X151915400Y-99176800D03*
X152415400Y-99176800D03*
D24*
X152865400Y-100126800D03*
D26*
X151165400Y-100376800D03*
D18*
X161840000Y-111150400D03*
X160740000Y-111150400D03*
D16*
X146613190Y-106688000D03*
X146613190Y-107588000D03*
D17*
X148209000Y-105655200D03*
X148209000Y-104555200D03*
X139065000Y-105655200D03*
X139065000Y-104555200D03*
D16*
X155757190Y-106688000D03*
X155757190Y-107588000D03*
D18*
X161840000Y-99681700D03*
X160740000Y-99681700D03*
D16*
X137261600Y-102013600D03*
X137261600Y-102913600D03*
D17*
X118237000Y-105655200D03*
X118237000Y-104555200D03*
D16*
X124866400Y-97122400D03*
X124866400Y-96222400D03*
D21*
X114430828Y-87956200D03*
X113530828Y-87956200D03*
X161724600Y-93595000D03*
X160824600Y-93595000D03*
D17*
X133489100Y-98687800D03*
X133489100Y-99787800D03*
X113690400Y-98637000D03*
X113690400Y-99737000D03*
D16*
X150759000Y-97880400D03*
X150759000Y-96980400D03*
D17*
X116535200Y-101862800D03*
X116535200Y-102962800D03*
D16*
X136194600Y-120353200D03*
X136194600Y-121253200D03*
D27*
X93500800Y-90521600D03*
X89500800Y-90521600D03*
D16*
X128991200Y-97118400D03*
X128991200Y-96218400D03*
D19*
X124133400Y-106818000D03*
X124133400Y-107468000D03*
X124133400Y-108118000D03*
X124133400Y-108768000D03*
X124133400Y-109418000D03*
X124133400Y-110068000D03*
X124133400Y-110718000D03*
X124133400Y-111368000D03*
X118233400Y-111368000D03*
X118233400Y-110718000D03*
X118233400Y-110068000D03*
X118233400Y-109418000D03*
X118233400Y-108768000D03*
X118233400Y-108118000D03*
X118233400Y-107468000D03*
X118233400Y-106818000D03*
D17*
X97409000Y-105655200D03*
X97409000Y-104555200D03*
X154111800Y-99826800D03*
X154111800Y-100926800D03*
X143891000Y-96122400D03*
X143891000Y-97222400D03*
X122199400Y-101862800D03*
X122199400Y-102962800D03*
D16*
X123127100Y-101962800D03*
X123127100Y-102862800D03*
D18*
X161789200Y-104241600D03*
X160689200Y-104241600D03*
X122150000Y-90141700D03*
X121050000Y-90141700D03*
D28*
X108940600Y-93726000D03*
X108940600Y-95910400D03*
X111785400Y-93726000D03*
X96850200Y-90855800D03*
X104876600Y-97510600D03*
X136321800Y-99432200D03*
X111074200Y-92633800D03*
X161112200Y-96774000D03*
X146608800Y-108737400D03*
X109993400Y-90982800D03*
X98039610Y-104513000D03*
X119380000Y-102607200D03*
X139192000Y-102632600D03*
X153136600Y-111368000D03*
X148539200Y-97409000D03*
X155930600Y-100926900D03*
X102285800Y-111334600D03*
X121412000Y-87223600D03*
X161112200Y-99720400D03*
X111506000Y-111360000D03*
X114096800Y-108712000D03*
X141630400Y-97790000D03*
X153898600Y-97891600D03*
X115544600Y-112877600D03*
X104114600Y-98323400D03*
X114985800Y-84861400D03*
X118867610Y-104513000D03*
X136347200Y-112877600D03*
X125044200Y-102607200D03*
X161493200Y-92659200D03*
X96189800Y-89154000D03*
X139695610Y-104538400D03*
X107238800Y-88773000D03*
X162610800Y-94894400D03*
X108940600Y-94244000D03*
X117652800Y-87376000D03*
X108940600Y-93228000D03*
X108940600Y-96428400D03*
X141986000Y-102632600D03*
X110261400Y-88036400D03*
X121412000Y-90144600D03*
X148666200Y-100634800D03*
X151282400Y-104851200D03*
X125776410Y-108686600D03*
X105638600Y-96799400D03*
X122936000Y-96875600D03*
X144018000Y-111556800D03*
X123063000Y-111506000D03*
X105638600Y-98323400D03*
X104948410Y-108712000D03*
X144830800Y-102632600D03*
X161036000Y-104241600D03*
X125806200Y-96494600D03*
X161086800Y-111150400D03*
X99949000Y-95275400D03*
X129921000Y-96824800D03*
X122199400Y-102607200D03*
X154660600Y-100914200D03*
X106984800Y-94564200D03*
X128143000Y-97815400D03*
X133477000Y-102632600D03*
X128011610Y-104538400D03*
X133477000Y-99432200D03*
X113690400Y-99364800D03*
X107183610Y-104538400D03*
X101447600Y-98298000D03*
X104114600Y-96799400D03*
X106486800Y-94564200D03*
X148844000Y-104546400D03*
X139776200Y-96494600D03*
X107502800Y-94564200D03*
X109993400Y-89966800D03*
X155748410Y-108581300D03*
X111009400Y-90982800D03*
X116535200Y-102607200D03*
X136321800Y-102632600D03*
X108940600Y-95412400D03*
X143887000Y-96901000D03*
X116535200Y-99356000D03*
X113690400Y-102607200D03*
X111009400Y-89966800D03*
X134924800Y-108737400D03*
X132257800Y-111360000D03*
X104368600Y-90834400D03*
X104876600Y-91287600D03*
X104368600Y-91850400D03*
X105384600Y-91850400D03*
X105384600Y-90834400D03*
X99085400Y-95554800D03*
X98612800Y-97757400D03*
X98831400Y-91973400D03*
X100863400Y-92989400D03*
X100355400Y-92481400D03*
X99847400Y-91973400D03*
X99847400Y-92989400D03*
X100517800Y-97857400D03*
X100863400Y-91973400D03*
X99578000Y-97757400D03*
X99339400Y-92481400D03*
X98831400Y-92989400D03*
X130845400Y-96118400D03*
X130845400Y-97218400D03*
X144805400Y-96122400D03*
X144805400Y-97222400D03*
X160724600Y-91740800D03*
X161824600Y-91740800D03*
X127076200Y-96113600D03*
X141630400Y-95402400D03*
X160121600Y-94894400D03*
X113792000Y-112877600D03*
X112293400Y-93726000D03*
X162839400Y-96799400D03*
X141986000Y-100905400D03*
X116535200Y-101462800D03*
X112293400Y-95910400D03*
X116281200Y-115163600D03*
X136333900Y-101513600D03*
X136931400Y-121360400D03*
X123037600Y-87249000D03*
X125806200Y-98272600D03*
X119380000Y-100880000D03*
X148844000Y-105638600D03*
X122936000Y-95580200D03*
X156997400Y-100926900D03*
X143891000Y-94742000D03*
X111074200Y-85902800D03*
X112293400Y-96428400D03*
X144830800Y-100905400D03*
X123037600Y-90119200D03*
X154660600Y-99822000D03*
X139695610Y-105630600D03*
X98039610Y-105605200D03*
X113690400Y-100880000D03*
X118867610Y-105605200D03*
X113690400Y-98237000D03*
X125044200Y-100880000D03*
X162687000Y-104241600D03*
X119532400Y-86436200D03*
X112115600Y-85902800D03*
X162356800Y-99695000D03*
X153619200Y-104851200D03*
X112293400Y-94244000D03*
X112293400Y-93228000D03*
X116535200Y-97628800D03*
X111785400Y-94244000D03*
X107183610Y-105630600D03*
X110236000Y-92659200D03*
X111785400Y-95412400D03*
X139192000Y-100905400D03*
X111785400Y-95910400D03*
X159334200Y-92659200D03*
X112293400Y-95412400D03*
X111785400Y-96428400D03*
X122199400Y-100880000D03*
X139776200Y-98145600D03*
X133477000Y-101066600D03*
X133477000Y-97840800D03*
X128011610Y-105630600D03*
X162763200Y-111175800D03*
X137083800Y-115162800D03*
X116230400Y-121361200D03*
X129921000Y-94792800D03*
X134696200Y-112877600D03*
X136321800Y-97705000D03*
X111785400Y-93228000D03*
X136199100Y-116172400D03*
X136199100Y-120352400D03*
X115366600Y-116173200D03*
X115366600Y-120353200D03*
X101803200Y-96266000D03*
X122529600Y-86004400D03*
X157556200Y-94386400D03*
X122885200Y-88925400D03*
X153390600Y-96266000D03*
X108127800Y-107467400D03*
X138607800Y-97637600D03*
X135407400Y-99466400D03*
X115697000Y-98983800D03*
X112191800Y-100685600D03*
X98983800Y-107467400D03*
X152476200Y-96266000D03*
X149225000Y-98755200D03*
X113334800Y-88011000D03*
X109296200Y-92481400D03*
X113969800Y-84861400D03*
X162179000Y-105816400D03*
X96723200Y-92557600D03*
X96723200Y-93573600D03*
X158165800Y-104698800D03*
X128991200Y-96901000D03*
X142947200Y-96875600D03*
X161467800Y-93599000D03*
X162179000Y-100787200D03*
X149783800Y-107467400D03*
X140639800Y-107467400D03*
X137490200Y-98272600D03*
X119532400Y-98780600D03*
X119811800Y-107442000D03*
X128955800Y-107467400D03*
X117627400Y-98247200D03*
X132130800Y-108127800D03*
X123012200Y-108127800D03*
X111328200Y-108127800D03*
X152958800Y-108127800D03*
X124155200Y-95605600D03*
X115062000Y-108559600D03*
X135864600Y-108483400D03*
X102082600Y-108127800D03*
X143814800Y-108127800D03*
X150420600Y-115463200D03*
X149987000Y-109423200D03*
X149479000Y-108788200D03*
X150420600Y-117863200D03*
X150420600Y-118663200D03*
X150420600Y-119463200D03*
X150418800Y-120269000D03*
X141272210Y-115455200D03*
X142062200Y-106019600D03*
X141596855Y-109948455D03*
X141256610Y-111220400D03*
X140919200Y-109415200D03*
X135712200Y-107264200D03*
X141376400Y-106908600D03*
X140385800Y-108780200D03*
X136779000Y-107543600D03*
X141272210Y-117855200D03*
X143164200Y-105791000D03*
X141272210Y-118655200D03*
X141272210Y-119455200D03*
X143510000Y-106832400D03*
X145196200Y-106070400D03*
X141270410Y-120261000D03*
X142732400Y-109728000D03*
X143668410Y-110684600D03*
X129588210Y-115455200D03*
X128951410Y-109415200D03*
X129590800Y-108780200D03*
X129588210Y-117855200D03*
X129588210Y-118655200D03*
X129588210Y-119455200D03*
X129586410Y-120261000D03*
X120444210Y-111220400D03*
X120444210Y-115429800D03*
X121208800Y-106629200D03*
X120624600Y-109702600D03*
X115036600Y-107264200D03*
X119810210Y-109601000D03*
X120421400Y-106883200D03*
X119807410Y-108754800D03*
X115900200Y-107594400D03*
X120444210Y-117829800D03*
X121361200Y-105765600D03*
X120444210Y-118629800D03*
X120444210Y-119429800D03*
X122809000Y-106832400D03*
X122856010Y-110684600D03*
X121920000Y-109728000D03*
X124383800Y-106070400D03*
X120442410Y-120235600D03*
X108760210Y-115455200D03*
X108381800Y-109415200D03*
X107772200Y-108780200D03*
X108760210Y-117855200D03*
X108760210Y-118655200D03*
X108760210Y-119455200D03*
X108758410Y-120261000D03*
X99616210Y-115429800D03*
X98979410Y-109389800D03*
X99466400Y-108754800D03*
X99616210Y-117829800D03*
X99616210Y-118629800D03*
X99616210Y-119429800D03*
X99614410Y-120235600D03*
X123825000Y-89077800D03*
X123825000Y-86055200D03*
X163525200Y-109956600D03*
X123037600Y-90932000D03*
X123037600Y-88112600D03*
X162737800Y-111988600D03*
X124383800Y-97942400D03*
X162407600Y-98018600D03*
X134594600Y-101498400D03*
X140741400Y-100456950D03*
X137464800Y-101498400D03*
X138176000Y-102336600D03*
X140233400Y-101523800D03*
X143078200Y-101549200D03*
X143027400Y-99415600D03*
X145948400Y-101523800D03*
X134620000Y-100634800D03*
X137922000Y-100457000D03*
X134975600Y-98780600D03*
X120599200Y-100660200D03*
X114782600Y-101473000D03*
X118287800Y-102565200D03*
X117652800Y-101447600D03*
X120472200Y-101473000D03*
X123291600Y-101473000D03*
X123291600Y-99161600D03*
X126136400Y-101473000D03*
X114731800Y-100584000D03*
X118465600Y-100380800D03*
X114782600Y-98221800D03*
D29*
X99466400Y-108754800D02*
X97421210Y-108754800D01*
X108381800Y-109415200D02*
X106550210Y-109415200D01*
X107772200Y-108780200D02*
X106565210Y-108780200D01*
X106565210Y-108780200D02*
X106545010Y-108760000D01*
X127393210Y-108780200D02*
X127373010Y-108760000D01*
X129590800Y-108780200D02*
X127393210Y-108780200D01*
D30*
X141191000Y-108780200D02*
X140385800Y-108780200D01*
X141376400Y-108594800D02*
X141191000Y-108780200D01*
X141376400Y-106908600D02*
X141376400Y-108594800D01*
D29*
X139077210Y-108780200D02*
X139057010Y-108760000D01*
X140385800Y-108780200D02*
X139077210Y-108780200D01*
X139062210Y-109415200D02*
X139057010Y-109410000D01*
X140919200Y-109415200D02*
X139062210Y-109415200D01*
X148210600Y-109423200D02*
X148205400Y-109418000D01*
X149987000Y-109423200D02*
X148210600Y-109423200D01*
X148225600Y-108788200D02*
X148205400Y-108768000D01*
X149479000Y-108788200D02*
X148225600Y-108788200D01*
X153212800Y-96443800D02*
X153212800Y-96970400D01*
X153212800Y-96970400D02*
X153222800Y-96980400D01*
X153390600Y-96266000D02*
X153212800Y-96443800D01*
X97469800Y-90859000D02*
X96853400Y-90859000D01*
D31*
X93500800Y-91545000D02*
X94498000Y-92542200D01*
X94498000Y-92542200D02*
X94498000Y-94306200D01*
D29*
X96853400Y-90859000D02*
X96850200Y-90855800D01*
D31*
X93500800Y-90521600D02*
X93500800Y-91545000D01*
D29*
X134404700Y-102904800D02*
X134043000Y-102904800D01*
X155042200Y-107468000D02*
X155168600Y-107594400D01*
X160756600Y-97256600D02*
X160756600Y-96802700D01*
X117001200Y-99728200D02*
X116535200Y-99728200D01*
X141986000Y-102632600D02*
X141986000Y-103004800D01*
X149465400Y-100626800D02*
X148674200Y-100626800D01*
X136787800Y-99804400D02*
X136321800Y-99804400D01*
X160789200Y-105156000D02*
X160789200Y-104756800D01*
D30*
X143887000Y-96901000D02*
X143719200Y-96901000D01*
D29*
X155175000Y-107588000D02*
X155757190Y-107588000D01*
D30*
X161493200Y-92659200D02*
X161493200Y-92913200D01*
D29*
X119846000Y-102979400D02*
X119380000Y-102979400D01*
X125044200Y-102607200D02*
X125044200Y-102979400D01*
X104952800Y-108707610D02*
X104952800Y-107588000D01*
X144214800Y-111360000D02*
X144957010Y-111360000D01*
X120307700Y-102879400D02*
X119946000Y-102879400D01*
X114096800Y-108712000D02*
X114096800Y-107588000D01*
X145296800Y-103004800D02*
X144830800Y-103004800D01*
X160756600Y-96802700D02*
X160740000Y-96786100D01*
X114256400Y-99637000D02*
X114156400Y-99737000D01*
X133943000Y-99804400D02*
X133477000Y-99804400D01*
D30*
X129416200Y-96218400D02*
X129489200Y-96291400D01*
D29*
X118232610Y-104521800D02*
X118858810Y-104521800D01*
X138836400Y-96222400D02*
X139235600Y-96222400D01*
D31*
X89500800Y-91474200D02*
X89500800Y-90521600D01*
D29*
X114618100Y-99637000D02*
X114256400Y-99637000D01*
X146608800Y-108737400D02*
X146613190Y-108733010D01*
X139192000Y-102632600D02*
X139192000Y-103004800D01*
X160840000Y-97340000D02*
X160756600Y-97256600D01*
X139776200Y-96122400D02*
X139776200Y-96494600D01*
X148209000Y-104555200D02*
X148835200Y-104555200D01*
X139335600Y-96122400D02*
X139776200Y-96122400D01*
X113514610Y-107580000D02*
X114096800Y-107580000D01*
X133477000Y-102632600D02*
X133477000Y-103004800D01*
X136887800Y-102904800D02*
X136787800Y-103004800D01*
X153222800Y-97880400D02*
X152232200Y-97880400D01*
D30*
X160909000Y-93116400D02*
X160824600Y-93200800D01*
X143887000Y-97218400D02*
X143891000Y-97222400D01*
D29*
X122665400Y-102979400D02*
X122199400Y-102979400D01*
X136321800Y-99432200D02*
X136321800Y-99804400D01*
X145396800Y-102904800D02*
X145296800Y-103004800D01*
X160778700Y-99720400D02*
X160740000Y-99681700D01*
X119946000Y-102879400D02*
X119846000Y-102979400D01*
D30*
X129921000Y-97208400D02*
X129931000Y-97218400D01*
D29*
X134342610Y-107580000D02*
X134924800Y-107580000D01*
X140119700Y-102904800D02*
X139758000Y-102904800D01*
X146026610Y-107580000D02*
X146608800Y-107580000D01*
X125610200Y-102879400D02*
X125510200Y-102979400D01*
X136887800Y-99704400D02*
X136787800Y-99804400D01*
X125776410Y-108686600D02*
X125780800Y-108682210D01*
X144018000Y-111556800D02*
X144214800Y-111360000D01*
D30*
X153887400Y-97880400D02*
X153898600Y-97891600D01*
X143345400Y-96222400D02*
X142951200Y-96222400D01*
D29*
X137249500Y-102904800D02*
X136887800Y-102904800D01*
X125806200Y-96494600D02*
X125806200Y-96122400D01*
D30*
X129921000Y-96824800D02*
X129921000Y-97208400D01*
D29*
X161086800Y-111150400D02*
X160740000Y-111150400D01*
D30*
X129565400Y-96824800D02*
X129921000Y-96824800D01*
D29*
X113381810Y-107460000D02*
X113508210Y-107586400D01*
X114971428Y-85882200D02*
X114971428Y-84875772D01*
X114256400Y-102879400D02*
X114156400Y-102979400D01*
X117462900Y-99628200D02*
X117101200Y-99628200D01*
X121412000Y-90144600D02*
X121052900Y-90144600D01*
X160840000Y-100235600D02*
X160740000Y-100135600D01*
X150759000Y-96980400D02*
X149743000Y-96980400D01*
D30*
X128991200Y-96218400D02*
X129416200Y-96218400D01*
D29*
X144830800Y-102632600D02*
X144830800Y-103004800D01*
X122765400Y-102879400D02*
X122665400Y-102979400D01*
X98030810Y-104521800D02*
X98039610Y-104513000D01*
X161112200Y-96774000D02*
X160752100Y-96774000D01*
X115544600Y-113309400D02*
X115544600Y-112877600D01*
D30*
X160824600Y-93200800D02*
X160824600Y-93595000D01*
D29*
X114618100Y-102879400D02*
X114256400Y-102879400D01*
X125065810Y-107434600D02*
X125192210Y-107561000D01*
X155752800Y-108576910D02*
X155748410Y-108581300D01*
X139658000Y-103004800D02*
X139192000Y-103004800D01*
X133477000Y-99432200D02*
X133477000Y-99804400D01*
D30*
X153222800Y-97880400D02*
X153887400Y-97880400D01*
D29*
X136321800Y-102632600D02*
X136321800Y-103004800D01*
X139686810Y-104547200D02*
X139695610Y-104538400D01*
X123127100Y-102879400D02*
X122765400Y-102879400D01*
X117101200Y-99628200D02*
X117001200Y-99728200D01*
X145893810Y-107460000D02*
X146020210Y-107586400D01*
D30*
X129489200Y-96291400D02*
X129489200Y-96748600D01*
D29*
X160840000Y-100621500D02*
X160840000Y-100235600D01*
X154648000Y-100926800D02*
X154660600Y-100914200D01*
X104364210Y-107561000D02*
X104370610Y-107554600D01*
X121052900Y-90144600D02*
X121050000Y-90141700D01*
X137249500Y-99704400D02*
X136887800Y-99704400D01*
X113508210Y-107586400D02*
X113514610Y-107580000D01*
X114156400Y-102979400D02*
X113690400Y-102979400D01*
X104370610Y-107554600D02*
X104952800Y-107554600D01*
X146613190Y-108733010D02*
X146613190Y-107588000D01*
X145758500Y-102904800D02*
X145396800Y-102904800D01*
X125198610Y-107554600D02*
X125780800Y-107554600D01*
X125510200Y-102979400D02*
X125044200Y-102979400D01*
X121051900Y-87223600D02*
X121039800Y-87235700D01*
X123325800Y-97222400D02*
X123425800Y-97122400D01*
D30*
X143719200Y-96901000D02*
X143429800Y-96611600D01*
D29*
X149743000Y-96980400D02*
X148967800Y-96980400D01*
X139235600Y-96222400D02*
X139335600Y-96122400D01*
D30*
X143429800Y-96611600D02*
X143429800Y-96306800D01*
D29*
X154111800Y-100926800D02*
X154648000Y-100926800D01*
X142452000Y-103004800D02*
X141986000Y-103004800D01*
X136565400Y-113527600D02*
X136347200Y-113309400D01*
X124129010Y-107434600D02*
X125065810Y-107434600D01*
X133273010Y-107460000D02*
X134209810Y-107460000D01*
X160789200Y-104756800D02*
X160689200Y-104656800D01*
X104237810Y-107434600D02*
X104364210Y-107561000D01*
X114156400Y-99737000D02*
X113690400Y-99737000D01*
X132257800Y-111360000D02*
X133273010Y-111360000D01*
X160840000Y-97725900D02*
X160840000Y-97340000D01*
X116535200Y-102607200D02*
X116535200Y-102979400D01*
X113690400Y-102607200D02*
X113690400Y-102979400D01*
X113690400Y-99364800D02*
X113690400Y-99737000D01*
X139060610Y-104547200D02*
X139686810Y-104547200D01*
X142913700Y-102904800D02*
X142552000Y-102904800D01*
D31*
X88498000Y-94306200D02*
X88498000Y-92477000D01*
D29*
X122936000Y-96875600D02*
X122936000Y-97222400D01*
X154105400Y-107468000D02*
X155042200Y-107468000D01*
X102285800Y-111334600D02*
X103301010Y-111334600D01*
X144957010Y-107460000D02*
X145893810Y-107460000D01*
X97404610Y-104521800D02*
X98030810Y-104521800D01*
X116535200Y-99356000D02*
X116535200Y-99728200D01*
X106548610Y-104547200D02*
X107174810Y-104547200D01*
X104948410Y-108712000D02*
X104952800Y-108707610D01*
X155168600Y-107594400D02*
X155175000Y-107588000D01*
X125971900Y-102879400D02*
X125610200Y-102879400D01*
X107174810Y-104547200D02*
X107183610Y-104538400D01*
X123063000Y-111506000D02*
X123234400Y-111334600D01*
X155752800Y-107588000D02*
X155752800Y-108576910D01*
D30*
X161493200Y-92913200D02*
X161290000Y-93116400D01*
D29*
X111506000Y-111360000D02*
X112445010Y-111360000D01*
D30*
X161290000Y-93116400D02*
X160909000Y-93116400D01*
D29*
X139758000Y-102904800D02*
X139658000Y-103004800D01*
D30*
X143887000Y-96901000D02*
X143887000Y-97218400D01*
D29*
X117101200Y-102879400D02*
X117001200Y-102979400D01*
X125780800Y-108682210D02*
X125780800Y-107588000D01*
X115544600Y-112877600D02*
X116316800Y-112877600D01*
X124866400Y-96222400D02*
X125265600Y-96222400D01*
X116316800Y-113527600D02*
X115762800Y-113527600D01*
X161112200Y-99720400D02*
X160778700Y-99720400D01*
X137119400Y-113527600D02*
X136565400Y-113527600D01*
X117462900Y-102879400D02*
X117101200Y-102879400D01*
X137119400Y-112877600D02*
X136347200Y-112877600D01*
X125365600Y-96122400D02*
X125806200Y-96122400D01*
X112445010Y-107460000D02*
X113381810Y-107460000D01*
X146020210Y-107586400D02*
X146026610Y-107580000D01*
X160689200Y-104656800D02*
X160689200Y-104241600D01*
X134043000Y-99704400D02*
X133943000Y-99804400D01*
X123234400Y-111334600D02*
X124129010Y-111334600D01*
X134209810Y-107460000D02*
X134336210Y-107586400D01*
X160752100Y-96774000D02*
X160740000Y-96786100D01*
X103301010Y-107434600D02*
X104237810Y-107434600D01*
X133943000Y-103004800D02*
X133477000Y-103004800D01*
X122199400Y-102607200D02*
X122199400Y-102979400D01*
D30*
X161493200Y-92659200D02*
X161820600Y-92659200D01*
D29*
X160740000Y-100135600D02*
X160740000Y-99681700D01*
X119380000Y-102607200D02*
X119380000Y-102979400D01*
D30*
X143429800Y-96306800D02*
X143345400Y-96222400D01*
D29*
X115762800Y-113527600D02*
X115544600Y-113309400D01*
X122936000Y-97222400D02*
X123325800Y-97222400D01*
X125265600Y-96222400D02*
X125365600Y-96122400D01*
X148674200Y-100626800D02*
X148666200Y-100634800D01*
X128002810Y-104547200D02*
X128011610Y-104538400D01*
X148835200Y-104555200D02*
X148844000Y-104546400D01*
D30*
X161820600Y-92659200D02*
X161824600Y-92655200D01*
D29*
X148967800Y-96980400D02*
X148539200Y-97409000D01*
X121412000Y-87223600D02*
X121051900Y-87223600D01*
X142552000Y-102904800D02*
X142452000Y-103004800D01*
X134924800Y-108737400D02*
X134924800Y-107588000D01*
X118858810Y-104521800D02*
X118867610Y-104513000D01*
X134043000Y-102904800D02*
X133943000Y-103004800D01*
X136787800Y-103004800D02*
X136321800Y-103004800D01*
X114971428Y-84875772D02*
X114985800Y-84861400D01*
X127376610Y-104547200D02*
X128002810Y-104547200D01*
X123425800Y-97122400D02*
X123875800Y-97122400D01*
D31*
X88498000Y-92477000D02*
X89500800Y-91474200D01*
D29*
X125192210Y-107561000D02*
X125198610Y-107554600D01*
X136347200Y-113309400D02*
X136347200Y-112877600D01*
X134336210Y-107586400D02*
X134342610Y-107580000D01*
X153136600Y-111368000D02*
X154105400Y-111368000D01*
X117001200Y-102979400D02*
X116535200Y-102979400D01*
D30*
X129489200Y-96748600D02*
X129565400Y-96824800D01*
D29*
X134404700Y-99704400D02*
X134043000Y-99704400D01*
X98794800Y-95188000D02*
X97469800Y-95188000D01*
X99085400Y-95554800D02*
X99085400Y-95478600D01*
X99085400Y-95478600D02*
X98794800Y-95188000D01*
X114971428Y-86982200D02*
X114617400Y-86982200D01*
X115455800Y-86982200D02*
X114971428Y-86982200D01*
X116461800Y-86432200D02*
X116005800Y-86432200D01*
X116005800Y-86432200D02*
X115455800Y-86982200D01*
X114017428Y-86918800D02*
X113980828Y-86882200D01*
X114554000Y-86918800D02*
X114017428Y-86918800D01*
X114617400Y-86982200D02*
X114554000Y-86918800D01*
X127181000Y-96218400D02*
X127076200Y-96113600D01*
X128026000Y-96218400D02*
X127181000Y-96218400D01*
X141986000Y-95758000D02*
X141630400Y-95402400D01*
X141986000Y-96222400D02*
X141986000Y-95758000D01*
X160455800Y-94560200D02*
X160121600Y-94894400D01*
X160824600Y-94560200D02*
X160455800Y-94560200D01*
X122936000Y-96122400D02*
X122936000Y-95580200D01*
X161840000Y-99681700D02*
X162343500Y-99681700D01*
X115432600Y-112227600D02*
X116316800Y-112227600D01*
X97404610Y-105621800D02*
X98023010Y-105621800D01*
X97401010Y-105625400D02*
X97404610Y-105621800D01*
D31*
X118561800Y-86432200D02*
X119528400Y-86432200D01*
D29*
X139057010Y-106810000D02*
X139057010Y-105650800D01*
X113690400Y-100880000D02*
X113690400Y-101879400D01*
X122150000Y-90141700D02*
X123015100Y-90141700D01*
X116535200Y-101462800D02*
X116535200Y-101879400D01*
X97401010Y-106784600D02*
X97401010Y-105625400D01*
X135219400Y-112877600D02*
X135596252Y-112877600D01*
X106545010Y-105650800D02*
X106548610Y-105647200D01*
X161840000Y-111150400D02*
X162737800Y-111150400D01*
X136333900Y-101513600D02*
X136321800Y-101525700D01*
D30*
X129921000Y-94792800D02*
X129931000Y-94802800D01*
D29*
X139057010Y-105650800D02*
X139060610Y-105647200D01*
X122199400Y-100880000D02*
X122199400Y-101879400D01*
X141986000Y-100905400D02*
X141986000Y-101904800D01*
X139679010Y-105647200D02*
X139695610Y-105630600D01*
X127376610Y-105647200D02*
X127995010Y-105647200D01*
X154655800Y-99826800D02*
X154660600Y-99822000D01*
X127995010Y-105647200D02*
X128011610Y-105630600D01*
X114416800Y-112877600D02*
X114782600Y-112877600D01*
X148205400Y-106818000D02*
X148205400Y-105658800D01*
D31*
X119528400Y-86432200D02*
X119532400Y-86436200D01*
D29*
X139776200Y-98145600D02*
X139776200Y-97222400D01*
X118229010Y-106784600D02*
X118229010Y-105625400D01*
X123024300Y-87235700D02*
X123037600Y-87249000D01*
X148827400Y-105655200D02*
X148844000Y-105638600D01*
X118229010Y-105625400D02*
X118232610Y-105621800D01*
X148209000Y-105655200D02*
X148827400Y-105655200D01*
X136246252Y-112227600D02*
X137119400Y-112227600D01*
X122139800Y-87235700D02*
X123024300Y-87235700D01*
X127373010Y-106810000D02*
X127373010Y-105650800D01*
X98023010Y-105621800D02*
X98039610Y-105605200D01*
X113690400Y-98237000D02*
X113690400Y-98637000D01*
X106548610Y-105647200D02*
X107167010Y-105647200D01*
X125806200Y-98272600D02*
X125806200Y-97222400D01*
X162343500Y-99681700D02*
X162356800Y-99695000D01*
X161853300Y-96799400D02*
X161840000Y-96786100D01*
X114416800Y-112877600D02*
X113792000Y-112877600D01*
X154111800Y-99826800D02*
X154655800Y-99826800D01*
X118232610Y-105621800D02*
X118851010Y-105621800D01*
X114782600Y-112877600D02*
X115432600Y-112227600D01*
X148205400Y-105658800D02*
X148209000Y-105655200D01*
X119380000Y-100880000D02*
X119380000Y-101879400D01*
X123015100Y-90141700D02*
X123037600Y-90119200D01*
X162839400Y-96799400D02*
X161853300Y-96799400D01*
X162737800Y-111150400D02*
X162763200Y-111175800D01*
X127373010Y-105650800D02*
X127376610Y-105647200D01*
X162687000Y-104241600D02*
X161789200Y-104241600D01*
X153365200Y-100126800D02*
X153665200Y-99826800D01*
D30*
X159338200Y-92655200D02*
X160724600Y-92655200D01*
D29*
X106545010Y-106810000D02*
X106545010Y-105650800D01*
X153665200Y-99826800D02*
X154111800Y-99826800D01*
D30*
X129931000Y-94802800D02*
X129931000Y-96118400D01*
D29*
X118851010Y-105621800D02*
X118867610Y-105605200D01*
X144830800Y-100905400D02*
X144830800Y-101904800D01*
X107167010Y-105647200D02*
X107183610Y-105630600D01*
X134696200Y-112877600D02*
X135219400Y-112877600D01*
X125044200Y-100880000D02*
X125044200Y-101879400D01*
X136321800Y-101525700D02*
X136321800Y-101904800D01*
X139192000Y-100905400D02*
X139192000Y-101904800D01*
X136321800Y-97705000D02*
X136321800Y-98704400D01*
X152865400Y-100126800D02*
X153365200Y-100126800D01*
X143891000Y-94742000D02*
X143891000Y-96122400D01*
X135596252Y-112877600D02*
X136246252Y-112227600D01*
X133477000Y-101066600D02*
X133477000Y-101904800D01*
X116535200Y-97628800D02*
X116535200Y-98628200D01*
X139060610Y-105647200D02*
X139679010Y-105647200D01*
X133477000Y-97840800D02*
X133477000Y-98704400D01*
D30*
X159334200Y-92659200D02*
X159338200Y-92655200D01*
D29*
X107924600Y-97053400D02*
X118059200Y-97053400D01*
X107340400Y-95885000D02*
X107670600Y-96215200D01*
X118567200Y-88011000D02*
X118033800Y-88011000D01*
X102184200Y-95885000D02*
X107340400Y-95885000D01*
X115058000Y-87956200D02*
X115112800Y-88011000D01*
X122529600Y-86004400D02*
X121056400Y-86004400D01*
X119049800Y-88011000D02*
X118033800Y-88011000D01*
X107670600Y-96215200D02*
X107670600Y-96799400D01*
X114430828Y-87956200D02*
X115058000Y-87956200D01*
X107670600Y-96799400D02*
X107924600Y-97053400D01*
X118059200Y-97053400D02*
X118567200Y-96545400D01*
X118033800Y-88011000D02*
X115112800Y-88011000D01*
X101803200Y-96266000D02*
X102184200Y-95885000D01*
X121056400Y-86004400D02*
X119049800Y-88011000D01*
X118567200Y-96545400D02*
X118567200Y-88011000D01*
X122975748Y-88925400D02*
X122885200Y-88925400D01*
X123407548Y-88493600D02*
X122975748Y-88925400D01*
X157556200Y-94386400D02*
X157226000Y-94056200D01*
X126873000Y-88493600D02*
X127685800Y-89306400D01*
X127685800Y-93218000D02*
X127685800Y-89306400D01*
X128524000Y-94056200D02*
X157226000Y-94056200D01*
X123407548Y-88493600D02*
X126873000Y-88493600D01*
X128524000Y-94056200D02*
X127685800Y-93218000D01*
X138836400Y-97122400D02*
X138836400Y-97409000D01*
X138836400Y-97409000D02*
X138607800Y-97637600D01*
X135592400Y-97122400D02*
X132595200Y-97122400D01*
X123102748Y-98221800D02*
X118694200Y-98221800D01*
X150415400Y-98631600D02*
X150759000Y-98288000D01*
X115697000Y-97840800D02*
X115697000Y-98983800D01*
X117803300Y-100304600D02*
X116179600Y-100304600D01*
X152232200Y-96980400D02*
X152232200Y-96510000D01*
X151460200Y-97078800D02*
X151561800Y-96977200D01*
X152232200Y-96510000D02*
X152476200Y-96266000D01*
X132595200Y-97122400D02*
X130860800Y-98856800D01*
X118694200Y-98221800D02*
X118016900Y-98899100D01*
X98983200Y-107468000D02*
X98983800Y-107467400D01*
X123737748Y-98856800D02*
X123102748Y-98221800D01*
X150759000Y-97880400D02*
X151293600Y-97880400D01*
X151565000Y-96980400D02*
X152232200Y-96980400D01*
X118016900Y-98899100D02*
X118016900Y-100091000D01*
X150415400Y-99176800D02*
X150415400Y-98631600D01*
X106550000Y-107467400D02*
X106549400Y-107468000D01*
X151460200Y-97713800D02*
X151460200Y-97078800D01*
X108127800Y-107467400D02*
X106550000Y-107467400D01*
X115697000Y-99822000D02*
X115697000Y-98983800D01*
X118016900Y-100091000D02*
X117803300Y-100304600D01*
X151293600Y-97880400D02*
X151460200Y-97713800D01*
X135407400Y-99466400D02*
X135592400Y-99281400D01*
X151561800Y-96977200D02*
X151565000Y-96980400D01*
X97405400Y-107468000D02*
X98983200Y-107468000D01*
X112572800Y-97612200D02*
X115468400Y-97612200D01*
X150759000Y-98288000D02*
X150759000Y-97880400D01*
X116179600Y-100304600D02*
X115697000Y-99822000D01*
X135592400Y-97122400D02*
X138836400Y-97122400D01*
X130860800Y-98856800D02*
X123737748Y-98856800D01*
X112191800Y-97993200D02*
X112572800Y-97612200D01*
X112191800Y-100685600D02*
X112191800Y-97993200D01*
X135592400Y-99281400D02*
X135592400Y-97122400D01*
X115468400Y-97612200D02*
X115697000Y-97840800D01*
X149915400Y-99176800D02*
X149915400Y-98556600D01*
X149743000Y-98384200D02*
X149743000Y-97880400D01*
X149225000Y-99034600D02*
X149367200Y-99176800D01*
X149915400Y-98556600D02*
X149743000Y-98384200D01*
X149367200Y-99176800D02*
X149915400Y-99176800D01*
X149225000Y-98755200D02*
X149225000Y-99034600D01*
X111607600Y-88417400D02*
X112014000Y-88011000D01*
X110007400Y-91567000D02*
X111302800Y-91567000D01*
X111607600Y-91262200D02*
X111607600Y-88417400D01*
X113389600Y-87956200D02*
X113334800Y-88011000D01*
X109296200Y-92481400D02*
X109296200Y-92278200D01*
X109296200Y-92278200D02*
X110007400Y-91567000D01*
X113530828Y-87956200D02*
X113389600Y-87956200D01*
X111302800Y-91567000D02*
X111607600Y-91262200D01*
X112014000Y-88011000D02*
X113334800Y-88011000D01*
X113980828Y-85982200D02*
X113980828Y-84872428D01*
X113980828Y-84872428D02*
X113969800Y-84861400D01*
X162153600Y-105435400D02*
X162179000Y-105460800D01*
X162179000Y-105460800D02*
X162179000Y-105816400D01*
X161689200Y-105156000D02*
X162001200Y-105156000D01*
X155081400Y-106818000D02*
X155211400Y-106688000D01*
X155211400Y-106688000D02*
X155757190Y-106688000D01*
X162001200Y-105156000D02*
X162153600Y-105308400D01*
X162153600Y-105841800D02*
X162179000Y-105816400D01*
X155757190Y-106688000D02*
X161764600Y-106688000D01*
X161764600Y-106688000D02*
X162153600Y-106299000D01*
X154105400Y-106818000D02*
X155081400Y-106818000D01*
X162153600Y-105308400D02*
X162153600Y-105435400D01*
X162153600Y-106299000D02*
X162153600Y-105841800D01*
X97469800Y-92586200D02*
X96751800Y-92586200D01*
X97469800Y-92586200D02*
X97469800Y-91759000D01*
X96751800Y-92586200D02*
X96723200Y-92557600D01*
X97469800Y-94288000D02*
X97469800Y-93486200D01*
X96824800Y-93472000D02*
X97455600Y-93472000D01*
X97455600Y-93472000D02*
X97469800Y-93486200D01*
X96723200Y-93573600D02*
X96824800Y-93472000D01*
X151584200Y-98425000D02*
X157607000Y-98425000D01*
X158013400Y-104546400D02*
X158165800Y-104698800D01*
X157937200Y-98755200D02*
X158013400Y-98831400D01*
X158013400Y-98831400D02*
X158013400Y-104546400D01*
X151415400Y-98593800D02*
X151584200Y-98425000D01*
X157607000Y-98425000D02*
X157937200Y-98755200D01*
X151415400Y-99176800D02*
X151415400Y-98593800D01*
X135219400Y-113527600D02*
X135219400Y-115265200D01*
X135219400Y-120893800D02*
X135578800Y-121253200D01*
X136194600Y-115273200D02*
X135227400Y-115273200D01*
X135219400Y-115265200D02*
X135219400Y-120893800D01*
X135578800Y-121253200D02*
X136194600Y-121253200D01*
X135227400Y-115273200D02*
X135219400Y-115265200D01*
X114573000Y-121253200D02*
X115366600Y-121253200D01*
X114416800Y-113527600D02*
X114416800Y-115265200D01*
X114416800Y-115265200D02*
X114416800Y-121097000D01*
X114424800Y-115273200D02*
X114416800Y-115265200D01*
X114416800Y-121097000D02*
X114573000Y-121253200D01*
X115366600Y-115273200D02*
X114424800Y-115273200D01*
D30*
X128991200Y-96901000D02*
X128991200Y-97118400D01*
X128026000Y-97118400D02*
X128991200Y-97118400D01*
X142947200Y-97118400D02*
X142951200Y-97122400D01*
X141986000Y-97122400D02*
X142951200Y-97122400D01*
X142947200Y-96875600D02*
X142947200Y-97118400D01*
X161720600Y-93599000D02*
X161724600Y-93595000D01*
X161724600Y-94560200D02*
X161724600Y-93595000D01*
X161467800Y-93599000D02*
X161720600Y-93599000D01*
D29*
X162013300Y-100621500D02*
X162179000Y-100787200D01*
X161740000Y-100621500D02*
X162013300Y-100621500D01*
X137261600Y-98787800D02*
X137261600Y-98501200D01*
X140639200Y-107468000D02*
X140639800Y-107467400D01*
X139061400Y-107468000D02*
X140639200Y-107468000D01*
X133273010Y-106810000D02*
X134249010Y-106810000D01*
D30*
X141401800Y-100761800D02*
X141401800Y-99237800D01*
D29*
X148206000Y-107467400D02*
X148205400Y-107468000D01*
X137261600Y-98501200D02*
X137490200Y-98272600D01*
X134379010Y-106680000D02*
X134924800Y-106680000D01*
D30*
X141401800Y-99237800D02*
X140951800Y-98787800D01*
D29*
X149783800Y-107467400D02*
X148206000Y-107467400D01*
D30*
X140919200Y-101244400D02*
X141401800Y-100761800D01*
X140639800Y-107467400D02*
X140639800Y-103632000D01*
D29*
X137117200Y-106688000D02*
X134929190Y-106688000D01*
D30*
X140951800Y-98787800D02*
X137261600Y-98787800D01*
D29*
X139061400Y-107468000D02*
X137897200Y-107468000D01*
X134249010Y-106810000D02*
X134379010Y-106680000D01*
X137897200Y-107468000D02*
X137117200Y-106688000D01*
D30*
X140919200Y-103352600D02*
X140919200Y-101244400D01*
X140639800Y-103632000D02*
X140919200Y-103352600D01*
D29*
X127378000Y-107467400D02*
X127377400Y-107468000D01*
X114185390Y-106603800D02*
X114101190Y-106688000D01*
D30*
X121158000Y-104114600D02*
X121158000Y-100457000D01*
D29*
X112445010Y-106810000D02*
X113421010Y-106810000D01*
X116993000Y-107468000D02*
X116128800Y-106603800D01*
D30*
X119532400Y-98831400D02*
X119532400Y-98780600D01*
D29*
X117462900Y-98411700D02*
X117627400Y-98247200D01*
D30*
X119811800Y-105460800D02*
X121158000Y-104114600D01*
D29*
X113421010Y-106810000D02*
X113551010Y-106680000D01*
X113551010Y-106680000D02*
X114096800Y-106680000D01*
X128955800Y-107467400D02*
X127378000Y-107467400D01*
X118233400Y-107468000D02*
X119785800Y-107468000D01*
X118233400Y-107468000D02*
X116993000Y-107468000D01*
X119785800Y-107468000D02*
X119811800Y-107442000D01*
D30*
X119532400Y-98831400D02*
X121158000Y-100457000D01*
X119811800Y-107442000D02*
X119811800Y-105460800D01*
D29*
X116128800Y-106603800D02*
X114185390Y-106603800D01*
X117462900Y-98737000D02*
X117462900Y-98411700D01*
X132140600Y-108118000D02*
X132130800Y-108127800D01*
X114416800Y-109865200D02*
X115062000Y-109220000D01*
X124133400Y-108118000D02*
X123022000Y-108118000D01*
X123875800Y-95885000D02*
X124155200Y-95605600D01*
X114416800Y-112227600D02*
X114416800Y-109865200D01*
X152958800Y-108127800D02*
X154095600Y-108127800D01*
X135219400Y-109509600D02*
X135864600Y-108864400D01*
X123875800Y-96222400D02*
X123875800Y-95885000D01*
X143824600Y-108118000D02*
X143814800Y-108127800D01*
X111338000Y-108118000D02*
X111328200Y-108127800D01*
X103305400Y-108118000D02*
X102092400Y-108118000D01*
X102092400Y-108118000D02*
X102082600Y-108127800D01*
X135864600Y-108864400D02*
X135864600Y-108483400D01*
X123022000Y-108118000D02*
X123012200Y-108127800D01*
X154095600Y-108127800D02*
X154105400Y-108118000D01*
X133277400Y-108118000D02*
X132140600Y-108118000D01*
X115062000Y-109220000D02*
X115062000Y-108559600D01*
X135219400Y-112227600D02*
X135219400Y-109509600D01*
X112449400Y-108118000D02*
X111338000Y-108118000D01*
X144961400Y-108118000D02*
X143824600Y-108118000D01*
X144957010Y-106810000D02*
X145933010Y-106810000D01*
X147142200Y-103708200D02*
X146613190Y-104237210D01*
X154105400Y-109418000D02*
X152648800Y-109418000D01*
X146613190Y-104237210D02*
X146613190Y-106688000D01*
X146063010Y-106680000D02*
X146608800Y-106680000D01*
X152648800Y-109418000D02*
X152273000Y-109042200D01*
X145933010Y-106810000D02*
X146063010Y-106680000D01*
X152273000Y-104089200D02*
X151892000Y-103708200D01*
X151892000Y-103708200D02*
X147142200Y-103708200D01*
X152273000Y-109042200D02*
X152273000Y-104089200D01*
X126309810Y-103708200D02*
X125780800Y-104237210D01*
X131440610Y-104089200D02*
X131059610Y-103708200D01*
X133273010Y-109418000D02*
X131816410Y-109418000D01*
X131816410Y-109418000D02*
X131440610Y-109042200D01*
X125105010Y-106784600D02*
X125235010Y-106654600D01*
X131440610Y-109042200D02*
X131440610Y-104089200D01*
X125235010Y-106654600D02*
X125780800Y-106654600D01*
X131059610Y-103708200D02*
X126309810Y-103708200D01*
X125780800Y-104237210D02*
X125780800Y-106688000D01*
X124129010Y-106784600D02*
X125105010Y-106784600D01*
X110988410Y-109410000D02*
X110612610Y-109034200D01*
X104407010Y-106654600D02*
X104952800Y-106654600D01*
X105481810Y-103700200D02*
X104952800Y-104229210D01*
X110612610Y-109034200D02*
X110612610Y-104081200D01*
X110612610Y-104081200D02*
X110231610Y-103700200D01*
X103301010Y-106784600D02*
X104277010Y-106784600D01*
X104952800Y-104229210D02*
X104952800Y-106680000D01*
X104277010Y-106784600D02*
X104407010Y-106654600D01*
X112445010Y-109410000D02*
X110988410Y-109410000D01*
X110231610Y-103700200D02*
X105481810Y-103700200D01*
X150420600Y-111253800D02*
X150420600Y-115463200D01*
X149884800Y-110718000D02*
X150420600Y-111253800D01*
X148205400Y-110718000D02*
X149884800Y-110718000D01*
X149809200Y-111582200D02*
X149809200Y-117251800D01*
X148205400Y-111368000D02*
X149595000Y-111368000D01*
X149809200Y-117251800D02*
X150420600Y-117863200D01*
X149595000Y-111368000D02*
X149809200Y-111582200D01*
X151028400Y-118055400D02*
X150420600Y-118663200D01*
X148205400Y-110068000D02*
X150047600Y-110068000D01*
X151028400Y-111048800D02*
X151028400Y-118055400D01*
X150047600Y-110068000D02*
X151028400Y-111048800D01*
X154105400Y-110068000D02*
X152542600Y-110068000D01*
X151815800Y-110794800D02*
X151815800Y-119049800D01*
X151815800Y-119049800D02*
X151402400Y-119463200D01*
X152542600Y-110068000D02*
X151815800Y-110794800D01*
X151402400Y-119463200D02*
X150420600Y-119463200D01*
X152501600Y-119862600D02*
X152501600Y-111048800D01*
X152501600Y-111048800D02*
X152832400Y-110718000D01*
X150418800Y-120269000D02*
X152095200Y-120269000D01*
X152095200Y-120269000D02*
X152501600Y-119862600D01*
X152832400Y-110718000D02*
X154105400Y-110718000D01*
X140736410Y-110710000D02*
X141272210Y-111245800D01*
D30*
X141859000Y-109686310D02*
X141859000Y-106222800D01*
X141859000Y-106222800D02*
X142062200Y-106019600D01*
D29*
X141272210Y-111245800D02*
X141272210Y-115455200D01*
X139057010Y-110710000D02*
X140736410Y-110710000D01*
D30*
X141596855Y-109948455D02*
X141859000Y-109686310D01*
X137922000Y-109220000D02*
X138120000Y-109418000D01*
X136982200Y-107061000D02*
X137922000Y-108000800D01*
X135915400Y-107061000D02*
X136982200Y-107061000D01*
X138120000Y-109418000D02*
X139045800Y-109418000D01*
X135712200Y-107264200D02*
X135915400Y-107061000D01*
X137922000Y-108000800D02*
X137922000Y-109220000D01*
D29*
X140446610Y-111360000D02*
X140660810Y-111574200D01*
D30*
X137109200Y-107543600D02*
X137693400Y-108127800D01*
D29*
X140660810Y-117243800D02*
X141272210Y-117855200D01*
D30*
X136779000Y-107543600D02*
X137109200Y-107543600D01*
D29*
X139057010Y-111360000D02*
X140446610Y-111360000D01*
X140660810Y-111574200D02*
X140660810Y-117243800D01*
D30*
X138292000Y-111368000D02*
X139045800Y-111368000D01*
X137693400Y-109296200D02*
X138049000Y-109651800D01*
X137693400Y-108127800D02*
X137693400Y-109296200D01*
X138049000Y-111125000D02*
X138292000Y-111368000D01*
X138049000Y-109651800D02*
X138049000Y-111125000D01*
X143164200Y-105791000D02*
X142249800Y-106705400D01*
D29*
X140899210Y-110060000D02*
X141859000Y-111019790D01*
X141859000Y-118068410D02*
X141272210Y-118655200D01*
D30*
X142249800Y-106705400D02*
X142249800Y-110376010D01*
D29*
X139057010Y-110060000D02*
X140899210Y-110060000D01*
D30*
X142249800Y-110376010D02*
X141737410Y-110888400D01*
D29*
X141859000Y-111019790D02*
X141859000Y-118068410D01*
X144957010Y-110060000D02*
X143394210Y-110060000D01*
D30*
X143510000Y-106832400D02*
X143256000Y-107086400D01*
D29*
X142254010Y-119455200D02*
X141272210Y-119455200D01*
D30*
X143256000Y-107086400D02*
X143256000Y-109911990D01*
D29*
X143394210Y-110060000D02*
X142667410Y-110786800D01*
X142667410Y-119041800D02*
X142254010Y-119455200D01*
D30*
X143256000Y-109911990D02*
X143378610Y-110034600D01*
D29*
X142667410Y-110786800D02*
X142667410Y-119041800D01*
X143353210Y-111040800D02*
X143684010Y-110710000D01*
D30*
X142732400Y-106934000D02*
X142732400Y-109728000D01*
D29*
X143684010Y-110710000D02*
X144957010Y-110710000D01*
X142946810Y-120261000D02*
X143353210Y-119854600D01*
D30*
X145196200Y-106070400D02*
X143596000Y-106070400D01*
D29*
X141270410Y-120261000D02*
X142946810Y-120261000D01*
X143353210Y-119854600D02*
X143353210Y-111040800D01*
D30*
X143596000Y-106070400D02*
X142732400Y-106934000D01*
D29*
X129052410Y-110710000D02*
X129588210Y-111245800D01*
X127373010Y-110710000D02*
X129052410Y-110710000D01*
X129588210Y-111245800D02*
X129588210Y-115455200D01*
X128951410Y-109415200D02*
X127378210Y-109415200D01*
X127373010Y-111360000D02*
X128762610Y-111360000D01*
X128976810Y-117243800D02*
X129588210Y-117855200D01*
X128762610Y-111360000D02*
X128976810Y-111574200D01*
X128976810Y-111574200D02*
X128976810Y-117243800D01*
X127373010Y-110060000D02*
X129215210Y-110060000D01*
X130352800Y-117890610D02*
X129588210Y-118655200D01*
X129215210Y-110060000D02*
X130352800Y-111197590D01*
X130352800Y-111197590D02*
X130352800Y-117890610D01*
X133273010Y-110060000D02*
X131710210Y-110060000D01*
X131710210Y-110060000D02*
X130983410Y-110786800D01*
X130570010Y-119455200D02*
X129588210Y-119455200D01*
X130983410Y-119041800D02*
X130570010Y-119455200D01*
X130983410Y-110786800D02*
X130983410Y-119041800D01*
X131262810Y-120261000D02*
X131669210Y-119854600D01*
X129586410Y-120261000D02*
X131262810Y-120261000D01*
X132000010Y-110710000D02*
X133273010Y-110710000D01*
X131669210Y-111040800D02*
X132000010Y-110710000D01*
X131669210Y-119854600D02*
X131669210Y-111040800D01*
X119908410Y-110684600D02*
X120444210Y-111220400D01*
D30*
X121208800Y-106629200D02*
X121208800Y-109118400D01*
X121208800Y-109118400D02*
X120624600Y-109702600D01*
D29*
X120444210Y-111220400D02*
X120444210Y-115429800D01*
X118229010Y-110684600D02*
X119908410Y-110684600D01*
D30*
X115036600Y-107264200D02*
X115163600Y-107137200D01*
D29*
X119599010Y-109389800D02*
X118234210Y-109389800D01*
D30*
X117317400Y-109418000D02*
X118233400Y-109418000D01*
D29*
X119810210Y-109601000D02*
X119599010Y-109389800D01*
D30*
X117195600Y-108178600D02*
X117195600Y-109296200D01*
X117195600Y-109296200D02*
X117317400Y-109418000D01*
X116154200Y-107137200D02*
X117195600Y-108178600D01*
X115163600Y-107137200D02*
X116154200Y-107137200D01*
X119815410Y-108762800D02*
X119807410Y-108754800D01*
X120421400Y-108737400D02*
X120396000Y-108762800D01*
D29*
X119807410Y-108754800D02*
X118249210Y-108754800D01*
D30*
X120396000Y-108762800D02*
X119815410Y-108762800D01*
X120421400Y-106883200D02*
X120421400Y-108737400D01*
D29*
X119618610Y-111334600D02*
X119832810Y-111548800D01*
D30*
X116967000Y-109448600D02*
X117221000Y-109702600D01*
X115900200Y-107594400D02*
X116306600Y-107594400D01*
X116967000Y-108254800D02*
X116967000Y-109448600D01*
D29*
X119832810Y-111548800D02*
X119832810Y-117218400D01*
D30*
X117413200Y-111368000D02*
X118233400Y-111368000D01*
X117221000Y-111175800D02*
X117413200Y-111368000D01*
X117221000Y-109702600D02*
X117221000Y-111175800D01*
D29*
X118229010Y-111334600D02*
X119618610Y-111334600D01*
D30*
X116306600Y-107594400D02*
X116967000Y-108254800D01*
D29*
X119832810Y-117218400D02*
X120444210Y-117829800D01*
D30*
X121691400Y-106958605D02*
X121437400Y-107212605D01*
X121437400Y-110376010D02*
X120925010Y-110888400D01*
X121437400Y-107212605D02*
X121437400Y-110376010D01*
D29*
X118233400Y-110068000D02*
X118350600Y-110185200D01*
X120221810Y-110185200D02*
X120925010Y-110888400D01*
D30*
X121691400Y-106095800D02*
X121691400Y-106958605D01*
D29*
X120925010Y-110888400D02*
X121285000Y-111248390D01*
X121285000Y-117789010D02*
X120444210Y-118629800D01*
X118350600Y-110185200D02*
X120221810Y-110185200D01*
X121285000Y-111248390D02*
X121285000Y-117789010D01*
D30*
X121361200Y-105765600D02*
X121691400Y-106095800D01*
D29*
X121839410Y-110761400D02*
X121839410Y-119016400D01*
D30*
X122809000Y-106832400D02*
X122453400Y-107188000D01*
D29*
X121839410Y-119016400D02*
X121426010Y-119429800D01*
X122566210Y-110034600D02*
X121839410Y-110761400D01*
X121426010Y-119429800D02*
X120444210Y-119429800D01*
D30*
X122453400Y-107188000D02*
X122453400Y-109921790D01*
D29*
X124129010Y-110034600D02*
X122566210Y-110034600D01*
D30*
X122453400Y-109921790D02*
X122566210Y-110034600D01*
X121920000Y-106934000D02*
X121920000Y-109728000D01*
X122783600Y-106070400D02*
X121920000Y-106934000D01*
D29*
X120442410Y-120235600D02*
X122118810Y-120235600D01*
X122118810Y-120235600D02*
X122525210Y-119829200D01*
X122525210Y-111015400D02*
X122856010Y-110684600D01*
X122525210Y-119829200D02*
X122525210Y-111015400D01*
D30*
X124383800Y-106070400D02*
X122783600Y-106070400D01*
D29*
X122856010Y-110684600D02*
X124129010Y-110684600D01*
X106545010Y-110710000D02*
X108224410Y-110710000D01*
X108224410Y-110710000D02*
X108760210Y-111245800D01*
X108760210Y-111245800D02*
X108760210Y-115455200D01*
X108148810Y-111574200D02*
X108148810Y-117243800D01*
X106545010Y-111360000D02*
X107934610Y-111360000D01*
X107934610Y-111360000D02*
X108148810Y-111574200D01*
X108148810Y-117243800D02*
X108760210Y-117855200D01*
X106545010Y-110060000D02*
X108387210Y-110060000D01*
X109499400Y-117916010D02*
X108760210Y-118655200D01*
X108387210Y-110060000D02*
X109499400Y-111172190D01*
X109499400Y-111172190D02*
X109499400Y-117916010D01*
X110155410Y-119041800D02*
X109742010Y-119455200D01*
X110882210Y-110060000D02*
X110155410Y-110786800D01*
X109742010Y-119455200D02*
X108760210Y-119455200D01*
X112445010Y-110060000D02*
X110882210Y-110060000D01*
X110155410Y-110786800D02*
X110155410Y-119041800D01*
X110841210Y-111040800D02*
X111172010Y-110710000D01*
X110434810Y-120261000D02*
X110841210Y-119854600D01*
X111172010Y-110710000D02*
X112445010Y-110710000D01*
X110841210Y-119854600D02*
X110841210Y-111040800D01*
X108758410Y-120261000D02*
X110434810Y-120261000D01*
X99080410Y-110684600D02*
X99616210Y-111220400D01*
X99616210Y-111220400D02*
X99616210Y-115429800D01*
X97401010Y-110684600D02*
X99080410Y-110684600D01*
X98979410Y-109389800D02*
X97406210Y-109389800D01*
X98790610Y-111334600D02*
X99004810Y-111548800D01*
X99004810Y-117218400D02*
X99616210Y-117829800D01*
X97401010Y-111334600D02*
X98790610Y-111334600D01*
X99004810Y-111548800D02*
X99004810Y-117218400D01*
X97401010Y-110034600D02*
X99243210Y-110034600D01*
X99243210Y-110034600D02*
X100279200Y-111070590D01*
X100279200Y-111070590D02*
X100279200Y-117966810D01*
X100279200Y-117966810D02*
X99616210Y-118629800D01*
X101011410Y-110761400D02*
X101011410Y-119016400D01*
X101011410Y-119016400D02*
X100598010Y-119429800D01*
X103301010Y-110034600D02*
X101738210Y-110034600D01*
X100598010Y-119429800D02*
X99616210Y-119429800D01*
X101738210Y-110034600D02*
X101011410Y-110761400D01*
X101697210Y-119829200D02*
X101697210Y-111015400D01*
X101697210Y-111015400D02*
X102028010Y-110684600D01*
X102028010Y-110684600D02*
X103301010Y-110684600D01*
X99614410Y-120235600D02*
X101290810Y-120235600D01*
X101290810Y-120235600D02*
X101697210Y-119829200D01*
X123825000Y-89656100D02*
X123835200Y-89666300D01*
X123825000Y-89077800D02*
X123825000Y-89656100D01*
X123825000Y-86055200D02*
X123825000Y-86760300D01*
X163525200Y-109956600D02*
X163525200Y-110675000D01*
X123403300Y-90566300D02*
X123037600Y-90932000D01*
X123835200Y-90566300D02*
X123403300Y-90566300D01*
X123489900Y-87660300D02*
X123037600Y-88112600D01*
X123825000Y-87660300D02*
X123489900Y-87660300D01*
X163525200Y-111575000D02*
X163151400Y-111575000D01*
X163151400Y-111575000D02*
X162737800Y-111988600D01*
X124866400Y-97459800D02*
X124383800Y-97942400D01*
X124866400Y-97122400D02*
X124866400Y-97459800D01*
X162114900Y-97725900D02*
X162407600Y-98018600D01*
X161740000Y-97725900D02*
X162114900Y-97725900D01*
D30*
X135153400Y-100939600D02*
X134594600Y-101498400D01*
D29*
X134416800Y-102013600D02*
X134416800Y-101676200D01*
D30*
X138633250Y-100456950D02*
X138150600Y-100939600D01*
X138150600Y-100939600D02*
X135153400Y-100939600D01*
X140741400Y-100456950D02*
X138633250Y-100456950D01*
D29*
X134416800Y-101676200D02*
X134594600Y-101498400D01*
X137261600Y-101701600D02*
X137464800Y-101498400D01*
D30*
X138176000Y-102336600D02*
X137853000Y-102013600D01*
D29*
X137261600Y-102013600D02*
X137261600Y-101701600D01*
D30*
X137853000Y-102013600D02*
X137261600Y-102013600D01*
D29*
X140107600Y-101649600D02*
X140233400Y-101523800D01*
X140107600Y-102013600D02*
X140107600Y-101649600D01*
X142925800Y-101701600D02*
X143078200Y-101549200D01*
D30*
X143078200Y-99466400D02*
X143078200Y-101549200D01*
X143027400Y-99415600D02*
X143078200Y-99466400D01*
D29*
X142925800Y-102013600D02*
X142925800Y-101701600D01*
D30*
X137820400Y-100558600D02*
X137922000Y-100457000D01*
X134696200Y-100558600D02*
X137820400Y-100558600D01*
X134620000Y-100634800D02*
X134696200Y-100558600D01*
D29*
X145768900Y-102013600D02*
X145768900Y-101701600D01*
X145768900Y-101701600D02*
X145921300Y-101549200D01*
X134416800Y-98787800D02*
X134968400Y-98787800D01*
X134968400Y-98787800D02*
X134975600Y-98780600D01*
X114618100Y-101962800D02*
X114618100Y-101637500D01*
D30*
X118914050Y-100566555D02*
X118914050Y-100558600D01*
X118914050Y-100558600D02*
X119041100Y-100431550D01*
D29*
X114618100Y-101637500D02*
X114782600Y-101473000D01*
D30*
X118481455Y-100999150D02*
X118914050Y-100566555D01*
X115468400Y-101473000D02*
X115942250Y-100999150D01*
X120370550Y-100431550D02*
X120599200Y-100660200D01*
X114782600Y-101473000D02*
X115468400Y-101473000D01*
X119041100Y-100431550D02*
X120370550Y-100431550D01*
X115942250Y-100999150D02*
X118481455Y-100999150D01*
D29*
X117462900Y-101962800D02*
X117462900Y-101637500D01*
D30*
X118117200Y-101962800D02*
X117462900Y-101962800D01*
X118287800Y-102565200D02*
X118287800Y-102133400D01*
X118287800Y-102133400D02*
X118117200Y-101962800D01*
D29*
X117462900Y-101637500D02*
X117652800Y-101447600D01*
X120308900Y-101962800D02*
X120308900Y-101636300D01*
X120308900Y-101636300D02*
X120472200Y-101473000D01*
D30*
X123291600Y-101473000D02*
X123291600Y-101396800D01*
X123291600Y-101396800D02*
X123291600Y-99161600D01*
D29*
X123127100Y-101637500D02*
X123291600Y-101473000D01*
X123127100Y-101962800D02*
X123127100Y-101637500D01*
X125971900Y-101962800D02*
X125971900Y-101637500D01*
D30*
X118465600Y-100380800D02*
X118135400Y-100711000D01*
X118135400Y-100711000D02*
X114858800Y-100711000D01*
X114858800Y-100711000D02*
X114731800Y-100584000D01*
D29*
X125971900Y-101637500D02*
X126136400Y-101473000D01*
X114618100Y-98737000D02*
X114618100Y-98386300D01*
X114618100Y-98386300D02*
X114782600Y-98221800D01*
M02*
