G04 #@! TF.GenerationSoftware,KiCad,Pcbnew,8.0.1-rc1*
G04 #@! TF.CreationDate,2024-04-28T10:37:13-05:00*
G04 #@! TF.ProjectId,Stopwatch,53746f70-7761-4746-9368-2e6b69636164,rev?*
G04 #@! TF.SameCoordinates,Original*
G04 #@! TF.FileFunction,Copper,L1,Top*
G04 #@! TF.FilePolarity,Positive*
%FSLAX46Y46*%
G04 Gerber Fmt 4.6, Leading zero omitted, Abs format (unit mm)*
G04 Created by KiCad (PCBNEW 8.0.1-rc1) date 2024-04-28 10:37:13*
%MOMM*%
%LPD*%
G01*
G04 APERTURE LIST*
G04 Aperture macros list*
%AMRoundRect*
0 Rectangle with rounded corners*
0 $1 Rounding radius*
0 $2 $3 $4 $5 $6 $7 $8 $9 X,Y pos of 4 corners*
0 Add a 4 corners polygon primitive as box body*
4,1,4,$2,$3,$4,$5,$6,$7,$8,$9,$2,$3,0*
0 Add four circle primitives for the rounded corners*
1,1,$1+$1,$2,$3*
1,1,$1+$1,$4,$5*
1,1,$1+$1,$6,$7*
1,1,$1+$1,$8,$9*
0 Add four rect primitives between the rounded corners*
20,1,$1+$1,$2,$3,$4,$5,0*
20,1,$1+$1,$4,$5,$6,$7,0*
20,1,$1+$1,$6,$7,$8,$9,0*
20,1,$1+$1,$8,$9,$2,$3,0*%
G04 Aperture macros list end*
%ADD10C,0.150000*%
G04 #@! TA.AperFunction,NonConductor*
%ADD11C,0.150000*%
G04 #@! TD*
G04 #@! TA.AperFunction,SMDPad,CuDef*
%ADD12RoundRect,0.100000X-0.225000X-0.100000X0.225000X-0.100000X0.225000X0.100000X-0.225000X0.100000X0*%
G04 #@! TD*
G04 #@! TA.AperFunction,SMDPad,CuDef*
%ADD13R,10.000000X10.000000*%
G04 #@! TD*
G04 #@! TA.AperFunction,SMDPad,CuDef*
%ADD14R,1.000000X1.600000*%
G04 #@! TD*
G04 #@! TA.AperFunction,SMDPad,CuDef*
%ADD15R,0.650000X1.060000*%
G04 #@! TD*
G04 #@! TA.AperFunction,SMDPad,CuDef*
%ADD16RoundRect,0.100000X0.100000X-0.225000X0.100000X0.225000X-0.100000X0.225000X-0.100000X-0.225000X0*%
G04 #@! TD*
G04 #@! TA.AperFunction,SMDPad,CuDef*
%ADD17R,0.400000X0.600000*%
G04 #@! TD*
G04 #@! TA.AperFunction,SMDPad,CuDef*
%ADD18R,0.600000X0.500000*%
G04 #@! TD*
G04 #@! TA.AperFunction,SMDPad,CuDef*
%ADD19R,0.600000X0.400000*%
G04 #@! TD*
G04 #@! TA.AperFunction,SMDPad,CuDef*
%ADD20R,0.500000X0.600000*%
G04 #@! TD*
G04 #@! TA.AperFunction,SMDPad,CuDef*
%ADD21R,0.700000X0.600000*%
G04 #@! TD*
G04 #@! TA.AperFunction,ComponentPad*
%ADD22R,1.700000X1.700000*%
G04 #@! TD*
G04 #@! TA.AperFunction,ComponentPad*
%ADD23R,1.600000X1.600000*%
G04 #@! TD*
G04 #@! TA.AperFunction,ComponentPad*
%ADD24C,1.600000*%
G04 #@! TD*
G04 #@! TA.AperFunction,SMDPad,CuDef*
%ADD25RoundRect,0.150000X-0.587500X-0.150000X0.587500X-0.150000X0.587500X0.150000X-0.587500X0.150000X0*%
G04 #@! TD*
G04 #@! TA.AperFunction,SMDPad,CuDef*
%ADD26C,1.500000*%
G04 #@! TD*
G04 #@! TA.AperFunction,SMDPad,CuDef*
%ADD27R,1.060000X0.650000*%
G04 #@! TD*
G04 #@! TA.AperFunction,SMDPad,CuDef*
%ADD28R,0.760000X0.430000*%
G04 #@! TD*
G04 #@! TA.AperFunction,ComponentPad*
%ADD29R,3.500000X3.500000*%
G04 #@! TD*
G04 #@! TA.AperFunction,SMDPad,CuDef*
%ADD30RoundRect,0.100000X-0.100000X0.225000X-0.100000X-0.225000X0.100000X-0.225000X0.100000X0.225000X0*%
G04 #@! TD*
G04 #@! TA.AperFunction,SMDPad,CuDef*
%ADD31R,0.250000X0.700000*%
G04 #@! TD*
G04 #@! TA.AperFunction,SMDPad,CuDef*
%ADD32R,0.700000X0.250000*%
G04 #@! TD*
G04 #@! TA.AperFunction,SMDPad,CuDef*
%ADD33R,1.825000X1.325000*%
G04 #@! TD*
G04 #@! TA.AperFunction,SMDPad,CuDef*
%ADD34R,1.300000X1.100000*%
G04 #@! TD*
G04 #@! TA.AperFunction,SMDPad,CuDef*
%ADD35O,0.750000X0.300000*%
G04 #@! TD*
G04 #@! TA.AperFunction,SMDPad,CuDef*
%ADD36O,0.300000X0.750000*%
G04 #@! TD*
G04 #@! TA.AperFunction,SMDPad,CuDef*
%ADD37R,0.900000X0.900000*%
G04 #@! TD*
G04 #@! TA.AperFunction,SMDPad,CuDef*
%ADD38R,2.790000X1.903000*%
G04 #@! TD*
G04 #@! TA.AperFunction,SMDPad,CuDef*
%ADD39R,0.450000X1.450000*%
G04 #@! TD*
G04 #@! TA.AperFunction,SMDPad,CuDef*
%ADD40R,1.600000X1.000000*%
G04 #@! TD*
G04 #@! TA.AperFunction,SMDPad,CuDef*
%ADD41R,0.450000X0.700000*%
G04 #@! TD*
G04 #@! TA.AperFunction,ViaPad*
%ADD42C,0.450000*%
G04 #@! TD*
G04 #@! TA.AperFunction,Conductor*
%ADD43C,0.254000*%
G04 #@! TD*
G04 #@! TA.AperFunction,Conductor*
%ADD44C,0.088900*%
G04 #@! TD*
G04 #@! TA.AperFunction,Conductor*
%ADD45C,0.635000*%
G04 #@! TD*
G04 APERTURE END LIST*
D10*
D11*
X86109180Y-113611188D02*
X86109180Y-113039760D01*
X86109180Y-113325474D02*
X87109180Y-113325474D01*
X87109180Y-113325474D02*
X86966323Y-113230236D01*
X86966323Y-113230236D02*
X86871085Y-113134998D01*
X86871085Y-113134998D02*
X86823466Y-113039760D01*
D12*
X120639800Y-86585700D03*
X120639800Y-87235700D03*
X120639800Y-87885700D03*
X122539800Y-87885700D03*
X122539800Y-87235700D03*
X122539800Y-86585700D03*
D13*
X152308400Y-87880000D03*
D14*
X111976000Y-93722000D03*
X108976000Y-93722000D03*
D15*
X142941000Y-97772400D03*
X143891000Y-97772400D03*
X144841000Y-97772400D03*
X144841000Y-95572400D03*
X143891000Y-95572400D03*
X142941000Y-95572400D03*
D16*
X138516600Y-103413600D03*
X139166600Y-103413600D03*
X139816600Y-103413600D03*
X139816600Y-101513600D03*
X139166600Y-101513600D03*
X138516600Y-101513600D03*
D17*
X160824600Y-90267600D03*
X161724600Y-90267600D03*
D16*
X118717900Y-103362800D03*
X119367900Y-103362800D03*
X120017900Y-103362800D03*
X120017900Y-101462800D03*
X119367900Y-101462800D03*
X118717900Y-101462800D03*
D18*
X153112400Y-104851200D03*
X152012400Y-104851200D03*
D16*
X144192900Y-103413600D03*
X144842900Y-103413600D03*
X145492900Y-103413600D03*
X145492900Y-101513600D03*
X144842900Y-101513600D03*
X144192900Y-101513600D03*
D19*
X98612800Y-96857400D03*
X98612800Y-97757400D03*
D16*
X121549400Y-103362800D03*
X122199400Y-103362800D03*
X122849400Y-103362800D03*
X122849400Y-101462800D03*
X122199400Y-101462800D03*
X121549400Y-101462800D03*
D12*
X160340000Y-96136100D03*
X160340000Y-96786100D03*
X160340000Y-97436100D03*
X162240000Y-97436100D03*
X162240000Y-96786100D03*
X162240000Y-96136100D03*
D13*
X130032600Y-87905400D03*
D18*
X160724600Y-94915800D03*
X161824600Y-94915800D03*
D20*
X141630400Y-96122400D03*
X141630400Y-97222400D03*
D21*
X163525200Y-110575000D03*
X163525200Y-111675000D03*
D18*
X114816800Y-112877600D03*
X115916800Y-112877600D03*
D22*
X96269800Y-84705000D03*
D18*
X135619400Y-112877600D03*
X136719400Y-112877600D03*
D20*
X107885200Y-89877800D03*
X107885200Y-88777800D03*
D12*
X120650000Y-89491700D03*
X120650000Y-90141700D03*
X120650000Y-90791700D03*
X122550000Y-90791700D03*
X122550000Y-90141700D03*
X122550000Y-89491700D03*
D23*
X118681400Y-113192800D03*
D24*
X118681400Y-115732800D03*
X118681400Y-118272800D03*
X118681400Y-120812800D03*
X118681400Y-123352800D03*
X123761400Y-123352800D03*
X123761400Y-120812800D03*
X123761400Y-118272800D03*
X123761400Y-115732800D03*
X123761400Y-113192800D03*
D16*
X132839100Y-103413600D03*
X133489100Y-103413600D03*
X134139100Y-103413600D03*
X134139100Y-101513600D03*
X133489100Y-101513600D03*
X132839100Y-101513600D03*
D25*
X116574300Y-85482200D03*
X116574300Y-87382200D03*
X118449300Y-86432200D03*
D26*
X107934600Y-99487800D03*
D20*
X109002800Y-87439400D03*
X109002800Y-86339400D03*
D19*
X159131000Y-104691600D03*
X159131000Y-103791600D03*
D27*
X162374600Y-93605200D03*
X162374600Y-92655200D03*
X162374600Y-91705200D03*
X160174600Y-91705200D03*
X160174600Y-92655200D03*
X160174600Y-93605200D03*
D19*
X111060200Y-86439400D03*
X111060200Y-87339400D03*
D28*
X99620600Y-115463200D03*
X99620600Y-116263200D03*
X99620600Y-117063200D03*
X99620600Y-117863200D03*
X99620600Y-118663200D03*
X99620600Y-119463200D03*
X99620600Y-120263200D03*
X99620600Y-121063200D03*
X101140600Y-121063200D03*
X101140600Y-120263200D03*
X101140600Y-119463200D03*
X101140600Y-118663200D03*
X101140600Y-117863200D03*
X101140600Y-117063200D03*
X101140600Y-116263200D03*
X101140600Y-115463200D03*
D16*
X115885200Y-100137000D03*
X116535200Y-100137000D03*
X117185200Y-100137000D03*
X117185200Y-98237000D03*
X116535200Y-98237000D03*
X115885200Y-98237000D03*
X135683900Y-100187800D03*
X136333900Y-100187800D03*
X136983900Y-100187800D03*
X136983900Y-98287800D03*
X136333900Y-98287800D03*
X135683900Y-98287800D03*
D19*
X132318600Y-96218400D03*
X132318600Y-97118400D03*
D29*
X94498000Y-94306200D03*
X88498000Y-94306200D03*
X91498000Y-99006200D03*
D16*
X113040400Y-100137000D03*
X113690400Y-100137000D03*
X114340400Y-100137000D03*
X114340400Y-98237000D03*
X113690400Y-98237000D03*
X113040400Y-98237000D03*
D19*
X146278600Y-96222400D03*
X146278600Y-97122400D03*
D26*
X102422800Y-99487800D03*
D19*
X112127000Y-86439400D03*
X112127000Y-87339400D03*
D21*
X115366600Y-116273200D03*
X115366600Y-115173200D03*
X136194600Y-116273200D03*
X136194600Y-115173200D03*
X123835200Y-89566300D03*
X123835200Y-90666300D03*
D30*
X126456200Y-95722400D03*
X125806200Y-95722400D03*
X125156200Y-95722400D03*
X125156200Y-97622400D03*
X125806200Y-97622400D03*
X126456200Y-97622400D03*
D18*
X157014000Y-100368100D03*
X155914000Y-100368100D03*
D26*
X96885600Y-99487800D03*
D20*
X96189800Y-90821600D03*
X96189800Y-89721600D03*
D31*
X101382800Y-90653600D03*
X100882800Y-90653600D03*
X100382800Y-90653600D03*
X99882800Y-90653600D03*
X99382800Y-90653600D03*
X98882800Y-90653600D03*
X98382800Y-90653600D03*
D32*
X97482800Y-91553600D03*
X97482800Y-92053600D03*
X97482800Y-92553600D03*
X97482800Y-93053600D03*
X97482800Y-93553600D03*
D31*
X98382800Y-94453600D03*
X98882800Y-94453600D03*
X99382800Y-94453600D03*
X99882800Y-94453600D03*
X100382800Y-94453600D03*
X100882800Y-94453600D03*
X101382800Y-94453600D03*
D32*
X102282800Y-93553600D03*
X102282800Y-93053600D03*
X102282800Y-92553600D03*
X102282800Y-92053600D03*
X102282800Y-91553600D03*
D33*
X100795300Y-91891100D03*
X98970300Y-91891100D03*
X100795300Y-93216100D03*
X98970300Y-93216100D03*
D20*
X127670400Y-96118400D03*
X127670400Y-97218400D03*
D14*
X111976000Y-95906400D03*
X108976000Y-95906400D03*
D28*
X150420600Y-115463200D03*
X150420600Y-116263200D03*
X150420600Y-117063200D03*
X150420600Y-117863200D03*
X150420600Y-118663200D03*
X150420600Y-119463200D03*
X150420600Y-120263200D03*
X150420600Y-121063200D03*
X151940600Y-121063200D03*
X151940600Y-120263200D03*
X151940600Y-119463200D03*
X151940600Y-118663200D03*
X151940600Y-117863200D03*
X151940600Y-117063200D03*
X151940600Y-116263200D03*
X151940600Y-115463200D03*
D30*
X140426200Y-95722400D03*
X139776200Y-95722400D03*
X139126200Y-95722400D03*
X139126200Y-97622400D03*
X139776200Y-97622400D03*
X140426200Y-97622400D03*
D13*
X141132400Y-87880000D03*
D16*
X135683900Y-103413600D03*
X136333900Y-103413600D03*
X136983900Y-103413600D03*
X136983900Y-101513600D03*
X136333900Y-101513600D03*
X135683900Y-101513600D03*
D23*
X127825400Y-113192800D03*
D24*
X127825400Y-115732800D03*
X127825400Y-118272800D03*
X127825400Y-120812800D03*
X127825400Y-123352800D03*
X132905400Y-123352800D03*
X132905400Y-120812800D03*
X132905400Y-118272800D03*
X132905400Y-115732800D03*
X132905400Y-113192800D03*
D16*
X132839100Y-100187800D03*
X133489100Y-100187800D03*
X134139100Y-100187800D03*
X134139100Y-98287800D03*
X133489100Y-98287800D03*
X132839100Y-98287800D03*
X141348100Y-103413600D03*
X141998100Y-103413600D03*
X142648100Y-103413600D03*
X142648100Y-101513600D03*
X141998100Y-101513600D03*
X141348100Y-101513600D03*
X115885200Y-103362800D03*
X116535200Y-103362800D03*
X117185200Y-103362800D03*
X117185200Y-101462800D03*
X116535200Y-101462800D03*
X115885200Y-101462800D03*
D12*
X160340000Y-99031700D03*
X160340000Y-99681700D03*
X160340000Y-100331700D03*
X162240000Y-100331700D03*
X162240000Y-99031700D03*
D16*
X122286000Y-97622400D03*
X122936000Y-97622400D03*
X123586000Y-97622400D03*
X123586000Y-95722400D03*
X122286000Y-95722400D03*
D15*
X128981000Y-97768400D03*
X129931000Y-97768400D03*
X130881000Y-97768400D03*
X130881000Y-95568400D03*
X129931000Y-95568400D03*
X128981000Y-95568400D03*
D20*
X100517800Y-96757400D03*
X100517800Y-97857400D03*
D16*
X124394200Y-103362800D03*
X125044200Y-103362800D03*
X125694200Y-103362800D03*
X125694200Y-101462800D03*
X125044200Y-101462800D03*
X124394200Y-101462800D03*
D12*
X160289200Y-103591600D03*
X160289200Y-104241600D03*
X160289200Y-104891600D03*
X162189200Y-104891600D03*
X162189200Y-104241600D03*
X162189200Y-103591600D03*
D19*
X109993400Y-87339400D03*
X109993400Y-86439400D03*
D34*
X157518800Y-95529900D03*
X155418800Y-95529900D03*
X155418800Y-97179900D03*
X157518800Y-97179900D03*
D28*
X108764600Y-115463200D03*
X108764600Y-116263200D03*
X108764600Y-117063200D03*
X108764600Y-117863200D03*
X108764600Y-118663200D03*
X108764600Y-119463200D03*
X108764600Y-120263200D03*
X108764600Y-121063200D03*
X110284600Y-121063200D03*
X110284600Y-120263200D03*
X110284600Y-119463200D03*
X110284600Y-118663200D03*
X110284600Y-117863200D03*
X110284600Y-117063200D03*
X110284600Y-116263200D03*
X110284600Y-115463200D03*
D23*
X97853400Y-113192800D03*
D24*
X97853400Y-115732800D03*
X97853400Y-118272800D03*
X97853400Y-120812800D03*
X97853400Y-123352800D03*
X102933400Y-123352800D03*
X102933400Y-120812800D03*
X102933400Y-118272800D03*
X102933400Y-115732800D03*
X102933400Y-113192800D03*
D19*
X97647600Y-97757400D03*
X97647600Y-96857400D03*
D28*
X129592600Y-115463200D03*
X129592600Y-116263200D03*
X129592600Y-117063200D03*
X129592600Y-117863200D03*
X129592600Y-118663200D03*
X129592600Y-119463200D03*
X129592600Y-120263200D03*
X129592600Y-121063200D03*
X131112600Y-121063200D03*
X131112600Y-120263200D03*
X131112600Y-119463200D03*
X131112600Y-118663200D03*
X131112600Y-117863200D03*
X131112600Y-117063200D03*
X131112600Y-116263200D03*
X131112600Y-115463200D03*
D19*
X102422800Y-97757400D03*
X102422800Y-96857400D03*
D21*
X123825000Y-86660300D03*
X123825000Y-87760300D03*
D17*
X160824600Y-89302400D03*
X161724600Y-89302400D03*
D19*
X99578000Y-96857400D03*
X99578000Y-97757400D03*
D23*
X148653400Y-113192800D03*
D24*
X148653400Y-115732800D03*
X148653400Y-118272800D03*
X148653400Y-120812800D03*
X148653400Y-123352800D03*
X153733400Y-123352800D03*
X153733400Y-120812800D03*
X153733400Y-118272800D03*
X153733400Y-115732800D03*
X153733400Y-113192800D03*
D19*
X133283800Y-96218400D03*
X133283800Y-97118400D03*
D12*
X160340000Y-110500400D03*
X160340000Y-111150400D03*
X160340000Y-111800400D03*
X162240000Y-111800400D03*
X162240000Y-111150400D03*
X162240000Y-110500400D03*
D21*
X115366600Y-120253200D03*
X115366600Y-121353200D03*
D35*
X111976400Y-91170000D03*
X111976400Y-90670000D03*
X111976400Y-90170000D03*
X111976400Y-89670000D03*
D36*
X111251400Y-88945000D03*
X110751400Y-88945000D03*
X110251400Y-88945000D03*
X109751400Y-88945000D03*
D35*
X109026400Y-89670000D03*
X109026400Y-90170000D03*
X109026400Y-90670000D03*
X109026400Y-91170000D03*
D36*
X109751400Y-91895000D03*
X110251400Y-91895000D03*
X110751400Y-91895000D03*
X111251400Y-91895000D03*
D37*
X110951400Y-90870000D03*
X110951400Y-89970000D03*
X110051400Y-90870000D03*
X110051400Y-89970000D03*
D18*
X157014000Y-99479100D03*
X155914000Y-99479100D03*
D21*
X136194600Y-120253200D03*
X136194600Y-121353200D03*
D28*
X141276600Y-115463200D03*
X141276600Y-116263200D03*
X141276600Y-117063200D03*
X141276600Y-117863200D03*
X141276600Y-118663200D03*
X141276600Y-119463200D03*
X141276600Y-120263200D03*
X141276600Y-121063200D03*
X142796600Y-121063200D03*
X142796600Y-120263200D03*
X142796600Y-119463200D03*
X142796600Y-118663200D03*
X142796600Y-117863200D03*
X142796600Y-117063200D03*
X142796600Y-116263200D03*
X142796600Y-115463200D03*
D38*
X115620800Y-90258100D03*
X115620800Y-95111100D03*
D39*
X153115400Y-97426800D03*
X152465400Y-97426800D03*
X151815400Y-97426800D03*
X151165400Y-97426800D03*
X150515400Y-97426800D03*
X149865400Y-97426800D03*
X149215400Y-97426800D03*
X149215400Y-103326800D03*
X149865400Y-103326800D03*
X150515400Y-103326800D03*
X151165400Y-103326800D03*
X151815400Y-103326800D03*
X152465400Y-103326800D03*
X153115400Y-103326800D03*
D40*
X106996200Y-91485400D03*
X106996200Y-94485400D03*
D23*
X139509400Y-113192800D03*
D24*
X139509400Y-115732800D03*
X139509400Y-118272800D03*
X139509400Y-120812800D03*
X139509400Y-123352800D03*
X144589400Y-123352800D03*
X144589400Y-120812800D03*
X144589400Y-118272800D03*
X144589400Y-115732800D03*
X144589400Y-113192800D03*
D23*
X106997400Y-113192800D03*
D24*
X106997400Y-115732800D03*
X106997400Y-118272800D03*
X106997400Y-120812800D03*
X106997400Y-123352800D03*
X112077400Y-123352800D03*
X112077400Y-120812800D03*
X112077400Y-118272800D03*
X112077400Y-115732800D03*
X112077400Y-113192800D03*
D19*
X147243800Y-96222400D03*
X147243800Y-97122400D03*
D28*
X120448600Y-115463200D03*
X120448600Y-116263200D03*
X120448600Y-117063200D03*
X120448600Y-117863200D03*
X120448600Y-118663200D03*
X120448600Y-119463200D03*
X120448600Y-120263200D03*
X120448600Y-121063200D03*
X121968600Y-121063200D03*
X121968600Y-120263200D03*
X121968600Y-119463200D03*
X121968600Y-118663200D03*
X121968600Y-117863200D03*
X121968600Y-117063200D03*
X121968600Y-116263200D03*
X121968600Y-115463200D03*
D18*
X157014000Y-98590100D03*
X155914000Y-98590100D03*
D19*
X101457600Y-96857400D03*
X101457600Y-97757400D03*
D16*
X113040400Y-103362800D03*
X113690400Y-103362800D03*
X114340400Y-103362800D03*
X114340400Y-101462800D03*
X113690400Y-101462800D03*
X113040400Y-101462800D03*
D41*
X113330828Y-87432200D03*
X114630828Y-87432200D03*
X113980828Y-85432200D03*
D42*
X108940600Y-93726000D03*
X108940600Y-95910400D03*
X111785400Y-93726000D03*
X96850200Y-90855800D03*
X104876600Y-97510600D03*
X136321800Y-99432200D03*
X111074200Y-92633800D03*
X161112200Y-96774000D03*
X146608800Y-108737400D03*
X109993400Y-90982800D03*
X98039610Y-104513000D03*
X119380000Y-102607200D03*
X139192000Y-102632600D03*
X153136600Y-111368000D03*
X148539200Y-97409000D03*
X155930600Y-100926900D03*
X102285800Y-111334600D03*
X121412000Y-87223600D03*
X161112200Y-99720400D03*
X111506000Y-111360000D03*
X114096800Y-108712000D03*
X141630400Y-97790000D03*
X153898600Y-97891600D03*
X115544600Y-112877600D03*
X104114600Y-98323400D03*
X114985800Y-84861400D03*
X118867610Y-104513000D03*
X136347200Y-112877600D03*
X125044200Y-102607200D03*
X161493200Y-92659200D03*
X96189800Y-89154000D03*
X139695610Y-104538400D03*
X107238800Y-88773000D03*
X162610800Y-94894400D03*
X108940600Y-94244000D03*
X117652800Y-87376000D03*
X108940600Y-93228000D03*
X108940600Y-96428400D03*
X141986000Y-102632600D03*
X110261400Y-88036400D03*
X121412000Y-90144600D03*
X148666200Y-100634800D03*
X151282400Y-104851200D03*
X125776410Y-108686600D03*
X105638600Y-96799400D03*
X122936000Y-96875600D03*
X144018000Y-111556800D03*
X123063000Y-111506000D03*
X105638600Y-98323400D03*
X104948410Y-108712000D03*
X144830800Y-102632600D03*
X161036000Y-104241600D03*
X125806200Y-96494600D03*
X161086800Y-111150400D03*
X99949000Y-95275400D03*
X129921000Y-96824800D03*
X122199400Y-102607200D03*
X154660600Y-100914200D03*
X106984800Y-94564200D03*
X128143000Y-97815400D03*
X133477000Y-102632600D03*
X128011610Y-104538400D03*
X133477000Y-99432200D03*
X113690400Y-99364800D03*
X107183610Y-104538400D03*
X101447600Y-98298000D03*
X104114600Y-96799400D03*
X106486800Y-94564200D03*
X148844000Y-104546400D03*
X139776200Y-96494600D03*
X107502800Y-94564200D03*
X109993400Y-89966800D03*
X155748410Y-108581300D03*
X111009400Y-90982800D03*
X116535200Y-102607200D03*
X136321800Y-102632600D03*
X108940600Y-95412400D03*
X143887000Y-96901000D03*
X116535200Y-99356000D03*
X113690400Y-102607200D03*
X111009400Y-89966800D03*
X134924800Y-108737400D03*
X132257800Y-111360000D03*
X104368600Y-90834400D03*
X104876600Y-91287600D03*
X104368600Y-91850400D03*
X105384600Y-91850400D03*
X105384600Y-90834400D03*
X99085400Y-95554800D03*
X98612800Y-97757400D03*
X98831400Y-91973400D03*
X100863400Y-92989400D03*
X100355400Y-92481400D03*
X99847400Y-91973400D03*
X99847400Y-92989400D03*
X100517800Y-97857400D03*
X100863400Y-91973400D03*
X99578000Y-97757400D03*
X99339400Y-92481400D03*
X98831400Y-92989400D03*
X130845400Y-96118400D03*
X130845400Y-97218400D03*
X144805400Y-96122400D03*
X144805400Y-97222400D03*
X160724600Y-91740800D03*
X161824600Y-91740800D03*
X127076200Y-96113600D03*
X141630400Y-95402400D03*
X160121600Y-94894400D03*
X113792000Y-112877600D03*
X112293400Y-93726000D03*
X162839400Y-96799400D03*
X141986000Y-100905400D03*
X116535200Y-101462800D03*
X112293400Y-95910400D03*
X116281200Y-115163600D03*
X136333900Y-101513600D03*
X136931400Y-121360400D03*
X123037600Y-87249000D03*
X125806200Y-98272600D03*
X119380000Y-100880000D03*
X148844000Y-105638600D03*
X122936000Y-95580200D03*
X156997400Y-100926900D03*
X143891000Y-94742000D03*
X111074200Y-85902800D03*
X112293400Y-96428400D03*
X144830800Y-100905400D03*
X123037600Y-90119200D03*
X154660600Y-99822000D03*
X139695610Y-105630600D03*
X98039610Y-105605200D03*
X113690400Y-100880000D03*
X118867610Y-105605200D03*
X113690400Y-98237000D03*
X125044200Y-100880000D03*
X162687000Y-104241600D03*
X119532400Y-86436200D03*
X112115600Y-85902800D03*
X162356800Y-99695000D03*
X153619200Y-104851200D03*
X112293400Y-94244000D03*
X112293400Y-93228000D03*
X116535200Y-97628800D03*
X111785400Y-94244000D03*
X107183610Y-105630600D03*
X110236000Y-92659200D03*
X111785400Y-95412400D03*
X139192000Y-100905400D03*
X111785400Y-95910400D03*
X159334200Y-92659200D03*
X112293400Y-95412400D03*
X111785400Y-96428400D03*
X122199400Y-100880000D03*
X139776200Y-98145600D03*
X133477000Y-101066600D03*
X133477000Y-97840800D03*
X128011610Y-105630600D03*
X162763200Y-111175800D03*
X137083800Y-115162800D03*
X116230400Y-121361200D03*
X129921000Y-94792800D03*
X134696200Y-112877600D03*
X136321800Y-97705000D03*
X111785400Y-93228000D03*
X136199100Y-116172400D03*
X136199100Y-120352400D03*
X115366600Y-116173200D03*
X115366600Y-120353200D03*
X101803200Y-96266000D03*
X122529600Y-86004400D03*
X157556200Y-94386400D03*
X122885200Y-88925400D03*
X153390600Y-96266000D03*
X108127800Y-107467400D03*
X138607800Y-97637600D03*
X135407400Y-99466400D03*
X115697000Y-98983800D03*
X112191800Y-100685600D03*
X98983800Y-107467400D03*
X152476200Y-96266000D03*
X149225000Y-98755200D03*
X113334800Y-88011000D03*
X109296200Y-92481400D03*
X113969800Y-84861400D03*
X162179000Y-105816400D03*
X96723200Y-92557600D03*
X96723200Y-93573600D03*
X158165800Y-104698800D03*
X128991200Y-96901000D03*
X142947200Y-96875600D03*
X161467800Y-93599000D03*
X162179000Y-100787200D03*
X149783800Y-107467400D03*
X140639800Y-107467400D03*
X137490200Y-98272600D03*
X119532400Y-98780600D03*
X119811800Y-107442000D03*
X128955800Y-107467400D03*
X117627400Y-98247200D03*
X132130800Y-108127800D03*
X123012200Y-108127800D03*
X111328200Y-108127800D03*
X152958800Y-108127800D03*
X124155200Y-95605600D03*
X115062000Y-108559600D03*
X135864600Y-108483400D03*
X102082600Y-108127800D03*
X143814800Y-108127800D03*
X150420600Y-115463200D03*
X149987000Y-109423200D03*
X149479000Y-108788200D03*
X150420600Y-117863200D03*
X150420600Y-118663200D03*
X150420600Y-119463200D03*
X150418800Y-120269000D03*
X141272210Y-115455200D03*
X142062200Y-106019600D03*
X141596855Y-109948455D03*
X141256610Y-111220400D03*
X140919200Y-109415200D03*
X135712200Y-107264200D03*
X141376400Y-106908600D03*
X140385800Y-108780200D03*
X136779000Y-107543600D03*
X141272210Y-117855200D03*
X143164200Y-105791000D03*
X141272210Y-118655200D03*
X141272210Y-119455200D03*
X143510000Y-106832400D03*
X145196200Y-106070400D03*
X141270410Y-120261000D03*
X142732400Y-109728000D03*
X143668410Y-110684600D03*
X129588210Y-115455200D03*
X128951410Y-109415200D03*
X129590800Y-108780200D03*
X129588210Y-117855200D03*
X129588210Y-118655200D03*
X129588210Y-119455200D03*
X129586410Y-120261000D03*
X120444210Y-111220400D03*
X120444210Y-115429800D03*
X121208800Y-106629200D03*
X120624600Y-109702600D03*
X115036600Y-107264200D03*
X119810210Y-109601000D03*
X120421400Y-106883200D03*
X119807410Y-108754800D03*
X115900200Y-107594400D03*
X120444210Y-117829800D03*
X121361200Y-105765600D03*
X120444210Y-118629800D03*
X120444210Y-119429800D03*
X122809000Y-106832400D03*
X122856010Y-110684600D03*
X121920000Y-109728000D03*
X124383800Y-106070400D03*
X120442410Y-120235600D03*
X108760210Y-115455200D03*
X108381800Y-109415200D03*
X107772200Y-108780200D03*
X108760210Y-117855200D03*
X108760210Y-118655200D03*
X108760210Y-119455200D03*
X108758410Y-120261000D03*
X99616210Y-115429800D03*
X98979410Y-109389800D03*
X99466400Y-108754800D03*
X99616210Y-117829800D03*
X99616210Y-118629800D03*
X99616210Y-119429800D03*
X99614410Y-120235600D03*
X123825000Y-89077800D03*
X123825000Y-86055200D03*
X163525200Y-109956600D03*
X123037600Y-90932000D03*
X123037600Y-88112600D03*
X162737800Y-111988600D03*
X124383800Y-97942400D03*
X162407600Y-98018600D03*
X134594600Y-101498400D03*
X140741400Y-100456950D03*
X137464800Y-101498400D03*
X138176000Y-102336600D03*
X140233400Y-101523800D03*
X143078200Y-101549200D03*
X143027400Y-99415600D03*
X145948400Y-101523800D03*
X134620000Y-100634800D03*
X137922000Y-100457000D03*
X134975600Y-98780600D03*
X120599200Y-100660200D03*
X114782600Y-101473000D03*
X118287800Y-102565200D03*
X117652800Y-101447600D03*
X120472200Y-101473000D03*
X123291600Y-101473000D03*
X123291600Y-99161600D03*
X126136400Y-101473000D03*
X114731800Y-100584000D03*
X118465600Y-100380800D03*
X114782600Y-98221800D03*
D43*
X99919210Y-117029800D02*
X99616210Y-117029800D01*
X100376410Y-109313600D02*
X100376410Y-116572600D01*
X100376410Y-116572600D02*
X99919210Y-117029800D01*
X99817610Y-108754800D02*
X100376410Y-109313600D01*
X99466400Y-108754800D02*
X99817610Y-108754800D01*
X108457210Y-116255200D02*
X108760210Y-116255200D01*
X108126210Y-115924200D02*
X108457210Y-116255200D01*
X108126210Y-109670790D02*
X108126210Y-115924200D01*
X108381800Y-109415200D02*
X108126210Y-109670790D01*
X109520410Y-116598000D02*
X109063210Y-117055200D01*
X109520410Y-109339000D02*
X109520410Y-116598000D01*
X108961610Y-108780200D02*
X109520410Y-109339000D01*
X107772200Y-108780200D02*
X108961610Y-108780200D01*
X109063210Y-117055200D02*
X108760210Y-117055200D01*
X129891210Y-117055200D02*
X129588210Y-117055200D01*
X130348410Y-109339000D02*
X130348410Y-116598000D01*
X130348410Y-116598000D02*
X129891210Y-117055200D01*
X129789610Y-108780200D02*
X130348410Y-109339000D01*
X129590800Y-108780200D02*
X129789610Y-108780200D01*
X141575210Y-117055200D02*
X141272210Y-117055200D01*
X142163800Y-116466610D02*
X141575210Y-117055200D01*
X141473610Y-108780200D02*
X142163800Y-109470390D01*
X142163800Y-109470390D02*
X142163800Y-116466610D01*
X140385800Y-108780200D02*
X141473610Y-108780200D01*
X140638210Y-115924200D02*
X140969210Y-116255200D01*
X140638210Y-109696190D02*
X140638210Y-115924200D01*
X140969210Y-116255200D02*
X141272210Y-116255200D01*
X140919200Y-109415200D02*
X140638210Y-109696190D01*
X149786600Y-115932200D02*
X150117600Y-116263200D01*
X149786600Y-109623600D02*
X149786600Y-115932200D01*
X150117600Y-116263200D02*
X150420600Y-116263200D01*
X149987000Y-109423200D02*
X149786600Y-109623600D01*
X151180800Y-109347000D02*
X151180800Y-116606000D01*
X150723600Y-117063200D02*
X150420600Y-117063200D01*
X151180800Y-116606000D02*
X150723600Y-117063200D01*
X150622000Y-108788200D02*
X151180800Y-109347000D01*
X149479000Y-108788200D02*
X150622000Y-108788200D01*
X154101800Y-96951800D02*
X154329900Y-97179900D01*
X153390600Y-96266000D02*
X153924000Y-96266000D01*
X154101800Y-96443800D02*
X154101800Y-96951800D01*
X153115400Y-96541200D02*
X153115400Y-97426800D01*
X153390600Y-96266000D02*
X153115400Y-96541200D01*
X153924000Y-96266000D02*
X154101800Y-96443800D01*
X154329900Y-97179900D02*
X155418800Y-97179900D01*
X96885600Y-97767400D02*
X96875600Y-97757400D01*
X96875600Y-97757400D02*
X95496800Y-97757400D01*
X96885600Y-99487800D02*
X96885600Y-97767400D01*
X95496800Y-97757400D02*
X94498000Y-96758600D01*
X94498000Y-96758600D02*
X94498000Y-94306200D01*
X97647600Y-97757400D02*
X96875600Y-97757400D01*
X136347200Y-112877600D02*
X136719400Y-112877600D01*
X114340400Y-103362800D02*
X114340400Y-102808800D01*
X124722800Y-102607200D02*
X125044200Y-102607200D01*
X161036000Y-103860600D02*
X161036000Y-104241600D01*
X128143000Y-97815400D02*
X128143000Y-97256600D01*
X156464000Y-95796100D02*
X156197800Y-95529900D01*
X121412000Y-90474800D02*
X121412000Y-90144600D01*
D44*
X129931000Y-96834800D02*
X129921000Y-96824800D01*
D43*
X101457600Y-97757400D02*
X101457600Y-98288000D01*
X156197800Y-95529900D02*
X155418800Y-95529900D01*
X149215400Y-97426800D02*
X148557000Y-97426800D01*
X155914000Y-100910300D02*
X155930600Y-100926900D01*
X110751400Y-88170800D02*
X110617000Y-88036400D01*
X116535200Y-103379400D02*
X116535200Y-102607200D01*
X109905800Y-88036400D02*
X110261400Y-88036400D01*
X115885200Y-102885000D02*
X116163000Y-102607200D01*
X141563000Y-102632600D02*
X141986000Y-102632600D01*
X114138800Y-102607200D02*
X113690400Y-102607200D01*
X124394200Y-102935800D02*
X124722800Y-102607200D01*
X121852600Y-102607200D02*
X122199400Y-102607200D01*
X135949600Y-102632600D02*
X136321800Y-102632600D01*
X161750100Y-96136100D02*
X161112200Y-96774000D01*
X109502600Y-86439400D02*
X109402600Y-86339400D01*
X126212600Y-96494600D02*
X125806200Y-96494600D01*
X141348100Y-102847500D02*
X141563000Y-102632600D01*
X113040400Y-100137000D02*
X113040400Y-99557600D01*
X118717900Y-103362800D02*
X118717900Y-102897100D01*
X125156200Y-96200200D02*
X125450600Y-96494600D01*
X121549400Y-103362800D02*
X121549400Y-102910400D01*
X114630828Y-87432200D02*
X115386800Y-87432200D01*
X114340400Y-102808800D02*
X114138800Y-102607200D01*
X109993400Y-86439400D02*
X109502600Y-86439400D01*
X139126200Y-95722400D02*
X139126200Y-96200200D01*
X107885200Y-88777800D02*
X107243600Y-88777800D01*
X111251400Y-92456600D02*
X111251400Y-91895000D01*
X160289200Y-103591600D02*
X159831800Y-103591600D01*
X160894000Y-111800400D02*
X161086800Y-111607600D01*
X124394200Y-103362800D02*
X124394200Y-102935800D01*
X126456200Y-96738200D02*
X126212600Y-96494600D01*
X160340000Y-111150400D02*
X161086800Y-111150400D01*
X162240000Y-96136100D02*
X161750100Y-96136100D01*
X160767000Y-103591600D02*
X161036000Y-103860600D01*
X107885200Y-88777800D02*
X107885200Y-86628000D01*
X119380000Y-103379400D02*
X119380000Y-102607200D01*
X121412000Y-87604600D02*
X121412000Y-87223600D01*
X136321800Y-100204400D02*
X136321800Y-99432200D01*
X121399900Y-87235700D02*
X121412000Y-87223600D01*
X110751400Y-92311000D02*
X110751400Y-91895000D01*
X108173800Y-86339400D02*
X109002800Y-86339400D01*
X121130900Y-87885700D02*
X121412000Y-87604600D01*
X120639800Y-87235700D02*
X121399900Y-87235700D01*
D44*
X143891000Y-96905000D02*
X143891000Y-97772400D01*
D43*
X116568100Y-87376000D02*
X116574300Y-87382200D01*
X120650000Y-90141700D02*
X121409100Y-90141700D01*
X161086800Y-111607600D02*
X161086800Y-111150400D01*
X136321800Y-103404800D02*
X136321800Y-102632600D01*
X101457600Y-98288000D02*
X101447600Y-98298000D01*
X96189800Y-89721600D02*
X96189800Y-89154000D01*
X139192000Y-103404800D02*
X139192000Y-102632600D01*
X160340000Y-111800400D02*
X160894000Y-111800400D01*
X125450600Y-96494600D02*
X125806200Y-96494600D01*
X160780300Y-97436100D02*
X161112200Y-97104200D01*
X113690400Y-103379400D02*
X113690400Y-102607200D01*
X111074200Y-92633800D02*
X111251400Y-92456600D01*
X121549400Y-102910400D02*
X121852600Y-102607200D01*
X125806200Y-95722400D02*
X125806200Y-96494600D01*
X110251400Y-88046400D02*
X110261400Y-88036400D01*
X140426200Y-97144600D02*
X139776200Y-96494600D01*
X115443000Y-87376000D02*
X116568100Y-87376000D01*
X133477000Y-100204400D02*
X133477000Y-99432200D01*
X109751400Y-88945000D02*
X109751400Y-88190800D01*
X134139100Y-102973300D02*
X133798400Y-102632600D01*
X133477000Y-103404800D02*
X133477000Y-102632600D01*
X125156200Y-95722400D02*
X125156200Y-96200200D01*
X126456200Y-97622400D02*
X126456200Y-96738200D01*
X139126200Y-96200200D02*
X139420600Y-96494600D01*
X121095100Y-90791700D02*
X121412000Y-90474800D01*
X138718200Y-102632600D02*
X139192000Y-102632600D01*
X116535200Y-100128200D02*
X116535200Y-99356000D01*
X161112200Y-97104200D02*
X161112200Y-96774000D01*
X155914000Y-100368100D02*
X155914000Y-100910300D01*
X134139100Y-103413600D02*
X134139100Y-102973300D01*
X116163000Y-102607200D02*
X116535200Y-102607200D01*
X160340000Y-96786100D02*
X161100100Y-96786100D01*
X132839100Y-99774100D02*
X133181000Y-99432200D01*
X123586000Y-97297401D02*
X123164199Y-96875600D01*
X119007800Y-102607200D02*
X119380000Y-102607200D01*
X138516600Y-102834200D02*
X138718200Y-102632600D01*
X107243600Y-88777800D02*
X107238800Y-88773000D01*
X161112200Y-99884499D02*
X161112200Y-99720400D01*
X160340000Y-97436100D02*
X160780300Y-97436100D01*
X115916800Y-112877600D02*
X115544600Y-112877600D01*
X135683900Y-102898300D02*
X135949600Y-102632600D01*
X144192900Y-103413600D02*
X144192900Y-103025300D01*
X144585600Y-102632600D02*
X144830800Y-102632600D01*
X138516600Y-103413600D02*
X138516600Y-102834200D01*
X116574300Y-87382200D02*
X117646600Y-87382200D01*
D44*
X129931000Y-97768400D02*
X129931000Y-96834800D01*
D43*
X159831800Y-103591600D02*
X159631800Y-103791600D01*
X161100100Y-96786100D02*
X161112200Y-96774000D01*
D44*
X127670400Y-97218400D02*
X127825400Y-97218400D01*
D43*
X118717900Y-102897100D02*
X119007800Y-102607200D01*
X117646600Y-87382200D02*
X117652800Y-87376000D01*
X123586000Y-97622400D02*
X123586000Y-97297401D01*
X110751400Y-88945000D02*
X110751400Y-88170800D01*
X140426200Y-97622400D02*
X140426200Y-97144600D01*
X109402600Y-86339400D02*
X109002800Y-86339400D01*
D44*
X162589400Y-94915800D02*
X161824600Y-94915800D01*
D43*
X160664999Y-100331700D02*
X161112200Y-99884499D01*
D44*
X161493200Y-92659200D02*
X161497200Y-92655200D01*
D43*
X111074200Y-92633800D02*
X110751400Y-92311000D01*
X155914000Y-100368100D02*
X155914000Y-98590100D01*
X139776200Y-96494600D02*
X139776200Y-95722400D01*
X141986000Y-103404800D02*
X141986000Y-102632600D01*
X141630400Y-97222400D02*
X141630400Y-97790000D01*
X160289200Y-104241600D02*
X161036000Y-104241600D01*
X120639800Y-87885700D02*
X121130900Y-87885700D01*
D44*
X143887000Y-96901000D02*
X143891000Y-96905000D01*
D43*
X133798400Y-102632600D02*
X133477000Y-102632600D01*
X160289200Y-103591600D02*
X160767000Y-103591600D01*
X156464000Y-97751900D02*
X156464000Y-95796100D01*
X100382800Y-95057600D02*
X100382800Y-94453600D01*
X100165000Y-95275400D02*
X100382800Y-95057600D01*
X122199400Y-103379400D02*
X122199400Y-102607200D01*
X155914000Y-98301900D02*
X156464000Y-97751900D01*
X113233200Y-99364800D02*
X113690400Y-99364800D01*
X115885200Y-103362800D02*
X115885200Y-102885000D01*
X160340000Y-100331700D02*
X160664999Y-100331700D01*
X107885200Y-86628000D02*
X108173800Y-86339400D01*
X128104800Y-97218400D02*
X127825400Y-97218400D01*
X113040400Y-99557600D02*
X113233200Y-99364800D01*
X99949000Y-95275400D02*
X100165000Y-95275400D01*
X155914000Y-98590100D02*
X155914000Y-98301900D01*
X152012400Y-104851200D02*
X151282400Y-104851200D01*
X144830800Y-103404800D02*
X144830800Y-102632600D01*
X135683900Y-103413600D02*
X135683900Y-102898300D01*
D44*
X162610800Y-94894400D02*
X162589400Y-94915800D01*
D43*
X110617000Y-88036400D02*
X110261400Y-88036400D01*
X159631800Y-103791600D02*
X159131000Y-103791600D01*
X128143000Y-97256600D02*
X128104800Y-97218400D01*
X148557000Y-97426800D02*
X148539200Y-97409000D01*
X120650000Y-90791700D02*
X121095100Y-90791700D01*
X110251400Y-88945000D02*
X110251400Y-88046400D01*
X121409100Y-90141700D02*
X121412000Y-90144600D01*
X125044200Y-103379400D02*
X125044200Y-102607200D01*
D44*
X161497200Y-92655200D02*
X162374600Y-92655200D01*
D43*
X141348100Y-103413600D02*
X141348100Y-102847500D01*
X123164199Y-96875600D02*
X122936000Y-96875600D01*
X144192900Y-103025300D02*
X144585600Y-102632600D01*
X132839100Y-100187800D02*
X132839100Y-99774100D01*
X109751400Y-88190800D02*
X109905800Y-88036400D01*
X139420600Y-96494600D02*
X139776200Y-96494600D01*
X115386800Y-87432200D02*
X115443000Y-87376000D01*
X113690400Y-100137000D02*
X113690400Y-99364800D01*
X133181000Y-99432200D02*
X133477000Y-99432200D01*
X100517800Y-96757400D02*
X100517800Y-96622432D01*
X102282800Y-94857432D02*
X102282800Y-93553600D01*
X100517800Y-96622432D02*
X102282800Y-94857432D01*
X108318200Y-89877800D02*
X107885200Y-89877800D01*
X103004200Y-97757400D02*
X103251000Y-97510600D01*
X102422800Y-97757400D02*
X102422800Y-99487800D01*
X109026400Y-90170000D02*
X108610400Y-90170000D01*
X108610400Y-90170000D02*
X108318200Y-89877800D01*
X102422800Y-97757400D02*
X103004200Y-97757400D01*
X107885200Y-89877800D02*
X107302400Y-89877800D01*
X106996200Y-90184000D02*
X106996200Y-91485400D01*
X103251000Y-97510600D02*
X103251000Y-95935800D01*
X107302400Y-89877800D02*
X106996200Y-90184000D01*
X103581200Y-95605600D02*
X103581200Y-91871800D01*
X103251000Y-95935800D02*
X103581200Y-95605600D01*
X103581200Y-91871800D02*
X103263000Y-91553600D01*
X103263000Y-91553600D02*
X102282800Y-91553600D01*
X99382800Y-95257400D02*
X99382800Y-94453600D01*
X99085400Y-95554800D02*
X99382800Y-95257400D01*
X109026400Y-89670000D02*
X109026400Y-87463000D01*
X109026400Y-87463000D02*
X109002800Y-87439400D01*
D44*
X130881000Y-96082800D02*
X130881000Y-95568400D01*
X130845400Y-96118400D02*
X130881000Y-96082800D01*
D43*
X130881000Y-97768400D02*
X131238000Y-97768400D01*
X132318600Y-97118400D02*
X133283800Y-97118400D01*
X131238000Y-97768400D02*
X131888000Y-97118400D01*
D44*
X130881000Y-97768400D02*
X130881000Y-97254000D01*
D43*
X131888000Y-97118400D02*
X132318600Y-97118400D01*
D44*
X130881000Y-97254000D02*
X130845400Y-97218400D01*
D43*
X144841000Y-96086800D02*
X144805400Y-96122400D01*
X144841000Y-95572400D02*
X144841000Y-96086800D01*
X146278600Y-97122400D02*
X147243800Y-97122400D01*
X146278600Y-97547400D02*
X146278600Y-97122400D01*
X146053600Y-97772400D02*
X146278600Y-97547400D01*
X144841000Y-97772400D02*
X146053600Y-97772400D01*
X144841000Y-97258000D02*
X144805400Y-97222400D01*
X144841000Y-97772400D02*
X144841000Y-97258000D01*
X160174600Y-91705200D02*
X160689000Y-91705200D01*
X160689000Y-91705200D02*
X160724600Y-91740800D01*
X162200400Y-90267600D02*
X161724600Y-90267600D01*
X161724600Y-90267600D02*
X161724600Y-89302400D01*
X162374600Y-91705200D02*
X161860200Y-91705200D01*
X162374600Y-90441800D02*
X162200400Y-90267600D01*
X162374600Y-91705200D02*
X162374600Y-90441800D01*
X161860200Y-91705200D02*
X161824600Y-91740800D01*
X126456200Y-95722400D02*
X126685000Y-95722400D01*
X126685000Y-95722400D02*
X127076200Y-96113600D01*
X127670400Y-96118400D02*
X127081000Y-96118400D01*
X127081000Y-96118400D02*
X127076200Y-96113600D01*
X141630400Y-96122400D02*
X141630400Y-95402400D01*
X140426200Y-95722400D02*
X140827800Y-95722400D01*
X141147800Y-95402400D02*
X141630400Y-95402400D01*
X140827800Y-95722400D02*
X141147800Y-95402400D01*
X160340000Y-96136100D02*
X160340000Y-95692000D01*
X160340000Y-95692000D02*
X160724600Y-95307400D01*
X160724600Y-94915800D02*
X160143000Y-94915800D01*
X160724600Y-95307400D02*
X160724600Y-94915800D01*
X160143000Y-94915800D02*
X160121600Y-94894400D01*
X143891000Y-95572400D02*
X143891000Y-94742000D01*
X121521100Y-89491700D02*
X122171100Y-90141700D01*
X157014000Y-98590100D02*
X157014000Y-100368100D01*
X116230400Y-121361200D02*
X116222400Y-121353200D01*
X123835200Y-90666300D02*
X123288100Y-90119200D01*
X142941000Y-95572400D02*
X142941000Y-94853800D01*
X123037600Y-87249000D02*
X123313700Y-87249000D01*
X162356800Y-99695000D02*
X162356800Y-99148500D01*
X111154400Y-99487800D02*
X111976000Y-98666200D01*
X133477000Y-101504800D02*
X133477000Y-101066600D01*
X136983900Y-99341100D02*
X136333900Y-98691100D01*
X117185200Y-100137000D02*
X117185200Y-99255052D01*
X157014000Y-100368100D02*
X157014000Y-100910300D01*
X160340000Y-110500400D02*
X161224200Y-110500400D01*
X113792000Y-112877600D02*
X114816800Y-112877600D01*
X120650000Y-89491700D02*
X121521100Y-89491700D01*
X157014000Y-98590100D02*
X157014000Y-98268700D01*
X125044200Y-101479400D02*
X125044200Y-100880000D01*
X157014000Y-98268700D02*
X157518800Y-97763900D01*
X143052800Y-94742000D02*
X143891000Y-94742000D01*
X161874200Y-111150400D02*
X162240000Y-111150400D01*
X161224200Y-110500400D02*
X161874200Y-111150400D01*
D44*
X159492800Y-93605200D02*
X159334200Y-93446600D01*
D43*
X122428200Y-95580200D02*
X122286000Y-95722400D01*
X153115400Y-103326800D02*
X153115400Y-104848200D01*
D44*
X128981000Y-94894800D02*
X129083000Y-94792800D01*
D43*
X123037600Y-90119200D02*
X122572500Y-90119200D01*
X110251400Y-91895000D02*
X110251400Y-92643800D01*
X123037600Y-87249000D02*
X122553100Y-87249000D01*
X162788600Y-111201200D02*
X162763200Y-111175800D01*
D45*
X118453300Y-86436200D02*
X118449300Y-86432200D01*
D43*
X122572500Y-90119200D02*
X122550000Y-90141700D01*
X116222400Y-121353200D02*
X115366600Y-121353200D01*
X123313700Y-87249000D02*
X123825000Y-87760300D01*
X122936000Y-95580200D02*
X122428200Y-95580200D01*
X111060200Y-85916800D02*
X111074200Y-85902800D01*
X136333900Y-98691100D02*
X136333900Y-98287800D01*
D44*
X129931000Y-95568400D02*
X129931000Y-94802800D01*
D43*
X125806200Y-97622400D02*
X125806200Y-98272600D01*
X117185200Y-99255052D02*
X116535200Y-98605052D01*
X116535200Y-98228200D02*
X116535200Y-97628800D01*
X139192000Y-101504800D02*
X139192000Y-100905400D01*
X162265400Y-111175800D02*
X162240000Y-111150400D01*
X141986000Y-101504800D02*
X141986000Y-100905400D01*
D45*
X119532400Y-86436200D02*
X118453300Y-86436200D01*
D43*
X121525048Y-86585700D02*
X122175048Y-87235700D01*
X122553100Y-87249000D02*
X122539800Y-87235700D01*
X157518800Y-97763900D02*
X157518800Y-97179900D01*
X123288100Y-90119200D02*
X123037600Y-90119200D01*
X136931400Y-121360400D02*
X136923400Y-121352400D01*
X111060200Y-86439400D02*
X111060200Y-85916800D01*
D44*
X159338200Y-92655200D02*
X159334200Y-92659200D01*
X128981000Y-95568400D02*
X128981000Y-94894800D01*
D43*
X162240000Y-96786100D02*
X162826100Y-96786100D01*
X153112400Y-104851200D02*
X153619200Y-104851200D01*
X111976000Y-98666200D02*
X111976000Y-95906400D01*
X162826100Y-96786100D02*
X162839400Y-96799400D01*
X139776200Y-97622400D02*
X139776200Y-98145600D01*
X133477000Y-98304400D02*
X133477000Y-97840800D01*
D44*
X129083000Y-94792800D02*
X129921000Y-94792800D01*
X160174600Y-93605200D02*
X159492800Y-93605200D01*
D43*
X136321800Y-98304400D02*
X136321800Y-97705000D01*
X112127000Y-86439400D02*
X112127000Y-85914200D01*
X163525200Y-111404400D02*
X163322000Y-111201200D01*
X135619400Y-112877600D02*
X134696200Y-112877600D01*
D44*
X160174600Y-92655200D02*
X159338200Y-92655200D01*
D43*
X122175048Y-87235700D02*
X122539800Y-87235700D01*
X120639800Y-86585700D02*
X121525048Y-86585700D01*
X137074200Y-115172400D02*
X136199100Y-115172400D01*
X153115400Y-104848200D02*
X153112400Y-104851200D01*
X136983900Y-100187800D02*
X136983900Y-99341100D01*
X116535200Y-98605052D02*
X116535200Y-98237000D01*
X157014000Y-100910300D02*
X156997400Y-100926900D01*
X137083800Y-115162800D02*
X137074200Y-115172400D01*
X119380000Y-101479400D02*
X119380000Y-100880000D01*
D44*
X159334200Y-93446600D02*
X159334200Y-92659200D01*
D43*
X162189200Y-104241600D02*
X162687000Y-104241600D01*
X116281200Y-115163600D02*
X116271600Y-115173200D01*
X136923400Y-121352400D02*
X136199100Y-121352400D01*
X142941000Y-94853800D02*
X143052800Y-94742000D01*
X116271600Y-115173200D02*
X115366600Y-115173200D01*
X122171100Y-90141700D02*
X122550000Y-90141700D01*
X110251400Y-92643800D02*
X110236000Y-92659200D01*
X144830800Y-101504800D02*
X144830800Y-100905400D01*
X163322000Y-111201200D02*
X162788600Y-111201200D01*
X163525200Y-111675000D02*
X163525200Y-111404400D01*
X113690400Y-101479400D02*
X113690400Y-100880000D01*
X162763200Y-111175800D02*
X162265400Y-111175800D01*
X122199400Y-101479400D02*
X122199400Y-100880000D01*
X112127000Y-85914200D02*
X112115600Y-85902800D01*
X162356800Y-99148500D02*
X162240000Y-99031700D01*
D44*
X129931000Y-94802800D02*
X129921000Y-94792800D01*
D43*
X107934600Y-99487800D02*
X111154400Y-99487800D01*
X136199100Y-116272400D02*
X136199100Y-116172400D01*
X136199100Y-120252400D02*
X136199100Y-120352400D01*
X115366600Y-116273200D02*
X115366600Y-116173200D01*
X115366600Y-120253200D02*
X115366600Y-120353200D01*
X102422800Y-95951200D02*
X103047800Y-95326200D01*
X102422800Y-96857400D02*
X102422800Y-95951200D01*
X103047800Y-92811600D02*
X102789800Y-92553600D01*
X101457600Y-96857400D02*
X102422800Y-96857400D01*
X101803200Y-96266000D02*
X101457600Y-96611600D01*
X122539800Y-86014600D02*
X122529600Y-86004400D01*
X101457600Y-96611600D02*
X101457600Y-96857400D01*
X102789800Y-92553600D02*
X102282800Y-92553600D01*
X103047800Y-95326200D02*
X103047800Y-92811600D01*
X122539800Y-86585700D02*
X122539800Y-86014600D01*
X112127000Y-88696800D02*
X112127000Y-88863200D01*
X157518800Y-94423800D02*
X157556200Y-94386400D01*
X122550000Y-89047400D02*
X122199400Y-88696800D01*
X112127000Y-88863200D02*
X111976400Y-89013800D01*
X122199400Y-88696800D02*
X112127000Y-88696800D01*
X122550000Y-89491700D02*
X122550000Y-89047400D01*
X111976400Y-89013800D02*
X111976400Y-89670000D01*
X157518800Y-95529900D02*
X157518800Y-94423800D01*
X112127000Y-87339400D02*
X112127000Y-88696800D01*
X122763200Y-89047400D02*
X122550000Y-89047400D01*
X122885200Y-88925400D02*
X122763200Y-89047400D01*
X148386800Y-95478600D02*
X148005800Y-95859600D01*
X152095200Y-95478600D02*
X148386800Y-95478600D01*
X138623000Y-97622400D02*
X138607800Y-97637600D01*
X147370800Y-98780600D02*
X139573000Y-98780600D01*
X152476200Y-95859600D02*
X152095200Y-95478600D01*
X108127800Y-101803200D02*
X109245400Y-100685600D01*
X152476200Y-96266000D02*
X152476200Y-97416000D01*
X109245400Y-100685600D02*
X112191800Y-100685600D01*
X139573000Y-98780600D02*
X139126200Y-98333800D01*
X139126200Y-97622400D02*
X138623000Y-97622400D01*
X135683900Y-100187800D02*
X135683900Y-99742900D01*
X148005800Y-95859600D02*
X148005800Y-98145600D01*
X152476200Y-97416000D02*
X152465400Y-97426800D01*
X152476200Y-96266000D02*
X152476200Y-95859600D01*
X98983800Y-107467400D02*
X108127800Y-107467400D01*
X108127800Y-107467400D02*
X108127800Y-101803200D01*
X148005800Y-98145600D02*
X147370800Y-98780600D01*
X115885200Y-100137000D02*
X115885200Y-99172000D01*
X135683900Y-99742900D02*
X135407400Y-99466400D01*
X115885200Y-99172000D02*
X115697000Y-98983800D01*
X139126200Y-98333800D02*
X139126200Y-97622400D01*
X151815400Y-97426800D02*
X151815400Y-98476200D01*
X151815400Y-98476200D02*
X151638000Y-98653600D01*
X151638000Y-98653600D02*
X149326600Y-98653600D01*
X149326600Y-98653600D02*
X149225000Y-98755200D01*
X113334800Y-87436172D02*
X113330828Y-87432200D01*
X109296200Y-92481400D02*
X109751400Y-92026200D01*
X109751400Y-92026200D02*
X109751400Y-91895000D01*
X113334800Y-88011000D02*
X113334800Y-87436172D01*
X113980828Y-85432200D02*
X115455000Y-85432200D01*
X115455000Y-85432200D02*
X115468400Y-85445600D01*
X113969800Y-85421172D02*
X113980828Y-85432200D01*
X113969800Y-84861400D02*
X113969800Y-85421172D01*
X116537700Y-85445600D02*
X116574300Y-85482200D01*
X115468400Y-85445600D02*
X116537700Y-85445600D01*
X162189200Y-104891600D02*
X162189200Y-105806200D01*
X162189200Y-105806200D02*
X162179000Y-105816400D01*
X96723200Y-92557600D02*
X97478800Y-92557600D01*
X97478800Y-92557600D02*
X97482800Y-92553600D01*
X96743200Y-93553600D02*
X96723200Y-93573600D01*
X97482800Y-93553600D02*
X96743200Y-93553600D01*
X98882800Y-94995400D02*
X98882800Y-94453600D01*
X97647600Y-96230600D02*
X98882800Y-94995400D01*
X97647600Y-96857400D02*
X97647600Y-96230600D01*
X99578000Y-96403400D02*
X99740800Y-96240600D01*
X99740800Y-96240600D02*
X100360816Y-96240600D01*
X99578000Y-96857400D02*
X99578000Y-96403400D01*
X100360816Y-96240600D02*
X101382800Y-95218616D01*
X101382800Y-95218616D02*
X101382800Y-94453600D01*
X98612800Y-96789400D02*
X99504500Y-95897700D01*
X100882800Y-95179800D02*
X100882800Y-94453600D01*
X99504500Y-95897700D02*
X100164900Y-95897700D01*
X100164900Y-95897700D02*
X100882800Y-95179800D01*
X98612800Y-96857400D02*
X98612800Y-96789400D01*
X109993400Y-87339400D02*
X111060200Y-87339400D01*
X111060200Y-87339400D02*
X111060200Y-87946200D01*
X111060200Y-87946200D02*
X111251400Y-88137400D01*
X111251400Y-88137400D02*
X111251400Y-88945000D01*
X159123800Y-104698800D02*
X159131000Y-104691600D01*
X158165800Y-104698800D02*
X159123800Y-104698800D01*
X159758800Y-104691600D02*
X159131000Y-104691600D01*
X160289200Y-104891600D02*
X159958800Y-104891600D01*
X159958800Y-104891600D02*
X159758800Y-104691600D01*
X133283800Y-96218400D02*
X133283800Y-91156600D01*
X132318600Y-96218400D02*
X133283800Y-96218400D01*
X133283800Y-91156600D02*
X130032600Y-87905400D01*
X146278600Y-94767400D02*
X145592800Y-94081600D01*
X141859000Y-94081600D02*
X141132400Y-93355000D01*
X141132400Y-93355000D02*
X141132400Y-87880000D01*
X145592800Y-94081600D02*
X141859000Y-94081600D01*
X146278600Y-96222400D02*
X146278600Y-94767400D01*
X146278600Y-96222400D02*
X147243800Y-96222400D01*
X153730800Y-89302400D02*
X152308400Y-87880000D01*
X160824600Y-89302400D02*
X153730800Y-89302400D01*
X160824600Y-90267600D02*
X160824600Y-89302400D01*
D44*
X128981000Y-96911200D02*
X128981000Y-97768400D01*
X128991200Y-96901000D02*
X128981000Y-96911200D01*
X142947200Y-96875600D02*
X142941000Y-96881800D01*
X142941000Y-96881800D02*
X142941000Y-97772400D01*
X161474000Y-93605200D02*
X162374600Y-93605200D01*
X161467800Y-93599000D02*
X161474000Y-93605200D01*
D43*
X161287100Y-99031700D02*
X160340000Y-99031700D01*
X161643200Y-99387800D02*
X161287100Y-99031700D01*
X162255200Y-108762800D02*
X162255200Y-110485200D01*
X162189200Y-103591600D02*
X163103800Y-103591600D01*
X163220400Y-107797600D02*
X162255200Y-108762800D01*
X161901300Y-100331700D02*
X161643200Y-100073600D01*
X162189200Y-100797400D02*
X162179000Y-100787200D01*
X163103800Y-103591600D02*
X163220400Y-103708200D01*
X161643200Y-100073600D02*
X161643200Y-99387800D01*
X163220400Y-103708200D02*
X163220400Y-107797600D01*
X162179000Y-100787200D02*
X162179000Y-100392700D01*
X162179000Y-100392700D02*
X162240000Y-100331700D01*
X162189200Y-103591600D02*
X162189200Y-100797400D01*
X162240000Y-100331700D02*
X161901300Y-100331700D01*
X162255200Y-110485200D02*
X162240000Y-110500400D01*
X136999100Y-98272600D02*
X136983900Y-98287800D01*
X140639800Y-107467400D02*
X149783800Y-107467400D01*
X137490200Y-98272600D02*
X136999100Y-98272600D01*
D44*
X119532400Y-98780600D02*
X118999000Y-98247200D01*
D43*
X128930400Y-107442000D02*
X128955800Y-107467400D01*
X119811800Y-107442000D02*
X128930400Y-107442000D01*
X117195400Y-98247200D02*
X117185200Y-98237000D01*
D44*
X118999000Y-98247200D02*
X117627400Y-98247200D01*
D43*
X117627400Y-98247200D02*
X117195400Y-98247200D01*
X111328200Y-108127800D02*
X115062000Y-108127800D01*
X123314600Y-96344600D02*
X122527200Y-96344600D01*
X122286000Y-98410000D02*
X122506600Y-98630600D01*
X102082600Y-108127800D02*
X111328200Y-108127800D01*
X123586000Y-95722400D02*
X124038400Y-95722400D01*
X123586000Y-96073200D02*
X123314600Y-96344600D01*
X122506600Y-98630600D02*
X124716400Y-98630600D01*
X132130800Y-108127800D02*
X135839200Y-108127800D01*
X122286000Y-97622400D02*
X122286000Y-98410000D01*
X123586000Y-95722400D02*
X123586000Y-96073200D01*
X123012200Y-108127800D02*
X129844800Y-108127800D01*
X124716400Y-98630600D02*
X125196600Y-99110800D01*
X125196600Y-99110800D02*
X127558800Y-99110800D01*
X143814800Y-108127800D02*
X152958800Y-108127800D01*
D44*
X135864600Y-108153200D02*
X135839200Y-108127800D01*
D43*
X135839200Y-108127800D02*
X143814800Y-108127800D01*
X129844800Y-108127800D02*
X132130800Y-108127800D01*
X127558800Y-99110800D02*
X129844800Y-101396800D01*
X129844800Y-101396800D02*
X129844800Y-108127800D01*
X122286000Y-96585800D02*
X122286000Y-97622400D01*
D44*
X135864600Y-108483400D02*
X135864600Y-108153200D01*
X115062000Y-108559600D02*
X115062000Y-108127800D01*
D43*
X124038400Y-95722400D02*
X124155200Y-95605600D01*
X115062000Y-108127800D02*
X123012200Y-108127800D01*
X122527200Y-96344600D02*
X122286000Y-96585800D01*
X150420600Y-120263200D02*
X150420600Y-120267200D01*
X150420600Y-120267200D02*
X150418800Y-120269000D01*
X152445000Y-120263200D02*
X152654000Y-120472200D01*
X152247600Y-121945400D02*
X149660985Y-121945400D01*
X147396200Y-121386600D02*
X147396200Y-118719600D01*
X147396200Y-118719600D02*
X147843000Y-118272800D01*
X149582385Y-121866800D02*
X147876400Y-121866800D01*
X147876400Y-121866800D02*
X147396200Y-121386600D01*
X151940600Y-120263200D02*
X152445000Y-120263200D01*
X152654000Y-120472200D02*
X152654000Y-121539000D01*
X152654000Y-121539000D02*
X152247600Y-121945400D01*
X147843000Y-118272800D02*
X148653400Y-118272800D01*
X149660985Y-121945400D02*
X149582385Y-121866800D01*
X152933400Y-121894600D02*
X152501600Y-122326400D01*
X149426970Y-122250200D02*
X147650200Y-122250200D01*
X149503170Y-122326400D02*
X149426970Y-122250200D01*
X152908000Y-119735600D02*
X154312284Y-119735600D01*
X152501600Y-122326400D02*
X149503170Y-122326400D01*
X146964400Y-116052600D02*
X147284200Y-115732800D01*
X154312284Y-119735600D02*
X154813000Y-120236316D01*
X151940600Y-119463200D02*
X152635600Y-119463200D01*
X147650200Y-122250200D02*
X146964400Y-121564400D01*
X154813000Y-121406584D02*
X154324984Y-121894600D01*
X154324984Y-121894600D02*
X152933400Y-121894600D01*
X152635600Y-119463200D02*
X152908000Y-119735600D01*
X154813000Y-120236316D02*
X154813000Y-121406584D01*
X146964400Y-121564400D02*
X146964400Y-116052600D01*
X147284200Y-115732800D02*
X148653400Y-115732800D01*
X149591000Y-120812800D02*
X149786600Y-121008400D01*
X151465800Y-118663200D02*
X151940600Y-118663200D01*
X151180800Y-118948200D02*
X151465800Y-118663200D01*
X151054600Y-121532200D02*
X151180800Y-121406000D01*
X149786600Y-121008400D02*
X149786600Y-121532200D01*
X149786600Y-121532200D02*
X151054600Y-121532200D01*
X148653400Y-120812800D02*
X149591000Y-120812800D01*
X151180800Y-121406000D02*
X151180800Y-118948200D01*
X152628600Y-118872000D02*
X152628600Y-118084600D01*
X155219400Y-121539000D02*
X155219400Y-120103900D01*
X152407200Y-117863200D02*
X151940600Y-117863200D01*
X152628600Y-118084600D02*
X152407200Y-117863200D01*
X154459600Y-122298800D02*
X155219400Y-121539000D01*
X148653400Y-123352800D02*
X152161000Y-123352800D01*
X153215000Y-122298800D02*
X154459600Y-122298800D01*
X153111200Y-119354600D02*
X152628600Y-118872000D01*
X154470100Y-119354600D02*
X153111200Y-119354600D01*
X152161000Y-123352800D02*
X153215000Y-122298800D01*
X155219400Y-120103900D02*
X154470100Y-119354600D01*
X153733400Y-117360600D02*
X153733400Y-118272800D01*
X151940600Y-117063200D02*
X153436000Y-117063200D01*
X153436000Y-117063200D02*
X153733400Y-117360600D01*
X153203000Y-116263200D02*
X153733400Y-115732800D01*
X151940600Y-116263200D02*
X153203000Y-116263200D01*
X152491200Y-113192800D02*
X153733400Y-113192800D01*
X151940600Y-113743400D02*
X152491200Y-113192800D01*
X151940600Y-115463200D02*
X151940600Y-113743400D01*
D44*
X142062200Y-106019600D02*
X141868005Y-106019600D01*
X141596855Y-109948455D02*
X141256610Y-110288700D01*
X141436205Y-106451400D02*
X139471400Y-106451400D01*
X141256610Y-110288700D02*
X141256610Y-111220400D01*
X141868005Y-106019600D02*
X141436205Y-106451400D01*
X136983900Y-103963900D02*
X136983900Y-103413600D01*
X139471400Y-106451400D02*
X136983900Y-103963900D01*
X132283200Y-104114600D02*
X132283200Y-102743000D01*
X132839100Y-102187100D02*
X132839100Y-101513600D01*
X133146800Y-104698800D02*
X132867400Y-104698800D01*
X132283200Y-102743000D02*
X132839100Y-102187100D01*
X135712200Y-107264200D02*
X133146800Y-104698800D01*
X132867400Y-104698800D02*
X132283200Y-104114600D01*
X135128000Y-102565200D02*
X135683900Y-102009300D01*
X135683900Y-102009300D02*
X135683900Y-101513600D01*
X135128000Y-103936800D02*
X135128000Y-102565200D01*
X139395200Y-106908600D02*
X136575800Y-104089200D01*
X136575800Y-104089200D02*
X135280400Y-104089200D01*
X135280400Y-104089200D02*
X135128000Y-103936800D01*
X141376400Y-106908600D02*
X139395200Y-106908600D01*
X136220200Y-104368600D02*
X133197600Y-104368600D01*
X136779000Y-107543600D02*
X137008650Y-107313950D01*
X137008650Y-107313950D02*
X137008650Y-105157050D01*
X137008650Y-105157050D02*
X136220200Y-104368600D01*
X132839100Y-104010100D02*
X132839100Y-103413600D01*
X133197600Y-104368600D02*
X132839100Y-104010100D01*
X138249700Y-101513600D02*
X137718800Y-102044500D01*
X137718800Y-102044500D02*
X137718800Y-104089200D01*
X138734800Y-105105200D02*
X142478400Y-105105200D01*
X138516600Y-101513600D02*
X138249700Y-101513600D01*
X137718800Y-104089200D02*
X138734800Y-105105200D01*
X142478400Y-105105200D02*
X143164200Y-105791000D01*
X139816600Y-103977200D02*
X139816600Y-103413600D01*
X142849600Y-104546400D02*
X140385800Y-104546400D01*
X140385800Y-104546400D02*
X139816600Y-103977200D01*
X143687800Y-106654600D02*
X143687800Y-105384600D01*
X143510000Y-106832400D02*
X143687800Y-106654600D01*
X143687800Y-105384600D02*
X142849600Y-104546400D01*
X145196200Y-105578000D02*
X145492900Y-105281300D01*
X145196200Y-106070400D02*
X145196200Y-105578000D01*
D43*
X141272210Y-120259200D02*
X141270410Y-120261000D01*
D44*
X145492900Y-105281300D02*
X145492900Y-103413600D01*
X142732400Y-109728000D02*
X143668410Y-110664010D01*
D43*
X138247810Y-121378600D02*
X138247810Y-118711600D01*
X138694610Y-118264800D02*
X139505010Y-118264800D01*
X143099210Y-121937400D02*
X140512595Y-121937400D01*
X143296610Y-120255200D02*
X143505610Y-120464200D01*
X143505610Y-120464200D02*
X143505610Y-121531000D01*
X140512595Y-121937400D02*
X140433995Y-121858800D01*
X138247810Y-118711600D02*
X138694610Y-118264800D01*
X138728010Y-121858800D02*
X138247810Y-121378600D01*
X142792210Y-120255200D02*
X143296610Y-120255200D01*
X140433995Y-121858800D02*
X138728010Y-121858800D01*
X143505610Y-121531000D02*
X143099210Y-121937400D01*
X145163894Y-119727600D02*
X145664610Y-120228316D01*
X138480800Y-122250200D02*
X137795000Y-121564400D01*
X140278580Y-122242200D02*
X138501810Y-122242200D01*
X143487210Y-119455200D02*
X143759610Y-119727600D01*
X137795000Y-121564400D02*
X137795000Y-116052600D01*
X145664610Y-120228316D02*
X145664610Y-121398584D01*
X142792210Y-119455200D02*
X143487210Y-119455200D01*
X145176594Y-121886600D02*
X143785010Y-121886600D01*
X143759610Y-119727600D02*
X145163894Y-119727600D01*
X137795000Y-116052600D02*
X138114800Y-115732800D01*
X140354780Y-122318400D02*
X140278580Y-122242200D01*
X138114800Y-115732800D02*
X139484000Y-115732800D01*
X143785010Y-121886600D02*
X143353210Y-122318400D01*
X145664610Y-121398584D02*
X145176594Y-121886600D01*
X143353210Y-122318400D02*
X140354780Y-122318400D01*
X142032410Y-118940200D02*
X142317410Y-118655200D01*
X140442610Y-120804800D02*
X140638210Y-121000400D01*
X139505010Y-120804800D02*
X140442610Y-120804800D01*
X142032410Y-121398000D02*
X142032410Y-118940200D01*
X141906210Y-121524200D02*
X142032410Y-121398000D01*
X142317410Y-118655200D02*
X142792210Y-118655200D01*
X140638210Y-121524200D02*
X141906210Y-121524200D01*
X140638210Y-121000400D02*
X140638210Y-121524200D01*
X144066610Y-122290800D02*
X145311210Y-122290800D01*
X139505010Y-123344800D02*
X143012610Y-123344800D01*
X143012610Y-123344800D02*
X144066610Y-122290800D01*
X143480210Y-118076600D02*
X143258810Y-117855200D01*
X143258810Y-117855200D02*
X142792210Y-117855200D01*
X143480210Y-118864000D02*
X143480210Y-118076600D01*
X146071010Y-120095900D02*
X145321710Y-119346600D01*
X145321710Y-119346600D02*
X143962810Y-119346600D01*
X143962810Y-119346600D02*
X143480210Y-118864000D01*
X145311210Y-122290800D02*
X146071010Y-121531000D01*
X146071010Y-121531000D02*
X146071010Y-120095900D01*
X142792210Y-117055200D02*
X144287610Y-117055200D01*
X144585010Y-117352600D02*
X144585010Y-118264800D01*
X144287610Y-117055200D02*
X144585010Y-117352600D01*
X142792210Y-116255200D02*
X144054610Y-116255200D01*
X144054610Y-116255200D02*
X144585010Y-115724800D01*
X143342810Y-113184800D02*
X144585010Y-113184800D01*
X142792210Y-115455200D02*
X142792210Y-113735400D01*
X142792210Y-113735400D02*
X143342810Y-113184800D01*
X129588210Y-116255200D02*
X129285210Y-116255200D01*
X128954210Y-115924200D02*
X128954210Y-109418000D01*
X128954210Y-109418000D02*
X128951410Y-109415200D01*
X129285210Y-116255200D02*
X128954210Y-115924200D01*
X129588210Y-120259200D02*
X129586410Y-120261000D01*
X127044010Y-121858800D02*
X126563810Y-121378600D01*
X126563810Y-118711600D02*
X127010610Y-118264800D01*
X131108210Y-120255200D02*
X131612610Y-120255200D01*
X128828595Y-121937400D02*
X128749995Y-121858800D01*
X126563810Y-121378600D02*
X126563810Y-118711600D01*
X131415210Y-121937400D02*
X128828595Y-121937400D01*
X128749995Y-121858800D02*
X127044010Y-121858800D01*
X127010610Y-118264800D02*
X127821010Y-118264800D01*
X131821610Y-120464200D02*
X131821610Y-121531000D01*
X131821610Y-121531000D02*
X131415210Y-121937400D01*
X131612610Y-120255200D02*
X131821610Y-120464200D01*
X133980610Y-120228316D02*
X133980610Y-121398584D01*
X126430800Y-115732800D02*
X127800000Y-115732800D01*
X133980610Y-121398584D02*
X133492594Y-121886600D01*
X126111000Y-121564400D02*
X126111000Y-116052600D01*
X132101010Y-121886600D02*
X131669210Y-122318400D01*
X128594580Y-122242200D02*
X126817810Y-122242200D01*
X133492594Y-121886600D02*
X132101010Y-121886600D01*
X126796800Y-122250200D02*
X126111000Y-121564400D01*
X131108210Y-119455200D02*
X131803210Y-119455200D01*
X132075610Y-119727600D02*
X133479894Y-119727600D01*
X131669210Y-122318400D02*
X128670780Y-122318400D01*
X126111000Y-116052600D02*
X126430800Y-115732800D01*
X128670780Y-122318400D02*
X128594580Y-122242200D01*
X133479894Y-119727600D02*
X133980610Y-120228316D01*
X131803210Y-119455200D02*
X132075610Y-119727600D01*
X130222210Y-121524200D02*
X130348410Y-121398000D01*
X127821010Y-120804800D02*
X128758610Y-120804800D01*
X130633410Y-118655200D02*
X131108210Y-118655200D01*
X130348410Y-118940200D02*
X130633410Y-118655200D01*
X128758610Y-120804800D02*
X128954210Y-121000400D01*
X128954210Y-121524200D02*
X130222210Y-121524200D01*
X130348410Y-121398000D02*
X130348410Y-118940200D01*
X128954210Y-121000400D02*
X128954210Y-121524200D01*
X131574810Y-117855200D02*
X131108210Y-117855200D01*
X132382610Y-122290800D02*
X133627210Y-122290800D01*
X127821010Y-123344800D02*
X131328610Y-123344800D01*
X131796210Y-118864000D02*
X131796210Y-118076600D01*
X133627210Y-122290800D02*
X134387010Y-121531000D01*
X133637710Y-119346600D02*
X132278810Y-119346600D01*
X134387010Y-120095900D02*
X133637710Y-119346600D01*
X131796210Y-118076600D02*
X131574810Y-117855200D01*
X131328610Y-123344800D02*
X132382610Y-122290800D01*
X134387010Y-121531000D02*
X134387010Y-120095900D01*
X132278810Y-119346600D02*
X131796210Y-118864000D01*
X132901010Y-117352600D02*
X132901010Y-118264800D01*
X132603610Y-117055200D02*
X132901010Y-117352600D01*
X131108210Y-117055200D02*
X132603610Y-117055200D01*
X131108210Y-116255200D02*
X132370610Y-116255200D01*
X132370610Y-116255200D02*
X132901010Y-115724800D01*
X131108210Y-115455200D02*
X131108210Y-113735400D01*
X131658810Y-113184800D02*
X132901010Y-113184800D01*
X131108210Y-113735400D02*
X131658810Y-113184800D01*
D44*
X121056400Y-106629200D02*
X120751600Y-106324400D01*
X120624600Y-109702600D02*
X120444210Y-109882990D01*
X117185200Y-105348800D02*
X117185200Y-103362800D01*
X121208800Y-106629200D02*
X121056400Y-106629200D01*
X120751600Y-106324400D02*
X118160800Y-106324400D01*
X118160800Y-106324400D02*
X117185200Y-105348800D01*
X120444210Y-109882990D02*
X120444210Y-111220400D01*
X113040400Y-102123000D02*
X113040400Y-101462800D01*
D43*
X119810210Y-115898800D02*
X120141210Y-116229800D01*
D44*
X115036600Y-107264200D02*
X112877600Y-107264200D01*
D43*
X119810210Y-109601000D02*
X119810210Y-115898800D01*
X120141210Y-116229800D02*
X120444210Y-116229800D01*
D44*
X112293400Y-102870000D02*
X113040400Y-102123000D01*
X112877600Y-107264200D02*
X112293400Y-106680000D01*
X112293400Y-106680000D02*
X112293400Y-102870000D01*
X117246400Y-106959400D02*
X115341400Y-105054400D01*
D43*
X120464200Y-108754800D02*
X119807410Y-108754800D01*
X120444210Y-117029800D02*
X120747210Y-117029800D01*
X121204410Y-109495010D02*
X120464200Y-108754800D01*
D44*
X115885200Y-102097600D02*
X115885200Y-101462800D01*
D43*
X121204410Y-116572600D02*
X121204410Y-109495010D01*
D44*
X120421400Y-106883200D02*
X120345200Y-106959400D01*
X115341400Y-105054400D02*
X115341400Y-102641400D01*
X115341400Y-102641400D02*
X115885200Y-102097600D01*
D43*
X120747210Y-117029800D02*
X121204410Y-116572600D01*
D44*
X120345200Y-106959400D02*
X117246400Y-106959400D01*
X116306600Y-106832400D02*
X115900200Y-106426000D01*
X116306600Y-107188000D02*
X116306600Y-106832400D01*
X113040400Y-105903000D02*
X113040400Y-103362800D01*
X115900200Y-107594400D02*
X116306600Y-107188000D01*
X115900200Y-106426000D02*
X113563400Y-106426000D01*
X113563400Y-106426000D02*
X113040400Y-105903000D01*
X117703600Y-104368600D02*
X117703600Y-102463600D01*
X118704400Y-101462800D02*
X118717900Y-101462800D01*
X121361200Y-105765600D02*
X120650000Y-105054400D01*
X117703600Y-102463600D02*
X118704400Y-101462800D01*
X120650000Y-105054400D02*
X118389400Y-105054400D01*
X118389400Y-105054400D02*
X117703600Y-104368600D01*
X122809000Y-106070400D02*
X121335800Y-104597200D01*
X122809000Y-106832400D02*
X122809000Y-106070400D01*
X120523000Y-104597200D02*
X120017900Y-104092100D01*
X121335800Y-104597200D02*
X120523000Y-104597200D01*
X120017900Y-104092100D02*
X120017900Y-103362800D01*
X124383800Y-106070400D02*
X124383800Y-105511600D01*
X124383800Y-105511600D02*
X125694200Y-104201200D01*
X125694200Y-104201200D02*
X125694200Y-103362800D01*
X121920000Y-109728000D02*
X122856010Y-110664010D01*
X122856010Y-110664010D02*
X122856010Y-110684600D01*
D43*
X117419810Y-121353200D02*
X117419810Y-118686200D01*
X122468610Y-120229800D02*
X122677610Y-120438800D01*
X119684595Y-121912000D02*
X119605995Y-121833400D01*
X121964210Y-120229800D02*
X122468610Y-120229800D01*
X122271210Y-121912000D02*
X119684595Y-121912000D01*
X122677610Y-120438800D02*
X122677610Y-121505600D01*
X117900010Y-121833400D02*
X117419810Y-121353200D01*
X117866610Y-118239400D02*
X118677010Y-118239400D01*
X119605995Y-121833400D02*
X117900010Y-121833400D01*
X122677610Y-121505600D02*
X122271210Y-121912000D01*
X117419810Y-118686200D02*
X117866610Y-118239400D01*
X124348594Y-121861200D02*
X122957010Y-121861200D01*
X117652800Y-122250200D02*
X116967000Y-121564400D01*
X122957010Y-121861200D02*
X122525210Y-122293000D01*
X119526780Y-122293000D02*
X119450580Y-122216800D01*
X124836610Y-120202916D02*
X124836610Y-121373184D01*
X121964210Y-119429800D02*
X122659210Y-119429800D01*
X119450580Y-122216800D02*
X117673810Y-122216800D01*
X116967000Y-116052600D02*
X117286800Y-115732800D01*
X122525210Y-122293000D02*
X119526780Y-122293000D01*
X122659210Y-119429800D02*
X122931610Y-119702200D01*
X122931610Y-119702200D02*
X124335894Y-119702200D01*
X116967000Y-121564400D02*
X116967000Y-116052600D01*
X117286800Y-115732800D02*
X118656000Y-115732800D01*
X124335894Y-119702200D02*
X124836610Y-120202916D01*
X124836610Y-121373184D02*
X124348594Y-121861200D01*
X119810210Y-121498800D02*
X121078210Y-121498800D01*
X119614610Y-120779400D02*
X119810210Y-120975000D01*
X121204410Y-121372600D02*
X121204410Y-118914800D01*
X121204410Y-118914800D02*
X121489410Y-118629800D01*
X121964210Y-118658600D02*
X121966410Y-118660800D01*
X118677010Y-120779400D02*
X119614610Y-120779400D01*
X121964210Y-118629800D02*
X121964210Y-118658600D01*
X121489410Y-118629800D02*
X121964210Y-118629800D01*
X121078210Y-121498800D02*
X121204410Y-121372600D01*
X119810210Y-120975000D02*
X119810210Y-121498800D01*
X122652210Y-118051200D02*
X122430810Y-117829800D01*
X122184610Y-123319400D02*
X123238610Y-122265400D01*
X123134810Y-119321200D02*
X122652210Y-118838600D01*
X125243010Y-121505600D02*
X125243010Y-120070500D01*
X122652210Y-118838600D02*
X122652210Y-118051200D01*
X124483210Y-122265400D02*
X125243010Y-121505600D01*
X123238610Y-122265400D02*
X124483210Y-122265400D01*
X122430810Y-117829800D02*
X121964210Y-117829800D01*
X118677010Y-123319400D02*
X122184610Y-123319400D01*
X124493710Y-119321200D02*
X123134810Y-119321200D01*
X125243010Y-120070500D02*
X124493710Y-119321200D01*
X121964210Y-117029800D02*
X123459610Y-117029800D01*
X123757010Y-117327200D02*
X123757010Y-118239400D01*
X123459610Y-117029800D02*
X123757010Y-117327200D01*
X121964210Y-116229800D02*
X123226610Y-116229800D01*
X123226610Y-116229800D02*
X123757010Y-115699400D01*
X122514810Y-113159400D02*
X123757010Y-113159400D01*
X121964210Y-113710000D02*
X122514810Y-113159400D01*
X121964210Y-115429800D02*
X121964210Y-113710000D01*
X108760210Y-120259200D02*
X108758410Y-120261000D01*
X110587210Y-121937400D02*
X108000595Y-121937400D01*
X108000595Y-121937400D02*
X107921995Y-121858800D01*
X106216010Y-121858800D02*
X105735810Y-121378600D01*
X107921995Y-121858800D02*
X106216010Y-121858800D01*
X110280210Y-120255200D02*
X110784610Y-120255200D01*
X110784610Y-120255200D02*
X110993610Y-120464200D01*
X106182610Y-118264800D02*
X106993010Y-118264800D01*
X105735810Y-121378600D02*
X105735810Y-118711600D01*
X105735810Y-118711600D02*
X106182610Y-118264800D01*
X110993610Y-121531000D02*
X110587210Y-121937400D01*
X110993610Y-120464200D02*
X110993610Y-121531000D01*
X113152610Y-121398584D02*
X112664594Y-121886600D01*
X110975210Y-119455200D02*
X111247610Y-119727600D01*
X105943400Y-122250200D02*
X105257600Y-121564400D01*
X110841210Y-122318400D02*
X107842780Y-122318400D01*
X110280210Y-119455200D02*
X110975210Y-119455200D01*
X105257600Y-116052600D02*
X105577400Y-115732800D01*
X113152610Y-120228316D02*
X113152610Y-121398584D01*
X111273010Y-121886600D02*
X110841210Y-122318400D01*
X105577400Y-115732800D02*
X106946600Y-115732800D01*
X105257600Y-121564400D02*
X105257600Y-116052600D01*
X107766580Y-122242200D02*
X105989810Y-122242200D01*
X111247610Y-119727600D02*
X112651894Y-119727600D01*
X112651894Y-119727600D02*
X113152610Y-120228316D01*
X107842780Y-122318400D02*
X107766580Y-122242200D01*
X112664594Y-121886600D02*
X111273010Y-121886600D01*
X106993010Y-120804800D02*
X107930610Y-120804800D01*
X108126210Y-121524200D02*
X109394210Y-121524200D01*
X107930610Y-120804800D02*
X108126210Y-121000400D01*
X109520410Y-121398000D02*
X109520410Y-118940200D01*
X109805410Y-118655200D02*
X110280210Y-118655200D01*
X108126210Y-121000400D02*
X108126210Y-121524200D01*
X109520410Y-118940200D02*
X109805410Y-118655200D01*
X109394210Y-121524200D02*
X109520410Y-121398000D01*
X111554610Y-122290800D02*
X112799210Y-122290800D01*
X110746810Y-117855200D02*
X110280210Y-117855200D01*
X111450810Y-119346600D02*
X110968210Y-118864000D01*
X113559010Y-120095900D02*
X112809710Y-119346600D01*
X112809710Y-119346600D02*
X111450810Y-119346600D01*
X110968210Y-118076600D02*
X110746810Y-117855200D01*
X113559010Y-121531000D02*
X113559010Y-120095900D01*
X112799210Y-122290800D02*
X113559010Y-121531000D01*
X106993010Y-123344800D02*
X110500610Y-123344800D01*
X110968210Y-118864000D02*
X110968210Y-118076600D01*
X110500610Y-123344800D02*
X111554610Y-122290800D01*
X110280210Y-117055200D02*
X111775610Y-117055200D01*
X112073010Y-117352600D02*
X112073010Y-118264800D01*
X111775610Y-117055200D02*
X112073010Y-117352600D01*
X111542610Y-116255200D02*
X112073010Y-115724800D01*
X110280210Y-116255200D02*
X111542610Y-116255200D01*
X110830810Y-113184800D02*
X112073010Y-113184800D01*
X110280210Y-115455200D02*
X110280210Y-113735400D01*
X110280210Y-113735400D02*
X110830810Y-113184800D01*
X99616210Y-116229800D02*
X99313210Y-116229800D01*
X98982210Y-115898800D02*
X98982210Y-109392600D01*
X98982210Y-109392600D02*
X98979410Y-109389800D01*
X99313210Y-116229800D02*
X98982210Y-115898800D01*
X96591810Y-121353200D02*
X96591810Y-118686200D01*
X97038610Y-118239400D02*
X97849010Y-118239400D01*
X98856595Y-121912000D02*
X98777995Y-121833400D01*
X101849610Y-121505600D02*
X101443210Y-121912000D01*
X97072010Y-121833400D02*
X96591810Y-121353200D01*
X96591810Y-118686200D02*
X97038610Y-118239400D01*
X101136210Y-120229800D02*
X101640610Y-120229800D01*
X101640610Y-120229800D02*
X101849610Y-120438800D01*
X98777995Y-121833400D02*
X97072010Y-121833400D01*
X101443210Y-121912000D02*
X98856595Y-121912000D01*
X101849610Y-120438800D02*
X101849610Y-121505600D01*
X101136210Y-119429800D02*
X101831210Y-119429800D01*
X98698780Y-122293000D02*
X98622580Y-122216800D01*
X96824800Y-122250200D02*
X96139000Y-121564400D01*
X102129010Y-121861200D02*
X101697210Y-122293000D01*
X98622580Y-122216800D02*
X96845810Y-122216800D01*
X104008610Y-121373184D02*
X103520594Y-121861200D01*
X104008610Y-120202916D02*
X104008610Y-121373184D01*
X101697210Y-122293000D02*
X98698780Y-122293000D01*
X103520594Y-121861200D02*
X102129010Y-121861200D01*
X103507894Y-119702200D02*
X104008610Y-120202916D01*
X96139000Y-116052600D02*
X96458800Y-115732800D01*
X96458800Y-115732800D02*
X97828000Y-115732800D01*
X102103610Y-119702200D02*
X103507894Y-119702200D01*
X96139000Y-121564400D02*
X96139000Y-116052600D01*
X101831210Y-119429800D02*
X102103610Y-119702200D01*
X100376410Y-118914800D02*
X100661410Y-118629800D01*
X98982210Y-121498800D02*
X100250210Y-121498800D01*
X101136210Y-118658600D02*
X101138410Y-118660800D01*
X100250210Y-121498800D02*
X100376410Y-121372600D01*
X100376410Y-121372600D02*
X100376410Y-118914800D01*
X101136210Y-118629800D02*
X101136210Y-118658600D01*
X97849010Y-120779400D02*
X98786610Y-120779400D01*
X100661410Y-118629800D02*
X101136210Y-118629800D01*
X98786610Y-120779400D02*
X98982210Y-120975000D01*
X98982210Y-120975000D02*
X98982210Y-121498800D01*
X97849010Y-123319400D02*
X101356610Y-123319400D01*
X103665710Y-119321200D02*
X102306810Y-119321200D01*
X101824210Y-118838600D02*
X101824210Y-118051200D01*
X104415010Y-120070500D02*
X103665710Y-119321200D01*
X104415010Y-121505600D02*
X104415010Y-120070500D01*
X102410610Y-122265400D02*
X103655210Y-122265400D01*
X101602810Y-117829800D02*
X101136210Y-117829800D01*
X101356610Y-123319400D02*
X102410610Y-122265400D01*
X101824210Y-118051200D02*
X101602810Y-117829800D01*
X102306810Y-119321200D02*
X101824210Y-118838600D01*
X103655210Y-122265400D02*
X104415010Y-121505600D01*
X101136210Y-117029800D02*
X102631610Y-117029800D01*
X102929010Y-117327200D02*
X102929010Y-118239400D01*
X102631610Y-117029800D02*
X102929010Y-117327200D01*
X101136210Y-116229800D02*
X102398610Y-116229800D01*
X102398610Y-116229800D02*
X102929010Y-115699400D01*
X101686810Y-113159400D02*
X102929010Y-113159400D01*
X101136210Y-113710000D02*
X101686810Y-113159400D01*
X101136210Y-115429800D02*
X101136210Y-113710000D01*
X123835200Y-89566300D02*
X123835200Y-89088000D01*
X123835200Y-89088000D02*
X123825000Y-89077800D01*
X123825000Y-86660300D02*
X123825000Y-86055200D01*
X163525200Y-110575000D02*
X163525200Y-109956600D01*
X122550000Y-90791700D02*
X122897300Y-90791700D01*
X122897300Y-90791700D02*
X123037600Y-90932000D01*
X122810700Y-87885700D02*
X123037600Y-88112600D01*
X122539800Y-87885700D02*
X122810700Y-87885700D01*
X162240000Y-111800400D02*
X162549600Y-111800400D01*
X162549600Y-111800400D02*
X162737800Y-111988600D01*
X122936000Y-98018600D02*
X123118800Y-98201400D01*
X122936000Y-97622400D02*
X122936000Y-98018600D01*
X124703800Y-97622400D02*
X124383800Y-97942400D01*
X125156200Y-97622400D02*
X124703800Y-97622400D01*
X123118800Y-98201400D02*
X124124800Y-98201400D01*
X124124800Y-98201400D02*
X124383800Y-97942400D01*
X159701900Y-99681700D02*
X160340000Y-99681700D01*
X160172400Y-98018600D02*
X159562800Y-98628200D01*
X162240000Y-97851000D02*
X162407600Y-98018600D01*
X162407600Y-98018600D02*
X160172400Y-98018600D01*
X162240000Y-97436100D02*
X162240000Y-97851000D01*
X159562800Y-99542600D02*
X159701900Y-99681700D01*
X159562800Y-98628200D02*
X159562800Y-99542600D01*
X134579400Y-101513600D02*
X134594600Y-101498400D01*
D44*
X141348100Y-100784300D02*
X141348100Y-101513600D01*
X140741400Y-100456950D02*
X141020750Y-100456950D01*
D43*
X134139100Y-101513600D02*
X134579400Y-101513600D01*
D44*
X141020750Y-100456950D02*
X141348100Y-100784300D01*
X142417800Y-102209600D02*
X142392400Y-102184200D01*
X138328400Y-102184200D02*
X142392400Y-102184200D01*
D43*
X136983900Y-101513600D02*
X137449600Y-101513600D01*
D44*
X142648100Y-103413600D02*
X142648100Y-102439900D01*
X142648100Y-102439900D02*
X142417800Y-102209600D01*
D43*
X137449600Y-101513600D02*
X137464800Y-101498400D01*
D44*
X138328400Y-102184200D02*
X138176000Y-102336600D01*
X140275450Y-99957750D02*
X141536755Y-99957750D01*
X139816600Y-100416600D02*
X140275450Y-99957750D01*
X139816600Y-101513600D02*
X139816600Y-100416600D01*
X144192900Y-100301700D02*
X144192900Y-101513600D01*
X141858205Y-100279200D02*
X144170400Y-100279200D01*
X144170400Y-100279200D02*
X144192900Y-100301700D01*
D43*
X140223200Y-101513600D02*
X140233400Y-101523800D01*
D44*
X141536755Y-99957750D02*
X141858205Y-100279200D01*
D43*
X139816600Y-101513600D02*
X140223200Y-101513600D01*
D44*
X133159301Y-98933000D02*
X132839100Y-98612799D01*
X137473550Y-100676850D02*
X137312400Y-100838000D01*
D43*
X143078200Y-101549200D02*
X142683700Y-101549200D01*
X142683700Y-101549200D02*
X142648100Y-101513600D01*
D44*
X138430000Y-99314000D02*
X137473550Y-100270450D01*
X137312400Y-100838000D02*
X135305800Y-100838000D01*
X142925800Y-99314000D02*
X138430000Y-99314000D01*
X143027400Y-99415600D02*
X142925800Y-99314000D01*
X134315200Y-99530760D02*
X134315200Y-99237800D01*
X134315200Y-99237800D02*
X134010400Y-98933000D01*
X135077200Y-100609400D02*
X135077200Y-100292760D01*
X137473550Y-100270450D02*
X137473550Y-100676850D01*
X135305800Y-100838000D02*
X135077200Y-100609400D01*
X132839100Y-98612799D02*
X132839100Y-98287800D01*
X135077200Y-100292760D02*
X134315200Y-99530760D01*
X134010400Y-98933000D02*
X133159301Y-98933000D01*
X145492900Y-100458700D02*
X145492900Y-101513600D01*
X134620000Y-100634800D02*
X134173000Y-100187800D01*
X141884133Y-99999800D02*
X145034000Y-99999800D01*
X145034000Y-99999800D02*
X145492900Y-100458700D01*
D43*
X145526800Y-101549200D02*
X145491200Y-101513600D01*
D44*
X134173000Y-100187800D02*
X134139100Y-100187800D01*
X137922000Y-100457000D02*
X138637150Y-99741850D01*
X138637150Y-99741850D02*
X141626183Y-99741850D01*
X141626183Y-99741850D02*
X141884133Y-99999800D01*
D43*
X145921300Y-101549200D02*
X145526800Y-101549200D01*
X134975600Y-98313200D02*
X135001000Y-98287800D01*
X135001000Y-98287800D02*
X134139100Y-98287800D01*
X134975600Y-98780600D02*
X134975600Y-98313200D01*
X135683900Y-98287800D02*
X135001000Y-98287800D01*
X114782600Y-101473000D02*
X114350600Y-101473000D01*
D44*
X121549400Y-100797600D02*
X121549400Y-101462800D01*
X121412000Y-100660200D02*
X121549400Y-100797600D01*
X120599200Y-100660200D02*
X121412000Y-100660200D01*
D43*
X114350600Y-101473000D02*
X114340400Y-101462800D01*
D44*
X122849400Y-102453200D02*
X122453400Y-102057200D01*
D43*
X117200400Y-101447600D02*
X117185200Y-101462800D01*
D44*
X122453400Y-102057200D02*
X118795800Y-102057200D01*
X122849400Y-103362800D02*
X122849400Y-102453200D01*
D43*
X117652800Y-101447600D02*
X117200400Y-101447600D01*
D44*
X118795800Y-102057200D02*
X118287800Y-102565200D01*
D43*
X120472200Y-101473000D02*
X120028100Y-101473000D01*
D44*
X120370600Y-99999800D02*
X120017900Y-100352500D01*
X124079000Y-99999800D02*
X120370600Y-99999800D01*
X120017900Y-100352500D02*
X120017900Y-101462800D01*
X124394200Y-101462800D02*
X124394200Y-100315000D01*
X124394200Y-100315000D02*
X124079000Y-99999800D01*
D43*
X120028100Y-101473000D02*
X120017900Y-101462800D01*
D44*
X113182400Y-98882200D02*
X113040400Y-98740200D01*
X115214400Y-99187000D02*
X114909600Y-98882200D01*
X118948200Y-99263200D02*
X117424200Y-100787200D01*
X115519200Y-100787200D02*
X115214400Y-100482400D01*
X117424200Y-100787200D02*
X115519200Y-100787200D01*
X114909600Y-98882200D02*
X113182400Y-98882200D01*
D43*
X123291600Y-101473000D02*
X122859600Y-101473000D01*
D44*
X115214400Y-100482400D02*
X115214400Y-99187000D01*
X123291600Y-99161600D02*
X123190000Y-99263200D01*
X123190000Y-99263200D02*
X118948200Y-99263200D01*
D43*
X122859600Y-101473000D02*
X122849400Y-101462800D01*
D44*
X113040400Y-98740200D02*
X113040400Y-98237000D01*
D43*
X125704400Y-101473000D02*
X125694200Y-101462800D01*
D44*
X118922800Y-100380800D02*
X119634000Y-99669600D01*
X114340400Y-100192600D02*
X114340400Y-100137000D01*
X119634000Y-99669600D02*
X125145800Y-99669600D01*
D43*
X126136400Y-101473000D02*
X125704400Y-101473000D01*
D44*
X125694200Y-100218000D02*
X125694200Y-101462800D01*
X114731800Y-100584000D02*
X114340400Y-100192600D01*
X125145800Y-99669600D02*
X125694200Y-100218000D01*
X118465600Y-100380800D02*
X118922800Y-100380800D01*
X114797800Y-98237000D02*
X114782600Y-98221800D01*
D43*
X114782600Y-98221800D02*
X114355600Y-98221800D01*
D44*
X115885200Y-98237000D02*
X114797800Y-98237000D01*
D43*
X114355600Y-98221800D02*
X114340400Y-98237000D01*
G04 #@! TA.AperFunction,Conductor*
G36*
X117050294Y-92931506D02*
G01*
X117068600Y-92975700D01*
X117068600Y-96660700D01*
X117050294Y-96704894D01*
X117006100Y-96723200D01*
X111543100Y-96723200D01*
X111498906Y-96704894D01*
X111480600Y-96660700D01*
X111480600Y-92975700D01*
X111498906Y-92931506D01*
X111543100Y-92913200D01*
X117006100Y-92913200D01*
X117050294Y-92931506D01*
G37*
G04 #@! TD.AperFunction*
G04 #@! TA.AperFunction,Conductor*
G36*
X109430294Y-90518506D02*
G01*
X109448600Y-90562700D01*
X109448600Y-91943193D01*
X109430294Y-91987387D01*
X109361556Y-92056124D01*
X109317362Y-92074430D01*
X109307588Y-92073661D01*
X109296201Y-92071858D01*
X109296200Y-92071858D01*
X109279961Y-92074430D01*
X109169644Y-92091902D01*
X109169643Y-92091902D01*
X109055476Y-92150074D01*
X108996457Y-92209094D01*
X108952263Y-92227400D01*
X101967300Y-92227400D01*
X101923106Y-92209094D01*
X101904800Y-92164900D01*
X101904800Y-90562700D01*
X101923106Y-90518506D01*
X101967300Y-90500200D01*
X109386100Y-90500200D01*
X109430294Y-90518506D01*
G37*
G04 #@! TD.AperFunction*
G04 #@! TA.AperFunction,Conductor*
G36*
X117024894Y-89223106D02*
G01*
X117043200Y-89267300D01*
X117043200Y-91301300D01*
X117024894Y-91345494D01*
X116980700Y-91363800D01*
X111619300Y-91363800D01*
X111575106Y-91345494D01*
X111556800Y-91301300D01*
X111556800Y-90003900D01*
X111575106Y-89959706D01*
X111619300Y-89941400D01*
X111683873Y-89941400D01*
X111700048Y-89943529D01*
X111714866Y-89947500D01*
X111714867Y-89947500D01*
X112237933Y-89947500D01*
X112237934Y-89947500D01*
X112252751Y-89943529D01*
X112268927Y-89941400D01*
X112318800Y-89941400D01*
X112318801Y-89941399D01*
X112357349Y-89902850D01*
X112370298Y-89892916D01*
X112371789Y-89892056D01*
X112423456Y-89840389D01*
X112424319Y-89838894D01*
X112434247Y-89825952D01*
X113037094Y-89223106D01*
X113081288Y-89204800D01*
X116980700Y-89204800D01*
X117024894Y-89223106D01*
G37*
G04 #@! TD.AperFunction*
G04 #@! TA.AperFunction,Conductor*
G36*
X97924094Y-90467706D02*
G01*
X97942400Y-90511900D01*
X97942400Y-91155067D01*
X97938871Y-91172809D01*
X97938899Y-91172815D01*
X97930300Y-91216042D01*
X97930300Y-92241839D01*
X97911994Y-92286033D01*
X97867800Y-92304339D01*
X97855609Y-92303139D01*
X97852483Y-92302517D01*
X97845358Y-92301100D01*
X97845356Y-92301100D01*
X97549637Y-92301100D01*
X97537442Y-92299899D01*
X97533424Y-92299099D01*
X97533423Y-92299099D01*
X97432177Y-92299099D01*
X97432175Y-92299099D01*
X97428158Y-92299899D01*
X97415963Y-92301100D01*
X97120242Y-92301100D01*
X97116224Y-92301899D01*
X97104032Y-92303100D01*
X97066637Y-92303100D01*
X97022443Y-92284794D01*
X96963923Y-92226274D01*
X96849755Y-92168102D01*
X96723200Y-92148058D01*
X96596644Y-92168102D01*
X96596643Y-92168102D01*
X96482476Y-92226274D01*
X96391874Y-92316876D01*
X96333702Y-92431043D01*
X96333702Y-92431044D01*
X96313658Y-92557600D01*
X96333702Y-92684155D01*
X96333702Y-92684156D01*
X96391874Y-92798323D01*
X96482477Y-92888926D01*
X96596645Y-92947098D01*
X96723200Y-92967142D01*
X96849755Y-92947098D01*
X96914426Y-92914145D01*
X96962113Y-92910393D01*
X96998488Y-92941459D01*
X97005300Y-92969834D01*
X97005300Y-93161365D01*
X96986994Y-93205559D01*
X96942800Y-93223865D01*
X96914426Y-93217053D01*
X96849759Y-93184103D01*
X96849755Y-93184102D01*
X96723200Y-93164058D01*
X96596644Y-93184102D01*
X96596643Y-93184102D01*
X96482476Y-93242274D01*
X96391874Y-93332876D01*
X96333702Y-93447043D01*
X96333702Y-93447044D01*
X96313658Y-93573600D01*
X96333702Y-93700155D01*
X96333702Y-93700156D01*
X96369556Y-93770522D01*
X96391874Y-93814323D01*
X96482477Y-93904926D01*
X96596645Y-93963098D01*
X96723200Y-93983142D01*
X96849755Y-93963098D01*
X96963923Y-93904926D01*
X97042443Y-93826406D01*
X97086637Y-93808100D01*
X97533424Y-93808100D01*
X97537441Y-93807301D01*
X97549634Y-93806100D01*
X97845356Y-93806100D01*
X97845358Y-93806100D01*
X97855606Y-93804061D01*
X97902522Y-93813392D01*
X97929099Y-93853165D01*
X97930300Y-93865360D01*
X97930300Y-93891157D01*
X97930299Y-93891157D01*
X97938899Y-93934386D01*
X97938870Y-93934391D01*
X97942400Y-93952131D01*
X97942400Y-95549994D01*
X97924094Y-95594188D01*
X97448388Y-96069894D01*
X97404194Y-96088200D01*
X92772500Y-96088200D01*
X92728306Y-96069894D01*
X92710000Y-96025700D01*
X92710000Y-90511900D01*
X92728306Y-90467706D01*
X92772500Y-90449400D01*
X97879900Y-90449400D01*
X97924094Y-90467706D01*
G37*
G04 #@! TD.AperFunction*
M02*
