M48
; DRILL file {KiCad 7.0.9} date Sat Feb  3 10:08:12 2024
; FORMAT={-:-/ absolute / inch / decimal}
; #@! TF.CreationDate,2024-02-03T10:08:12-06:00
; #@! TF.GenerationSoftware,Kicad,Pcbnew,7.0.9
; #@! TF.FileFunction,Plated,1,4,PTH
FMAT,2
INCH
; #@! TA.AperFunction,Plated,PTH,ViaDrill
T1C0.0059
; #@! TA.AperFunction,Plated,PTH,ComponentDrill
T2C0.0315
; #@! TA.AperFunction,Plated,PTH,ComponentDrill
T3C0.0394
%
G90
G05
T1
X3.787Y-3.51
X3.808Y-3.644
X3.808Y-3.684
X3.813Y-3.577
X3.8598Y-4.1147
X3.8598Y-4.1577
X3.882Y-3.834
X3.891Y-3.621
X3.891Y-3.661
X3.8968Y-4.2817
X3.8968Y-4.3067
X3.897Y-4.231
X3.911Y-3.641
X3.911Y-3.751
X3.92Y-3.834
X3.9218Y-4.7337
X3.9219Y-4.5445
X3.9219Y-4.639
X3.9219Y-4.6705
X3.9219Y-4.702
X3.931Y-3.621
X3.931Y-3.661
X3.935Y-3.751
X3.951Y-3.641
X3.957Y-3.834
X3.971Y-3.621
X3.971Y-3.661
X3.994Y-3.794
X3.994Y-3.87
X4.019Y-4.257
X4.0228Y-4.3837
X4.109Y-3.5762
X4.109Y-3.6162
X4.109Y-3.8232
X4.109Y-3.8632
X4.129Y-3.594
X4.129Y-3.841
X4.1318Y-4.2749
X4.149Y-3.5762
X4.149Y-3.6162
X4.149Y-3.8232
X4.149Y-3.8632
X4.1924Y-3.723
X4.212Y-3.723
X4.2198Y-4.1157
X4.2198Y-4.1587
X4.222Y-3.495
X4.2324Y-3.723
X4.2568Y-4.2827
X4.2568Y-4.3077
X4.257Y-4.231
X4.2818Y-4.7347
X4.2819Y-4.5455
X4.2819Y-4.64
X4.2819Y-4.6715
X4.2819Y-4.703
X4.289Y-3.6704
X4.289Y-3.69
X4.289Y-3.7104
X4.289Y-3.7564
X4.289Y-3.776
X4.289Y-3.7964
X4.318Y-3.647
X4.3304Y-3.542
X4.3304Y-3.582
X4.34Y-3.648
X4.341Y-3.466
X4.3504Y-3.5598
X4.361Y-3.647
X4.3704Y-3.542
X4.3704Y-3.582
X4.373Y-3.382
X4.3828Y-4.3847
X4.383Y-4.257
X4.401Y-3.6704
X4.401Y-3.69
X4.401Y-3.7104
X4.401Y-3.7564
X4.401Y-3.776
X4.401Y-3.7964
X4.414Y-3.382
X4.421Y-3.6704
X4.421Y-3.69
X4.421Y-3.7104
X4.421Y-3.7564
X4.421Y-3.776
X4.421Y-3.7964
X4.462Y-3.465
X4.487Y-3.341
X4.4918Y-4.2749
X4.505Y-4.456
X4.527Y-3.341
X4.53Y-4.274
X4.532Y-3.465
X4.542Y-4.5737
X4.542Y-4.7383
X4.557Y-4.22
X4.559Y-4.428
X4.567Y-4.534
X4.567Y-4.778
X4.569Y-4.2391
X4.583Y-4.456
X4.632Y-3.44
X4.6798Y-4.1147
X4.6798Y-4.1577
X4.6944Y-3.776
X4.699Y-3.919
X4.699Y-3.999
X4.706Y-3.403
X4.709Y-3.821
X4.7168Y-4.2817
X4.7168Y-4.3067
X4.717Y-4.23
X4.73Y-3.908
X4.734Y-3.735
X4.734Y-3.81
X4.734Y-3.831
X4.7344Y-3.9388
X4.7418Y-4.7337
X4.7419Y-4.3788
X4.7419Y-4.5445
X4.7419Y-4.639
X4.7419Y-4.6705
X4.7419Y-4.702
X4.744Y-4.211
X4.7503Y-3.9121
X4.754Y-4.33
X4.7567Y-3.4032
X4.757Y-3.579
X4.7632Y-3.818
X4.766Y-4.211
X4.7675Y-3.852
X4.77Y-3.919
X4.77Y-3.999
X4.7704Y-3.7581
X4.7797Y-3.3782
X4.78Y-3.554
X4.7845Y-3.8285
X4.8Y-4.32
X4.8059Y-3.8104
X4.806Y-3.735
X4.806Y-3.906
X4.8064Y-3.9388
X4.8077Y-3.4322
X4.808Y-3.608
X4.808Y-3.831
X4.817Y-4.165
X4.826Y-4.211
X4.8297Y-3.4032
X4.83Y-3.579
X4.8369Y-4.3577
X4.842Y-3.919
X4.842Y-3.999
X4.8424Y-3.7581
X4.8424Y-3.8491
X4.8428Y-4.3837
X4.843Y-4.257
X4.8531Y-3.4207
X4.8534Y-3.5966
X4.8784Y-3.9388
X4.891Y-3.671
X4.897Y-4.176
X4.9518Y-4.2749
X4.955Y-3.841
X4.9801Y-3.8408
X4.9804Y-3.8778
X4.981Y-3.768
X5.0023Y-3.884
X5.026Y-3.908
X5.0398Y-4.1157
X5.0398Y-4.1587
X5.0404Y-3.7881
X5.051Y-3.846
X5.063Y-3.952
X5.0768Y-4.2827
X5.0768Y-4.3077
X5.077Y-4.231
X5.078Y-3.809
X5.1018Y-4.7347
X5.1019Y-4.5455
X5.1019Y-4.64
X5.1019Y-4.6715
X5.1019Y-4.703
X5.115Y-3.732
X5.115Y-3.812
X5.1514Y-3.7842
X5.1514Y-3.8275
X5.202Y-4.257
X5.2028Y-4.3847
X5.3118Y-4.2749
X5.317Y-3.835
X5.3252Y-4.456
X5.349Y-4.271
X5.354Y-3.97
X5.3622Y-4.5737
X5.3622Y-4.7383
X5.3697Y-3.7988
X5.3737Y-3.9098
X5.3764Y-4.22
X5.3792Y-4.428
X5.3872Y-4.534
X5.3872Y-4.778
X5.3884Y-4.2391
X5.397Y-3.835
X5.397Y-3.872
X5.4031Y-4.456
X5.413Y-3.7988
X5.429Y-3.965
X5.452Y-3.924
X5.4728Y-3.982
X5.4998Y-4.1157
X5.4998Y-4.1587
X5.5176Y-3.919
X5.5176Y-3.999
X5.5276Y-3.821
X5.5368Y-4.2827
X5.5368Y-4.3077
X5.537Y-4.231
X5.5486Y-3.908
X5.5526Y-3.735
X5.5526Y-3.81
X5.5526Y-3.831
X5.553Y-3.9388
X5.5613Y-4.3788
X5.5618Y-4.7347
X5.5619Y-4.5455
X5.5619Y-4.64
X5.5619Y-4.6715
X5.5619Y-4.703
X5.5634Y-4.211
X5.5689Y-3.9121
X5.5734Y-4.33
X5.584Y-3.815
X5.5854Y-4.211
X5.5861Y-3.852
X5.5886Y-3.919
X5.5886Y-3.999
X5.589Y-3.7581
X5.6018Y-3.8272
X5.6194Y-4.32
X5.6245Y-3.8104
X5.6246Y-3.735
X5.6246Y-3.906
X5.625Y-3.9388
X5.6266Y-3.831
X5.6364Y-4.165
X5.6454Y-4.211
X5.6562Y-4.3577
X5.6606Y-3.919
X5.6606Y-3.999
X5.661Y-3.7581
X5.661Y-3.8491
X5.662Y-4.257
X5.6628Y-4.3847
X5.697Y-3.9388
X5.7164Y-4.176
X5.772Y-4.2749
X5.848Y-3.835
X5.853Y-3.962
X5.86Y-4.116
X5.86Y-4.159
X5.875Y-3.888
X5.897Y-4.231
X5.897Y-4.283
X5.897Y-4.308
X5.922Y-4.735
X5.9221Y-4.5458
X5.9221Y-4.6403
X5.9221Y-4.6718
X5.9221Y-4.7033
X5.931Y-3.9518
X5.951Y-3.752
X5.9514Y-3.9518
X5.956Y-4.128
X5.971Y-3.9518
X6.003Y-3.79
X6.022Y-4.257
X6.023Y-4.385
X6.033Y-3.79
X6.048Y-4.128
X6.059Y-3.854
X6.089Y-3.93
X6.089Y-3.973
X6.1318Y-4.2749
X6.136Y-3.957
X6.136Y-3.999
X6.169Y-4.419
X6.193Y-4.394
X6.221Y-4.443
X6.2427Y-4.4154
X6.2664Y-4.4366
X6.273Y-3.648
X6.312Y-3.783
X6.3277Y-3.6118
X6.3314Y-4.2369
X6.3317Y-3.7228
X6.348Y-4.134
X6.353Y-3.648
X6.353Y-3.685
X6.366Y-4.183
X6.366Y-4.258
X6.371Y-3.6118
X6.385Y-3.781
X6.385Y-3.803
X6.39Y-3.714
X6.402Y-4.16
X6.425Y-3.784
X6.44Y-3.7627
X6.46Y-3.738
T2
X3.8525Y-4.4564
X3.8525Y-4.5564
X3.8525Y-4.6564
X3.8525Y-4.7564
X3.8525Y-4.8564
X4.0525Y-4.4564
X4.0525Y-4.5564
X4.0525Y-4.6564
X4.0525Y-4.7564
X4.0525Y-4.8564
X4.2125Y-4.4564
X4.2125Y-4.5564
X4.2125Y-4.6564
X4.2125Y-4.7564
X4.2125Y-4.8564
X4.4125Y-4.4564
X4.4125Y-4.5564
X4.4125Y-4.6564
X4.4125Y-4.7564
X4.4125Y-4.8564
X4.6725Y-4.4564
X4.6725Y-4.5564
X4.6725Y-4.6564
X4.6725Y-4.7564
X4.6725Y-4.8564
X4.8725Y-4.4564
X4.8725Y-4.5564
X4.8725Y-4.6564
X4.8725Y-4.7564
X4.8725Y-4.8564
X5.0325Y-4.4564
X5.0325Y-4.5564
X5.0325Y-4.6564
X5.0325Y-4.7564
X5.0325Y-4.8564
X5.2325Y-4.4564
X5.2325Y-4.5564
X5.2325Y-4.6564
X5.2325Y-4.7564
X5.2325Y-4.8564
X5.4925Y-4.4564
X5.4925Y-4.5564
X5.4925Y-4.6564
X5.4925Y-4.7564
X5.4925Y-4.8564
X5.6925Y-4.4564
X5.6925Y-4.5564
X5.6925Y-4.6564
X5.6925Y-4.7564
X5.6925Y-4.8564
X5.8525Y-4.4564
X5.8525Y-4.5564
X5.8525Y-4.6564
X5.8525Y-4.7564
X5.8525Y-4.8564
X6.0525Y-4.4564
X6.0525Y-4.5564
X6.0525Y-4.6564
X6.0525Y-4.7564
X6.0525Y-4.8564
T3
X3.7901Y-3.3348
T3
G00X3.4842Y-3.6735
M15
G01X3.4842Y-3.7522
M16
G05
G00X3.5629Y-3.8979
M15
G01X3.6417Y-3.8979
M16
G05
G00X3.7204Y-3.6735
M15
G01X3.7204Y-3.7522
M16
G05
T0
M30
