G04 #@! TF.GenerationSoftware,KiCad,Pcbnew,7.0.9*
G04 #@! TF.CreationDate,2024-02-03T10:08:10-06:00*
G04 #@! TF.ProjectId,Stopwatch,53746f70-7761-4746-9368-2e6b69636164,rev?*
G04 #@! TF.SameCoordinates,Original*
G04 #@! TF.FileFunction,Copper,L4,Bot*
G04 #@! TF.FilePolarity,Positive*
%FSLAX46Y46*%
G04 Gerber Fmt 4.6, Leading zero omitted, Abs format (unit mm)*
G04 Created by KiCad (PCBNEW 7.0.9) date 2024-02-03 10:08:10*
%MOMM*%
%LPD*%
G01*
G04 APERTURE LIST*
G04 Aperture macros list*
%AMRoundRect*
0 Rectangle with rounded corners*
0 $1 Rounding radius*
0 $2 $3 $4 $5 $6 $7 $8 $9 X,Y pos of 4 corners*
0 Add a 4 corners polygon primitive as box body*
4,1,4,$2,$3,$4,$5,$6,$7,$8,$9,$2,$3,0*
0 Add four circle primitives for the rounded corners*
1,1,$1+$1,$2,$3*
1,1,$1+$1,$4,$5*
1,1,$1+$1,$6,$7*
1,1,$1+$1,$8,$9*
0 Add four rect primitives between the rounded corners*
20,1,$1+$1,$2,$3,$4,$5,0*
20,1,$1+$1,$4,$5,$6,$7,0*
20,1,$1+$1,$6,$7,$8,$9,0*
20,1,$1+$1,$8,$9,$2,$3,0*%
G04 Aperture macros list end*
%ADD10C,0.150000*%
G04 #@! TA.AperFunction,NonConductor*
%ADD11C,0.150000*%
G04 #@! TD*
G04 #@! TA.AperFunction,ComponentPad*
%ADD12R,1.700000X1.700000*%
G04 #@! TD*
G04 #@! TA.AperFunction,ComponentPad*
%ADD13R,1.600000X1.600000*%
G04 #@! TD*
G04 #@! TA.AperFunction,ComponentPad*
%ADD14C,1.600000*%
G04 #@! TD*
G04 #@! TA.AperFunction,ComponentPad*
%ADD15R,3.500000X3.500000*%
G04 #@! TD*
G04 #@! TA.AperFunction,SMDPad,CuDef*
%ADD16R,0.600000X0.400000*%
G04 #@! TD*
G04 #@! TA.AperFunction,SMDPad,CuDef*
%ADD17R,0.500000X0.600000*%
G04 #@! TD*
G04 #@! TA.AperFunction,SMDPad,CuDef*
%ADD18R,0.570000X0.200000*%
G04 #@! TD*
G04 #@! TA.AperFunction,SMDPad,CuDef*
%ADD19R,0.520000X0.200000*%
G04 #@! TD*
G04 #@! TA.AperFunction,SMDPad,CuDef*
%ADD20R,0.600000X0.500000*%
G04 #@! TD*
G04 #@! TA.AperFunction,SMDPad,CuDef*
%ADD21R,1.500000X0.450000*%
G04 #@! TD*
G04 #@! TA.AperFunction,SMDPad,CuDef*
%ADD22RoundRect,0.112500X-0.187500X-0.112500X0.187500X-0.112500X0.187500X0.112500X-0.187500X0.112500X0*%
G04 #@! TD*
G04 #@! TA.AperFunction,SMDPad,CuDef*
%ADD23R,0.400000X0.600000*%
G04 #@! TD*
G04 #@! TA.AperFunction,SMDPad,CuDef*
%ADD24RoundRect,0.250000X-1.025000X0.787500X-1.025000X-0.787500X1.025000X-0.787500X1.025000X0.787500X0*%
G04 #@! TD*
G04 #@! TA.AperFunction,SMDPad,CuDef*
%ADD25R,0.850000X0.300000*%
G04 #@! TD*
G04 #@! TA.AperFunction,SMDPad,CuDef*
%ADD26R,0.300000X0.850000*%
G04 #@! TD*
G04 #@! TA.AperFunction,SMDPad,CuDef*
%ADD27R,2.050000X1.050000*%
G04 #@! TD*
G04 #@! TA.AperFunction,SMDPad,CuDef*
%ADD28R,2.500000X1.800000*%
G04 #@! TD*
G04 #@! TA.AperFunction,ViaPad*
%ADD29C,0.400000*%
G04 #@! TD*
G04 #@! TA.AperFunction,Conductor*
%ADD30C,0.254000*%
G04 #@! TD*
G04 #@! TA.AperFunction,Conductor*
%ADD31C,0.635000*%
G04 #@! TD*
G04 #@! TA.AperFunction,Conductor*
%ADD32C,0.088900*%
G04 #@! TD*
G04 APERTURE END LIST*
D10*
D11*
X86775847Y-116563950D02*
X86109180Y-116563950D01*
X87156800Y-116325855D02*
X86442514Y-116087760D01*
X86442514Y-116087760D02*
X86442514Y-116706807D01*
D12*
X96269800Y-84705000D03*
D13*
X118681400Y-113192800D03*
D14*
X118681400Y-115732800D03*
X118681400Y-118272800D03*
X118681400Y-120812800D03*
X118681400Y-123352800D03*
X123761400Y-123352800D03*
X123761400Y-120812800D03*
X123761400Y-118272800D03*
X123761400Y-115732800D03*
X123761400Y-113192800D03*
D15*
X94498000Y-94306200D03*
X88498000Y-94306200D03*
X91498000Y-99006200D03*
D13*
X127825400Y-113192800D03*
D14*
X127825400Y-115732800D03*
X127825400Y-118272800D03*
X127825400Y-120812800D03*
X127825400Y-123352800D03*
X132905400Y-123352800D03*
X132905400Y-120812800D03*
X132905400Y-118272800D03*
X132905400Y-115732800D03*
X132905400Y-113192800D03*
D13*
X97853400Y-113192800D03*
D14*
X97853400Y-115732800D03*
X97853400Y-118272800D03*
X97853400Y-120812800D03*
X97853400Y-123352800D03*
X102933400Y-123352800D03*
X102933400Y-120812800D03*
X102933400Y-118272800D03*
X102933400Y-115732800D03*
X102933400Y-113192800D03*
D13*
X148653400Y-113192800D03*
D14*
X148653400Y-115732800D03*
X148653400Y-118272800D03*
X148653400Y-120812800D03*
X148653400Y-123352800D03*
X153733400Y-123352800D03*
X153733400Y-120812800D03*
X153733400Y-118272800D03*
X153733400Y-115732800D03*
X153733400Y-113192800D03*
D13*
X139509400Y-113192800D03*
D14*
X139509400Y-115732800D03*
X139509400Y-118272800D03*
X139509400Y-120812800D03*
X139509400Y-123352800D03*
X144589400Y-123352800D03*
X144589400Y-120812800D03*
X144589400Y-118272800D03*
X144589400Y-115732800D03*
X144589400Y-113192800D03*
D13*
X106997400Y-113192800D03*
D14*
X106997400Y-115732800D03*
X106997400Y-118272800D03*
X106997400Y-120812800D03*
X106997400Y-123352800D03*
X112077400Y-123352800D03*
X112077400Y-120812800D03*
X112077400Y-118272800D03*
X112077400Y-115732800D03*
X112077400Y-113192800D03*
D16*
X121168000Y-95456400D03*
X121168000Y-96356400D03*
D17*
X120253600Y-97667800D03*
X120253600Y-98767800D03*
D16*
X125785190Y-106688000D03*
X125785190Y-107588000D03*
X153222800Y-96980400D03*
X153222800Y-97880400D03*
D18*
X136609500Y-112833200D03*
X136609500Y-113183200D03*
X136609500Y-113533200D03*
D19*
X135879500Y-113533200D03*
X135879500Y-113183200D03*
X135879500Y-112833200D03*
D16*
X104957190Y-106688000D03*
X104957190Y-107588000D03*
X143799400Y-95431000D03*
X143799400Y-96331000D03*
D17*
X106553000Y-105655200D03*
X106553000Y-104555200D03*
D20*
X160724600Y-91740800D03*
X161824600Y-91740800D03*
D21*
X112449400Y-106818000D03*
X112449400Y-107468000D03*
X112449400Y-108118000D03*
X112449400Y-108768000D03*
X112449400Y-109418000D03*
X112449400Y-110068000D03*
X112449400Y-110718000D03*
X112449400Y-111368000D03*
X106549400Y-111368000D03*
X106549400Y-110718000D03*
X106549400Y-110068000D03*
X106549400Y-109418000D03*
X106549400Y-108768000D03*
X106549400Y-108118000D03*
X106549400Y-107468000D03*
X106549400Y-106818000D03*
D17*
X129931000Y-96118400D03*
X129931000Y-97218400D03*
D22*
X116461800Y-86432200D03*
X118561800Y-86432200D03*
D17*
X130845400Y-96118400D03*
X130845400Y-97218400D03*
X142885000Y-97660600D03*
X142885000Y-98760600D03*
D16*
X115366600Y-116173200D03*
X115366600Y-115273200D03*
D17*
X122082400Y-95356400D03*
X122082400Y-96456400D03*
D16*
X136194600Y-116173200D03*
X136194600Y-115273200D03*
D20*
X136391400Y-96490600D03*
X137491400Y-96490600D03*
D21*
X144961400Y-106818000D03*
X144961400Y-107468000D03*
X144961400Y-108118000D03*
X144961400Y-108768000D03*
X144961400Y-109418000D03*
X144961400Y-110068000D03*
X144961400Y-110718000D03*
X144961400Y-111368000D03*
X139061400Y-111368000D03*
X139061400Y-110718000D03*
X139061400Y-110068000D03*
X139061400Y-109418000D03*
X139061400Y-108768000D03*
X139061400Y-108118000D03*
X139061400Y-107468000D03*
X139061400Y-106818000D03*
D20*
X127372200Y-98497200D03*
X126272200Y-98497200D03*
D21*
X154105400Y-106818000D03*
X154105400Y-107468000D03*
X154105400Y-108118000D03*
X154105400Y-108768000D03*
X154105400Y-109418000D03*
X154105400Y-110068000D03*
X154105400Y-110718000D03*
X154105400Y-111368000D03*
X148205400Y-111368000D03*
X148205400Y-110718000D03*
X148205400Y-110068000D03*
X148205400Y-109418000D03*
X148205400Y-108768000D03*
X148205400Y-108118000D03*
X148205400Y-107468000D03*
X148205400Y-106818000D03*
D16*
X123277600Y-91352600D03*
X123277600Y-90452600D03*
X149743000Y-97880400D03*
X149743000Y-96980400D03*
D18*
X115794100Y-112833200D03*
X115794100Y-113183200D03*
X115794100Y-113533200D03*
D19*
X115064100Y-113533200D03*
X115064100Y-113183200D03*
X115064100Y-112833200D03*
D17*
X119339200Y-99946600D03*
X119339200Y-101046600D03*
X122996800Y-99946600D03*
X122996800Y-101046600D03*
D23*
X160824600Y-94560200D03*
X161724600Y-94560200D03*
D16*
X120253600Y-100046600D03*
X120253600Y-100946600D03*
D17*
X142885000Y-95331000D03*
X142885000Y-96431000D03*
D20*
X161824600Y-95500000D03*
X160724600Y-95500000D03*
D16*
X143799400Y-97760600D03*
X143799400Y-98660600D03*
X115366600Y-120353200D03*
X115366600Y-121253200D03*
D20*
X137491400Y-100834000D03*
X136391400Y-100834000D03*
D16*
X125882400Y-97118400D03*
X125882400Y-96218400D03*
D23*
X136491400Y-99310000D03*
X137391400Y-99310000D03*
D16*
X97469800Y-92586200D03*
X97469800Y-93486200D03*
D21*
X103305400Y-106818000D03*
X103305400Y-107468000D03*
X103305400Y-108118000D03*
X103305400Y-108768000D03*
X103305400Y-109418000D03*
X103305400Y-110068000D03*
X103305400Y-110718000D03*
X103305400Y-111368000D03*
X97405400Y-111368000D03*
X97405400Y-110718000D03*
X97405400Y-110068000D03*
X97405400Y-109418000D03*
X97405400Y-108768000D03*
X97405400Y-108118000D03*
X97405400Y-107468000D03*
X97405400Y-106818000D03*
D16*
X160817400Y-107617400D03*
X160817400Y-106717400D03*
D17*
X141970600Y-99946600D03*
X141970600Y-101046600D03*
D16*
X122082400Y-100046600D03*
X122082400Y-100946600D03*
D20*
X122303600Y-86432200D03*
X121203600Y-86432200D03*
D16*
X142885000Y-100046600D03*
X142885000Y-100946600D03*
D24*
X104876600Y-91324700D03*
X104876600Y-97549700D03*
D23*
X137391400Y-98344800D03*
X136491400Y-98344800D03*
D17*
X122082400Y-97667800D03*
X122082400Y-98767800D03*
X143799400Y-99939400D03*
X143799400Y-101039400D03*
D16*
X121168000Y-97767800D03*
X121168000Y-98667800D03*
X134929190Y-106688000D03*
X134929190Y-107588000D03*
D17*
X141056200Y-95323800D03*
X141056200Y-96423800D03*
D16*
X123277600Y-86882200D03*
X123277600Y-85982200D03*
D21*
X133277400Y-106818000D03*
X133277400Y-107468000D03*
X133277400Y-108118000D03*
X133277400Y-108768000D03*
X133277400Y-109418000D03*
X133277400Y-110068000D03*
X133277400Y-110718000D03*
X133277400Y-111368000D03*
X127377400Y-111368000D03*
X127377400Y-110718000D03*
X127377400Y-110068000D03*
X127377400Y-109418000D03*
X127377400Y-108768000D03*
X127377400Y-108118000D03*
X127377400Y-107468000D03*
X127377400Y-106818000D03*
D16*
X141970600Y-97760600D03*
X141970600Y-98660600D03*
D20*
X160724600Y-92655200D03*
X161824600Y-92655200D03*
D17*
X114971428Y-86982200D03*
X114971428Y-85882200D03*
D16*
X128026000Y-96218400D03*
X128026000Y-97118400D03*
X97469800Y-90859000D03*
X97469800Y-91759000D03*
X114101190Y-106688000D03*
X114101190Y-107588000D03*
X152232200Y-96980400D03*
X152232200Y-97880400D03*
X122996800Y-97767800D03*
X122996800Y-98667800D03*
D20*
X122303600Y-90902600D03*
X121203600Y-90902600D03*
D17*
X127381000Y-105655200D03*
X127381000Y-104555200D03*
X161696400Y-107687200D03*
X161696400Y-106587200D03*
D16*
X97469800Y-94288000D03*
X97469800Y-95188000D03*
X113980828Y-86882200D03*
X113980828Y-85982200D03*
D25*
X152865400Y-100626800D03*
D26*
X152415400Y-101576800D03*
X151915400Y-101576800D03*
X151415400Y-101576800D03*
X150915400Y-101576800D03*
X150415400Y-101576800D03*
X149915400Y-101576800D03*
D25*
X149465400Y-100626800D03*
X149465400Y-100126800D03*
D26*
X149915400Y-99176800D03*
X150415400Y-99176800D03*
X150915400Y-99176800D03*
X151415400Y-99176800D03*
X151915400Y-99176800D03*
X152415400Y-99176800D03*
D25*
X152865400Y-100126800D03*
D27*
X151165400Y-100376800D03*
D17*
X140141800Y-99939400D03*
X140141800Y-101039400D03*
D16*
X141970600Y-95423800D03*
X141970600Y-96323800D03*
D17*
X127086200Y-97218400D03*
X127086200Y-96118400D03*
D16*
X146613190Y-106688000D03*
X146613190Y-107588000D03*
D17*
X148209000Y-105655200D03*
X148209000Y-104555200D03*
D20*
X158192400Y-112238600D03*
X157092400Y-112238600D03*
D16*
X144713800Y-100039400D03*
X144713800Y-100939400D03*
D17*
X163195000Y-95369200D03*
X163195000Y-96469200D03*
X139065000Y-105655200D03*
X139065000Y-104555200D03*
D16*
X155757190Y-106688000D03*
X155757190Y-107588000D03*
D17*
X120253600Y-95356400D03*
X120253600Y-96456400D03*
D16*
X122996800Y-95456400D03*
X122996800Y-96356400D03*
D17*
X118237000Y-105655200D03*
X118237000Y-104555200D03*
X121168000Y-99946600D03*
X121168000Y-101046600D03*
D23*
X114430828Y-87956200D03*
X113530828Y-87956200D03*
X161724600Y-96545400D03*
X160824600Y-96545400D03*
X161724600Y-93595000D03*
X160824600Y-93595000D03*
D16*
X159166400Y-112688600D03*
X159166400Y-111788600D03*
X150759000Y-97880400D03*
X150759000Y-96980400D03*
X136194600Y-120353200D03*
X136194600Y-121253200D03*
D28*
X93500800Y-90521600D03*
X89500800Y-90521600D03*
D16*
X128991200Y-97118400D03*
X128991200Y-96218400D03*
X123911200Y-100046600D03*
X123911200Y-100946600D03*
X141056200Y-100039400D03*
X141056200Y-100939400D03*
D21*
X124133400Y-106818000D03*
X124133400Y-107468000D03*
X124133400Y-108118000D03*
X124133400Y-108768000D03*
X124133400Y-109418000D03*
X124133400Y-110068000D03*
X124133400Y-110718000D03*
X124133400Y-111368000D03*
X118233400Y-111368000D03*
X118233400Y-110718000D03*
X118233400Y-110068000D03*
X118233400Y-109418000D03*
X118233400Y-108768000D03*
X118233400Y-108118000D03*
X118233400Y-107468000D03*
X118233400Y-106818000D03*
D17*
X141056200Y-97660600D03*
X141056200Y-98760600D03*
X97409000Y-105655200D03*
X97409000Y-104555200D03*
X154111800Y-99826800D03*
X154111800Y-100926800D03*
D20*
X136391400Y-97405000D03*
X137491400Y-97405000D03*
D29*
X96850200Y-90855800D03*
X104876600Y-97561400D03*
X110769400Y-92633800D03*
X146608800Y-108581300D03*
X120142000Y-99263200D03*
X109993400Y-90982800D03*
X98039610Y-104513000D03*
X108940600Y-93726000D03*
X150647400Y-100376800D03*
X162610800Y-105664000D03*
X120243600Y-96774000D03*
X121158000Y-101574600D03*
X142863411Y-96783510D03*
X152984200Y-111379000D03*
X148539200Y-97409000D03*
X155854400Y-100507800D03*
X102179810Y-111345600D03*
X111323810Y-111371000D03*
X114092410Y-108581300D03*
X153898600Y-97891600D03*
X151663400Y-100376800D03*
X126502000Y-98497200D03*
X142865000Y-99212400D03*
X104368600Y-98124200D03*
X114985800Y-84861400D03*
X118867610Y-104513000D03*
X108940600Y-95910400D03*
X161366200Y-92659200D03*
X96189800Y-89154000D03*
X139695610Y-104538400D03*
X107238800Y-88773000D03*
X162306000Y-94335600D03*
X160324800Y-96088200D03*
X108940600Y-94244000D03*
X156692600Y-112242600D03*
X117652800Y-87376000D03*
X108940600Y-93228000D03*
X108940600Y-96428400D03*
X137239900Y-113182400D03*
X110261400Y-88036400D03*
X120827800Y-90906600D03*
X122986800Y-101574600D03*
X110501400Y-90420000D03*
X148666200Y-100634800D03*
X151282400Y-104851200D03*
X125776410Y-108581300D03*
X105384600Y-97108200D03*
X143835810Y-111371000D03*
X123007810Y-111345600D03*
X105384600Y-98124200D03*
X120819900Y-86440200D03*
X122072400Y-99212400D03*
X119354600Y-101574600D03*
X104948410Y-108581300D03*
X127660400Y-99263200D03*
X99949000Y-95275400D03*
X129921000Y-96824800D03*
X116408200Y-113182400D03*
X154660600Y-100914200D03*
X106984800Y-94564200D03*
X140934600Y-99263200D03*
X163195000Y-96113600D03*
X128295400Y-97688400D03*
X128011610Y-104538400D03*
X138480800Y-99669600D03*
X107183610Y-104538400D03*
X101447600Y-98298000D03*
X104368600Y-97108200D03*
X126517400Y-95707200D03*
X151165400Y-100376800D03*
X141036200Y-96774000D03*
X106486800Y-94564200D03*
X161696400Y-106248200D03*
X148844000Y-104546400D03*
X122070811Y-96783510D03*
X107502800Y-94564200D03*
X109993400Y-89966800D03*
X155748410Y-108581300D03*
X111009400Y-90982800D03*
X140147200Y-101574600D03*
X143779400Y-101574600D03*
X135991600Y-100838000D03*
X108940600Y-95412400D03*
X141950600Y-101574600D03*
X164084000Y-94945200D03*
X137083800Y-97409000D03*
X111009400Y-89966800D03*
X134920410Y-108581300D03*
X132151810Y-111371000D03*
X104368600Y-90834400D03*
X104876600Y-91287600D03*
X104368600Y-91850400D03*
X105384600Y-91850400D03*
X105384600Y-90834400D03*
X99339400Y-95275400D03*
X98602800Y-97383902D03*
X98831400Y-91973400D03*
X100863400Y-92989400D03*
X100355400Y-92481400D03*
X99847400Y-91973400D03*
X99847400Y-92989400D03*
X100507800Y-97383902D03*
X100863400Y-91973400D03*
X99568000Y-97383902D03*
X99339400Y-92481400D03*
X98831400Y-92989400D03*
X130845400Y-96118400D03*
X130845400Y-97218400D03*
X136391400Y-96490600D03*
X137491400Y-96490600D03*
X160724600Y-91740800D03*
X161824600Y-91740800D03*
X128026000Y-96218400D03*
X136491400Y-99310000D03*
X160824600Y-94560200D03*
X112293400Y-93726000D03*
X135259500Y-113181600D03*
X140147200Y-99542600D03*
X122072400Y-94869000D03*
X112293400Y-95910400D03*
X116001800Y-115163600D03*
X121412000Y-90271600D03*
X136834300Y-121360400D03*
X120243600Y-97307400D03*
X142865000Y-94869000D03*
X122674100Y-86440200D03*
X122682000Y-90906600D03*
X148844000Y-105638600D03*
X114427000Y-113182400D03*
X155854400Y-101574600D03*
X126493679Y-97557220D03*
X141036200Y-94869000D03*
X137896600Y-100711000D03*
X111074200Y-85902800D03*
X120243600Y-94869000D03*
X112293400Y-96428400D03*
X154660600Y-99822000D03*
X139695610Y-105630600D03*
X98039610Y-105605200D03*
X142915800Y-97307400D03*
X118867610Y-105605200D03*
X121158000Y-99542600D03*
X162179000Y-96037400D03*
X157302200Y-111607600D03*
X119532400Y-86436200D03*
X119354600Y-99542600D03*
X111785400Y-93726000D03*
X112115600Y-85902800D03*
X153619200Y-104851200D03*
X112293400Y-94244000D03*
X112293400Y-93228000D03*
X111785400Y-94244000D03*
X107183610Y-105630600D03*
X141950600Y-99542600D03*
X110236000Y-92659200D03*
X163576000Y-95571702D03*
X127057376Y-98654360D03*
X121404100Y-85805200D03*
X161696400Y-108153200D03*
X141036200Y-97307400D03*
X111785400Y-95412400D03*
X111785400Y-95910400D03*
X122123200Y-97307400D03*
X159334200Y-92659200D03*
X112293400Y-95412400D03*
X115798600Y-112471200D03*
X135051800Y-97409000D03*
X111785400Y-96428400D03*
X158563435Y-112150499D03*
X128011610Y-105630600D03*
X143779400Y-99542600D03*
X136834300Y-115162800D03*
X116001800Y-121361200D03*
X129921000Y-94792800D03*
X136631100Y-112470400D03*
X111785400Y-93228000D03*
X122986800Y-99542600D03*
X123269700Y-86886200D03*
X136199100Y-116172400D03*
X136199100Y-120352400D03*
X123277600Y-91352600D03*
X159166400Y-112688600D03*
X115366600Y-116173200D03*
X115366600Y-120353200D03*
X101447600Y-96367600D03*
X115112800Y-88011000D03*
X124231400Y-93243400D03*
X151155400Y-95300800D03*
X153238200Y-96266000D03*
X108127800Y-107467400D03*
X141833600Y-96901000D03*
X128600200Y-100380800D03*
X139008650Y-101142800D03*
X98983800Y-107467400D03*
X120986000Y-96977200D03*
X119237650Y-95910400D03*
X152476200Y-96266000D03*
X149225000Y-98755200D03*
X113334800Y-88011000D03*
X109677200Y-92633800D03*
X113969800Y-84861400D03*
X160817400Y-107617400D03*
X96723200Y-92557600D03*
X96723200Y-93573600D03*
X161239200Y-105003600D03*
X122115300Y-87176800D03*
X122123200Y-91643200D03*
X158013400Y-112852200D03*
X128981200Y-96748600D03*
X137083800Y-98348800D03*
X161366200Y-93599000D03*
X125857000Y-97561400D03*
X162179000Y-96596200D03*
X149783800Y-107467400D03*
X140639800Y-107467400D03*
X143789400Y-95456400D03*
X119811800Y-107442000D03*
X122996800Y-95456400D03*
X128955800Y-107467400D03*
X132130800Y-108127800D03*
X123012200Y-108127800D03*
X111328200Y-108127800D03*
X152958800Y-108127800D03*
X115062000Y-108559600D03*
X135864600Y-108483400D03*
X102082600Y-108127800D03*
X143814800Y-108127800D03*
X141046200Y-100046600D03*
X141450878Y-99366456D03*
X142875000Y-100046600D03*
X144703800Y-100046600D03*
X141888100Y-97840300D03*
X140401200Y-97053400D03*
X142285800Y-97210800D03*
X143789400Y-97767800D03*
X141960600Y-95456400D03*
X120253600Y-100046600D03*
X120658278Y-99366456D03*
X122082400Y-100046600D03*
X123911200Y-100046600D03*
X119608600Y-97053400D03*
X121095500Y-97840300D03*
X121526300Y-97243900D03*
X122996800Y-97767800D03*
X121168000Y-95456400D03*
X150420600Y-115463200D03*
X149783800Y-109423200D03*
X149783800Y-108788200D03*
X150420600Y-117863200D03*
X150420600Y-118663200D03*
X150420600Y-119463200D03*
X150418800Y-120269000D03*
X141272210Y-115455200D03*
X141868800Y-106959400D03*
X141563310Y-109982000D03*
X141256610Y-111220400D03*
X140635410Y-109415200D03*
X136560200Y-107188000D03*
X141310000Y-106959400D03*
X140635410Y-108780200D03*
X136865000Y-107674300D03*
X141272210Y-117855200D03*
X143164200Y-105791000D03*
X141272210Y-118655200D03*
X141272210Y-119455200D03*
X143392800Y-106959400D03*
X145196200Y-106070400D03*
X141270410Y-120261000D03*
X142732400Y-109728000D03*
X143668410Y-110684600D03*
X129588210Y-115455200D03*
X128951410Y-109415200D03*
X128951410Y-108780200D03*
X129588210Y-117855200D03*
X129588210Y-118655200D03*
X129588210Y-119455200D03*
X129586410Y-120261000D03*
X120444210Y-111220400D03*
X120444210Y-115429800D03*
X121056400Y-106959400D03*
X120750910Y-109982000D03*
X115747800Y-107188000D03*
X119807410Y-109389800D03*
X120497600Y-106959400D03*
X119807410Y-108754800D03*
X116052600Y-107674300D03*
X120444210Y-117829800D03*
X122351800Y-105791000D03*
X120444210Y-118629800D03*
X120444210Y-119429800D03*
X122580400Y-106959400D03*
X122856010Y-110684600D03*
X121920000Y-109728000D03*
X124383800Y-106070400D03*
X120442410Y-120235600D03*
X108760210Y-115455200D03*
X108123410Y-109415200D03*
X108123410Y-108780200D03*
X108760210Y-117855200D03*
X108760210Y-118655200D03*
X108760210Y-119455200D03*
X108758410Y-120261000D03*
X99616210Y-115429800D03*
X98979410Y-109389800D03*
X98979410Y-108754800D03*
X99616210Y-117829800D03*
X99616210Y-118629800D03*
X99616210Y-119429800D03*
X99614410Y-120235600D03*
D30*
X97469800Y-90859000D02*
X96853400Y-90859000D01*
D31*
X93500800Y-91545000D02*
X94498000Y-92542200D01*
X94498000Y-92542200D02*
X94498000Y-94306200D01*
D30*
X96853400Y-90859000D02*
X96850200Y-90855800D01*
D31*
X93500800Y-90521600D02*
X93500800Y-91545000D01*
D32*
X122986800Y-101056600D02*
X122996800Y-101046600D01*
X122082400Y-99202400D02*
X122072400Y-99212400D01*
D30*
X155042200Y-107468000D02*
X155168600Y-107594400D01*
X104952800Y-107588000D02*
X104952800Y-108576910D01*
D32*
X142775000Y-98667800D02*
X142875000Y-98767800D01*
X142863411Y-96783510D02*
X142863411Y-96467989D01*
X160824600Y-96545400D02*
X160426400Y-96545400D01*
D30*
X149465400Y-100626800D02*
X148674200Y-100626800D01*
X134924800Y-107588000D02*
X134924800Y-108576910D01*
D32*
X126817400Y-96118400D02*
X126717400Y-96218400D01*
D30*
X155175000Y-107588000D02*
X155757190Y-107588000D01*
X111334810Y-111360000D02*
X111323810Y-111371000D01*
X154105400Y-111368000D02*
X152995200Y-111368000D01*
D32*
X141960600Y-96356400D02*
X142775000Y-96356400D01*
X160426400Y-96545400D02*
X160324800Y-96443800D01*
X142875000Y-98767800D02*
X142875000Y-99202400D01*
X127000000Y-95707200D02*
X127086200Y-95793400D01*
X121158000Y-101056600D02*
X121168000Y-101046600D01*
X122070811Y-96783510D02*
X122070811Y-96467989D01*
D30*
X160817400Y-106717400D02*
X161278000Y-106717400D01*
D32*
X141036200Y-96466400D02*
X141046200Y-96456400D01*
X136491400Y-98344800D02*
X136491400Y-97950600D01*
D30*
X146613190Y-108576910D02*
X146608800Y-108581300D01*
D32*
X129416200Y-96218400D02*
X129489200Y-96291400D01*
D30*
X125780800Y-108576910D02*
X125776410Y-108581300D01*
D32*
X120819900Y-86440200D02*
X121191700Y-86440200D01*
D30*
X118232610Y-104521800D02*
X118858810Y-104521800D01*
D32*
X120353600Y-98667800D02*
X120253600Y-98767800D01*
X115794100Y-113533200D02*
X116336800Y-113533200D01*
D31*
X89500800Y-91474200D02*
X89500800Y-90521600D01*
D30*
X114096800Y-108576910D02*
X114092410Y-108581300D01*
D32*
X161696400Y-106248200D02*
X161696400Y-106587200D01*
X157088400Y-112242600D02*
X157092400Y-112238600D01*
X121982400Y-98667800D02*
X122082400Y-98767800D01*
X140231800Y-100946600D02*
X140131800Y-101046600D01*
X140131800Y-101559200D02*
X140131800Y-101046600D01*
X137083800Y-97409000D02*
X137487400Y-97409000D01*
D30*
X148209000Y-104555200D02*
X148835200Y-104555200D01*
X144957010Y-111360000D02*
X143846810Y-111360000D01*
D32*
X123911200Y-100946600D02*
X123096800Y-100946600D01*
X141950600Y-101574600D02*
X141950600Y-101056600D01*
D30*
X102190810Y-111334600D02*
X102179810Y-111345600D01*
D32*
X137083800Y-97663000D02*
X137083800Y-97409000D01*
X137169300Y-113532400D02*
X137240700Y-113461000D01*
X141146200Y-96356400D02*
X141046200Y-96456400D01*
X126517400Y-95707200D02*
X127000000Y-95707200D01*
D30*
X124129010Y-111334600D02*
X123018810Y-111334600D01*
X113514610Y-107580000D02*
X114096800Y-107580000D01*
X153222800Y-97880400D02*
X152232200Y-97880400D01*
X103301010Y-111334600D02*
X102190810Y-111334600D01*
D32*
X136575800Y-97866200D02*
X136880600Y-97866200D01*
X141960600Y-98667800D02*
X141146200Y-98667800D01*
X120142000Y-98879400D02*
X120253600Y-98767800D01*
X140147200Y-101574600D02*
X140131800Y-101559200D01*
X129921000Y-97208400D02*
X129931000Y-97218400D01*
X141046200Y-100946600D02*
X141860600Y-100946600D01*
D30*
X133273010Y-111360000D02*
X132162810Y-111360000D01*
X134342610Y-107580000D02*
X134924800Y-107580000D01*
X146026610Y-107580000D02*
X146608800Y-107580000D01*
X143846810Y-111360000D02*
X143835810Y-111371000D01*
D32*
X142975000Y-98667800D02*
X142875000Y-98767800D01*
X122070811Y-96467989D02*
X122082400Y-96456400D01*
X161290000Y-93116400D02*
X160909000Y-93116400D01*
X122182400Y-98667800D02*
X122082400Y-98767800D01*
X119439200Y-100946600D02*
X119339200Y-101046600D01*
X142875000Y-100946600D02*
X143689400Y-100946600D01*
X121158000Y-101574600D02*
X121158000Y-101056600D01*
X143889400Y-100946600D02*
X143789400Y-101046600D01*
X141860600Y-100946600D02*
X141960600Y-101046600D01*
X121168000Y-96356400D02*
X121982400Y-96356400D01*
D30*
X123018810Y-111334600D02*
X123007810Y-111345600D01*
D32*
X153887400Y-97880400D02*
X153898600Y-97891600D01*
X160324800Y-96088200D02*
X160629600Y-96088200D01*
X120253600Y-100946600D02*
X121068000Y-100946600D01*
X129921000Y-96824800D02*
X129921000Y-97208400D01*
X143789400Y-96356400D02*
X142975000Y-96356400D01*
X143779400Y-101574600D02*
X143779400Y-101056600D01*
X120353600Y-96356400D02*
X120253600Y-96456400D01*
X129565400Y-96824800D02*
X129921000Y-96824800D01*
D30*
X113381810Y-107460000D02*
X113508210Y-107586400D01*
X114971428Y-85882200D02*
X114971428Y-84875772D01*
D32*
X120243600Y-96466400D02*
X120253600Y-96456400D01*
X142875000Y-100946600D02*
X142060600Y-100946600D01*
D30*
X161408200Y-106587200D02*
X161696400Y-106587200D01*
X150759000Y-96980400D02*
X149743000Y-96980400D01*
D32*
X135991600Y-100838000D02*
X136387400Y-100838000D01*
X128991200Y-96218400D02*
X129416200Y-96218400D01*
D30*
X125780800Y-107588000D02*
X125780800Y-108576910D01*
D32*
X144703800Y-100946600D02*
X143889400Y-100946600D01*
D30*
X98030810Y-104521800D02*
X98039610Y-104513000D01*
D32*
X123096800Y-100946600D02*
X122996800Y-101046600D01*
D30*
X125065810Y-107434600D02*
X125192210Y-107561000D01*
X152995200Y-111368000D02*
X152984200Y-111379000D01*
X155752800Y-108576910D02*
X155748410Y-108581300D01*
D32*
X120827800Y-90906600D02*
X121199600Y-90906600D01*
X142975000Y-96356400D02*
X142875000Y-96456400D01*
X120253600Y-100946600D02*
X119439200Y-100946600D01*
X160724600Y-95993200D02*
X160724600Y-95500000D01*
X153222800Y-97880400D02*
X153887400Y-97880400D01*
X122996800Y-98667800D02*
X122182400Y-98667800D01*
X161366200Y-92659200D02*
X161366200Y-93040200D01*
X127086200Y-96118400D02*
X126817400Y-96118400D01*
D30*
X139686810Y-104547200D02*
X139695610Y-104538400D01*
D32*
X141146200Y-98667800D02*
X141046200Y-98767800D01*
D30*
X145893810Y-107460000D02*
X146020210Y-107586400D01*
D32*
X141036200Y-96774000D02*
X141036200Y-96466400D01*
X129489200Y-96291400D02*
X129489200Y-96748600D01*
D30*
X154648000Y-100926800D02*
X154660600Y-100914200D01*
D32*
X143779400Y-101056600D02*
X143789400Y-101046600D01*
D30*
X104364210Y-107561000D02*
X104370610Y-107554600D01*
D32*
X160629600Y-96088200D02*
X160724600Y-95993200D01*
X161366200Y-92659200D02*
X161820600Y-92659200D01*
X156692600Y-112242600D02*
X157088400Y-112242600D01*
X122896800Y-100946600D02*
X122996800Y-101046600D01*
D30*
X113508210Y-107586400D02*
X113514610Y-107580000D01*
X104370610Y-107554600D02*
X104952800Y-107554600D01*
D32*
X140934600Y-98879400D02*
X141046200Y-98767800D01*
X141950600Y-101056600D02*
X141960600Y-101046600D01*
X121191700Y-86440200D02*
X121195700Y-86436200D01*
X116408200Y-113461800D02*
X116408200Y-113182400D01*
X116336800Y-113533200D02*
X116408200Y-113461800D01*
X141960600Y-98667800D02*
X142775000Y-98667800D01*
X122082400Y-100946600D02*
X122896800Y-100946600D01*
X140934600Y-99263200D02*
X140934600Y-98879400D01*
X122182400Y-96356400D02*
X122082400Y-96456400D01*
D30*
X125198610Y-107554600D02*
X125780800Y-107554600D01*
D32*
X122996800Y-96356400D02*
X122182400Y-96356400D01*
X136491400Y-97950600D02*
X136575800Y-97866200D01*
X126272200Y-98497200D02*
X126502000Y-98497200D01*
D30*
X149743000Y-96980400D02*
X148967800Y-96980400D01*
D32*
X137240700Y-113461000D02*
X137240700Y-113181600D01*
X136626600Y-113182400D02*
X137239900Y-113182400D01*
D30*
X161278000Y-106717400D02*
X161408200Y-106587200D01*
X154111800Y-100926800D02*
X154648000Y-100926800D01*
D32*
X121268000Y-100946600D02*
X121168000Y-101046600D01*
X137239900Y-113182400D02*
X137240700Y-113181600D01*
D30*
X124129010Y-107434600D02*
X125065810Y-107434600D01*
X104952800Y-108576910D02*
X104948410Y-108581300D01*
X133273010Y-107460000D02*
X134209810Y-107460000D01*
X104237810Y-107434600D02*
X104364210Y-107561000D01*
X114096800Y-107588000D02*
X114096800Y-108576910D01*
D32*
X121168000Y-98667800D02*
X121982400Y-98667800D01*
X126717400Y-96218400D02*
X126146400Y-96218400D01*
D30*
X139060610Y-104547200D02*
X139686810Y-104547200D01*
D31*
X88498000Y-94306200D02*
X88498000Y-92477000D01*
D32*
X120142000Y-99263200D02*
X120142000Y-98879400D01*
D30*
X154105400Y-107468000D02*
X155042200Y-107468000D01*
X132162810Y-111360000D02*
X132151810Y-111371000D01*
D32*
X121982400Y-96356400D02*
X122082400Y-96456400D01*
D30*
X144957010Y-107460000D02*
X145893810Y-107460000D01*
D32*
X161820600Y-92659200D02*
X161824600Y-92655200D01*
D30*
X97404610Y-104521800D02*
X98030810Y-104521800D01*
X106548610Y-104547200D02*
X107174810Y-104547200D01*
X155168600Y-107594400D02*
X155175000Y-107588000D01*
D32*
X116407400Y-113183200D02*
X116408200Y-113182400D01*
D30*
X107174810Y-104547200D02*
X107183610Y-104538400D01*
D32*
X121199600Y-90906600D02*
X121203600Y-90902600D01*
X136880600Y-97866200D02*
X137083800Y-97663000D01*
D30*
X155752800Y-107588000D02*
X155752800Y-108576910D01*
D32*
X142875000Y-99202400D02*
X142865000Y-99212400D01*
X160909000Y-93116400D02*
X160824600Y-93200800D01*
D30*
X134924800Y-108576910D02*
X134920410Y-108581300D01*
D32*
X136387400Y-100838000D02*
X136391400Y-100834000D01*
X142863411Y-96467989D02*
X142875000Y-96456400D01*
X143689400Y-100946600D02*
X143789400Y-101046600D01*
D30*
X112445010Y-107460000D02*
X113381810Y-107460000D01*
X146020210Y-107586400D02*
X146026610Y-107580000D01*
X134209810Y-107460000D02*
X134336210Y-107586400D01*
X103301010Y-107434600D02*
X104237810Y-107434600D01*
D32*
X137487400Y-97409000D02*
X137491400Y-97405000D01*
X142775000Y-96356400D02*
X142875000Y-96456400D01*
X142060600Y-100946600D02*
X141960600Y-101046600D01*
X122082400Y-100946600D02*
X121268000Y-100946600D01*
X119339200Y-101559200D02*
X119339200Y-101046600D01*
D30*
X112445010Y-111360000D02*
X111334810Y-111360000D01*
D32*
X160324800Y-96443800D02*
X160324800Y-96088200D01*
D30*
X148674200Y-100626800D02*
X148666200Y-100634800D01*
X128002810Y-104547200D02*
X128011610Y-104538400D01*
D32*
X163195000Y-96469200D02*
X163195000Y-96113600D01*
D30*
X148835200Y-104555200D02*
X148844000Y-104546400D01*
X148967800Y-96980400D02*
X148539200Y-97409000D01*
D32*
X119354600Y-101574600D02*
X119339200Y-101559200D01*
X122986800Y-101574600D02*
X122986800Y-101056600D01*
X136626600Y-113532400D02*
X137169300Y-113532400D01*
X115794100Y-113183200D02*
X116407400Y-113183200D01*
D30*
X118858810Y-104521800D02*
X118867610Y-104513000D01*
D32*
X121068000Y-100946600D02*
X121168000Y-101046600D01*
X141046200Y-100946600D02*
X140231800Y-100946600D01*
D30*
X114971428Y-84875772D02*
X114985800Y-84861400D01*
X127376610Y-104547200D02*
X128002810Y-104547200D01*
D32*
X120243600Y-96774000D02*
X120243600Y-96466400D01*
D31*
X88498000Y-92477000D02*
X89500800Y-91474200D01*
D32*
X160824600Y-93200800D02*
X160824600Y-93595000D01*
D30*
X125192210Y-107561000D02*
X125198610Y-107554600D01*
X146613190Y-107588000D02*
X146613190Y-108576910D01*
D32*
X143789400Y-98667800D02*
X142975000Y-98667800D01*
D30*
X134336210Y-107586400D02*
X134342610Y-107580000D01*
D32*
X129489200Y-96748600D02*
X129565400Y-96824800D01*
X122082400Y-98767800D02*
X122082400Y-99202400D01*
X161366200Y-93040200D02*
X161290000Y-93116400D01*
X127086200Y-95793400D02*
X127086200Y-96118400D01*
X121168000Y-98667800D02*
X120353600Y-98667800D01*
D30*
X99314000Y-95250000D02*
X99339400Y-95275400D01*
X97469800Y-95188000D02*
X98794800Y-95188000D01*
X98856800Y-95250000D02*
X99314000Y-95250000D01*
X98794800Y-95188000D02*
X98856800Y-95250000D01*
X114971428Y-86982200D02*
X114617400Y-86982200D01*
X115455800Y-86982200D02*
X114971428Y-86982200D01*
X116461800Y-86432200D02*
X116005800Y-86432200D01*
X116005800Y-86432200D02*
X115455800Y-86982200D01*
X114017428Y-86918800D02*
X113980828Y-86882200D01*
X114554000Y-86918800D02*
X114017428Y-86918800D01*
X114617400Y-86982200D02*
X114554000Y-86918800D01*
D32*
X122307600Y-90906600D02*
X122303600Y-90902600D01*
D30*
X97404610Y-105621800D02*
X98023010Y-105621800D01*
X97401010Y-105625400D02*
X97404610Y-105621800D01*
D31*
X118561800Y-86432200D02*
X119528400Y-86432200D01*
D30*
X139057010Y-106810000D02*
X139057010Y-105650800D01*
D32*
X163576000Y-95571702D02*
X163397502Y-95571702D01*
X142915800Y-97627000D02*
X142875000Y-97667800D01*
X141036200Y-97307400D02*
X141036200Y-97657800D01*
X114427800Y-113183200D02*
X114427000Y-113182400D01*
D30*
X97401010Y-106784600D02*
X97401010Y-105625400D01*
D32*
X122123200Y-97627000D02*
X122082400Y-97667800D01*
X119354600Y-99542600D02*
X119339200Y-99558000D01*
D30*
X106545010Y-105650800D02*
X106548610Y-105647200D01*
D32*
X140147200Y-99542600D02*
X140131800Y-99558000D01*
X143779400Y-99542600D02*
X143779400Y-99936600D01*
X135051800Y-97409000D02*
X135055800Y-97405000D01*
X140131800Y-99558000D02*
X140131800Y-99946600D01*
X158475334Y-112238600D02*
X158563435Y-112150499D01*
X129921000Y-94792800D02*
X129931000Y-94802800D01*
X136626600Y-112474900D02*
X136631100Y-112470400D01*
X141036200Y-95346400D02*
X141046200Y-95356400D01*
X162179000Y-96037400D02*
X162179000Y-95854400D01*
X136626600Y-112832400D02*
X136626600Y-112474900D01*
D30*
X139057010Y-105650800D02*
X139060610Y-105647200D01*
X139679010Y-105647200D02*
X139695610Y-105630600D01*
X127376610Y-105647200D02*
X127995010Y-105647200D01*
D32*
X122047000Y-90271600D02*
X122303600Y-90528200D01*
X120243600Y-97657800D02*
X120253600Y-97667800D01*
X122072400Y-95346400D02*
X122082400Y-95356400D01*
X115794100Y-112833200D02*
X115794100Y-112475700D01*
X122303600Y-90528200D02*
X122303600Y-90902600D01*
D30*
X154655800Y-99826800D02*
X154660600Y-99822000D01*
X127995010Y-105647200D02*
X128011610Y-105630600D01*
D32*
X127372200Y-98497200D02*
X127214536Y-98497200D01*
D30*
X148205400Y-106818000D02*
X148205400Y-105658800D01*
D31*
X119528400Y-86432200D02*
X119532400Y-86436200D01*
D30*
X118229010Y-106784600D02*
X118229010Y-105625400D01*
D32*
X120243600Y-95346400D02*
X120253600Y-95356400D01*
D30*
X148827400Y-105655200D02*
X148844000Y-105638600D01*
D32*
X158192400Y-112238600D02*
X158475334Y-112238600D01*
D30*
X118229010Y-105625400D02*
X118232610Y-105621800D01*
D32*
X141036200Y-94869000D02*
X141036200Y-95346400D01*
X126682400Y-97218400D02*
X127086200Y-97218400D01*
X115794100Y-112475700D02*
X115798600Y-112471200D01*
D30*
X148209000Y-105655200D02*
X148827400Y-105655200D01*
D32*
X121404100Y-85805200D02*
X122039100Y-85805200D01*
X121158000Y-99936600D02*
X121168000Y-99946600D01*
X143779400Y-99936600D02*
X143789400Y-99946600D01*
X122682000Y-90906600D02*
X122307600Y-90906600D01*
X122299700Y-86440200D02*
X122295700Y-86436200D01*
X122295700Y-86061800D02*
X122295700Y-86436200D01*
X122986800Y-99936600D02*
X122996800Y-99946600D01*
X135896600Y-113182400D02*
X135260300Y-113182400D01*
X121412000Y-90271600D02*
X122047000Y-90271600D01*
D30*
X127373010Y-106810000D02*
X127373010Y-105650800D01*
X98023010Y-105621800D02*
X98039610Y-105605200D01*
D32*
X119339200Y-99558000D02*
X119339200Y-99946600D01*
D30*
X106548610Y-105647200D02*
X107167010Y-105647200D01*
D32*
X162179000Y-95854400D02*
X161824600Y-95500000D01*
X142865000Y-94869000D02*
X142865000Y-95346400D01*
X120243600Y-97307400D02*
X120243600Y-97657800D01*
X115064100Y-113183200D02*
X114427800Y-113183200D01*
X141036200Y-97657800D02*
X141046200Y-97667800D01*
X135260300Y-113182400D02*
X135259500Y-113181600D01*
D30*
X154111800Y-99826800D02*
X154655800Y-99826800D01*
D32*
X126493679Y-97557220D02*
X126493679Y-97407321D01*
X141950600Y-99936600D02*
X141960600Y-99946600D01*
X137491400Y-100834000D02*
X137773600Y-100834000D01*
D30*
X118232610Y-105621800D02*
X118851010Y-105621800D01*
X148205400Y-105658800D02*
X148209000Y-105655200D01*
X127373010Y-105650800D02*
X127376610Y-105647200D01*
D32*
X122674100Y-86440200D02*
X122299700Y-86440200D01*
D30*
X153365200Y-100126800D02*
X153665200Y-99826800D01*
D32*
X122123200Y-97307400D02*
X122123200Y-97627000D01*
X159338200Y-92655200D02*
X160724600Y-92655200D01*
X137773600Y-100834000D02*
X137896600Y-100711000D01*
X141950600Y-99542600D02*
X141950600Y-99936600D01*
D30*
X106545010Y-106810000D02*
X106545010Y-105650800D01*
D32*
X135055800Y-97405000D02*
X136391400Y-97405000D01*
X122986800Y-99542600D02*
X122986800Y-99936600D01*
D30*
X153665200Y-99826800D02*
X154111800Y-99826800D01*
D32*
X129931000Y-94802800D02*
X129931000Y-96118400D01*
X163397502Y-95571702D02*
X163195000Y-95369200D01*
D30*
X118851010Y-105621800D02*
X118867610Y-105605200D01*
X107167010Y-105647200D02*
X107183610Y-105630600D01*
D32*
X127214536Y-98497200D02*
X127057376Y-98654360D01*
X161696400Y-108153200D02*
X161696400Y-107687200D01*
X126682400Y-97218600D02*
X126682400Y-97218400D01*
D30*
X152865400Y-100126800D02*
X153365200Y-100126800D01*
D32*
X121158000Y-99542600D02*
X121158000Y-99936600D01*
X142865000Y-95346400D02*
X142875000Y-95356400D01*
X122072400Y-94869000D02*
X122072400Y-95346400D01*
X126493679Y-97407321D02*
X126682400Y-97218600D01*
X122039100Y-85805200D02*
X122295700Y-86061800D01*
X142915800Y-97307400D02*
X142915800Y-97627000D01*
D30*
X139060610Y-105647200D02*
X139679010Y-105647200D01*
D32*
X120243600Y-94869000D02*
X120243600Y-95346400D01*
X159334200Y-92659200D02*
X159338200Y-92655200D01*
D30*
X107670600Y-97205800D02*
X108077000Y-97612200D01*
X107340400Y-95885000D02*
X107670600Y-96215200D01*
X118567200Y-88544400D02*
X118033800Y-88011000D01*
X101930200Y-95885000D02*
X107340400Y-95885000D01*
X101447600Y-96367600D02*
X101930200Y-95885000D01*
X115058000Y-87956200D02*
X115112800Y-88011000D01*
X114430828Y-87956200D02*
X115058000Y-87956200D01*
X118567200Y-97256600D02*
X118567200Y-88544400D01*
X107670600Y-96215200D02*
X107670600Y-97205800D01*
X108077000Y-97612200D02*
X118211600Y-97612200D01*
X118211600Y-97612200D02*
X118567200Y-97256600D01*
X118033800Y-88011000D02*
X115112800Y-88011000D01*
X151155400Y-93675200D02*
X150698200Y-93218000D01*
X151155400Y-95300800D02*
X151155400Y-93675200D01*
X124256800Y-93218000D02*
X124231400Y-93243400D01*
X150698200Y-93218000D02*
X124256800Y-93218000D01*
X153238200Y-96965000D02*
X153222800Y-96980400D01*
X153238200Y-96266000D02*
X153238200Y-96965000D01*
D32*
X120696550Y-95914650D02*
X120700800Y-95910400D01*
D30*
X150415400Y-98631600D02*
X150759000Y-98288000D01*
D32*
X152476200Y-95986600D02*
X152476200Y-96266000D01*
X139674600Y-100965000D02*
X139496800Y-101142800D01*
X120700800Y-95910400D02*
X119237650Y-95910400D01*
D30*
X152232200Y-96980400D02*
X152232200Y-96510000D01*
X151460200Y-97078800D02*
X151561800Y-96977200D01*
X152232200Y-96510000D02*
X152476200Y-96266000D01*
D32*
X141499150Y-95885000D02*
X139827000Y-95885000D01*
X123647200Y-95910400D02*
X120700800Y-95910400D01*
X141499150Y-96695250D02*
X141499150Y-95885000D01*
D30*
X98983200Y-107468000D02*
X98983800Y-107467400D01*
D32*
X120945900Y-96977200D02*
X120696550Y-96727850D01*
D30*
X150759000Y-97880400D02*
X151293600Y-97880400D01*
X151565000Y-96980400D02*
X152232200Y-96980400D01*
D32*
X152374600Y-95885000D02*
X152476200Y-95986600D01*
X124262350Y-99675150D02*
X123799600Y-99212400D01*
D30*
X150415400Y-99176800D02*
X150415400Y-98631600D01*
D32*
X123799600Y-99212400D02*
X123799600Y-96062800D01*
D30*
X106550000Y-107467400D02*
X106549400Y-107468000D01*
D32*
X127894550Y-99675150D02*
X124262350Y-99675150D01*
X120986000Y-96977200D02*
X120945900Y-96977200D01*
X120696550Y-96727850D02*
X120696550Y-95914650D01*
D30*
X151460200Y-97713800D02*
X151460200Y-97078800D01*
X108127800Y-107467400D02*
X106550000Y-107467400D01*
X151293600Y-97880400D02*
X151460200Y-97713800D01*
D32*
X139496800Y-101142800D02*
X139008650Y-101142800D01*
D30*
X151561800Y-96977200D02*
X151565000Y-96980400D01*
D32*
X141833600Y-96901000D02*
X141704900Y-96901000D01*
X123799600Y-96062800D02*
X123647200Y-95910400D01*
D30*
X97405400Y-107468000D02*
X98983200Y-107468000D01*
X150759000Y-98288000D02*
X150759000Y-97880400D01*
D32*
X141499150Y-95885000D02*
X152374600Y-95885000D01*
X139827000Y-95885000D02*
X139674600Y-96037400D01*
X128600200Y-100380800D02*
X127894550Y-99675150D01*
X141704900Y-96901000D02*
X141499150Y-96695250D01*
X139674600Y-96037400D02*
X139674600Y-100965000D01*
D30*
X149915400Y-99176800D02*
X149915400Y-98556600D01*
X149743000Y-98384200D02*
X149743000Y-97880400D01*
X149225000Y-99034600D02*
X149367200Y-99176800D01*
X149915400Y-98556600D02*
X149743000Y-98384200D01*
X149367200Y-99176800D02*
X149915400Y-99176800D01*
X149225000Y-98755200D02*
X149225000Y-99034600D01*
X110007400Y-91567000D02*
X111302800Y-91567000D01*
X111607600Y-88417400D02*
X112014000Y-88011000D01*
X112014000Y-88011000D02*
X113334800Y-88011000D01*
X113389600Y-87956200D02*
X113334800Y-88011000D01*
X111607600Y-91262200D02*
X111607600Y-88417400D01*
X113530828Y-87956200D02*
X113389600Y-87956200D01*
X111302800Y-91567000D02*
X111607600Y-91262200D01*
X109677200Y-92633800D02*
X109677200Y-91897200D01*
X109677200Y-91897200D02*
X110007400Y-91567000D01*
X113980828Y-85982200D02*
X113980828Y-84872428D01*
X113980828Y-84872428D02*
X113969800Y-84861400D01*
X155081400Y-106818000D02*
X155211400Y-106688000D01*
X158935800Y-106688000D02*
X155757190Y-106688000D01*
X159865200Y-107617400D02*
X158935800Y-106688000D01*
X160817400Y-107617400D02*
X159865200Y-107617400D01*
X155211400Y-106688000D02*
X155757190Y-106688000D01*
X154105400Y-106818000D02*
X155081400Y-106818000D01*
X97469800Y-92586200D02*
X96751800Y-92586200D01*
X97469800Y-92586200D02*
X97469800Y-91759000D01*
X96751800Y-92586200D02*
X96723200Y-92557600D01*
X97469800Y-94288000D02*
X97469800Y-93486200D01*
X96824800Y-93472000D02*
X97455600Y-93472000D01*
X97455600Y-93472000D02*
X97469800Y-93486200D01*
X96723200Y-93573600D02*
X96824800Y-93472000D01*
X152222200Y-98450400D02*
X160629600Y-98450400D01*
X161239200Y-99060000D02*
X161239200Y-105003600D01*
X160629600Y-98450400D02*
X160959800Y-98780600D01*
X160959800Y-98780600D02*
X161239200Y-99060000D01*
X151558800Y-98450400D02*
X152222200Y-98450400D01*
X151415400Y-99176800D02*
X151415400Y-98593800D01*
X151415400Y-98593800D02*
X151558800Y-98450400D01*
D32*
X123918700Y-86110000D02*
X123794900Y-85986200D01*
X123794900Y-85986200D02*
X123269700Y-85986200D01*
X123918700Y-87202200D02*
X123918700Y-86110000D01*
X122115300Y-87176800D02*
X122394700Y-87456200D01*
X123664700Y-87456200D02*
X123918700Y-87202200D01*
X122394700Y-87456200D02*
X123664700Y-87456200D01*
D30*
X135894500Y-113943600D02*
X136199100Y-114248200D01*
X135557900Y-121252400D02*
X135386500Y-121081000D01*
X136199100Y-114248200D02*
X136199100Y-115272400D01*
X135896600Y-113941500D02*
X135894500Y-113943600D01*
X135556300Y-115272400D02*
X136199100Y-115272400D01*
X135386500Y-121081000D02*
X135386500Y-115442200D01*
X135896600Y-113532400D02*
X135896600Y-113941500D01*
X136199100Y-121252400D02*
X135557900Y-121252400D01*
X135386500Y-115442200D02*
X135556300Y-115272400D01*
D32*
X123672600Y-91922600D02*
X123926600Y-91668600D01*
X122123200Y-91643200D02*
X122402600Y-91922600D01*
X123926600Y-91668600D02*
X123926600Y-90576400D01*
X123926600Y-90576400D02*
X123802800Y-90452600D01*
X122402600Y-91922600D02*
X123672600Y-91922600D01*
X123802800Y-90452600D02*
X123277600Y-90452600D01*
X159591400Y-111788600D02*
X159166400Y-111788600D01*
X158013400Y-112852200D02*
X158343600Y-113182400D01*
X159766000Y-113055400D02*
X159766000Y-111963200D01*
X159766000Y-111963200D02*
X159591400Y-111788600D01*
X158343600Y-113182400D02*
X159639000Y-113182400D01*
X159639000Y-113182400D02*
X159766000Y-113055400D01*
D30*
X115062000Y-113944400D02*
X115366600Y-114249000D01*
X114554000Y-121081800D02*
X114554000Y-115443000D01*
X115366600Y-114249000D02*
X115366600Y-115273200D01*
X114725400Y-121253200D02*
X114554000Y-121081800D01*
X114554000Y-115443000D02*
X114723800Y-115273200D01*
X115064100Y-113942300D02*
X115062000Y-113944400D01*
X115064100Y-113533200D02*
X115064100Y-113942300D01*
X114723800Y-115273200D02*
X115366600Y-115273200D01*
X115366600Y-121253200D02*
X114725400Y-121253200D01*
D32*
X128026000Y-97118400D02*
X128991200Y-97118400D01*
X128991200Y-97118400D02*
X128991200Y-96758600D01*
X128991200Y-96758600D02*
X128981200Y-96748600D01*
X137391400Y-99310000D02*
X137391400Y-98344800D01*
X137083800Y-98348800D02*
X137387400Y-98348800D01*
X137387400Y-98348800D02*
X137391400Y-98344800D01*
X161724600Y-94560200D02*
X161724600Y-93595000D01*
X161720600Y-93599000D02*
X161724600Y-93595000D01*
X161366200Y-93599000D02*
X161720600Y-93599000D01*
X125882400Y-97536000D02*
X125882400Y-97118400D01*
X125857000Y-97561400D02*
X125882400Y-97536000D01*
X161775400Y-96596200D02*
X161724600Y-96545400D01*
X162179000Y-96596200D02*
X161775400Y-96596200D01*
D30*
X140639200Y-107468000D02*
X140639800Y-107467400D01*
X139061400Y-107468000D02*
X140639200Y-107468000D01*
X133273010Y-106810000D02*
X134249010Y-106810000D01*
X148206000Y-107467400D02*
X148205400Y-107468000D01*
X134379010Y-106680000D02*
X134924800Y-106680000D01*
X149783800Y-107467400D02*
X148206000Y-107467400D01*
X137117200Y-106688000D02*
X134929190Y-106688000D01*
X139061400Y-107468000D02*
X137897200Y-107468000D01*
X134249010Y-106810000D02*
X134379010Y-106680000D01*
X137897200Y-107468000D02*
X137117200Y-106688000D01*
X127378000Y-107467400D02*
X127377400Y-107468000D01*
X118233400Y-107468000D02*
X116993000Y-107468000D01*
X112445010Y-106810000D02*
X113421010Y-106810000D01*
X116993000Y-107468000D02*
X116213000Y-106688000D01*
X113421010Y-106810000D02*
X113551010Y-106680000D01*
X113551010Y-106680000D02*
X114096800Y-106680000D01*
X128955800Y-107467400D02*
X127378000Y-107467400D01*
X116213000Y-106688000D02*
X114101190Y-106688000D01*
X118233400Y-107468000D02*
X119785800Y-107468000D01*
X119785800Y-107468000D02*
X119811800Y-107442000D01*
D32*
X135879500Y-108498300D02*
X135864600Y-108483400D01*
D30*
X132140600Y-108118000D02*
X132130800Y-108127800D01*
D32*
X115064100Y-108561700D02*
X115062000Y-108559600D01*
D30*
X124133400Y-108118000D02*
X123022000Y-108118000D01*
X152958800Y-108127800D02*
X154095600Y-108127800D01*
X143824600Y-108118000D02*
X143814800Y-108127800D01*
X111338000Y-108118000D02*
X111328200Y-108127800D01*
X103305400Y-108118000D02*
X102092400Y-108118000D01*
X102092400Y-108118000D02*
X102082600Y-108127800D01*
D32*
X115064100Y-112833200D02*
X115064100Y-108561700D01*
D30*
X123022000Y-108118000D02*
X123012200Y-108127800D01*
X154095600Y-108127800D02*
X154105400Y-108118000D01*
D32*
X135879500Y-112833200D02*
X135879500Y-108498300D01*
D30*
X133277400Y-108118000D02*
X132140600Y-108118000D01*
X112449400Y-108118000D02*
X111338000Y-108118000D01*
X144961400Y-108118000D02*
X143824600Y-108118000D01*
D32*
X141518800Y-100397700D02*
X141518800Y-100203000D01*
X142875000Y-100046600D02*
X142464600Y-100457000D01*
X142052200Y-100457000D02*
X141578100Y-100457000D01*
X141518800Y-100203000D02*
X141518800Y-99434378D01*
X142464600Y-100457000D02*
X142052200Y-100457000D01*
X141578100Y-100457000D02*
X141518800Y-100397700D01*
X141518800Y-99434378D02*
X141450878Y-99366456D01*
D30*
X144957010Y-106810000D02*
X145933010Y-106810000D01*
X147142200Y-103708200D02*
X146613190Y-104237210D01*
X154105400Y-109418000D02*
X152648800Y-109418000D01*
X146613190Y-104237210D02*
X146613190Y-106688000D01*
X146063010Y-106680000D02*
X146608800Y-106680000D01*
X152648800Y-109418000D02*
X152273000Y-109042200D01*
X145933010Y-106810000D02*
X146063010Y-106680000D01*
X152273000Y-104089200D02*
X151892000Y-103708200D01*
X151892000Y-103708200D02*
X147142200Y-103708200D01*
X152273000Y-109042200D02*
X152273000Y-104089200D01*
X126309810Y-103708200D02*
X125780800Y-104237210D01*
X131440610Y-104089200D02*
X131059610Y-103708200D01*
X133273010Y-109418000D02*
X131816410Y-109418000D01*
X131816410Y-109418000D02*
X131440610Y-109042200D01*
X125105010Y-106784600D02*
X125235010Y-106654600D01*
X131440610Y-109042200D02*
X131440610Y-104089200D01*
X125235010Y-106654600D02*
X125780800Y-106654600D01*
X131059610Y-103708200D02*
X126309810Y-103708200D01*
X125780800Y-104237210D02*
X125780800Y-106688000D01*
X124129010Y-106784600D02*
X125105010Y-106784600D01*
D32*
X140528200Y-98120200D02*
X140401200Y-97993200D01*
X141188600Y-98221800D02*
X140629800Y-98221800D01*
X140629800Y-98221800D02*
X140528200Y-98120200D01*
X141506600Y-98221800D02*
X141188600Y-98221800D01*
X141960600Y-97767800D02*
X141506600Y-98221800D01*
X140401200Y-97993200D02*
X140401200Y-97053400D01*
D30*
X110988410Y-109410000D02*
X110612610Y-109034200D01*
X104407010Y-106654600D02*
X104952800Y-106654600D01*
X105481810Y-103700200D02*
X104952800Y-104229210D01*
X110612610Y-109034200D02*
X110612610Y-104081200D01*
X110612610Y-104081200D02*
X110231610Y-103700200D01*
X103301010Y-106784600D02*
X104277010Y-106784600D01*
X104952800Y-104229210D02*
X104952800Y-106680000D01*
X104277010Y-106784600D02*
X104407010Y-106654600D01*
X112445010Y-109410000D02*
X110988410Y-109410000D01*
X110231610Y-103700200D02*
X105481810Y-103700200D01*
D32*
X143417950Y-98139250D02*
X143789400Y-97767800D01*
X142509400Y-98139250D02*
X143417950Y-98139250D01*
X142442050Y-97367050D02*
X142442050Y-98071900D01*
X142285800Y-97210800D02*
X142442050Y-97367050D01*
X142442050Y-98071900D02*
X142509400Y-98139250D01*
X120726200Y-100397700D02*
X120726200Y-100203000D01*
X120785500Y-100457000D02*
X120726200Y-100397700D01*
X122082400Y-100046600D02*
X121672000Y-100457000D01*
X121259600Y-100457000D02*
X120785500Y-100457000D01*
X120726200Y-100203000D02*
X120726200Y-99434378D01*
X121672000Y-100457000D02*
X121259600Y-100457000D01*
X120726200Y-99434378D02*
X120658278Y-99366456D01*
X121168000Y-97767800D02*
X120714000Y-98221800D01*
X120714000Y-98221800D02*
X120396000Y-98221800D01*
X119837200Y-98221800D02*
X119735600Y-98120200D01*
X119608600Y-97993200D02*
X119608600Y-97053400D01*
X120396000Y-98221800D02*
X119837200Y-98221800D01*
X119735600Y-98120200D02*
X119608600Y-97993200D01*
X121640600Y-97358200D02*
X121640600Y-98063050D01*
X121526300Y-97243900D02*
X121640600Y-97358200D01*
X122625350Y-98139250D02*
X122996800Y-97767800D01*
X121716800Y-98139250D02*
X122625350Y-98139250D01*
X121640600Y-98063050D02*
X121716800Y-98139250D01*
D30*
X150420600Y-111253800D02*
X150420600Y-115463200D01*
X149884800Y-110718000D02*
X150420600Y-111253800D01*
X148205400Y-110718000D02*
X149884800Y-110718000D01*
X148210600Y-109423200D02*
X148205400Y-109418000D01*
X149783800Y-109423200D02*
X148210600Y-109423200D01*
X149783800Y-108788200D02*
X148225600Y-108788200D01*
X148225600Y-108788200D02*
X148205400Y-108768000D01*
X149809200Y-111582200D02*
X149809200Y-117251800D01*
X148205400Y-111368000D02*
X149595000Y-111368000D01*
X149809200Y-117251800D02*
X150420600Y-117863200D01*
X149595000Y-111368000D02*
X149809200Y-111582200D01*
X148205400Y-110068000D02*
X150047600Y-110068000D01*
X150901400Y-118182400D02*
X150420600Y-118663200D01*
X150901400Y-110921800D02*
X150901400Y-118182400D01*
X150047600Y-110068000D02*
X150901400Y-110921800D01*
X154105400Y-110068000D02*
X152542600Y-110068000D01*
X151815800Y-110794800D02*
X151815800Y-119049800D01*
X151815800Y-119049800D02*
X151402400Y-119463200D01*
X152542600Y-110068000D02*
X151815800Y-110794800D01*
X151402400Y-119463200D02*
X150420600Y-119463200D01*
X152501600Y-119862600D02*
X152501600Y-111048800D01*
X152501600Y-111048800D02*
X152832400Y-110718000D01*
X150418800Y-120269000D02*
X152095200Y-120269000D01*
X152095200Y-120269000D02*
X152501600Y-119862600D01*
X152832400Y-110718000D02*
X154105400Y-110718000D01*
X140736410Y-110710000D02*
X141272210Y-111245800D01*
X141272210Y-111245800D02*
X141272210Y-115455200D01*
D32*
X141868800Y-106959400D02*
X141868800Y-109676510D01*
D30*
X139057010Y-110710000D02*
X140736410Y-110710000D01*
D32*
X141868800Y-109676510D02*
X141563310Y-109982000D01*
D30*
X139062210Y-109415200D02*
X139057010Y-109410000D01*
D32*
X137922000Y-108000800D02*
X137922000Y-109220000D01*
X137109200Y-107188000D02*
X137922000Y-108000800D01*
X137922000Y-109220000D02*
X138120000Y-109418000D01*
X138120000Y-109418000D02*
X139045800Y-109418000D01*
D30*
X140635410Y-109415200D02*
X139062210Y-109415200D01*
D32*
X136560200Y-107188000D02*
X137109200Y-107188000D01*
D30*
X139077210Y-108780200D02*
X139057010Y-108760000D01*
D32*
X141208400Y-108762800D02*
X140627810Y-108762800D01*
X141310000Y-108661200D02*
X141208400Y-108762800D01*
X141310000Y-106959400D02*
X141310000Y-108661200D01*
D30*
X140635410Y-108780200D02*
X139077210Y-108780200D01*
X140446610Y-111360000D02*
X140660810Y-111574200D01*
X140660810Y-117243800D02*
X141272210Y-117855200D01*
X139057010Y-111360000D02*
X140446610Y-111360000D01*
X140660810Y-111574200D02*
X140660810Y-117243800D01*
D32*
X138049000Y-111125000D02*
X138292000Y-111368000D01*
X138049000Y-109651800D02*
X138049000Y-111125000D01*
X137693400Y-108127800D02*
X137693400Y-109296200D01*
X137239900Y-107674300D02*
X137693400Y-108127800D01*
X137693400Y-109296200D02*
X138049000Y-109651800D01*
X136865000Y-107674300D02*
X137239900Y-107674300D01*
X138292000Y-111368000D02*
X139045800Y-111368000D01*
D30*
X141753010Y-118174400D02*
X141272210Y-118655200D01*
D32*
X143164200Y-105791000D02*
X142249800Y-106705400D01*
D30*
X141753010Y-110913800D02*
X141753010Y-118174400D01*
X140899210Y-110060000D02*
X141753010Y-110913800D01*
D32*
X142249800Y-106705400D02*
X142249800Y-110376010D01*
D30*
X139057010Y-110060000D02*
X140899210Y-110060000D01*
D32*
X142249800Y-110376010D02*
X141737410Y-110888400D01*
D30*
X144957010Y-110060000D02*
X143394210Y-110060000D01*
D32*
X143138800Y-107213400D02*
X143138800Y-109794790D01*
D30*
X142254010Y-119455200D02*
X141272210Y-119455200D01*
X143394210Y-110060000D02*
X142667410Y-110786800D01*
X142667410Y-119041800D02*
X142254010Y-119455200D01*
D32*
X143392800Y-106959400D02*
X143138800Y-107213400D01*
D30*
X142667410Y-110786800D02*
X142667410Y-119041800D01*
D32*
X143138800Y-109794790D02*
X143378610Y-110034600D01*
D30*
X143353210Y-111040800D02*
X143684010Y-110710000D01*
D32*
X142732400Y-106934000D02*
X142732400Y-109728000D01*
D30*
X143684010Y-110710000D02*
X144957010Y-110710000D01*
X142946810Y-120261000D02*
X143353210Y-119854600D01*
D32*
X145196200Y-106070400D02*
X143596000Y-106070400D01*
D30*
X141270410Y-120261000D02*
X142946810Y-120261000D01*
X143353210Y-119854600D02*
X143353210Y-111040800D01*
D32*
X143596000Y-106070400D02*
X142732400Y-106934000D01*
D30*
X129052410Y-110710000D02*
X129588210Y-111245800D01*
X127373010Y-110710000D02*
X129052410Y-110710000D01*
X129588210Y-111245800D02*
X129588210Y-115455200D01*
X128951410Y-109415200D02*
X127378210Y-109415200D01*
X127378210Y-109415200D02*
X127373010Y-109410000D01*
X128951410Y-108780200D02*
X127393210Y-108780200D01*
X127393210Y-108780200D02*
X127373010Y-108760000D01*
X127373010Y-111360000D02*
X128762610Y-111360000D01*
X128976810Y-117243800D02*
X129588210Y-117855200D01*
X128762610Y-111360000D02*
X128976810Y-111574200D01*
X128976810Y-111574200D02*
X128976810Y-117243800D01*
X127373010Y-110060000D02*
X129215210Y-110060000D01*
X130069010Y-110913800D02*
X130069010Y-118174400D01*
X129215210Y-110060000D02*
X130069010Y-110913800D01*
X130069010Y-118174400D02*
X129588210Y-118655200D01*
X133273010Y-110060000D02*
X131710210Y-110060000D01*
X131710210Y-110060000D02*
X130983410Y-110786800D01*
X130570010Y-119455200D02*
X129588210Y-119455200D01*
X130983410Y-119041800D02*
X130570010Y-119455200D01*
X130983410Y-110786800D02*
X130983410Y-119041800D01*
X131262810Y-120261000D02*
X131669210Y-119854600D01*
X129586410Y-120261000D02*
X131262810Y-120261000D01*
X132000010Y-110710000D02*
X133273010Y-110710000D01*
X131669210Y-111040800D02*
X132000010Y-110710000D01*
X131669210Y-119854600D02*
X131669210Y-111040800D01*
X119908410Y-110684600D02*
X120444210Y-111220400D01*
X120444210Y-111220400D02*
X120444210Y-115429800D01*
D32*
X121056400Y-109676510D02*
X120750910Y-109982000D01*
D30*
X118229010Y-110684600D02*
X119908410Y-110684600D01*
D32*
X121056400Y-106959400D02*
X121056400Y-109676510D01*
X117317400Y-109418000D02*
X118233400Y-109418000D01*
X116205000Y-107188000D02*
X117195600Y-108178600D01*
D30*
X119807410Y-109389800D02*
X118234210Y-109389800D01*
D32*
X117195600Y-109296200D02*
X117317400Y-109418000D01*
X115747800Y-107188000D02*
X116205000Y-107188000D01*
D30*
X118234210Y-109389800D02*
X118229010Y-109384600D01*
D32*
X117195600Y-108178600D02*
X117195600Y-109296200D01*
X120497600Y-108661200D02*
X120396000Y-108762800D01*
X120396000Y-108762800D02*
X119815410Y-108762800D01*
D30*
X118249210Y-108754800D02*
X118229010Y-108734600D01*
X119807410Y-108754800D02*
X118249210Y-108754800D01*
D32*
X119815410Y-108762800D02*
X119807410Y-108754800D01*
X120497600Y-106959400D02*
X120497600Y-108661200D01*
D30*
X119618610Y-111334600D02*
X119832810Y-111548800D01*
D32*
X116386500Y-107674300D02*
X116967000Y-108254800D01*
D30*
X119832810Y-111548800D02*
X119832810Y-117218400D01*
D32*
X116967000Y-109448600D02*
X117221000Y-109702600D01*
X117221000Y-111175800D02*
X117413200Y-111368000D01*
X117221000Y-109702600D02*
X117221000Y-111175800D01*
D30*
X118229010Y-111334600D02*
X119618610Y-111334600D01*
D32*
X116052600Y-107674300D02*
X116386500Y-107674300D01*
X116967000Y-108254800D02*
X116967000Y-109448600D01*
X117413200Y-111368000D02*
X118233400Y-111368000D01*
D30*
X119832810Y-117218400D02*
X120444210Y-117829800D01*
D32*
X121437400Y-110376010D02*
X120925010Y-110888400D01*
X121437400Y-106705400D02*
X121437400Y-110376010D01*
X122351800Y-105791000D02*
X121437400Y-106705400D01*
D30*
X120925010Y-110888400D02*
X120925010Y-118149000D01*
X120925010Y-118149000D02*
X120444210Y-118629800D01*
X118229010Y-110034600D02*
X120071210Y-110034600D01*
X120071210Y-110034600D02*
X120925010Y-110888400D01*
X121839410Y-110761400D02*
X121839410Y-119016400D01*
X121839410Y-119016400D02*
X121426010Y-119429800D01*
D32*
X122326400Y-109794790D02*
X122566210Y-110034600D01*
D30*
X122566210Y-110034600D02*
X121839410Y-110761400D01*
X121426010Y-119429800D02*
X120444210Y-119429800D01*
X124129010Y-110034600D02*
X122566210Y-110034600D01*
D32*
X122326400Y-107213400D02*
X122326400Y-109794790D01*
X122580400Y-106959400D02*
X122326400Y-107213400D01*
X121920000Y-106934000D02*
X121920000Y-109728000D01*
X122783600Y-106070400D02*
X121920000Y-106934000D01*
D30*
X120442410Y-120235600D02*
X122118810Y-120235600D01*
X122118810Y-120235600D02*
X122525210Y-119829200D01*
X122525210Y-111015400D02*
X122856010Y-110684600D01*
X122525210Y-119829200D02*
X122525210Y-111015400D01*
D32*
X124383800Y-106070400D02*
X122783600Y-106070400D01*
D30*
X122856010Y-110684600D02*
X124129010Y-110684600D01*
X106545010Y-110710000D02*
X108224410Y-110710000D01*
X108224410Y-110710000D02*
X108760210Y-111245800D01*
X108760210Y-111245800D02*
X108760210Y-115455200D01*
X106550210Y-109415200D02*
X106545010Y-109410000D01*
X108123410Y-109415200D02*
X106550210Y-109415200D01*
X106565210Y-108780200D02*
X106545010Y-108760000D01*
X108123410Y-108780200D02*
X106565210Y-108780200D01*
X108148810Y-111574200D02*
X108148810Y-117243800D01*
X106545010Y-111360000D02*
X107934610Y-111360000D01*
X107934610Y-111360000D02*
X108148810Y-111574200D01*
X108148810Y-117243800D02*
X108760210Y-117855200D01*
X109241010Y-118174400D02*
X108760210Y-118655200D01*
X109241010Y-110913800D02*
X109241010Y-118174400D01*
X106545010Y-110060000D02*
X108387210Y-110060000D01*
X108387210Y-110060000D02*
X109241010Y-110913800D01*
X110155410Y-119041800D02*
X109742010Y-119455200D01*
X110882210Y-110060000D02*
X110155410Y-110786800D01*
X109742010Y-119455200D02*
X108760210Y-119455200D01*
X112445010Y-110060000D02*
X110882210Y-110060000D01*
X110155410Y-110786800D02*
X110155410Y-119041800D01*
X110841210Y-111040800D02*
X111172010Y-110710000D01*
X110434810Y-120261000D02*
X110841210Y-119854600D01*
X111172010Y-110710000D02*
X112445010Y-110710000D01*
X110841210Y-119854600D02*
X110841210Y-111040800D01*
X108758410Y-120261000D02*
X110434810Y-120261000D01*
X99080410Y-110684600D02*
X99616210Y-111220400D01*
X99616210Y-111220400D02*
X99616210Y-115429800D01*
X97401010Y-110684600D02*
X99080410Y-110684600D01*
X97406210Y-109389800D02*
X97401010Y-109384600D01*
X98979410Y-109389800D02*
X97406210Y-109389800D01*
X98979410Y-108754800D02*
X97421210Y-108754800D01*
X97421210Y-108754800D02*
X97401010Y-108734600D01*
X98790610Y-111334600D02*
X99004810Y-111548800D01*
X99004810Y-117218400D02*
X99616210Y-117829800D01*
X97401010Y-111334600D02*
X98790610Y-111334600D01*
X99004810Y-111548800D02*
X99004810Y-117218400D01*
X100097010Y-118149000D02*
X99616210Y-118629800D01*
X97401010Y-110034600D02*
X99243210Y-110034600D01*
X99243210Y-110034600D02*
X100097010Y-110888400D01*
X100097010Y-110888400D02*
X100097010Y-118149000D01*
X101011410Y-110761400D02*
X101011410Y-119016400D01*
X101011410Y-119016400D02*
X100598010Y-119429800D01*
X103301010Y-110034600D02*
X101738210Y-110034600D01*
X100598010Y-119429800D02*
X99616210Y-119429800D01*
X101738210Y-110034600D02*
X101011410Y-110761400D01*
X101697210Y-119829200D02*
X101697210Y-111015400D01*
X101697210Y-111015400D02*
X102028010Y-110684600D01*
X102028010Y-110684600D02*
X103301010Y-110684600D01*
X99614410Y-120235600D02*
X101290810Y-120235600D01*
X101290810Y-120235600D02*
X101697210Y-119829200D01*
M02*
