M48
; DRILL file {KiCad (5.1.4)-1} date 12/15/2019 2:44:35 PM
; FORMAT={-:-/ absolute / inch / decimal}
; #@! TF.CreationDate,2019-12-15T14:44:35-06:00
; #@! TF.GenerationSoftware,Kicad,Pcbnew,(5.1.4)-1
; #@! TF.FileFunction,Plated,1,4,PTH
FMAT,2
INCH
T1C0.0079
T2C0.0315
T3C0.0394
%
G90
G05
T1
X2.936Y-3.302
X2.936Y-3.396
X2.951Y-3.3685
X2.956Y-3.426
X2.9595Y-3.701
X2.9635Y-3.7685
X2.978Y-2.858
X2.979Y-2.737
X3.0535Y-3.421
X3.0563Y-3.5824
X3.064Y-2.9
X3.0914Y-3.5297
X3.097Y-2.9317
X3.1135Y-3.5585
X3.116Y-3.616
X3.1161Y-3.6785
X3.1162Y-3.421
X3.1185Y-3.6485
X3.13Y-3.19
X3.145Y-3.526
X3.1735Y-3.4215
X3.1785Y-3.451
X3.182Y-3.338
X3.186Y-3.591
X3.1885Y-3.6835
X3.2629Y-3.055
X3.2648Y-2.934
X3.2945Y-3.0545
X3.2965Y-2.9315
X3.2978Y-3.396
X3.2992Y-3.2235
X3.304Y-3.32
X3.3128Y-3.3685
X3.3178Y-3.426
X3.3213Y-3.701
X3.3253Y-3.7685
X3.4153Y-3.421
X3.4181Y-3.5824
X3.4532Y-3.5297
X3.4753Y-3.5585
X3.4778Y-3.616
X3.4779Y-3.6785
X3.478Y-3.421
X3.4803Y-3.6485
X3.5068Y-3.526
X3.528Y-3.364
X3.5353Y-3.4215
X3.5403Y-3.451
X3.5478Y-3.591
X3.5503Y-3.6835
X3.614Y-4.166
X3.6172Y-4.1391
X3.627Y-4.208
X3.6489Y-4.137
X3.6596Y-3.396
X3.661Y-3.2235
X3.666Y-3.32
X3.6746Y-3.3685
X3.6796Y-3.426
X3.6831Y-3.701
X3.6871Y-3.7685
X3.7771Y-3.421
X3.7799Y-3.5824
X3.815Y-3.5297
X3.8365Y-2.3775
X3.8371Y-3.5585
X3.8396Y-3.616
X3.8398Y-3.6785
X3.8398Y-3.421
X3.8421Y-3.6485
X3.851Y-2.727
X3.861Y-2.607
X3.8686Y-3.526
X3.89Y-3.364
X3.8945Y-2.3775
X3.8971Y-3.4215
X3.9021Y-3.451
X3.9096Y-3.591
X3.9121Y-3.6835
X3.9515Y-2.3775
X3.9761Y-4.1672
X3.9792Y-4.1401
X3.989Y-4.209
X4.0109Y-4.138
X4.0214Y-3.396
X4.0229Y-3.2235
X4.028Y-3.32
X4.0364Y-3.3685
X4.0414Y-3.426
X4.045Y-3.701
X4.0489Y-3.7685
X4.0681Y-2.4814
X4.0681Y-2.5336
X4.079Y-2.692
X4.084Y-2.617
X4.1389Y-3.421
X4.1399Y-2.4814
X4.1399Y-2.5336
X4.1417Y-3.5824
X4.1768Y-3.5297
X4.1989Y-3.5585
X4.2014Y-3.616
X4.2016Y-3.6785
X4.2016Y-3.421
X4.2039Y-3.6485
X4.204Y-2.752
X4.2304Y-3.526
X4.252Y-3.364
X4.2589Y-3.4215
X4.262Y-2.831
X4.262Y-3.027
X4.262Y-3.07
X4.263Y-2.865
X4.2639Y-3.451
X4.2714Y-3.591
X4.2739Y-3.6835
X4.2915Y-2.958
X4.304Y-2.641
X4.304Y-2.666
X4.304Y-2.691
X4.304Y-2.716
X4.316Y-2.855
X4.329Y-2.641
X4.329Y-2.666
X4.329Y-2.691
X4.329Y-2.716
X4.3371Y-4.1682
X4.3402Y-4.1411
X4.35Y-4.21
X4.354Y-2.641
X4.354Y-2.666
X4.354Y-2.691
X4.354Y-2.716
X4.354Y-2.936
X4.3719Y-4.139
X4.379Y-2.641
X4.379Y-2.666
X4.379Y-2.691
X4.379Y-2.716
X4.3832Y-3.396
X4.384Y-2.863
X4.3847Y-3.2235
X4.39Y-3.32
X4.396Y-2.933
X4.3982Y-3.3685
X4.4032Y-3.426
X4.4068Y-3.701
X4.4107Y-3.7685
X4.417Y-3.056
X4.418Y-3.122
X4.5007Y-3.421
X4.5035Y-3.5824
X4.5387Y-3.5297
X4.552Y-2.714
X4.552Y-2.739
X4.5607Y-3.5585
X4.5632Y-3.616
X4.5634Y-3.6785
X4.5634Y-3.421
X4.5657Y-3.6485
X4.577Y-2.714
X4.577Y-2.739
X4.5922Y-3.526
X4.602Y-2.714
X4.602Y-2.739
X4.614Y-3.364
X4.6207Y-3.4215
X4.6257Y-3.451
X4.6332Y-3.591
X4.634Y-2.713
X4.634Y-2.738
X4.6357Y-3.6835
X4.636Y-2.665
X4.659Y-2.713
X4.659Y-2.738
X4.6913Y-2.5208
X4.6913Y-2.5562
X4.698Y-4.168
X4.7012Y-4.1411
X4.711Y-4.21
X4.7267Y-2.5208
X4.7267Y-2.5562
X4.7329Y-4.139
X4.7451Y-3.396
X4.7465Y-3.2235
X4.752Y-3.32
X4.7601Y-3.3685
X4.7651Y-3.426
X4.767Y-2.638
X4.767Y-2.663
X4.7686Y-3.701
X4.7726Y-3.7685
X4.792Y-2.638
X4.792Y-2.663
X4.805Y-2.479
X4.817Y-2.638
X4.817Y-2.663
X4.842Y-2.638
X4.842Y-2.663
X4.8626Y-3.421
X4.8653Y-3.5824
X4.867Y-2.638
X4.892Y-2.638
X4.9005Y-3.5297
X4.917Y-2.638
X4.9226Y-3.5585
X4.9251Y-3.616
X4.9252Y-3.6785
X4.9253Y-3.421
X4.9276Y-3.6485
X4.942Y-2.638
X4.948Y-2.957
X4.954Y-3.526
X4.967Y-2.638
X4.976Y-3.364
X4.9826Y-3.4215
X4.9876Y-3.451
X4.992Y-2.638
X4.992Y-2.663
X4.992Y-2.688
X4.992Y-2.713
X4.992Y-2.738
X4.9951Y-3.591
X4.9976Y-3.6835
X5.01Y-3.071
X5.017Y-2.638
X5.017Y-2.663
X5.017Y-2.688
X5.017Y-2.713
X5.017Y-2.738
X5.019Y-3.032
X5.045Y-2.9575
X5.063Y-4.169
X5.0662Y-4.1421
X5.0755Y-2.568
X5.076Y-4.211
X5.087Y-2.426
X5.088Y-2.761
X5.0979Y-4.14
X5.1Y-2.6047
X5.1038Y-2.5406
X5.104Y-2.6638
X5.1067Y-2.719
X5.1069Y-3.396
X5.1083Y-3.2235
X5.114Y-3.32
X5.1219Y-3.3685
X5.1269Y-3.426
X5.1304Y-3.701
X5.1314Y-2.5428
X5.1317Y-2.6672
X5.1344Y-3.7685
X5.139Y-2.89
X5.14Y-2.831
X5.1538Y-2.4991
X5.1538Y-2.6221
X5.154Y-2.401
X5.156Y-3.032
X5.182Y-2.731
X5.184Y-2.5
X5.184Y-2.623
X5.186Y-2.375
X5.1896Y-2.8343
X5.201Y-3.136
X5.211Y-2.976
X5.22Y-2.5418
X5.22Y-2.6638
X5.221Y-2.73
X5.2244Y-3.421
X5.2272Y-3.5824
X5.235Y-2.604
X5.2477Y-2.5452
X5.2477Y-2.6672
X5.254Y-2.476
X5.2623Y-3.5297
X5.268Y-2.739
X5.2698Y-2.4991
X5.2698Y-2.6221
X5.2844Y-3.5585
X5.2869Y-3.616
X5.287Y-3.6785
X5.2871Y-3.421
X5.2894Y-3.6485
X5.3Y-2.5
X5.3Y-2.623
X5.3158Y-3.526
X5.33Y-2.729
X5.332Y-2.6047
X5.337Y-2.5418
X5.337Y-2.6638
X5.338Y-3.364
X5.3444Y-3.4215
X5.3494Y-3.451
X5.3569Y-3.591
X5.3594Y-3.6835
X5.3647Y-2.5452
X5.3647Y-2.6672
X5.384Y-2.756
X5.3868Y-2.4991
X5.3868Y-2.6221
X5.393Y-2.375
X5.417Y-2.5
X5.417Y-2.623
X5.424Y-4.169
X5.4272Y-4.1421
X5.437Y-4.211
X5.4589Y-4.14
X5.4687Y-3.396
X5.469Y-2.606
X5.4701Y-3.2235
X5.476Y-3.32
X5.4837Y-3.3685
X5.4887Y-3.426
X5.4922Y-3.701
X5.493Y-2.546
X5.4962Y-3.7685
X5.515Y-2.375
X5.515Y-2.607
X5.522Y-2.65
X5.522Y-2.705
X5.543Y-2.507
X5.563Y-2.417
X5.5862Y-3.421
X5.589Y-3.5824
X5.6241Y-3.5297
X5.638Y-2.571
X5.6462Y-3.5585
X5.6487Y-3.616
X5.6488Y-3.6785
X5.6489Y-3.421
X5.6512Y-3.6485
X5.6777Y-3.526
X5.7Y-3.364
X5.7062Y-3.4215
X5.7112Y-3.451
X5.7187Y-3.591
X5.7212Y-3.6835
X5.722Y-2.705
X5.745Y-2.443
X5.7457Y-2.5814
X5.747Y-2.814
X5.7621Y-2.5
X5.787Y-4.169
X5.7902Y-4.1421
X5.8Y-4.211
X5.805Y-3.072
X5.807Y-3.033
X5.82Y-2.504
X5.8219Y-4.14
X5.8305Y-3.396
X5.831Y-2.631
X5.8319Y-3.2235
X5.833Y-2.9635
X5.838Y-3.32
X5.8455Y-3.3685
X5.8505Y-3.426
X5.854Y-3.701
X5.858Y-3.7685
X5.871Y-2.76
X5.8836Y-2.8346
X5.889Y-2.62
X5.9222Y-2.4048
X5.931Y-2.892
X5.932Y-2.93
X5.945Y-2.63
X5.948Y-3.421
X5.9508Y-3.5824
X5.959Y-3.105
X5.985Y-2.483
X5.9859Y-3.5297
X6.008Y-3.5585
X6.0105Y-3.616
X6.0106Y-3.6785
X6.0107Y-3.421
X6.013Y-3.6485
X6.023Y-2.82
X6.024Y-2.871
X6.0395Y-3.526
X6.061Y-2.961
X6.062Y-3.364
X6.068Y-3.4215
X6.073Y-3.451
X6.0805Y-3.591
X6.083Y-3.6835
X6.102Y-3.041
X6.102Y-3.099
X6.12Y-2.961
X6.13Y-3.132
X6.163Y-2.949
X6.1923Y-3.396
X6.1937Y-3.2235
X6.2073Y-3.3685
X6.208Y-3.302
X6.212Y-4.006
X6.2123Y-3.426
X6.2158Y-3.701
X6.2198Y-3.7685
X6.246Y-3.011
X6.2524Y-4.0585
X6.263Y-2.907
X6.2687Y-4.0369
X6.2705Y-2.6791
X6.273Y-2.645
X6.2786Y-2.7474
X6.286Y-4.014
X6.306Y-3.01
X6.309Y-2.686
X6.3098Y-3.421
X6.3126Y-3.5824
X6.3477Y-3.5297
X6.353Y-2.65
X6.3536Y-2.7862
X6.354Y-2.877
X6.3698Y-3.5585
X6.3723Y-3.616
X6.3724Y-3.6785
X6.3725Y-3.421
X6.3748Y-3.6485
X6.3806Y-2.6554
X6.383Y-2.689
X6.383Y-2.89
X6.384Y-3.189
X6.4013Y-3.526
X6.412Y-3.056
X6.4298Y-3.4215
X6.43Y-3.336
X6.4348Y-3.451
X6.4423Y-3.591
X6.4448Y-3.6835
X6.452Y-2.84
X6.466Y-2.796
X6.466Y-3.226
X6.483Y-2.68
X6.486Y-2.894
X6.545Y-2.631
T2
X3.3765Y-3.5385
X3.3765Y-3.6385
X3.3765Y-3.7385
X3.3765Y-3.8385
X3.3765Y-3.9385
X3.5765Y-3.5385
X3.5765Y-3.6385
X3.5765Y-3.7385
X3.5765Y-3.8385
X3.5765Y-3.9385
X3.7383Y-3.5385
X3.7383Y-3.6385
X3.7383Y-3.7385
X3.7383Y-3.8385
X3.7383Y-3.9385
X3.9383Y-3.5385
X3.9383Y-3.6385
X3.9383Y-3.7385
X3.9383Y-3.8385
X3.9383Y-3.9385
X4.4619Y-3.5385
X4.4619Y-3.6385
X4.4619Y-3.7385
X4.4619Y-3.8385
X4.4619Y-3.9385
X4.6619Y-3.5385
X4.6619Y-3.6385
X4.6619Y-3.7385
X4.6619Y-3.8385
X4.6619Y-3.9385
X5.1856Y-3.5385
X5.1856Y-3.6385
X5.1856Y-3.7385
X5.1856Y-3.8385
X5.1856Y-3.9385
X5.3856Y-3.5385
X5.3856Y-3.6385
X5.3856Y-3.7385
X5.3856Y-3.8385
X5.3856Y-3.9385
X4.8238Y-3.5385
X4.8238Y-3.6385
X4.8238Y-3.7385
X4.8238Y-3.8385
X4.8238Y-3.9385
X5.0238Y-3.5385
X5.0238Y-3.6385
X5.0238Y-3.7385
X5.0238Y-3.8385
X5.0238Y-3.9385
X6.271Y-3.5385
X6.271Y-3.6385
X6.271Y-3.7385
X6.271Y-3.8385
X6.271Y-3.9385
X6.471Y-3.5385
X6.471Y-3.6385
X6.471Y-3.7385
X6.471Y-3.8385
X6.471Y-3.9385
X5.9092Y-3.5385
X5.9092Y-3.6385
X5.9092Y-3.7385
X5.9092Y-3.8385
X5.9092Y-3.9385
X6.1092Y-3.5385
X6.1092Y-3.6385
X6.1092Y-3.7385
X6.1092Y-3.8385
X6.1092Y-3.9385
X3.0147Y-3.5385
X3.0147Y-3.6385
X3.0147Y-3.7385
X3.0147Y-3.8385
X3.0147Y-3.9385
X3.2147Y-3.5385
X3.2147Y-3.6385
X3.2147Y-3.7385
X3.2147Y-3.8385
X3.2147Y-3.9385
X4.1001Y-3.5385
X4.1001Y-3.6385
X4.1001Y-3.7385
X4.1001Y-3.8385
X4.1001Y-3.9385
X4.3001Y-3.5385
X4.3001Y-3.6385
X4.3001Y-3.7385
X4.3001Y-3.8385
X4.3001Y-3.9385
X5.5474Y-3.5385
X5.5474Y-3.6385
X5.5474Y-3.7385
X5.5474Y-3.8385
X5.5474Y-3.9385
X5.7474Y-3.5385
X5.7474Y-3.6385
X5.7474Y-3.7385
X5.7474Y-3.8385
X5.7474Y-3.9385
T3
X3.015Y-3.024
X6.486Y-3.024
X6.486Y-3.124
X6.205Y-2.385
X3.015Y-3.124
T3
G00X3.29Y-2.4945
M15
G01X3.29Y-2.5733
M16
G05
G00X3.5144Y-2.4158
M15
G01X3.4356Y-2.4158
M16
G05
G00X3.5144Y-2.652
M15
G01X3.4356Y-2.652
M16
G05
T0
M30
