G04 #@! TF.GenerationSoftware,KiCad,Pcbnew,(5.1.4)-1*
G04 #@! TF.CreationDate,2019-12-15T14:44:31-06:00*
G04 #@! TF.ProjectId,Incrementor,496e6372-656d-4656-9e74-6f722e6b6963,rev?*
G04 #@! TF.SameCoordinates,Original*
G04 #@! TF.FileFunction,Paste,Bot*
G04 #@! TF.FilePolarity,Positive*
%FSLAX46Y46*%
G04 Gerber Fmt 4.6, Leading zero omitted, Abs format (unit mm)*
G04 Created by KiCad (PCBNEW (5.1.4)-1) date 2019-12-15 14:44:31*
%MOMM*%
%LPD*%
G04 APERTURE LIST*
%ADD10R,1.450000X0.450000*%
%ADD11R,2.500000X1.800000*%
%ADD12R,0.900000X0.500000*%
%ADD13R,0.800000X0.750000*%
%ADD14R,1.060000X0.650000*%
%ADD15R,0.750000X0.800000*%
%ADD16R,0.650000X0.400000*%
%ADD17R,0.500000X0.900000*%
%ADD18R,1.000000X1.600000*%
%ADD19R,1.500000X0.450000*%
%ADD20R,0.760000X0.430000*%
%ADD21R,0.450000X0.600000*%
%ADD22R,0.600000X0.450000*%
G04 APERTURE END LIST*
D10*
X157661400Y-72638200D03*
X157661400Y-71988200D03*
X157661400Y-71338200D03*
X157661400Y-70688200D03*
X157661400Y-70038200D03*
X157661400Y-69388200D03*
X157661400Y-68738200D03*
X151761400Y-68738200D03*
X151761400Y-69388200D03*
X151761400Y-70038200D03*
X151761400Y-70688200D03*
X151761400Y-71338200D03*
X151761400Y-71988200D03*
X151761400Y-72638200D03*
D11*
X80359500Y-68580000D03*
X84359500Y-68580000D03*
D12*
X162890200Y-70751000D03*
X162890200Y-72251000D03*
X159842200Y-70751000D03*
X159842200Y-72251000D03*
X161366200Y-70751000D03*
X161366200Y-72251000D03*
D13*
X162116200Y-69265800D03*
X160616200Y-69265800D03*
D12*
X131851400Y-66966400D03*
X131851400Y-68466400D03*
X134823200Y-66966400D03*
X134823200Y-68466400D03*
X137922000Y-66966400D03*
X137922000Y-68466400D03*
X131851400Y-63860000D03*
X131851400Y-65360000D03*
X134823200Y-63867600D03*
X134823200Y-65367600D03*
X130378200Y-66966400D03*
X130378200Y-68466400D03*
X133324600Y-66966400D03*
X133324600Y-68466400D03*
X136296400Y-66966400D03*
X136296400Y-68466400D03*
X130378200Y-63860000D03*
X130378200Y-65360000D03*
X133324600Y-63867600D03*
X133324600Y-65367600D03*
D14*
X150221800Y-77068500D03*
X150221800Y-78968500D03*
X152421800Y-78968500D03*
X152421800Y-78018500D03*
X152421800Y-77068500D03*
X129925900Y-76901000D03*
X129925900Y-78801000D03*
X132125900Y-78801000D03*
X132125900Y-77851000D03*
X132125900Y-76901000D03*
X111079100Y-77409000D03*
X111079100Y-79309000D03*
X113279100Y-79309000D03*
X113279100Y-78359000D03*
X113279100Y-77409000D03*
D13*
X148158900Y-75272900D03*
X146658900Y-75272900D03*
X128143700Y-75120500D03*
X126643700Y-75120500D03*
D15*
X148513800Y-77291500D03*
X148513800Y-78791500D03*
X128231900Y-77037500D03*
X128231900Y-78537500D03*
X109385100Y-77228000D03*
X109385100Y-78728000D03*
X154127200Y-77228000D03*
X154127200Y-78728000D03*
X133692900Y-76720000D03*
X133692900Y-78220000D03*
X114846100Y-77228000D03*
X114846100Y-78728000D03*
D16*
X112329000Y-73763900D03*
X112329000Y-72463900D03*
X110429000Y-73113900D03*
X110429000Y-72463900D03*
X110429000Y-73763900D03*
D17*
X110629000Y-70891400D03*
X112129000Y-70891400D03*
D13*
X112129000Y-75387200D03*
X110629000Y-75387200D03*
D15*
X108254800Y-71906700D03*
X108254800Y-73406700D03*
D13*
X109004800Y-75133200D03*
X107504800Y-75133200D03*
D18*
X118032400Y-69164200D03*
X121032400Y-69164200D03*
D19*
X76226900Y-83665900D03*
X76226900Y-84315900D03*
X76226900Y-84965900D03*
X76226900Y-85615900D03*
X76226900Y-86265900D03*
X76226900Y-86915900D03*
X76226900Y-87565900D03*
X76226900Y-88215900D03*
X82126900Y-88215900D03*
X82126900Y-87565900D03*
X82126900Y-86915900D03*
X82126900Y-86265900D03*
X82126900Y-85615900D03*
X82126900Y-84965900D03*
X82126900Y-84315900D03*
X82126900Y-83665900D03*
X85416900Y-83665900D03*
X85416900Y-84315900D03*
X85416900Y-84965900D03*
X85416900Y-85615900D03*
X85416900Y-86265900D03*
X85416900Y-86915900D03*
X85416900Y-87565900D03*
X85416900Y-88215900D03*
X91316900Y-88215900D03*
X91316900Y-87565900D03*
X91316900Y-86915900D03*
X91316900Y-86265900D03*
X91316900Y-85615900D03*
X91316900Y-84965900D03*
X91316900Y-84315900D03*
X91316900Y-83665900D03*
X94606900Y-83665900D03*
X94606900Y-84315900D03*
X94606900Y-84965900D03*
X94606900Y-85615900D03*
X94606900Y-86265900D03*
X94606900Y-86915900D03*
X94606900Y-87565900D03*
X94606900Y-88215900D03*
X100506900Y-88215900D03*
X100506900Y-87565900D03*
X100506900Y-86915900D03*
X100506900Y-86265900D03*
X100506900Y-85615900D03*
X100506900Y-84965900D03*
X100506900Y-84315900D03*
X100506900Y-83665900D03*
X103796900Y-83665900D03*
X103796900Y-84315900D03*
X103796900Y-84965900D03*
X103796900Y-85615900D03*
X103796900Y-86265900D03*
X103796900Y-86915900D03*
X103796900Y-87565900D03*
X103796900Y-88215900D03*
X109696900Y-88215900D03*
X109696900Y-87565900D03*
X109696900Y-86915900D03*
X109696900Y-86265900D03*
X109696900Y-85615900D03*
X109696900Y-84965900D03*
X109696900Y-84315900D03*
X109696900Y-83665900D03*
X112986900Y-83665900D03*
X112986900Y-84315900D03*
X112986900Y-84965900D03*
X112986900Y-85615900D03*
X112986900Y-86265900D03*
X112986900Y-86915900D03*
X112986900Y-87565900D03*
X112986900Y-88215900D03*
X118886900Y-88215900D03*
X118886900Y-87565900D03*
X118886900Y-86915900D03*
X118886900Y-86265900D03*
X118886900Y-85615900D03*
X118886900Y-84965900D03*
X118886900Y-84315900D03*
X118886900Y-83665900D03*
X122176900Y-83665900D03*
X122176900Y-84315900D03*
X122176900Y-84965900D03*
X122176900Y-85615900D03*
X122176900Y-86265900D03*
X122176900Y-86915900D03*
X122176900Y-87565900D03*
X122176900Y-88215900D03*
X128076900Y-88215900D03*
X128076900Y-87565900D03*
X128076900Y-86915900D03*
X128076900Y-86265900D03*
X128076900Y-85615900D03*
X128076900Y-84965900D03*
X128076900Y-84315900D03*
X128076900Y-83665900D03*
X131366900Y-83665900D03*
X131366900Y-84315900D03*
X131366900Y-84965900D03*
X131366900Y-85615900D03*
X131366900Y-86265900D03*
X131366900Y-86915900D03*
X131366900Y-87565900D03*
X131366900Y-88215900D03*
X137266900Y-88215900D03*
X137266900Y-87565900D03*
X137266900Y-86915900D03*
X137266900Y-86265900D03*
X137266900Y-85615900D03*
X137266900Y-84965900D03*
X137266900Y-84315900D03*
X137266900Y-83665900D03*
X140556900Y-83665900D03*
X140556900Y-84315900D03*
X140556900Y-84965900D03*
X140556900Y-85615900D03*
X140556900Y-86265900D03*
X140556900Y-86915900D03*
X140556900Y-87565900D03*
X140556900Y-88215900D03*
X146456900Y-88215900D03*
X146456900Y-87565900D03*
X146456900Y-86915900D03*
X146456900Y-86265900D03*
X146456900Y-85615900D03*
X146456900Y-84965900D03*
X146456900Y-84315900D03*
X146456900Y-83665900D03*
X149746900Y-83665900D03*
X149746900Y-84315900D03*
X149746900Y-84965900D03*
X149746900Y-85615900D03*
X149746900Y-86265900D03*
X149746900Y-86915900D03*
X149746900Y-87565900D03*
X149746900Y-88215900D03*
X155646900Y-88215900D03*
X155646900Y-87565900D03*
X155646900Y-86915900D03*
X155646900Y-86265900D03*
X155646900Y-85615900D03*
X155646900Y-84965900D03*
X155646900Y-84315900D03*
X155646900Y-83665900D03*
D17*
X83800400Y-81876900D03*
X82300400Y-81876900D03*
X92990400Y-81876900D03*
X91490400Y-81876900D03*
X102180400Y-81876900D03*
X100680400Y-81876900D03*
X111370400Y-81876900D03*
X109870400Y-81876900D03*
X120560400Y-81876900D03*
X119060400Y-81876900D03*
X129750400Y-81876900D03*
X128250400Y-81876900D03*
X138940400Y-81876900D03*
X137440400Y-81876900D03*
X148130400Y-81876900D03*
X146630400Y-81876900D03*
X157320400Y-81876900D03*
X155820400Y-81876900D03*
D20*
X79936900Y-91878400D03*
X79936900Y-91078400D03*
X79936900Y-96678400D03*
X79936900Y-95878400D03*
X78416900Y-95878400D03*
X78416900Y-96678400D03*
X78416900Y-91078400D03*
X78416900Y-91878400D03*
X79936900Y-95078400D03*
X79936900Y-92678400D03*
X78416900Y-92678400D03*
X78416900Y-95078400D03*
X79936900Y-93478400D03*
X78416900Y-93478400D03*
X79936900Y-94278400D03*
X78416900Y-94278400D03*
X89126900Y-91878400D03*
X89126900Y-91078400D03*
X89126900Y-96678400D03*
X89126900Y-95878400D03*
X87606900Y-95878400D03*
X87606900Y-96678400D03*
X87606900Y-91078400D03*
X87606900Y-91878400D03*
X89126900Y-95078400D03*
X89126900Y-92678400D03*
X87606900Y-92678400D03*
X87606900Y-95078400D03*
X89126900Y-93478400D03*
X87606900Y-93478400D03*
X89126900Y-94278400D03*
X87606900Y-94278400D03*
X98316900Y-91878400D03*
X98316900Y-91078400D03*
X98316900Y-96678400D03*
X98316900Y-95878400D03*
X96796900Y-95878400D03*
X96796900Y-96678400D03*
X96796900Y-91078400D03*
X96796900Y-91878400D03*
X98316900Y-95078400D03*
X98316900Y-92678400D03*
X96796900Y-92678400D03*
X96796900Y-95078400D03*
X98316900Y-93478400D03*
X96796900Y-93478400D03*
X98316900Y-94278400D03*
X96796900Y-94278400D03*
X107506900Y-91878400D03*
X107506900Y-91078400D03*
X107506900Y-96678400D03*
X107506900Y-95878400D03*
X105986900Y-95878400D03*
X105986900Y-96678400D03*
X105986900Y-91078400D03*
X105986900Y-91878400D03*
X107506900Y-95078400D03*
X107506900Y-92678400D03*
X105986900Y-92678400D03*
X105986900Y-95078400D03*
X107506900Y-93478400D03*
X105986900Y-93478400D03*
X107506900Y-94278400D03*
X105986900Y-94278400D03*
X116696900Y-91878400D03*
X116696900Y-91078400D03*
X116696900Y-96678400D03*
X116696900Y-95878400D03*
X115176900Y-95878400D03*
X115176900Y-96678400D03*
X115176900Y-91078400D03*
X115176900Y-91878400D03*
X116696900Y-95078400D03*
X116696900Y-92678400D03*
X115176900Y-92678400D03*
X115176900Y-95078400D03*
X116696900Y-93478400D03*
X115176900Y-93478400D03*
X116696900Y-94278400D03*
X115176900Y-94278400D03*
X125886900Y-91878400D03*
X125886900Y-91078400D03*
X125886900Y-96678400D03*
X125886900Y-95878400D03*
X124366900Y-95878400D03*
X124366900Y-96678400D03*
X124366900Y-91078400D03*
X124366900Y-91878400D03*
X125886900Y-95078400D03*
X125886900Y-92678400D03*
X124366900Y-92678400D03*
X124366900Y-95078400D03*
X125886900Y-93478400D03*
X124366900Y-93478400D03*
X125886900Y-94278400D03*
X124366900Y-94278400D03*
X135076900Y-91878400D03*
X135076900Y-91078400D03*
X135076900Y-96678400D03*
X135076900Y-95878400D03*
X133556900Y-95878400D03*
X133556900Y-96678400D03*
X133556900Y-91078400D03*
X133556900Y-91878400D03*
X135076900Y-95078400D03*
X135076900Y-92678400D03*
X133556900Y-92678400D03*
X133556900Y-95078400D03*
X135076900Y-93478400D03*
X133556900Y-93478400D03*
X135076900Y-94278400D03*
X133556900Y-94278400D03*
X144266900Y-91878400D03*
X144266900Y-91078400D03*
X144266900Y-96678400D03*
X144266900Y-95878400D03*
X142746900Y-95878400D03*
X142746900Y-96678400D03*
X142746900Y-91078400D03*
X142746900Y-91878400D03*
X144266900Y-95078400D03*
X144266900Y-92678400D03*
X142746900Y-92678400D03*
X142746900Y-95078400D03*
X144266900Y-93478400D03*
X142746900Y-93478400D03*
X144266900Y-94278400D03*
X142746900Y-94278400D03*
X153456900Y-91878400D03*
X153456900Y-91078400D03*
X153456900Y-96678400D03*
X153456900Y-95878400D03*
X151936900Y-95878400D03*
X151936900Y-96678400D03*
X151936900Y-91078400D03*
X151936900Y-91878400D03*
X153456900Y-95078400D03*
X153456900Y-92678400D03*
X151936900Y-92678400D03*
X151936900Y-95078400D03*
X153456900Y-93478400D03*
X151936900Y-93478400D03*
X153456900Y-94278400D03*
X151936900Y-94278400D03*
D13*
X78426900Y-89560400D03*
X79926900Y-89560400D03*
X87616900Y-89560400D03*
X89116900Y-89560400D03*
X96806900Y-89560400D03*
X98306900Y-89560400D03*
X105996900Y-89560400D03*
X107496900Y-89560400D03*
X115186900Y-89560400D03*
X116686900Y-89560400D03*
X124376900Y-89560400D03*
X125876900Y-89560400D03*
X133566900Y-89560400D03*
X135066900Y-89560400D03*
X142756900Y-89560400D03*
X144256900Y-89560400D03*
X151946900Y-89560400D03*
X153446900Y-89560400D03*
D19*
X164836900Y-83665900D03*
X164836900Y-84315900D03*
X164836900Y-84965900D03*
X164836900Y-85615900D03*
X164836900Y-86265900D03*
X164836900Y-86915900D03*
X164836900Y-87565900D03*
X164836900Y-88215900D03*
X158936900Y-88215900D03*
X158936900Y-87565900D03*
X158936900Y-86915900D03*
X158936900Y-86265900D03*
X158936900Y-85615900D03*
X158936900Y-84965900D03*
X158936900Y-84315900D03*
X158936900Y-83665900D03*
D10*
X141652200Y-72612800D03*
X141652200Y-71962800D03*
X141652200Y-71312800D03*
X141652200Y-70662800D03*
X141652200Y-70012800D03*
X141652200Y-69362800D03*
X141652200Y-68712800D03*
X147552200Y-68712800D03*
X147552200Y-69362800D03*
X147552200Y-70012800D03*
X147552200Y-70662800D03*
X147552200Y-71312800D03*
X147552200Y-71962800D03*
X147552200Y-72612800D03*
D20*
X161126900Y-94278400D03*
X162646900Y-94278400D03*
X161126900Y-93478400D03*
X162646900Y-93478400D03*
X161126900Y-95078400D03*
X161126900Y-92678400D03*
X162646900Y-92678400D03*
X162646900Y-95078400D03*
X161126900Y-91878400D03*
X161126900Y-91078400D03*
X161126900Y-96678400D03*
X161126900Y-95878400D03*
X162646900Y-95878400D03*
X162646900Y-96678400D03*
X162646900Y-91078400D03*
X162646900Y-91878400D03*
D17*
X77177200Y-73609200D03*
X78677200Y-73609200D03*
X165062600Y-81876900D03*
X163562600Y-81876900D03*
D12*
X161950400Y-78802800D03*
X161950400Y-80302800D03*
D17*
X147879500Y-106629200D03*
X146379500Y-106629200D03*
X111062200Y-106603800D03*
X109562200Y-106603800D03*
X120218900Y-106603800D03*
X118718900Y-106603800D03*
X138659300Y-106629200D03*
X137159300Y-106629200D03*
X101892800Y-106578400D03*
X100392800Y-106578400D03*
X129489900Y-106616500D03*
X127989900Y-106616500D03*
X92685300Y-106540300D03*
X91185300Y-106540300D03*
D12*
X136296400Y-65367600D03*
X136296400Y-63867600D03*
X137922000Y-65367600D03*
X137922000Y-63867600D03*
X145288000Y-65697800D03*
X145288000Y-64197800D03*
X146812000Y-65697800D03*
X146812000Y-64197800D03*
D21*
X75438000Y-71492400D03*
X75438000Y-73592400D03*
D22*
X159986000Y-77216000D03*
X162086000Y-77216000D03*
D13*
X162636900Y-89560400D03*
X161136900Y-89560400D03*
X83685300Y-77584300D03*
X82185300Y-77584300D03*
X147879500Y-105168700D03*
X146379500Y-105168700D03*
X111062200Y-105143300D03*
X109562200Y-105143300D03*
X120218900Y-105143300D03*
X118718900Y-105143300D03*
X138659300Y-105168700D03*
X137159300Y-105168700D03*
X101892800Y-105117900D03*
X100392800Y-105117900D03*
X83731800Y-74460100D03*
X82231800Y-74460100D03*
X129489900Y-105156000D03*
X127989900Y-105156000D03*
X92682800Y-105079800D03*
X91182800Y-105079800D03*
X145274600Y-66979800D03*
X146774600Y-66979800D03*
X155461400Y-74295000D03*
X153961400Y-74295000D03*
M02*
