G04 #@! TF.GenerationSoftware,KiCad,Pcbnew,(5.1.4)-1*
G04 #@! TF.CreationDate,2019-12-15T14:44:31-06:00*
G04 #@! TF.ProjectId,Incrementor,496e6372-656d-4656-9e74-6f722e6b6963,rev?*
G04 #@! TF.SameCoordinates,Original*
G04 #@! TF.FileFunction,Soldermask,Bot*
G04 #@! TF.FilePolarity,Negative*
%FSLAX46Y46*%
G04 Gerber Fmt 4.6, Leading zero omitted, Abs format (unit mm)*
G04 Created by KiCad (PCBNEW (5.1.4)-1) date 2019-12-15 14:44:31*
%MOMM*%
%LPD*%
G04 APERTURE LIST*
%ADD10C,0.100000*%
%ADD11C,0.010000*%
G04 APERTURE END LIST*
D10*
G36*
X86334600Y-108661200D02*
G01*
X81864200Y-108661200D01*
X81864200Y-106781600D01*
X86334600Y-106781600D01*
X86334600Y-108661200D01*
G37*
X86334600Y-108661200D02*
X81864200Y-108661200D01*
X81864200Y-106781600D01*
X86334600Y-106781600D01*
X86334600Y-108661200D01*
D11*
G36*
X156031559Y-61987960D02*
G01*
X155913955Y-62054395D01*
X155820477Y-62157045D01*
X155776688Y-62243124D01*
X155746078Y-62381614D01*
X155755179Y-62519591D01*
X155802527Y-62641084D01*
X155814912Y-62659850D01*
X155905351Y-62747408D01*
X156024229Y-62807553D01*
X156157167Y-62837418D01*
X156289787Y-62834134D01*
X156407710Y-62794832D01*
X156428494Y-62782244D01*
X156510763Y-62703394D01*
X156578586Y-62594770D01*
X156620753Y-62477295D01*
X156629100Y-62407799D01*
X156609826Y-62298575D01*
X156559310Y-62184110D01*
X156488518Y-62085158D01*
X156432858Y-62036295D01*
X156300639Y-61975876D01*
X156163663Y-61960776D01*
X156031559Y-61987960D01*
X156031559Y-61987960D01*
G37*
X156031559Y-61987960D02*
X155913955Y-62054395D01*
X155820477Y-62157045D01*
X155776688Y-62243124D01*
X155746078Y-62381614D01*
X155755179Y-62519591D01*
X155802527Y-62641084D01*
X155814912Y-62659850D01*
X155905351Y-62747408D01*
X156024229Y-62807553D01*
X156157167Y-62837418D01*
X156289787Y-62834134D01*
X156407710Y-62794832D01*
X156428494Y-62782244D01*
X156510763Y-62703394D01*
X156578586Y-62594770D01*
X156620753Y-62477295D01*
X156629100Y-62407799D01*
X156609826Y-62298575D01*
X156559310Y-62184110D01*
X156488518Y-62085158D01*
X156432858Y-62036295D01*
X156300639Y-61975876D01*
X156163663Y-61960776D01*
X156031559Y-61987960D01*
G36*
X155790900Y-64854045D02*
G01*
X155790679Y-65125528D01*
X155789917Y-65350618D01*
X155788474Y-65533721D01*
X155786206Y-65679240D01*
X155782969Y-65791583D01*
X155778622Y-65875155D01*
X155773020Y-65934359D01*
X155766022Y-65973603D01*
X155757484Y-65997292D01*
X155753608Y-66003395D01*
X155727322Y-66040943D01*
X155716609Y-66069085D01*
X155726790Y-66089174D01*
X155763188Y-66102563D01*
X155831124Y-66110605D01*
X155935922Y-66114653D01*
X156082902Y-66116060D01*
X156197300Y-66116200D01*
X156347582Y-66115515D01*
X156478773Y-66113608D01*
X156583073Y-66110702D01*
X156652681Y-66107017D01*
X156679795Y-66102776D01*
X156679900Y-66102488D01*
X156669345Y-66073454D01*
X156642774Y-66016509D01*
X156629100Y-65989200D01*
X156616234Y-65961760D01*
X156605741Y-65931394D01*
X156597380Y-65892920D01*
X156590909Y-65841155D01*
X156586089Y-65770918D01*
X156582678Y-65677027D01*
X156580435Y-65554301D01*
X156579119Y-65397559D01*
X156578490Y-65201617D01*
X156578305Y-64961296D01*
X156578300Y-64896750D01*
X156578553Y-64639269D01*
X156579429Y-64427749D01*
X156581104Y-64257351D01*
X156583752Y-64123238D01*
X156587550Y-64020571D01*
X156592673Y-63944513D01*
X156599297Y-63890226D01*
X156607597Y-63852872D01*
X156617053Y-63828938D01*
X156655805Y-63754000D01*
X155790900Y-63754000D01*
X155790900Y-64854045D01*
X155790900Y-64854045D01*
G37*
X155790900Y-64854045D02*
X155790679Y-65125528D01*
X155789917Y-65350618D01*
X155788474Y-65533721D01*
X155786206Y-65679240D01*
X155782969Y-65791583D01*
X155778622Y-65875155D01*
X155773020Y-65934359D01*
X155766022Y-65973603D01*
X155757484Y-65997292D01*
X155753608Y-66003395D01*
X155727322Y-66040943D01*
X155716609Y-66069085D01*
X155726790Y-66089174D01*
X155763188Y-66102563D01*
X155831124Y-66110605D01*
X155935922Y-66114653D01*
X156082902Y-66116060D01*
X156197300Y-66116200D01*
X156347582Y-66115515D01*
X156478773Y-66113608D01*
X156583073Y-66110702D01*
X156652681Y-66107017D01*
X156679795Y-66102776D01*
X156679900Y-66102488D01*
X156669345Y-66073454D01*
X156642774Y-66016509D01*
X156629100Y-65989200D01*
X156616234Y-65961760D01*
X156605741Y-65931394D01*
X156597380Y-65892920D01*
X156590909Y-65841155D01*
X156586089Y-65770918D01*
X156582678Y-65677027D01*
X156580435Y-65554301D01*
X156579119Y-65397559D01*
X156578490Y-65201617D01*
X156578305Y-64961296D01*
X156578300Y-64896750D01*
X156578553Y-64639269D01*
X156579429Y-64427749D01*
X156581104Y-64257351D01*
X156583752Y-64123238D01*
X156587550Y-64020571D01*
X156592673Y-63944513D01*
X156599297Y-63890226D01*
X156607597Y-63852872D01*
X156617053Y-63828938D01*
X156655805Y-63754000D01*
X155790900Y-63754000D01*
X155790900Y-64854045D01*
G36*
X157373753Y-62890400D02*
G01*
X156828441Y-62890400D01*
X157027221Y-63091787D01*
X157356929Y-63454691D01*
X157571349Y-63728815D01*
X157649797Y-63832400D01*
X157744356Y-63952529D01*
X157844450Y-64076202D01*
X157939502Y-64190419D01*
X158018934Y-64282181D01*
X158044032Y-64309760D01*
X158125464Y-64397212D01*
X158055506Y-64488356D01*
X157920064Y-64677604D01*
X157832522Y-64817050D01*
X157777652Y-64899286D01*
X157716376Y-64978612D01*
X157711227Y-64984607D01*
X157642278Y-65067581D01*
X157561753Y-65170137D01*
X157478558Y-65280288D01*
X157401598Y-65386047D01*
X157339781Y-65475425D01*
X157304124Y-65532547D01*
X157269043Y-65585596D01*
X157210514Y-65664062D01*
X157138680Y-65755252D01*
X157063685Y-65846472D01*
X156995672Y-65925032D01*
X156959300Y-65964020D01*
X156935411Y-65990081D01*
X156893137Y-66037406D01*
X156885023Y-66046570D01*
X156823445Y-66116200D01*
X157949900Y-66116200D01*
X157949900Y-66037923D01*
X157966663Y-65961395D01*
X158013893Y-65856149D01*
X158087007Y-65730239D01*
X158181419Y-65591716D01*
X158268958Y-65477533D01*
X158340232Y-65385313D01*
X158405553Y-65294269D01*
X158452723Y-65221535D01*
X158458829Y-65210833D01*
X158498871Y-65144434D01*
X158534158Y-65096284D01*
X158542801Y-65087500D01*
X158577362Y-65048816D01*
X158617585Y-64992250D01*
X158655274Y-64944093D01*
X158685785Y-64922487D01*
X158687086Y-64922400D01*
X158695962Y-64947091D01*
X158703082Y-65018381D01*
X158708236Y-65132092D01*
X158711217Y-65284044D01*
X158711900Y-65418961D01*
X158711216Y-65598263D01*
X158708805Y-65734270D01*
X158704125Y-65834475D01*
X158696637Y-65906369D01*
X158685802Y-65957443D01*
X158671079Y-65995188D01*
X158670256Y-65996811D01*
X158634783Y-66056491D01*
X158603277Y-66094618D01*
X158600406Y-66096761D01*
X158615903Y-66102323D01*
X158675253Y-66107262D01*
X158771514Y-66111312D01*
X158897741Y-66114207D01*
X159046989Y-66115682D01*
X159098706Y-66115811D01*
X159625211Y-66116200D01*
X159595532Y-66046350D01*
X159567359Y-65987758D01*
X159545276Y-65952370D01*
X159541443Y-65923142D01*
X159537843Y-65847781D01*
X159534541Y-65730951D01*
X159531604Y-65577317D01*
X159529101Y-65391546D01*
X159527096Y-65178302D01*
X159525658Y-64942251D01*
X159524853Y-64688059D01*
X159524701Y-64516290D01*
X159524759Y-64212311D01*
X159525030Y-63954912D01*
X159525654Y-63739874D01*
X159526774Y-63562978D01*
X159528531Y-63420004D01*
X159531067Y-63306733D01*
X159534524Y-63218945D01*
X159539043Y-63152421D01*
X159544767Y-63102941D01*
X159551838Y-63066286D01*
X159560396Y-63038237D01*
X159570584Y-63014574D01*
X159575501Y-63004699D01*
X159606256Y-62942869D01*
X159624310Y-62903660D01*
X159626301Y-62897729D01*
X159602165Y-62895507D01*
X159534812Y-62893556D01*
X159431828Y-62891984D01*
X159300794Y-62890901D01*
X159149295Y-62890415D01*
X159115583Y-62890400D01*
X158942440Y-62890664D01*
X158813871Y-62891831D01*
X158723654Y-62894464D01*
X158665563Y-62899123D01*
X158633376Y-62906372D01*
X158620868Y-62916772D01*
X158621814Y-62930885D01*
X158623336Y-62934850D01*
X158656695Y-63023673D01*
X158680761Y-63112181D01*
X158696920Y-63211141D01*
X158706558Y-63331321D01*
X158711060Y-63483488D01*
X158711900Y-63623088D01*
X158711901Y-64042904D01*
X158635701Y-63969900D01*
X158588087Y-63919557D01*
X158561506Y-63882278D01*
X158559500Y-63875483D01*
X158544363Y-63849550D01*
X158504872Y-63796128D01*
X158449912Y-63726145D01*
X158388368Y-63650529D01*
X158329123Y-63580209D01*
X158281061Y-63526114D01*
X158254261Y-63500000D01*
X158231939Y-63472734D01*
X158193564Y-63416630D01*
X158165698Y-63373000D01*
X158107495Y-63285298D01*
X158044549Y-63198698D01*
X158022201Y-63170362D01*
X157977487Y-63103736D01*
X157952092Y-63042643D01*
X157949900Y-63026390D01*
X157949378Y-62982677D01*
X157943709Y-62949502D01*
X157926738Y-62925412D01*
X157892311Y-62908955D01*
X157834274Y-62898677D01*
X157746472Y-62893127D01*
X157622750Y-62890851D01*
X157456955Y-62890396D01*
X157373753Y-62890400D01*
X157373753Y-62890400D01*
G37*
X157373753Y-62890400D02*
X156828441Y-62890400D01*
X157027221Y-63091787D01*
X157356929Y-63454691D01*
X157571349Y-63728815D01*
X157649797Y-63832400D01*
X157744356Y-63952529D01*
X157844450Y-64076202D01*
X157939502Y-64190419D01*
X158018934Y-64282181D01*
X158044032Y-64309760D01*
X158125464Y-64397212D01*
X158055506Y-64488356D01*
X157920064Y-64677604D01*
X157832522Y-64817050D01*
X157777652Y-64899286D01*
X157716376Y-64978612D01*
X157711227Y-64984607D01*
X157642278Y-65067581D01*
X157561753Y-65170137D01*
X157478558Y-65280288D01*
X157401598Y-65386047D01*
X157339781Y-65475425D01*
X157304124Y-65532547D01*
X157269043Y-65585596D01*
X157210514Y-65664062D01*
X157138680Y-65755252D01*
X157063685Y-65846472D01*
X156995672Y-65925032D01*
X156959300Y-65964020D01*
X156935411Y-65990081D01*
X156893137Y-66037406D01*
X156885023Y-66046570D01*
X156823445Y-66116200D01*
X157949900Y-66116200D01*
X157949900Y-66037923D01*
X157966663Y-65961395D01*
X158013893Y-65856149D01*
X158087007Y-65730239D01*
X158181419Y-65591716D01*
X158268958Y-65477533D01*
X158340232Y-65385313D01*
X158405553Y-65294269D01*
X158452723Y-65221535D01*
X158458829Y-65210833D01*
X158498871Y-65144434D01*
X158534158Y-65096284D01*
X158542801Y-65087500D01*
X158577362Y-65048816D01*
X158617585Y-64992250D01*
X158655274Y-64944093D01*
X158685785Y-64922487D01*
X158687086Y-64922400D01*
X158695962Y-64947091D01*
X158703082Y-65018381D01*
X158708236Y-65132092D01*
X158711217Y-65284044D01*
X158711900Y-65418961D01*
X158711216Y-65598263D01*
X158708805Y-65734270D01*
X158704125Y-65834475D01*
X158696637Y-65906369D01*
X158685802Y-65957443D01*
X158671079Y-65995188D01*
X158670256Y-65996811D01*
X158634783Y-66056491D01*
X158603277Y-66094618D01*
X158600406Y-66096761D01*
X158615903Y-66102323D01*
X158675253Y-66107262D01*
X158771514Y-66111312D01*
X158897741Y-66114207D01*
X159046989Y-66115682D01*
X159098706Y-66115811D01*
X159625211Y-66116200D01*
X159595532Y-66046350D01*
X159567359Y-65987758D01*
X159545276Y-65952370D01*
X159541443Y-65923142D01*
X159537843Y-65847781D01*
X159534541Y-65730951D01*
X159531604Y-65577317D01*
X159529101Y-65391546D01*
X159527096Y-65178302D01*
X159525658Y-64942251D01*
X159524853Y-64688059D01*
X159524701Y-64516290D01*
X159524759Y-64212311D01*
X159525030Y-63954912D01*
X159525654Y-63739874D01*
X159526774Y-63562978D01*
X159528531Y-63420004D01*
X159531067Y-63306733D01*
X159534524Y-63218945D01*
X159539043Y-63152421D01*
X159544767Y-63102941D01*
X159551838Y-63066286D01*
X159560396Y-63038237D01*
X159570584Y-63014574D01*
X159575501Y-63004699D01*
X159606256Y-62942869D01*
X159624310Y-62903660D01*
X159626301Y-62897729D01*
X159602165Y-62895507D01*
X159534812Y-62893556D01*
X159431828Y-62891984D01*
X159300794Y-62890901D01*
X159149295Y-62890415D01*
X159115583Y-62890400D01*
X158942440Y-62890664D01*
X158813871Y-62891831D01*
X158723654Y-62894464D01*
X158665563Y-62899123D01*
X158633376Y-62906372D01*
X158620868Y-62916772D01*
X158621814Y-62930885D01*
X158623336Y-62934850D01*
X158656695Y-63023673D01*
X158680761Y-63112181D01*
X158696920Y-63211141D01*
X158706558Y-63331321D01*
X158711060Y-63483488D01*
X158711900Y-63623088D01*
X158711901Y-64042904D01*
X158635701Y-63969900D01*
X158588087Y-63919557D01*
X158561506Y-63882278D01*
X158559500Y-63875483D01*
X158544363Y-63849550D01*
X158504872Y-63796128D01*
X158449912Y-63726145D01*
X158388368Y-63650529D01*
X158329123Y-63580209D01*
X158281061Y-63526114D01*
X158254261Y-63500000D01*
X158231939Y-63472734D01*
X158193564Y-63416630D01*
X158165698Y-63373000D01*
X158107495Y-63285298D01*
X158044549Y-63198698D01*
X158022201Y-63170362D01*
X157977487Y-63103736D01*
X157952092Y-63042643D01*
X157949900Y-63026390D01*
X157949378Y-62982677D01*
X157943709Y-62949502D01*
X157926738Y-62925412D01*
X157892311Y-62908955D01*
X157834274Y-62898677D01*
X157746472Y-62893127D01*
X157622750Y-62890851D01*
X157456955Y-62890396D01*
X157373753Y-62890400D01*
D10*
G36*
X148180500Y-107130200D02*
G01*
X147578500Y-107130200D01*
X147578500Y-106128200D01*
X148180500Y-106128200D01*
X148180500Y-107130200D01*
X148180500Y-107130200D01*
G37*
G36*
X146680500Y-107130200D02*
G01*
X146078500Y-107130200D01*
X146078500Y-106128200D01*
X146680500Y-106128200D01*
X146680500Y-107130200D01*
X146680500Y-107130200D01*
G37*
G36*
X138960300Y-107130200D02*
G01*
X138358300Y-107130200D01*
X138358300Y-106128200D01*
X138960300Y-106128200D01*
X138960300Y-107130200D01*
X138960300Y-107130200D01*
G37*
G36*
X137460300Y-107130200D02*
G01*
X136858300Y-107130200D01*
X136858300Y-106128200D01*
X137460300Y-106128200D01*
X137460300Y-107130200D01*
X137460300Y-107130200D01*
G37*
G36*
X129790900Y-107117500D02*
G01*
X129188900Y-107117500D01*
X129188900Y-106115500D01*
X129790900Y-106115500D01*
X129790900Y-107117500D01*
X129790900Y-107117500D01*
G37*
G36*
X128290900Y-107117500D02*
G01*
X127688900Y-107117500D01*
X127688900Y-106115500D01*
X128290900Y-106115500D01*
X128290900Y-107117500D01*
X128290900Y-107117500D01*
G37*
G36*
X119019900Y-107104800D02*
G01*
X118417900Y-107104800D01*
X118417900Y-106102800D01*
X119019900Y-106102800D01*
X119019900Y-107104800D01*
X119019900Y-107104800D01*
G37*
G36*
X111363200Y-107104800D02*
G01*
X110761200Y-107104800D01*
X110761200Y-106102800D01*
X111363200Y-106102800D01*
X111363200Y-107104800D01*
X111363200Y-107104800D01*
G37*
G36*
X109863200Y-107104800D02*
G01*
X109261200Y-107104800D01*
X109261200Y-106102800D01*
X109863200Y-106102800D01*
X109863200Y-107104800D01*
X109863200Y-107104800D01*
G37*
G36*
X120519900Y-107104800D02*
G01*
X119917900Y-107104800D01*
X119917900Y-106102800D01*
X120519900Y-106102800D01*
X120519900Y-107104800D01*
X120519900Y-107104800D01*
G37*
G36*
X100693800Y-107079400D02*
G01*
X100091800Y-107079400D01*
X100091800Y-106077400D01*
X100693800Y-106077400D01*
X100693800Y-107079400D01*
X100693800Y-107079400D01*
G37*
G36*
X102193800Y-107079400D02*
G01*
X101591800Y-107079400D01*
X101591800Y-106077400D01*
X102193800Y-106077400D01*
X102193800Y-107079400D01*
X102193800Y-107079400D01*
G37*
G36*
X92986300Y-107041300D02*
G01*
X92384300Y-107041300D01*
X92384300Y-106039300D01*
X92986300Y-106039300D01*
X92986300Y-107041300D01*
X92986300Y-107041300D01*
G37*
G36*
X91486300Y-107041300D02*
G01*
X90884300Y-107041300D01*
X90884300Y-106039300D01*
X91486300Y-106039300D01*
X91486300Y-107041300D01*
X91486300Y-107041300D01*
G37*
G36*
X163370585Y-103838002D02*
G01*
X163520410Y-103867804D01*
X163802674Y-103984721D01*
X164056705Y-104154459D01*
X164272741Y-104370495D01*
X164442479Y-104624526D01*
X164559396Y-104906790D01*
X164559396Y-104906791D01*
X164619000Y-105206439D01*
X164619000Y-105511961D01*
X164605068Y-105582000D01*
X164559396Y-105811610D01*
X164442479Y-106093874D01*
X164272741Y-106347905D01*
X164056705Y-106563941D01*
X163802674Y-106733679D01*
X163520410Y-106850596D01*
X163370585Y-106880398D01*
X163220761Y-106910200D01*
X162915239Y-106910200D01*
X162765415Y-106880398D01*
X162615590Y-106850596D01*
X162333326Y-106733679D01*
X162079295Y-106563941D01*
X161863259Y-106347905D01*
X161693521Y-106093874D01*
X161576604Y-105811610D01*
X161530932Y-105582000D01*
X161517000Y-105511961D01*
X161517000Y-105206439D01*
X161576604Y-104906791D01*
X161576604Y-104906790D01*
X161693521Y-104624526D01*
X161863259Y-104370495D01*
X162079295Y-104154459D01*
X162333326Y-103984721D01*
X162615590Y-103867804D01*
X162765415Y-103838002D01*
X162915239Y-103808200D01*
X163220761Y-103808200D01*
X163370585Y-103838002D01*
X163370585Y-103838002D01*
G37*
G36*
X78128185Y-103838002D02*
G01*
X78278010Y-103867804D01*
X78560274Y-103984721D01*
X78814305Y-104154459D01*
X79030341Y-104370495D01*
X79200079Y-104624526D01*
X79316996Y-104906790D01*
X79316996Y-104906791D01*
X79376600Y-105206439D01*
X79376600Y-105511961D01*
X79362668Y-105582000D01*
X79316996Y-105811610D01*
X79200079Y-106093874D01*
X79030341Y-106347905D01*
X78814305Y-106563941D01*
X78560274Y-106733679D01*
X78278010Y-106850596D01*
X78128185Y-106880398D01*
X77978361Y-106910200D01*
X77672839Y-106910200D01*
X77523015Y-106880398D01*
X77373190Y-106850596D01*
X77090926Y-106733679D01*
X76836895Y-106563941D01*
X76620859Y-106347905D01*
X76451121Y-106093874D01*
X76334204Y-105811610D01*
X76288532Y-105582000D01*
X76274600Y-105511961D01*
X76274600Y-105206439D01*
X76334204Y-104906791D01*
X76334204Y-104906790D01*
X76451121Y-104624526D01*
X76620859Y-104370495D01*
X76836895Y-104154459D01*
X77090926Y-103984721D01*
X77373190Y-103867804D01*
X77523015Y-103838002D01*
X77672839Y-103808200D01*
X77978361Y-103808200D01*
X78128185Y-103838002D01*
X78128185Y-103838002D01*
G37*
G36*
X148330500Y-105594700D02*
G01*
X147428500Y-105594700D01*
X147428500Y-104742700D01*
X148330500Y-104742700D01*
X148330500Y-105594700D01*
X148330500Y-105594700D01*
G37*
G36*
X146830500Y-105594700D02*
G01*
X145928500Y-105594700D01*
X145928500Y-104742700D01*
X146830500Y-104742700D01*
X146830500Y-105594700D01*
X146830500Y-105594700D01*
G37*
G36*
X139110300Y-105594700D02*
G01*
X138208300Y-105594700D01*
X138208300Y-104742700D01*
X139110300Y-104742700D01*
X139110300Y-105594700D01*
X139110300Y-105594700D01*
G37*
G36*
X137610300Y-105594700D02*
G01*
X136708300Y-105594700D01*
X136708300Y-104742700D01*
X137610300Y-104742700D01*
X137610300Y-105594700D01*
X137610300Y-105594700D01*
G37*
G36*
X129940900Y-105582000D02*
G01*
X129038900Y-105582000D01*
X129038900Y-104730000D01*
X129940900Y-104730000D01*
X129940900Y-105582000D01*
X129940900Y-105582000D01*
G37*
G36*
X128440900Y-105582000D02*
G01*
X127538900Y-105582000D01*
X127538900Y-104730000D01*
X128440900Y-104730000D01*
X128440900Y-105582000D01*
X128440900Y-105582000D01*
G37*
G36*
X119169900Y-105569300D02*
G01*
X118267900Y-105569300D01*
X118267900Y-104717300D01*
X119169900Y-104717300D01*
X119169900Y-105569300D01*
X119169900Y-105569300D01*
G37*
G36*
X111513200Y-105569300D02*
G01*
X110611200Y-105569300D01*
X110611200Y-104717300D01*
X111513200Y-104717300D01*
X111513200Y-105569300D01*
X111513200Y-105569300D01*
G37*
G36*
X110013200Y-105569300D02*
G01*
X109111200Y-105569300D01*
X109111200Y-104717300D01*
X110013200Y-104717300D01*
X110013200Y-105569300D01*
X110013200Y-105569300D01*
G37*
G36*
X120669900Y-105569300D02*
G01*
X119767900Y-105569300D01*
X119767900Y-104717300D01*
X120669900Y-104717300D01*
X120669900Y-105569300D01*
X120669900Y-105569300D01*
G37*
G36*
X102343800Y-105543900D02*
G01*
X101441800Y-105543900D01*
X101441800Y-104691900D01*
X102343800Y-104691900D01*
X102343800Y-105543900D01*
X102343800Y-105543900D01*
G37*
G36*
X100843800Y-105543900D02*
G01*
X99941800Y-105543900D01*
X99941800Y-104691900D01*
X100843800Y-104691900D01*
X100843800Y-105543900D01*
X100843800Y-105543900D01*
G37*
G36*
X93133800Y-105505800D02*
G01*
X92231800Y-105505800D01*
X92231800Y-104653800D01*
X93133800Y-104653800D01*
X93133800Y-105505800D01*
X93133800Y-105505800D01*
G37*
G36*
X91633800Y-105505800D02*
G01*
X90731800Y-105505800D01*
X90731800Y-104653800D01*
X91633800Y-104653800D01*
X91633800Y-105505800D01*
X91633800Y-105505800D01*
G37*
G36*
X164611628Y-99219603D02*
G01*
X164766500Y-99283753D01*
X164905881Y-99376885D01*
X165024415Y-99495419D01*
X165117547Y-99634800D01*
X165181697Y-99789672D01*
X165214400Y-99954084D01*
X165214400Y-100121716D01*
X165181697Y-100286128D01*
X165117547Y-100441000D01*
X165024415Y-100580381D01*
X164905881Y-100698915D01*
X164766500Y-100792047D01*
X164611628Y-100856197D01*
X164447216Y-100888900D01*
X164279584Y-100888900D01*
X164115172Y-100856197D01*
X163960300Y-100792047D01*
X163820919Y-100698915D01*
X163702385Y-100580381D01*
X163609253Y-100441000D01*
X163545103Y-100286128D01*
X163512400Y-100121716D01*
X163512400Y-99954084D01*
X163545103Y-99789672D01*
X163609253Y-99634800D01*
X163702385Y-99495419D01*
X163820919Y-99376885D01*
X163960300Y-99283753D01*
X164115172Y-99219603D01*
X164279584Y-99186900D01*
X164447216Y-99186900D01*
X164611628Y-99219603D01*
X164611628Y-99219603D01*
G37*
G36*
X91091628Y-99219603D02*
G01*
X91246500Y-99283753D01*
X91385881Y-99376885D01*
X91504415Y-99495419D01*
X91597547Y-99634800D01*
X91661697Y-99789672D01*
X91694400Y-99954084D01*
X91694400Y-100121716D01*
X91661697Y-100286128D01*
X91597547Y-100441000D01*
X91504415Y-100580381D01*
X91385881Y-100698915D01*
X91246500Y-100792047D01*
X91091628Y-100856197D01*
X90927216Y-100888900D01*
X90759584Y-100888900D01*
X90595172Y-100856197D01*
X90440300Y-100792047D01*
X90300919Y-100698915D01*
X90182385Y-100580381D01*
X90089253Y-100441000D01*
X90025103Y-100286128D01*
X89992400Y-100121716D01*
X89992400Y-99954084D01*
X90025103Y-99789672D01*
X90089253Y-99634800D01*
X90182385Y-99495419D01*
X90300919Y-99376885D01*
X90440300Y-99283753D01*
X90595172Y-99219603D01*
X90759584Y-99186900D01*
X90927216Y-99186900D01*
X91091628Y-99219603D01*
X91091628Y-99219603D01*
G37*
G36*
X76821628Y-99219603D02*
G01*
X76976500Y-99283753D01*
X77115881Y-99376885D01*
X77234415Y-99495419D01*
X77327547Y-99634800D01*
X77391697Y-99789672D01*
X77424400Y-99954084D01*
X77424400Y-100121716D01*
X77391697Y-100286128D01*
X77327547Y-100441000D01*
X77234415Y-100580381D01*
X77115881Y-100698915D01*
X76976500Y-100792047D01*
X76821628Y-100856197D01*
X76657216Y-100888900D01*
X76489584Y-100888900D01*
X76325172Y-100856197D01*
X76170300Y-100792047D01*
X76030919Y-100698915D01*
X75912385Y-100580381D01*
X75819253Y-100441000D01*
X75755103Y-100286128D01*
X75722400Y-100121716D01*
X75722400Y-99954084D01*
X75755103Y-99789672D01*
X75819253Y-99634800D01*
X75912385Y-99495419D01*
X76030919Y-99376885D01*
X76170300Y-99283753D01*
X76325172Y-99219603D01*
X76489584Y-99186900D01*
X76657216Y-99186900D01*
X76821628Y-99219603D01*
X76821628Y-99219603D01*
G37*
G36*
X81901628Y-99219603D02*
G01*
X82056500Y-99283753D01*
X82195881Y-99376885D01*
X82314415Y-99495419D01*
X82407547Y-99634800D01*
X82471697Y-99789672D01*
X82504400Y-99954084D01*
X82504400Y-100121716D01*
X82471697Y-100286128D01*
X82407547Y-100441000D01*
X82314415Y-100580381D01*
X82195881Y-100698915D01*
X82056500Y-100792047D01*
X81901628Y-100856197D01*
X81737216Y-100888900D01*
X81569584Y-100888900D01*
X81405172Y-100856197D01*
X81250300Y-100792047D01*
X81110919Y-100698915D01*
X80992385Y-100580381D01*
X80899253Y-100441000D01*
X80835103Y-100286128D01*
X80802400Y-100121716D01*
X80802400Y-99954084D01*
X80835103Y-99789672D01*
X80899253Y-99634800D01*
X80992385Y-99495419D01*
X81110919Y-99376885D01*
X81250300Y-99283753D01*
X81405172Y-99219603D01*
X81569584Y-99186900D01*
X81737216Y-99186900D01*
X81901628Y-99219603D01*
X81901628Y-99219603D01*
G37*
G36*
X146231628Y-99219603D02*
G01*
X146386500Y-99283753D01*
X146525881Y-99376885D01*
X146644415Y-99495419D01*
X146737547Y-99634800D01*
X146801697Y-99789672D01*
X146834400Y-99954084D01*
X146834400Y-100121716D01*
X146801697Y-100286128D01*
X146737547Y-100441000D01*
X146644415Y-100580381D01*
X146525881Y-100698915D01*
X146386500Y-100792047D01*
X146231628Y-100856197D01*
X146067216Y-100888900D01*
X145899584Y-100888900D01*
X145735172Y-100856197D01*
X145580300Y-100792047D01*
X145440919Y-100698915D01*
X145322385Y-100580381D01*
X145229253Y-100441000D01*
X145165103Y-100286128D01*
X145132400Y-100121716D01*
X145132400Y-99954084D01*
X145165103Y-99789672D01*
X145229253Y-99634800D01*
X145322385Y-99495419D01*
X145440919Y-99376885D01*
X145580300Y-99283753D01*
X145735172Y-99219603D01*
X145899584Y-99186900D01*
X146067216Y-99186900D01*
X146231628Y-99219603D01*
X146231628Y-99219603D01*
G37*
G36*
X141151628Y-99219603D02*
G01*
X141306500Y-99283753D01*
X141445881Y-99376885D01*
X141564415Y-99495419D01*
X141657547Y-99634800D01*
X141721697Y-99789672D01*
X141754400Y-99954084D01*
X141754400Y-100121716D01*
X141721697Y-100286128D01*
X141657547Y-100441000D01*
X141564415Y-100580381D01*
X141445881Y-100698915D01*
X141306500Y-100792047D01*
X141151628Y-100856197D01*
X140987216Y-100888900D01*
X140819584Y-100888900D01*
X140655172Y-100856197D01*
X140500300Y-100792047D01*
X140360919Y-100698915D01*
X140242385Y-100580381D01*
X140149253Y-100441000D01*
X140085103Y-100286128D01*
X140052400Y-100121716D01*
X140052400Y-99954084D01*
X140085103Y-99789672D01*
X140149253Y-99634800D01*
X140242385Y-99495419D01*
X140360919Y-99376885D01*
X140500300Y-99283753D01*
X140655172Y-99219603D01*
X140819584Y-99186900D01*
X140987216Y-99186900D01*
X141151628Y-99219603D01*
X141151628Y-99219603D01*
G37*
G36*
X155421628Y-99219603D02*
G01*
X155576500Y-99283753D01*
X155715881Y-99376885D01*
X155834415Y-99495419D01*
X155927547Y-99634800D01*
X155991697Y-99789672D01*
X156024400Y-99954084D01*
X156024400Y-100121716D01*
X155991697Y-100286128D01*
X155927547Y-100441000D01*
X155834415Y-100580381D01*
X155715881Y-100698915D01*
X155576500Y-100792047D01*
X155421628Y-100856197D01*
X155257216Y-100888900D01*
X155089584Y-100888900D01*
X154925172Y-100856197D01*
X154770300Y-100792047D01*
X154630919Y-100698915D01*
X154512385Y-100580381D01*
X154419253Y-100441000D01*
X154355103Y-100286128D01*
X154322400Y-100121716D01*
X154322400Y-99954084D01*
X154355103Y-99789672D01*
X154419253Y-99634800D01*
X154512385Y-99495419D01*
X154630919Y-99376885D01*
X154770300Y-99283753D01*
X154925172Y-99219603D01*
X155089584Y-99186900D01*
X155257216Y-99186900D01*
X155421628Y-99219603D01*
X155421628Y-99219603D01*
G37*
G36*
X150341628Y-99219603D02*
G01*
X150496500Y-99283753D01*
X150635881Y-99376885D01*
X150754415Y-99495419D01*
X150847547Y-99634800D01*
X150911697Y-99789672D01*
X150944400Y-99954084D01*
X150944400Y-100121716D01*
X150911697Y-100286128D01*
X150847547Y-100441000D01*
X150754415Y-100580381D01*
X150635881Y-100698915D01*
X150496500Y-100792047D01*
X150341628Y-100856197D01*
X150177216Y-100888900D01*
X150009584Y-100888900D01*
X149845172Y-100856197D01*
X149690300Y-100792047D01*
X149550919Y-100698915D01*
X149432385Y-100580381D01*
X149339253Y-100441000D01*
X149275103Y-100286128D01*
X149242400Y-100121716D01*
X149242400Y-99954084D01*
X149275103Y-99789672D01*
X149339253Y-99634800D01*
X149432385Y-99495419D01*
X149550919Y-99376885D01*
X149690300Y-99283753D01*
X149845172Y-99219603D01*
X150009584Y-99186900D01*
X150177216Y-99186900D01*
X150341628Y-99219603D01*
X150341628Y-99219603D01*
G37*
G36*
X159531628Y-99219603D02*
G01*
X159686500Y-99283753D01*
X159825881Y-99376885D01*
X159944415Y-99495419D01*
X160037547Y-99634800D01*
X160101697Y-99789672D01*
X160134400Y-99954084D01*
X160134400Y-100121716D01*
X160101697Y-100286128D01*
X160037547Y-100441000D01*
X159944415Y-100580381D01*
X159825881Y-100698915D01*
X159686500Y-100792047D01*
X159531628Y-100856197D01*
X159367216Y-100888900D01*
X159199584Y-100888900D01*
X159035172Y-100856197D01*
X158880300Y-100792047D01*
X158740919Y-100698915D01*
X158622385Y-100580381D01*
X158529253Y-100441000D01*
X158465103Y-100286128D01*
X158432400Y-100121716D01*
X158432400Y-99954084D01*
X158465103Y-99789672D01*
X158529253Y-99634800D01*
X158622385Y-99495419D01*
X158740919Y-99376885D01*
X158880300Y-99283753D01*
X159035172Y-99219603D01*
X159199584Y-99186900D01*
X159367216Y-99186900D01*
X159531628Y-99219603D01*
X159531628Y-99219603D01*
G37*
G36*
X131961628Y-99219603D02*
G01*
X132116500Y-99283753D01*
X132255881Y-99376885D01*
X132374415Y-99495419D01*
X132467547Y-99634800D01*
X132531697Y-99789672D01*
X132564400Y-99954084D01*
X132564400Y-100121716D01*
X132531697Y-100286128D01*
X132467547Y-100441000D01*
X132374415Y-100580381D01*
X132255881Y-100698915D01*
X132116500Y-100792047D01*
X131961628Y-100856197D01*
X131797216Y-100888900D01*
X131629584Y-100888900D01*
X131465172Y-100856197D01*
X131310300Y-100792047D01*
X131170919Y-100698915D01*
X131052385Y-100580381D01*
X130959253Y-100441000D01*
X130895103Y-100286128D01*
X130862400Y-100121716D01*
X130862400Y-99954084D01*
X130895103Y-99789672D01*
X130959253Y-99634800D01*
X131052385Y-99495419D01*
X131170919Y-99376885D01*
X131310300Y-99283753D01*
X131465172Y-99219603D01*
X131629584Y-99186900D01*
X131797216Y-99186900D01*
X131961628Y-99219603D01*
X131961628Y-99219603D01*
G37*
G36*
X95201628Y-99219603D02*
G01*
X95356500Y-99283753D01*
X95495881Y-99376885D01*
X95614415Y-99495419D01*
X95707547Y-99634800D01*
X95771697Y-99789672D01*
X95804400Y-99954084D01*
X95804400Y-100121716D01*
X95771697Y-100286128D01*
X95707547Y-100441000D01*
X95614415Y-100580381D01*
X95495881Y-100698915D01*
X95356500Y-100792047D01*
X95201628Y-100856197D01*
X95037216Y-100888900D01*
X94869584Y-100888900D01*
X94705172Y-100856197D01*
X94550300Y-100792047D01*
X94410919Y-100698915D01*
X94292385Y-100580381D01*
X94199253Y-100441000D01*
X94135103Y-100286128D01*
X94102400Y-100121716D01*
X94102400Y-99954084D01*
X94135103Y-99789672D01*
X94199253Y-99634800D01*
X94292385Y-99495419D01*
X94410919Y-99376885D01*
X94550300Y-99283753D01*
X94705172Y-99219603D01*
X94869584Y-99186900D01*
X95037216Y-99186900D01*
X95201628Y-99219603D01*
X95201628Y-99219603D01*
G37*
G36*
X109471628Y-99219603D02*
G01*
X109626500Y-99283753D01*
X109765881Y-99376885D01*
X109884415Y-99495419D01*
X109977547Y-99634800D01*
X110041697Y-99789672D01*
X110074400Y-99954084D01*
X110074400Y-100121716D01*
X110041697Y-100286128D01*
X109977547Y-100441000D01*
X109884415Y-100580381D01*
X109765881Y-100698915D01*
X109626500Y-100792047D01*
X109471628Y-100856197D01*
X109307216Y-100888900D01*
X109139584Y-100888900D01*
X108975172Y-100856197D01*
X108820300Y-100792047D01*
X108680919Y-100698915D01*
X108562385Y-100580381D01*
X108469253Y-100441000D01*
X108405103Y-100286128D01*
X108372400Y-100121716D01*
X108372400Y-99954084D01*
X108405103Y-99789672D01*
X108469253Y-99634800D01*
X108562385Y-99495419D01*
X108680919Y-99376885D01*
X108820300Y-99283753D01*
X108975172Y-99219603D01*
X109139584Y-99186900D01*
X109307216Y-99186900D01*
X109471628Y-99219603D01*
X109471628Y-99219603D01*
G37*
G36*
X104391628Y-99219603D02*
G01*
X104546500Y-99283753D01*
X104685881Y-99376885D01*
X104804415Y-99495419D01*
X104897547Y-99634800D01*
X104961697Y-99789672D01*
X104994400Y-99954084D01*
X104994400Y-100121716D01*
X104961697Y-100286128D01*
X104897547Y-100441000D01*
X104804415Y-100580381D01*
X104685881Y-100698915D01*
X104546500Y-100792047D01*
X104391628Y-100856197D01*
X104227216Y-100888900D01*
X104059584Y-100888900D01*
X103895172Y-100856197D01*
X103740300Y-100792047D01*
X103600919Y-100698915D01*
X103482385Y-100580381D01*
X103389253Y-100441000D01*
X103325103Y-100286128D01*
X103292400Y-100121716D01*
X103292400Y-99954084D01*
X103325103Y-99789672D01*
X103389253Y-99634800D01*
X103482385Y-99495419D01*
X103600919Y-99376885D01*
X103740300Y-99283753D01*
X103895172Y-99219603D01*
X104059584Y-99186900D01*
X104227216Y-99186900D01*
X104391628Y-99219603D01*
X104391628Y-99219603D01*
G37*
G36*
X118661628Y-99219603D02*
G01*
X118816500Y-99283753D01*
X118955881Y-99376885D01*
X119074415Y-99495419D01*
X119167547Y-99634800D01*
X119231697Y-99789672D01*
X119264400Y-99954084D01*
X119264400Y-100121716D01*
X119231697Y-100286128D01*
X119167547Y-100441000D01*
X119074415Y-100580381D01*
X118955881Y-100698915D01*
X118816500Y-100792047D01*
X118661628Y-100856197D01*
X118497216Y-100888900D01*
X118329584Y-100888900D01*
X118165172Y-100856197D01*
X118010300Y-100792047D01*
X117870919Y-100698915D01*
X117752385Y-100580381D01*
X117659253Y-100441000D01*
X117595103Y-100286128D01*
X117562400Y-100121716D01*
X117562400Y-99954084D01*
X117595103Y-99789672D01*
X117659253Y-99634800D01*
X117752385Y-99495419D01*
X117870919Y-99376885D01*
X118010300Y-99283753D01*
X118165172Y-99219603D01*
X118329584Y-99186900D01*
X118497216Y-99186900D01*
X118661628Y-99219603D01*
X118661628Y-99219603D01*
G37*
G36*
X113581628Y-99219603D02*
G01*
X113736500Y-99283753D01*
X113875881Y-99376885D01*
X113994415Y-99495419D01*
X114087547Y-99634800D01*
X114151697Y-99789672D01*
X114184400Y-99954084D01*
X114184400Y-100121716D01*
X114151697Y-100286128D01*
X114087547Y-100441000D01*
X113994415Y-100580381D01*
X113875881Y-100698915D01*
X113736500Y-100792047D01*
X113581628Y-100856197D01*
X113417216Y-100888900D01*
X113249584Y-100888900D01*
X113085172Y-100856197D01*
X112930300Y-100792047D01*
X112790919Y-100698915D01*
X112672385Y-100580381D01*
X112579253Y-100441000D01*
X112515103Y-100286128D01*
X112482400Y-100121716D01*
X112482400Y-99954084D01*
X112515103Y-99789672D01*
X112579253Y-99634800D01*
X112672385Y-99495419D01*
X112790919Y-99376885D01*
X112930300Y-99283753D01*
X113085172Y-99219603D01*
X113249584Y-99186900D01*
X113417216Y-99186900D01*
X113581628Y-99219603D01*
X113581628Y-99219603D01*
G37*
G36*
X127851628Y-99219603D02*
G01*
X128006500Y-99283753D01*
X128145881Y-99376885D01*
X128264415Y-99495419D01*
X128357547Y-99634800D01*
X128421697Y-99789672D01*
X128454400Y-99954084D01*
X128454400Y-100121716D01*
X128421697Y-100286128D01*
X128357547Y-100441000D01*
X128264415Y-100580381D01*
X128145881Y-100698915D01*
X128006500Y-100792047D01*
X127851628Y-100856197D01*
X127687216Y-100888900D01*
X127519584Y-100888900D01*
X127355172Y-100856197D01*
X127200300Y-100792047D01*
X127060919Y-100698915D01*
X126942385Y-100580381D01*
X126849253Y-100441000D01*
X126785103Y-100286128D01*
X126752400Y-100121716D01*
X126752400Y-99954084D01*
X126785103Y-99789672D01*
X126849253Y-99634800D01*
X126942385Y-99495419D01*
X127060919Y-99376885D01*
X127200300Y-99283753D01*
X127355172Y-99219603D01*
X127519584Y-99186900D01*
X127687216Y-99186900D01*
X127851628Y-99219603D01*
X127851628Y-99219603D01*
G37*
G36*
X122771628Y-99219603D02*
G01*
X122926500Y-99283753D01*
X123065881Y-99376885D01*
X123184415Y-99495419D01*
X123277547Y-99634800D01*
X123341697Y-99789672D01*
X123374400Y-99954084D01*
X123374400Y-100121716D01*
X123341697Y-100286128D01*
X123277547Y-100441000D01*
X123184415Y-100580381D01*
X123065881Y-100698915D01*
X122926500Y-100792047D01*
X122771628Y-100856197D01*
X122607216Y-100888900D01*
X122439584Y-100888900D01*
X122275172Y-100856197D01*
X122120300Y-100792047D01*
X121980919Y-100698915D01*
X121862385Y-100580381D01*
X121769253Y-100441000D01*
X121705103Y-100286128D01*
X121672400Y-100121716D01*
X121672400Y-99954084D01*
X121705103Y-99789672D01*
X121769253Y-99634800D01*
X121862385Y-99495419D01*
X121980919Y-99376885D01*
X122120300Y-99283753D01*
X122275172Y-99219603D01*
X122439584Y-99186900D01*
X122607216Y-99186900D01*
X122771628Y-99219603D01*
X122771628Y-99219603D01*
G37*
G36*
X137041628Y-99219603D02*
G01*
X137196500Y-99283753D01*
X137335881Y-99376885D01*
X137454415Y-99495419D01*
X137547547Y-99634800D01*
X137611697Y-99789672D01*
X137644400Y-99954084D01*
X137644400Y-100121716D01*
X137611697Y-100286128D01*
X137547547Y-100441000D01*
X137454415Y-100580381D01*
X137335881Y-100698915D01*
X137196500Y-100792047D01*
X137041628Y-100856197D01*
X136877216Y-100888900D01*
X136709584Y-100888900D01*
X136545172Y-100856197D01*
X136390300Y-100792047D01*
X136250919Y-100698915D01*
X136132385Y-100580381D01*
X136039253Y-100441000D01*
X135975103Y-100286128D01*
X135942400Y-100121716D01*
X135942400Y-99954084D01*
X135975103Y-99789672D01*
X136039253Y-99634800D01*
X136132385Y-99495419D01*
X136250919Y-99376885D01*
X136390300Y-99283753D01*
X136545172Y-99219603D01*
X136709584Y-99186900D01*
X136877216Y-99186900D01*
X137041628Y-99219603D01*
X137041628Y-99219603D01*
G37*
G36*
X86011628Y-99219603D02*
G01*
X86166500Y-99283753D01*
X86305881Y-99376885D01*
X86424415Y-99495419D01*
X86517547Y-99634800D01*
X86581697Y-99789672D01*
X86614400Y-99954084D01*
X86614400Y-100121716D01*
X86581697Y-100286128D01*
X86517547Y-100441000D01*
X86424415Y-100580381D01*
X86305881Y-100698915D01*
X86166500Y-100792047D01*
X86011628Y-100856197D01*
X85847216Y-100888900D01*
X85679584Y-100888900D01*
X85515172Y-100856197D01*
X85360300Y-100792047D01*
X85220919Y-100698915D01*
X85102385Y-100580381D01*
X85009253Y-100441000D01*
X84945103Y-100286128D01*
X84912400Y-100121716D01*
X84912400Y-99954084D01*
X84945103Y-99789672D01*
X85009253Y-99634800D01*
X85102385Y-99495419D01*
X85220919Y-99376885D01*
X85360300Y-99283753D01*
X85515172Y-99219603D01*
X85679584Y-99186900D01*
X85847216Y-99186900D01*
X86011628Y-99219603D01*
X86011628Y-99219603D01*
G37*
G36*
X100281628Y-99219603D02*
G01*
X100436500Y-99283753D01*
X100575881Y-99376885D01*
X100694415Y-99495419D01*
X100787547Y-99634800D01*
X100851697Y-99789672D01*
X100884400Y-99954084D01*
X100884400Y-100121716D01*
X100851697Y-100286128D01*
X100787547Y-100441000D01*
X100694415Y-100580381D01*
X100575881Y-100698915D01*
X100436500Y-100792047D01*
X100281628Y-100856197D01*
X100117216Y-100888900D01*
X99949584Y-100888900D01*
X99785172Y-100856197D01*
X99630300Y-100792047D01*
X99490919Y-100698915D01*
X99372385Y-100580381D01*
X99279253Y-100441000D01*
X99215103Y-100286128D01*
X99182400Y-100121716D01*
X99182400Y-99954084D01*
X99215103Y-99789672D01*
X99279253Y-99634800D01*
X99372385Y-99495419D01*
X99490919Y-99376885D01*
X99630300Y-99283753D01*
X99785172Y-99219603D01*
X99949584Y-99186900D01*
X100117216Y-99186900D01*
X100281628Y-99219603D01*
X100281628Y-99219603D01*
G37*
G36*
X146231628Y-96679603D02*
G01*
X146386500Y-96743753D01*
X146525881Y-96836885D01*
X146644415Y-96955419D01*
X146737547Y-97094800D01*
X146801697Y-97249672D01*
X146834400Y-97414084D01*
X146834400Y-97581716D01*
X146801697Y-97746128D01*
X146737547Y-97901000D01*
X146644415Y-98040381D01*
X146525881Y-98158915D01*
X146386500Y-98252047D01*
X146231628Y-98316197D01*
X146067216Y-98348900D01*
X145899584Y-98348900D01*
X145735172Y-98316197D01*
X145580300Y-98252047D01*
X145440919Y-98158915D01*
X145322385Y-98040381D01*
X145229253Y-97901000D01*
X145165103Y-97746128D01*
X145132400Y-97581716D01*
X145132400Y-97414084D01*
X145165103Y-97249672D01*
X145229253Y-97094800D01*
X145322385Y-96955419D01*
X145440919Y-96836885D01*
X145580300Y-96743753D01*
X145735172Y-96679603D01*
X145899584Y-96646900D01*
X146067216Y-96646900D01*
X146231628Y-96679603D01*
X146231628Y-96679603D01*
G37*
G36*
X137041628Y-96679603D02*
G01*
X137196500Y-96743753D01*
X137335881Y-96836885D01*
X137454415Y-96955419D01*
X137547547Y-97094800D01*
X137611697Y-97249672D01*
X137644400Y-97414084D01*
X137644400Y-97581716D01*
X137611697Y-97746128D01*
X137547547Y-97901000D01*
X137454415Y-98040381D01*
X137335881Y-98158915D01*
X137196500Y-98252047D01*
X137041628Y-98316197D01*
X136877216Y-98348900D01*
X136709584Y-98348900D01*
X136545172Y-98316197D01*
X136390300Y-98252047D01*
X136250919Y-98158915D01*
X136132385Y-98040381D01*
X136039253Y-97901000D01*
X135975103Y-97746128D01*
X135942400Y-97581716D01*
X135942400Y-97414084D01*
X135975103Y-97249672D01*
X136039253Y-97094800D01*
X136132385Y-96955419D01*
X136250919Y-96836885D01*
X136390300Y-96743753D01*
X136545172Y-96679603D01*
X136709584Y-96646900D01*
X136877216Y-96646900D01*
X137041628Y-96679603D01*
X137041628Y-96679603D01*
G37*
G36*
X127851628Y-96679603D02*
G01*
X128006500Y-96743753D01*
X128145881Y-96836885D01*
X128264415Y-96955419D01*
X128357547Y-97094800D01*
X128421697Y-97249672D01*
X128454400Y-97414084D01*
X128454400Y-97581716D01*
X128421697Y-97746128D01*
X128357547Y-97901000D01*
X128264415Y-98040381D01*
X128145881Y-98158915D01*
X128006500Y-98252047D01*
X127851628Y-98316197D01*
X127687216Y-98348900D01*
X127519584Y-98348900D01*
X127355172Y-98316197D01*
X127200300Y-98252047D01*
X127060919Y-98158915D01*
X126942385Y-98040381D01*
X126849253Y-97901000D01*
X126785103Y-97746128D01*
X126752400Y-97581716D01*
X126752400Y-97414084D01*
X126785103Y-97249672D01*
X126849253Y-97094800D01*
X126942385Y-96955419D01*
X127060919Y-96836885D01*
X127200300Y-96743753D01*
X127355172Y-96679603D01*
X127519584Y-96646900D01*
X127687216Y-96646900D01*
X127851628Y-96679603D01*
X127851628Y-96679603D01*
G37*
G36*
X122771628Y-96679603D02*
G01*
X122926500Y-96743753D01*
X123065881Y-96836885D01*
X123184415Y-96955419D01*
X123277547Y-97094800D01*
X123341697Y-97249672D01*
X123374400Y-97414084D01*
X123374400Y-97581716D01*
X123341697Y-97746128D01*
X123277547Y-97901000D01*
X123184415Y-98040381D01*
X123065881Y-98158915D01*
X122926500Y-98252047D01*
X122771628Y-98316197D01*
X122607216Y-98348900D01*
X122439584Y-98348900D01*
X122275172Y-98316197D01*
X122120300Y-98252047D01*
X121980919Y-98158915D01*
X121862385Y-98040381D01*
X121769253Y-97901000D01*
X121705103Y-97746128D01*
X121672400Y-97581716D01*
X121672400Y-97414084D01*
X121705103Y-97249672D01*
X121769253Y-97094800D01*
X121862385Y-96955419D01*
X121980919Y-96836885D01*
X122120300Y-96743753D01*
X122275172Y-96679603D01*
X122439584Y-96646900D01*
X122607216Y-96646900D01*
X122771628Y-96679603D01*
X122771628Y-96679603D01*
G37*
G36*
X95201628Y-96679603D02*
G01*
X95356500Y-96743753D01*
X95495881Y-96836885D01*
X95614415Y-96955419D01*
X95707547Y-97094800D01*
X95771697Y-97249672D01*
X95804400Y-97414084D01*
X95804400Y-97581716D01*
X95771697Y-97746128D01*
X95707547Y-97901000D01*
X95614415Y-98040381D01*
X95495881Y-98158915D01*
X95356500Y-98252047D01*
X95201628Y-98316197D01*
X95037216Y-98348900D01*
X94869584Y-98348900D01*
X94705172Y-98316197D01*
X94550300Y-98252047D01*
X94410919Y-98158915D01*
X94292385Y-98040381D01*
X94199253Y-97901000D01*
X94135103Y-97746128D01*
X94102400Y-97581716D01*
X94102400Y-97414084D01*
X94135103Y-97249672D01*
X94199253Y-97094800D01*
X94292385Y-96955419D01*
X94410919Y-96836885D01*
X94550300Y-96743753D01*
X94705172Y-96679603D01*
X94869584Y-96646900D01*
X95037216Y-96646900D01*
X95201628Y-96679603D01*
X95201628Y-96679603D01*
G37*
G36*
X100281628Y-96679603D02*
G01*
X100436500Y-96743753D01*
X100575881Y-96836885D01*
X100694415Y-96955419D01*
X100787547Y-97094800D01*
X100851697Y-97249672D01*
X100884400Y-97414084D01*
X100884400Y-97581716D01*
X100851697Y-97746128D01*
X100787547Y-97901000D01*
X100694415Y-98040381D01*
X100575881Y-98158915D01*
X100436500Y-98252047D01*
X100281628Y-98316197D01*
X100117216Y-98348900D01*
X99949584Y-98348900D01*
X99785172Y-98316197D01*
X99630300Y-98252047D01*
X99490919Y-98158915D01*
X99372385Y-98040381D01*
X99279253Y-97901000D01*
X99215103Y-97746128D01*
X99182400Y-97581716D01*
X99182400Y-97414084D01*
X99215103Y-97249672D01*
X99279253Y-97094800D01*
X99372385Y-96955419D01*
X99490919Y-96836885D01*
X99630300Y-96743753D01*
X99785172Y-96679603D01*
X99949584Y-96646900D01*
X100117216Y-96646900D01*
X100281628Y-96679603D01*
X100281628Y-96679603D01*
G37*
G36*
X118661628Y-96679603D02*
G01*
X118816500Y-96743753D01*
X118955881Y-96836885D01*
X119074415Y-96955419D01*
X119167547Y-97094800D01*
X119231697Y-97249672D01*
X119264400Y-97414084D01*
X119264400Y-97581716D01*
X119231697Y-97746128D01*
X119167547Y-97901000D01*
X119074415Y-98040381D01*
X118955881Y-98158915D01*
X118816500Y-98252047D01*
X118661628Y-98316197D01*
X118497216Y-98348900D01*
X118329584Y-98348900D01*
X118165172Y-98316197D01*
X118010300Y-98252047D01*
X117870919Y-98158915D01*
X117752385Y-98040381D01*
X117659253Y-97901000D01*
X117595103Y-97746128D01*
X117562400Y-97581716D01*
X117562400Y-97414084D01*
X117595103Y-97249672D01*
X117659253Y-97094800D01*
X117752385Y-96955419D01*
X117870919Y-96836885D01*
X118010300Y-96743753D01*
X118165172Y-96679603D01*
X118329584Y-96646900D01*
X118497216Y-96646900D01*
X118661628Y-96679603D01*
X118661628Y-96679603D01*
G37*
G36*
X113581628Y-96679603D02*
G01*
X113736500Y-96743753D01*
X113875881Y-96836885D01*
X113994415Y-96955419D01*
X114087547Y-97094800D01*
X114151697Y-97249672D01*
X114184400Y-97414084D01*
X114184400Y-97581716D01*
X114151697Y-97746128D01*
X114087547Y-97901000D01*
X113994415Y-98040381D01*
X113875881Y-98158915D01*
X113736500Y-98252047D01*
X113581628Y-98316197D01*
X113417216Y-98348900D01*
X113249584Y-98348900D01*
X113085172Y-98316197D01*
X112930300Y-98252047D01*
X112790919Y-98158915D01*
X112672385Y-98040381D01*
X112579253Y-97901000D01*
X112515103Y-97746128D01*
X112482400Y-97581716D01*
X112482400Y-97414084D01*
X112515103Y-97249672D01*
X112579253Y-97094800D01*
X112672385Y-96955419D01*
X112790919Y-96836885D01*
X112930300Y-96743753D01*
X113085172Y-96679603D01*
X113249584Y-96646900D01*
X113417216Y-96646900D01*
X113581628Y-96679603D01*
X113581628Y-96679603D01*
G37*
G36*
X109471628Y-96679603D02*
G01*
X109626500Y-96743753D01*
X109765881Y-96836885D01*
X109884415Y-96955419D01*
X109977547Y-97094800D01*
X110041697Y-97249672D01*
X110074400Y-97414084D01*
X110074400Y-97581716D01*
X110041697Y-97746128D01*
X109977547Y-97901000D01*
X109884415Y-98040381D01*
X109765881Y-98158915D01*
X109626500Y-98252047D01*
X109471628Y-98316197D01*
X109307216Y-98348900D01*
X109139584Y-98348900D01*
X108975172Y-98316197D01*
X108820300Y-98252047D01*
X108680919Y-98158915D01*
X108562385Y-98040381D01*
X108469253Y-97901000D01*
X108405103Y-97746128D01*
X108372400Y-97581716D01*
X108372400Y-97414084D01*
X108405103Y-97249672D01*
X108469253Y-97094800D01*
X108562385Y-96955419D01*
X108680919Y-96836885D01*
X108820300Y-96743753D01*
X108975172Y-96679603D01*
X109139584Y-96646900D01*
X109307216Y-96646900D01*
X109471628Y-96679603D01*
X109471628Y-96679603D01*
G37*
G36*
X104391628Y-96679603D02*
G01*
X104546500Y-96743753D01*
X104685881Y-96836885D01*
X104804415Y-96955419D01*
X104897547Y-97094800D01*
X104961697Y-97249672D01*
X104994400Y-97414084D01*
X104994400Y-97581716D01*
X104961697Y-97746128D01*
X104897547Y-97901000D01*
X104804415Y-98040381D01*
X104685881Y-98158915D01*
X104546500Y-98252047D01*
X104391628Y-98316197D01*
X104227216Y-98348900D01*
X104059584Y-98348900D01*
X103895172Y-98316197D01*
X103740300Y-98252047D01*
X103600919Y-98158915D01*
X103482385Y-98040381D01*
X103389253Y-97901000D01*
X103325103Y-97746128D01*
X103292400Y-97581716D01*
X103292400Y-97414084D01*
X103325103Y-97249672D01*
X103389253Y-97094800D01*
X103482385Y-96955419D01*
X103600919Y-96836885D01*
X103740300Y-96743753D01*
X103895172Y-96679603D01*
X104059584Y-96646900D01*
X104227216Y-96646900D01*
X104391628Y-96679603D01*
X104391628Y-96679603D01*
G37*
G36*
X131961628Y-96679603D02*
G01*
X132116500Y-96743753D01*
X132255881Y-96836885D01*
X132374415Y-96955419D01*
X132467547Y-97094800D01*
X132531697Y-97249672D01*
X132564400Y-97414084D01*
X132564400Y-97581716D01*
X132531697Y-97746128D01*
X132467547Y-97901000D01*
X132374415Y-98040381D01*
X132255881Y-98158915D01*
X132116500Y-98252047D01*
X131961628Y-98316197D01*
X131797216Y-98348900D01*
X131629584Y-98348900D01*
X131465172Y-98316197D01*
X131310300Y-98252047D01*
X131170919Y-98158915D01*
X131052385Y-98040381D01*
X130959253Y-97901000D01*
X130895103Y-97746128D01*
X130862400Y-97581716D01*
X130862400Y-97414084D01*
X130895103Y-97249672D01*
X130959253Y-97094800D01*
X131052385Y-96955419D01*
X131170919Y-96836885D01*
X131310300Y-96743753D01*
X131465172Y-96679603D01*
X131629584Y-96646900D01*
X131797216Y-96646900D01*
X131961628Y-96679603D01*
X131961628Y-96679603D01*
G37*
G36*
X150341628Y-96679603D02*
G01*
X150496500Y-96743753D01*
X150635881Y-96836885D01*
X150754415Y-96955419D01*
X150847547Y-97094800D01*
X150911697Y-97249672D01*
X150944400Y-97414084D01*
X150944400Y-97581716D01*
X150911697Y-97746128D01*
X150847547Y-97901000D01*
X150754415Y-98040381D01*
X150635881Y-98158915D01*
X150496500Y-98252047D01*
X150341628Y-98316197D01*
X150177216Y-98348900D01*
X150009584Y-98348900D01*
X149845172Y-98316197D01*
X149690300Y-98252047D01*
X149550919Y-98158915D01*
X149432385Y-98040381D01*
X149339253Y-97901000D01*
X149275103Y-97746128D01*
X149242400Y-97581716D01*
X149242400Y-97414084D01*
X149275103Y-97249672D01*
X149339253Y-97094800D01*
X149432385Y-96955419D01*
X149550919Y-96836885D01*
X149690300Y-96743753D01*
X149845172Y-96679603D01*
X150009584Y-96646900D01*
X150177216Y-96646900D01*
X150341628Y-96679603D01*
X150341628Y-96679603D01*
G37*
G36*
X164611628Y-96679603D02*
G01*
X164766500Y-96743753D01*
X164905881Y-96836885D01*
X165024415Y-96955419D01*
X165117547Y-97094800D01*
X165181697Y-97249672D01*
X165214400Y-97414084D01*
X165214400Y-97581716D01*
X165181697Y-97746128D01*
X165117547Y-97901000D01*
X165024415Y-98040381D01*
X164905881Y-98158915D01*
X164766500Y-98252047D01*
X164611628Y-98316197D01*
X164447216Y-98348900D01*
X164279584Y-98348900D01*
X164115172Y-98316197D01*
X163960300Y-98252047D01*
X163820919Y-98158915D01*
X163702385Y-98040381D01*
X163609253Y-97901000D01*
X163545103Y-97746128D01*
X163512400Y-97581716D01*
X163512400Y-97414084D01*
X163545103Y-97249672D01*
X163609253Y-97094800D01*
X163702385Y-96955419D01*
X163820919Y-96836885D01*
X163960300Y-96743753D01*
X164115172Y-96679603D01*
X164279584Y-96646900D01*
X164447216Y-96646900D01*
X164611628Y-96679603D01*
X164611628Y-96679603D01*
G37*
G36*
X91091628Y-96679603D02*
G01*
X91246500Y-96743753D01*
X91385881Y-96836885D01*
X91504415Y-96955419D01*
X91597547Y-97094800D01*
X91661697Y-97249672D01*
X91694400Y-97414084D01*
X91694400Y-97581716D01*
X91661697Y-97746128D01*
X91597547Y-97901000D01*
X91504415Y-98040381D01*
X91385881Y-98158915D01*
X91246500Y-98252047D01*
X91091628Y-98316197D01*
X90927216Y-98348900D01*
X90759584Y-98348900D01*
X90595172Y-98316197D01*
X90440300Y-98252047D01*
X90300919Y-98158915D01*
X90182385Y-98040381D01*
X90089253Y-97901000D01*
X90025103Y-97746128D01*
X89992400Y-97581716D01*
X89992400Y-97414084D01*
X90025103Y-97249672D01*
X90089253Y-97094800D01*
X90182385Y-96955419D01*
X90300919Y-96836885D01*
X90440300Y-96743753D01*
X90595172Y-96679603D01*
X90759584Y-96646900D01*
X90927216Y-96646900D01*
X91091628Y-96679603D01*
X91091628Y-96679603D01*
G37*
G36*
X159531628Y-96679603D02*
G01*
X159686500Y-96743753D01*
X159825881Y-96836885D01*
X159944415Y-96955419D01*
X160037547Y-97094800D01*
X160101697Y-97249672D01*
X160134400Y-97414084D01*
X160134400Y-97581716D01*
X160101697Y-97746128D01*
X160037547Y-97901000D01*
X159944415Y-98040381D01*
X159825881Y-98158915D01*
X159686500Y-98252047D01*
X159531628Y-98316197D01*
X159367216Y-98348900D01*
X159199584Y-98348900D01*
X159035172Y-98316197D01*
X158880300Y-98252047D01*
X158740919Y-98158915D01*
X158622385Y-98040381D01*
X158529253Y-97901000D01*
X158465103Y-97746128D01*
X158432400Y-97581716D01*
X158432400Y-97414084D01*
X158465103Y-97249672D01*
X158529253Y-97094800D01*
X158622385Y-96955419D01*
X158740919Y-96836885D01*
X158880300Y-96743753D01*
X159035172Y-96679603D01*
X159199584Y-96646900D01*
X159367216Y-96646900D01*
X159531628Y-96679603D01*
X159531628Y-96679603D01*
G37*
G36*
X86011628Y-96679603D02*
G01*
X86166500Y-96743753D01*
X86305881Y-96836885D01*
X86424415Y-96955419D01*
X86517547Y-97094800D01*
X86581697Y-97249672D01*
X86614400Y-97414084D01*
X86614400Y-97581716D01*
X86581697Y-97746128D01*
X86517547Y-97901000D01*
X86424415Y-98040381D01*
X86305881Y-98158915D01*
X86166500Y-98252047D01*
X86011628Y-98316197D01*
X85847216Y-98348900D01*
X85679584Y-98348900D01*
X85515172Y-98316197D01*
X85360300Y-98252047D01*
X85220919Y-98158915D01*
X85102385Y-98040381D01*
X85009253Y-97901000D01*
X84945103Y-97746128D01*
X84912400Y-97581716D01*
X84912400Y-97414084D01*
X84945103Y-97249672D01*
X85009253Y-97094800D01*
X85102385Y-96955419D01*
X85220919Y-96836885D01*
X85360300Y-96743753D01*
X85515172Y-96679603D01*
X85679584Y-96646900D01*
X85847216Y-96646900D01*
X86011628Y-96679603D01*
X86011628Y-96679603D01*
G37*
G36*
X81901628Y-96679603D02*
G01*
X82056500Y-96743753D01*
X82195881Y-96836885D01*
X82314415Y-96955419D01*
X82407547Y-97094800D01*
X82471697Y-97249672D01*
X82504400Y-97414084D01*
X82504400Y-97581716D01*
X82471697Y-97746128D01*
X82407547Y-97901000D01*
X82314415Y-98040381D01*
X82195881Y-98158915D01*
X82056500Y-98252047D01*
X81901628Y-98316197D01*
X81737216Y-98348900D01*
X81569584Y-98348900D01*
X81405172Y-98316197D01*
X81250300Y-98252047D01*
X81110919Y-98158915D01*
X80992385Y-98040381D01*
X80899253Y-97901000D01*
X80835103Y-97746128D01*
X80802400Y-97581716D01*
X80802400Y-97414084D01*
X80835103Y-97249672D01*
X80899253Y-97094800D01*
X80992385Y-96955419D01*
X81110919Y-96836885D01*
X81250300Y-96743753D01*
X81405172Y-96679603D01*
X81569584Y-96646900D01*
X81737216Y-96646900D01*
X81901628Y-96679603D01*
X81901628Y-96679603D01*
G37*
G36*
X155421628Y-96679603D02*
G01*
X155576500Y-96743753D01*
X155715881Y-96836885D01*
X155834415Y-96955419D01*
X155927547Y-97094800D01*
X155991697Y-97249672D01*
X156024400Y-97414084D01*
X156024400Y-97581716D01*
X155991697Y-97746128D01*
X155927547Y-97901000D01*
X155834415Y-98040381D01*
X155715881Y-98158915D01*
X155576500Y-98252047D01*
X155421628Y-98316197D01*
X155257216Y-98348900D01*
X155089584Y-98348900D01*
X154925172Y-98316197D01*
X154770300Y-98252047D01*
X154630919Y-98158915D01*
X154512385Y-98040381D01*
X154419253Y-97901000D01*
X154355103Y-97746128D01*
X154322400Y-97581716D01*
X154322400Y-97414084D01*
X154355103Y-97249672D01*
X154419253Y-97094800D01*
X154512385Y-96955419D01*
X154630919Y-96836885D01*
X154770300Y-96743753D01*
X154925172Y-96679603D01*
X155089584Y-96646900D01*
X155257216Y-96646900D01*
X155421628Y-96679603D01*
X155421628Y-96679603D01*
G37*
G36*
X141151628Y-96679603D02*
G01*
X141306500Y-96743753D01*
X141445881Y-96836885D01*
X141564415Y-96955419D01*
X141657547Y-97094800D01*
X141721697Y-97249672D01*
X141754400Y-97414084D01*
X141754400Y-97581716D01*
X141721697Y-97746128D01*
X141657547Y-97901000D01*
X141564415Y-98040381D01*
X141445881Y-98158915D01*
X141306500Y-98252047D01*
X141151628Y-98316197D01*
X140987216Y-98348900D01*
X140819584Y-98348900D01*
X140655172Y-98316197D01*
X140500300Y-98252047D01*
X140360919Y-98158915D01*
X140242385Y-98040381D01*
X140149253Y-97901000D01*
X140085103Y-97746128D01*
X140052400Y-97581716D01*
X140052400Y-97414084D01*
X140085103Y-97249672D01*
X140149253Y-97094800D01*
X140242385Y-96955419D01*
X140360919Y-96836885D01*
X140500300Y-96743753D01*
X140655172Y-96679603D01*
X140819584Y-96646900D01*
X140987216Y-96646900D01*
X141151628Y-96679603D01*
X141151628Y-96679603D01*
G37*
G36*
X76821628Y-96679603D02*
G01*
X76976500Y-96743753D01*
X77115881Y-96836885D01*
X77234415Y-96955419D01*
X77327547Y-97094800D01*
X77391697Y-97249672D01*
X77424400Y-97414084D01*
X77424400Y-97581716D01*
X77391697Y-97746128D01*
X77327547Y-97901000D01*
X77234415Y-98040381D01*
X77115881Y-98158915D01*
X76976500Y-98252047D01*
X76821628Y-98316197D01*
X76657216Y-98348900D01*
X76489584Y-98348900D01*
X76325172Y-98316197D01*
X76170300Y-98252047D01*
X76030919Y-98158915D01*
X75912385Y-98040381D01*
X75819253Y-97901000D01*
X75755103Y-97746128D01*
X75722400Y-97581716D01*
X75722400Y-97414084D01*
X75755103Y-97249672D01*
X75819253Y-97094800D01*
X75912385Y-96955419D01*
X76030919Y-96836885D01*
X76170300Y-96743753D01*
X76325172Y-96679603D01*
X76489584Y-96646900D01*
X76657216Y-96646900D01*
X76821628Y-96679603D01*
X76821628Y-96679603D01*
G37*
G36*
X115607900Y-96944400D02*
G01*
X114745900Y-96944400D01*
X114745900Y-96412400D01*
X115607900Y-96412400D01*
X115607900Y-96944400D01*
X115607900Y-96944400D01*
G37*
G36*
X117127900Y-96944400D02*
G01*
X116265900Y-96944400D01*
X116265900Y-96412400D01*
X117127900Y-96412400D01*
X117127900Y-96944400D01*
X117127900Y-96944400D01*
G37*
G36*
X106417900Y-96944400D02*
G01*
X105555900Y-96944400D01*
X105555900Y-96412400D01*
X106417900Y-96412400D01*
X106417900Y-96944400D01*
X106417900Y-96944400D01*
G37*
G36*
X107937900Y-96944400D02*
G01*
X107075900Y-96944400D01*
X107075900Y-96412400D01*
X107937900Y-96412400D01*
X107937900Y-96944400D01*
X107937900Y-96944400D01*
G37*
G36*
X97227900Y-96944400D02*
G01*
X96365900Y-96944400D01*
X96365900Y-96412400D01*
X97227900Y-96412400D01*
X97227900Y-96944400D01*
X97227900Y-96944400D01*
G37*
G36*
X98747900Y-96944400D02*
G01*
X97885900Y-96944400D01*
X97885900Y-96412400D01*
X98747900Y-96412400D01*
X98747900Y-96944400D01*
X98747900Y-96944400D01*
G37*
G36*
X88037900Y-96944400D02*
G01*
X87175900Y-96944400D01*
X87175900Y-96412400D01*
X88037900Y-96412400D01*
X88037900Y-96944400D01*
X88037900Y-96944400D01*
G37*
G36*
X89557900Y-96944400D02*
G01*
X88695900Y-96944400D01*
X88695900Y-96412400D01*
X89557900Y-96412400D01*
X89557900Y-96944400D01*
X89557900Y-96944400D01*
G37*
G36*
X78847900Y-96944400D02*
G01*
X77985900Y-96944400D01*
X77985900Y-96412400D01*
X78847900Y-96412400D01*
X78847900Y-96944400D01*
X78847900Y-96944400D01*
G37*
G36*
X80367900Y-96944400D02*
G01*
X79505900Y-96944400D01*
X79505900Y-96412400D01*
X80367900Y-96412400D01*
X80367900Y-96944400D01*
X80367900Y-96944400D01*
G37*
G36*
X126317900Y-96944400D02*
G01*
X125455900Y-96944400D01*
X125455900Y-96412400D01*
X126317900Y-96412400D01*
X126317900Y-96944400D01*
X126317900Y-96944400D01*
G37*
G36*
X124797900Y-96944400D02*
G01*
X123935900Y-96944400D01*
X123935900Y-96412400D01*
X124797900Y-96412400D01*
X124797900Y-96944400D01*
X124797900Y-96944400D01*
G37*
G36*
X163077900Y-96944400D02*
G01*
X162215900Y-96944400D01*
X162215900Y-96412400D01*
X163077900Y-96412400D01*
X163077900Y-96944400D01*
X163077900Y-96944400D01*
G37*
G36*
X161557900Y-96944400D02*
G01*
X160695900Y-96944400D01*
X160695900Y-96412400D01*
X161557900Y-96412400D01*
X161557900Y-96944400D01*
X161557900Y-96944400D01*
G37*
G36*
X153887900Y-96944400D02*
G01*
X153025900Y-96944400D01*
X153025900Y-96412400D01*
X153887900Y-96412400D01*
X153887900Y-96944400D01*
X153887900Y-96944400D01*
G37*
G36*
X152367900Y-96944400D02*
G01*
X151505900Y-96944400D01*
X151505900Y-96412400D01*
X152367900Y-96412400D01*
X152367900Y-96944400D01*
X152367900Y-96944400D01*
G37*
G36*
X144697900Y-96944400D02*
G01*
X143835900Y-96944400D01*
X143835900Y-96412400D01*
X144697900Y-96412400D01*
X144697900Y-96944400D01*
X144697900Y-96944400D01*
G37*
G36*
X143177900Y-96944400D02*
G01*
X142315900Y-96944400D01*
X142315900Y-96412400D01*
X143177900Y-96412400D01*
X143177900Y-96944400D01*
X143177900Y-96944400D01*
G37*
G36*
X135507900Y-96944400D02*
G01*
X134645900Y-96944400D01*
X134645900Y-96412400D01*
X135507900Y-96412400D01*
X135507900Y-96944400D01*
X135507900Y-96944400D01*
G37*
G36*
X133987900Y-96944400D02*
G01*
X133125900Y-96944400D01*
X133125900Y-96412400D01*
X133987900Y-96412400D01*
X133987900Y-96944400D01*
X133987900Y-96944400D01*
G37*
G36*
X152367900Y-96144400D02*
G01*
X151505900Y-96144400D01*
X151505900Y-95612400D01*
X152367900Y-95612400D01*
X152367900Y-96144400D01*
X152367900Y-96144400D01*
G37*
G36*
X78847900Y-96144400D02*
G01*
X77985900Y-96144400D01*
X77985900Y-95612400D01*
X78847900Y-95612400D01*
X78847900Y-96144400D01*
X78847900Y-96144400D01*
G37*
G36*
X80367900Y-96144400D02*
G01*
X79505900Y-96144400D01*
X79505900Y-95612400D01*
X80367900Y-95612400D01*
X80367900Y-96144400D01*
X80367900Y-96144400D01*
G37*
G36*
X144697900Y-96144400D02*
G01*
X143835900Y-96144400D01*
X143835900Y-95612400D01*
X144697900Y-95612400D01*
X144697900Y-96144400D01*
X144697900Y-96144400D01*
G37*
G36*
X143177900Y-96144400D02*
G01*
X142315900Y-96144400D01*
X142315900Y-95612400D01*
X143177900Y-95612400D01*
X143177900Y-96144400D01*
X143177900Y-96144400D01*
G37*
G36*
X135507900Y-96144400D02*
G01*
X134645900Y-96144400D01*
X134645900Y-95612400D01*
X135507900Y-95612400D01*
X135507900Y-96144400D01*
X135507900Y-96144400D01*
G37*
G36*
X133987900Y-96144400D02*
G01*
X133125900Y-96144400D01*
X133125900Y-95612400D01*
X133987900Y-95612400D01*
X133987900Y-96144400D01*
X133987900Y-96144400D01*
G37*
G36*
X126317900Y-96144400D02*
G01*
X125455900Y-96144400D01*
X125455900Y-95612400D01*
X126317900Y-95612400D01*
X126317900Y-96144400D01*
X126317900Y-96144400D01*
G37*
G36*
X97227900Y-96144400D02*
G01*
X96365900Y-96144400D01*
X96365900Y-95612400D01*
X97227900Y-95612400D01*
X97227900Y-96144400D01*
X97227900Y-96144400D01*
G37*
G36*
X106417900Y-96144400D02*
G01*
X105555900Y-96144400D01*
X105555900Y-95612400D01*
X106417900Y-95612400D01*
X106417900Y-96144400D01*
X106417900Y-96144400D01*
G37*
G36*
X117127900Y-96144400D02*
G01*
X116265900Y-96144400D01*
X116265900Y-95612400D01*
X117127900Y-95612400D01*
X117127900Y-96144400D01*
X117127900Y-96144400D01*
G37*
G36*
X115607900Y-96144400D02*
G01*
X114745900Y-96144400D01*
X114745900Y-95612400D01*
X115607900Y-95612400D01*
X115607900Y-96144400D01*
X115607900Y-96144400D01*
G37*
G36*
X107937900Y-96144400D02*
G01*
X107075900Y-96144400D01*
X107075900Y-95612400D01*
X107937900Y-95612400D01*
X107937900Y-96144400D01*
X107937900Y-96144400D01*
G37*
G36*
X98747900Y-96144400D02*
G01*
X97885900Y-96144400D01*
X97885900Y-95612400D01*
X98747900Y-95612400D01*
X98747900Y-96144400D01*
X98747900Y-96144400D01*
G37*
G36*
X89557900Y-96144400D02*
G01*
X88695900Y-96144400D01*
X88695900Y-95612400D01*
X89557900Y-95612400D01*
X89557900Y-96144400D01*
X89557900Y-96144400D01*
G37*
G36*
X153887900Y-96144400D02*
G01*
X153025900Y-96144400D01*
X153025900Y-95612400D01*
X153887900Y-95612400D01*
X153887900Y-96144400D01*
X153887900Y-96144400D01*
G37*
G36*
X161557900Y-96144400D02*
G01*
X160695900Y-96144400D01*
X160695900Y-95612400D01*
X161557900Y-95612400D01*
X161557900Y-96144400D01*
X161557900Y-96144400D01*
G37*
G36*
X88037900Y-96144400D02*
G01*
X87175900Y-96144400D01*
X87175900Y-95612400D01*
X88037900Y-95612400D01*
X88037900Y-96144400D01*
X88037900Y-96144400D01*
G37*
G36*
X163077900Y-96144400D02*
G01*
X162215900Y-96144400D01*
X162215900Y-95612400D01*
X163077900Y-95612400D01*
X163077900Y-96144400D01*
X163077900Y-96144400D01*
G37*
G36*
X124797900Y-96144400D02*
G01*
X123935900Y-96144400D01*
X123935900Y-95612400D01*
X124797900Y-95612400D01*
X124797900Y-96144400D01*
X124797900Y-96144400D01*
G37*
G36*
X127851628Y-94139603D02*
G01*
X128006500Y-94203753D01*
X128145881Y-94296885D01*
X128264415Y-94415419D01*
X128357547Y-94554800D01*
X128421697Y-94709672D01*
X128454400Y-94874084D01*
X128454400Y-95041716D01*
X128421697Y-95206128D01*
X128357547Y-95361000D01*
X128264415Y-95500381D01*
X128145881Y-95618915D01*
X128006500Y-95712047D01*
X127851628Y-95776197D01*
X127687216Y-95808900D01*
X127519584Y-95808900D01*
X127355172Y-95776197D01*
X127200300Y-95712047D01*
X127060919Y-95618915D01*
X126942385Y-95500381D01*
X126849253Y-95361000D01*
X126785103Y-95206128D01*
X126752400Y-95041716D01*
X126752400Y-94874084D01*
X126785103Y-94709672D01*
X126849253Y-94554800D01*
X126942385Y-94415419D01*
X127060919Y-94296885D01*
X127200300Y-94203753D01*
X127355172Y-94139603D01*
X127519584Y-94106900D01*
X127687216Y-94106900D01*
X127851628Y-94139603D01*
X127851628Y-94139603D01*
G37*
G36*
X109471628Y-94139603D02*
G01*
X109626500Y-94203753D01*
X109765881Y-94296885D01*
X109884415Y-94415419D01*
X109977547Y-94554800D01*
X110041697Y-94709672D01*
X110074400Y-94874084D01*
X110074400Y-95041716D01*
X110041697Y-95206128D01*
X109977547Y-95361000D01*
X109884415Y-95500381D01*
X109765881Y-95618915D01*
X109626500Y-95712047D01*
X109471628Y-95776197D01*
X109307216Y-95808900D01*
X109139584Y-95808900D01*
X108975172Y-95776197D01*
X108820300Y-95712047D01*
X108680919Y-95618915D01*
X108562385Y-95500381D01*
X108469253Y-95361000D01*
X108405103Y-95206128D01*
X108372400Y-95041716D01*
X108372400Y-94874084D01*
X108405103Y-94709672D01*
X108469253Y-94554800D01*
X108562385Y-94415419D01*
X108680919Y-94296885D01*
X108820300Y-94203753D01*
X108975172Y-94139603D01*
X109139584Y-94106900D01*
X109307216Y-94106900D01*
X109471628Y-94139603D01*
X109471628Y-94139603D01*
G37*
G36*
X104391628Y-94139603D02*
G01*
X104546500Y-94203753D01*
X104685881Y-94296885D01*
X104804415Y-94415419D01*
X104897547Y-94554800D01*
X104961697Y-94709672D01*
X104994400Y-94874084D01*
X104994400Y-95041716D01*
X104961697Y-95206128D01*
X104897547Y-95361000D01*
X104804415Y-95500381D01*
X104685881Y-95618915D01*
X104546500Y-95712047D01*
X104391628Y-95776197D01*
X104227216Y-95808900D01*
X104059584Y-95808900D01*
X103895172Y-95776197D01*
X103740300Y-95712047D01*
X103600919Y-95618915D01*
X103482385Y-95500381D01*
X103389253Y-95361000D01*
X103325103Y-95206128D01*
X103292400Y-95041716D01*
X103292400Y-94874084D01*
X103325103Y-94709672D01*
X103389253Y-94554800D01*
X103482385Y-94415419D01*
X103600919Y-94296885D01*
X103740300Y-94203753D01*
X103895172Y-94139603D01*
X104059584Y-94106900D01*
X104227216Y-94106900D01*
X104391628Y-94139603D01*
X104391628Y-94139603D01*
G37*
G36*
X100281628Y-94139603D02*
G01*
X100436500Y-94203753D01*
X100575881Y-94296885D01*
X100694415Y-94415419D01*
X100787547Y-94554800D01*
X100851697Y-94709672D01*
X100884400Y-94874084D01*
X100884400Y-95041716D01*
X100851697Y-95206128D01*
X100787547Y-95361000D01*
X100694415Y-95500381D01*
X100575881Y-95618915D01*
X100436500Y-95712047D01*
X100281628Y-95776197D01*
X100117216Y-95808900D01*
X99949584Y-95808900D01*
X99785172Y-95776197D01*
X99630300Y-95712047D01*
X99490919Y-95618915D01*
X99372385Y-95500381D01*
X99279253Y-95361000D01*
X99215103Y-95206128D01*
X99182400Y-95041716D01*
X99182400Y-94874084D01*
X99215103Y-94709672D01*
X99279253Y-94554800D01*
X99372385Y-94415419D01*
X99490919Y-94296885D01*
X99630300Y-94203753D01*
X99785172Y-94139603D01*
X99949584Y-94106900D01*
X100117216Y-94106900D01*
X100281628Y-94139603D01*
X100281628Y-94139603D01*
G37*
G36*
X95201628Y-94139603D02*
G01*
X95356500Y-94203753D01*
X95495881Y-94296885D01*
X95614415Y-94415419D01*
X95707547Y-94554800D01*
X95771697Y-94709672D01*
X95804400Y-94874084D01*
X95804400Y-95041716D01*
X95771697Y-95206128D01*
X95707547Y-95361000D01*
X95614415Y-95500381D01*
X95495881Y-95618915D01*
X95356500Y-95712047D01*
X95201628Y-95776197D01*
X95037216Y-95808900D01*
X94869584Y-95808900D01*
X94705172Y-95776197D01*
X94550300Y-95712047D01*
X94410919Y-95618915D01*
X94292385Y-95500381D01*
X94199253Y-95361000D01*
X94135103Y-95206128D01*
X94102400Y-95041716D01*
X94102400Y-94874084D01*
X94135103Y-94709672D01*
X94199253Y-94554800D01*
X94292385Y-94415419D01*
X94410919Y-94296885D01*
X94550300Y-94203753D01*
X94705172Y-94139603D01*
X94869584Y-94106900D01*
X95037216Y-94106900D01*
X95201628Y-94139603D01*
X95201628Y-94139603D01*
G37*
G36*
X91091628Y-94139603D02*
G01*
X91246500Y-94203753D01*
X91385881Y-94296885D01*
X91504415Y-94415419D01*
X91597547Y-94554800D01*
X91661697Y-94709672D01*
X91694400Y-94874084D01*
X91694400Y-95041716D01*
X91661697Y-95206128D01*
X91597547Y-95361000D01*
X91504415Y-95500381D01*
X91385881Y-95618915D01*
X91246500Y-95712047D01*
X91091628Y-95776197D01*
X90927216Y-95808900D01*
X90759584Y-95808900D01*
X90595172Y-95776197D01*
X90440300Y-95712047D01*
X90300919Y-95618915D01*
X90182385Y-95500381D01*
X90089253Y-95361000D01*
X90025103Y-95206128D01*
X89992400Y-95041716D01*
X89992400Y-94874084D01*
X90025103Y-94709672D01*
X90089253Y-94554800D01*
X90182385Y-94415419D01*
X90300919Y-94296885D01*
X90440300Y-94203753D01*
X90595172Y-94139603D01*
X90759584Y-94106900D01*
X90927216Y-94106900D01*
X91091628Y-94139603D01*
X91091628Y-94139603D01*
G37*
G36*
X86011628Y-94139603D02*
G01*
X86166500Y-94203753D01*
X86305881Y-94296885D01*
X86424415Y-94415419D01*
X86517547Y-94554800D01*
X86581697Y-94709672D01*
X86614400Y-94874084D01*
X86614400Y-95041716D01*
X86581697Y-95206128D01*
X86517547Y-95361000D01*
X86424415Y-95500381D01*
X86305881Y-95618915D01*
X86166500Y-95712047D01*
X86011628Y-95776197D01*
X85847216Y-95808900D01*
X85679584Y-95808900D01*
X85515172Y-95776197D01*
X85360300Y-95712047D01*
X85220919Y-95618915D01*
X85102385Y-95500381D01*
X85009253Y-95361000D01*
X84945103Y-95206128D01*
X84912400Y-95041716D01*
X84912400Y-94874084D01*
X84945103Y-94709672D01*
X85009253Y-94554800D01*
X85102385Y-94415419D01*
X85220919Y-94296885D01*
X85360300Y-94203753D01*
X85515172Y-94139603D01*
X85679584Y-94106900D01*
X85847216Y-94106900D01*
X86011628Y-94139603D01*
X86011628Y-94139603D01*
G37*
G36*
X118661628Y-94139603D02*
G01*
X118816500Y-94203753D01*
X118955881Y-94296885D01*
X119074415Y-94415419D01*
X119167547Y-94554800D01*
X119231697Y-94709672D01*
X119264400Y-94874084D01*
X119264400Y-95041716D01*
X119231697Y-95206128D01*
X119167547Y-95361000D01*
X119074415Y-95500381D01*
X118955881Y-95618915D01*
X118816500Y-95712047D01*
X118661628Y-95776197D01*
X118497216Y-95808900D01*
X118329584Y-95808900D01*
X118165172Y-95776197D01*
X118010300Y-95712047D01*
X117870919Y-95618915D01*
X117752385Y-95500381D01*
X117659253Y-95361000D01*
X117595103Y-95206128D01*
X117562400Y-95041716D01*
X117562400Y-94874084D01*
X117595103Y-94709672D01*
X117659253Y-94554800D01*
X117752385Y-94415419D01*
X117870919Y-94296885D01*
X118010300Y-94203753D01*
X118165172Y-94139603D01*
X118329584Y-94106900D01*
X118497216Y-94106900D01*
X118661628Y-94139603D01*
X118661628Y-94139603D01*
G37*
G36*
X113581628Y-94139603D02*
G01*
X113736500Y-94203753D01*
X113875881Y-94296885D01*
X113994415Y-94415419D01*
X114087547Y-94554800D01*
X114151697Y-94709672D01*
X114184400Y-94874084D01*
X114184400Y-95041716D01*
X114151697Y-95206128D01*
X114087547Y-95361000D01*
X113994415Y-95500381D01*
X113875881Y-95618915D01*
X113736500Y-95712047D01*
X113581628Y-95776197D01*
X113417216Y-95808900D01*
X113249584Y-95808900D01*
X113085172Y-95776197D01*
X112930300Y-95712047D01*
X112790919Y-95618915D01*
X112672385Y-95500381D01*
X112579253Y-95361000D01*
X112515103Y-95206128D01*
X112482400Y-95041716D01*
X112482400Y-94874084D01*
X112515103Y-94709672D01*
X112579253Y-94554800D01*
X112672385Y-94415419D01*
X112790919Y-94296885D01*
X112930300Y-94203753D01*
X113085172Y-94139603D01*
X113249584Y-94106900D01*
X113417216Y-94106900D01*
X113581628Y-94139603D01*
X113581628Y-94139603D01*
G37*
G36*
X150341628Y-94139603D02*
G01*
X150496500Y-94203753D01*
X150635881Y-94296885D01*
X150754415Y-94415419D01*
X150847547Y-94554800D01*
X150911697Y-94709672D01*
X150944400Y-94874084D01*
X150944400Y-95041716D01*
X150911697Y-95206128D01*
X150847547Y-95361000D01*
X150754415Y-95500381D01*
X150635881Y-95618915D01*
X150496500Y-95712047D01*
X150341628Y-95776197D01*
X150177216Y-95808900D01*
X150009584Y-95808900D01*
X149845172Y-95776197D01*
X149690300Y-95712047D01*
X149550919Y-95618915D01*
X149432385Y-95500381D01*
X149339253Y-95361000D01*
X149275103Y-95206128D01*
X149242400Y-95041716D01*
X149242400Y-94874084D01*
X149275103Y-94709672D01*
X149339253Y-94554800D01*
X149432385Y-94415419D01*
X149550919Y-94296885D01*
X149690300Y-94203753D01*
X149845172Y-94139603D01*
X150009584Y-94106900D01*
X150177216Y-94106900D01*
X150341628Y-94139603D01*
X150341628Y-94139603D01*
G37*
G36*
X122771628Y-94139603D02*
G01*
X122926500Y-94203753D01*
X123065881Y-94296885D01*
X123184415Y-94415419D01*
X123277547Y-94554800D01*
X123341697Y-94709672D01*
X123374400Y-94874084D01*
X123374400Y-95041716D01*
X123341697Y-95206128D01*
X123277547Y-95361000D01*
X123184415Y-95500381D01*
X123065881Y-95618915D01*
X122926500Y-95712047D01*
X122771628Y-95776197D01*
X122607216Y-95808900D01*
X122439584Y-95808900D01*
X122275172Y-95776197D01*
X122120300Y-95712047D01*
X121980919Y-95618915D01*
X121862385Y-95500381D01*
X121769253Y-95361000D01*
X121705103Y-95206128D01*
X121672400Y-95041716D01*
X121672400Y-94874084D01*
X121705103Y-94709672D01*
X121769253Y-94554800D01*
X121862385Y-94415419D01*
X121980919Y-94296885D01*
X122120300Y-94203753D01*
X122275172Y-94139603D01*
X122439584Y-94106900D01*
X122607216Y-94106900D01*
X122771628Y-94139603D01*
X122771628Y-94139603D01*
G37*
G36*
X131961628Y-94139603D02*
G01*
X132116500Y-94203753D01*
X132255881Y-94296885D01*
X132374415Y-94415419D01*
X132467547Y-94554800D01*
X132531697Y-94709672D01*
X132564400Y-94874084D01*
X132564400Y-95041716D01*
X132531697Y-95206128D01*
X132467547Y-95361000D01*
X132374415Y-95500381D01*
X132255881Y-95618915D01*
X132116500Y-95712047D01*
X131961628Y-95776197D01*
X131797216Y-95808900D01*
X131629584Y-95808900D01*
X131465172Y-95776197D01*
X131310300Y-95712047D01*
X131170919Y-95618915D01*
X131052385Y-95500381D01*
X130959253Y-95361000D01*
X130895103Y-95206128D01*
X130862400Y-95041716D01*
X130862400Y-94874084D01*
X130895103Y-94709672D01*
X130959253Y-94554800D01*
X131052385Y-94415419D01*
X131170919Y-94296885D01*
X131310300Y-94203753D01*
X131465172Y-94139603D01*
X131629584Y-94106900D01*
X131797216Y-94106900D01*
X131961628Y-94139603D01*
X131961628Y-94139603D01*
G37*
G36*
X146231628Y-94139603D02*
G01*
X146386500Y-94203753D01*
X146525881Y-94296885D01*
X146644415Y-94415419D01*
X146737547Y-94554800D01*
X146801697Y-94709672D01*
X146834400Y-94874084D01*
X146834400Y-95041716D01*
X146801697Y-95206128D01*
X146737547Y-95361000D01*
X146644415Y-95500381D01*
X146525881Y-95618915D01*
X146386500Y-95712047D01*
X146231628Y-95776197D01*
X146067216Y-95808900D01*
X145899584Y-95808900D01*
X145735172Y-95776197D01*
X145580300Y-95712047D01*
X145440919Y-95618915D01*
X145322385Y-95500381D01*
X145229253Y-95361000D01*
X145165103Y-95206128D01*
X145132400Y-95041716D01*
X145132400Y-94874084D01*
X145165103Y-94709672D01*
X145229253Y-94554800D01*
X145322385Y-94415419D01*
X145440919Y-94296885D01*
X145580300Y-94203753D01*
X145735172Y-94139603D01*
X145899584Y-94106900D01*
X146067216Y-94106900D01*
X146231628Y-94139603D01*
X146231628Y-94139603D01*
G37*
G36*
X164611628Y-94139603D02*
G01*
X164766500Y-94203753D01*
X164905881Y-94296885D01*
X165024415Y-94415419D01*
X165117547Y-94554800D01*
X165181697Y-94709672D01*
X165214400Y-94874084D01*
X165214400Y-95041716D01*
X165181697Y-95206128D01*
X165117547Y-95361000D01*
X165024415Y-95500381D01*
X164905881Y-95618915D01*
X164766500Y-95712047D01*
X164611628Y-95776197D01*
X164447216Y-95808900D01*
X164279584Y-95808900D01*
X164115172Y-95776197D01*
X163960300Y-95712047D01*
X163820919Y-95618915D01*
X163702385Y-95500381D01*
X163609253Y-95361000D01*
X163545103Y-95206128D01*
X163512400Y-95041716D01*
X163512400Y-94874084D01*
X163545103Y-94709672D01*
X163609253Y-94554800D01*
X163702385Y-94415419D01*
X163820919Y-94296885D01*
X163960300Y-94203753D01*
X164115172Y-94139603D01*
X164279584Y-94106900D01*
X164447216Y-94106900D01*
X164611628Y-94139603D01*
X164611628Y-94139603D01*
G37*
G36*
X76821628Y-94139603D02*
G01*
X76976500Y-94203753D01*
X77115881Y-94296885D01*
X77234415Y-94415419D01*
X77327547Y-94554800D01*
X77391697Y-94709672D01*
X77424400Y-94874084D01*
X77424400Y-95041716D01*
X77391697Y-95206128D01*
X77327547Y-95361000D01*
X77234415Y-95500381D01*
X77115881Y-95618915D01*
X76976500Y-95712047D01*
X76821628Y-95776197D01*
X76657216Y-95808900D01*
X76489584Y-95808900D01*
X76325172Y-95776197D01*
X76170300Y-95712047D01*
X76030919Y-95618915D01*
X75912385Y-95500381D01*
X75819253Y-95361000D01*
X75755103Y-95206128D01*
X75722400Y-95041716D01*
X75722400Y-94874084D01*
X75755103Y-94709672D01*
X75819253Y-94554800D01*
X75912385Y-94415419D01*
X76030919Y-94296885D01*
X76170300Y-94203753D01*
X76325172Y-94139603D01*
X76489584Y-94106900D01*
X76657216Y-94106900D01*
X76821628Y-94139603D01*
X76821628Y-94139603D01*
G37*
G36*
X141151628Y-94139603D02*
G01*
X141306500Y-94203753D01*
X141445881Y-94296885D01*
X141564415Y-94415419D01*
X141657547Y-94554800D01*
X141721697Y-94709672D01*
X141754400Y-94874084D01*
X141754400Y-95041716D01*
X141721697Y-95206128D01*
X141657547Y-95361000D01*
X141564415Y-95500381D01*
X141445881Y-95618915D01*
X141306500Y-95712047D01*
X141151628Y-95776197D01*
X140987216Y-95808900D01*
X140819584Y-95808900D01*
X140655172Y-95776197D01*
X140500300Y-95712047D01*
X140360919Y-95618915D01*
X140242385Y-95500381D01*
X140149253Y-95361000D01*
X140085103Y-95206128D01*
X140052400Y-95041716D01*
X140052400Y-94874084D01*
X140085103Y-94709672D01*
X140149253Y-94554800D01*
X140242385Y-94415419D01*
X140360919Y-94296885D01*
X140500300Y-94203753D01*
X140655172Y-94139603D01*
X140819584Y-94106900D01*
X140987216Y-94106900D01*
X141151628Y-94139603D01*
X141151628Y-94139603D01*
G37*
G36*
X81901628Y-94139603D02*
G01*
X82056500Y-94203753D01*
X82195881Y-94296885D01*
X82314415Y-94415419D01*
X82407547Y-94554800D01*
X82471697Y-94709672D01*
X82504400Y-94874084D01*
X82504400Y-95041716D01*
X82471697Y-95206128D01*
X82407547Y-95361000D01*
X82314415Y-95500381D01*
X82195881Y-95618915D01*
X82056500Y-95712047D01*
X81901628Y-95776197D01*
X81737216Y-95808900D01*
X81569584Y-95808900D01*
X81405172Y-95776197D01*
X81250300Y-95712047D01*
X81110919Y-95618915D01*
X80992385Y-95500381D01*
X80899253Y-95361000D01*
X80835103Y-95206128D01*
X80802400Y-95041716D01*
X80802400Y-94874084D01*
X80835103Y-94709672D01*
X80899253Y-94554800D01*
X80992385Y-94415419D01*
X81110919Y-94296885D01*
X81250300Y-94203753D01*
X81405172Y-94139603D01*
X81569584Y-94106900D01*
X81737216Y-94106900D01*
X81901628Y-94139603D01*
X81901628Y-94139603D01*
G37*
G36*
X155421628Y-94139603D02*
G01*
X155576500Y-94203753D01*
X155715881Y-94296885D01*
X155834415Y-94415419D01*
X155927547Y-94554800D01*
X155991697Y-94709672D01*
X156024400Y-94874084D01*
X156024400Y-95041716D01*
X155991697Y-95206128D01*
X155927547Y-95361000D01*
X155834415Y-95500381D01*
X155715881Y-95618915D01*
X155576500Y-95712047D01*
X155421628Y-95776197D01*
X155257216Y-95808900D01*
X155089584Y-95808900D01*
X154925172Y-95776197D01*
X154770300Y-95712047D01*
X154630919Y-95618915D01*
X154512385Y-95500381D01*
X154419253Y-95361000D01*
X154355103Y-95206128D01*
X154322400Y-95041716D01*
X154322400Y-94874084D01*
X154355103Y-94709672D01*
X154419253Y-94554800D01*
X154512385Y-94415419D01*
X154630919Y-94296885D01*
X154770300Y-94203753D01*
X154925172Y-94139603D01*
X155089584Y-94106900D01*
X155257216Y-94106900D01*
X155421628Y-94139603D01*
X155421628Y-94139603D01*
G37*
G36*
X159531628Y-94139603D02*
G01*
X159686500Y-94203753D01*
X159825881Y-94296885D01*
X159944415Y-94415419D01*
X160037547Y-94554800D01*
X160101697Y-94709672D01*
X160134400Y-94874084D01*
X160134400Y-95041716D01*
X160101697Y-95206128D01*
X160037547Y-95361000D01*
X159944415Y-95500381D01*
X159825881Y-95618915D01*
X159686500Y-95712047D01*
X159531628Y-95776197D01*
X159367216Y-95808900D01*
X159199584Y-95808900D01*
X159035172Y-95776197D01*
X158880300Y-95712047D01*
X158740919Y-95618915D01*
X158622385Y-95500381D01*
X158529253Y-95361000D01*
X158465103Y-95206128D01*
X158432400Y-95041716D01*
X158432400Y-94874084D01*
X158465103Y-94709672D01*
X158529253Y-94554800D01*
X158622385Y-94415419D01*
X158740919Y-94296885D01*
X158880300Y-94203753D01*
X159035172Y-94139603D01*
X159199584Y-94106900D01*
X159367216Y-94106900D01*
X159531628Y-94139603D01*
X159531628Y-94139603D01*
G37*
G36*
X137041628Y-94139603D02*
G01*
X137196500Y-94203753D01*
X137335881Y-94296885D01*
X137454415Y-94415419D01*
X137547547Y-94554800D01*
X137611697Y-94709672D01*
X137644400Y-94874084D01*
X137644400Y-95041716D01*
X137611697Y-95206128D01*
X137547547Y-95361000D01*
X137454415Y-95500381D01*
X137335881Y-95618915D01*
X137196500Y-95712047D01*
X137041628Y-95776197D01*
X136877216Y-95808900D01*
X136709584Y-95808900D01*
X136545172Y-95776197D01*
X136390300Y-95712047D01*
X136250919Y-95618915D01*
X136132385Y-95500381D01*
X136039253Y-95361000D01*
X135975103Y-95206128D01*
X135942400Y-95041716D01*
X135942400Y-94874084D01*
X135975103Y-94709672D01*
X136039253Y-94554800D01*
X136132385Y-94415419D01*
X136250919Y-94296885D01*
X136390300Y-94203753D01*
X136545172Y-94139603D01*
X136709584Y-94106900D01*
X136877216Y-94106900D01*
X137041628Y-94139603D01*
X137041628Y-94139603D01*
G37*
G36*
X153887900Y-95344400D02*
G01*
X153025900Y-95344400D01*
X153025900Y-94812400D01*
X153887900Y-94812400D01*
X153887900Y-95344400D01*
X153887900Y-95344400D01*
G37*
G36*
X78847900Y-95344400D02*
G01*
X77985900Y-95344400D01*
X77985900Y-94812400D01*
X78847900Y-94812400D01*
X78847900Y-95344400D01*
X78847900Y-95344400D01*
G37*
G36*
X80367900Y-95344400D02*
G01*
X79505900Y-95344400D01*
X79505900Y-94812400D01*
X80367900Y-94812400D01*
X80367900Y-95344400D01*
X80367900Y-95344400D01*
G37*
G36*
X98747900Y-95344400D02*
G01*
X97885900Y-95344400D01*
X97885900Y-94812400D01*
X98747900Y-94812400D01*
X98747900Y-95344400D01*
X98747900Y-95344400D01*
G37*
G36*
X106417900Y-95344400D02*
G01*
X105555900Y-95344400D01*
X105555900Y-94812400D01*
X106417900Y-94812400D01*
X106417900Y-95344400D01*
X106417900Y-95344400D01*
G37*
G36*
X133987900Y-95344400D02*
G01*
X133125900Y-95344400D01*
X133125900Y-94812400D01*
X133987900Y-94812400D01*
X133987900Y-95344400D01*
X133987900Y-95344400D01*
G37*
G36*
X126317900Y-95344400D02*
G01*
X125455900Y-95344400D01*
X125455900Y-94812400D01*
X126317900Y-94812400D01*
X126317900Y-95344400D01*
X126317900Y-95344400D01*
G37*
G36*
X107937900Y-95344400D02*
G01*
X107075900Y-95344400D01*
X107075900Y-94812400D01*
X107937900Y-94812400D01*
X107937900Y-95344400D01*
X107937900Y-95344400D01*
G37*
G36*
X152367900Y-95344400D02*
G01*
X151505900Y-95344400D01*
X151505900Y-94812400D01*
X152367900Y-94812400D01*
X152367900Y-95344400D01*
X152367900Y-95344400D01*
G37*
G36*
X89557900Y-95344400D02*
G01*
X88695900Y-95344400D01*
X88695900Y-94812400D01*
X89557900Y-94812400D01*
X89557900Y-95344400D01*
X89557900Y-95344400D01*
G37*
G36*
X97227900Y-95344400D02*
G01*
X96365900Y-95344400D01*
X96365900Y-94812400D01*
X97227900Y-94812400D01*
X97227900Y-95344400D01*
X97227900Y-95344400D01*
G37*
G36*
X161557900Y-95344400D02*
G01*
X160695900Y-95344400D01*
X160695900Y-94812400D01*
X161557900Y-94812400D01*
X161557900Y-95344400D01*
X161557900Y-95344400D01*
G37*
G36*
X135507900Y-95344400D02*
G01*
X134645900Y-95344400D01*
X134645900Y-94812400D01*
X135507900Y-94812400D01*
X135507900Y-95344400D01*
X135507900Y-95344400D01*
G37*
G36*
X163077900Y-95344400D02*
G01*
X162215900Y-95344400D01*
X162215900Y-94812400D01*
X163077900Y-94812400D01*
X163077900Y-95344400D01*
X163077900Y-95344400D01*
G37*
G36*
X144697900Y-95344400D02*
G01*
X143835900Y-95344400D01*
X143835900Y-94812400D01*
X144697900Y-94812400D01*
X144697900Y-95344400D01*
X144697900Y-95344400D01*
G37*
G36*
X124797900Y-95344400D02*
G01*
X123935900Y-95344400D01*
X123935900Y-94812400D01*
X124797900Y-94812400D01*
X124797900Y-95344400D01*
X124797900Y-95344400D01*
G37*
G36*
X115607900Y-95344400D02*
G01*
X114745900Y-95344400D01*
X114745900Y-94812400D01*
X115607900Y-94812400D01*
X115607900Y-95344400D01*
X115607900Y-95344400D01*
G37*
G36*
X117127900Y-95344400D02*
G01*
X116265900Y-95344400D01*
X116265900Y-94812400D01*
X117127900Y-94812400D01*
X117127900Y-95344400D01*
X117127900Y-95344400D01*
G37*
G36*
X143177900Y-95344400D02*
G01*
X142315900Y-95344400D01*
X142315900Y-94812400D01*
X143177900Y-94812400D01*
X143177900Y-95344400D01*
X143177900Y-95344400D01*
G37*
G36*
X88037900Y-95344400D02*
G01*
X87175900Y-95344400D01*
X87175900Y-94812400D01*
X88037900Y-94812400D01*
X88037900Y-95344400D01*
X88037900Y-95344400D01*
G37*
G36*
X80367900Y-94544400D02*
G01*
X79505900Y-94544400D01*
X79505900Y-94012400D01*
X80367900Y-94012400D01*
X80367900Y-94544400D01*
X80367900Y-94544400D01*
G37*
G36*
X163077900Y-94544400D02*
G01*
X162215900Y-94544400D01*
X162215900Y-94012400D01*
X163077900Y-94012400D01*
X163077900Y-94544400D01*
X163077900Y-94544400D01*
G37*
G36*
X144697900Y-94544400D02*
G01*
X143835900Y-94544400D01*
X143835900Y-94012400D01*
X144697900Y-94012400D01*
X144697900Y-94544400D01*
X144697900Y-94544400D01*
G37*
G36*
X143177900Y-94544400D02*
G01*
X142315900Y-94544400D01*
X142315900Y-94012400D01*
X143177900Y-94012400D01*
X143177900Y-94544400D01*
X143177900Y-94544400D01*
G37*
G36*
X133987900Y-94544400D02*
G01*
X133125900Y-94544400D01*
X133125900Y-94012400D01*
X133987900Y-94012400D01*
X133987900Y-94544400D01*
X133987900Y-94544400D01*
G37*
G36*
X126317900Y-94544400D02*
G01*
X125455900Y-94544400D01*
X125455900Y-94012400D01*
X126317900Y-94012400D01*
X126317900Y-94544400D01*
X126317900Y-94544400D01*
G37*
G36*
X124797900Y-94544400D02*
G01*
X123935900Y-94544400D01*
X123935900Y-94012400D01*
X124797900Y-94012400D01*
X124797900Y-94544400D01*
X124797900Y-94544400D01*
G37*
G36*
X117127900Y-94544400D02*
G01*
X116265900Y-94544400D01*
X116265900Y-94012400D01*
X117127900Y-94012400D01*
X117127900Y-94544400D01*
X117127900Y-94544400D01*
G37*
G36*
X152367900Y-94544400D02*
G01*
X151505900Y-94544400D01*
X151505900Y-94012400D01*
X152367900Y-94012400D01*
X152367900Y-94544400D01*
X152367900Y-94544400D01*
G37*
G36*
X107937900Y-94544400D02*
G01*
X107075900Y-94544400D01*
X107075900Y-94012400D01*
X107937900Y-94012400D01*
X107937900Y-94544400D01*
X107937900Y-94544400D01*
G37*
G36*
X89557900Y-94544400D02*
G01*
X88695900Y-94544400D01*
X88695900Y-94012400D01*
X89557900Y-94012400D01*
X89557900Y-94544400D01*
X89557900Y-94544400D01*
G37*
G36*
X106417900Y-94544400D02*
G01*
X105555900Y-94544400D01*
X105555900Y-94012400D01*
X106417900Y-94012400D01*
X106417900Y-94544400D01*
X106417900Y-94544400D01*
G37*
G36*
X98747900Y-94544400D02*
G01*
X97885900Y-94544400D01*
X97885900Y-94012400D01*
X98747900Y-94012400D01*
X98747900Y-94544400D01*
X98747900Y-94544400D01*
G37*
G36*
X97227900Y-94544400D02*
G01*
X96365900Y-94544400D01*
X96365900Y-94012400D01*
X97227900Y-94012400D01*
X97227900Y-94544400D01*
X97227900Y-94544400D01*
G37*
G36*
X115607900Y-94544400D02*
G01*
X114745900Y-94544400D01*
X114745900Y-94012400D01*
X115607900Y-94012400D01*
X115607900Y-94544400D01*
X115607900Y-94544400D01*
G37*
G36*
X78847900Y-94544400D02*
G01*
X77985900Y-94544400D01*
X77985900Y-94012400D01*
X78847900Y-94012400D01*
X78847900Y-94544400D01*
X78847900Y-94544400D01*
G37*
G36*
X135507900Y-94544400D02*
G01*
X134645900Y-94544400D01*
X134645900Y-94012400D01*
X135507900Y-94012400D01*
X135507900Y-94544400D01*
X135507900Y-94544400D01*
G37*
G36*
X161557900Y-94544400D02*
G01*
X160695900Y-94544400D01*
X160695900Y-94012400D01*
X161557900Y-94012400D01*
X161557900Y-94544400D01*
X161557900Y-94544400D01*
G37*
G36*
X153887900Y-94544400D02*
G01*
X153025900Y-94544400D01*
X153025900Y-94012400D01*
X153887900Y-94012400D01*
X153887900Y-94544400D01*
X153887900Y-94544400D01*
G37*
G36*
X88037900Y-94544400D02*
G01*
X87175900Y-94544400D01*
X87175900Y-94012400D01*
X88037900Y-94012400D01*
X88037900Y-94544400D01*
X88037900Y-94544400D01*
G37*
G36*
X124797900Y-93744400D02*
G01*
X123935900Y-93744400D01*
X123935900Y-93212400D01*
X124797900Y-93212400D01*
X124797900Y-93744400D01*
X124797900Y-93744400D01*
G37*
G36*
X107937900Y-93744400D02*
G01*
X107075900Y-93744400D01*
X107075900Y-93212400D01*
X107937900Y-93212400D01*
X107937900Y-93744400D01*
X107937900Y-93744400D01*
G37*
G36*
X106417900Y-93744400D02*
G01*
X105555900Y-93744400D01*
X105555900Y-93212400D01*
X106417900Y-93212400D01*
X106417900Y-93744400D01*
X106417900Y-93744400D01*
G37*
G36*
X98747900Y-93744400D02*
G01*
X97885900Y-93744400D01*
X97885900Y-93212400D01*
X98747900Y-93212400D01*
X98747900Y-93744400D01*
X98747900Y-93744400D01*
G37*
G36*
X97227900Y-93744400D02*
G01*
X96365900Y-93744400D01*
X96365900Y-93212400D01*
X97227900Y-93212400D01*
X97227900Y-93744400D01*
X97227900Y-93744400D01*
G37*
G36*
X89557900Y-93744400D02*
G01*
X88695900Y-93744400D01*
X88695900Y-93212400D01*
X89557900Y-93212400D01*
X89557900Y-93744400D01*
X89557900Y-93744400D01*
G37*
G36*
X88037900Y-93744400D02*
G01*
X87175900Y-93744400D01*
X87175900Y-93212400D01*
X88037900Y-93212400D01*
X88037900Y-93744400D01*
X88037900Y-93744400D01*
G37*
G36*
X80367900Y-93744400D02*
G01*
X79505900Y-93744400D01*
X79505900Y-93212400D01*
X80367900Y-93212400D01*
X80367900Y-93744400D01*
X80367900Y-93744400D01*
G37*
G36*
X78847900Y-93744400D02*
G01*
X77985900Y-93744400D01*
X77985900Y-93212400D01*
X78847900Y-93212400D01*
X78847900Y-93744400D01*
X78847900Y-93744400D01*
G37*
G36*
X163077900Y-93744400D02*
G01*
X162215900Y-93744400D01*
X162215900Y-93212400D01*
X163077900Y-93212400D01*
X163077900Y-93744400D01*
X163077900Y-93744400D01*
G37*
G36*
X152367900Y-93744400D02*
G01*
X151505900Y-93744400D01*
X151505900Y-93212400D01*
X152367900Y-93212400D01*
X152367900Y-93744400D01*
X152367900Y-93744400D01*
G37*
G36*
X126317900Y-93744400D02*
G01*
X125455900Y-93744400D01*
X125455900Y-93212400D01*
X126317900Y-93212400D01*
X126317900Y-93744400D01*
X126317900Y-93744400D01*
G37*
G36*
X117127900Y-93744400D02*
G01*
X116265900Y-93744400D01*
X116265900Y-93212400D01*
X117127900Y-93212400D01*
X117127900Y-93744400D01*
X117127900Y-93744400D01*
G37*
G36*
X161557900Y-93744400D02*
G01*
X160695900Y-93744400D01*
X160695900Y-93212400D01*
X161557900Y-93212400D01*
X161557900Y-93744400D01*
X161557900Y-93744400D01*
G37*
G36*
X115607900Y-93744400D02*
G01*
X114745900Y-93744400D01*
X114745900Y-93212400D01*
X115607900Y-93212400D01*
X115607900Y-93744400D01*
X115607900Y-93744400D01*
G37*
G36*
X135507900Y-93744400D02*
G01*
X134645900Y-93744400D01*
X134645900Y-93212400D01*
X135507900Y-93212400D01*
X135507900Y-93744400D01*
X135507900Y-93744400D01*
G37*
G36*
X133987900Y-93744400D02*
G01*
X133125900Y-93744400D01*
X133125900Y-93212400D01*
X133987900Y-93212400D01*
X133987900Y-93744400D01*
X133987900Y-93744400D01*
G37*
G36*
X144697900Y-93744400D02*
G01*
X143835900Y-93744400D01*
X143835900Y-93212400D01*
X144697900Y-93212400D01*
X144697900Y-93744400D01*
X144697900Y-93744400D01*
G37*
G36*
X143177900Y-93744400D02*
G01*
X142315900Y-93744400D01*
X142315900Y-93212400D01*
X143177900Y-93212400D01*
X143177900Y-93744400D01*
X143177900Y-93744400D01*
G37*
G36*
X153887900Y-93744400D02*
G01*
X153025900Y-93744400D01*
X153025900Y-93212400D01*
X153887900Y-93212400D01*
X153887900Y-93744400D01*
X153887900Y-93744400D01*
G37*
G36*
X122771628Y-91599603D02*
G01*
X122926500Y-91663753D01*
X123065881Y-91756885D01*
X123184415Y-91875419D01*
X123277547Y-92014800D01*
X123341697Y-92169672D01*
X123374400Y-92334084D01*
X123374400Y-92501716D01*
X123341697Y-92666128D01*
X123277547Y-92821000D01*
X123184415Y-92960381D01*
X123065881Y-93078915D01*
X122926500Y-93172047D01*
X122771628Y-93236197D01*
X122607216Y-93268900D01*
X122439584Y-93268900D01*
X122275172Y-93236197D01*
X122120300Y-93172047D01*
X121980919Y-93078915D01*
X121862385Y-92960381D01*
X121769253Y-92821000D01*
X121705103Y-92666128D01*
X121672400Y-92501716D01*
X121672400Y-92334084D01*
X121705103Y-92169672D01*
X121769253Y-92014800D01*
X121862385Y-91875419D01*
X121980919Y-91756885D01*
X122120300Y-91663753D01*
X122275172Y-91599603D01*
X122439584Y-91566900D01*
X122607216Y-91566900D01*
X122771628Y-91599603D01*
X122771628Y-91599603D01*
G37*
G36*
X127851628Y-91599603D02*
G01*
X128006500Y-91663753D01*
X128145881Y-91756885D01*
X128264415Y-91875419D01*
X128357547Y-92014800D01*
X128421697Y-92169672D01*
X128454400Y-92334084D01*
X128454400Y-92501716D01*
X128421697Y-92666128D01*
X128357547Y-92821000D01*
X128264415Y-92960381D01*
X128145881Y-93078915D01*
X128006500Y-93172047D01*
X127851628Y-93236197D01*
X127687216Y-93268900D01*
X127519584Y-93268900D01*
X127355172Y-93236197D01*
X127200300Y-93172047D01*
X127060919Y-93078915D01*
X126942385Y-92960381D01*
X126849253Y-92821000D01*
X126785103Y-92666128D01*
X126752400Y-92501716D01*
X126752400Y-92334084D01*
X126785103Y-92169672D01*
X126849253Y-92014800D01*
X126942385Y-91875419D01*
X127060919Y-91756885D01*
X127200300Y-91663753D01*
X127355172Y-91599603D01*
X127519584Y-91566900D01*
X127687216Y-91566900D01*
X127851628Y-91599603D01*
X127851628Y-91599603D01*
G37*
G36*
X113581628Y-91599603D02*
G01*
X113736500Y-91663753D01*
X113875881Y-91756885D01*
X113994415Y-91875419D01*
X114087547Y-92014800D01*
X114151697Y-92169672D01*
X114184400Y-92334084D01*
X114184400Y-92501716D01*
X114151697Y-92666128D01*
X114087547Y-92821000D01*
X113994415Y-92960381D01*
X113875881Y-93078915D01*
X113736500Y-93172047D01*
X113581628Y-93236197D01*
X113417216Y-93268900D01*
X113249584Y-93268900D01*
X113085172Y-93236197D01*
X112930300Y-93172047D01*
X112790919Y-93078915D01*
X112672385Y-92960381D01*
X112579253Y-92821000D01*
X112515103Y-92666128D01*
X112482400Y-92501716D01*
X112482400Y-92334084D01*
X112515103Y-92169672D01*
X112579253Y-92014800D01*
X112672385Y-91875419D01*
X112790919Y-91756885D01*
X112930300Y-91663753D01*
X113085172Y-91599603D01*
X113249584Y-91566900D01*
X113417216Y-91566900D01*
X113581628Y-91599603D01*
X113581628Y-91599603D01*
G37*
G36*
X118661628Y-91599603D02*
G01*
X118816500Y-91663753D01*
X118955881Y-91756885D01*
X119074415Y-91875419D01*
X119167547Y-92014800D01*
X119231697Y-92169672D01*
X119264400Y-92334084D01*
X119264400Y-92501716D01*
X119231697Y-92666128D01*
X119167547Y-92821000D01*
X119074415Y-92960381D01*
X118955881Y-93078915D01*
X118816500Y-93172047D01*
X118661628Y-93236197D01*
X118497216Y-93268900D01*
X118329584Y-93268900D01*
X118165172Y-93236197D01*
X118010300Y-93172047D01*
X117870919Y-93078915D01*
X117752385Y-92960381D01*
X117659253Y-92821000D01*
X117595103Y-92666128D01*
X117562400Y-92501716D01*
X117562400Y-92334084D01*
X117595103Y-92169672D01*
X117659253Y-92014800D01*
X117752385Y-91875419D01*
X117870919Y-91756885D01*
X118010300Y-91663753D01*
X118165172Y-91599603D01*
X118329584Y-91566900D01*
X118497216Y-91566900D01*
X118661628Y-91599603D01*
X118661628Y-91599603D01*
G37*
G36*
X104391628Y-91599603D02*
G01*
X104546500Y-91663753D01*
X104685881Y-91756885D01*
X104804415Y-91875419D01*
X104897547Y-92014800D01*
X104961697Y-92169672D01*
X104994400Y-92334084D01*
X104994400Y-92501716D01*
X104961697Y-92666128D01*
X104897547Y-92821000D01*
X104804415Y-92960381D01*
X104685881Y-93078915D01*
X104546500Y-93172047D01*
X104391628Y-93236197D01*
X104227216Y-93268900D01*
X104059584Y-93268900D01*
X103895172Y-93236197D01*
X103740300Y-93172047D01*
X103600919Y-93078915D01*
X103482385Y-92960381D01*
X103389253Y-92821000D01*
X103325103Y-92666128D01*
X103292400Y-92501716D01*
X103292400Y-92334084D01*
X103325103Y-92169672D01*
X103389253Y-92014800D01*
X103482385Y-91875419D01*
X103600919Y-91756885D01*
X103740300Y-91663753D01*
X103895172Y-91599603D01*
X104059584Y-91566900D01*
X104227216Y-91566900D01*
X104391628Y-91599603D01*
X104391628Y-91599603D01*
G37*
G36*
X109471628Y-91599603D02*
G01*
X109626500Y-91663753D01*
X109765881Y-91756885D01*
X109884415Y-91875419D01*
X109977547Y-92014800D01*
X110041697Y-92169672D01*
X110074400Y-92334084D01*
X110074400Y-92501716D01*
X110041697Y-92666128D01*
X109977547Y-92821000D01*
X109884415Y-92960381D01*
X109765881Y-93078915D01*
X109626500Y-93172047D01*
X109471628Y-93236197D01*
X109307216Y-93268900D01*
X109139584Y-93268900D01*
X108975172Y-93236197D01*
X108820300Y-93172047D01*
X108680919Y-93078915D01*
X108562385Y-92960381D01*
X108469253Y-92821000D01*
X108405103Y-92666128D01*
X108372400Y-92501716D01*
X108372400Y-92334084D01*
X108405103Y-92169672D01*
X108469253Y-92014800D01*
X108562385Y-91875419D01*
X108680919Y-91756885D01*
X108820300Y-91663753D01*
X108975172Y-91599603D01*
X109139584Y-91566900D01*
X109307216Y-91566900D01*
X109471628Y-91599603D01*
X109471628Y-91599603D01*
G37*
G36*
X95201628Y-91599603D02*
G01*
X95356500Y-91663753D01*
X95495881Y-91756885D01*
X95614415Y-91875419D01*
X95707547Y-92014800D01*
X95771697Y-92169672D01*
X95804400Y-92334084D01*
X95804400Y-92501716D01*
X95771697Y-92666128D01*
X95707547Y-92821000D01*
X95614415Y-92960381D01*
X95495881Y-93078915D01*
X95356500Y-93172047D01*
X95201628Y-93236197D01*
X95037216Y-93268900D01*
X94869584Y-93268900D01*
X94705172Y-93236197D01*
X94550300Y-93172047D01*
X94410919Y-93078915D01*
X94292385Y-92960381D01*
X94199253Y-92821000D01*
X94135103Y-92666128D01*
X94102400Y-92501716D01*
X94102400Y-92334084D01*
X94135103Y-92169672D01*
X94199253Y-92014800D01*
X94292385Y-91875419D01*
X94410919Y-91756885D01*
X94550300Y-91663753D01*
X94705172Y-91599603D01*
X94869584Y-91566900D01*
X95037216Y-91566900D01*
X95201628Y-91599603D01*
X95201628Y-91599603D01*
G37*
G36*
X100281628Y-91599603D02*
G01*
X100436500Y-91663753D01*
X100575881Y-91756885D01*
X100694415Y-91875419D01*
X100787547Y-92014800D01*
X100851697Y-92169672D01*
X100884400Y-92334084D01*
X100884400Y-92501716D01*
X100851697Y-92666128D01*
X100787547Y-92821000D01*
X100694415Y-92960381D01*
X100575881Y-93078915D01*
X100436500Y-93172047D01*
X100281628Y-93236197D01*
X100117216Y-93268900D01*
X99949584Y-93268900D01*
X99785172Y-93236197D01*
X99630300Y-93172047D01*
X99490919Y-93078915D01*
X99372385Y-92960381D01*
X99279253Y-92821000D01*
X99215103Y-92666128D01*
X99182400Y-92501716D01*
X99182400Y-92334084D01*
X99215103Y-92169672D01*
X99279253Y-92014800D01*
X99372385Y-91875419D01*
X99490919Y-91756885D01*
X99630300Y-91663753D01*
X99785172Y-91599603D01*
X99949584Y-91566900D01*
X100117216Y-91566900D01*
X100281628Y-91599603D01*
X100281628Y-91599603D01*
G37*
G36*
X137041628Y-91599603D02*
G01*
X137196500Y-91663753D01*
X137335881Y-91756885D01*
X137454415Y-91875419D01*
X137547547Y-92014800D01*
X137611697Y-92169672D01*
X137644400Y-92334084D01*
X137644400Y-92501716D01*
X137611697Y-92666128D01*
X137547547Y-92821000D01*
X137454415Y-92960381D01*
X137335881Y-93078915D01*
X137196500Y-93172047D01*
X137041628Y-93236197D01*
X136877216Y-93268900D01*
X136709584Y-93268900D01*
X136545172Y-93236197D01*
X136390300Y-93172047D01*
X136250919Y-93078915D01*
X136132385Y-92960381D01*
X136039253Y-92821000D01*
X135975103Y-92666128D01*
X135942400Y-92501716D01*
X135942400Y-92334084D01*
X135975103Y-92169672D01*
X136039253Y-92014800D01*
X136132385Y-91875419D01*
X136250919Y-91756885D01*
X136390300Y-91663753D01*
X136545172Y-91599603D01*
X136709584Y-91566900D01*
X136877216Y-91566900D01*
X137041628Y-91599603D01*
X137041628Y-91599603D01*
G37*
G36*
X91091628Y-91599603D02*
G01*
X91246500Y-91663753D01*
X91385881Y-91756885D01*
X91504415Y-91875419D01*
X91597547Y-92014800D01*
X91661697Y-92169672D01*
X91694400Y-92334084D01*
X91694400Y-92501716D01*
X91661697Y-92666128D01*
X91597547Y-92821000D01*
X91504415Y-92960381D01*
X91385881Y-93078915D01*
X91246500Y-93172047D01*
X91091628Y-93236197D01*
X90927216Y-93268900D01*
X90759584Y-93268900D01*
X90595172Y-93236197D01*
X90440300Y-93172047D01*
X90300919Y-93078915D01*
X90182385Y-92960381D01*
X90089253Y-92821000D01*
X90025103Y-92666128D01*
X89992400Y-92501716D01*
X89992400Y-92334084D01*
X90025103Y-92169672D01*
X90089253Y-92014800D01*
X90182385Y-91875419D01*
X90300919Y-91756885D01*
X90440300Y-91663753D01*
X90595172Y-91599603D01*
X90759584Y-91566900D01*
X90927216Y-91566900D01*
X91091628Y-91599603D01*
X91091628Y-91599603D01*
G37*
G36*
X81901628Y-91599603D02*
G01*
X82056500Y-91663753D01*
X82195881Y-91756885D01*
X82314415Y-91875419D01*
X82407547Y-92014800D01*
X82471697Y-92169672D01*
X82504400Y-92334084D01*
X82504400Y-92501716D01*
X82471697Y-92666128D01*
X82407547Y-92821000D01*
X82314415Y-92960381D01*
X82195881Y-93078915D01*
X82056500Y-93172047D01*
X81901628Y-93236197D01*
X81737216Y-93268900D01*
X81569584Y-93268900D01*
X81405172Y-93236197D01*
X81250300Y-93172047D01*
X81110919Y-93078915D01*
X80992385Y-92960381D01*
X80899253Y-92821000D01*
X80835103Y-92666128D01*
X80802400Y-92501716D01*
X80802400Y-92334084D01*
X80835103Y-92169672D01*
X80899253Y-92014800D01*
X80992385Y-91875419D01*
X81110919Y-91756885D01*
X81250300Y-91663753D01*
X81405172Y-91599603D01*
X81569584Y-91566900D01*
X81737216Y-91566900D01*
X81901628Y-91599603D01*
X81901628Y-91599603D01*
G37*
G36*
X164611628Y-91599603D02*
G01*
X164766500Y-91663753D01*
X164905881Y-91756885D01*
X165024415Y-91875419D01*
X165117547Y-92014800D01*
X165181697Y-92169672D01*
X165214400Y-92334084D01*
X165214400Y-92501716D01*
X165181697Y-92666128D01*
X165117547Y-92821000D01*
X165024415Y-92960381D01*
X164905881Y-93078915D01*
X164766500Y-93172047D01*
X164611628Y-93236197D01*
X164447216Y-93268900D01*
X164279584Y-93268900D01*
X164115172Y-93236197D01*
X163960300Y-93172047D01*
X163820919Y-93078915D01*
X163702385Y-92960381D01*
X163609253Y-92821000D01*
X163545103Y-92666128D01*
X163512400Y-92501716D01*
X163512400Y-92334084D01*
X163545103Y-92169672D01*
X163609253Y-92014800D01*
X163702385Y-91875419D01*
X163820919Y-91756885D01*
X163960300Y-91663753D01*
X164115172Y-91599603D01*
X164279584Y-91566900D01*
X164447216Y-91566900D01*
X164611628Y-91599603D01*
X164611628Y-91599603D01*
G37*
G36*
X146231628Y-91599603D02*
G01*
X146386500Y-91663753D01*
X146525881Y-91756885D01*
X146644415Y-91875419D01*
X146737547Y-92014800D01*
X146801697Y-92169672D01*
X146834400Y-92334084D01*
X146834400Y-92501716D01*
X146801697Y-92666128D01*
X146737547Y-92821000D01*
X146644415Y-92960381D01*
X146525881Y-93078915D01*
X146386500Y-93172047D01*
X146231628Y-93236197D01*
X146067216Y-93268900D01*
X145899584Y-93268900D01*
X145735172Y-93236197D01*
X145580300Y-93172047D01*
X145440919Y-93078915D01*
X145322385Y-92960381D01*
X145229253Y-92821000D01*
X145165103Y-92666128D01*
X145132400Y-92501716D01*
X145132400Y-92334084D01*
X145165103Y-92169672D01*
X145229253Y-92014800D01*
X145322385Y-91875419D01*
X145440919Y-91756885D01*
X145580300Y-91663753D01*
X145735172Y-91599603D01*
X145899584Y-91566900D01*
X146067216Y-91566900D01*
X146231628Y-91599603D01*
X146231628Y-91599603D01*
G37*
G36*
X159531628Y-91599603D02*
G01*
X159686500Y-91663753D01*
X159825881Y-91756885D01*
X159944415Y-91875419D01*
X160037547Y-92014800D01*
X160101697Y-92169672D01*
X160134400Y-92334084D01*
X160134400Y-92501716D01*
X160101697Y-92666128D01*
X160037547Y-92821000D01*
X159944415Y-92960381D01*
X159825881Y-93078915D01*
X159686500Y-93172047D01*
X159531628Y-93236197D01*
X159367216Y-93268900D01*
X159199584Y-93268900D01*
X159035172Y-93236197D01*
X158880300Y-93172047D01*
X158740919Y-93078915D01*
X158622385Y-92960381D01*
X158529253Y-92821000D01*
X158465103Y-92666128D01*
X158432400Y-92501716D01*
X158432400Y-92334084D01*
X158465103Y-92169672D01*
X158529253Y-92014800D01*
X158622385Y-91875419D01*
X158740919Y-91756885D01*
X158880300Y-91663753D01*
X159035172Y-91599603D01*
X159199584Y-91566900D01*
X159367216Y-91566900D01*
X159531628Y-91599603D01*
X159531628Y-91599603D01*
G37*
G36*
X150341628Y-91599603D02*
G01*
X150496500Y-91663753D01*
X150635881Y-91756885D01*
X150754415Y-91875419D01*
X150847547Y-92014800D01*
X150911697Y-92169672D01*
X150944400Y-92334084D01*
X150944400Y-92501716D01*
X150911697Y-92666128D01*
X150847547Y-92821000D01*
X150754415Y-92960381D01*
X150635881Y-93078915D01*
X150496500Y-93172047D01*
X150341628Y-93236197D01*
X150177216Y-93268900D01*
X150009584Y-93268900D01*
X149845172Y-93236197D01*
X149690300Y-93172047D01*
X149550919Y-93078915D01*
X149432385Y-92960381D01*
X149339253Y-92821000D01*
X149275103Y-92666128D01*
X149242400Y-92501716D01*
X149242400Y-92334084D01*
X149275103Y-92169672D01*
X149339253Y-92014800D01*
X149432385Y-91875419D01*
X149550919Y-91756885D01*
X149690300Y-91663753D01*
X149845172Y-91599603D01*
X150009584Y-91566900D01*
X150177216Y-91566900D01*
X150341628Y-91599603D01*
X150341628Y-91599603D01*
G37*
G36*
X131961628Y-91599603D02*
G01*
X132116500Y-91663753D01*
X132255881Y-91756885D01*
X132374415Y-91875419D01*
X132467547Y-92014800D01*
X132531697Y-92169672D01*
X132564400Y-92334084D01*
X132564400Y-92501716D01*
X132531697Y-92666128D01*
X132467547Y-92821000D01*
X132374415Y-92960381D01*
X132255881Y-93078915D01*
X132116500Y-93172047D01*
X131961628Y-93236197D01*
X131797216Y-93268900D01*
X131629584Y-93268900D01*
X131465172Y-93236197D01*
X131310300Y-93172047D01*
X131170919Y-93078915D01*
X131052385Y-92960381D01*
X130959253Y-92821000D01*
X130895103Y-92666128D01*
X130862400Y-92501716D01*
X130862400Y-92334084D01*
X130895103Y-92169672D01*
X130959253Y-92014800D01*
X131052385Y-91875419D01*
X131170919Y-91756885D01*
X131310300Y-91663753D01*
X131465172Y-91599603D01*
X131629584Y-91566900D01*
X131797216Y-91566900D01*
X131961628Y-91599603D01*
X131961628Y-91599603D01*
G37*
G36*
X141151628Y-91599603D02*
G01*
X141306500Y-91663753D01*
X141445881Y-91756885D01*
X141564415Y-91875419D01*
X141657547Y-92014800D01*
X141721697Y-92169672D01*
X141754400Y-92334084D01*
X141754400Y-92501716D01*
X141721697Y-92666128D01*
X141657547Y-92821000D01*
X141564415Y-92960381D01*
X141445881Y-93078915D01*
X141306500Y-93172047D01*
X141151628Y-93236197D01*
X140987216Y-93268900D01*
X140819584Y-93268900D01*
X140655172Y-93236197D01*
X140500300Y-93172047D01*
X140360919Y-93078915D01*
X140242385Y-92960381D01*
X140149253Y-92821000D01*
X140085103Y-92666128D01*
X140052400Y-92501716D01*
X140052400Y-92334084D01*
X140085103Y-92169672D01*
X140149253Y-92014800D01*
X140242385Y-91875419D01*
X140360919Y-91756885D01*
X140500300Y-91663753D01*
X140655172Y-91599603D01*
X140819584Y-91566900D01*
X140987216Y-91566900D01*
X141151628Y-91599603D01*
X141151628Y-91599603D01*
G37*
G36*
X155421628Y-91599603D02*
G01*
X155576500Y-91663753D01*
X155715881Y-91756885D01*
X155834415Y-91875419D01*
X155927547Y-92014800D01*
X155991697Y-92169672D01*
X156024400Y-92334084D01*
X156024400Y-92501716D01*
X155991697Y-92666128D01*
X155927547Y-92821000D01*
X155834415Y-92960381D01*
X155715881Y-93078915D01*
X155576500Y-93172047D01*
X155421628Y-93236197D01*
X155257216Y-93268900D01*
X155089584Y-93268900D01*
X154925172Y-93236197D01*
X154770300Y-93172047D01*
X154630919Y-93078915D01*
X154512385Y-92960381D01*
X154419253Y-92821000D01*
X154355103Y-92666128D01*
X154322400Y-92501716D01*
X154322400Y-92334084D01*
X154355103Y-92169672D01*
X154419253Y-92014800D01*
X154512385Y-91875419D01*
X154630919Y-91756885D01*
X154770300Y-91663753D01*
X154925172Y-91599603D01*
X155089584Y-91566900D01*
X155257216Y-91566900D01*
X155421628Y-91599603D01*
X155421628Y-91599603D01*
G37*
G36*
X86011628Y-91599603D02*
G01*
X86166500Y-91663753D01*
X86305881Y-91756885D01*
X86424415Y-91875419D01*
X86517547Y-92014800D01*
X86581697Y-92169672D01*
X86614400Y-92334084D01*
X86614400Y-92501716D01*
X86581697Y-92666128D01*
X86517547Y-92821000D01*
X86424415Y-92960381D01*
X86305881Y-93078915D01*
X86166500Y-93172047D01*
X86011628Y-93236197D01*
X85847216Y-93268900D01*
X85679584Y-93268900D01*
X85515172Y-93236197D01*
X85360300Y-93172047D01*
X85220919Y-93078915D01*
X85102385Y-92960381D01*
X85009253Y-92821000D01*
X84945103Y-92666128D01*
X84912400Y-92501716D01*
X84912400Y-92334084D01*
X84945103Y-92169672D01*
X85009253Y-92014800D01*
X85102385Y-91875419D01*
X85220919Y-91756885D01*
X85360300Y-91663753D01*
X85515172Y-91599603D01*
X85679584Y-91566900D01*
X85847216Y-91566900D01*
X86011628Y-91599603D01*
X86011628Y-91599603D01*
G37*
G36*
X76821628Y-91599603D02*
G01*
X76976500Y-91663753D01*
X77115881Y-91756885D01*
X77234415Y-91875419D01*
X77327547Y-92014800D01*
X77391697Y-92169672D01*
X77424400Y-92334084D01*
X77424400Y-92501716D01*
X77391697Y-92666128D01*
X77327547Y-92821000D01*
X77234415Y-92960381D01*
X77115881Y-93078915D01*
X76976500Y-93172047D01*
X76821628Y-93236197D01*
X76657216Y-93268900D01*
X76489584Y-93268900D01*
X76325172Y-93236197D01*
X76170300Y-93172047D01*
X76030919Y-93078915D01*
X75912385Y-92960381D01*
X75819253Y-92821000D01*
X75755103Y-92666128D01*
X75722400Y-92501716D01*
X75722400Y-92334084D01*
X75755103Y-92169672D01*
X75819253Y-92014800D01*
X75912385Y-91875419D01*
X76030919Y-91756885D01*
X76170300Y-91663753D01*
X76325172Y-91599603D01*
X76489584Y-91566900D01*
X76657216Y-91566900D01*
X76821628Y-91599603D01*
X76821628Y-91599603D01*
G37*
G36*
X126317900Y-92944400D02*
G01*
X125455900Y-92944400D01*
X125455900Y-92412400D01*
X126317900Y-92412400D01*
X126317900Y-92944400D01*
X126317900Y-92944400D01*
G37*
G36*
X124797900Y-92944400D02*
G01*
X123935900Y-92944400D01*
X123935900Y-92412400D01*
X124797900Y-92412400D01*
X124797900Y-92944400D01*
X124797900Y-92944400D01*
G37*
G36*
X135507900Y-92944400D02*
G01*
X134645900Y-92944400D01*
X134645900Y-92412400D01*
X135507900Y-92412400D01*
X135507900Y-92944400D01*
X135507900Y-92944400D01*
G37*
G36*
X133987900Y-92944400D02*
G01*
X133125900Y-92944400D01*
X133125900Y-92412400D01*
X133987900Y-92412400D01*
X133987900Y-92944400D01*
X133987900Y-92944400D01*
G37*
G36*
X144697900Y-92944400D02*
G01*
X143835900Y-92944400D01*
X143835900Y-92412400D01*
X144697900Y-92412400D01*
X144697900Y-92944400D01*
X144697900Y-92944400D01*
G37*
G36*
X153887900Y-92944400D02*
G01*
X153025900Y-92944400D01*
X153025900Y-92412400D01*
X153887900Y-92412400D01*
X153887900Y-92944400D01*
X153887900Y-92944400D01*
G37*
G36*
X143177900Y-92944400D02*
G01*
X142315900Y-92944400D01*
X142315900Y-92412400D01*
X143177900Y-92412400D01*
X143177900Y-92944400D01*
X143177900Y-92944400D01*
G37*
G36*
X152367900Y-92944400D02*
G01*
X151505900Y-92944400D01*
X151505900Y-92412400D01*
X152367900Y-92412400D01*
X152367900Y-92944400D01*
X152367900Y-92944400D01*
G37*
G36*
X163077900Y-92944400D02*
G01*
X162215900Y-92944400D01*
X162215900Y-92412400D01*
X163077900Y-92412400D01*
X163077900Y-92944400D01*
X163077900Y-92944400D01*
G37*
G36*
X161557900Y-92944400D02*
G01*
X160695900Y-92944400D01*
X160695900Y-92412400D01*
X161557900Y-92412400D01*
X161557900Y-92944400D01*
X161557900Y-92944400D01*
G37*
G36*
X80367900Y-92944400D02*
G01*
X79505900Y-92944400D01*
X79505900Y-92412400D01*
X80367900Y-92412400D01*
X80367900Y-92944400D01*
X80367900Y-92944400D01*
G37*
G36*
X78847900Y-92944400D02*
G01*
X77985900Y-92944400D01*
X77985900Y-92412400D01*
X78847900Y-92412400D01*
X78847900Y-92944400D01*
X78847900Y-92944400D01*
G37*
G36*
X115607900Y-92944400D02*
G01*
X114745900Y-92944400D01*
X114745900Y-92412400D01*
X115607900Y-92412400D01*
X115607900Y-92944400D01*
X115607900Y-92944400D01*
G37*
G36*
X107937900Y-92944400D02*
G01*
X107075900Y-92944400D01*
X107075900Y-92412400D01*
X107937900Y-92412400D01*
X107937900Y-92944400D01*
X107937900Y-92944400D01*
G37*
G36*
X117127900Y-92944400D02*
G01*
X116265900Y-92944400D01*
X116265900Y-92412400D01*
X117127900Y-92412400D01*
X117127900Y-92944400D01*
X117127900Y-92944400D01*
G37*
G36*
X106417900Y-92944400D02*
G01*
X105555900Y-92944400D01*
X105555900Y-92412400D01*
X106417900Y-92412400D01*
X106417900Y-92944400D01*
X106417900Y-92944400D01*
G37*
G36*
X98747900Y-92944400D02*
G01*
X97885900Y-92944400D01*
X97885900Y-92412400D01*
X98747900Y-92412400D01*
X98747900Y-92944400D01*
X98747900Y-92944400D01*
G37*
G36*
X97227900Y-92944400D02*
G01*
X96365900Y-92944400D01*
X96365900Y-92412400D01*
X97227900Y-92412400D01*
X97227900Y-92944400D01*
X97227900Y-92944400D01*
G37*
G36*
X89557900Y-92944400D02*
G01*
X88695900Y-92944400D01*
X88695900Y-92412400D01*
X89557900Y-92412400D01*
X89557900Y-92944400D01*
X89557900Y-92944400D01*
G37*
G36*
X88037900Y-92944400D02*
G01*
X87175900Y-92944400D01*
X87175900Y-92412400D01*
X88037900Y-92412400D01*
X88037900Y-92944400D01*
X88037900Y-92944400D01*
G37*
G36*
X126317900Y-92144400D02*
G01*
X125455900Y-92144400D01*
X125455900Y-91612400D01*
X126317900Y-91612400D01*
X126317900Y-92144400D01*
X126317900Y-92144400D01*
G37*
G36*
X161557900Y-92144400D02*
G01*
X160695900Y-92144400D01*
X160695900Y-91612400D01*
X161557900Y-91612400D01*
X161557900Y-92144400D01*
X161557900Y-92144400D01*
G37*
G36*
X163077900Y-92144400D02*
G01*
X162215900Y-92144400D01*
X162215900Y-91612400D01*
X163077900Y-91612400D01*
X163077900Y-92144400D01*
X163077900Y-92144400D01*
G37*
G36*
X152367900Y-92144400D02*
G01*
X151505900Y-92144400D01*
X151505900Y-91612400D01*
X152367900Y-91612400D01*
X152367900Y-92144400D01*
X152367900Y-92144400D01*
G37*
G36*
X98747900Y-92144400D02*
G01*
X97885900Y-92144400D01*
X97885900Y-91612400D01*
X98747900Y-91612400D01*
X98747900Y-92144400D01*
X98747900Y-92144400D01*
G37*
G36*
X106417900Y-92144400D02*
G01*
X105555900Y-92144400D01*
X105555900Y-91612400D01*
X106417900Y-91612400D01*
X106417900Y-92144400D01*
X106417900Y-92144400D01*
G37*
G36*
X117127900Y-92144400D02*
G01*
X116265900Y-92144400D01*
X116265900Y-91612400D01*
X117127900Y-91612400D01*
X117127900Y-92144400D01*
X117127900Y-92144400D01*
G37*
G36*
X115607900Y-92144400D02*
G01*
X114745900Y-92144400D01*
X114745900Y-91612400D01*
X115607900Y-91612400D01*
X115607900Y-92144400D01*
X115607900Y-92144400D01*
G37*
G36*
X107937900Y-92144400D02*
G01*
X107075900Y-92144400D01*
X107075900Y-91612400D01*
X107937900Y-91612400D01*
X107937900Y-92144400D01*
X107937900Y-92144400D01*
G37*
G36*
X97227900Y-92144400D02*
G01*
X96365900Y-92144400D01*
X96365900Y-91612400D01*
X97227900Y-91612400D01*
X97227900Y-92144400D01*
X97227900Y-92144400D01*
G37*
G36*
X124797900Y-92144400D02*
G01*
X123935900Y-92144400D01*
X123935900Y-91612400D01*
X124797900Y-91612400D01*
X124797900Y-92144400D01*
X124797900Y-92144400D01*
G37*
G36*
X80367900Y-92144400D02*
G01*
X79505900Y-92144400D01*
X79505900Y-91612400D01*
X80367900Y-91612400D01*
X80367900Y-92144400D01*
X80367900Y-92144400D01*
G37*
G36*
X78847900Y-92144400D02*
G01*
X77985900Y-92144400D01*
X77985900Y-91612400D01*
X78847900Y-91612400D01*
X78847900Y-92144400D01*
X78847900Y-92144400D01*
G37*
G36*
X153887900Y-92144400D02*
G01*
X153025900Y-92144400D01*
X153025900Y-91612400D01*
X153887900Y-91612400D01*
X153887900Y-92144400D01*
X153887900Y-92144400D01*
G37*
G36*
X89557900Y-92144400D02*
G01*
X88695900Y-92144400D01*
X88695900Y-91612400D01*
X89557900Y-91612400D01*
X89557900Y-92144400D01*
X89557900Y-92144400D01*
G37*
G36*
X143177900Y-92144400D02*
G01*
X142315900Y-92144400D01*
X142315900Y-91612400D01*
X143177900Y-91612400D01*
X143177900Y-92144400D01*
X143177900Y-92144400D01*
G37*
G36*
X144697900Y-92144400D02*
G01*
X143835900Y-92144400D01*
X143835900Y-91612400D01*
X144697900Y-91612400D01*
X144697900Y-92144400D01*
X144697900Y-92144400D01*
G37*
G36*
X88037900Y-92144400D02*
G01*
X87175900Y-92144400D01*
X87175900Y-91612400D01*
X88037900Y-91612400D01*
X88037900Y-92144400D01*
X88037900Y-92144400D01*
G37*
G36*
X133987900Y-92144400D02*
G01*
X133125900Y-92144400D01*
X133125900Y-91612400D01*
X133987900Y-91612400D01*
X133987900Y-92144400D01*
X133987900Y-92144400D01*
G37*
G36*
X135507900Y-92144400D02*
G01*
X134645900Y-92144400D01*
X134645900Y-91612400D01*
X135507900Y-91612400D01*
X135507900Y-92144400D01*
X135507900Y-92144400D01*
G37*
G36*
X78847900Y-91344400D02*
G01*
X77985900Y-91344400D01*
X77985900Y-90812400D01*
X78847900Y-90812400D01*
X78847900Y-91344400D01*
X78847900Y-91344400D01*
G37*
G36*
X153887900Y-91344400D02*
G01*
X153025900Y-91344400D01*
X153025900Y-90812400D01*
X153887900Y-90812400D01*
X153887900Y-91344400D01*
X153887900Y-91344400D01*
G37*
G36*
X80367900Y-91344400D02*
G01*
X79505900Y-91344400D01*
X79505900Y-90812400D01*
X80367900Y-90812400D01*
X80367900Y-91344400D01*
X80367900Y-91344400D01*
G37*
G36*
X152367900Y-91344400D02*
G01*
X151505900Y-91344400D01*
X151505900Y-90812400D01*
X152367900Y-90812400D01*
X152367900Y-91344400D01*
X152367900Y-91344400D01*
G37*
G36*
X133987900Y-91344400D02*
G01*
X133125900Y-91344400D01*
X133125900Y-90812400D01*
X133987900Y-90812400D01*
X133987900Y-91344400D01*
X133987900Y-91344400D01*
G37*
G36*
X144697900Y-91344400D02*
G01*
X143835900Y-91344400D01*
X143835900Y-90812400D01*
X144697900Y-90812400D01*
X144697900Y-91344400D01*
X144697900Y-91344400D01*
G37*
G36*
X143177900Y-91344400D02*
G01*
X142315900Y-91344400D01*
X142315900Y-90812400D01*
X143177900Y-90812400D01*
X143177900Y-91344400D01*
X143177900Y-91344400D01*
G37*
G36*
X117127900Y-91344400D02*
G01*
X116265900Y-91344400D01*
X116265900Y-90812400D01*
X117127900Y-90812400D01*
X117127900Y-91344400D01*
X117127900Y-91344400D01*
G37*
G36*
X115607900Y-91344400D02*
G01*
X114745900Y-91344400D01*
X114745900Y-90812400D01*
X115607900Y-90812400D01*
X115607900Y-91344400D01*
X115607900Y-91344400D01*
G37*
G36*
X106417900Y-91344400D02*
G01*
X105555900Y-91344400D01*
X105555900Y-90812400D01*
X106417900Y-90812400D01*
X106417900Y-91344400D01*
X106417900Y-91344400D01*
G37*
G36*
X161557900Y-91344400D02*
G01*
X160695900Y-91344400D01*
X160695900Y-90812400D01*
X161557900Y-90812400D01*
X161557900Y-91344400D01*
X161557900Y-91344400D01*
G37*
G36*
X97227900Y-91344400D02*
G01*
X96365900Y-91344400D01*
X96365900Y-90812400D01*
X97227900Y-90812400D01*
X97227900Y-91344400D01*
X97227900Y-91344400D01*
G37*
G36*
X98747900Y-91344400D02*
G01*
X97885900Y-91344400D01*
X97885900Y-90812400D01*
X98747900Y-90812400D01*
X98747900Y-91344400D01*
X98747900Y-91344400D01*
G37*
G36*
X126317900Y-91344400D02*
G01*
X125455900Y-91344400D01*
X125455900Y-90812400D01*
X126317900Y-90812400D01*
X126317900Y-91344400D01*
X126317900Y-91344400D01*
G37*
G36*
X163077900Y-91344400D02*
G01*
X162215900Y-91344400D01*
X162215900Y-90812400D01*
X163077900Y-90812400D01*
X163077900Y-91344400D01*
X163077900Y-91344400D01*
G37*
G36*
X124797900Y-91344400D02*
G01*
X123935900Y-91344400D01*
X123935900Y-90812400D01*
X124797900Y-90812400D01*
X124797900Y-91344400D01*
X124797900Y-91344400D01*
G37*
G36*
X88037900Y-91344400D02*
G01*
X87175900Y-91344400D01*
X87175900Y-90812400D01*
X88037900Y-90812400D01*
X88037900Y-91344400D01*
X88037900Y-91344400D01*
G37*
G36*
X135507900Y-91344400D02*
G01*
X134645900Y-91344400D01*
X134645900Y-90812400D01*
X135507900Y-90812400D01*
X135507900Y-91344400D01*
X135507900Y-91344400D01*
G37*
G36*
X89557900Y-91344400D02*
G01*
X88695900Y-91344400D01*
X88695900Y-90812400D01*
X89557900Y-90812400D01*
X89557900Y-91344400D01*
X89557900Y-91344400D01*
G37*
G36*
X107937900Y-91344400D02*
G01*
X107075900Y-91344400D01*
X107075900Y-90812400D01*
X107937900Y-90812400D01*
X107937900Y-91344400D01*
X107937900Y-91344400D01*
G37*
G36*
X164611628Y-89059603D02*
G01*
X164766500Y-89123753D01*
X164905881Y-89216885D01*
X165024415Y-89335419D01*
X165117547Y-89474800D01*
X165181697Y-89629672D01*
X165214400Y-89794084D01*
X165214400Y-89961716D01*
X165181697Y-90126128D01*
X165117547Y-90281000D01*
X165024415Y-90420381D01*
X164905881Y-90538915D01*
X164766500Y-90632047D01*
X164611628Y-90696197D01*
X164447216Y-90728900D01*
X164279584Y-90728900D01*
X164115172Y-90696197D01*
X163960300Y-90632047D01*
X163820919Y-90538915D01*
X163702385Y-90420381D01*
X163609253Y-90281000D01*
X163545103Y-90126128D01*
X163512400Y-89961716D01*
X163512400Y-89794084D01*
X163545103Y-89629672D01*
X163609253Y-89474800D01*
X163702385Y-89335419D01*
X163820919Y-89216885D01*
X163960300Y-89123753D01*
X164115172Y-89059603D01*
X164279584Y-89026900D01*
X164447216Y-89026900D01*
X164611628Y-89059603D01*
X164611628Y-89059603D01*
G37*
G36*
X160134400Y-90728900D02*
G01*
X158432400Y-90728900D01*
X158432400Y-89026900D01*
X160134400Y-89026900D01*
X160134400Y-90728900D01*
X160134400Y-90728900D01*
G37*
G36*
X155421628Y-89059603D02*
G01*
X155576500Y-89123753D01*
X155715881Y-89216885D01*
X155834415Y-89335419D01*
X155927547Y-89474800D01*
X155991697Y-89629672D01*
X156024400Y-89794084D01*
X156024400Y-89961716D01*
X155991697Y-90126128D01*
X155927547Y-90281000D01*
X155834415Y-90420381D01*
X155715881Y-90538915D01*
X155576500Y-90632047D01*
X155421628Y-90696197D01*
X155257216Y-90728900D01*
X155089584Y-90728900D01*
X154925172Y-90696197D01*
X154770300Y-90632047D01*
X154630919Y-90538915D01*
X154512385Y-90420381D01*
X154419253Y-90281000D01*
X154355103Y-90126128D01*
X154322400Y-89961716D01*
X154322400Y-89794084D01*
X154355103Y-89629672D01*
X154419253Y-89474800D01*
X154512385Y-89335419D01*
X154630919Y-89216885D01*
X154770300Y-89123753D01*
X154925172Y-89059603D01*
X155089584Y-89026900D01*
X155257216Y-89026900D01*
X155421628Y-89059603D01*
X155421628Y-89059603D01*
G37*
G36*
X150944400Y-90728900D02*
G01*
X149242400Y-90728900D01*
X149242400Y-89026900D01*
X150944400Y-89026900D01*
X150944400Y-90728900D01*
X150944400Y-90728900D01*
G37*
G36*
X146231628Y-89059603D02*
G01*
X146386500Y-89123753D01*
X146525881Y-89216885D01*
X146644415Y-89335419D01*
X146737547Y-89474800D01*
X146801697Y-89629672D01*
X146834400Y-89794084D01*
X146834400Y-89961716D01*
X146801697Y-90126128D01*
X146737547Y-90281000D01*
X146644415Y-90420381D01*
X146525881Y-90538915D01*
X146386500Y-90632047D01*
X146231628Y-90696197D01*
X146067216Y-90728900D01*
X145899584Y-90728900D01*
X145735172Y-90696197D01*
X145580300Y-90632047D01*
X145440919Y-90538915D01*
X145322385Y-90420381D01*
X145229253Y-90281000D01*
X145165103Y-90126128D01*
X145132400Y-89961716D01*
X145132400Y-89794084D01*
X145165103Y-89629672D01*
X145229253Y-89474800D01*
X145322385Y-89335419D01*
X145440919Y-89216885D01*
X145580300Y-89123753D01*
X145735172Y-89059603D01*
X145899584Y-89026900D01*
X146067216Y-89026900D01*
X146231628Y-89059603D01*
X146231628Y-89059603D01*
G37*
G36*
X141754400Y-90728900D02*
G01*
X140052400Y-90728900D01*
X140052400Y-89026900D01*
X141754400Y-89026900D01*
X141754400Y-90728900D01*
X141754400Y-90728900D01*
G37*
G36*
X132564400Y-90728900D02*
G01*
X130862400Y-90728900D01*
X130862400Y-89026900D01*
X132564400Y-89026900D01*
X132564400Y-90728900D01*
X132564400Y-90728900D01*
G37*
G36*
X77424400Y-90728900D02*
G01*
X75722400Y-90728900D01*
X75722400Y-89026900D01*
X77424400Y-89026900D01*
X77424400Y-90728900D01*
X77424400Y-90728900D01*
G37*
G36*
X91091628Y-89059603D02*
G01*
X91246500Y-89123753D01*
X91385881Y-89216885D01*
X91504415Y-89335419D01*
X91597547Y-89474800D01*
X91661697Y-89629672D01*
X91694400Y-89794084D01*
X91694400Y-89961716D01*
X91661697Y-90126128D01*
X91597547Y-90281000D01*
X91504415Y-90420381D01*
X91385881Y-90538915D01*
X91246500Y-90632047D01*
X91091628Y-90696197D01*
X90927216Y-90728900D01*
X90759584Y-90728900D01*
X90595172Y-90696197D01*
X90440300Y-90632047D01*
X90300919Y-90538915D01*
X90182385Y-90420381D01*
X90089253Y-90281000D01*
X90025103Y-90126128D01*
X89992400Y-89961716D01*
X89992400Y-89794084D01*
X90025103Y-89629672D01*
X90089253Y-89474800D01*
X90182385Y-89335419D01*
X90300919Y-89216885D01*
X90440300Y-89123753D01*
X90595172Y-89059603D01*
X90759584Y-89026900D01*
X90927216Y-89026900D01*
X91091628Y-89059603D01*
X91091628Y-89059603D01*
G37*
G36*
X81901628Y-89059603D02*
G01*
X82056500Y-89123753D01*
X82195881Y-89216885D01*
X82314415Y-89335419D01*
X82407547Y-89474800D01*
X82471697Y-89629672D01*
X82504400Y-89794084D01*
X82504400Y-89961716D01*
X82471697Y-90126128D01*
X82407547Y-90281000D01*
X82314415Y-90420381D01*
X82195881Y-90538915D01*
X82056500Y-90632047D01*
X81901628Y-90696197D01*
X81737216Y-90728900D01*
X81569584Y-90728900D01*
X81405172Y-90696197D01*
X81250300Y-90632047D01*
X81110919Y-90538915D01*
X80992385Y-90420381D01*
X80899253Y-90281000D01*
X80835103Y-90126128D01*
X80802400Y-89961716D01*
X80802400Y-89794084D01*
X80835103Y-89629672D01*
X80899253Y-89474800D01*
X80992385Y-89335419D01*
X81110919Y-89216885D01*
X81250300Y-89123753D01*
X81405172Y-89059603D01*
X81569584Y-89026900D01*
X81737216Y-89026900D01*
X81901628Y-89059603D01*
X81901628Y-89059603D01*
G37*
G36*
X137041628Y-89059603D02*
G01*
X137196500Y-89123753D01*
X137335881Y-89216885D01*
X137454415Y-89335419D01*
X137547547Y-89474800D01*
X137611697Y-89629672D01*
X137644400Y-89794084D01*
X137644400Y-89961716D01*
X137611697Y-90126128D01*
X137547547Y-90281000D01*
X137454415Y-90420381D01*
X137335881Y-90538915D01*
X137196500Y-90632047D01*
X137041628Y-90696197D01*
X136877216Y-90728900D01*
X136709584Y-90728900D01*
X136545172Y-90696197D01*
X136390300Y-90632047D01*
X136250919Y-90538915D01*
X136132385Y-90420381D01*
X136039253Y-90281000D01*
X135975103Y-90126128D01*
X135942400Y-89961716D01*
X135942400Y-89794084D01*
X135975103Y-89629672D01*
X136039253Y-89474800D01*
X136132385Y-89335419D01*
X136250919Y-89216885D01*
X136390300Y-89123753D01*
X136545172Y-89059603D01*
X136709584Y-89026900D01*
X136877216Y-89026900D01*
X137041628Y-89059603D01*
X137041628Y-89059603D01*
G37*
G36*
X109471628Y-89059603D02*
G01*
X109626500Y-89123753D01*
X109765881Y-89216885D01*
X109884415Y-89335419D01*
X109977547Y-89474800D01*
X110041697Y-89629672D01*
X110074400Y-89794084D01*
X110074400Y-89961716D01*
X110041697Y-90126128D01*
X109977547Y-90281000D01*
X109884415Y-90420381D01*
X109765881Y-90538915D01*
X109626500Y-90632047D01*
X109471628Y-90696197D01*
X109307216Y-90728900D01*
X109139584Y-90728900D01*
X108975172Y-90696197D01*
X108820300Y-90632047D01*
X108680919Y-90538915D01*
X108562385Y-90420381D01*
X108469253Y-90281000D01*
X108405103Y-90126128D01*
X108372400Y-89961716D01*
X108372400Y-89794084D01*
X108405103Y-89629672D01*
X108469253Y-89474800D01*
X108562385Y-89335419D01*
X108680919Y-89216885D01*
X108820300Y-89123753D01*
X108975172Y-89059603D01*
X109139584Y-89026900D01*
X109307216Y-89026900D01*
X109471628Y-89059603D01*
X109471628Y-89059603D01*
G37*
G36*
X86614400Y-90728900D02*
G01*
X84912400Y-90728900D01*
X84912400Y-89026900D01*
X86614400Y-89026900D01*
X86614400Y-90728900D01*
X86614400Y-90728900D01*
G37*
G36*
X100281628Y-89059603D02*
G01*
X100436500Y-89123753D01*
X100575881Y-89216885D01*
X100694415Y-89335419D01*
X100787547Y-89474800D01*
X100851697Y-89629672D01*
X100884400Y-89794084D01*
X100884400Y-89961716D01*
X100851697Y-90126128D01*
X100787547Y-90281000D01*
X100694415Y-90420381D01*
X100575881Y-90538915D01*
X100436500Y-90632047D01*
X100281628Y-90696197D01*
X100117216Y-90728900D01*
X99949584Y-90728900D01*
X99785172Y-90696197D01*
X99630300Y-90632047D01*
X99490919Y-90538915D01*
X99372385Y-90420381D01*
X99279253Y-90281000D01*
X99215103Y-90126128D01*
X99182400Y-89961716D01*
X99182400Y-89794084D01*
X99215103Y-89629672D01*
X99279253Y-89474800D01*
X99372385Y-89335419D01*
X99490919Y-89216885D01*
X99630300Y-89123753D01*
X99785172Y-89059603D01*
X99949584Y-89026900D01*
X100117216Y-89026900D01*
X100281628Y-89059603D01*
X100281628Y-89059603D01*
G37*
G36*
X95804400Y-90728900D02*
G01*
X94102400Y-90728900D01*
X94102400Y-89026900D01*
X95804400Y-89026900D01*
X95804400Y-90728900D01*
X95804400Y-90728900D01*
G37*
G36*
X104994400Y-90728900D02*
G01*
X103292400Y-90728900D01*
X103292400Y-89026900D01*
X104994400Y-89026900D01*
X104994400Y-90728900D01*
X104994400Y-90728900D01*
G37*
G36*
X118661628Y-89059603D02*
G01*
X118816500Y-89123753D01*
X118955881Y-89216885D01*
X119074415Y-89335419D01*
X119167547Y-89474800D01*
X119231697Y-89629672D01*
X119264400Y-89794084D01*
X119264400Y-89961716D01*
X119231697Y-90126128D01*
X119167547Y-90281000D01*
X119074415Y-90420381D01*
X118955881Y-90538915D01*
X118816500Y-90632047D01*
X118661628Y-90696197D01*
X118497216Y-90728900D01*
X118329584Y-90728900D01*
X118165172Y-90696197D01*
X118010300Y-90632047D01*
X117870919Y-90538915D01*
X117752385Y-90420381D01*
X117659253Y-90281000D01*
X117595103Y-90126128D01*
X117562400Y-89961716D01*
X117562400Y-89794084D01*
X117595103Y-89629672D01*
X117659253Y-89474800D01*
X117752385Y-89335419D01*
X117870919Y-89216885D01*
X118010300Y-89123753D01*
X118165172Y-89059603D01*
X118329584Y-89026900D01*
X118497216Y-89026900D01*
X118661628Y-89059603D01*
X118661628Y-89059603D01*
G37*
G36*
X114184400Y-90728900D02*
G01*
X112482400Y-90728900D01*
X112482400Y-89026900D01*
X114184400Y-89026900D01*
X114184400Y-90728900D01*
X114184400Y-90728900D01*
G37*
G36*
X127851628Y-89059603D02*
G01*
X128006500Y-89123753D01*
X128145881Y-89216885D01*
X128264415Y-89335419D01*
X128357547Y-89474800D01*
X128421697Y-89629672D01*
X128454400Y-89794084D01*
X128454400Y-89961716D01*
X128421697Y-90126128D01*
X128357547Y-90281000D01*
X128264415Y-90420381D01*
X128145881Y-90538915D01*
X128006500Y-90632047D01*
X127851628Y-90696197D01*
X127687216Y-90728900D01*
X127519584Y-90728900D01*
X127355172Y-90696197D01*
X127200300Y-90632047D01*
X127060919Y-90538915D01*
X126942385Y-90420381D01*
X126849253Y-90281000D01*
X126785103Y-90126128D01*
X126752400Y-89961716D01*
X126752400Y-89794084D01*
X126785103Y-89629672D01*
X126849253Y-89474800D01*
X126942385Y-89335419D01*
X127060919Y-89216885D01*
X127200300Y-89123753D01*
X127355172Y-89059603D01*
X127519584Y-89026900D01*
X127687216Y-89026900D01*
X127851628Y-89059603D01*
X127851628Y-89059603D01*
G37*
G36*
X123374400Y-90728900D02*
G01*
X121672400Y-90728900D01*
X121672400Y-89026900D01*
X123374400Y-89026900D01*
X123374400Y-90728900D01*
X123374400Y-90728900D01*
G37*
G36*
X124827900Y-89986400D02*
G01*
X123925900Y-89986400D01*
X123925900Y-89134400D01*
X124827900Y-89134400D01*
X124827900Y-89986400D01*
X124827900Y-89986400D01*
G37*
G36*
X163087900Y-89986400D02*
G01*
X162185900Y-89986400D01*
X162185900Y-89134400D01*
X163087900Y-89134400D01*
X163087900Y-89986400D01*
X163087900Y-89986400D01*
G37*
G36*
X161587900Y-89986400D02*
G01*
X160685900Y-89986400D01*
X160685900Y-89134400D01*
X161587900Y-89134400D01*
X161587900Y-89986400D01*
X161587900Y-89986400D01*
G37*
G36*
X153897900Y-89986400D02*
G01*
X152995900Y-89986400D01*
X152995900Y-89134400D01*
X153897900Y-89134400D01*
X153897900Y-89986400D01*
X153897900Y-89986400D01*
G37*
G36*
X152397900Y-89986400D02*
G01*
X151495900Y-89986400D01*
X151495900Y-89134400D01*
X152397900Y-89134400D01*
X152397900Y-89986400D01*
X152397900Y-89986400D01*
G37*
G36*
X144707900Y-89986400D02*
G01*
X143805900Y-89986400D01*
X143805900Y-89134400D01*
X144707900Y-89134400D01*
X144707900Y-89986400D01*
X144707900Y-89986400D01*
G37*
G36*
X143207900Y-89986400D02*
G01*
X142305900Y-89986400D01*
X142305900Y-89134400D01*
X143207900Y-89134400D01*
X143207900Y-89986400D01*
X143207900Y-89986400D01*
G37*
G36*
X135517900Y-89986400D02*
G01*
X134615900Y-89986400D01*
X134615900Y-89134400D01*
X135517900Y-89134400D01*
X135517900Y-89986400D01*
X135517900Y-89986400D01*
G37*
G36*
X134017900Y-89986400D02*
G01*
X133115900Y-89986400D01*
X133115900Y-89134400D01*
X134017900Y-89134400D01*
X134017900Y-89986400D01*
X134017900Y-89986400D01*
G37*
G36*
X126327900Y-89986400D02*
G01*
X125425900Y-89986400D01*
X125425900Y-89134400D01*
X126327900Y-89134400D01*
X126327900Y-89986400D01*
X126327900Y-89986400D01*
G37*
G36*
X117137900Y-89986400D02*
G01*
X116235900Y-89986400D01*
X116235900Y-89134400D01*
X117137900Y-89134400D01*
X117137900Y-89986400D01*
X117137900Y-89986400D01*
G37*
G36*
X80377900Y-89986400D02*
G01*
X79475900Y-89986400D01*
X79475900Y-89134400D01*
X80377900Y-89134400D01*
X80377900Y-89986400D01*
X80377900Y-89986400D01*
G37*
G36*
X88067900Y-89986400D02*
G01*
X87165900Y-89986400D01*
X87165900Y-89134400D01*
X88067900Y-89134400D01*
X88067900Y-89986400D01*
X88067900Y-89986400D01*
G37*
G36*
X78877900Y-89986400D02*
G01*
X77975900Y-89986400D01*
X77975900Y-89134400D01*
X78877900Y-89134400D01*
X78877900Y-89986400D01*
X78877900Y-89986400D01*
G37*
G36*
X89567900Y-89986400D02*
G01*
X88665900Y-89986400D01*
X88665900Y-89134400D01*
X89567900Y-89134400D01*
X89567900Y-89986400D01*
X89567900Y-89986400D01*
G37*
G36*
X97257900Y-89986400D02*
G01*
X96355900Y-89986400D01*
X96355900Y-89134400D01*
X97257900Y-89134400D01*
X97257900Y-89986400D01*
X97257900Y-89986400D01*
G37*
G36*
X98757900Y-89986400D02*
G01*
X97855900Y-89986400D01*
X97855900Y-89134400D01*
X98757900Y-89134400D01*
X98757900Y-89986400D01*
X98757900Y-89986400D01*
G37*
G36*
X106447900Y-89986400D02*
G01*
X105545900Y-89986400D01*
X105545900Y-89134400D01*
X106447900Y-89134400D01*
X106447900Y-89986400D01*
X106447900Y-89986400D01*
G37*
G36*
X107947900Y-89986400D02*
G01*
X107045900Y-89986400D01*
X107045900Y-89134400D01*
X107947900Y-89134400D01*
X107947900Y-89986400D01*
X107947900Y-89986400D01*
G37*
G36*
X115637900Y-89986400D02*
G01*
X114735900Y-89986400D01*
X114735900Y-89134400D01*
X115637900Y-89134400D01*
X115637900Y-89986400D01*
X115637900Y-89986400D01*
G37*
G36*
X128877900Y-88491900D02*
G01*
X127275900Y-88491900D01*
X127275900Y-83389900D01*
X128877900Y-83389900D01*
X128877900Y-88491900D01*
X128877900Y-88491900D01*
G37*
G36*
X101307900Y-88491900D02*
G01*
X99705900Y-88491900D01*
X99705900Y-83389900D01*
X101307900Y-83389900D01*
X101307900Y-88491900D01*
X101307900Y-88491900D01*
G37*
G36*
X95407900Y-88491900D02*
G01*
X93805900Y-88491900D01*
X93805900Y-83389900D01*
X95407900Y-83389900D01*
X95407900Y-88491900D01*
X95407900Y-88491900D01*
G37*
G36*
X82927900Y-88491900D02*
G01*
X81325900Y-88491900D01*
X81325900Y-83389900D01*
X82927900Y-83389900D01*
X82927900Y-88491900D01*
X82927900Y-88491900D01*
G37*
G36*
X156447900Y-88491900D02*
G01*
X154845900Y-88491900D01*
X154845900Y-83389900D01*
X156447900Y-83389900D01*
X156447900Y-88491900D01*
X156447900Y-88491900D01*
G37*
G36*
X150547900Y-88491900D02*
G01*
X148945900Y-88491900D01*
X148945900Y-83389900D01*
X150547900Y-83389900D01*
X150547900Y-88491900D01*
X150547900Y-88491900D01*
G37*
G36*
X77027900Y-88491900D02*
G01*
X75425900Y-88491900D01*
X75425900Y-83389900D01*
X77027900Y-83389900D01*
X77027900Y-88491900D01*
X77027900Y-88491900D01*
G37*
G36*
X113787900Y-88491900D02*
G01*
X112185900Y-88491900D01*
X112185900Y-83389900D01*
X113787900Y-83389900D01*
X113787900Y-88491900D01*
X113787900Y-88491900D01*
G37*
G36*
X119687900Y-88491900D02*
G01*
X118085900Y-88491900D01*
X118085900Y-83389900D01*
X119687900Y-83389900D01*
X119687900Y-88491900D01*
X119687900Y-88491900D01*
G37*
G36*
X122977900Y-88491900D02*
G01*
X121375900Y-88491900D01*
X121375900Y-83389900D01*
X122977900Y-83389900D01*
X122977900Y-88491900D01*
X122977900Y-88491900D01*
G37*
G36*
X104597900Y-88491900D02*
G01*
X102995900Y-88491900D01*
X102995900Y-83389900D01*
X104597900Y-83389900D01*
X104597900Y-88491900D01*
X104597900Y-88491900D01*
G37*
G36*
X86217900Y-88491900D02*
G01*
X84615900Y-88491900D01*
X84615900Y-83389900D01*
X86217900Y-83389900D01*
X86217900Y-88491900D01*
X86217900Y-88491900D01*
G37*
G36*
X132167900Y-88491900D02*
G01*
X130565900Y-88491900D01*
X130565900Y-83389900D01*
X132167900Y-83389900D01*
X132167900Y-88491900D01*
X132167900Y-88491900D01*
G37*
G36*
X92117900Y-88491900D02*
G01*
X90515900Y-88491900D01*
X90515900Y-83389900D01*
X92117900Y-83389900D01*
X92117900Y-88491900D01*
X92117900Y-88491900D01*
G37*
G36*
X138067900Y-88491900D02*
G01*
X136465900Y-88491900D01*
X136465900Y-83389900D01*
X138067900Y-83389900D01*
X138067900Y-88491900D01*
X138067900Y-88491900D01*
G37*
G36*
X165637900Y-88491900D02*
G01*
X164035900Y-88491900D01*
X164035900Y-83389900D01*
X165637900Y-83389900D01*
X165637900Y-88491900D01*
X165637900Y-88491900D01*
G37*
G36*
X159737900Y-88491900D02*
G01*
X158135900Y-88491900D01*
X158135900Y-83389900D01*
X159737900Y-83389900D01*
X159737900Y-88491900D01*
X159737900Y-88491900D01*
G37*
G36*
X141357900Y-88491900D02*
G01*
X139755900Y-88491900D01*
X139755900Y-83389900D01*
X141357900Y-83389900D01*
X141357900Y-88491900D01*
X141357900Y-88491900D01*
G37*
G36*
X147257900Y-88491900D02*
G01*
X145655900Y-88491900D01*
X145655900Y-83389900D01*
X147257900Y-83389900D01*
X147257900Y-88491900D01*
X147257900Y-88491900D01*
G37*
G36*
X110497900Y-88491900D02*
G01*
X108895900Y-88491900D01*
X108895900Y-83389900D01*
X110497900Y-83389900D01*
X110497900Y-88491900D01*
X110497900Y-88491900D01*
G37*
G36*
X139241400Y-82377900D02*
G01*
X138639400Y-82377900D01*
X138639400Y-81375900D01*
X139241400Y-81375900D01*
X139241400Y-82377900D01*
X139241400Y-82377900D01*
G37*
G36*
X82601400Y-82377900D02*
G01*
X81999400Y-82377900D01*
X81999400Y-81375900D01*
X82601400Y-81375900D01*
X82601400Y-82377900D01*
X82601400Y-82377900D01*
G37*
G36*
X128551400Y-82377900D02*
G01*
X127949400Y-82377900D01*
X127949400Y-81375900D01*
X128551400Y-81375900D01*
X128551400Y-82377900D01*
X128551400Y-82377900D01*
G37*
G36*
X130051400Y-82377900D02*
G01*
X129449400Y-82377900D01*
X129449400Y-81375900D01*
X130051400Y-81375900D01*
X130051400Y-82377900D01*
X130051400Y-82377900D01*
G37*
G36*
X119361400Y-82377900D02*
G01*
X118759400Y-82377900D01*
X118759400Y-81375900D01*
X119361400Y-81375900D01*
X119361400Y-82377900D01*
X119361400Y-82377900D01*
G37*
G36*
X120861400Y-82377900D02*
G01*
X120259400Y-82377900D01*
X120259400Y-81375900D01*
X120861400Y-81375900D01*
X120861400Y-82377900D01*
X120861400Y-82377900D01*
G37*
G36*
X110171400Y-82377900D02*
G01*
X109569400Y-82377900D01*
X109569400Y-81375900D01*
X110171400Y-81375900D01*
X110171400Y-82377900D01*
X110171400Y-82377900D01*
G37*
G36*
X111671400Y-82377900D02*
G01*
X111069400Y-82377900D01*
X111069400Y-81375900D01*
X111671400Y-81375900D01*
X111671400Y-82377900D01*
X111671400Y-82377900D01*
G37*
G36*
X100981400Y-82377900D02*
G01*
X100379400Y-82377900D01*
X100379400Y-81375900D01*
X100981400Y-81375900D01*
X100981400Y-82377900D01*
X100981400Y-82377900D01*
G37*
G36*
X102481400Y-82377900D02*
G01*
X101879400Y-82377900D01*
X101879400Y-81375900D01*
X102481400Y-81375900D01*
X102481400Y-82377900D01*
X102481400Y-82377900D01*
G37*
G36*
X84101400Y-82377900D02*
G01*
X83499400Y-82377900D01*
X83499400Y-81375900D01*
X84101400Y-81375900D01*
X84101400Y-82377900D01*
X84101400Y-82377900D01*
G37*
G36*
X91791400Y-82377900D02*
G01*
X91189400Y-82377900D01*
X91189400Y-81375900D01*
X91791400Y-81375900D01*
X91791400Y-82377900D01*
X91791400Y-82377900D01*
G37*
G36*
X137741400Y-82377900D02*
G01*
X137139400Y-82377900D01*
X137139400Y-81375900D01*
X137741400Y-81375900D01*
X137741400Y-82377900D01*
X137741400Y-82377900D01*
G37*
G36*
X148431400Y-82377900D02*
G01*
X147829400Y-82377900D01*
X147829400Y-81375900D01*
X148431400Y-81375900D01*
X148431400Y-82377900D01*
X148431400Y-82377900D01*
G37*
G36*
X146931400Y-82377900D02*
G01*
X146329400Y-82377900D01*
X146329400Y-81375900D01*
X146931400Y-81375900D01*
X146931400Y-82377900D01*
X146931400Y-82377900D01*
G37*
G36*
X157621400Y-82377900D02*
G01*
X157019400Y-82377900D01*
X157019400Y-81375900D01*
X157621400Y-81375900D01*
X157621400Y-82377900D01*
X157621400Y-82377900D01*
G37*
G36*
X163863600Y-82377900D02*
G01*
X163261600Y-82377900D01*
X163261600Y-81375900D01*
X163863600Y-81375900D01*
X163863600Y-82377900D01*
X163863600Y-82377900D01*
G37*
G36*
X165363600Y-82377900D02*
G01*
X164761600Y-82377900D01*
X164761600Y-81375900D01*
X165363600Y-81375900D01*
X165363600Y-82377900D01*
X165363600Y-82377900D01*
G37*
G36*
X93291400Y-82377900D02*
G01*
X92689400Y-82377900D01*
X92689400Y-81375900D01*
X93291400Y-81375900D01*
X93291400Y-82377900D01*
X93291400Y-82377900D01*
G37*
G36*
X156121400Y-82377900D02*
G01*
X155519400Y-82377900D01*
X155519400Y-81375900D01*
X156121400Y-81375900D01*
X156121400Y-82377900D01*
X156121400Y-82377900D01*
G37*
G36*
X162451400Y-80603800D02*
G01*
X161449400Y-80603800D01*
X161449400Y-80001800D01*
X162451400Y-80001800D01*
X162451400Y-80603800D01*
X162451400Y-80603800D01*
G37*
G36*
X164854842Y-78455118D02*
G01*
X164921027Y-78461637D01*
X165090866Y-78513157D01*
X165247391Y-78596822D01*
X165283129Y-78626152D01*
X165384586Y-78709414D01*
X165467848Y-78810871D01*
X165497178Y-78846609D01*
X165580843Y-79003134D01*
X165632363Y-79172973D01*
X165649759Y-79349600D01*
X165632363Y-79526227D01*
X165580843Y-79696066D01*
X165497178Y-79852591D01*
X165467848Y-79888329D01*
X165384586Y-79989786D01*
X165283129Y-80073048D01*
X165247391Y-80102378D01*
X165090866Y-80186043D01*
X164921027Y-80237563D01*
X164854843Y-80244081D01*
X164788660Y-80250600D01*
X164700140Y-80250600D01*
X164633957Y-80244081D01*
X164567773Y-80237563D01*
X164397934Y-80186043D01*
X164241409Y-80102378D01*
X164205671Y-80073048D01*
X164104214Y-79989786D01*
X164020952Y-79888329D01*
X163991622Y-79852591D01*
X163907957Y-79696066D01*
X163856437Y-79526227D01*
X163839041Y-79349600D01*
X163856437Y-79172973D01*
X163907957Y-79003134D01*
X163991622Y-78846609D01*
X164020952Y-78810871D01*
X164104214Y-78709414D01*
X164205671Y-78626152D01*
X164241409Y-78596822D01*
X164397934Y-78513157D01*
X164567773Y-78461637D01*
X164633958Y-78455118D01*
X164700140Y-78448600D01*
X164788660Y-78448600D01*
X164854842Y-78455118D01*
X164854842Y-78455118D01*
G37*
G36*
X76692342Y-78455118D02*
G01*
X76758527Y-78461637D01*
X76928366Y-78513157D01*
X77084891Y-78596822D01*
X77120629Y-78626152D01*
X77222086Y-78709414D01*
X77305348Y-78810871D01*
X77334678Y-78846609D01*
X77418343Y-79003134D01*
X77469863Y-79172973D01*
X77487259Y-79349600D01*
X77469863Y-79526227D01*
X77418343Y-79696066D01*
X77334678Y-79852591D01*
X77305348Y-79888329D01*
X77222086Y-79989786D01*
X77120629Y-80073048D01*
X77084891Y-80102378D01*
X76928366Y-80186043D01*
X76758527Y-80237563D01*
X76692343Y-80244081D01*
X76626160Y-80250600D01*
X76537640Y-80250600D01*
X76471457Y-80244081D01*
X76405273Y-80237563D01*
X76235434Y-80186043D01*
X76078909Y-80102378D01*
X76043171Y-80073048D01*
X75941714Y-79989786D01*
X75858452Y-79888329D01*
X75829122Y-79852591D01*
X75745457Y-79696066D01*
X75693937Y-79526227D01*
X75676541Y-79349600D01*
X75693937Y-79172973D01*
X75745457Y-79003134D01*
X75829122Y-78846609D01*
X75858452Y-78810871D01*
X75941714Y-78709414D01*
X76043171Y-78626152D01*
X76078909Y-78596822D01*
X76235434Y-78513157D01*
X76405273Y-78461637D01*
X76471458Y-78455118D01*
X76537640Y-78448600D01*
X76626160Y-78448600D01*
X76692342Y-78455118D01*
X76692342Y-78455118D01*
G37*
G36*
X111660100Y-79685000D02*
G01*
X110498100Y-79685000D01*
X110498100Y-78933000D01*
X111660100Y-78933000D01*
X111660100Y-79685000D01*
X111660100Y-79685000D01*
G37*
G36*
X113860100Y-79685000D02*
G01*
X112698100Y-79685000D01*
X112698100Y-77033000D01*
X113860100Y-77033000D01*
X113860100Y-79685000D01*
X113860100Y-79685000D01*
G37*
G36*
X150802800Y-79344500D02*
G01*
X149640800Y-79344500D01*
X149640800Y-78592500D01*
X150802800Y-78592500D01*
X150802800Y-79344500D01*
X150802800Y-79344500D01*
G37*
G36*
X153002800Y-79344500D02*
G01*
X151840800Y-79344500D01*
X151840800Y-76692500D01*
X153002800Y-76692500D01*
X153002800Y-79344500D01*
X153002800Y-79344500D01*
G37*
G36*
X148939800Y-79242500D02*
G01*
X148087800Y-79242500D01*
X148087800Y-78340500D01*
X148939800Y-78340500D01*
X148939800Y-79242500D01*
X148939800Y-79242500D01*
G37*
G36*
X154553200Y-79179000D02*
G01*
X153701200Y-79179000D01*
X153701200Y-78277000D01*
X154553200Y-78277000D01*
X154553200Y-79179000D01*
X154553200Y-79179000D01*
G37*
G36*
X115272100Y-79179000D02*
G01*
X114420100Y-79179000D01*
X114420100Y-78277000D01*
X115272100Y-78277000D01*
X115272100Y-79179000D01*
X115272100Y-79179000D01*
G37*
G36*
X109811100Y-79179000D02*
G01*
X108959100Y-79179000D01*
X108959100Y-78277000D01*
X109811100Y-78277000D01*
X109811100Y-79179000D01*
X109811100Y-79179000D01*
G37*
G36*
X132706900Y-79177000D02*
G01*
X131544900Y-79177000D01*
X131544900Y-76525000D01*
X132706900Y-76525000D01*
X132706900Y-79177000D01*
X132706900Y-79177000D01*
G37*
G36*
X130506900Y-79177000D02*
G01*
X129344900Y-79177000D01*
X129344900Y-78425000D01*
X130506900Y-78425000D01*
X130506900Y-79177000D01*
X130506900Y-79177000D01*
G37*
G36*
X162451400Y-79103800D02*
G01*
X161449400Y-79103800D01*
X161449400Y-78501800D01*
X162451400Y-78501800D01*
X162451400Y-79103800D01*
X162451400Y-79103800D01*
G37*
G36*
X128657900Y-78988500D02*
G01*
X127805900Y-78988500D01*
X127805900Y-78086500D01*
X128657900Y-78086500D01*
X128657900Y-78988500D01*
X128657900Y-78988500D01*
G37*
G36*
X134118900Y-78671000D02*
G01*
X133266900Y-78671000D01*
X133266900Y-77769000D01*
X134118900Y-77769000D01*
X134118900Y-78671000D01*
X134118900Y-78671000D01*
G37*
G36*
X82636300Y-78010300D02*
G01*
X81734300Y-78010300D01*
X81734300Y-77158300D01*
X82636300Y-77158300D01*
X82636300Y-78010300D01*
X82636300Y-78010300D01*
G37*
G36*
X84136300Y-78010300D02*
G01*
X83234300Y-78010300D01*
X83234300Y-77158300D01*
X84136300Y-77158300D01*
X84136300Y-78010300D01*
X84136300Y-78010300D01*
G37*
G36*
X111660100Y-77785000D02*
G01*
X110498100Y-77785000D01*
X110498100Y-77033000D01*
X111660100Y-77033000D01*
X111660100Y-77785000D01*
X111660100Y-77785000D01*
G37*
G36*
X148939800Y-77742500D02*
G01*
X148087800Y-77742500D01*
X148087800Y-76840500D01*
X148939800Y-76840500D01*
X148939800Y-77742500D01*
X148939800Y-77742500D01*
G37*
G36*
X165645400Y-77710600D02*
G01*
X163843400Y-77710600D01*
X163843400Y-75908600D01*
X165645400Y-75908600D01*
X165645400Y-77710600D01*
X165645400Y-77710600D01*
G37*
G36*
X77482900Y-77710600D02*
G01*
X75680900Y-77710600D01*
X75680900Y-75908600D01*
X77482900Y-75908600D01*
X77482900Y-77710600D01*
X77482900Y-77710600D01*
G37*
G36*
X109811100Y-77679000D02*
G01*
X108959100Y-77679000D01*
X108959100Y-76777000D01*
X109811100Y-76777000D01*
X109811100Y-77679000D01*
X109811100Y-77679000D01*
G37*
G36*
X154553200Y-77679000D02*
G01*
X153701200Y-77679000D01*
X153701200Y-76777000D01*
X154553200Y-76777000D01*
X154553200Y-77679000D01*
X154553200Y-77679000D01*
G37*
G36*
X115272100Y-77679000D02*
G01*
X114420100Y-77679000D01*
X114420100Y-76777000D01*
X115272100Y-76777000D01*
X115272100Y-77679000D01*
X115272100Y-77679000D01*
G37*
G36*
X162437000Y-77492000D02*
G01*
X161735000Y-77492000D01*
X161735000Y-76940000D01*
X162437000Y-76940000D01*
X162437000Y-77492000D01*
X162437000Y-77492000D01*
G37*
G36*
X160337000Y-77492000D02*
G01*
X159635000Y-77492000D01*
X159635000Y-76940000D01*
X160337000Y-76940000D01*
X160337000Y-77492000D01*
X160337000Y-77492000D01*
G37*
G36*
X128657900Y-77488500D02*
G01*
X127805900Y-77488500D01*
X127805900Y-76586500D01*
X128657900Y-76586500D01*
X128657900Y-77488500D01*
X128657900Y-77488500D01*
G37*
G36*
X150802800Y-77444500D02*
G01*
X149640800Y-77444500D01*
X149640800Y-76692500D01*
X150802800Y-76692500D01*
X150802800Y-77444500D01*
X150802800Y-77444500D01*
G37*
G36*
X130506900Y-77277000D02*
G01*
X129344900Y-77277000D01*
X129344900Y-76525000D01*
X130506900Y-76525000D01*
X130506900Y-77277000D01*
X130506900Y-77277000D01*
G37*
G36*
X134118900Y-77171000D02*
G01*
X133266900Y-77171000D01*
X133266900Y-76269000D01*
X134118900Y-76269000D01*
X134118900Y-77171000D01*
X134118900Y-77171000D01*
G37*
G36*
X112580000Y-75813200D02*
G01*
X111678000Y-75813200D01*
X111678000Y-74961200D01*
X112580000Y-74961200D01*
X112580000Y-75813200D01*
X112580000Y-75813200D01*
G37*
G36*
X111080000Y-75813200D02*
G01*
X110178000Y-75813200D01*
X110178000Y-74961200D01*
X111080000Y-74961200D01*
X111080000Y-75813200D01*
X111080000Y-75813200D01*
G37*
G36*
X147109900Y-75698900D02*
G01*
X146207900Y-75698900D01*
X146207900Y-74846900D01*
X147109900Y-74846900D01*
X147109900Y-75698900D01*
X147109900Y-75698900D01*
G37*
G36*
X148609900Y-75698900D02*
G01*
X147707900Y-75698900D01*
X147707900Y-74846900D01*
X148609900Y-74846900D01*
X148609900Y-75698900D01*
X148609900Y-75698900D01*
G37*
G36*
X109455800Y-75559200D02*
G01*
X108553800Y-75559200D01*
X108553800Y-74707200D01*
X109455800Y-74707200D01*
X109455800Y-75559200D01*
X109455800Y-75559200D01*
G37*
G36*
X107955800Y-75559200D02*
G01*
X107053800Y-75559200D01*
X107053800Y-74707200D01*
X107955800Y-74707200D01*
X107955800Y-75559200D01*
X107955800Y-75559200D01*
G37*
G36*
X127094700Y-75546500D02*
G01*
X126192700Y-75546500D01*
X126192700Y-74694500D01*
X127094700Y-74694500D01*
X127094700Y-75546500D01*
X127094700Y-75546500D01*
G37*
G36*
X128594700Y-75546500D02*
G01*
X127692700Y-75546500D01*
X127692700Y-74694500D01*
X128594700Y-74694500D01*
X128594700Y-75546500D01*
X128594700Y-75546500D01*
G37*
G36*
X82682800Y-74886100D02*
G01*
X81780800Y-74886100D01*
X81780800Y-74034100D01*
X82682800Y-74034100D01*
X82682800Y-74886100D01*
X82682800Y-74886100D01*
G37*
G36*
X84182800Y-74886100D02*
G01*
X83280800Y-74886100D01*
X83280800Y-74034100D01*
X84182800Y-74034100D01*
X84182800Y-74886100D01*
X84182800Y-74886100D01*
G37*
G36*
X155912400Y-74721000D02*
G01*
X155010400Y-74721000D01*
X155010400Y-73869000D01*
X155912400Y-73869000D01*
X155912400Y-74721000D01*
X155912400Y-74721000D01*
G37*
G36*
X154412400Y-74721000D02*
G01*
X153510400Y-74721000D01*
X153510400Y-73869000D01*
X154412400Y-73869000D01*
X154412400Y-74721000D01*
X154412400Y-74721000D01*
G37*
G36*
X78978200Y-74110200D02*
G01*
X78376200Y-74110200D01*
X78376200Y-73108200D01*
X78978200Y-73108200D01*
X78978200Y-74110200D01*
X78978200Y-74110200D01*
G37*
G36*
X77478200Y-74110200D02*
G01*
X76876200Y-74110200D01*
X76876200Y-73108200D01*
X77478200Y-73108200D01*
X77478200Y-74110200D01*
X77478200Y-74110200D01*
G37*
G36*
X110805000Y-74014900D02*
G01*
X110053000Y-74014900D01*
X110053000Y-72212900D01*
X110805000Y-72212900D01*
X110805000Y-74014900D01*
X110805000Y-74014900D01*
G37*
G36*
X112705000Y-74014900D02*
G01*
X111953000Y-74014900D01*
X111953000Y-73512900D01*
X112705000Y-73512900D01*
X112705000Y-74014900D01*
X112705000Y-74014900D01*
G37*
G36*
X75714000Y-73943400D02*
G01*
X75162000Y-73943400D01*
X75162000Y-73241400D01*
X75714000Y-73241400D01*
X75714000Y-73943400D01*
X75714000Y-73943400D01*
G37*
G36*
X108680800Y-73857700D02*
G01*
X107828800Y-73857700D01*
X107828800Y-72955700D01*
X108680800Y-72955700D01*
X108680800Y-73857700D01*
X108680800Y-73857700D01*
G37*
G36*
X158437400Y-72914200D02*
G01*
X156885400Y-72914200D01*
X156885400Y-68462200D01*
X158437400Y-68462200D01*
X158437400Y-72914200D01*
X158437400Y-72914200D01*
G37*
G36*
X152537400Y-72914200D02*
G01*
X150985400Y-72914200D01*
X150985400Y-68462200D01*
X152537400Y-68462200D01*
X152537400Y-72914200D01*
X152537400Y-72914200D01*
G37*
G36*
X142428200Y-72888800D02*
G01*
X140876200Y-72888800D01*
X140876200Y-68436800D01*
X142428200Y-68436800D01*
X142428200Y-72888800D01*
X142428200Y-72888800D01*
G37*
G36*
X148328200Y-72888800D02*
G01*
X146776200Y-72888800D01*
X146776200Y-68436800D01*
X148328200Y-68436800D01*
X148328200Y-72888800D01*
X148328200Y-72888800D01*
G37*
G36*
X112705000Y-72714900D02*
G01*
X111953000Y-72714900D01*
X111953000Y-72212900D01*
X112705000Y-72212900D01*
X112705000Y-72714900D01*
X112705000Y-72714900D01*
G37*
G36*
X163391200Y-72552000D02*
G01*
X162389200Y-72552000D01*
X162389200Y-71950000D01*
X163391200Y-71950000D01*
X163391200Y-72552000D01*
X163391200Y-72552000D01*
G37*
G36*
X160343200Y-72552000D02*
G01*
X159341200Y-72552000D01*
X159341200Y-71950000D01*
X160343200Y-71950000D01*
X160343200Y-72552000D01*
X160343200Y-72552000D01*
G37*
G36*
X161867200Y-72552000D02*
G01*
X160865200Y-72552000D01*
X160865200Y-71950000D01*
X161867200Y-71950000D01*
X161867200Y-72552000D01*
X161867200Y-72552000D01*
G37*
G36*
X108680800Y-72357700D02*
G01*
X107828800Y-72357700D01*
X107828800Y-71455700D01*
X108680800Y-71455700D01*
X108680800Y-72357700D01*
X108680800Y-72357700D01*
G37*
G36*
X75714000Y-71843400D02*
G01*
X75162000Y-71843400D01*
X75162000Y-71141400D01*
X75714000Y-71141400D01*
X75714000Y-71843400D01*
X75714000Y-71843400D01*
G37*
G36*
X112430000Y-71392400D02*
G01*
X111828000Y-71392400D01*
X111828000Y-70390400D01*
X112430000Y-70390400D01*
X112430000Y-71392400D01*
X112430000Y-71392400D01*
G37*
G36*
X110930000Y-71392400D02*
G01*
X110328000Y-71392400D01*
X110328000Y-70390400D01*
X110930000Y-70390400D01*
X110930000Y-71392400D01*
X110930000Y-71392400D01*
G37*
G36*
X163391200Y-71052000D02*
G01*
X162389200Y-71052000D01*
X162389200Y-70450000D01*
X163391200Y-70450000D01*
X163391200Y-71052000D01*
X163391200Y-71052000D01*
G37*
G36*
X160343200Y-71052000D02*
G01*
X159341200Y-71052000D01*
X159341200Y-70450000D01*
X160343200Y-70450000D01*
X160343200Y-71052000D01*
X160343200Y-71052000D01*
G37*
G36*
X161867200Y-71052000D02*
G01*
X160865200Y-71052000D01*
X160865200Y-70450000D01*
X161867200Y-70450000D01*
X161867200Y-71052000D01*
X161867200Y-71052000D01*
G37*
G36*
X118583400Y-70015200D02*
G01*
X117481400Y-70015200D01*
X117481400Y-68313200D01*
X118583400Y-68313200D01*
X118583400Y-70015200D01*
X118583400Y-70015200D01*
G37*
G36*
X121583400Y-70015200D02*
G01*
X120481400Y-70015200D01*
X120481400Y-68313200D01*
X121583400Y-68313200D01*
X121583400Y-70015200D01*
X121583400Y-70015200D01*
G37*
G36*
X162567200Y-69691800D02*
G01*
X161665200Y-69691800D01*
X161665200Y-68839800D01*
X162567200Y-68839800D01*
X162567200Y-69691800D01*
X162567200Y-69691800D01*
G37*
G36*
X161067200Y-69691800D02*
G01*
X160165200Y-69691800D01*
X160165200Y-68839800D01*
X161067200Y-68839800D01*
X161067200Y-69691800D01*
X161067200Y-69691800D01*
G37*
G36*
X81660500Y-69531000D02*
G01*
X79058500Y-69531000D01*
X79058500Y-67629000D01*
X81660500Y-67629000D01*
X81660500Y-69531000D01*
X81660500Y-69531000D01*
G37*
G36*
X85660500Y-69531000D02*
G01*
X83058500Y-69531000D01*
X83058500Y-67629000D01*
X85660500Y-67629000D01*
X85660500Y-69531000D01*
X85660500Y-69531000D01*
G37*
G36*
X90066000Y-69161800D02*
G01*
X86464000Y-69161800D01*
X86464000Y-65559800D01*
X90066000Y-65559800D01*
X90066000Y-69161800D01*
X90066000Y-69161800D01*
G37*
G36*
X130879200Y-68767400D02*
G01*
X129877200Y-68767400D01*
X129877200Y-68165400D01*
X130879200Y-68165400D01*
X130879200Y-68767400D01*
X130879200Y-68767400D01*
G37*
G36*
X132352400Y-68767400D02*
G01*
X131350400Y-68767400D01*
X131350400Y-68165400D01*
X132352400Y-68165400D01*
X132352400Y-68767400D01*
X132352400Y-68767400D01*
G37*
G36*
X135324200Y-68767400D02*
G01*
X134322200Y-68767400D01*
X134322200Y-68165400D01*
X135324200Y-68165400D01*
X135324200Y-68767400D01*
X135324200Y-68767400D01*
G37*
G36*
X136797400Y-68767400D02*
G01*
X135795400Y-68767400D01*
X135795400Y-68165400D01*
X136797400Y-68165400D01*
X136797400Y-68767400D01*
X136797400Y-68767400D01*
G37*
G36*
X133825600Y-68767400D02*
G01*
X132823600Y-68767400D01*
X132823600Y-68165400D01*
X133825600Y-68165400D01*
X133825600Y-68767400D01*
X133825600Y-68767400D01*
G37*
G36*
X138423000Y-68767400D02*
G01*
X137421000Y-68767400D01*
X137421000Y-68165400D01*
X138423000Y-68165400D01*
X138423000Y-68767400D01*
X138423000Y-68767400D01*
G37*
G36*
X145725600Y-67405800D02*
G01*
X144823600Y-67405800D01*
X144823600Y-66553800D01*
X145725600Y-66553800D01*
X145725600Y-67405800D01*
X145725600Y-67405800D01*
G37*
G36*
X147225600Y-67405800D02*
G01*
X146323600Y-67405800D01*
X146323600Y-66553800D01*
X147225600Y-66553800D01*
X147225600Y-67405800D01*
X147225600Y-67405800D01*
G37*
G36*
X132352400Y-67267400D02*
G01*
X131350400Y-67267400D01*
X131350400Y-66665400D01*
X132352400Y-66665400D01*
X132352400Y-67267400D01*
X132352400Y-67267400D01*
G37*
G36*
X130879200Y-67267400D02*
G01*
X129877200Y-67267400D01*
X129877200Y-66665400D01*
X130879200Y-66665400D01*
X130879200Y-67267400D01*
X130879200Y-67267400D01*
G37*
G36*
X136797400Y-67267400D02*
G01*
X135795400Y-67267400D01*
X135795400Y-66665400D01*
X136797400Y-66665400D01*
X136797400Y-67267400D01*
X136797400Y-67267400D01*
G37*
G36*
X133825600Y-67267400D02*
G01*
X132823600Y-67267400D01*
X132823600Y-66665400D01*
X133825600Y-66665400D01*
X133825600Y-67267400D01*
X133825600Y-67267400D01*
G37*
G36*
X135324200Y-67267400D02*
G01*
X134322200Y-67267400D01*
X134322200Y-66665400D01*
X135324200Y-66665400D01*
X135324200Y-67267400D01*
X135324200Y-67267400D01*
G37*
G36*
X138423000Y-67267400D02*
G01*
X137421000Y-67267400D01*
X137421000Y-66665400D01*
X138423000Y-66665400D01*
X138423000Y-67267400D01*
X138423000Y-67267400D01*
G37*
G36*
X85366000Y-66161800D02*
G01*
X81764000Y-66161800D01*
X81764000Y-62559800D01*
X85366000Y-62559800D01*
X85366000Y-66161800D01*
X85366000Y-66161800D01*
G37*
G36*
X147313000Y-65998800D02*
G01*
X146311000Y-65998800D01*
X146311000Y-65396800D01*
X147313000Y-65396800D01*
X147313000Y-65998800D01*
X147313000Y-65998800D01*
G37*
G36*
X145789000Y-65998800D02*
G01*
X144787000Y-65998800D01*
X144787000Y-65396800D01*
X145789000Y-65396800D01*
X145789000Y-65998800D01*
X145789000Y-65998800D01*
G37*
G36*
X136797400Y-65668600D02*
G01*
X135795400Y-65668600D01*
X135795400Y-65066600D01*
X136797400Y-65066600D01*
X136797400Y-65668600D01*
X136797400Y-65668600D01*
G37*
G36*
X138423000Y-65668600D02*
G01*
X137421000Y-65668600D01*
X137421000Y-65066600D01*
X138423000Y-65066600D01*
X138423000Y-65668600D01*
X138423000Y-65668600D01*
G37*
G36*
X133825600Y-65668600D02*
G01*
X132823600Y-65668600D01*
X132823600Y-65066600D01*
X133825600Y-65066600D01*
X133825600Y-65668600D01*
X133825600Y-65668600D01*
G37*
G36*
X135324200Y-65668600D02*
G01*
X134322200Y-65668600D01*
X134322200Y-65066600D01*
X135324200Y-65066600D01*
X135324200Y-65668600D01*
X135324200Y-65668600D01*
G37*
G36*
X132352400Y-65661000D02*
G01*
X131350400Y-65661000D01*
X131350400Y-65059000D01*
X132352400Y-65059000D01*
X132352400Y-65661000D01*
X132352400Y-65661000D01*
G37*
G36*
X130879200Y-65661000D02*
G01*
X129877200Y-65661000D01*
X129877200Y-65059000D01*
X130879200Y-65059000D01*
X130879200Y-65661000D01*
X130879200Y-65661000D01*
G37*
G36*
X78077385Y-62105802D02*
G01*
X78227210Y-62135604D01*
X78509474Y-62252521D01*
X78763505Y-62422259D01*
X78979541Y-62638295D01*
X79149279Y-62892326D01*
X79266196Y-63174590D01*
X79325800Y-63474240D01*
X79325800Y-63779760D01*
X79266196Y-64079410D01*
X79149279Y-64361674D01*
X78979541Y-64615705D01*
X78763505Y-64831741D01*
X78509474Y-65001479D01*
X78227210Y-65118396D01*
X78077385Y-65148198D01*
X77927561Y-65178000D01*
X77622039Y-65178000D01*
X77472215Y-65148198D01*
X77322390Y-65118396D01*
X77040126Y-65001479D01*
X76786095Y-64831741D01*
X76570059Y-64615705D01*
X76400321Y-64361674D01*
X76283404Y-64079410D01*
X76223800Y-63779760D01*
X76223800Y-63474240D01*
X76283404Y-63174590D01*
X76400321Y-62892326D01*
X76570059Y-62638295D01*
X76786095Y-62422259D01*
X77040126Y-62252521D01*
X77322390Y-62135604D01*
X77472215Y-62105802D01*
X77622039Y-62076000D01*
X77927561Y-62076000D01*
X78077385Y-62105802D01*
X78077385Y-62105802D01*
G37*
G36*
X163319785Y-62105802D02*
G01*
X163469610Y-62135604D01*
X163751874Y-62252521D01*
X164005905Y-62422259D01*
X164221941Y-62638295D01*
X164391679Y-62892326D01*
X164508596Y-63174590D01*
X164568200Y-63474240D01*
X164568200Y-63779760D01*
X164508596Y-64079410D01*
X164391679Y-64361674D01*
X164221941Y-64615705D01*
X164005905Y-64831741D01*
X163751874Y-65001479D01*
X163469610Y-65118396D01*
X163319785Y-65148198D01*
X163169961Y-65178000D01*
X162864439Y-65178000D01*
X162714615Y-65148198D01*
X162564790Y-65118396D01*
X162282526Y-65001479D01*
X162028495Y-64831741D01*
X161812459Y-64615705D01*
X161642721Y-64361674D01*
X161525804Y-64079410D01*
X161466200Y-63779760D01*
X161466200Y-63474240D01*
X161525804Y-63174590D01*
X161642721Y-62892326D01*
X161812459Y-62638295D01*
X162028495Y-62422259D01*
X162282526Y-62252521D01*
X162564790Y-62135604D01*
X162714615Y-62105802D01*
X162864439Y-62076000D01*
X163169961Y-62076000D01*
X163319785Y-62105802D01*
X163319785Y-62105802D01*
G37*
G36*
X147313000Y-64498800D02*
G01*
X146311000Y-64498800D01*
X146311000Y-63896800D01*
X147313000Y-63896800D01*
X147313000Y-64498800D01*
X147313000Y-64498800D01*
G37*
G36*
X145789000Y-64498800D02*
G01*
X144787000Y-64498800D01*
X144787000Y-63896800D01*
X145789000Y-63896800D01*
X145789000Y-64498800D01*
X145789000Y-64498800D01*
G37*
G36*
X135324200Y-64168600D02*
G01*
X134322200Y-64168600D01*
X134322200Y-63566600D01*
X135324200Y-63566600D01*
X135324200Y-64168600D01*
X135324200Y-64168600D01*
G37*
G36*
X136797400Y-64168600D02*
G01*
X135795400Y-64168600D01*
X135795400Y-63566600D01*
X136797400Y-63566600D01*
X136797400Y-64168600D01*
X136797400Y-64168600D01*
G37*
G36*
X138423000Y-64168600D02*
G01*
X137421000Y-64168600D01*
X137421000Y-63566600D01*
X138423000Y-63566600D01*
X138423000Y-64168600D01*
X138423000Y-64168600D01*
G37*
G36*
X133825600Y-64168600D02*
G01*
X132823600Y-64168600D01*
X132823600Y-63566600D01*
X133825600Y-63566600D01*
X133825600Y-64168600D01*
X133825600Y-64168600D01*
G37*
G36*
X130879200Y-64161000D02*
G01*
X129877200Y-64161000D01*
X129877200Y-63559000D01*
X130879200Y-63559000D01*
X130879200Y-64161000D01*
X130879200Y-64161000D01*
G37*
G36*
X132352400Y-64161000D02*
G01*
X131350400Y-64161000D01*
X131350400Y-63559000D01*
X132352400Y-63559000D01*
X132352400Y-64161000D01*
X132352400Y-64161000D01*
G37*
G36*
X90066000Y-63161800D02*
G01*
X86464000Y-63161800D01*
X86464000Y-59559800D01*
X90066000Y-59559800D01*
X90066000Y-63161800D01*
X90066000Y-63161800D01*
G37*
G36*
X158508000Y-61480000D02*
G01*
X156706000Y-61480000D01*
X156706000Y-59678000D01*
X158508000Y-59678000D01*
X158508000Y-61480000D01*
X158508000Y-61480000D01*
G37*
M02*
