G04 #@! TF.GenerationSoftware,KiCad,Pcbnew,(5.1.4)-1*
G04 #@! TF.CreationDate,2019-12-15T14:44:31-06:00*
G04 #@! TF.ProjectId,Incrementor,496e6372-656d-4656-9e74-6f722e6b6963,rev?*
G04 #@! TF.SameCoordinates,Original*
G04 #@! TF.FileFunction,Copper,L4,Bot*
G04 #@! TF.FilePolarity,Positive*
%FSLAX46Y46*%
G04 Gerber Fmt 4.6, Leading zero omitted, Abs format (unit mm)*
G04 Created by KiCad (PCBNEW (5.1.4)-1) date 2019-12-15 14:44:31*
%MOMM*%
%LPD*%
G04 APERTURE LIST*
%ADD10C,0.150000*%
%ADD11C,0.010000*%
%ADD12R,1.450000X0.450000*%
%ADD13R,2.500000X1.800000*%
%ADD14O,1.700000X1.700000*%
%ADD15R,1.700000X1.700000*%
%ADD16R,0.900000X0.500000*%
%ADD17R,0.800000X0.750000*%
%ADD18R,1.060000X0.650000*%
%ADD19R,0.750000X0.800000*%
%ADD20R,0.650000X0.400000*%
%ADD21R,0.500000X0.900000*%
%ADD22R,3.500000X3.500000*%
%ADD23R,1.000000X1.600000*%
%ADD24R,1.500000X0.450000*%
%ADD25R,0.760000X0.430000*%
%ADD26C,1.600000*%
%ADD27R,1.600000X1.600000*%
%ADD28R,0.450000X0.600000*%
%ADD29R,0.600000X0.450000*%
%ADD30C,0.560000*%
%ADD31C,0.635000*%
%ADD32C,0.127000*%
%ADD33C,0.254000*%
%ADD34C,0.508000*%
G04 APERTURE END LIST*
D10*
X85915476Y-107380114D02*
X85915476Y-108046780D01*
X85677380Y-106999161D02*
X85439285Y-107713447D01*
X86058333Y-107713447D01*
D11*
G36*
X155791883Y-64854045D02*
G01*
X155791662Y-65125528D01*
X155790900Y-65350618D01*
X155789457Y-65533721D01*
X155787189Y-65679240D01*
X155783952Y-65791583D01*
X155779605Y-65875155D01*
X155774003Y-65934359D01*
X155767005Y-65973603D01*
X155758467Y-65997292D01*
X155754591Y-66003395D01*
X155728305Y-66040943D01*
X155717592Y-66069085D01*
X155727773Y-66089174D01*
X155764171Y-66102563D01*
X155832107Y-66110605D01*
X155936905Y-66114653D01*
X156083885Y-66116060D01*
X156198283Y-66116200D01*
X156348565Y-66115515D01*
X156479756Y-66113608D01*
X156584056Y-66110702D01*
X156653664Y-66107017D01*
X156680778Y-66102776D01*
X156680883Y-66102488D01*
X156670328Y-66073454D01*
X156643757Y-66016509D01*
X156630083Y-65989200D01*
X156617217Y-65961760D01*
X156606724Y-65931394D01*
X156598363Y-65892920D01*
X156591892Y-65841155D01*
X156587072Y-65770918D01*
X156583661Y-65677027D01*
X156581418Y-65554301D01*
X156580102Y-65397559D01*
X156579473Y-65201617D01*
X156579288Y-64961296D01*
X156579283Y-64896750D01*
X156579536Y-64639269D01*
X156580412Y-64427749D01*
X156582087Y-64257351D01*
X156584735Y-64123238D01*
X156588533Y-64020571D01*
X156593656Y-63944513D01*
X156600280Y-63890226D01*
X156608580Y-63852872D01*
X156618036Y-63828938D01*
X156656788Y-63754000D01*
X155791883Y-63754000D01*
X155791883Y-64854045D01*
X155791883Y-64854045D01*
G37*
X155791883Y-64854045D02*
X155791662Y-65125528D01*
X155790900Y-65350618D01*
X155789457Y-65533721D01*
X155787189Y-65679240D01*
X155783952Y-65791583D01*
X155779605Y-65875155D01*
X155774003Y-65934359D01*
X155767005Y-65973603D01*
X155758467Y-65997292D01*
X155754591Y-66003395D01*
X155728305Y-66040943D01*
X155717592Y-66069085D01*
X155727773Y-66089174D01*
X155764171Y-66102563D01*
X155832107Y-66110605D01*
X155936905Y-66114653D01*
X156083885Y-66116060D01*
X156198283Y-66116200D01*
X156348565Y-66115515D01*
X156479756Y-66113608D01*
X156584056Y-66110702D01*
X156653664Y-66107017D01*
X156680778Y-66102776D01*
X156680883Y-66102488D01*
X156670328Y-66073454D01*
X156643757Y-66016509D01*
X156630083Y-65989200D01*
X156617217Y-65961760D01*
X156606724Y-65931394D01*
X156598363Y-65892920D01*
X156591892Y-65841155D01*
X156587072Y-65770918D01*
X156583661Y-65677027D01*
X156581418Y-65554301D01*
X156580102Y-65397559D01*
X156579473Y-65201617D01*
X156579288Y-64961296D01*
X156579283Y-64896750D01*
X156579536Y-64639269D01*
X156580412Y-64427749D01*
X156582087Y-64257351D01*
X156584735Y-64123238D01*
X156588533Y-64020571D01*
X156593656Y-63944513D01*
X156600280Y-63890226D01*
X156608580Y-63852872D01*
X156618036Y-63828938D01*
X156656788Y-63754000D01*
X155791883Y-63754000D01*
X155791883Y-64854045D01*
G36*
X156031559Y-61987960D02*
G01*
X155913955Y-62054395D01*
X155820477Y-62157045D01*
X155776688Y-62243124D01*
X155746078Y-62381614D01*
X155755179Y-62519591D01*
X155802527Y-62641084D01*
X155814912Y-62659850D01*
X155905351Y-62747408D01*
X156024229Y-62807553D01*
X156157167Y-62837418D01*
X156289787Y-62834134D01*
X156407710Y-62794832D01*
X156428494Y-62782244D01*
X156510763Y-62703394D01*
X156578586Y-62594770D01*
X156620753Y-62477295D01*
X156629100Y-62407799D01*
X156609826Y-62298575D01*
X156559310Y-62184110D01*
X156488518Y-62085158D01*
X156432858Y-62036295D01*
X156300639Y-61975876D01*
X156163663Y-61960776D01*
X156031559Y-61987960D01*
X156031559Y-61987960D01*
G37*
X156031559Y-61987960D02*
X155913955Y-62054395D01*
X155820477Y-62157045D01*
X155776688Y-62243124D01*
X155746078Y-62381614D01*
X155755179Y-62519591D01*
X155802527Y-62641084D01*
X155814912Y-62659850D01*
X155905351Y-62747408D01*
X156024229Y-62807553D01*
X156157167Y-62837418D01*
X156289787Y-62834134D01*
X156407710Y-62794832D01*
X156428494Y-62782244D01*
X156510763Y-62703394D01*
X156578586Y-62594770D01*
X156620753Y-62477295D01*
X156629100Y-62407799D01*
X156609826Y-62298575D01*
X156559310Y-62184110D01*
X156488518Y-62085158D01*
X156432858Y-62036295D01*
X156300639Y-61975876D01*
X156163663Y-61960776D01*
X156031559Y-61987960D01*
G36*
X157373753Y-62890400D02*
G01*
X156828441Y-62890400D01*
X157027221Y-63091787D01*
X157356929Y-63454691D01*
X157571349Y-63728815D01*
X157649797Y-63832400D01*
X157744356Y-63952529D01*
X157844450Y-64076202D01*
X157939502Y-64190419D01*
X158018934Y-64282181D01*
X158044032Y-64309760D01*
X158125464Y-64397212D01*
X158055506Y-64488356D01*
X157920064Y-64677604D01*
X157832522Y-64817050D01*
X157777652Y-64899286D01*
X157716376Y-64978612D01*
X157711227Y-64984607D01*
X157642278Y-65067581D01*
X157561753Y-65170137D01*
X157478558Y-65280288D01*
X157401598Y-65386047D01*
X157339781Y-65475425D01*
X157304124Y-65532547D01*
X157269043Y-65585596D01*
X157210514Y-65664062D01*
X157138680Y-65755252D01*
X157063685Y-65846472D01*
X156995672Y-65925032D01*
X156959300Y-65964020D01*
X156935411Y-65990081D01*
X156893137Y-66037406D01*
X156885023Y-66046570D01*
X156823445Y-66116200D01*
X157949900Y-66116200D01*
X157949900Y-66037923D01*
X157966663Y-65961395D01*
X158013893Y-65856149D01*
X158087007Y-65730239D01*
X158181419Y-65591716D01*
X158268958Y-65477533D01*
X158340232Y-65385313D01*
X158405553Y-65294269D01*
X158452723Y-65221535D01*
X158458829Y-65210833D01*
X158498871Y-65144434D01*
X158534158Y-65096284D01*
X158542801Y-65087500D01*
X158577362Y-65048816D01*
X158617585Y-64992250D01*
X158655274Y-64944093D01*
X158685785Y-64922487D01*
X158687086Y-64922400D01*
X158695962Y-64947091D01*
X158703082Y-65018381D01*
X158708236Y-65132092D01*
X158711217Y-65284044D01*
X158711900Y-65418961D01*
X158711216Y-65598263D01*
X158708805Y-65734270D01*
X158704125Y-65834475D01*
X158696637Y-65906369D01*
X158685802Y-65957443D01*
X158671079Y-65995188D01*
X158670256Y-65996811D01*
X158634783Y-66056491D01*
X158603277Y-66094618D01*
X158600406Y-66096761D01*
X158615903Y-66102323D01*
X158675253Y-66107262D01*
X158771514Y-66111312D01*
X158897741Y-66114207D01*
X159046989Y-66115682D01*
X159098706Y-66115811D01*
X159625211Y-66116200D01*
X159595532Y-66046350D01*
X159567359Y-65987758D01*
X159545276Y-65952370D01*
X159541443Y-65923142D01*
X159537843Y-65847781D01*
X159534541Y-65730951D01*
X159531604Y-65577317D01*
X159529101Y-65391546D01*
X159527096Y-65178302D01*
X159525658Y-64942251D01*
X159524853Y-64688059D01*
X159524701Y-64516290D01*
X159524759Y-64212311D01*
X159525030Y-63954912D01*
X159525654Y-63739874D01*
X159526774Y-63562978D01*
X159528531Y-63420004D01*
X159531067Y-63306733D01*
X159534524Y-63218945D01*
X159539043Y-63152421D01*
X159544767Y-63102941D01*
X159551838Y-63066286D01*
X159560396Y-63038237D01*
X159570584Y-63014574D01*
X159575501Y-63004699D01*
X159606256Y-62942869D01*
X159624310Y-62903660D01*
X159626301Y-62897729D01*
X159602165Y-62895507D01*
X159534812Y-62893556D01*
X159431828Y-62891984D01*
X159300794Y-62890901D01*
X159149295Y-62890415D01*
X159115583Y-62890400D01*
X158942440Y-62890664D01*
X158813871Y-62891831D01*
X158723654Y-62894464D01*
X158665563Y-62899123D01*
X158633376Y-62906372D01*
X158620868Y-62916772D01*
X158621814Y-62930885D01*
X158623336Y-62934850D01*
X158656695Y-63023673D01*
X158680761Y-63112181D01*
X158696920Y-63211141D01*
X158706558Y-63331321D01*
X158711060Y-63483488D01*
X158711900Y-63623088D01*
X158711901Y-64042904D01*
X158635701Y-63969900D01*
X158588087Y-63919557D01*
X158561506Y-63882278D01*
X158559500Y-63875483D01*
X158544363Y-63849550D01*
X158504872Y-63796128D01*
X158449912Y-63726145D01*
X158388368Y-63650529D01*
X158329123Y-63580209D01*
X158281061Y-63526114D01*
X158254261Y-63500000D01*
X158231939Y-63472734D01*
X158193564Y-63416630D01*
X158165698Y-63373000D01*
X158107495Y-63285298D01*
X158044549Y-63198698D01*
X158022201Y-63170362D01*
X157977487Y-63103736D01*
X157952092Y-63042643D01*
X157949900Y-63026390D01*
X157949378Y-62982677D01*
X157943709Y-62949502D01*
X157926738Y-62925412D01*
X157892311Y-62908955D01*
X157834274Y-62898677D01*
X157746472Y-62893127D01*
X157622750Y-62890851D01*
X157456955Y-62890396D01*
X157373753Y-62890400D01*
X157373753Y-62890400D01*
G37*
X157373753Y-62890400D02*
X156828441Y-62890400D01*
X157027221Y-63091787D01*
X157356929Y-63454691D01*
X157571349Y-63728815D01*
X157649797Y-63832400D01*
X157744356Y-63952529D01*
X157844450Y-64076202D01*
X157939502Y-64190419D01*
X158018934Y-64282181D01*
X158044032Y-64309760D01*
X158125464Y-64397212D01*
X158055506Y-64488356D01*
X157920064Y-64677604D01*
X157832522Y-64817050D01*
X157777652Y-64899286D01*
X157716376Y-64978612D01*
X157711227Y-64984607D01*
X157642278Y-65067581D01*
X157561753Y-65170137D01*
X157478558Y-65280288D01*
X157401598Y-65386047D01*
X157339781Y-65475425D01*
X157304124Y-65532547D01*
X157269043Y-65585596D01*
X157210514Y-65664062D01*
X157138680Y-65755252D01*
X157063685Y-65846472D01*
X156995672Y-65925032D01*
X156959300Y-65964020D01*
X156935411Y-65990081D01*
X156893137Y-66037406D01*
X156885023Y-66046570D01*
X156823445Y-66116200D01*
X157949900Y-66116200D01*
X157949900Y-66037923D01*
X157966663Y-65961395D01*
X158013893Y-65856149D01*
X158087007Y-65730239D01*
X158181419Y-65591716D01*
X158268958Y-65477533D01*
X158340232Y-65385313D01*
X158405553Y-65294269D01*
X158452723Y-65221535D01*
X158458829Y-65210833D01*
X158498871Y-65144434D01*
X158534158Y-65096284D01*
X158542801Y-65087500D01*
X158577362Y-65048816D01*
X158617585Y-64992250D01*
X158655274Y-64944093D01*
X158685785Y-64922487D01*
X158687086Y-64922400D01*
X158695962Y-64947091D01*
X158703082Y-65018381D01*
X158708236Y-65132092D01*
X158711217Y-65284044D01*
X158711900Y-65418961D01*
X158711216Y-65598263D01*
X158708805Y-65734270D01*
X158704125Y-65834475D01*
X158696637Y-65906369D01*
X158685802Y-65957443D01*
X158671079Y-65995188D01*
X158670256Y-65996811D01*
X158634783Y-66056491D01*
X158603277Y-66094618D01*
X158600406Y-66096761D01*
X158615903Y-66102323D01*
X158675253Y-66107262D01*
X158771514Y-66111312D01*
X158897741Y-66114207D01*
X159046989Y-66115682D01*
X159098706Y-66115811D01*
X159625211Y-66116200D01*
X159595532Y-66046350D01*
X159567359Y-65987758D01*
X159545276Y-65952370D01*
X159541443Y-65923142D01*
X159537843Y-65847781D01*
X159534541Y-65730951D01*
X159531604Y-65577317D01*
X159529101Y-65391546D01*
X159527096Y-65178302D01*
X159525658Y-64942251D01*
X159524853Y-64688059D01*
X159524701Y-64516290D01*
X159524759Y-64212311D01*
X159525030Y-63954912D01*
X159525654Y-63739874D01*
X159526774Y-63562978D01*
X159528531Y-63420004D01*
X159531067Y-63306733D01*
X159534524Y-63218945D01*
X159539043Y-63152421D01*
X159544767Y-63102941D01*
X159551838Y-63066286D01*
X159560396Y-63038237D01*
X159570584Y-63014574D01*
X159575501Y-63004699D01*
X159606256Y-62942869D01*
X159624310Y-62903660D01*
X159626301Y-62897729D01*
X159602165Y-62895507D01*
X159534812Y-62893556D01*
X159431828Y-62891984D01*
X159300794Y-62890901D01*
X159149295Y-62890415D01*
X159115583Y-62890400D01*
X158942440Y-62890664D01*
X158813871Y-62891831D01*
X158723654Y-62894464D01*
X158665563Y-62899123D01*
X158633376Y-62906372D01*
X158620868Y-62916772D01*
X158621814Y-62930885D01*
X158623336Y-62934850D01*
X158656695Y-63023673D01*
X158680761Y-63112181D01*
X158696920Y-63211141D01*
X158706558Y-63331321D01*
X158711060Y-63483488D01*
X158711900Y-63623088D01*
X158711901Y-64042904D01*
X158635701Y-63969900D01*
X158588087Y-63919557D01*
X158561506Y-63882278D01*
X158559500Y-63875483D01*
X158544363Y-63849550D01*
X158504872Y-63796128D01*
X158449912Y-63726145D01*
X158388368Y-63650529D01*
X158329123Y-63580209D01*
X158281061Y-63526114D01*
X158254261Y-63500000D01*
X158231939Y-63472734D01*
X158193564Y-63416630D01*
X158165698Y-63373000D01*
X158107495Y-63285298D01*
X158044549Y-63198698D01*
X158022201Y-63170362D01*
X157977487Y-63103736D01*
X157952092Y-63042643D01*
X157949900Y-63026390D01*
X157949378Y-62982677D01*
X157943709Y-62949502D01*
X157926738Y-62925412D01*
X157892311Y-62908955D01*
X157834274Y-62898677D01*
X157746472Y-62893127D01*
X157622750Y-62890851D01*
X157456955Y-62890396D01*
X157373753Y-62890400D01*
D12*
X157661400Y-72638200D03*
X157661400Y-71988200D03*
X157661400Y-71338200D03*
X157661400Y-70688200D03*
X157661400Y-70038200D03*
X157661400Y-69388200D03*
X157661400Y-68738200D03*
X151761400Y-68738200D03*
X151761400Y-69388200D03*
X151761400Y-70038200D03*
X151761400Y-70688200D03*
X151761400Y-71338200D03*
X151761400Y-71988200D03*
X151761400Y-72638200D03*
D13*
X80359500Y-68580000D03*
X84359500Y-68580000D03*
D14*
X76581900Y-79349600D03*
D15*
X76581900Y-76809600D03*
D14*
X164744400Y-79349600D03*
D15*
X164744400Y-76809600D03*
D16*
X162890200Y-70751000D03*
X162890200Y-72251000D03*
X159842200Y-70751000D03*
X159842200Y-72251000D03*
X161366200Y-70751000D03*
X161366200Y-72251000D03*
D17*
X162116200Y-69265800D03*
X160616200Y-69265800D03*
D16*
X131851400Y-66966400D03*
X131851400Y-68466400D03*
X134823200Y-66966400D03*
X134823200Y-68466400D03*
X137922000Y-66966400D03*
X137922000Y-68466400D03*
X131851400Y-63860000D03*
X131851400Y-65360000D03*
X134823200Y-63867600D03*
X134823200Y-65367600D03*
X130378200Y-66966400D03*
X130378200Y-68466400D03*
X133324600Y-66966400D03*
X133324600Y-68466400D03*
X136296400Y-66966400D03*
X136296400Y-68466400D03*
X130378200Y-63860000D03*
X130378200Y-65360000D03*
X133324600Y-63867600D03*
X133324600Y-65367600D03*
D18*
X150221800Y-77068500D03*
X150221800Y-78968500D03*
X152421800Y-78968500D03*
X152421800Y-78018500D03*
X152421800Y-77068500D03*
X129925900Y-76901000D03*
X129925900Y-78801000D03*
X132125900Y-78801000D03*
X132125900Y-77851000D03*
X132125900Y-76901000D03*
X111079100Y-77409000D03*
X111079100Y-79309000D03*
X113279100Y-79309000D03*
X113279100Y-78359000D03*
X113279100Y-77409000D03*
D17*
X148158900Y-75272900D03*
X146658900Y-75272900D03*
X128143700Y-75120500D03*
X126643700Y-75120500D03*
D19*
X148513800Y-77291500D03*
X148513800Y-78791500D03*
X128231900Y-77037500D03*
X128231900Y-78537500D03*
X109385100Y-77228000D03*
X109385100Y-78728000D03*
X154127200Y-77228000D03*
X154127200Y-78728000D03*
X133692900Y-76720000D03*
X133692900Y-78220000D03*
X114846100Y-77228000D03*
X114846100Y-78728000D03*
D20*
X112329000Y-73763900D03*
X112329000Y-72463900D03*
X110429000Y-73113900D03*
X110429000Y-72463900D03*
X110429000Y-73763900D03*
D21*
X110629000Y-70891400D03*
X112129000Y-70891400D03*
D17*
X112129000Y-75387200D03*
X110629000Y-75387200D03*
D15*
X157607000Y-60579000D03*
D22*
X83565000Y-64360800D03*
X88265000Y-61360800D03*
X88265000Y-67360800D03*
D19*
X108254800Y-71906700D03*
X108254800Y-73406700D03*
D17*
X109004800Y-75133200D03*
X107504800Y-75133200D03*
D23*
X118032400Y-69164200D03*
X121032400Y-69164200D03*
D24*
X76226900Y-83665900D03*
X76226900Y-84315900D03*
X76226900Y-84965900D03*
X76226900Y-85615900D03*
X76226900Y-86265900D03*
X76226900Y-86915900D03*
X76226900Y-87565900D03*
X76226900Y-88215900D03*
X82126900Y-88215900D03*
X82126900Y-87565900D03*
X82126900Y-86915900D03*
X82126900Y-86265900D03*
X82126900Y-85615900D03*
X82126900Y-84965900D03*
X82126900Y-84315900D03*
X82126900Y-83665900D03*
X85416900Y-83665900D03*
X85416900Y-84315900D03*
X85416900Y-84965900D03*
X85416900Y-85615900D03*
X85416900Y-86265900D03*
X85416900Y-86915900D03*
X85416900Y-87565900D03*
X85416900Y-88215900D03*
X91316900Y-88215900D03*
X91316900Y-87565900D03*
X91316900Y-86915900D03*
X91316900Y-86265900D03*
X91316900Y-85615900D03*
X91316900Y-84965900D03*
X91316900Y-84315900D03*
X91316900Y-83665900D03*
X94606900Y-83665900D03*
X94606900Y-84315900D03*
X94606900Y-84965900D03*
X94606900Y-85615900D03*
X94606900Y-86265900D03*
X94606900Y-86915900D03*
X94606900Y-87565900D03*
X94606900Y-88215900D03*
X100506900Y-88215900D03*
X100506900Y-87565900D03*
X100506900Y-86915900D03*
X100506900Y-86265900D03*
X100506900Y-85615900D03*
X100506900Y-84965900D03*
X100506900Y-84315900D03*
X100506900Y-83665900D03*
X103796900Y-83665900D03*
X103796900Y-84315900D03*
X103796900Y-84965900D03*
X103796900Y-85615900D03*
X103796900Y-86265900D03*
X103796900Y-86915900D03*
X103796900Y-87565900D03*
X103796900Y-88215900D03*
X109696900Y-88215900D03*
X109696900Y-87565900D03*
X109696900Y-86915900D03*
X109696900Y-86265900D03*
X109696900Y-85615900D03*
X109696900Y-84965900D03*
X109696900Y-84315900D03*
X109696900Y-83665900D03*
X112986900Y-83665900D03*
X112986900Y-84315900D03*
X112986900Y-84965900D03*
X112986900Y-85615900D03*
X112986900Y-86265900D03*
X112986900Y-86915900D03*
X112986900Y-87565900D03*
X112986900Y-88215900D03*
X118886900Y-88215900D03*
X118886900Y-87565900D03*
X118886900Y-86915900D03*
X118886900Y-86265900D03*
X118886900Y-85615900D03*
X118886900Y-84965900D03*
X118886900Y-84315900D03*
X118886900Y-83665900D03*
X122176900Y-83665900D03*
X122176900Y-84315900D03*
X122176900Y-84965900D03*
X122176900Y-85615900D03*
X122176900Y-86265900D03*
X122176900Y-86915900D03*
X122176900Y-87565900D03*
X122176900Y-88215900D03*
X128076900Y-88215900D03*
X128076900Y-87565900D03*
X128076900Y-86915900D03*
X128076900Y-86265900D03*
X128076900Y-85615900D03*
X128076900Y-84965900D03*
X128076900Y-84315900D03*
X128076900Y-83665900D03*
X131366900Y-83665900D03*
X131366900Y-84315900D03*
X131366900Y-84965900D03*
X131366900Y-85615900D03*
X131366900Y-86265900D03*
X131366900Y-86915900D03*
X131366900Y-87565900D03*
X131366900Y-88215900D03*
X137266900Y-88215900D03*
X137266900Y-87565900D03*
X137266900Y-86915900D03*
X137266900Y-86265900D03*
X137266900Y-85615900D03*
X137266900Y-84965900D03*
X137266900Y-84315900D03*
X137266900Y-83665900D03*
X140556900Y-83665900D03*
X140556900Y-84315900D03*
X140556900Y-84965900D03*
X140556900Y-85615900D03*
X140556900Y-86265900D03*
X140556900Y-86915900D03*
X140556900Y-87565900D03*
X140556900Y-88215900D03*
X146456900Y-88215900D03*
X146456900Y-87565900D03*
X146456900Y-86915900D03*
X146456900Y-86265900D03*
X146456900Y-85615900D03*
X146456900Y-84965900D03*
X146456900Y-84315900D03*
X146456900Y-83665900D03*
X149746900Y-83665900D03*
X149746900Y-84315900D03*
X149746900Y-84965900D03*
X149746900Y-85615900D03*
X149746900Y-86265900D03*
X149746900Y-86915900D03*
X149746900Y-87565900D03*
X149746900Y-88215900D03*
X155646900Y-88215900D03*
X155646900Y-87565900D03*
X155646900Y-86915900D03*
X155646900Y-86265900D03*
X155646900Y-85615900D03*
X155646900Y-84965900D03*
X155646900Y-84315900D03*
X155646900Y-83665900D03*
D21*
X83800400Y-81876900D03*
X82300400Y-81876900D03*
X92990400Y-81876900D03*
X91490400Y-81876900D03*
X102180400Y-81876900D03*
X100680400Y-81876900D03*
X111370400Y-81876900D03*
X109870400Y-81876900D03*
X120560400Y-81876900D03*
X119060400Y-81876900D03*
X129750400Y-81876900D03*
X128250400Y-81876900D03*
X138940400Y-81876900D03*
X137440400Y-81876900D03*
X148130400Y-81876900D03*
X146630400Y-81876900D03*
X157320400Y-81876900D03*
X155820400Y-81876900D03*
D25*
X79936900Y-91878400D03*
X79936900Y-91078400D03*
X79936900Y-96678400D03*
X79936900Y-95878400D03*
X78416900Y-95878400D03*
X78416900Y-96678400D03*
X78416900Y-91078400D03*
X78416900Y-91878400D03*
X79936900Y-95078400D03*
X79936900Y-92678400D03*
X78416900Y-92678400D03*
X78416900Y-95078400D03*
X79936900Y-93478400D03*
X78416900Y-93478400D03*
X79936900Y-94278400D03*
X78416900Y-94278400D03*
X89126900Y-91878400D03*
X89126900Y-91078400D03*
X89126900Y-96678400D03*
X89126900Y-95878400D03*
X87606900Y-95878400D03*
X87606900Y-96678400D03*
X87606900Y-91078400D03*
X87606900Y-91878400D03*
X89126900Y-95078400D03*
X89126900Y-92678400D03*
X87606900Y-92678400D03*
X87606900Y-95078400D03*
X89126900Y-93478400D03*
X87606900Y-93478400D03*
X89126900Y-94278400D03*
X87606900Y-94278400D03*
X98316900Y-91878400D03*
X98316900Y-91078400D03*
X98316900Y-96678400D03*
X98316900Y-95878400D03*
X96796900Y-95878400D03*
X96796900Y-96678400D03*
X96796900Y-91078400D03*
X96796900Y-91878400D03*
X98316900Y-95078400D03*
X98316900Y-92678400D03*
X96796900Y-92678400D03*
X96796900Y-95078400D03*
X98316900Y-93478400D03*
X96796900Y-93478400D03*
X98316900Y-94278400D03*
X96796900Y-94278400D03*
X107506900Y-91878400D03*
X107506900Y-91078400D03*
X107506900Y-96678400D03*
X107506900Y-95878400D03*
X105986900Y-95878400D03*
X105986900Y-96678400D03*
X105986900Y-91078400D03*
X105986900Y-91878400D03*
X107506900Y-95078400D03*
X107506900Y-92678400D03*
X105986900Y-92678400D03*
X105986900Y-95078400D03*
X107506900Y-93478400D03*
X105986900Y-93478400D03*
X107506900Y-94278400D03*
X105986900Y-94278400D03*
X116696900Y-91878400D03*
X116696900Y-91078400D03*
X116696900Y-96678400D03*
X116696900Y-95878400D03*
X115176900Y-95878400D03*
X115176900Y-96678400D03*
X115176900Y-91078400D03*
X115176900Y-91878400D03*
X116696900Y-95078400D03*
X116696900Y-92678400D03*
X115176900Y-92678400D03*
X115176900Y-95078400D03*
X116696900Y-93478400D03*
X115176900Y-93478400D03*
X116696900Y-94278400D03*
X115176900Y-94278400D03*
X125886900Y-91878400D03*
X125886900Y-91078400D03*
X125886900Y-96678400D03*
X125886900Y-95878400D03*
X124366900Y-95878400D03*
X124366900Y-96678400D03*
X124366900Y-91078400D03*
X124366900Y-91878400D03*
X125886900Y-95078400D03*
X125886900Y-92678400D03*
X124366900Y-92678400D03*
X124366900Y-95078400D03*
X125886900Y-93478400D03*
X124366900Y-93478400D03*
X125886900Y-94278400D03*
X124366900Y-94278400D03*
X135076900Y-91878400D03*
X135076900Y-91078400D03*
X135076900Y-96678400D03*
X135076900Y-95878400D03*
X133556900Y-95878400D03*
X133556900Y-96678400D03*
X133556900Y-91078400D03*
X133556900Y-91878400D03*
X135076900Y-95078400D03*
X135076900Y-92678400D03*
X133556900Y-92678400D03*
X133556900Y-95078400D03*
X135076900Y-93478400D03*
X133556900Y-93478400D03*
X135076900Y-94278400D03*
X133556900Y-94278400D03*
X144266900Y-91878400D03*
X144266900Y-91078400D03*
X144266900Y-96678400D03*
X144266900Y-95878400D03*
X142746900Y-95878400D03*
X142746900Y-96678400D03*
X142746900Y-91078400D03*
X142746900Y-91878400D03*
X144266900Y-95078400D03*
X144266900Y-92678400D03*
X142746900Y-92678400D03*
X142746900Y-95078400D03*
X144266900Y-93478400D03*
X142746900Y-93478400D03*
X144266900Y-94278400D03*
X142746900Y-94278400D03*
X153456900Y-91878400D03*
X153456900Y-91078400D03*
X153456900Y-96678400D03*
X153456900Y-95878400D03*
X151936900Y-95878400D03*
X151936900Y-96678400D03*
X151936900Y-91078400D03*
X151936900Y-91878400D03*
X153456900Y-95078400D03*
X153456900Y-92678400D03*
X151936900Y-92678400D03*
X151936900Y-95078400D03*
X153456900Y-93478400D03*
X151936900Y-93478400D03*
X153456900Y-94278400D03*
X151936900Y-94278400D03*
D26*
X81653400Y-89877900D03*
X81653400Y-92417900D03*
X81653400Y-94957900D03*
X81653400Y-97497900D03*
X81653400Y-100037900D03*
X76573400Y-100037900D03*
X76573400Y-97497900D03*
X76573400Y-94957900D03*
X76573400Y-92417900D03*
D27*
X76573400Y-89877900D03*
D26*
X90843400Y-89877900D03*
X90843400Y-92417900D03*
X90843400Y-94957900D03*
X90843400Y-97497900D03*
X90843400Y-100037900D03*
X85763400Y-100037900D03*
X85763400Y-97497900D03*
X85763400Y-94957900D03*
X85763400Y-92417900D03*
D27*
X85763400Y-89877900D03*
D26*
X100033400Y-89877900D03*
X100033400Y-92417900D03*
X100033400Y-94957900D03*
X100033400Y-97497900D03*
X100033400Y-100037900D03*
X94953400Y-100037900D03*
X94953400Y-97497900D03*
X94953400Y-94957900D03*
X94953400Y-92417900D03*
D27*
X94953400Y-89877900D03*
D26*
X109223400Y-89877900D03*
X109223400Y-92417900D03*
X109223400Y-94957900D03*
X109223400Y-97497900D03*
X109223400Y-100037900D03*
X104143400Y-100037900D03*
X104143400Y-97497900D03*
X104143400Y-94957900D03*
X104143400Y-92417900D03*
D27*
X104143400Y-89877900D03*
D26*
X118413400Y-89877900D03*
X118413400Y-92417900D03*
X118413400Y-94957900D03*
X118413400Y-97497900D03*
X118413400Y-100037900D03*
X113333400Y-100037900D03*
X113333400Y-97497900D03*
X113333400Y-94957900D03*
X113333400Y-92417900D03*
D27*
X113333400Y-89877900D03*
D26*
X127603400Y-89877900D03*
X127603400Y-92417900D03*
X127603400Y-94957900D03*
X127603400Y-97497900D03*
X127603400Y-100037900D03*
X122523400Y-100037900D03*
X122523400Y-97497900D03*
X122523400Y-94957900D03*
X122523400Y-92417900D03*
D27*
X122523400Y-89877900D03*
D26*
X136793400Y-89877900D03*
X136793400Y-92417900D03*
X136793400Y-94957900D03*
X136793400Y-97497900D03*
X136793400Y-100037900D03*
X131713400Y-100037900D03*
X131713400Y-97497900D03*
X131713400Y-94957900D03*
X131713400Y-92417900D03*
D27*
X131713400Y-89877900D03*
D26*
X145983400Y-89877900D03*
X145983400Y-92417900D03*
X145983400Y-94957900D03*
X145983400Y-97497900D03*
X145983400Y-100037900D03*
X140903400Y-100037900D03*
X140903400Y-97497900D03*
X140903400Y-94957900D03*
X140903400Y-92417900D03*
D27*
X140903400Y-89877900D03*
D26*
X155173400Y-89877900D03*
X155173400Y-92417900D03*
X155173400Y-94957900D03*
X155173400Y-97497900D03*
X155173400Y-100037900D03*
X150093400Y-100037900D03*
X150093400Y-97497900D03*
X150093400Y-94957900D03*
X150093400Y-92417900D03*
D27*
X150093400Y-89877900D03*
D17*
X78426900Y-89560400D03*
X79926900Y-89560400D03*
X87616900Y-89560400D03*
X89116900Y-89560400D03*
X96806900Y-89560400D03*
X98306900Y-89560400D03*
X105996900Y-89560400D03*
X107496900Y-89560400D03*
X115186900Y-89560400D03*
X116686900Y-89560400D03*
X124376900Y-89560400D03*
X125876900Y-89560400D03*
X133566900Y-89560400D03*
X135066900Y-89560400D03*
X142756900Y-89560400D03*
X144256900Y-89560400D03*
X151946900Y-89560400D03*
X153446900Y-89560400D03*
D27*
X159283400Y-89877900D03*
D26*
X159283400Y-92417900D03*
X159283400Y-94957900D03*
X159283400Y-97497900D03*
X159283400Y-100037900D03*
X164363400Y-100037900D03*
X164363400Y-97497900D03*
X164363400Y-94957900D03*
X164363400Y-92417900D03*
X164363400Y-89877900D03*
D24*
X164836900Y-83665900D03*
X164836900Y-84315900D03*
X164836900Y-84965900D03*
X164836900Y-85615900D03*
X164836900Y-86265900D03*
X164836900Y-86915900D03*
X164836900Y-87565900D03*
X164836900Y-88215900D03*
X158936900Y-88215900D03*
X158936900Y-87565900D03*
X158936900Y-86915900D03*
X158936900Y-86265900D03*
X158936900Y-85615900D03*
X158936900Y-84965900D03*
X158936900Y-84315900D03*
X158936900Y-83665900D03*
D12*
X141652200Y-72612800D03*
X141652200Y-71962800D03*
X141652200Y-71312800D03*
X141652200Y-70662800D03*
X141652200Y-70012800D03*
X141652200Y-69362800D03*
X141652200Y-68712800D03*
X147552200Y-68712800D03*
X147552200Y-69362800D03*
X147552200Y-70012800D03*
X147552200Y-70662800D03*
X147552200Y-71312800D03*
X147552200Y-71962800D03*
X147552200Y-72612800D03*
D25*
X161126900Y-94278400D03*
X162646900Y-94278400D03*
X161126900Y-93478400D03*
X162646900Y-93478400D03*
X161126900Y-95078400D03*
X161126900Y-92678400D03*
X162646900Y-92678400D03*
X162646900Y-95078400D03*
X161126900Y-91878400D03*
X161126900Y-91078400D03*
X161126900Y-96678400D03*
X161126900Y-95878400D03*
X162646900Y-95878400D03*
X162646900Y-96678400D03*
X162646900Y-91078400D03*
X162646900Y-91878400D03*
D21*
X77177200Y-73609200D03*
X78677200Y-73609200D03*
X165062600Y-81876900D03*
X163562600Y-81876900D03*
D16*
X161950400Y-78802800D03*
X161950400Y-80302800D03*
D21*
X147879500Y-106629200D03*
X146379500Y-106629200D03*
X111062200Y-106603800D03*
X109562200Y-106603800D03*
X120218900Y-106603800D03*
X118718900Y-106603800D03*
X138659300Y-106629200D03*
X137159300Y-106629200D03*
X101892800Y-106578400D03*
X100392800Y-106578400D03*
X129489900Y-106616500D03*
X127989900Y-106616500D03*
X92685300Y-106540300D03*
X91185300Y-106540300D03*
D16*
X136296400Y-65367600D03*
X136296400Y-63867600D03*
X137922000Y-65367600D03*
X137922000Y-63867600D03*
X145288000Y-65697800D03*
X145288000Y-64197800D03*
X146812000Y-65697800D03*
X146812000Y-64197800D03*
D28*
X75438000Y-71492400D03*
X75438000Y-73592400D03*
D29*
X159986000Y-77216000D03*
X162086000Y-77216000D03*
D17*
X162636900Y-89560400D03*
X161136900Y-89560400D03*
X83685300Y-77584300D03*
X82185300Y-77584300D03*
X147879500Y-105168700D03*
X146379500Y-105168700D03*
X111062200Y-105143300D03*
X109562200Y-105143300D03*
X120218900Y-105143300D03*
X118718900Y-105143300D03*
X138659300Y-105168700D03*
X137159300Y-105168700D03*
X101892800Y-105117900D03*
X100392800Y-105117900D03*
X83731800Y-74460100D03*
X82231800Y-74460100D03*
X129489900Y-105156000D03*
X127989900Y-105156000D03*
X92682800Y-105079800D03*
X91182800Y-105079800D03*
X145274600Y-66979800D03*
X146774600Y-66979800D03*
X155461400Y-74295000D03*
X153961400Y-74295000D03*
D30*
X109321600Y-67081400D03*
X79882400Y-89560400D03*
X89072400Y-89560400D03*
X98262400Y-89560400D03*
X107452400Y-89560400D03*
X116642400Y-89560400D03*
X125832400Y-89560400D03*
X135022400Y-89560400D03*
X144212400Y-89560400D03*
X153402400Y-89560400D03*
X162592400Y-89560400D03*
X157320400Y-81876900D03*
X148130400Y-81876900D03*
X138940400Y-81876900D03*
X129750400Y-81876900D03*
X120560400Y-81876900D03*
X111370400Y-81876900D03*
X102180400Y-81876900D03*
X92990400Y-81876900D03*
X83800400Y-81876900D03*
X132588000Y-64560598D03*
X135559800Y-64560598D03*
X129641600Y-67659398D03*
X132588000Y-67659398D03*
X135559800Y-67659398D03*
X148107400Y-66827400D03*
X145941600Y-65568700D03*
X91875798Y-105134096D03*
X92125800Y-106883200D03*
X101070598Y-105159496D03*
X101320600Y-106908600D03*
X110239998Y-105184896D03*
X110490000Y-106934000D03*
X119409398Y-105184896D03*
X119659400Y-106934000D03*
X128930400Y-106959400D03*
X128680398Y-105210296D03*
X137849798Y-105210296D03*
X138099800Y-106959400D03*
X147069998Y-105210296D03*
X147320000Y-106959400D03*
X75666600Y-69519800D03*
X108280200Y-72771000D03*
X109626400Y-72517000D03*
X110591600Y-74574400D03*
X108254800Y-77978000D03*
X119158600Y-64027900D03*
X120058600Y-64027900D03*
X120058600Y-64927900D03*
X119158600Y-64927900D03*
X154990800Y-78714600D03*
X147447000Y-78028800D03*
X160172400Y-76454000D03*
X153949400Y-75209400D03*
X127254000Y-78003400D03*
X125679200Y-75107800D03*
X130530600Y-73406000D03*
X161381600Y-70768600D03*
X112191800Y-77622400D03*
X130962400Y-77012800D03*
X150647400Y-73456800D03*
X97447100Y-60388500D03*
X98920300Y-60388500D03*
X100368100Y-60388500D03*
X109956600Y-67081400D03*
X110591600Y-67081400D03*
X111226600Y-67081400D03*
X109321600Y-67716400D03*
X109956600Y-67716400D03*
X110591600Y-67716400D03*
X111226600Y-67716400D03*
X109321600Y-68351400D03*
X109956600Y-68351400D03*
X110591600Y-68351400D03*
X111226600Y-68351400D03*
X109321600Y-68986400D03*
X109956600Y-68986400D03*
X110591600Y-68986400D03*
X111226600Y-68986400D03*
X115620800Y-69570600D03*
X116255800Y-69570600D03*
X116255800Y-68935600D03*
X115620800Y-68935600D03*
X116890800Y-68935600D03*
X116890800Y-69570600D03*
X129235810Y-70128790D03*
X140258800Y-68707000D03*
X149123400Y-70104000D03*
X156540200Y-74904600D03*
X103733600Y-66471200D03*
X159477297Y-69783103D03*
X164236400Y-81940400D03*
X118338600Y-69545200D03*
X117703600Y-69545200D03*
X118338600Y-68910200D03*
X117703600Y-68910200D03*
X82878254Y-77597000D03*
X82924782Y-74523600D03*
X129636815Y-64530413D03*
X78521843Y-89655343D03*
X87711843Y-89655343D03*
X96901843Y-89655343D03*
X106091843Y-89655343D03*
X115281843Y-89655343D03*
X124471843Y-89655343D03*
X133661843Y-89655343D03*
X142851843Y-89655343D03*
X152041843Y-89655343D03*
X161231843Y-89655343D03*
X129710259Y-69061643D03*
X143205200Y-65303400D03*
X92682800Y-105079800D03*
X101877600Y-105105200D03*
X111047000Y-105130600D03*
X120216400Y-105130600D03*
X129487400Y-105156000D03*
X138656800Y-105156000D03*
X147877000Y-105156000D03*
X83731800Y-74460100D03*
X83681000Y-77584300D03*
X75641200Y-72593200D03*
X106781600Y-69900800D03*
X108254800Y-71906700D03*
X111658400Y-74498200D03*
X112217200Y-79298800D03*
X154990800Y-77241400D03*
X158648400Y-76479400D03*
X162153600Y-81000600D03*
X155448000Y-75209400D03*
X132105400Y-79654400D03*
X132359400Y-75590400D03*
X130556000Y-71907400D03*
X164236400Y-71018400D03*
X162128200Y-68300600D03*
X149443506Y-71997935D03*
X121081800Y-67005200D03*
X121081800Y-67640200D03*
X121716800Y-67640200D03*
X121716800Y-67005200D03*
X122351800Y-67640200D03*
X122351800Y-67005200D03*
X122986800Y-67005200D03*
X122986800Y-67640200D03*
X123621800Y-67005200D03*
X124891800Y-67005200D03*
X126161800Y-67005200D03*
X125526800Y-67005200D03*
X124256800Y-67005200D03*
X126796800Y-67005200D03*
X127431800Y-67005200D03*
X127431800Y-67640200D03*
X126796800Y-67640200D03*
X127431800Y-68275200D03*
X126796800Y-68910200D03*
X127431800Y-68910200D03*
X126796800Y-68275200D03*
X127431800Y-69545200D03*
X126796800Y-69545200D03*
X117754400Y-67691000D03*
X145338800Y-68707000D03*
X151358600Y-78867000D03*
X78663800Y-74466202D03*
X129540000Y-66159372D03*
X132969000Y-66141600D03*
X135432800Y-66159386D03*
X132613400Y-69342000D03*
X135382000Y-69316600D03*
X162864800Y-77622400D03*
X77825600Y-73660000D03*
X97815400Y-69265800D03*
X122047000Y-62966600D03*
X137591800Y-63500000D03*
X153009600Y-72923400D03*
X151003000Y-66802000D03*
X140792200Y-63677800D03*
X141300200Y-61392400D03*
X157683200Y-83870800D03*
X74574400Y-83870800D03*
X83921600Y-84328000D03*
X93116400Y-84328000D03*
X102311200Y-84328000D03*
X111506000Y-84328000D03*
X120700800Y-84328000D03*
X129895600Y-84328000D03*
X139090400Y-84328000D03*
X148285200Y-84328000D03*
X152984200Y-71628000D03*
X146356594Y-63500869D03*
X145923000Y-62052200D03*
X149580600Y-66548000D03*
X150672800Y-74422000D03*
X134620000Y-63500000D03*
X147828000Y-63601600D03*
X131673600Y-63500000D03*
X137591800Y-66624200D03*
X134620000Y-66624200D03*
X138912600Y-66192400D03*
X131673600Y-66624200D03*
X131622800Y-69367400D03*
X131817101Y-71992018D03*
X155702000Y-79552800D03*
X136824024Y-63476434D03*
X146989800Y-105892600D03*
X136982200Y-60324400D03*
X166243000Y-66827400D03*
X159334811Y-67183000D03*
X133852224Y-63476434D03*
X137769600Y-105892600D03*
X152019000Y-63068200D03*
X130905824Y-63476434D03*
X128600200Y-105892600D03*
X130911600Y-60985400D03*
X159080200Y-73837800D03*
X164744400Y-73507600D03*
X136824024Y-66600634D03*
X119329200Y-105867200D03*
X140081000Y-60324400D03*
X140081000Y-66217800D03*
X159271535Y-68050294D03*
X158810874Y-103085722D03*
X133852224Y-66600634D03*
X131724400Y-60324400D03*
X161366200Y-67310600D03*
X159224070Y-102536855D03*
X110162799Y-105872445D03*
X130905824Y-66600634D03*
X129209800Y-61620400D03*
X150423548Y-61082252D03*
X164668200Y-68072600D03*
X159664400Y-101955600D03*
X100993385Y-105847054D03*
X162128200Y-73406000D03*
X161391600Y-73075800D03*
X163880800Y-72136000D03*
X160248600Y-68224400D03*
X91795600Y-105816400D03*
X162068104Y-67446296D03*
X157784800Y-101752400D03*
X163322000Y-84734400D03*
X80822800Y-84785200D03*
X89611200Y-85445600D03*
X98806000Y-85445600D03*
X108000800Y-85445600D03*
X117195600Y-85445600D03*
X126390400Y-85445600D03*
X135585200Y-85445600D03*
X144780000Y-85445600D03*
X153974800Y-85445600D03*
X157284400Y-86258400D03*
X157982900Y-95719900D03*
X148094400Y-86258400D03*
X148792900Y-95719900D03*
X138904400Y-86258400D03*
X139602900Y-95719900D03*
X129714400Y-86258400D03*
X130412900Y-95719900D03*
X120524400Y-86258400D03*
X121222900Y-95719900D03*
X111334400Y-86258400D03*
X112032900Y-95719900D03*
X102144400Y-86258400D03*
X102842900Y-95719900D03*
X92954400Y-86258400D03*
X93652900Y-95719900D03*
X83764400Y-86258400D03*
X84462900Y-95719900D03*
X75272900Y-95719900D03*
X74574400Y-86258400D03*
X136262133Y-64647314D03*
X139522200Y-64668400D03*
X133290333Y-64647314D03*
X133451600Y-62891021D03*
X128917600Y-65227200D03*
X130336328Y-64586117D03*
X136262133Y-67746114D03*
X136753600Y-70002400D03*
X133807200Y-69570600D03*
X140258800Y-67309400D03*
X133290333Y-67746114D03*
X130343933Y-67746114D03*
X145973800Y-71475600D03*
X157881900Y-94005400D03*
X157665400Y-85559900D03*
X161792920Y-90385900D03*
X157792400Y-87020400D03*
X161859898Y-93433900D03*
X161861400Y-86893400D03*
X160268900Y-86893400D03*
X163443906Y-87655400D03*
X161856400Y-91846400D03*
X160339888Y-90993919D03*
X163316900Y-86904897D03*
X163697900Y-93560900D03*
X161919900Y-92671900D03*
X163634400Y-91211400D03*
X148691900Y-94005400D03*
X148475400Y-85559900D03*
X152602920Y-90385900D03*
X148602400Y-87020400D03*
X152669898Y-93433900D03*
X152671400Y-86893400D03*
X151078900Y-86893400D03*
X154253906Y-87655400D03*
X152666400Y-91846400D03*
X151149888Y-90993919D03*
X154126900Y-86904897D03*
X154507900Y-93560900D03*
X152729900Y-92671900D03*
X154444400Y-91211400D03*
X139501900Y-94005400D03*
X139285400Y-85559900D03*
X143412920Y-90385900D03*
X139412400Y-87020400D03*
X143479898Y-93433900D03*
X143481400Y-86893400D03*
X141888900Y-86893400D03*
X145063906Y-87655400D03*
X143476400Y-91846400D03*
X141959888Y-90993919D03*
X144936900Y-86904897D03*
X145317900Y-93560900D03*
X143539900Y-92671900D03*
X145254400Y-91211400D03*
X130311900Y-94005400D03*
X130095400Y-85559900D03*
X134222920Y-90385900D03*
X130222400Y-87020400D03*
X134289898Y-93433900D03*
X134291400Y-86893400D03*
X132698900Y-86893400D03*
X135873906Y-87655400D03*
X134286400Y-91846400D03*
X132769888Y-90993919D03*
X135746900Y-86904897D03*
X136127900Y-93560900D03*
X134349900Y-92671900D03*
X136064400Y-91211400D03*
X121121900Y-94005400D03*
X120905400Y-85559900D03*
X125032920Y-90385900D03*
X121032400Y-87020400D03*
X125099898Y-93433900D03*
X125101400Y-86893400D03*
X123508900Y-86893400D03*
X126683906Y-87655400D03*
X125096400Y-91846400D03*
X123579888Y-90993919D03*
X126556900Y-86904897D03*
X126937900Y-93560900D03*
X125159900Y-92671900D03*
X126874400Y-91211400D03*
X111931900Y-94005400D03*
X111715400Y-85559900D03*
X115842920Y-90385900D03*
X111842400Y-87020400D03*
X115909898Y-93433900D03*
X115911400Y-86893400D03*
X114318900Y-86893400D03*
X117493906Y-87655400D03*
X115906400Y-91846400D03*
X114389888Y-90993919D03*
X117366900Y-86904897D03*
X117747900Y-93560900D03*
X115969900Y-92671900D03*
X117684400Y-91211400D03*
X102741900Y-94005400D03*
X102525400Y-85559900D03*
X106652920Y-90385900D03*
X102652400Y-87020400D03*
X106719898Y-93433900D03*
X106721400Y-86893400D03*
X105128900Y-86893400D03*
X108303906Y-87655400D03*
X106716400Y-91846400D03*
X105199888Y-90993919D03*
X108176900Y-86904897D03*
X108557900Y-93560900D03*
X106779900Y-92671900D03*
X108494400Y-91211400D03*
X93551900Y-94005400D03*
X93335400Y-85559900D03*
X97462920Y-90385900D03*
X93462400Y-87020400D03*
X97529898Y-93433900D03*
X97531400Y-86893400D03*
X95938900Y-86893400D03*
X99113906Y-87655400D03*
X97526400Y-91846400D03*
X96009888Y-90993919D03*
X98986900Y-86904897D03*
X99367900Y-93560900D03*
X97589900Y-92671900D03*
X99304400Y-91211400D03*
X84361900Y-94005400D03*
X84145400Y-85559900D03*
X88272920Y-90385900D03*
X84272400Y-87020400D03*
X88339898Y-93433900D03*
X88341400Y-86893400D03*
X86748900Y-86893400D03*
X89923906Y-87655400D03*
X88336400Y-91846400D03*
X86819888Y-90993919D03*
X89796900Y-86904897D03*
X90177900Y-93560900D03*
X88399900Y-92671900D03*
X90114400Y-91211400D03*
X74955400Y-85559900D03*
X75171900Y-94005400D03*
X79149898Y-93433900D03*
X79082920Y-90385900D03*
X79151400Y-86893400D03*
X77558900Y-86893400D03*
X75082400Y-87020400D03*
X79146400Y-91846400D03*
X80733906Y-87655400D03*
X77629888Y-90993919D03*
X80606900Y-86904897D03*
X79502000Y-81026000D03*
X80987900Y-93560900D03*
X79209900Y-92671900D03*
X80924400Y-91211400D03*
X98069400Y-66217800D03*
X103329100Y-63028000D03*
X105154100Y-63028000D03*
X105154100Y-64353000D03*
X103329100Y-64353000D03*
X103606600Y-68376800D03*
X109004800Y-75133200D03*
X111353600Y-72720200D03*
X108254800Y-76885800D03*
X127482600Y-77012800D03*
X147497800Y-77038200D03*
X128143700Y-75120500D03*
X148158900Y-75272900D03*
D31*
X87045800Y-68580000D02*
X88265000Y-67360800D01*
X84359500Y-68580000D02*
X87045800Y-68580000D01*
X81276899Y-88235401D02*
X82126900Y-88235401D01*
X79926900Y-89560400D02*
X79951900Y-89560400D01*
X79951900Y-89560400D02*
X81276899Y-88235401D01*
X79926900Y-89560400D02*
X79882400Y-89560400D01*
X89116900Y-89560400D02*
X89141900Y-89560400D01*
X98306900Y-89560400D02*
X98331900Y-89560400D01*
X107496900Y-89560400D02*
X107521900Y-89560400D01*
X116686900Y-89560400D02*
X116711900Y-89560400D01*
X125876900Y-89560400D02*
X125901900Y-89560400D01*
X135066900Y-89560400D02*
X135091900Y-89560400D01*
X144256900Y-89560400D02*
X144281900Y-89560400D01*
X153446900Y-89560400D02*
X153471900Y-89560400D01*
X162636900Y-89560400D02*
X162661900Y-89560400D01*
X89141900Y-89560400D02*
X90466899Y-88235401D01*
X98331900Y-89560400D02*
X99656899Y-88235401D01*
X107521900Y-89560400D02*
X108846899Y-88235401D01*
X116711900Y-89560400D02*
X118036899Y-88235401D01*
X125901900Y-89560400D02*
X127226899Y-88235401D01*
X135091900Y-89560400D02*
X136416899Y-88235401D01*
X144281900Y-89560400D02*
X145606899Y-88235401D01*
X153471900Y-89560400D02*
X154796899Y-88235401D01*
X162661900Y-89560400D02*
X163986899Y-88235401D01*
X90466899Y-88235401D02*
X91316900Y-88235401D01*
X99656899Y-88235401D02*
X100506900Y-88235401D01*
X108846899Y-88235401D02*
X109696900Y-88235401D01*
X118036899Y-88235401D02*
X118886900Y-88235401D01*
X127226899Y-88235401D02*
X128076900Y-88235401D01*
X136416899Y-88235401D02*
X137266900Y-88235401D01*
X145606899Y-88235401D02*
X146456900Y-88235401D01*
X154796899Y-88235401D02*
X155646900Y-88235401D01*
X163986899Y-88235401D02*
X164836900Y-88235401D01*
X89116900Y-89560400D02*
X89072400Y-89560400D01*
X98306900Y-89560400D02*
X98262400Y-89560400D01*
X107496900Y-89560400D02*
X107452400Y-89560400D01*
X116686900Y-89560400D02*
X116642400Y-89560400D01*
X125876900Y-89560400D02*
X125832400Y-89560400D01*
X135066900Y-89560400D02*
X135022400Y-89560400D01*
X144256900Y-89560400D02*
X144212400Y-89560400D01*
X153446900Y-89560400D02*
X153402400Y-89560400D01*
X162636900Y-89560400D02*
X162592400Y-89560400D01*
D32*
X157459400Y-83380400D02*
X157459400Y-83222400D01*
X148269400Y-83380400D02*
X148269400Y-83222400D01*
X139079400Y-83380400D02*
X139079400Y-83222400D01*
X129889400Y-83380400D02*
X129889400Y-83222400D01*
X120699400Y-83380400D02*
X120699400Y-83222400D01*
X111509400Y-83380400D02*
X111509400Y-83222400D01*
X102319400Y-83380400D02*
X102319400Y-83222400D01*
X93129400Y-83380400D02*
X93129400Y-83222400D01*
X83939400Y-83380400D02*
X83939400Y-83222400D01*
X155646900Y-84315900D02*
X156523900Y-84315900D01*
X146456900Y-84315900D02*
X147333900Y-84315900D01*
X137266900Y-84315900D02*
X138143900Y-84315900D01*
X128076900Y-84315900D02*
X128953900Y-84315900D01*
X118886900Y-84315900D02*
X119763900Y-84315900D01*
X109696900Y-84315900D02*
X110573900Y-84315900D01*
X100506900Y-84315900D02*
X101383900Y-84315900D01*
X91316900Y-84315900D02*
X92193900Y-84315900D01*
X82126900Y-84315900D02*
X83003900Y-84315900D01*
X156523900Y-84315900D02*
X157459400Y-83380400D01*
X147333900Y-84315900D02*
X148269400Y-83380400D01*
X138143900Y-84315900D02*
X139079400Y-83380400D01*
X128953900Y-84315900D02*
X129889400Y-83380400D01*
X119763900Y-84315900D02*
X120699400Y-83380400D01*
X110573900Y-84315900D02*
X111509400Y-83380400D01*
X101383900Y-84315900D02*
X102319400Y-83380400D01*
X92193900Y-84315900D02*
X93129400Y-83380400D01*
X83003900Y-84315900D02*
X83939400Y-83380400D01*
X157459400Y-83222400D02*
X157459400Y-82015900D01*
X148269400Y-83222400D02*
X148269400Y-82015900D01*
X139079400Y-83222400D02*
X139079400Y-82015900D01*
X129889400Y-83222400D02*
X129889400Y-82015900D01*
X120699400Y-83222400D02*
X120699400Y-82015900D01*
X111509400Y-83222400D02*
X111509400Y-82015900D01*
X102319400Y-83222400D02*
X102319400Y-82015900D01*
X93129400Y-83222400D02*
X93129400Y-82015900D01*
X83939400Y-83222400D02*
X83939400Y-82015900D01*
X157459400Y-82015900D02*
X157320400Y-81876900D01*
X148269400Y-82015900D02*
X148130400Y-81876900D01*
X139079400Y-82015900D02*
X138940400Y-81876900D01*
X129889400Y-82015900D02*
X129750400Y-81876900D01*
X120699400Y-82015900D02*
X120560400Y-81876900D01*
X111509400Y-82015900D02*
X111370400Y-81876900D01*
X102319400Y-82015900D02*
X102180400Y-81876900D01*
X93129400Y-82015900D02*
X92990400Y-81876900D01*
X83939400Y-82015900D02*
X83800400Y-81876900D01*
X130378200Y-68466400D02*
X137922000Y-68466400D01*
X130385800Y-65367600D02*
X130378200Y-65360000D01*
X137922000Y-65367600D02*
X130385800Y-65367600D01*
X129641600Y-68055377D02*
X129641600Y-67659398D01*
X130052623Y-68466400D02*
X129641600Y-68055377D01*
X130378200Y-68466400D02*
X130052623Y-68466400D01*
X146927000Y-66827400D02*
X146774600Y-66979800D01*
X148107400Y-66827400D02*
X146927000Y-66827400D01*
X145288000Y-65697800D02*
X146812000Y-65697800D01*
X145812500Y-65697800D02*
X145941600Y-65568700D01*
X145288000Y-65697800D02*
X145812500Y-65697800D01*
X146070700Y-65697800D02*
X145941600Y-65568700D01*
X146812000Y-65697800D02*
X146070700Y-65697800D01*
X91875798Y-105134096D02*
X91237096Y-105134096D01*
X91237096Y-105134096D02*
X91182800Y-105079800D01*
X92685300Y-106540300D02*
X92468700Y-106540300D01*
X92468700Y-106540300D02*
X92125800Y-106883200D01*
X100431896Y-105159496D02*
X100377600Y-105105200D01*
X101070598Y-105159496D02*
X100431896Y-105159496D01*
X101880100Y-106565700D02*
X101663500Y-106565700D01*
X101663500Y-106565700D02*
X101320600Y-106908600D01*
X111049500Y-106591100D02*
X110832900Y-106591100D01*
X110832900Y-106591100D02*
X110490000Y-106934000D01*
X110239998Y-105184896D02*
X109601296Y-105184896D01*
X109601296Y-105184896D02*
X109547000Y-105130600D01*
X118770696Y-105184896D02*
X118716400Y-105130600D01*
X119409398Y-105184896D02*
X118770696Y-105184896D01*
X120002300Y-106591100D02*
X119659400Y-106934000D01*
X120218900Y-106591100D02*
X120002300Y-106591100D01*
X129273300Y-106616500D02*
X128930400Y-106959400D01*
X128680398Y-105210296D02*
X128041696Y-105210296D01*
X128041696Y-105210296D02*
X127987400Y-105156000D01*
X129489900Y-106616500D02*
X129273300Y-106616500D01*
X137849798Y-105210296D02*
X137211096Y-105210296D01*
X138659300Y-106616500D02*
X138442700Y-106616500D01*
X138442700Y-106616500D02*
X138099800Y-106959400D01*
X137211096Y-105210296D02*
X137156800Y-105156000D01*
X147069998Y-105210296D02*
X146431296Y-105210296D01*
X147879500Y-106616500D02*
X147662900Y-106616500D01*
X146431296Y-105210296D02*
X146377000Y-105156000D01*
X147662900Y-106616500D02*
X147320000Y-106959400D01*
D33*
X75438000Y-69748400D02*
X75666600Y-69519800D01*
X75438000Y-71492400D02*
X75438000Y-69748400D01*
X108280200Y-73381300D02*
X108254800Y-73406700D01*
X108280200Y-72771000D02*
X108280200Y-73381300D01*
X110375900Y-72517000D02*
X110429000Y-72463900D01*
X109626400Y-72517000D02*
X110375900Y-72517000D01*
X110629000Y-72263900D02*
X110429000Y-72463900D01*
X110629000Y-70891400D02*
X110629000Y-72263900D01*
X109626400Y-72912979D02*
X109626400Y-72517000D01*
X109626400Y-74409600D02*
X109626400Y-72912979D01*
X110629000Y-75387200D02*
X110604000Y-75387200D01*
X110604000Y-75387200D02*
X109626400Y-74409600D01*
X110629000Y-75387200D02*
X110629000Y-74611800D01*
X110629000Y-74611800D02*
X110591600Y-74574400D01*
D31*
X114477100Y-78359000D02*
X113279100Y-78359000D01*
X114846100Y-78728000D02*
X114477100Y-78359000D01*
X109754100Y-78359000D02*
X109385100Y-78728000D01*
X113279100Y-78359000D02*
X109754100Y-78359000D01*
X109385100Y-78728000D02*
X109004800Y-78728000D01*
X109004800Y-78728000D02*
X108254800Y-77978000D01*
X153417700Y-78018500D02*
X152421800Y-78018500D01*
X154127200Y-78728000D02*
X153417700Y-78018500D01*
X154127200Y-78728000D02*
X154977400Y-78728000D01*
X154977400Y-78728000D02*
X154990800Y-78714600D01*
X149286800Y-78018500D02*
X148513800Y-78791500D01*
X152421800Y-78018500D02*
X149286800Y-78018500D01*
X148513800Y-78791500D02*
X148209700Y-78791500D01*
X148209700Y-78791500D02*
X147447000Y-78028800D01*
D33*
X159986000Y-76640400D02*
X160172400Y-76454000D01*
X159986000Y-77216000D02*
X159986000Y-76640400D01*
D31*
X153961400Y-74295000D02*
X153961400Y-75197400D01*
X153961400Y-75197400D02*
X153949400Y-75209400D01*
X153961400Y-74295000D02*
X153961400Y-69506400D01*
X152842001Y-68718699D02*
X151761400Y-68718699D01*
X153961400Y-69506400D02*
X153173699Y-68718699D01*
X153173699Y-68718699D02*
X152842001Y-68718699D01*
X128918400Y-77851000D02*
X132125900Y-77851000D01*
X128231900Y-78537500D02*
X128918400Y-77851000D01*
X133323900Y-77851000D02*
X132125900Y-77851000D01*
X133692900Y-78220000D02*
X133323900Y-77851000D01*
X127697800Y-78003400D02*
X128231900Y-78537500D01*
X127254000Y-78003400D02*
X127697800Y-78003400D01*
D33*
X126643700Y-75120500D02*
X125691900Y-75120500D01*
X125691900Y-75120500D02*
X125679200Y-75107800D01*
D31*
X159842200Y-70751000D02*
X162890200Y-70751000D01*
X112191800Y-77976802D02*
X112191800Y-77622400D01*
X113279100Y-78359000D02*
X112573998Y-78359000D01*
X112573998Y-78359000D02*
X112191800Y-77976802D01*
X130962400Y-77392602D02*
X130962400Y-77012800D01*
X132125900Y-77851000D02*
X131420798Y-77851000D01*
X131420798Y-77851000D02*
X130962400Y-77392602D01*
D33*
X146658900Y-77240700D02*
X147447000Y-78028800D01*
X146658900Y-75272900D02*
X146658900Y-77240700D01*
X140264600Y-68712800D02*
X140258800Y-68707000D01*
X141652200Y-68712800D02*
X140264600Y-68712800D01*
X149123400Y-70720600D02*
X149123400Y-70104000D01*
X147552200Y-71312800D02*
X148531200Y-71312800D01*
X148531200Y-71312800D02*
X149123400Y-70720600D01*
D31*
X107504800Y-74156700D02*
X108254800Y-73406700D01*
X107504800Y-75133200D02*
X107504800Y-74156700D01*
D33*
X163832900Y-84315900D02*
X164836900Y-84315900D01*
X163693822Y-84315900D02*
X163832900Y-84315900D01*
X163562600Y-81876900D02*
X163562600Y-84184678D01*
X163562600Y-84184678D02*
X163693822Y-84315900D01*
X159477297Y-69750703D02*
X159477297Y-69783103D01*
X159962200Y-69265800D02*
X159477297Y-69750703D01*
X160616200Y-69265800D02*
X159962200Y-69265800D01*
X163626100Y-81940400D02*
X163562600Y-81876900D01*
X164236400Y-81940400D02*
X163626100Y-81940400D01*
X82482275Y-77597000D02*
X82878254Y-77597000D01*
X82193700Y-77597000D02*
X82482275Y-77597000D01*
X82181000Y-77584300D02*
X82193700Y-77597000D01*
X82885800Y-74460100D02*
X82924782Y-74499082D01*
X82231800Y-74460100D02*
X82885800Y-74460100D01*
X82924782Y-74499082D02*
X82924782Y-74523600D01*
D32*
X129636815Y-64818615D02*
X129636815Y-64530413D01*
X130378200Y-65360000D02*
X130178200Y-65360000D01*
X130178200Y-65360000D02*
X129636815Y-64818615D01*
D31*
X80359500Y-67566300D02*
X83565000Y-64360800D01*
X80359500Y-68580000D02*
X80359500Y-67566300D01*
X77332501Y-83646399D02*
X76226900Y-83646399D01*
X78426900Y-89560400D02*
X78426900Y-84740798D01*
X78426900Y-84740798D02*
X77332501Y-83646399D01*
X78426900Y-89560400D02*
X78521843Y-89655343D01*
X86522501Y-83646399D02*
X85416900Y-83646399D01*
X95712501Y-83646399D02*
X94606900Y-83646399D01*
X104902501Y-83646399D02*
X103796900Y-83646399D01*
X114092501Y-83646399D02*
X112986900Y-83646399D01*
X123282501Y-83646399D02*
X122176900Y-83646399D01*
X132472501Y-83646399D02*
X131366900Y-83646399D01*
X141662501Y-83646399D02*
X140556900Y-83646399D01*
X150852501Y-83646399D02*
X149746900Y-83646399D01*
X160042501Y-83646399D02*
X158936900Y-83646399D01*
X87616900Y-89560400D02*
X87616900Y-84740798D01*
X96806900Y-89560400D02*
X96806900Y-84740798D01*
X105996900Y-89560400D02*
X105996900Y-84740798D01*
X115186900Y-89560400D02*
X115186900Y-84740798D01*
X124376900Y-89560400D02*
X124376900Y-84740798D01*
X133566900Y-89560400D02*
X133566900Y-84740798D01*
X142756900Y-89560400D02*
X142756900Y-84740798D01*
X151946900Y-89560400D02*
X151946900Y-84740798D01*
X161136900Y-89560400D02*
X161136900Y-84740798D01*
X87616900Y-84740798D02*
X86522501Y-83646399D01*
X96806900Y-84740798D02*
X95712501Y-83646399D01*
X105996900Y-84740798D02*
X104902501Y-83646399D01*
X115186900Y-84740798D02*
X114092501Y-83646399D01*
X124376900Y-84740798D02*
X123282501Y-83646399D01*
X133566900Y-84740798D02*
X132472501Y-83646399D01*
X142756900Y-84740798D02*
X141662501Y-83646399D01*
X151946900Y-84740798D02*
X150852501Y-83646399D01*
X161136900Y-84740798D02*
X160042501Y-83646399D01*
X87616900Y-89560400D02*
X87711843Y-89655343D01*
X96806900Y-89560400D02*
X96901843Y-89655343D01*
X105996900Y-89560400D02*
X106091843Y-89655343D01*
X115186900Y-89560400D02*
X115281843Y-89655343D01*
X124376900Y-89560400D02*
X124471843Y-89655343D01*
X133566900Y-89560400D02*
X133661843Y-89655343D01*
X142756900Y-89560400D02*
X142851843Y-89655343D01*
X151946900Y-89560400D02*
X152041843Y-89655343D01*
X161136900Y-89560400D02*
X161231843Y-89655343D01*
D32*
X145274600Y-66979800D02*
X143687800Y-66979800D01*
X143687800Y-66979800D02*
X143205200Y-66497200D01*
X143205200Y-66497200D02*
X143205200Y-65303400D01*
D33*
X112329000Y-75187200D02*
X112129000Y-75387200D01*
X112329000Y-73763900D02*
X112329000Y-75187200D01*
X112129000Y-75387200D02*
X112129000Y-74968800D01*
X112129000Y-74968800D02*
X111658400Y-74498200D01*
D31*
X113460100Y-77228000D02*
X113279100Y-77409000D01*
X114846100Y-77228000D02*
X113460100Y-77228000D01*
X112129000Y-75387200D02*
X114096800Y-75387200D01*
X114846100Y-76136500D02*
X114846100Y-77228000D01*
X114096800Y-75387200D02*
X114846100Y-76136500D01*
D33*
X113279100Y-79309000D02*
X112227400Y-79309000D01*
X112227400Y-79309000D02*
X112217200Y-79298800D01*
D31*
X152581300Y-77228000D02*
X152421800Y-77068500D01*
X154127200Y-77228000D02*
X152581300Y-77228000D01*
X154127200Y-77228000D02*
X154977400Y-77228000D01*
X154977400Y-77228000D02*
X154990800Y-77241400D01*
D33*
X161950400Y-80302800D02*
X161950400Y-80797400D01*
X161950400Y-80797400D02*
X162153600Y-81000600D01*
D31*
X155461400Y-74295000D02*
X155461400Y-75196000D01*
X155461400Y-75196000D02*
X155448000Y-75209400D01*
D34*
X155461400Y-72986200D02*
X155461400Y-74295000D01*
X157661400Y-72638200D02*
X155809400Y-72638200D01*
X155809400Y-72638200D02*
X155461400Y-72986200D01*
D31*
X132306900Y-76720000D02*
X132125900Y-76901000D01*
X133692900Y-76720000D02*
X132306900Y-76720000D01*
D33*
X132125900Y-78801000D02*
X132125900Y-79633900D01*
X132125900Y-79633900D02*
X132105400Y-79654400D01*
D31*
X133692900Y-75685000D02*
X133598300Y-75590400D01*
X133692900Y-76720000D02*
X133692900Y-75685000D01*
X133598300Y-75590400D02*
X132359400Y-75590400D01*
D33*
X164236400Y-71018400D02*
X164236400Y-70027800D01*
X163474400Y-69265800D02*
X162116200Y-69265800D01*
X164236400Y-70027800D02*
X163474400Y-69265800D01*
X162116200Y-69265800D02*
X162116200Y-68312600D01*
X162116200Y-68312600D02*
X162128200Y-68300600D01*
X145338800Y-71932800D02*
X145338800Y-68707000D01*
X147552200Y-72612800D02*
X146018800Y-72612800D01*
X146018800Y-72612800D02*
X145338800Y-71932800D01*
X152421800Y-78968500D02*
X151460100Y-78968500D01*
X151460100Y-78968500D02*
X151358600Y-78867000D01*
X78677200Y-73609200D02*
X78677200Y-74452802D01*
X78677200Y-74452802D02*
X78663800Y-74466202D01*
X162492400Y-77622400D02*
X162086000Y-77216000D01*
X162864800Y-77622400D02*
X162492400Y-77622400D01*
X161950400Y-78536800D02*
X162864800Y-77622400D01*
X161950400Y-78802800D02*
X161950400Y-78536800D01*
X77177200Y-73609200D02*
X77774800Y-73609200D01*
X77774800Y-73609200D02*
X77825600Y-73660000D01*
X77160400Y-73592400D02*
X77177200Y-73609200D01*
X75438000Y-73592400D02*
X77160400Y-73592400D01*
X97815400Y-69265800D02*
X104902000Y-69265800D01*
X104902000Y-69265800D02*
X105130600Y-69265800D01*
X105130600Y-69265800D02*
X106451400Y-70586600D01*
X106451400Y-70586600D02*
X107746800Y-70586600D01*
X107746800Y-70586600D02*
X108254800Y-70078600D01*
X108254800Y-70078600D02*
X108254800Y-64389000D01*
X108254800Y-64389000D02*
X108788200Y-63855600D01*
X108788200Y-63855600D02*
X117957600Y-63855600D01*
X117957600Y-63855600D02*
X118846600Y-62966600D01*
X118846600Y-62966600D02*
X122047000Y-62966600D01*
D32*
X137922000Y-63860000D02*
X137922000Y-63830200D01*
X137922000Y-63830200D02*
X137591800Y-63500000D01*
D33*
X151761400Y-72638200D02*
X152724400Y-72638200D01*
X152724400Y-72638200D02*
X153009600Y-72923400D01*
X150782400Y-72638200D02*
X149936200Y-71792000D01*
X151761400Y-72638200D02*
X150782400Y-72638200D01*
X149936200Y-71792000D02*
X149936200Y-67538600D01*
X149936200Y-67538600D02*
X150672800Y-66802000D01*
X150672800Y-66802000D02*
X151003000Y-66802000D01*
X141300200Y-63169800D02*
X140792200Y-63677800D01*
X141300200Y-61392400D02*
X141300200Y-63169800D01*
D32*
X157683200Y-83939200D02*
X157683200Y-83870800D01*
X158936900Y-84315900D02*
X158059900Y-84315900D01*
X158059900Y-84315900D02*
X157683200Y-83939200D01*
X75019500Y-84315900D02*
X74574400Y-83870800D01*
X76226900Y-84315900D02*
X75019500Y-84315900D01*
X83933700Y-84315900D02*
X83921600Y-84328000D01*
X85416900Y-84315900D02*
X83933700Y-84315900D01*
X94611700Y-84315900D02*
X93128500Y-84315900D01*
X103806500Y-84315900D02*
X102323300Y-84315900D01*
X113001300Y-84315900D02*
X111518100Y-84315900D01*
X122196100Y-84315900D02*
X120712900Y-84315900D01*
X131390900Y-84315900D02*
X129907700Y-84315900D01*
X140585700Y-84315900D02*
X139102500Y-84315900D01*
X149780500Y-84315900D02*
X148297300Y-84315900D01*
X93128500Y-84315900D02*
X93116400Y-84328000D01*
X102323300Y-84315900D02*
X102311200Y-84328000D01*
X111518100Y-84315900D02*
X111506000Y-84328000D01*
X120712900Y-84315900D02*
X120700800Y-84328000D01*
X129907700Y-84315900D02*
X129895600Y-84328000D01*
X139102500Y-84315900D02*
X139090400Y-84328000D01*
X148297300Y-84315900D02*
X148285200Y-84328000D01*
D33*
X152624000Y-71988200D02*
X151761400Y-71988200D01*
X152984200Y-71628000D02*
X152624000Y-71988200D01*
X145288000Y-64197800D02*
X145488000Y-64197800D01*
X145923000Y-63067275D02*
X146076595Y-63220870D01*
X146184931Y-63500869D02*
X146356594Y-63500869D01*
X146076595Y-63220870D02*
X146356594Y-63500869D01*
X145923000Y-62052200D02*
X145923000Y-63067275D01*
X145488000Y-64197800D02*
X146184931Y-63500869D01*
X149580600Y-66548000D02*
X147878800Y-64846200D01*
X147878800Y-64846200D02*
X145542000Y-64846200D01*
X145542000Y-64846200D02*
X145338800Y-64643000D01*
X145338800Y-64248600D02*
X145288000Y-64197800D01*
X145338800Y-64643000D02*
X145338800Y-64248600D01*
D32*
X134950200Y-63860000D02*
X134950200Y-63830200D01*
X134950200Y-63830200D02*
X134620000Y-63500000D01*
D33*
X146812000Y-64197800D02*
X147231800Y-64197800D01*
X147231800Y-64197800D02*
X147828000Y-63601600D01*
X150782400Y-71338200D02*
X151761400Y-71338200D01*
X151104600Y-63601600D02*
X151815800Y-64312800D01*
X151815800Y-64312800D02*
X151815800Y-67056000D01*
X151815800Y-67056000D02*
X150495000Y-68376800D01*
X147828000Y-63601600D02*
X151104600Y-63601600D01*
X150495000Y-68376800D02*
X150495000Y-71050800D01*
X150495000Y-71050800D02*
X150782400Y-71338200D01*
D32*
X132003800Y-63830200D02*
X131673600Y-63500000D01*
X132003800Y-63860000D02*
X132003800Y-63830200D01*
X137922000Y-66984200D02*
X137922000Y-66954400D01*
X137922000Y-66954400D02*
X137591800Y-66624200D01*
X134950200Y-66984200D02*
X134950200Y-66954400D01*
X134950200Y-66954400D02*
X134620000Y-66624200D01*
X132003800Y-66954400D02*
X131673600Y-66624200D01*
X132003800Y-66984200D02*
X132003800Y-66954400D01*
D33*
X131817101Y-71992018D02*
X138870218Y-71992018D01*
X138870218Y-71992018D02*
X140792200Y-73914000D01*
X140792200Y-73914000D02*
X144475200Y-73914000D01*
X144475200Y-73914000D02*
X145567400Y-75006200D01*
X145567400Y-75006200D02*
X145567400Y-78409800D01*
X145567400Y-78409800D02*
X146837400Y-79679800D01*
X146837400Y-79679800D02*
X155575000Y-79679800D01*
X155575000Y-79679800D02*
X155702000Y-79552800D01*
D32*
X136824024Y-63476434D02*
X136679966Y-63476434D01*
X136679966Y-63476434D02*
X136296400Y-63860000D01*
D33*
X146379500Y-106502900D02*
X146989800Y-105892600D01*
X146379500Y-106616500D02*
X146379500Y-106502900D01*
X136982200Y-63318258D02*
X136824024Y-63476434D01*
X136982200Y-60324400D02*
X136982200Y-63318258D01*
X160731811Y-65786000D02*
X159334811Y-67183000D01*
X166243000Y-66827400D02*
X165201600Y-65786000D01*
X165201600Y-65786000D02*
X160731811Y-65786000D01*
D32*
X133852224Y-63476434D02*
X133708166Y-63476434D01*
X133708166Y-63476434D02*
X133324600Y-63860000D01*
D33*
X137159300Y-106502900D02*
X137769600Y-105892600D01*
X137159300Y-106616500D02*
X137159300Y-106502900D01*
X134162800Y-60248800D02*
X134162800Y-63165858D01*
X151739001Y-62788201D02*
X150392801Y-62788201D01*
X152019000Y-63068200D02*
X151739001Y-62788201D01*
X134162800Y-63165858D02*
X133852224Y-63476434D01*
X150392801Y-62788201D02*
X148564600Y-60960000D01*
X148564600Y-60960000D02*
X142234572Y-60960000D01*
X142234572Y-60960000D02*
X140837582Y-59563010D01*
X134848590Y-59563010D02*
X134162800Y-60248800D01*
X140837582Y-59563010D02*
X134848590Y-59563010D01*
D32*
X130905824Y-63476434D02*
X130761766Y-63476434D01*
X130761766Y-63476434D02*
X130378200Y-63860000D01*
D33*
X127989900Y-106616500D02*
X127989900Y-106502900D01*
X127989900Y-106502900D02*
X128600200Y-105892600D01*
X164464401Y-73787599D02*
X164744400Y-73507600D01*
X159080200Y-73837800D02*
X159664999Y-74422599D01*
X159664999Y-74422599D02*
X163829401Y-74422599D01*
X163829401Y-74422599D02*
X164464401Y-73787599D01*
D32*
X136824024Y-66600634D02*
X136679966Y-66600634D01*
X136679966Y-66600634D02*
X136296400Y-66984200D01*
D33*
X118718900Y-106477500D02*
X119329200Y-105867200D01*
X118718900Y-106591100D02*
X118718900Y-106477500D01*
X140081000Y-60324400D02*
X140081000Y-66217800D01*
X161154820Y-66167009D02*
X164592011Y-66167009D01*
X167106601Y-101955601D02*
X165976480Y-103085722D01*
X159206853Y-103085722D02*
X158810874Y-103085722D01*
X159271535Y-68050294D02*
X161154820Y-66167009D01*
X165976480Y-103085722D02*
X159206853Y-103085722D01*
X164592011Y-66167009D02*
X167106601Y-68681600D01*
X167106601Y-68681600D02*
X167106601Y-101955601D01*
D32*
X133852224Y-66600634D02*
X133708166Y-66600634D01*
X133708166Y-66600634D02*
X133324600Y-66984200D01*
D33*
X166725590Y-68839419D02*
X166725590Y-101797782D01*
X166725590Y-101797782D02*
X165957571Y-102565801D01*
X159253016Y-102565801D02*
X159224070Y-102536855D01*
X165957571Y-102565801D02*
X159253016Y-102565801D01*
X164434192Y-66548020D02*
X166725590Y-68839419D01*
X162128780Y-66548020D02*
X164434192Y-66548020D01*
X161366200Y-67310600D02*
X162128780Y-66548020D01*
X109549500Y-106485745D02*
X109882800Y-106152444D01*
X109882800Y-106152444D02*
X110162799Y-105872445D01*
X109549500Y-106591100D02*
X109549500Y-106485745D01*
D32*
X130905824Y-66600634D02*
X130761766Y-66600634D01*
X130761766Y-66600634D02*
X130378200Y-66984200D01*
D33*
X129209800Y-61620400D02*
X131648200Y-59182000D01*
X148523296Y-59182000D02*
X150143549Y-60802253D01*
X150143549Y-60802253D02*
X150423548Y-61082252D01*
X131648200Y-59182000D02*
X148523296Y-59182000D01*
X164668200Y-68072600D02*
X166344580Y-69748980D01*
X160060379Y-101955600D02*
X159664400Y-101955600D01*
X166344580Y-69748980D02*
X166344580Y-101015820D01*
X166344580Y-101015820D02*
X165404800Y-101955600D01*
X165404800Y-101955600D02*
X160060379Y-101955600D01*
X100380100Y-106460339D02*
X100713386Y-106127053D01*
X100713386Y-106127053D02*
X100993385Y-105847054D01*
X100380100Y-106565700D02*
X100380100Y-106460339D01*
X162128200Y-73013000D02*
X161366200Y-72251000D01*
X162128200Y-73406000D02*
X162128200Y-73013000D01*
X159842200Y-72251000D02*
X160667000Y-73075800D01*
X160667000Y-73075800D02*
X161391600Y-73075800D01*
X163005200Y-72136000D02*
X162890200Y-72251000D01*
X163880800Y-72136000D02*
X163005200Y-72136000D01*
X160223200Y-74015600D02*
X162661600Y-74015600D01*
X162890200Y-73787000D02*
X162890200Y-72755000D01*
X162890200Y-72755000D02*
X162890200Y-72251000D01*
X162661600Y-74015600D02*
X162890200Y-73787000D01*
X158943296Y-72735696D02*
X160223200Y-74015600D01*
X158943296Y-69529704D02*
X158943296Y-72735696D01*
X160248600Y-68224400D02*
X158943296Y-69529704D01*
X91185300Y-106540300D02*
X91185300Y-106426700D01*
X91185300Y-106426700D02*
X91795600Y-105816400D01*
D32*
X164836900Y-84965900D02*
X163553500Y-84965900D01*
X163553500Y-84965900D02*
X163322000Y-84734400D01*
X81003500Y-84965900D02*
X80822800Y-84785200D01*
X82126900Y-84965900D02*
X81003500Y-84965900D01*
X90090900Y-84965900D02*
X89611200Y-85445600D01*
X91316900Y-84965900D02*
X90090900Y-84965900D01*
X99285700Y-84965900D02*
X98806000Y-85445600D01*
X108480500Y-84965900D02*
X108000800Y-85445600D01*
X117675300Y-84965900D02*
X117195600Y-85445600D01*
X126870100Y-84965900D02*
X126390400Y-85445600D01*
X136064900Y-84965900D02*
X135585200Y-85445600D01*
X145259700Y-84965900D02*
X144780000Y-85445600D01*
X154454500Y-84965900D02*
X153974800Y-85445600D01*
X100511700Y-84965900D02*
X99285700Y-84965900D01*
X109706500Y-84965900D02*
X108480500Y-84965900D01*
X118901300Y-84965900D02*
X117675300Y-84965900D01*
X128096100Y-84965900D02*
X126870100Y-84965900D01*
X137290900Y-84965900D02*
X136064900Y-84965900D01*
X146485700Y-84965900D02*
X145259700Y-84965900D01*
X155680500Y-84965900D02*
X154454500Y-84965900D01*
D33*
X112329000Y-71091400D02*
X112129000Y-70891400D01*
X112329000Y-72463900D02*
X112329000Y-71091400D01*
X112329000Y-72917900D02*
X112329000Y-72463900D01*
X111992699Y-73254201D02*
X112329000Y-72917900D01*
X111517699Y-73254201D02*
X111992699Y-73254201D01*
X110429000Y-73763900D02*
X111008000Y-73763900D01*
X111008000Y-73763900D02*
X111517699Y-73254201D01*
X117195600Y-74345800D02*
X117195600Y-85445600D01*
X112329000Y-72463900D02*
X115313700Y-72463900D01*
X115313700Y-72463900D02*
X117195600Y-74345800D01*
D32*
X164836900Y-83665900D02*
X164836900Y-82050400D01*
X164836900Y-82050400D02*
X165010400Y-81876900D01*
D33*
X165010400Y-81676900D02*
X165010400Y-81876900D01*
X156870400Y-79552800D02*
X162938500Y-79552800D01*
X156362400Y-79044800D02*
X156870400Y-79552800D01*
X156362400Y-76530200D02*
X156362400Y-79044800D01*
X162938500Y-79552800D02*
X165062600Y-81676900D01*
X147552200Y-71962800D02*
X148618049Y-71962800D01*
X148618049Y-71962800D02*
X149936200Y-73280951D01*
X149936200Y-73280951D02*
X149936200Y-75184000D01*
X149936200Y-75184000D02*
X150698200Y-75946000D01*
X165062600Y-81676900D02*
X165062600Y-81876900D01*
X150698200Y-75946000D02*
X155778200Y-75946000D01*
X155778200Y-75946000D02*
X156362400Y-76530200D01*
D32*
X155646900Y-83665900D02*
X155646900Y-82050400D01*
X155646900Y-82050400D02*
X155820400Y-81876900D01*
X155820400Y-80831400D02*
X155820400Y-81876900D01*
X162910400Y-86265900D02*
X161950400Y-85305900D01*
X164836900Y-86265900D02*
X162910400Y-86265900D01*
X161950400Y-81559400D02*
X160870900Y-80479900D01*
X161950400Y-85305900D02*
X161950400Y-81559400D01*
X160870900Y-80479900D02*
X156171900Y-80479900D01*
X156171900Y-80479900D02*
X155820400Y-80831400D01*
X146625600Y-80831400D02*
X146625600Y-81876900D01*
X151676100Y-80479900D02*
X146977100Y-80479900D01*
X153715600Y-86265900D02*
X152755600Y-85305900D01*
X152755600Y-81559400D02*
X151676100Y-80479900D01*
X155642100Y-86265900D02*
X153715600Y-86265900D01*
X152755600Y-85305900D02*
X152755600Y-81559400D01*
X146977100Y-80479900D02*
X146625600Y-80831400D01*
X146456900Y-83665900D02*
X146456900Y-82050400D01*
X146456900Y-82050400D02*
X146630400Y-81876900D01*
X137430800Y-80831400D02*
X137430800Y-81876900D01*
X142481300Y-80479900D02*
X137782300Y-80479900D01*
X144520800Y-86265900D02*
X143560800Y-85305900D01*
X143560800Y-81559400D02*
X142481300Y-80479900D01*
X146447300Y-86265900D02*
X144520800Y-86265900D01*
X143560800Y-85305900D02*
X143560800Y-81559400D01*
X137782300Y-80479900D02*
X137430800Y-80831400D01*
X137266900Y-83665900D02*
X137266900Y-82050400D01*
X137266900Y-82050400D02*
X137440400Y-81876900D01*
X128236000Y-80831400D02*
X128236000Y-81876900D01*
X133286500Y-80479900D02*
X128587500Y-80479900D01*
X135326000Y-86265900D02*
X134366000Y-85305900D01*
X134366000Y-81559400D02*
X133286500Y-80479900D01*
X137252500Y-86265900D02*
X135326000Y-86265900D01*
X134366000Y-85305900D02*
X134366000Y-81559400D01*
X128587500Y-80479900D02*
X128236000Y-80831400D01*
X128076900Y-83665900D02*
X128076900Y-82050400D01*
X128076900Y-82050400D02*
X128250400Y-81876900D01*
X119041200Y-80831400D02*
X119041200Y-81876900D01*
X124091700Y-80479900D02*
X119392700Y-80479900D01*
X126131200Y-86265900D02*
X125171200Y-85305900D01*
X125171200Y-81559400D02*
X124091700Y-80479900D01*
X128057700Y-86265900D02*
X126131200Y-86265900D01*
X125171200Y-85305900D02*
X125171200Y-81559400D01*
X119392700Y-80479900D02*
X119041200Y-80831400D01*
X118886900Y-83665900D02*
X118886900Y-82050400D01*
X118886900Y-82050400D02*
X119060400Y-81876900D01*
X109846400Y-80831400D02*
X109846400Y-81876900D01*
X114896900Y-80479900D02*
X110197900Y-80479900D01*
X116936400Y-86265900D02*
X115976400Y-85305900D01*
X115976400Y-81559400D02*
X114896900Y-80479900D01*
X118862900Y-86265900D02*
X116936400Y-86265900D01*
X115976400Y-85305900D02*
X115976400Y-81559400D01*
X110197900Y-80479900D02*
X109846400Y-80831400D01*
X109696900Y-83665900D02*
X109696900Y-82050400D01*
X109696900Y-82050400D02*
X109870400Y-81876900D01*
X100651600Y-80831400D02*
X100651600Y-81876900D01*
X105702100Y-80479900D02*
X101003100Y-80479900D01*
X107741600Y-86265900D02*
X106781600Y-85305900D01*
X106781600Y-81559400D02*
X105702100Y-80479900D01*
X109668100Y-86265900D02*
X107741600Y-86265900D01*
X106781600Y-85305900D02*
X106781600Y-81559400D01*
X101003100Y-80479900D02*
X100651600Y-80831400D01*
X100506900Y-83665900D02*
X100506900Y-82050400D01*
X100506900Y-82050400D02*
X100680400Y-81876900D01*
X91456800Y-80831400D02*
X91456800Y-81876900D01*
X96507300Y-80479900D02*
X91808300Y-80479900D01*
X98546800Y-86265900D02*
X97586800Y-85305900D01*
X97586800Y-81559400D02*
X96507300Y-80479900D01*
X100473300Y-86265900D02*
X98546800Y-86265900D01*
X97586800Y-85305900D02*
X97586800Y-81559400D01*
X91808300Y-80479900D02*
X91456800Y-80831400D01*
X91316900Y-83665900D02*
X91316900Y-82050400D01*
X91316900Y-82050400D02*
X91490400Y-81876900D01*
X82262000Y-80831400D02*
X82262000Y-81876900D01*
X87312500Y-80479900D02*
X82613500Y-80479900D01*
X89352000Y-86265900D02*
X88392000Y-85305900D01*
X88392000Y-81559400D02*
X87312500Y-80479900D01*
X91278500Y-86265900D02*
X89352000Y-86265900D01*
X88392000Y-85305900D02*
X88392000Y-81559400D01*
X82613500Y-80479900D02*
X82262000Y-80831400D01*
X82126900Y-82050400D02*
X82300400Y-81876900D01*
X82126900Y-83665900D02*
X82126900Y-82050400D01*
X160612400Y-96227900D02*
X158490900Y-96227900D01*
X157284400Y-86258400D02*
X158929400Y-86258400D01*
X160961900Y-95878400D02*
X160612400Y-96227900D01*
X161126900Y-95878400D02*
X160961900Y-95878400D01*
X158929400Y-86258400D02*
X158936900Y-86265900D01*
X158490900Y-96227900D02*
X157982900Y-95719900D01*
X161126900Y-97973400D02*
X161126900Y-96678400D01*
X157411400Y-98132900D02*
X158046400Y-98767900D01*
X157411400Y-88214400D02*
X157411400Y-98132900D01*
X160332400Y-98767900D02*
X161126900Y-97973400D01*
X158059900Y-87565900D02*
X157411400Y-88214400D01*
X158046400Y-98767900D02*
X160332400Y-98767900D01*
X158936900Y-87565900D02*
X158059900Y-87565900D01*
X151422400Y-96227900D02*
X149300900Y-96227900D01*
X148094400Y-86258400D02*
X149739400Y-86258400D01*
X151771900Y-95878400D02*
X151422400Y-96227900D01*
X151936900Y-95878400D02*
X151771900Y-95878400D01*
X149739400Y-86258400D02*
X149746900Y-86265900D01*
X149300900Y-96227900D02*
X148792900Y-95719900D01*
X151936900Y-97973400D02*
X151936900Y-96678400D01*
X148221400Y-98132900D02*
X148856400Y-98767900D01*
X148221400Y-88214400D02*
X148221400Y-98132900D01*
X151142400Y-98767900D02*
X151936900Y-97973400D01*
X148869900Y-87565900D02*
X148221400Y-88214400D01*
X148856400Y-98767900D02*
X151142400Y-98767900D01*
X149746900Y-87565900D02*
X148869900Y-87565900D01*
X142232400Y-96227900D02*
X140110900Y-96227900D01*
X138904400Y-86258400D02*
X140549400Y-86258400D01*
X142581900Y-95878400D02*
X142232400Y-96227900D01*
X142746900Y-95878400D02*
X142581900Y-95878400D01*
X140549400Y-86258400D02*
X140556900Y-86265900D01*
X140110900Y-96227900D02*
X139602900Y-95719900D01*
X142746900Y-97973400D02*
X142746900Y-96678400D01*
X139031400Y-98132900D02*
X139666400Y-98767900D01*
X139031400Y-88214400D02*
X139031400Y-98132900D01*
X141952400Y-98767900D02*
X142746900Y-97973400D01*
X139679900Y-87565900D02*
X139031400Y-88214400D01*
X139666400Y-98767900D02*
X141952400Y-98767900D01*
X140556900Y-87565900D02*
X139679900Y-87565900D01*
X133042400Y-96227900D02*
X130920900Y-96227900D01*
X129714400Y-86258400D02*
X131359400Y-86258400D01*
X133391900Y-95878400D02*
X133042400Y-96227900D01*
X133556900Y-95878400D02*
X133391900Y-95878400D01*
X131359400Y-86258400D02*
X131366900Y-86265900D01*
X130920900Y-96227900D02*
X130412900Y-95719900D01*
X133556900Y-97973400D02*
X133556900Y-96678400D01*
X129841400Y-98132900D02*
X130476400Y-98767900D01*
X129841400Y-88214400D02*
X129841400Y-98132900D01*
X132762400Y-98767900D02*
X133556900Y-97973400D01*
X130489900Y-87565900D02*
X129841400Y-88214400D01*
X130476400Y-98767900D02*
X132762400Y-98767900D01*
X131366900Y-87565900D02*
X130489900Y-87565900D01*
X123852400Y-96227900D02*
X121730900Y-96227900D01*
X120524400Y-86258400D02*
X122169400Y-86258400D01*
X124201900Y-95878400D02*
X123852400Y-96227900D01*
X124366900Y-95878400D02*
X124201900Y-95878400D01*
X122169400Y-86258400D02*
X122176900Y-86265900D01*
X121730900Y-96227900D02*
X121222900Y-95719900D01*
X124366900Y-97973400D02*
X124366900Y-96678400D01*
X120651400Y-98132900D02*
X121286400Y-98767900D01*
X120651400Y-88214400D02*
X120651400Y-98132900D01*
X123572400Y-98767900D02*
X124366900Y-97973400D01*
X121299900Y-87565900D02*
X120651400Y-88214400D01*
X121286400Y-98767900D02*
X123572400Y-98767900D01*
X122176900Y-87565900D02*
X121299900Y-87565900D01*
X114662400Y-96227900D02*
X112540900Y-96227900D01*
X111334400Y-86258400D02*
X112979400Y-86258400D01*
X115011900Y-95878400D02*
X114662400Y-96227900D01*
X115176900Y-95878400D02*
X115011900Y-95878400D01*
X112979400Y-86258400D02*
X112986900Y-86265900D01*
X112540900Y-96227900D02*
X112032900Y-95719900D01*
X115176900Y-97973400D02*
X115176900Y-96678400D01*
X111461400Y-98132900D02*
X112096400Y-98767900D01*
X111461400Y-88214400D02*
X111461400Y-98132900D01*
X114382400Y-98767900D02*
X115176900Y-97973400D01*
X112109900Y-87565900D02*
X111461400Y-88214400D01*
X112096400Y-98767900D02*
X114382400Y-98767900D01*
X112986900Y-87565900D02*
X112109900Y-87565900D01*
X105472400Y-96227900D02*
X103350900Y-96227900D01*
X102144400Y-86258400D02*
X103789400Y-86258400D01*
X105821900Y-95878400D02*
X105472400Y-96227900D01*
X105986900Y-95878400D02*
X105821900Y-95878400D01*
X103789400Y-86258400D02*
X103796900Y-86265900D01*
X103350900Y-96227900D02*
X102842900Y-95719900D01*
X105986900Y-97973400D02*
X105986900Y-96678400D01*
X102271400Y-98132900D02*
X102906400Y-98767900D01*
X102271400Y-88214400D02*
X102271400Y-98132900D01*
X105192400Y-98767900D02*
X105986900Y-97973400D01*
X102919900Y-87565900D02*
X102271400Y-88214400D01*
X102906400Y-98767900D02*
X105192400Y-98767900D01*
X103796900Y-87565900D02*
X102919900Y-87565900D01*
X96282400Y-96227900D02*
X94160900Y-96227900D01*
X92954400Y-86258400D02*
X94599400Y-86258400D01*
X96631900Y-95878400D02*
X96282400Y-96227900D01*
X96796900Y-95878400D02*
X96631900Y-95878400D01*
X94599400Y-86258400D02*
X94606900Y-86265900D01*
X94160900Y-96227900D02*
X93652900Y-95719900D01*
X96796900Y-97973400D02*
X96796900Y-96678400D01*
X93081400Y-98132900D02*
X93716400Y-98767900D01*
X93081400Y-88214400D02*
X93081400Y-98132900D01*
X96002400Y-98767900D02*
X96796900Y-97973400D01*
X93729900Y-87565900D02*
X93081400Y-88214400D01*
X93716400Y-98767900D02*
X96002400Y-98767900D01*
X94606900Y-87565900D02*
X93729900Y-87565900D01*
X87092400Y-96227900D02*
X84970900Y-96227900D01*
X83764400Y-86258400D02*
X85409400Y-86258400D01*
X87441900Y-95878400D02*
X87092400Y-96227900D01*
X87606900Y-95878400D02*
X87441900Y-95878400D01*
X85409400Y-86258400D02*
X85416900Y-86265900D01*
X84970900Y-96227900D02*
X84462900Y-95719900D01*
X87606900Y-97973400D02*
X87606900Y-96678400D01*
X83891400Y-98132900D02*
X84526400Y-98767900D01*
X83891400Y-88214400D02*
X83891400Y-98132900D01*
X86812400Y-98767900D02*
X87606900Y-97973400D01*
X84539900Y-87565900D02*
X83891400Y-88214400D01*
X84526400Y-98767900D02*
X86812400Y-98767900D01*
X85416900Y-87565900D02*
X84539900Y-87565900D01*
X78251900Y-95878400D02*
X77902400Y-96227900D01*
X78416900Y-95878400D02*
X78251900Y-95878400D01*
X77902400Y-96227900D02*
X75780900Y-96227900D01*
X75780900Y-96227900D02*
X75272900Y-95719900D01*
X76219400Y-86258400D02*
X76226900Y-86265900D01*
X74574400Y-86258400D02*
X76219400Y-86258400D01*
X75349900Y-87565900D02*
X74701400Y-88214400D01*
X76226900Y-87565900D02*
X75349900Y-87565900D01*
X74701400Y-88214400D02*
X74701400Y-98132900D01*
X74701400Y-98132900D02*
X75336400Y-98767900D01*
X75336400Y-98767900D02*
X77622400Y-98767900D01*
X78416900Y-97973400D02*
X78416900Y-96678400D01*
X77622400Y-98767900D02*
X78416900Y-97973400D01*
D33*
X142631200Y-71962800D02*
X142773400Y-71820600D01*
X141652200Y-71962800D02*
X142631200Y-71962800D01*
X142773400Y-71820600D02*
X142773400Y-68326000D01*
X142773400Y-68326000D02*
X142290800Y-67843400D01*
X142290800Y-67843400D02*
X139776200Y-67843400D01*
X139776200Y-67843400D02*
X139522200Y-67589400D01*
X139522200Y-67589400D02*
X139522200Y-64668400D01*
X141652200Y-71312800D02*
X129117771Y-71312800D01*
X129117771Y-71312800D02*
X128320800Y-70515829D01*
X128320800Y-70515829D02*
X128320800Y-64439800D01*
X129869579Y-62891021D02*
X133055621Y-62891021D01*
X133055621Y-62891021D02*
X133451600Y-62891021D01*
X128320800Y-64439800D02*
X129869579Y-62891021D01*
X128917600Y-65623179D02*
X128917600Y-65227200D01*
X141652200Y-70662800D02*
X129006600Y-70662800D01*
X128701800Y-65838979D02*
X128917600Y-65623179D01*
X129006600Y-70662800D02*
X128701800Y-70358000D01*
X128701800Y-70358000D02*
X128701800Y-65838979D01*
X141652200Y-70012800D02*
X136764000Y-70012800D01*
X136764000Y-70012800D02*
X136753600Y-70002400D01*
X140411790Y-67462390D02*
X140258800Y-67309400D01*
X142448619Y-67462390D02*
X140411790Y-67462390D01*
X148325600Y-70012800D02*
X148539200Y-69799200D01*
X148539200Y-69799200D02*
X148539200Y-68292598D01*
X147552200Y-70012800D02*
X148325600Y-70012800D01*
X148539200Y-68292598D02*
X148013792Y-67767190D01*
X148013792Y-67767190D02*
X142753418Y-67767190D01*
X142753418Y-67767190D02*
X142448619Y-67462390D01*
X147552200Y-70662800D02*
X146786600Y-70662800D01*
X146786600Y-70662800D02*
X145973800Y-71475600D01*
X146573200Y-69362800D02*
X146304000Y-69093600D01*
X147552200Y-69362800D02*
X146573200Y-69362800D01*
X146304000Y-69093600D02*
X146304000Y-68427600D01*
X146304000Y-68427600D02*
X146024600Y-68148200D01*
X146024600Y-68148200D02*
X144907000Y-68148200D01*
X144907000Y-68148200D02*
X144602200Y-68453000D01*
X144602200Y-68453000D02*
X144602200Y-72440800D01*
X144430200Y-72612800D02*
X141652200Y-72612800D01*
X144602200Y-72440800D02*
X144430200Y-72612800D01*
D32*
X158936900Y-85615900D02*
X157721400Y-85615900D01*
X157721400Y-85615900D02*
X157665400Y-85559900D01*
X158277879Y-94005400D02*
X158404879Y-93878400D01*
X159761900Y-93878400D02*
X160961900Y-95078400D01*
X157881900Y-94005400D02*
X158277879Y-94005400D01*
X158404879Y-93878400D02*
X159761900Y-93878400D01*
X160961900Y-95078400D02*
X161126900Y-95078400D01*
X158936900Y-86915900D02*
X157896900Y-86915900D01*
X157896900Y-86915900D02*
X157792400Y-87020400D01*
X161815398Y-93478400D02*
X161859898Y-93433900D01*
X161126900Y-93478400D02*
X161815398Y-93478400D01*
X161856400Y-89926441D02*
X161856400Y-86898400D01*
X158959400Y-86893400D02*
X158936900Y-86915900D01*
X161856400Y-86898400D02*
X161861400Y-86893400D01*
X161792920Y-90385900D02*
X161792920Y-89989921D01*
X161792920Y-89989921D02*
X161856400Y-89926441D01*
X160268900Y-86893400D02*
X158959400Y-86893400D01*
X160961900Y-94278400D02*
X160180900Y-93497400D01*
X157993900Y-88215900D02*
X158936900Y-88215900D01*
X157728900Y-92989400D02*
X157728900Y-88480900D01*
X161126900Y-94278400D02*
X160961900Y-94278400D01*
X157728900Y-88480900D02*
X157993900Y-88215900D01*
X158236900Y-93497400D02*
X157728900Y-92989400D01*
X160180900Y-93497400D02*
X158236900Y-93497400D01*
X161824400Y-91878400D02*
X161856400Y-91846400D01*
X161126900Y-91878400D02*
X161824400Y-91878400D01*
X163533406Y-87565900D02*
X163443906Y-87655400D01*
X164836900Y-87565900D02*
X163533406Y-87565900D01*
X161126900Y-92678400D02*
X160961900Y-92678400D01*
X160339888Y-92056388D02*
X160339888Y-91389898D01*
X160339888Y-91389898D02*
X160339888Y-90993919D01*
X160961900Y-92678400D02*
X160339888Y-92056388D01*
X164836900Y-86915900D02*
X163327903Y-86915900D01*
X163327903Y-86915900D02*
X163316900Y-86904897D01*
X164242900Y-95078400D02*
X164363400Y-94957900D01*
X162646900Y-95078400D02*
X164242900Y-95078400D01*
X162646900Y-94278400D02*
X162139900Y-94278400D01*
X162139900Y-94278400D02*
X161919900Y-94498400D01*
X161919900Y-94498400D02*
X161919900Y-98577400D01*
X160459400Y-100037900D02*
X159283400Y-100037900D01*
X161919900Y-98577400D02*
X160459400Y-100037900D01*
X163615400Y-93478400D02*
X163697900Y-93560900D01*
X162646900Y-93478400D02*
X163615400Y-93478400D01*
X162646900Y-92678400D02*
X161926400Y-92678400D01*
X161926400Y-92678400D02*
X161919900Y-92671900D01*
X162967400Y-91878400D02*
X163634400Y-91211400D01*
X162646900Y-91878400D02*
X162967400Y-91878400D01*
X149746900Y-85615900D02*
X148531400Y-85615900D01*
X148531400Y-85615900D02*
X148475400Y-85559900D01*
X149087879Y-94005400D02*
X149214879Y-93878400D01*
X150571900Y-93878400D02*
X151771900Y-95078400D01*
X148691900Y-94005400D02*
X149087879Y-94005400D01*
X149214879Y-93878400D02*
X150571900Y-93878400D01*
X151771900Y-95078400D02*
X151936900Y-95078400D01*
X149746900Y-86915900D02*
X148706900Y-86915900D01*
X148706900Y-86915900D02*
X148602400Y-87020400D01*
X152625398Y-93478400D02*
X152669898Y-93433900D01*
X151936900Y-93478400D02*
X152625398Y-93478400D01*
X152666400Y-89926441D02*
X152666400Y-86898400D01*
X149769400Y-86893400D02*
X149746900Y-86915900D01*
X152666400Y-86898400D02*
X152671400Y-86893400D01*
X152602920Y-90385900D02*
X152602920Y-89989921D01*
X152602920Y-89989921D02*
X152666400Y-89926441D01*
X151078900Y-86893400D02*
X149769400Y-86893400D01*
X151771900Y-94278400D02*
X150990900Y-93497400D01*
X148803900Y-88215900D02*
X149746900Y-88215900D01*
X148538900Y-92989400D02*
X148538900Y-88480900D01*
X151936900Y-94278400D02*
X151771900Y-94278400D01*
X148538900Y-88480900D02*
X148803900Y-88215900D01*
X149046900Y-93497400D02*
X148538900Y-92989400D01*
X150990900Y-93497400D02*
X149046900Y-93497400D01*
X152634400Y-91878400D02*
X152666400Y-91846400D01*
X151936900Y-91878400D02*
X152634400Y-91878400D01*
X154343406Y-87565900D02*
X154253906Y-87655400D01*
X155646900Y-87565900D02*
X154343406Y-87565900D01*
X151936900Y-92678400D02*
X151771900Y-92678400D01*
X151149888Y-92056388D02*
X151149888Y-91389898D01*
X151149888Y-91389898D02*
X151149888Y-90993919D01*
X151771900Y-92678400D02*
X151149888Y-92056388D01*
X155646900Y-86915900D02*
X154137903Y-86915900D01*
X154137903Y-86915900D02*
X154126900Y-86904897D01*
X155052900Y-95078400D02*
X155173400Y-94957900D01*
X153456900Y-95078400D02*
X155052900Y-95078400D01*
X153456900Y-94278400D02*
X152949900Y-94278400D01*
X152949900Y-94278400D02*
X152729900Y-94498400D01*
X152729900Y-94498400D02*
X152729900Y-98577400D01*
X151269400Y-100037900D02*
X150093400Y-100037900D01*
X152729900Y-98577400D02*
X151269400Y-100037900D01*
X154425400Y-93478400D02*
X154507900Y-93560900D01*
X153456900Y-93478400D02*
X154425400Y-93478400D01*
X153456900Y-92678400D02*
X152736400Y-92678400D01*
X152736400Y-92678400D02*
X152729900Y-92671900D01*
X153777400Y-91878400D02*
X154444400Y-91211400D01*
X153456900Y-91878400D02*
X153777400Y-91878400D01*
X140556900Y-85615900D02*
X139341400Y-85615900D01*
X139341400Y-85615900D02*
X139285400Y-85559900D01*
X139897879Y-94005400D02*
X140024879Y-93878400D01*
X141381900Y-93878400D02*
X142581900Y-95078400D01*
X139501900Y-94005400D02*
X139897879Y-94005400D01*
X140024879Y-93878400D02*
X141381900Y-93878400D01*
X142581900Y-95078400D02*
X142746900Y-95078400D01*
X140556900Y-86915900D02*
X139516900Y-86915900D01*
X139516900Y-86915900D02*
X139412400Y-87020400D01*
X143435398Y-93478400D02*
X143479898Y-93433900D01*
X142746900Y-93478400D02*
X143435398Y-93478400D01*
X143476400Y-89926441D02*
X143476400Y-86898400D01*
X140579400Y-86893400D02*
X140556900Y-86915900D01*
X143476400Y-86898400D02*
X143481400Y-86893400D01*
X143412920Y-90385900D02*
X143412920Y-89989921D01*
X143412920Y-89989921D02*
X143476400Y-89926441D01*
X141888900Y-86893400D02*
X140579400Y-86893400D01*
X142581900Y-94278400D02*
X141800900Y-93497400D01*
X139613900Y-88215900D02*
X140556900Y-88215900D01*
X139348900Y-92989400D02*
X139348900Y-88480900D01*
X142746900Y-94278400D02*
X142581900Y-94278400D01*
X139348900Y-88480900D02*
X139613900Y-88215900D01*
X139856900Y-93497400D02*
X139348900Y-92989400D01*
X141800900Y-93497400D02*
X139856900Y-93497400D01*
X143444400Y-91878400D02*
X143476400Y-91846400D01*
X142746900Y-91878400D02*
X143444400Y-91878400D01*
X145153406Y-87565900D02*
X145063906Y-87655400D01*
X146456900Y-87565900D02*
X145153406Y-87565900D01*
X142746900Y-92678400D02*
X142581900Y-92678400D01*
X141959888Y-92056388D02*
X141959888Y-91389898D01*
X141959888Y-91389898D02*
X141959888Y-90993919D01*
X142581900Y-92678400D02*
X141959888Y-92056388D01*
X146456900Y-86915900D02*
X144947903Y-86915900D01*
X144947903Y-86915900D02*
X144936900Y-86904897D01*
X145862900Y-95078400D02*
X145983400Y-94957900D01*
X144266900Y-95078400D02*
X145862900Y-95078400D01*
X144266900Y-94278400D02*
X143759900Y-94278400D01*
X143759900Y-94278400D02*
X143539900Y-94498400D01*
X143539900Y-94498400D02*
X143539900Y-98577400D01*
X142079400Y-100037900D02*
X140903400Y-100037900D01*
X143539900Y-98577400D02*
X142079400Y-100037900D01*
X145235400Y-93478400D02*
X145317900Y-93560900D01*
X144266900Y-93478400D02*
X145235400Y-93478400D01*
X144266900Y-92678400D02*
X143546400Y-92678400D01*
X143546400Y-92678400D02*
X143539900Y-92671900D01*
X144587400Y-91878400D02*
X145254400Y-91211400D01*
X144266900Y-91878400D02*
X144587400Y-91878400D01*
X131366900Y-85615900D02*
X130151400Y-85615900D01*
X130151400Y-85615900D02*
X130095400Y-85559900D01*
X130707879Y-94005400D02*
X130834879Y-93878400D01*
X132191900Y-93878400D02*
X133391900Y-95078400D01*
X130311900Y-94005400D02*
X130707879Y-94005400D01*
X130834879Y-93878400D02*
X132191900Y-93878400D01*
X133391900Y-95078400D02*
X133556900Y-95078400D01*
X131366900Y-86915900D02*
X130326900Y-86915900D01*
X130326900Y-86915900D02*
X130222400Y-87020400D01*
X134245398Y-93478400D02*
X134289898Y-93433900D01*
X133556900Y-93478400D02*
X134245398Y-93478400D01*
X134286400Y-89926441D02*
X134286400Y-86898400D01*
X131389400Y-86893400D02*
X131366900Y-86915900D01*
X134286400Y-86898400D02*
X134291400Y-86893400D01*
X134222920Y-90385900D02*
X134222920Y-89989921D01*
X134222920Y-89989921D02*
X134286400Y-89926441D01*
X132698900Y-86893400D02*
X131389400Y-86893400D01*
X133391900Y-94278400D02*
X132610900Y-93497400D01*
X130423900Y-88215900D02*
X131366900Y-88215900D01*
X130158900Y-92989400D02*
X130158900Y-88480900D01*
X133556900Y-94278400D02*
X133391900Y-94278400D01*
X130158900Y-88480900D02*
X130423900Y-88215900D01*
X130666900Y-93497400D02*
X130158900Y-92989400D01*
X132610900Y-93497400D02*
X130666900Y-93497400D01*
X134254400Y-91878400D02*
X134286400Y-91846400D01*
X133556900Y-91878400D02*
X134254400Y-91878400D01*
X135963406Y-87565900D02*
X135873906Y-87655400D01*
X137266900Y-87565900D02*
X135963406Y-87565900D01*
X133556900Y-92678400D02*
X133391900Y-92678400D01*
X132769888Y-92056388D02*
X132769888Y-91389898D01*
X132769888Y-91389898D02*
X132769888Y-90993919D01*
X133391900Y-92678400D02*
X132769888Y-92056388D01*
X137266900Y-86915900D02*
X135757903Y-86915900D01*
X135757903Y-86915900D02*
X135746900Y-86904897D01*
X136672900Y-95078400D02*
X136793400Y-94957900D01*
X135076900Y-95078400D02*
X136672900Y-95078400D01*
X135076900Y-94278400D02*
X134569900Y-94278400D01*
X134569900Y-94278400D02*
X134349900Y-94498400D01*
X134349900Y-94498400D02*
X134349900Y-98577400D01*
X132889400Y-100037900D02*
X131713400Y-100037900D01*
X134349900Y-98577400D02*
X132889400Y-100037900D01*
X136045400Y-93478400D02*
X136127900Y-93560900D01*
X135076900Y-93478400D02*
X136045400Y-93478400D01*
X135076900Y-92678400D02*
X134356400Y-92678400D01*
X134356400Y-92678400D02*
X134349900Y-92671900D01*
X135397400Y-91878400D02*
X136064400Y-91211400D01*
X135076900Y-91878400D02*
X135397400Y-91878400D01*
X122176900Y-85615900D02*
X120961400Y-85615900D01*
X120961400Y-85615900D02*
X120905400Y-85559900D01*
X121517879Y-94005400D02*
X121644879Y-93878400D01*
X123001900Y-93878400D02*
X124201900Y-95078400D01*
X121121900Y-94005400D02*
X121517879Y-94005400D01*
X121644879Y-93878400D02*
X123001900Y-93878400D01*
X124201900Y-95078400D02*
X124366900Y-95078400D01*
X122176900Y-86915900D02*
X121136900Y-86915900D01*
X121136900Y-86915900D02*
X121032400Y-87020400D01*
X125055398Y-93478400D02*
X125099898Y-93433900D01*
X124366900Y-93478400D02*
X125055398Y-93478400D01*
X125096400Y-89926441D02*
X125096400Y-86898400D01*
X122199400Y-86893400D02*
X122176900Y-86915900D01*
X125096400Y-86898400D02*
X125101400Y-86893400D01*
X125032920Y-90385900D02*
X125032920Y-89989921D01*
X125032920Y-89989921D02*
X125096400Y-89926441D01*
X123508900Y-86893400D02*
X122199400Y-86893400D01*
X124201900Y-94278400D02*
X123420900Y-93497400D01*
X121233900Y-88215900D02*
X122176900Y-88215900D01*
X120968900Y-92989400D02*
X120968900Y-88480900D01*
X124366900Y-94278400D02*
X124201900Y-94278400D01*
X120968900Y-88480900D02*
X121233900Y-88215900D01*
X121476900Y-93497400D02*
X120968900Y-92989400D01*
X123420900Y-93497400D02*
X121476900Y-93497400D01*
X125064400Y-91878400D02*
X125096400Y-91846400D01*
X124366900Y-91878400D02*
X125064400Y-91878400D01*
X126773406Y-87565900D02*
X126683906Y-87655400D01*
X128076900Y-87565900D02*
X126773406Y-87565900D01*
X124366900Y-92678400D02*
X124201900Y-92678400D01*
X123579888Y-92056388D02*
X123579888Y-91389898D01*
X123579888Y-91389898D02*
X123579888Y-90993919D01*
X124201900Y-92678400D02*
X123579888Y-92056388D01*
X128076900Y-86915900D02*
X126567903Y-86915900D01*
X126567903Y-86915900D02*
X126556900Y-86904897D01*
X127482900Y-95078400D02*
X127603400Y-94957900D01*
X125886900Y-95078400D02*
X127482900Y-95078400D01*
X125886900Y-94278400D02*
X125379900Y-94278400D01*
X125379900Y-94278400D02*
X125159900Y-94498400D01*
X125159900Y-94498400D02*
X125159900Y-98577400D01*
X123699400Y-100037900D02*
X122523400Y-100037900D01*
X125159900Y-98577400D02*
X123699400Y-100037900D01*
X126855400Y-93478400D02*
X126937900Y-93560900D01*
X125886900Y-93478400D02*
X126855400Y-93478400D01*
X125886900Y-92678400D02*
X125166400Y-92678400D01*
X125166400Y-92678400D02*
X125159900Y-92671900D01*
X126207400Y-91878400D02*
X126874400Y-91211400D01*
X125886900Y-91878400D02*
X126207400Y-91878400D01*
X112986900Y-85615900D02*
X111771400Y-85615900D01*
X111771400Y-85615900D02*
X111715400Y-85559900D01*
X112327879Y-94005400D02*
X112454879Y-93878400D01*
X113811900Y-93878400D02*
X115011900Y-95078400D01*
X111931900Y-94005400D02*
X112327879Y-94005400D01*
X112454879Y-93878400D02*
X113811900Y-93878400D01*
X115011900Y-95078400D02*
X115176900Y-95078400D01*
X112986900Y-86915900D02*
X111946900Y-86915900D01*
X111946900Y-86915900D02*
X111842400Y-87020400D01*
X115865398Y-93478400D02*
X115909898Y-93433900D01*
X115176900Y-93478400D02*
X115865398Y-93478400D01*
X115906400Y-89926441D02*
X115906400Y-86898400D01*
X113009400Y-86893400D02*
X112986900Y-86915900D01*
X115906400Y-86898400D02*
X115911400Y-86893400D01*
X115842920Y-90385900D02*
X115842920Y-89989921D01*
X115842920Y-89989921D02*
X115906400Y-89926441D01*
X114318900Y-86893400D02*
X113009400Y-86893400D01*
X115011900Y-94278400D02*
X114230900Y-93497400D01*
X112043900Y-88215900D02*
X112986900Y-88215900D01*
X111778900Y-92989400D02*
X111778900Y-88480900D01*
X115176900Y-94278400D02*
X115011900Y-94278400D01*
X111778900Y-88480900D02*
X112043900Y-88215900D01*
X112286900Y-93497400D02*
X111778900Y-92989400D01*
X114230900Y-93497400D02*
X112286900Y-93497400D01*
X115874400Y-91878400D02*
X115906400Y-91846400D01*
X115176900Y-91878400D02*
X115874400Y-91878400D01*
X117583406Y-87565900D02*
X117493906Y-87655400D01*
X118886900Y-87565900D02*
X117583406Y-87565900D01*
X115176900Y-92678400D02*
X115011900Y-92678400D01*
X114389888Y-92056388D02*
X114389888Y-91389898D01*
X114389888Y-91389898D02*
X114389888Y-90993919D01*
X115011900Y-92678400D02*
X114389888Y-92056388D01*
X118886900Y-86915900D02*
X117377903Y-86915900D01*
X117377903Y-86915900D02*
X117366900Y-86904897D01*
X118292900Y-95078400D02*
X118413400Y-94957900D01*
X116696900Y-95078400D02*
X118292900Y-95078400D01*
X116696900Y-94278400D02*
X116189900Y-94278400D01*
X116189900Y-94278400D02*
X115969900Y-94498400D01*
X115969900Y-94498400D02*
X115969900Y-98577400D01*
X114509400Y-100037900D02*
X113333400Y-100037900D01*
X115969900Y-98577400D02*
X114509400Y-100037900D01*
X117665400Y-93478400D02*
X117747900Y-93560900D01*
X116696900Y-93478400D02*
X117665400Y-93478400D01*
X116696900Y-92678400D02*
X115976400Y-92678400D01*
X115976400Y-92678400D02*
X115969900Y-92671900D01*
X117017400Y-91878400D02*
X117684400Y-91211400D01*
X116696900Y-91878400D02*
X117017400Y-91878400D01*
X103796900Y-85615900D02*
X102581400Y-85615900D01*
X102581400Y-85615900D02*
X102525400Y-85559900D01*
X103137879Y-94005400D02*
X103264879Y-93878400D01*
X104621900Y-93878400D02*
X105821900Y-95078400D01*
X102741900Y-94005400D02*
X103137879Y-94005400D01*
X103264879Y-93878400D02*
X104621900Y-93878400D01*
X105821900Y-95078400D02*
X105986900Y-95078400D01*
X103796900Y-86915900D02*
X102756900Y-86915900D01*
X102756900Y-86915900D02*
X102652400Y-87020400D01*
X106675398Y-93478400D02*
X106719898Y-93433900D01*
X105986900Y-93478400D02*
X106675398Y-93478400D01*
X106716400Y-89926441D02*
X106716400Y-86898400D01*
X103819400Y-86893400D02*
X103796900Y-86915900D01*
X106716400Y-86898400D02*
X106721400Y-86893400D01*
X106652920Y-90385900D02*
X106652920Y-89989921D01*
X106652920Y-89989921D02*
X106716400Y-89926441D01*
X105128900Y-86893400D02*
X103819400Y-86893400D01*
X105821900Y-94278400D02*
X105040900Y-93497400D01*
X102853900Y-88215900D02*
X103796900Y-88215900D01*
X102588900Y-92989400D02*
X102588900Y-88480900D01*
X105986900Y-94278400D02*
X105821900Y-94278400D01*
X102588900Y-88480900D02*
X102853900Y-88215900D01*
X103096900Y-93497400D02*
X102588900Y-92989400D01*
X105040900Y-93497400D02*
X103096900Y-93497400D01*
X106684400Y-91878400D02*
X106716400Y-91846400D01*
X105986900Y-91878400D02*
X106684400Y-91878400D01*
X108393406Y-87565900D02*
X108303906Y-87655400D01*
X109696900Y-87565900D02*
X108393406Y-87565900D01*
X105986900Y-92678400D02*
X105821900Y-92678400D01*
X105199888Y-92056388D02*
X105199888Y-91389898D01*
X105199888Y-91389898D02*
X105199888Y-90993919D01*
X105821900Y-92678400D02*
X105199888Y-92056388D01*
X109696900Y-86915900D02*
X108187903Y-86915900D01*
X108187903Y-86915900D02*
X108176900Y-86904897D01*
X109102900Y-95078400D02*
X109223400Y-94957900D01*
X107506900Y-95078400D02*
X109102900Y-95078400D01*
X107506900Y-94278400D02*
X106999900Y-94278400D01*
X106999900Y-94278400D02*
X106779900Y-94498400D01*
X106779900Y-94498400D02*
X106779900Y-98577400D01*
X105319400Y-100037900D02*
X104143400Y-100037900D01*
X106779900Y-98577400D02*
X105319400Y-100037900D01*
X108475400Y-93478400D02*
X108557900Y-93560900D01*
X107506900Y-93478400D02*
X108475400Y-93478400D01*
X107506900Y-92678400D02*
X106786400Y-92678400D01*
X106786400Y-92678400D02*
X106779900Y-92671900D01*
X107827400Y-91878400D02*
X108494400Y-91211400D01*
X107506900Y-91878400D02*
X107827400Y-91878400D01*
X94606900Y-85615900D02*
X93391400Y-85615900D01*
X93391400Y-85615900D02*
X93335400Y-85559900D01*
X93947879Y-94005400D02*
X94074879Y-93878400D01*
X95431900Y-93878400D02*
X96631900Y-95078400D01*
X93551900Y-94005400D02*
X93947879Y-94005400D01*
X94074879Y-93878400D02*
X95431900Y-93878400D01*
X96631900Y-95078400D02*
X96796900Y-95078400D01*
X94606900Y-86915900D02*
X93566900Y-86915900D01*
X93566900Y-86915900D02*
X93462400Y-87020400D01*
X97485398Y-93478400D02*
X97529898Y-93433900D01*
X96796900Y-93478400D02*
X97485398Y-93478400D01*
X97526400Y-89926441D02*
X97526400Y-86898400D01*
X94629400Y-86893400D02*
X94606900Y-86915900D01*
X97526400Y-86898400D02*
X97531400Y-86893400D01*
X97462920Y-90385900D02*
X97462920Y-89989921D01*
X97462920Y-89989921D02*
X97526400Y-89926441D01*
X95938900Y-86893400D02*
X94629400Y-86893400D01*
X96631900Y-94278400D02*
X95850900Y-93497400D01*
X93663900Y-88215900D02*
X94606900Y-88215900D01*
X93398900Y-92989400D02*
X93398900Y-88480900D01*
X96796900Y-94278400D02*
X96631900Y-94278400D01*
X93398900Y-88480900D02*
X93663900Y-88215900D01*
X93906900Y-93497400D02*
X93398900Y-92989400D01*
X95850900Y-93497400D02*
X93906900Y-93497400D01*
X97494400Y-91878400D02*
X97526400Y-91846400D01*
X96796900Y-91878400D02*
X97494400Y-91878400D01*
X99203406Y-87565900D02*
X99113906Y-87655400D01*
X100506900Y-87565900D02*
X99203406Y-87565900D01*
X96796900Y-92678400D02*
X96631900Y-92678400D01*
X96009888Y-92056388D02*
X96009888Y-91389898D01*
X96009888Y-91389898D02*
X96009888Y-90993919D01*
X96631900Y-92678400D02*
X96009888Y-92056388D01*
X100506900Y-86915900D02*
X98997903Y-86915900D01*
X98997903Y-86915900D02*
X98986900Y-86904897D01*
X99912900Y-95078400D02*
X100033400Y-94957900D01*
X98316900Y-95078400D02*
X99912900Y-95078400D01*
X98316900Y-94278400D02*
X97809900Y-94278400D01*
X97809900Y-94278400D02*
X97589900Y-94498400D01*
X97589900Y-94498400D02*
X97589900Y-98577400D01*
X96129400Y-100037900D02*
X94953400Y-100037900D01*
X97589900Y-98577400D02*
X96129400Y-100037900D01*
X99285400Y-93478400D02*
X99367900Y-93560900D01*
X98316900Y-93478400D02*
X99285400Y-93478400D01*
X98316900Y-92678400D02*
X97596400Y-92678400D01*
X97596400Y-92678400D02*
X97589900Y-92671900D01*
X98637400Y-91878400D02*
X99304400Y-91211400D01*
X98316900Y-91878400D02*
X98637400Y-91878400D01*
X85416900Y-85615900D02*
X84201400Y-85615900D01*
X84201400Y-85615900D02*
X84145400Y-85559900D01*
X84757879Y-94005400D02*
X84884879Y-93878400D01*
X86241900Y-93878400D02*
X87441900Y-95078400D01*
X84361900Y-94005400D02*
X84757879Y-94005400D01*
X84884879Y-93878400D02*
X86241900Y-93878400D01*
X87441900Y-95078400D02*
X87606900Y-95078400D01*
X85416900Y-86915900D02*
X84376900Y-86915900D01*
X84376900Y-86915900D02*
X84272400Y-87020400D01*
X88295398Y-93478400D02*
X88339898Y-93433900D01*
X87606900Y-93478400D02*
X88295398Y-93478400D01*
X88336400Y-89926441D02*
X88336400Y-86898400D01*
X85439400Y-86893400D02*
X85416900Y-86915900D01*
X88336400Y-86898400D02*
X88341400Y-86893400D01*
X88272920Y-90385900D02*
X88272920Y-89989921D01*
X88272920Y-89989921D02*
X88336400Y-89926441D01*
X86748900Y-86893400D02*
X85439400Y-86893400D01*
X87441900Y-94278400D02*
X86660900Y-93497400D01*
X84473900Y-88215900D02*
X85416900Y-88215900D01*
X84208900Y-92989400D02*
X84208900Y-88480900D01*
X87606900Y-94278400D02*
X87441900Y-94278400D01*
X84208900Y-88480900D02*
X84473900Y-88215900D01*
X84716900Y-93497400D02*
X84208900Y-92989400D01*
X86660900Y-93497400D02*
X84716900Y-93497400D01*
X88304400Y-91878400D02*
X88336400Y-91846400D01*
X87606900Y-91878400D02*
X88304400Y-91878400D01*
X90013406Y-87565900D02*
X89923906Y-87655400D01*
X91316900Y-87565900D02*
X90013406Y-87565900D01*
X87606900Y-92678400D02*
X87441900Y-92678400D01*
X86819888Y-92056388D02*
X86819888Y-91389898D01*
X86819888Y-91389898D02*
X86819888Y-90993919D01*
X87441900Y-92678400D02*
X86819888Y-92056388D01*
X91316900Y-86915900D02*
X89807903Y-86915900D01*
X89807903Y-86915900D02*
X89796900Y-86904897D01*
X90722900Y-95078400D02*
X90843400Y-94957900D01*
X89126900Y-95078400D02*
X90722900Y-95078400D01*
X89126900Y-94278400D02*
X88619900Y-94278400D01*
X88619900Y-94278400D02*
X88399900Y-94498400D01*
X88399900Y-94498400D02*
X88399900Y-98577400D01*
X86939400Y-100037900D02*
X85763400Y-100037900D01*
X88399900Y-98577400D02*
X86939400Y-100037900D01*
X90095400Y-93478400D02*
X90177900Y-93560900D01*
X89126900Y-93478400D02*
X90095400Y-93478400D01*
X89126900Y-92678400D02*
X88406400Y-92678400D01*
X88406400Y-92678400D02*
X88399900Y-92671900D01*
X89447400Y-91878400D02*
X90114400Y-91211400D01*
X89126900Y-91878400D02*
X89447400Y-91878400D01*
X76226900Y-85615900D02*
X75011400Y-85615900D01*
X75011400Y-85615900D02*
X74955400Y-85559900D01*
X75567879Y-94005400D02*
X75694879Y-93878400D01*
X75171900Y-94005400D02*
X75567879Y-94005400D01*
X78251900Y-95078400D02*
X78416900Y-95078400D01*
X77051900Y-93878400D02*
X78251900Y-95078400D01*
X75694879Y-93878400D02*
X77051900Y-93878400D01*
X78416900Y-93478400D02*
X79105398Y-93478400D01*
X79105398Y-93478400D02*
X79149898Y-93433900D01*
X79082920Y-89989921D02*
X79146400Y-89926441D01*
X79082920Y-90385900D02*
X79082920Y-89989921D01*
X79146400Y-89926441D02*
X79146400Y-86898400D01*
X79146400Y-86898400D02*
X79151400Y-86893400D01*
X76249400Y-86893400D02*
X76226900Y-86915900D01*
X77558900Y-86893400D02*
X76249400Y-86893400D01*
X76226900Y-86915900D02*
X75186900Y-86915900D01*
X75186900Y-86915900D02*
X75082400Y-87020400D01*
X75018900Y-88480900D02*
X75283900Y-88215900D01*
X75018900Y-92989400D02*
X75018900Y-88480900D01*
X75526900Y-93497400D02*
X75018900Y-92989400D01*
X77470900Y-93497400D02*
X75526900Y-93497400D01*
X75283900Y-88215900D02*
X76226900Y-88215900D01*
X78416900Y-94278400D02*
X78251900Y-94278400D01*
X78251900Y-94278400D02*
X77470900Y-93497400D01*
X78416900Y-91878400D02*
X79114400Y-91878400D01*
X79114400Y-91878400D02*
X79146400Y-91846400D01*
X82126900Y-87565900D02*
X80823406Y-87565900D01*
X80823406Y-87565900D02*
X80733906Y-87655400D01*
X78416900Y-92678400D02*
X78251900Y-92678400D01*
X77629888Y-91389898D02*
X77629888Y-90993919D01*
X77629888Y-92056388D02*
X77629888Y-91389898D01*
X78251900Y-92678400D02*
X77629888Y-92056388D01*
X80617903Y-86915900D02*
X80606900Y-86904897D01*
X82126900Y-86915900D02*
X80617903Y-86915900D01*
D33*
X79502000Y-81026000D02*
X79502000Y-85471000D01*
X80296900Y-86265900D02*
X82126900Y-86265900D01*
X79502000Y-85471000D02*
X80296900Y-86265900D01*
D32*
X81532900Y-95078400D02*
X81653400Y-94957900D01*
X79936900Y-95078400D02*
X81532900Y-95078400D01*
X79429900Y-94278400D02*
X79209900Y-94498400D01*
X79936900Y-94278400D02*
X79429900Y-94278400D01*
X79209900Y-94498400D02*
X79209900Y-98577400D01*
X77749400Y-100037900D02*
X76573400Y-100037900D01*
X79209900Y-98577400D02*
X77749400Y-100037900D01*
X79936900Y-93478400D02*
X80905400Y-93478400D01*
X80905400Y-93478400D02*
X80987900Y-93560900D01*
X79936900Y-92678400D02*
X79216400Y-92678400D01*
X79216400Y-92678400D02*
X79209900Y-92671900D01*
X79936900Y-91878400D02*
X80257400Y-91878400D01*
X80257400Y-91878400D02*
X80924400Y-91211400D01*
X165983900Y-97878900D02*
X165983900Y-91498400D01*
X165094900Y-98767900D02*
X165983900Y-97878900D01*
X162646900Y-98288400D02*
X163126400Y-98767900D01*
X163126400Y-98767900D02*
X165094900Y-98767900D01*
X165983900Y-91498400D02*
X164363400Y-89877900D01*
X162646900Y-96678400D02*
X162646900Y-98288400D01*
X163439900Y-96164400D02*
X164967900Y-96164400D01*
X163153900Y-95878400D02*
X163439900Y-96164400D01*
X162646900Y-95878400D02*
X163153900Y-95878400D01*
X164967900Y-96164400D02*
X165602900Y-95529400D01*
X165602900Y-93657400D02*
X164363400Y-92417900D01*
X165602900Y-95529400D02*
X165602900Y-93657400D01*
X156793900Y-97878900D02*
X156793900Y-91498400D01*
X155904900Y-98767900D02*
X156793900Y-97878900D01*
X153456900Y-98288400D02*
X153936400Y-98767900D01*
X153936400Y-98767900D02*
X155904900Y-98767900D01*
X156793900Y-91498400D02*
X155173400Y-89877900D01*
X153456900Y-96678400D02*
X153456900Y-98288400D01*
X154249900Y-96164400D02*
X155777900Y-96164400D01*
X153963900Y-95878400D02*
X154249900Y-96164400D01*
X153456900Y-95878400D02*
X153963900Y-95878400D01*
X155777900Y-96164400D02*
X156412900Y-95529400D01*
X156412900Y-93657400D02*
X155173400Y-92417900D01*
X156412900Y-95529400D02*
X156412900Y-93657400D01*
X147603900Y-97878900D02*
X147603900Y-91498400D01*
X146714900Y-98767900D02*
X147603900Y-97878900D01*
X144266900Y-98288400D02*
X144746400Y-98767900D01*
X144746400Y-98767900D02*
X146714900Y-98767900D01*
X147603900Y-91498400D02*
X145983400Y-89877900D01*
X144266900Y-96678400D02*
X144266900Y-98288400D01*
X145059900Y-96164400D02*
X146587900Y-96164400D01*
X144773900Y-95878400D02*
X145059900Y-96164400D01*
X144266900Y-95878400D02*
X144773900Y-95878400D01*
X146587900Y-96164400D02*
X147222900Y-95529400D01*
X147222900Y-93657400D02*
X145983400Y-92417900D01*
X147222900Y-95529400D02*
X147222900Y-93657400D01*
X138413900Y-97878900D02*
X138413900Y-91498400D01*
X137524900Y-98767900D02*
X138413900Y-97878900D01*
X135076900Y-98288400D02*
X135556400Y-98767900D01*
X135556400Y-98767900D02*
X137524900Y-98767900D01*
X138413900Y-91498400D02*
X136793400Y-89877900D01*
X135076900Y-96678400D02*
X135076900Y-98288400D01*
X135869900Y-96164400D02*
X137397900Y-96164400D01*
X135583900Y-95878400D02*
X135869900Y-96164400D01*
X135076900Y-95878400D02*
X135583900Y-95878400D01*
X137397900Y-96164400D02*
X138032900Y-95529400D01*
X138032900Y-93657400D02*
X136793400Y-92417900D01*
X138032900Y-95529400D02*
X138032900Y-93657400D01*
X129223900Y-97878900D02*
X129223900Y-91498400D01*
X128334900Y-98767900D02*
X129223900Y-97878900D01*
X125886900Y-98288400D02*
X126366400Y-98767900D01*
X126366400Y-98767900D02*
X128334900Y-98767900D01*
X129223900Y-91498400D02*
X127603400Y-89877900D01*
X125886900Y-96678400D02*
X125886900Y-98288400D01*
X126679900Y-96164400D02*
X128207900Y-96164400D01*
X126393900Y-95878400D02*
X126679900Y-96164400D01*
X125886900Y-95878400D02*
X126393900Y-95878400D01*
X128207900Y-96164400D02*
X128842900Y-95529400D01*
X128842900Y-93657400D02*
X127603400Y-92417900D01*
X128842900Y-95529400D02*
X128842900Y-93657400D01*
X120033900Y-97878900D02*
X120033900Y-91498400D01*
X119144900Y-98767900D02*
X120033900Y-97878900D01*
X116696900Y-98288400D02*
X117176400Y-98767900D01*
X117176400Y-98767900D02*
X119144900Y-98767900D01*
X120033900Y-91498400D02*
X118413400Y-89877900D01*
X116696900Y-96678400D02*
X116696900Y-98288400D01*
X117489900Y-96164400D02*
X119017900Y-96164400D01*
X117203900Y-95878400D02*
X117489900Y-96164400D01*
X116696900Y-95878400D02*
X117203900Y-95878400D01*
X119017900Y-96164400D02*
X119652900Y-95529400D01*
X119652900Y-93657400D02*
X118413400Y-92417900D01*
X119652900Y-95529400D02*
X119652900Y-93657400D01*
X110843900Y-97878900D02*
X110843900Y-91498400D01*
X109954900Y-98767900D02*
X110843900Y-97878900D01*
X107506900Y-98288400D02*
X107986400Y-98767900D01*
X107986400Y-98767900D02*
X109954900Y-98767900D01*
X110843900Y-91498400D02*
X109223400Y-89877900D01*
X107506900Y-96678400D02*
X107506900Y-98288400D01*
X108299900Y-96164400D02*
X109827900Y-96164400D01*
X108013900Y-95878400D02*
X108299900Y-96164400D01*
X107506900Y-95878400D02*
X108013900Y-95878400D01*
X109827900Y-96164400D02*
X110462900Y-95529400D01*
X110462900Y-93657400D02*
X109223400Y-92417900D01*
X110462900Y-95529400D02*
X110462900Y-93657400D01*
X101653900Y-97878900D02*
X101653900Y-91498400D01*
X100764900Y-98767900D02*
X101653900Y-97878900D01*
X98316900Y-98288400D02*
X98796400Y-98767900D01*
X98796400Y-98767900D02*
X100764900Y-98767900D01*
X101653900Y-91498400D02*
X100033400Y-89877900D01*
X98316900Y-96678400D02*
X98316900Y-98288400D01*
X99109900Y-96164400D02*
X100637900Y-96164400D01*
X98823900Y-95878400D02*
X99109900Y-96164400D01*
X98316900Y-95878400D02*
X98823900Y-95878400D01*
X100637900Y-96164400D02*
X101272900Y-95529400D01*
X101272900Y-93657400D02*
X100033400Y-92417900D01*
X101272900Y-95529400D02*
X101272900Y-93657400D01*
X92463900Y-97878900D02*
X92463900Y-91498400D01*
X91574900Y-98767900D02*
X92463900Y-97878900D01*
X89126900Y-98288400D02*
X89606400Y-98767900D01*
X89606400Y-98767900D02*
X91574900Y-98767900D01*
X92463900Y-91498400D02*
X90843400Y-89877900D01*
X89126900Y-96678400D02*
X89126900Y-98288400D01*
X89919900Y-96164400D02*
X91447900Y-96164400D01*
X89633900Y-95878400D02*
X89919900Y-96164400D01*
X89126900Y-95878400D02*
X89633900Y-95878400D01*
X91447900Y-96164400D02*
X92082900Y-95529400D01*
X92082900Y-93657400D02*
X90843400Y-92417900D01*
X92082900Y-95529400D02*
X92082900Y-93657400D01*
X79936900Y-96678400D02*
X79936900Y-98288400D01*
X79936900Y-98288400D02*
X80416400Y-98767900D01*
X80416400Y-98767900D02*
X82384900Y-98767900D01*
X82384900Y-98767900D02*
X83273900Y-97878900D01*
X83273900Y-91498400D02*
X81653400Y-89877900D01*
X83273900Y-97878900D02*
X83273900Y-91498400D01*
X80443900Y-95878400D02*
X80729900Y-96164400D01*
X79936900Y-95878400D02*
X80443900Y-95878400D01*
X80729900Y-96164400D02*
X82257900Y-96164400D01*
X82257900Y-96164400D02*
X82892900Y-95529400D01*
X82892900Y-93657400D02*
X81653400Y-92417900D01*
X82892900Y-95529400D02*
X82892900Y-93657400D01*
D33*
X110959900Y-73113900D02*
X110429000Y-73113900D01*
X111353600Y-72720200D02*
X110959900Y-73113900D01*
D31*
X109566100Y-77409000D02*
X109385100Y-77228000D01*
X111079100Y-77409000D02*
X109566100Y-77409000D01*
X109042900Y-76885800D02*
X109385100Y-77228000D01*
X108254800Y-76885800D02*
X109042900Y-76885800D01*
X128368400Y-76901000D02*
X128231900Y-77037500D01*
X129925900Y-76901000D02*
X128368400Y-76901000D01*
X128231900Y-77037500D02*
X127507300Y-77037500D01*
X127507300Y-77037500D02*
X127482600Y-77012800D01*
X148736800Y-77068500D02*
X148513800Y-77291500D01*
X150221800Y-77068500D02*
X148736800Y-77068500D01*
X148260500Y-77038200D02*
X148513800Y-77291500D01*
X147497800Y-77038200D02*
X148260500Y-77038200D01*
D33*
G36*
X105864049Y-62495967D02*
G01*
X105904443Y-62522957D01*
X105931433Y-62563351D01*
X105943400Y-62623510D01*
X105943400Y-69360180D01*
X105507455Y-68924235D01*
X105491548Y-68904852D01*
X105414195Y-68841371D01*
X105325943Y-68794199D01*
X105230185Y-68765151D01*
X105155547Y-68757800D01*
X105155544Y-68757800D01*
X105130600Y-68755343D01*
X105105656Y-68757800D01*
X98242195Y-68757800D01*
X98236763Y-68752368D01*
X98128501Y-68680030D01*
X98008207Y-68630202D01*
X97880503Y-68604800D01*
X97750297Y-68604800D01*
X97622593Y-68630202D01*
X97502299Y-68680030D01*
X97394037Y-68752368D01*
X97301968Y-68844437D01*
X97229630Y-68952699D01*
X97179802Y-69072993D01*
X97154400Y-69200697D01*
X97154400Y-69330903D01*
X97179802Y-69458607D01*
X97229630Y-69578901D01*
X97301968Y-69687163D01*
X97363205Y-69748400D01*
X97269110Y-69748400D01*
X97208951Y-69736433D01*
X97168557Y-69709443D01*
X97141567Y-69669049D01*
X97129600Y-69608890D01*
X97129600Y-66406097D01*
X103072600Y-66406097D01*
X103072600Y-66536303D01*
X103098002Y-66664007D01*
X103147830Y-66784301D01*
X103220168Y-66892563D01*
X103312237Y-66984632D01*
X103420499Y-67056970D01*
X103540793Y-67106798D01*
X103668497Y-67132200D01*
X103798703Y-67132200D01*
X103926407Y-67106798D01*
X104046701Y-67056970D01*
X104154963Y-66984632D01*
X104247032Y-66892563D01*
X104319370Y-66784301D01*
X104369198Y-66664007D01*
X104394600Y-66536303D01*
X104394600Y-66406097D01*
X104369198Y-66278393D01*
X104319370Y-66158099D01*
X104247032Y-66049837D01*
X104154963Y-65957768D01*
X104046701Y-65885430D01*
X103926407Y-65835602D01*
X103798703Y-65810200D01*
X103668497Y-65810200D01*
X103540793Y-65835602D01*
X103420499Y-65885430D01*
X103312237Y-65957768D01*
X103220168Y-66049837D01*
X103147830Y-66158099D01*
X103098002Y-66278393D01*
X103072600Y-66406097D01*
X97129600Y-66406097D01*
X97129600Y-62623510D01*
X97141567Y-62563351D01*
X97168557Y-62522957D01*
X97208951Y-62495967D01*
X97269110Y-62484000D01*
X105803890Y-62484000D01*
X105864049Y-62495967D01*
X105864049Y-62495967D01*
G37*
X105864049Y-62495967D02*
X105904443Y-62522957D01*
X105931433Y-62563351D01*
X105943400Y-62623510D01*
X105943400Y-69360180D01*
X105507455Y-68924235D01*
X105491548Y-68904852D01*
X105414195Y-68841371D01*
X105325943Y-68794199D01*
X105230185Y-68765151D01*
X105155547Y-68757800D01*
X105155544Y-68757800D01*
X105130600Y-68755343D01*
X105105656Y-68757800D01*
X98242195Y-68757800D01*
X98236763Y-68752368D01*
X98128501Y-68680030D01*
X98008207Y-68630202D01*
X97880503Y-68604800D01*
X97750297Y-68604800D01*
X97622593Y-68630202D01*
X97502299Y-68680030D01*
X97394037Y-68752368D01*
X97301968Y-68844437D01*
X97229630Y-68952699D01*
X97179802Y-69072993D01*
X97154400Y-69200697D01*
X97154400Y-69330903D01*
X97179802Y-69458607D01*
X97229630Y-69578901D01*
X97301968Y-69687163D01*
X97363205Y-69748400D01*
X97269110Y-69748400D01*
X97208951Y-69736433D01*
X97168557Y-69709443D01*
X97141567Y-69669049D01*
X97129600Y-69608890D01*
X97129600Y-66406097D01*
X103072600Y-66406097D01*
X103072600Y-66536303D01*
X103098002Y-66664007D01*
X103147830Y-66784301D01*
X103220168Y-66892563D01*
X103312237Y-66984632D01*
X103420499Y-67056970D01*
X103540793Y-67106798D01*
X103668497Y-67132200D01*
X103798703Y-67132200D01*
X103926407Y-67106798D01*
X104046701Y-67056970D01*
X104154963Y-66984632D01*
X104247032Y-66892563D01*
X104319370Y-66784301D01*
X104369198Y-66664007D01*
X104394600Y-66536303D01*
X104394600Y-66406097D01*
X104369198Y-66278393D01*
X104319370Y-66158099D01*
X104247032Y-66049837D01*
X104154963Y-65957768D01*
X104046701Y-65885430D01*
X103926407Y-65835602D01*
X103798703Y-65810200D01*
X103668497Y-65810200D01*
X103540793Y-65835602D01*
X103420499Y-65885430D01*
X103312237Y-65957768D01*
X103220168Y-66049837D01*
X103147830Y-66158099D01*
X103098002Y-66278393D01*
X103072600Y-66406097D01*
X97129600Y-66406097D01*
X97129600Y-62623510D01*
X97141567Y-62563351D01*
X97168557Y-62522957D01*
X97208951Y-62495967D01*
X97269110Y-62484000D01*
X105803890Y-62484000D01*
X105864049Y-62495967D01*
G36*
X127581049Y-66610767D02*
G01*
X127621443Y-66637757D01*
X127648433Y-66678151D01*
X127660400Y-66738310D01*
X127660400Y-69761290D01*
X127648433Y-69821449D01*
X127621443Y-69861843D01*
X127581049Y-69888833D01*
X127520890Y-69900800D01*
X120764110Y-69900800D01*
X120703951Y-69888833D01*
X120663557Y-69861843D01*
X120636567Y-69821449D01*
X120624600Y-69761290D01*
X120624600Y-66738310D01*
X120636567Y-66678151D01*
X120663557Y-66637757D01*
X120703951Y-66610767D01*
X120764110Y-66598800D01*
X127520890Y-66598800D01*
X127581049Y-66610767D01*
X127581049Y-66610767D01*
G37*
X127581049Y-66610767D02*
X127621443Y-66637757D01*
X127648433Y-66678151D01*
X127660400Y-66738310D01*
X127660400Y-69761290D01*
X127648433Y-69821449D01*
X127621443Y-69861843D01*
X127581049Y-69888833D01*
X127520890Y-69900800D01*
X120764110Y-69900800D01*
X120703951Y-69888833D01*
X120663557Y-69861843D01*
X120636567Y-69821449D01*
X120624600Y-69761290D01*
X120624600Y-66738310D01*
X120636567Y-66678151D01*
X120663557Y-66637757D01*
X120703951Y-66610767D01*
X120764110Y-66598800D01*
X127520890Y-66598800D01*
X127581049Y-66610767D01*
M02*
