G04 #@! TF.GenerationSoftware,KiCad,Pcbnew,(5.1.4)-1*
G04 #@! TF.CreationDate,2019-12-15T14:44:30-06:00*
G04 #@! TF.ProjectId,Incrementor,496e6372-656d-4656-9e74-6f722e6b6963,rev?*
G04 #@! TF.SameCoordinates,Original*
G04 #@! TF.FileFunction,Copper,L1,Top*
G04 #@! TF.FilePolarity,Positive*
%FSLAX46Y46*%
G04 Gerber Fmt 4.6, Leading zero omitted, Abs format (unit mm)*
G04 Created by KiCad (PCBNEW (5.1.4)-1) date 2019-12-15 14:44:30*
%MOMM*%
%LPD*%
G04 APERTURE LIST*
%ADD10C,0.150000*%
%ADD11R,1.300000X1.100000*%
%ADD12R,2.050000X1.050000*%
%ADD13R,0.850000X0.300000*%
%ADD14R,0.300000X0.850000*%
%ADD15R,0.200000X0.570000*%
%ADD16R,0.200000X0.520000*%
%ADD17O,1.700000X1.700000*%
%ADD18R,1.700000X1.700000*%
%ADD19R,0.750000X0.800000*%
%ADD20R,0.500000X0.900000*%
%ADD21R,10.000000X10.000000*%
%ADD22R,0.400000X0.650000*%
%ADD23R,1.060000X0.650000*%
%ADD24R,0.900000X0.500000*%
%ADD25R,0.800000X0.750000*%
%ADD26R,0.900000X0.900000*%
%ADD27O,0.300000X0.750000*%
%ADD28O,0.750000X0.300000*%
%ADD29R,1.825000X1.325000*%
%ADD30R,0.700000X0.250000*%
%ADD31R,0.250000X0.700000*%
%ADD32C,1.500000*%
%ADD33R,2.790000X1.903000*%
%ADD34R,3.500000X3.500000*%
%ADD35R,1.000000X1.600000*%
%ADD36R,1.600000X1.000000*%
%ADD37R,2.700000X2.550000*%
%ADD38C,1.600000*%
%ADD39R,1.600000X1.600000*%
%ADD40R,0.650000X0.400000*%
%ADD41R,0.800000X0.800000*%
%ADD42C,0.560000*%
%ADD43C,0.635000*%
%ADD44C,0.127000*%
%ADD45C,0.254000*%
G04 APERTURE END LIST*
D10*
X82988114Y-108046780D02*
X82416685Y-108046780D01*
X82702400Y-108046780D02*
X82702400Y-107046780D01*
X82607161Y-107189638D01*
X82511923Y-107284876D01*
X82416685Y-107332495D01*
D11*
X154615500Y-67820500D03*
X156915500Y-67820500D03*
X156915500Y-69720500D03*
X154615500Y-69720500D03*
D12*
X161381600Y-70768600D03*
D13*
X163081600Y-70518600D03*
X163081600Y-71018600D03*
D14*
X162631600Y-71968600D03*
X162131600Y-71968600D03*
X161631600Y-71968600D03*
X161131600Y-71968600D03*
X160631600Y-71968600D03*
X160131600Y-71968600D03*
D13*
X159681600Y-71018600D03*
X159681600Y-70518600D03*
D14*
X160131600Y-69568600D03*
X160631600Y-69568600D03*
X161131600Y-69568600D03*
X161631600Y-69568600D03*
X162131600Y-69568600D03*
X162631600Y-69568600D03*
D12*
X145941600Y-65568700D03*
D13*
X144241600Y-65818700D03*
X144241600Y-65318700D03*
D14*
X144691600Y-64368700D03*
X145191600Y-64368700D03*
X145691600Y-64368700D03*
X146191600Y-64368700D03*
X146691600Y-64368700D03*
X147191600Y-64368700D03*
D13*
X147641600Y-65318700D03*
X147641600Y-65818700D03*
D14*
X147191600Y-66768700D03*
X146691600Y-66768700D03*
X146191600Y-66768700D03*
X145691600Y-66768700D03*
X145191600Y-66768700D03*
X144691600Y-66768700D03*
D15*
X131541000Y-67363900D03*
X131191000Y-67363900D03*
X130841000Y-67363900D03*
D16*
X130841000Y-68093900D03*
X131191000Y-68093900D03*
X131541000Y-68093900D03*
D15*
X134487400Y-67363900D03*
X134137400Y-67363900D03*
X133787400Y-67363900D03*
D16*
X133787400Y-68093900D03*
X134137400Y-68093900D03*
X134487400Y-68093900D03*
D15*
X137459200Y-67363900D03*
X137109200Y-67363900D03*
X136759200Y-67363900D03*
D16*
X136759200Y-68093900D03*
X137109200Y-68093900D03*
X137459200Y-68093900D03*
D15*
X131541000Y-64257500D03*
X131191000Y-64257500D03*
X130841000Y-64257500D03*
D16*
X130841000Y-64987500D03*
X131191000Y-64987500D03*
X131541000Y-64987500D03*
D15*
X134487400Y-64265100D03*
X134137400Y-64265100D03*
X133787400Y-64265100D03*
D16*
X133787400Y-64995100D03*
X134137400Y-64995100D03*
X134487400Y-64995100D03*
D15*
X137459200Y-64265100D03*
X137109200Y-64265100D03*
X136759200Y-64265100D03*
D16*
X136759200Y-64995100D03*
X137109200Y-64995100D03*
X137459200Y-64995100D03*
D17*
X76581900Y-79349600D03*
D18*
X76581900Y-76809600D03*
D17*
X164744400Y-79349600D03*
D18*
X164744400Y-76809600D03*
D19*
X129717800Y-66966400D03*
X129717800Y-68466400D03*
X132664200Y-66966400D03*
X132664200Y-68466400D03*
X135636000Y-66966400D03*
X135636000Y-68466400D03*
X129717800Y-63860000D03*
X129717800Y-65360000D03*
X132664200Y-63867600D03*
X132664200Y-65367600D03*
D20*
X129883600Y-70180200D03*
X128383600Y-70180200D03*
D21*
X98755200Y-75793600D03*
D22*
X146758900Y-71719400D03*
X148058900Y-71719400D03*
X147408900Y-73619400D03*
X148058900Y-73619400D03*
X146758900Y-73619400D03*
X126743700Y-71694000D03*
X128043700Y-71694000D03*
X127393700Y-73594000D03*
X128043700Y-73594000D03*
X126743700Y-73594000D03*
D23*
X148508900Y-78003400D03*
X148508900Y-77053400D03*
X148508900Y-78953400D03*
X146308900Y-78953400D03*
X146308900Y-78003400D03*
X146308900Y-77053400D03*
X128557200Y-77851000D03*
X128557200Y-76901000D03*
X128557200Y-78801000D03*
X126357200Y-78801000D03*
X126357200Y-77851000D03*
X126357200Y-76901000D03*
D21*
X138074400Y-75793600D03*
X118135400Y-75793600D03*
D20*
X146658900Y-75272900D03*
X148158900Y-75272900D03*
X126643700Y-75120500D03*
X128143700Y-75120500D03*
D24*
X144487900Y-77800900D03*
X144487900Y-76300900D03*
X124599700Y-77839000D03*
X124599700Y-76339000D03*
X144487900Y-78967900D03*
X144487900Y-80467900D03*
X124599700Y-78942500D03*
X124599700Y-80442500D03*
D19*
X149631400Y-71919400D03*
X149631400Y-73419400D03*
X129616200Y-71894000D03*
X129616200Y-73394000D03*
D25*
X148158900Y-80606900D03*
X146658900Y-80606900D03*
X128143700Y-80454500D03*
X126643700Y-80454500D03*
D24*
X110540800Y-73406700D03*
X110540800Y-71906700D03*
D22*
X107604800Y-71706700D03*
X108904800Y-71706700D03*
X108254800Y-73606700D03*
X108904800Y-73606700D03*
X107604800Y-73606700D03*
D23*
X109418300Y-77863700D03*
X109418300Y-76913700D03*
X109418300Y-78813700D03*
X107218300Y-78813700D03*
X107218300Y-77863700D03*
X107218300Y-76913700D03*
D26*
X120058600Y-64927900D03*
X120058600Y-64027900D03*
X119158600Y-64927900D03*
X119158600Y-64027900D03*
D27*
X120358600Y-65952900D03*
X119858600Y-65952900D03*
X119358600Y-65952900D03*
X118858600Y-65952900D03*
D28*
X118133600Y-65227900D03*
X118133600Y-64727900D03*
X118133600Y-64227900D03*
X118133600Y-63727900D03*
D27*
X118858600Y-63002900D03*
X119358600Y-63002900D03*
X119858600Y-63002900D03*
X120358600Y-63002900D03*
D28*
X121083600Y-63727900D03*
X121083600Y-64227900D03*
X121083600Y-64727900D03*
X121083600Y-65227900D03*
D29*
X105154100Y-63028000D03*
X103329100Y-63028000D03*
X105154100Y-64353000D03*
X103329100Y-64353000D03*
D30*
X106641600Y-62690500D03*
X106641600Y-63190500D03*
X106641600Y-63690500D03*
X106641600Y-64190500D03*
X106641600Y-64690500D03*
D31*
X105741600Y-65590500D03*
X105241600Y-65590500D03*
X104741600Y-65590500D03*
X104241600Y-65590500D03*
X103741600Y-65590500D03*
X103241600Y-65590500D03*
X102741600Y-65590500D03*
D30*
X101841600Y-64690500D03*
X101841600Y-64190500D03*
X101841600Y-63690500D03*
X101841600Y-63190500D03*
X101841600Y-62690500D03*
D31*
X102741600Y-61790500D03*
X103241600Y-61790500D03*
X103741600Y-61790500D03*
X104241600Y-61790500D03*
X104741600Y-61790500D03*
X105241600Y-61790500D03*
X105741600Y-61790500D03*
D32*
X127812800Y-60934600D03*
X114274600Y-61925200D03*
X82029300Y-67856100D03*
D18*
X157607000Y-60579000D03*
D20*
X107504800Y-75133200D03*
X109004800Y-75133200D03*
D24*
X105460800Y-77851700D03*
X105460800Y-76351700D03*
X105460800Y-78955200D03*
X105460800Y-80455200D03*
X120561100Y-60171900D03*
X120561100Y-61671900D03*
X122148600Y-61671900D03*
X122148600Y-60171900D03*
X113919000Y-69444300D03*
X113919000Y-67944300D03*
X113919000Y-66840800D03*
X113919000Y-65340800D03*
X123736100Y-61671900D03*
X123736100Y-60171900D03*
X102019100Y-69139500D03*
X102019100Y-67639500D03*
X106781600Y-67703000D03*
X106781600Y-69203000D03*
X103606600Y-69139500D03*
X103606600Y-67639500D03*
X100431600Y-67639500D03*
X100431600Y-69139500D03*
D20*
X97332100Y-66230500D03*
X98832100Y-66230500D03*
D24*
X100241100Y-66155000D03*
X100241100Y-64655000D03*
D20*
X98832100Y-64579500D03*
X97332100Y-64579500D03*
D33*
X124815600Y-68644300D03*
X124815600Y-63791300D03*
D34*
X83565000Y-64360800D03*
X88265000Y-61360800D03*
X88265000Y-67360800D03*
D25*
X109004800Y-80467200D03*
X107504800Y-80467200D03*
D35*
X118045100Y-69176900D03*
X121045100Y-69176900D03*
D19*
X116433600Y-63449900D03*
X116433600Y-61949900D03*
X118973600Y-61544900D03*
X118973600Y-60044900D03*
D36*
X115989100Y-68073400D03*
X115989100Y-65073400D03*
D37*
X110274100Y-68033900D03*
X110274100Y-61683900D03*
D19*
X105194100Y-67703000D03*
X105194100Y-69203000D03*
X100368100Y-62662500D03*
X100368100Y-61162500D03*
X98907600Y-62662500D03*
X98907600Y-61162500D03*
X97447100Y-62662500D03*
X97447100Y-61162500D03*
D38*
X81653400Y-89877900D03*
X81653400Y-92417900D03*
X81653400Y-94957900D03*
X81653400Y-97497900D03*
X81653400Y-100037900D03*
X76573400Y-100037900D03*
X76573400Y-97497900D03*
X76573400Y-94957900D03*
X76573400Y-92417900D03*
D39*
X76573400Y-89877900D03*
D38*
X90843400Y-89877900D03*
X90843400Y-92417900D03*
X90843400Y-94957900D03*
X90843400Y-97497900D03*
X90843400Y-100037900D03*
X85763400Y-100037900D03*
X85763400Y-97497900D03*
X85763400Y-94957900D03*
X85763400Y-92417900D03*
D39*
X85763400Y-89877900D03*
D38*
X100033400Y-89877900D03*
X100033400Y-92417900D03*
X100033400Y-94957900D03*
X100033400Y-97497900D03*
X100033400Y-100037900D03*
X94953400Y-100037900D03*
X94953400Y-97497900D03*
X94953400Y-94957900D03*
X94953400Y-92417900D03*
D39*
X94953400Y-89877900D03*
D38*
X109223400Y-89877900D03*
X109223400Y-92417900D03*
X109223400Y-94957900D03*
X109223400Y-97497900D03*
X109223400Y-100037900D03*
X104143400Y-100037900D03*
X104143400Y-97497900D03*
X104143400Y-94957900D03*
X104143400Y-92417900D03*
D39*
X104143400Y-89877900D03*
D38*
X118413400Y-89877900D03*
X118413400Y-92417900D03*
X118413400Y-94957900D03*
X118413400Y-97497900D03*
X118413400Y-100037900D03*
X113333400Y-100037900D03*
X113333400Y-97497900D03*
X113333400Y-94957900D03*
X113333400Y-92417900D03*
D39*
X113333400Y-89877900D03*
D38*
X127603400Y-89877900D03*
X127603400Y-92417900D03*
X127603400Y-94957900D03*
X127603400Y-97497900D03*
X127603400Y-100037900D03*
X122523400Y-100037900D03*
X122523400Y-97497900D03*
X122523400Y-94957900D03*
X122523400Y-92417900D03*
D39*
X122523400Y-89877900D03*
D38*
X136793400Y-89877900D03*
X136793400Y-92417900D03*
X136793400Y-94957900D03*
X136793400Y-97497900D03*
X136793400Y-100037900D03*
X131713400Y-100037900D03*
X131713400Y-97497900D03*
X131713400Y-94957900D03*
X131713400Y-92417900D03*
D39*
X131713400Y-89877900D03*
D38*
X145983400Y-89877900D03*
X145983400Y-92417900D03*
X145983400Y-94957900D03*
X145983400Y-97497900D03*
X145983400Y-100037900D03*
X140903400Y-100037900D03*
X140903400Y-97497900D03*
X140903400Y-94957900D03*
X140903400Y-92417900D03*
D39*
X140903400Y-89877900D03*
D38*
X155173400Y-89877900D03*
X155173400Y-92417900D03*
X155173400Y-94957900D03*
X155173400Y-97497900D03*
X155173400Y-100037900D03*
X150093400Y-100037900D03*
X150093400Y-97497900D03*
X150093400Y-94957900D03*
X150093400Y-92417900D03*
D39*
X150093400Y-89877900D03*
D22*
X78526400Y-70119200D03*
X77226400Y-70119200D03*
X77876400Y-70119200D03*
X77226400Y-72019200D03*
X78526400Y-72019200D03*
D39*
X159283400Y-89877900D03*
D38*
X159283400Y-92417900D03*
X159283400Y-94957900D03*
X159283400Y-97497900D03*
X159283400Y-100037900D03*
X164363400Y-100037900D03*
X164363400Y-97497900D03*
X164363400Y-94957900D03*
X164363400Y-92417900D03*
X164363400Y-89877900D03*
D40*
X160360400Y-80050400D03*
X160360400Y-78750400D03*
X160360400Y-79400400D03*
X158460400Y-78750400D03*
X158460400Y-80050400D03*
X81968300Y-76934300D03*
X81968300Y-78234300D03*
X81968300Y-77584300D03*
X83868300Y-78234300D03*
X83868300Y-76934300D03*
X146179500Y-105280700D03*
X146179500Y-106580700D03*
X146179500Y-105930700D03*
X148079500Y-106580700D03*
X148079500Y-105280700D03*
X109362200Y-105255300D03*
X109362200Y-106555300D03*
X109362200Y-105905300D03*
X111262200Y-106555300D03*
X111262200Y-105255300D03*
X118518900Y-105255300D03*
X118518900Y-106555300D03*
X118518900Y-105905300D03*
X120418900Y-106555300D03*
X120418900Y-105255300D03*
X136959300Y-105280700D03*
X136959300Y-106580700D03*
X136959300Y-105930700D03*
X138859300Y-106580700D03*
X138859300Y-105280700D03*
X100192800Y-105229900D03*
X100192800Y-106529900D03*
X100192800Y-105879900D03*
X102092800Y-106529900D03*
X102092800Y-105229900D03*
X81968300Y-73810100D03*
X81968300Y-75110100D03*
X81968300Y-74460100D03*
X83868300Y-75110100D03*
X83868300Y-73810100D03*
X127789900Y-105268000D03*
X127789900Y-106568000D03*
X127789900Y-105918000D03*
X129689900Y-106568000D03*
X129689900Y-105268000D03*
X90982800Y-105191800D03*
X90982800Y-106491800D03*
X90982800Y-105841800D03*
X92882800Y-106491800D03*
X92882800Y-105191800D03*
D20*
X74383200Y-73609200D03*
X75883200Y-73609200D03*
X77177200Y-73609200D03*
X78677200Y-73609200D03*
D24*
X161950400Y-80302800D03*
X161950400Y-78802800D03*
X161950400Y-77661200D03*
X161950400Y-76161200D03*
D20*
X85216300Y-78282800D03*
X86716300Y-78282800D03*
X149427500Y-106629200D03*
X150927500Y-106629200D03*
X112610200Y-106603800D03*
X114110200Y-106603800D03*
X121766900Y-106603800D03*
X123266900Y-106603800D03*
X140207300Y-106629200D03*
X141707300Y-106629200D03*
X103440800Y-106578400D03*
X104940800Y-106578400D03*
X85216300Y-75158600D03*
X86716300Y-75158600D03*
X131037900Y-106616500D03*
X132537900Y-106616500D03*
X94233300Y-106540300D03*
X95733300Y-106540300D03*
X153746900Y-71577200D03*
X152246900Y-71577200D03*
X153746900Y-73101200D03*
X152246900Y-73101200D03*
D41*
X86956800Y-76822300D03*
X85356800Y-76822300D03*
X151168000Y-105168700D03*
X149568000Y-105168700D03*
X114350700Y-105143300D03*
X112750700Y-105143300D03*
X123507400Y-105143300D03*
X121907400Y-105143300D03*
X141947800Y-105168700D03*
X140347800Y-105168700D03*
X105181300Y-105117900D03*
X103581300Y-105117900D03*
X86956800Y-73698100D03*
X85356800Y-73698100D03*
X132778400Y-105156000D03*
X131178400Y-105156000D03*
X95973800Y-105079800D03*
X94373800Y-105079800D03*
D19*
X75641200Y-71819200D03*
X75641200Y-70319200D03*
D25*
X158660400Y-77216000D03*
X160160400Y-77216000D03*
X145352200Y-69519800D03*
X143852200Y-69519800D03*
D19*
X135636000Y-65367600D03*
X135636000Y-63867600D03*
D25*
X155028200Y-71170800D03*
X156528200Y-71170800D03*
X155028200Y-72567800D03*
X156528200Y-72567800D03*
X155028200Y-73964800D03*
X156528200Y-73964800D03*
D42*
X109321600Y-67081400D03*
X79882400Y-89560400D03*
X89072400Y-89560400D03*
X98262400Y-89560400D03*
X107452400Y-89560400D03*
X116642400Y-89560400D03*
X125832400Y-89560400D03*
X135022400Y-89560400D03*
X144212400Y-89560400D03*
X153402400Y-89560400D03*
X162592400Y-89560400D03*
X157320400Y-81876900D03*
X148130400Y-81876900D03*
X138940400Y-81876900D03*
X129750400Y-81876900D03*
X120560400Y-81876900D03*
X111370400Y-81876900D03*
X102180400Y-81876900D03*
X92990400Y-81876900D03*
X83800400Y-81876900D03*
X132588000Y-64560598D03*
X135559800Y-64560598D03*
X129641600Y-67659398D03*
X132588000Y-67659398D03*
X135559800Y-67659398D03*
X148107400Y-66827400D03*
X145941600Y-65568700D03*
X91875798Y-105134096D03*
X92125800Y-106883200D03*
X101070598Y-105159496D03*
X101320600Y-106908600D03*
X110239998Y-105184896D03*
X110490000Y-106934000D03*
X119409398Y-105184896D03*
X119659400Y-106934000D03*
X128930400Y-106959400D03*
X128680398Y-105210296D03*
X137849798Y-105210296D03*
X138099800Y-106959400D03*
X147069998Y-105210296D03*
X147320000Y-106959400D03*
X75666600Y-69519800D03*
X108280200Y-72771000D03*
X109626400Y-72517000D03*
X110591600Y-74574400D03*
X108254800Y-77978000D03*
X119158600Y-64027900D03*
X120058600Y-64027900D03*
X120058600Y-64927900D03*
X119158600Y-64927900D03*
X154990800Y-78714600D03*
X147447000Y-78028800D03*
X160172400Y-76454000D03*
X153949400Y-75209400D03*
X127254000Y-78003400D03*
X125679200Y-75107800D03*
X130530600Y-73406000D03*
X161381600Y-70768600D03*
X112191800Y-77622400D03*
X130962400Y-77012800D03*
X150647400Y-73456800D03*
X97447100Y-60388500D03*
X98920300Y-60388500D03*
X100368100Y-60388500D03*
X109956600Y-67081400D03*
X110591600Y-67081400D03*
X111226600Y-67081400D03*
X109321600Y-67716400D03*
X109956600Y-67716400D03*
X110591600Y-67716400D03*
X111226600Y-67716400D03*
X109321600Y-68351400D03*
X109956600Y-68351400D03*
X110591600Y-68351400D03*
X111226600Y-68351400D03*
X109321600Y-68986400D03*
X109956600Y-68986400D03*
X110591600Y-68986400D03*
X111226600Y-68986400D03*
X115620800Y-69570600D03*
X116255800Y-69570600D03*
X116255800Y-68935600D03*
X115620800Y-68935600D03*
X116890800Y-68935600D03*
X116890800Y-69570600D03*
X129235810Y-70128790D03*
X140258800Y-68707000D03*
X149123400Y-70104000D03*
X156540200Y-74904600D03*
X103733600Y-66471200D03*
X159477297Y-69783103D03*
X164236400Y-81940400D03*
X118338600Y-69545200D03*
X117703600Y-69545200D03*
X118338600Y-68910200D03*
X117703600Y-68910200D03*
X82878254Y-77597000D03*
X82924782Y-74523600D03*
X129636815Y-64530413D03*
X78521843Y-89655343D03*
X87711843Y-89655343D03*
X96901843Y-89655343D03*
X106091843Y-89655343D03*
X115281843Y-89655343D03*
X124471843Y-89655343D03*
X133661843Y-89655343D03*
X142851843Y-89655343D03*
X152041843Y-89655343D03*
X161231843Y-89655343D03*
X129710259Y-69061643D03*
X143205200Y-65303400D03*
X92682800Y-105079800D03*
X101877600Y-105105200D03*
X111047000Y-105130600D03*
X120216400Y-105130600D03*
X129487400Y-105156000D03*
X138656800Y-105156000D03*
X147877000Y-105156000D03*
X83731800Y-74460100D03*
X83681000Y-77584300D03*
X75641200Y-72593200D03*
X106781600Y-69900800D03*
X108254800Y-71906700D03*
X111658400Y-74498200D03*
X112217200Y-79298800D03*
X154990800Y-77241400D03*
X158648400Y-76479400D03*
X162153600Y-81000600D03*
X155448000Y-75209400D03*
X132105400Y-79654400D03*
X132359400Y-75590400D03*
X130556000Y-71907400D03*
X164236400Y-71018400D03*
X162128200Y-68300600D03*
X149443506Y-71997935D03*
X121081800Y-67005200D03*
X121081800Y-67640200D03*
X121716800Y-67640200D03*
X121716800Y-67005200D03*
X122351800Y-67640200D03*
X122351800Y-67005200D03*
X122986800Y-67005200D03*
X122986800Y-67640200D03*
X123621800Y-67005200D03*
X124891800Y-67005200D03*
X126161800Y-67005200D03*
X125526800Y-67005200D03*
X124256800Y-67005200D03*
X126796800Y-67005200D03*
X127431800Y-67005200D03*
X127431800Y-67640200D03*
X126796800Y-67640200D03*
X127431800Y-68275200D03*
X126796800Y-68910200D03*
X127431800Y-68910200D03*
X126796800Y-68275200D03*
X127431800Y-69545200D03*
X126796800Y-69545200D03*
X117754400Y-67691000D03*
X145338800Y-68707000D03*
X151358600Y-78867000D03*
X78663800Y-74466202D03*
X129540000Y-66159372D03*
X132969000Y-66141600D03*
X135432800Y-66159386D03*
X132613400Y-69342000D03*
X135382000Y-69316600D03*
X162864800Y-77622400D03*
X77825600Y-73660000D03*
X97815400Y-69265800D03*
X122047000Y-62966600D03*
X137591800Y-63500000D03*
X153009600Y-72923400D03*
X151003000Y-66802000D03*
X140792200Y-63677800D03*
X141300200Y-61392400D03*
X157683200Y-83870800D03*
X74574400Y-83870800D03*
X83921600Y-84328000D03*
X93116400Y-84328000D03*
X102311200Y-84328000D03*
X111506000Y-84328000D03*
X120700800Y-84328000D03*
X129895600Y-84328000D03*
X139090400Y-84328000D03*
X148285200Y-84328000D03*
X152984200Y-71628000D03*
X146356594Y-63500869D03*
X145923000Y-62052200D03*
X149580600Y-66548000D03*
X150672800Y-74422000D03*
X134620000Y-63500000D03*
X147828000Y-63601600D03*
X131673600Y-63500000D03*
X137591800Y-66624200D03*
X134620000Y-66624200D03*
X138912600Y-66192400D03*
X131673600Y-66624200D03*
X131622800Y-69367400D03*
X131817101Y-71992018D03*
X155702000Y-79552800D03*
X136824024Y-63476434D03*
X146989800Y-105892600D03*
X136982200Y-60324400D03*
X166243000Y-66827400D03*
X159334811Y-67183000D03*
X133852224Y-63476434D03*
X137769600Y-105892600D03*
X152019000Y-63068200D03*
X130905824Y-63476434D03*
X128600200Y-105892600D03*
X130911600Y-60985400D03*
X159080200Y-73837800D03*
X164744400Y-73507600D03*
X136824024Y-66600634D03*
X119329200Y-105867200D03*
X140081000Y-60324400D03*
X140081000Y-66217800D03*
X159271535Y-68050294D03*
X158810874Y-103085722D03*
X133852224Y-66600634D03*
X131724400Y-60324400D03*
X161366200Y-67310600D03*
X159224070Y-102536855D03*
X110162799Y-105872445D03*
X130905824Y-66600634D03*
X129209800Y-61620400D03*
X150423548Y-61082252D03*
X164668200Y-68072600D03*
X159664400Y-101955600D03*
X100993385Y-105847054D03*
X162128200Y-73406000D03*
X161391600Y-73075800D03*
X163880800Y-72136000D03*
X160248600Y-68224400D03*
X91795600Y-105816400D03*
X162068104Y-67446296D03*
X157784800Y-101752400D03*
X163322000Y-84734400D03*
X80822800Y-84785200D03*
X89611200Y-85445600D03*
X98806000Y-85445600D03*
X108000800Y-85445600D03*
X117195600Y-85445600D03*
X126390400Y-85445600D03*
X135585200Y-85445600D03*
X144780000Y-85445600D03*
X153974800Y-85445600D03*
X157284400Y-86258400D03*
X157982900Y-95719900D03*
X148094400Y-86258400D03*
X148792900Y-95719900D03*
X138904400Y-86258400D03*
X139602900Y-95719900D03*
X129714400Y-86258400D03*
X130412900Y-95719900D03*
X120524400Y-86258400D03*
X121222900Y-95719900D03*
X111334400Y-86258400D03*
X112032900Y-95719900D03*
X102144400Y-86258400D03*
X102842900Y-95719900D03*
X92954400Y-86258400D03*
X93652900Y-95719900D03*
X83764400Y-86258400D03*
X84462900Y-95719900D03*
X75272900Y-95719900D03*
X74574400Y-86258400D03*
X136262133Y-64647314D03*
X139522200Y-64668400D03*
X133290333Y-64647314D03*
X133451600Y-62891021D03*
X128917600Y-65227200D03*
X130336328Y-64586117D03*
X136262133Y-67746114D03*
X136753600Y-70002400D03*
X133807200Y-69570600D03*
X140258800Y-67309400D03*
X133290333Y-67746114D03*
X130343933Y-67746114D03*
X145973800Y-71475600D03*
X157881900Y-94005400D03*
X157665400Y-85559900D03*
X161792920Y-90385900D03*
X157792400Y-87020400D03*
X161859898Y-93433900D03*
X161861400Y-86893400D03*
X160268900Y-86893400D03*
X163443906Y-87655400D03*
X161856400Y-91846400D03*
X160339888Y-90993919D03*
X163316900Y-86904897D03*
X163697900Y-93560900D03*
X161919900Y-92671900D03*
X163634400Y-91211400D03*
X148691900Y-94005400D03*
X148475400Y-85559900D03*
X152602920Y-90385900D03*
X148602400Y-87020400D03*
X152669898Y-93433900D03*
X152671400Y-86893400D03*
X151078900Y-86893400D03*
X154253906Y-87655400D03*
X152666400Y-91846400D03*
X151149888Y-90993919D03*
X154126900Y-86904897D03*
X154507900Y-93560900D03*
X152729900Y-92671900D03*
X154444400Y-91211400D03*
X139501900Y-94005400D03*
X139285400Y-85559900D03*
X143412920Y-90385900D03*
X139412400Y-87020400D03*
X143479898Y-93433900D03*
X143481400Y-86893400D03*
X141888900Y-86893400D03*
X145063906Y-87655400D03*
X143476400Y-91846400D03*
X141959888Y-90993919D03*
X144936900Y-86904897D03*
X145317900Y-93560900D03*
X143539900Y-92671900D03*
X145254400Y-91211400D03*
X130311900Y-94005400D03*
X130095400Y-85559900D03*
X134222920Y-90385900D03*
X130222400Y-87020400D03*
X134289898Y-93433900D03*
X134291400Y-86893400D03*
X132698900Y-86893400D03*
X135873906Y-87655400D03*
X134286400Y-91846400D03*
X132769888Y-90993919D03*
X135746900Y-86904897D03*
X136127900Y-93560900D03*
X134349900Y-92671900D03*
X136064400Y-91211400D03*
X121121900Y-94005400D03*
X120905400Y-85559900D03*
X125032920Y-90385900D03*
X121032400Y-87020400D03*
X125099898Y-93433900D03*
X125101400Y-86893400D03*
X123508900Y-86893400D03*
X126683906Y-87655400D03*
X125096400Y-91846400D03*
X123579888Y-90993919D03*
X126556900Y-86904897D03*
X126937900Y-93560900D03*
X125159900Y-92671900D03*
X126874400Y-91211400D03*
X111931900Y-94005400D03*
X111715400Y-85559900D03*
X115842920Y-90385900D03*
X111842400Y-87020400D03*
X115909898Y-93433900D03*
X115911400Y-86893400D03*
X114318900Y-86893400D03*
X117493906Y-87655400D03*
X115906400Y-91846400D03*
X114389888Y-90993919D03*
X117366900Y-86904897D03*
X117747900Y-93560900D03*
X115969900Y-92671900D03*
X117684400Y-91211400D03*
X102741900Y-94005400D03*
X102525400Y-85559900D03*
X106652920Y-90385900D03*
X102652400Y-87020400D03*
X106719898Y-93433900D03*
X106721400Y-86893400D03*
X105128900Y-86893400D03*
X108303906Y-87655400D03*
X106716400Y-91846400D03*
X105199888Y-90993919D03*
X108176900Y-86904897D03*
X108557900Y-93560900D03*
X106779900Y-92671900D03*
X108494400Y-91211400D03*
X93551900Y-94005400D03*
X93335400Y-85559900D03*
X97462920Y-90385900D03*
X93462400Y-87020400D03*
X97529898Y-93433900D03*
X97531400Y-86893400D03*
X95938900Y-86893400D03*
X99113906Y-87655400D03*
X97526400Y-91846400D03*
X96009888Y-90993919D03*
X98986900Y-86904897D03*
X99367900Y-93560900D03*
X97589900Y-92671900D03*
X99304400Y-91211400D03*
X84361900Y-94005400D03*
X84145400Y-85559900D03*
X88272920Y-90385900D03*
X84272400Y-87020400D03*
X88339898Y-93433900D03*
X88341400Y-86893400D03*
X86748900Y-86893400D03*
X89923906Y-87655400D03*
X88336400Y-91846400D03*
X86819888Y-90993919D03*
X89796900Y-86904897D03*
X90177900Y-93560900D03*
X88399900Y-92671900D03*
X90114400Y-91211400D03*
X74955400Y-85559900D03*
X75171900Y-94005400D03*
X79149898Y-93433900D03*
X79082920Y-90385900D03*
X79151400Y-86893400D03*
X77558900Y-86893400D03*
X75082400Y-87020400D03*
X79146400Y-91846400D03*
X80733906Y-87655400D03*
X77629888Y-90993919D03*
X80606900Y-86904897D03*
X79502000Y-81026000D03*
X80987900Y-93560900D03*
X79209900Y-92671900D03*
X80924400Y-91211400D03*
X98069400Y-66217800D03*
X103329100Y-63028000D03*
X105154100Y-63028000D03*
X105154100Y-64353000D03*
X103329100Y-64353000D03*
X103606600Y-68376800D03*
X109004800Y-75133200D03*
X111353600Y-72720200D03*
X108254800Y-76885800D03*
X127482600Y-77012800D03*
X147497800Y-77038200D03*
X128143700Y-75120500D03*
X148158900Y-75272900D03*
D43*
X87769700Y-67856100D02*
X88265000Y-67360800D01*
X82029300Y-67856100D02*
X87769700Y-67856100D01*
X99346600Y-69139500D02*
X100431600Y-69139500D01*
X97567900Y-67360800D02*
X99346600Y-69139500D01*
X88265000Y-67360800D02*
X97567900Y-67360800D01*
X88265000Y-65849500D02*
X88265000Y-67360800D01*
X97332100Y-64579500D02*
X89535000Y-64579500D01*
X89535000Y-64579500D02*
X88265000Y-65849500D01*
D44*
X133166200Y-63867600D02*
X132664200Y-63867600D01*
X133547048Y-63867600D02*
X133166200Y-63867600D01*
X133787400Y-64107952D02*
X133547048Y-63867600D01*
X133787400Y-64265100D02*
X133787400Y-64107952D01*
X132664200Y-63867600D02*
X132664200Y-64484398D01*
X132664200Y-64484398D02*
X132588000Y-64560598D01*
X135636000Y-64484398D02*
X135559800Y-64560598D01*
X135636000Y-63867600D02*
X135636000Y-64484398D01*
X136138000Y-63867600D02*
X135636000Y-63867600D01*
X136518848Y-63867600D02*
X136138000Y-63867600D01*
X136759200Y-64107952D02*
X136518848Y-63867600D01*
X136759200Y-64265100D02*
X136759200Y-64107952D01*
X130841000Y-67363900D02*
X130841000Y-67206752D01*
X129717800Y-66966400D02*
X129717800Y-67583198D01*
X130600648Y-66966400D02*
X130219800Y-66966400D01*
X129717800Y-67583198D02*
X129641600Y-67659398D01*
X130841000Y-67206752D02*
X130600648Y-66966400D01*
X130219800Y-66966400D02*
X129717800Y-66966400D01*
X133787400Y-67206752D02*
X133547048Y-66966400D01*
X132664200Y-66966400D02*
X132664200Y-67583198D01*
X133166200Y-66966400D02*
X132664200Y-66966400D01*
X132664200Y-67583198D02*
X132588000Y-67659398D01*
X133787400Y-67363900D02*
X133787400Y-67206752D01*
X133547048Y-66966400D02*
X133166200Y-66966400D01*
X136759200Y-67206752D02*
X136518848Y-66966400D01*
X135636000Y-67583198D02*
X135559800Y-67659398D01*
X135636000Y-66966400D02*
X135636000Y-67583198D01*
X136138000Y-66966400D02*
X135636000Y-66966400D01*
X136759200Y-67363900D02*
X136759200Y-67206752D01*
X136518848Y-66966400D02*
X136138000Y-66966400D01*
X146191600Y-65818700D02*
X145941600Y-65568700D01*
X147641600Y-65818700D02*
X146191600Y-65818700D01*
X147641600Y-65818700D02*
X147641600Y-66361600D01*
X147641600Y-66361600D02*
X148107400Y-66827400D01*
X92266101Y-106057099D02*
X92266101Y-105474101D01*
X91926096Y-105134096D02*
X91875798Y-105134096D01*
X92266101Y-105474101D02*
X91926096Y-105134096D01*
X91831400Y-106491800D02*
X92266101Y-106057099D01*
X90982800Y-106491800D02*
X91831400Y-106491800D01*
X119365000Y-106542600D02*
X119799701Y-106107899D01*
X118516400Y-106542600D02*
X119365000Y-106542600D01*
X119799701Y-106107899D02*
X119799701Y-105524901D01*
X119799701Y-105524901D02*
X119459696Y-105184896D01*
X119459696Y-105184896D02*
X119409398Y-105184896D01*
X129070701Y-105550301D02*
X128730696Y-105210296D01*
X129070701Y-106133299D02*
X129070701Y-105550301D01*
X128636000Y-106568000D02*
X129070701Y-106133299D01*
X127787400Y-106568000D02*
X128636000Y-106568000D01*
X128730696Y-105210296D02*
X128680398Y-105210296D01*
X137900096Y-105210296D02*
X137849798Y-105210296D01*
X136956800Y-106568000D02*
X137805400Y-106568000D01*
X137805400Y-106568000D02*
X138240101Y-106133299D01*
X138240101Y-105550301D02*
X137900096Y-105210296D01*
X138240101Y-106133299D02*
X138240101Y-105550301D01*
X147120296Y-105210296D02*
X147069998Y-105210296D01*
X147460301Y-106133299D02*
X147460301Y-105550301D01*
X146177000Y-106568000D02*
X147025600Y-106568000D01*
X147460301Y-105550301D02*
X147120296Y-105210296D01*
X147025600Y-106568000D02*
X147460301Y-106133299D01*
D45*
X77026400Y-70319200D02*
X77226400Y-70119200D01*
X75641200Y-70319200D02*
X77026400Y-70319200D01*
X75641200Y-70319200D02*
X75641200Y-69545200D01*
X75641200Y-69545200D02*
X75666600Y-69519800D01*
X108648100Y-72771000D02*
X108280200Y-72771000D01*
X108904800Y-73606700D02*
X108904800Y-73027700D01*
X108904800Y-73027700D02*
X108648100Y-72771000D01*
X110540800Y-73406700D02*
X110516100Y-73406700D01*
X110516100Y-73406700D02*
X109626400Y-72517000D01*
D43*
X107332600Y-77978000D02*
X107218300Y-77863700D01*
X108254800Y-77978000D02*
X107332600Y-77978000D01*
X119100600Y-60171900D02*
X118973600Y-60044900D01*
X156528200Y-73964800D02*
X156528200Y-71170800D01*
X146334300Y-78028800D02*
X146308900Y-78003400D01*
X147447000Y-78028800D02*
X146334300Y-78028800D01*
X144690400Y-78003400D02*
X146308900Y-78003400D01*
X144487900Y-77800900D02*
X144690400Y-78003400D01*
D45*
X160160400Y-78550400D02*
X160360400Y-78750400D01*
X160160400Y-77216000D02*
X160160400Y-78550400D01*
X160160400Y-77216000D02*
X160160400Y-76466000D01*
X160160400Y-76466000D02*
X160172400Y-76454000D01*
X153949400Y-73303700D02*
X153746900Y-73101200D01*
X153949400Y-75209400D02*
X153949400Y-73303700D01*
X153746900Y-73101200D02*
X153746900Y-71577200D01*
D43*
X107206300Y-77851700D02*
X107218300Y-77863700D01*
X105460800Y-77851700D02*
X107206300Y-77851700D01*
X126345200Y-77839000D02*
X126357200Y-77851000D01*
X124599700Y-77839000D02*
X126345200Y-77839000D01*
X126357200Y-77851000D02*
X127101600Y-77851000D01*
X127101600Y-77851000D02*
X127254000Y-78003400D01*
D45*
X128243700Y-73394000D02*
X128043700Y-73594000D01*
X129616200Y-73394000D02*
X128243700Y-73394000D01*
X129616200Y-73394000D02*
X130518600Y-73394000D01*
X130518600Y-73394000D02*
X130530600Y-73406000D01*
X161131600Y-70518600D02*
X161381600Y-70768600D01*
X159681600Y-70518600D02*
X161131600Y-70518600D01*
X148258900Y-73419400D02*
X148058900Y-73619400D01*
X149631400Y-73419400D02*
X148258900Y-73419400D01*
X149631400Y-73419400D02*
X150610000Y-73419400D01*
X150610000Y-73419400D02*
X150647400Y-73456800D01*
D43*
X97447100Y-61162500D02*
X100368100Y-61162500D01*
X97447100Y-61162500D02*
X97447100Y-60388500D01*
X98920300Y-61162500D02*
X98920300Y-60388500D01*
X100368100Y-61162500D02*
X100368100Y-60388500D01*
D45*
X119888700Y-60171900D02*
X119786400Y-60274200D01*
D43*
X119888700Y-60171900D02*
X119100600Y-60171900D01*
X120561100Y-60171900D02*
X119888700Y-60171900D01*
D45*
X119858600Y-62373900D02*
X119858600Y-63002900D01*
X119786400Y-60274200D02*
X119786400Y-62301700D01*
X119786400Y-62301700D02*
X119858600Y-62373900D01*
X118858600Y-63002900D02*
X119858600Y-63002900D01*
D43*
X117303600Y-60044900D02*
X118973600Y-60044900D01*
X116433600Y-61949900D02*
X116433600Y-60914900D01*
X116433600Y-60914900D02*
X117303600Y-60044900D01*
D45*
X119858600Y-63827900D02*
X120058600Y-64027900D01*
X119858600Y-63002900D02*
X119858600Y-63827900D01*
X115494500Y-69444300D02*
X115620800Y-69570600D01*
X113919000Y-69444300D02*
X115494500Y-69444300D01*
X129883600Y-70180200D02*
X129287220Y-70180200D01*
X129287220Y-70180200D02*
X129235810Y-70128790D01*
D43*
X143852200Y-69519800D02*
X141071600Y-69519800D01*
X141071600Y-69519800D02*
X140258800Y-68707000D01*
X156528200Y-73964800D02*
X156528200Y-74892600D01*
X156528200Y-74892600D02*
X156540200Y-74904600D01*
D45*
X104439371Y-66268600D02*
X104292400Y-66268600D01*
X104741600Y-65590500D02*
X104741600Y-65966371D01*
X104741600Y-65966371D02*
X104439371Y-66268600D01*
X104292400Y-66268600D02*
X103936200Y-66268600D01*
X103936200Y-66268600D02*
X103733600Y-66471200D01*
X159681600Y-70518600D02*
X159681600Y-69987406D01*
X159681600Y-69987406D02*
X159477297Y-69783103D01*
X164744400Y-79349600D02*
X164744400Y-81432400D01*
X164744400Y-81432400D02*
X164236400Y-81940400D01*
X82240954Y-78234300D02*
X82598255Y-77876999D01*
X82598255Y-77876999D02*
X82878254Y-77597000D01*
X81917500Y-78234300D02*
X82240954Y-78234300D01*
X82547300Y-75110100D02*
X82924782Y-74732618D01*
X82924782Y-74732618D02*
X82924782Y-74523600D01*
X81968300Y-75110100D02*
X82547300Y-75110100D01*
D44*
X101463886Y-105552784D02*
X101350597Y-105439495D01*
X101463886Y-106072896D02*
X101463886Y-105552784D01*
X101019579Y-106517200D02*
X101463886Y-106072896D01*
X101350597Y-105439495D02*
X101070598Y-105159496D01*
X100177600Y-106517200D02*
X101019579Y-106517200D01*
X110519997Y-105464895D02*
X110239998Y-105184896D01*
X110633299Y-105578197D02*
X110519997Y-105464895D01*
X110633299Y-106098286D02*
X110633299Y-105578197D01*
X110188983Y-106542600D02*
X110633299Y-106098286D01*
X109347000Y-106542600D02*
X110188983Y-106542600D01*
X130683852Y-64082552D02*
X130084676Y-64082552D01*
X130841000Y-64239700D02*
X130683852Y-64082552D01*
X130084676Y-64082552D02*
X129916814Y-64250414D01*
X129916814Y-64250414D02*
X129636815Y-64530413D01*
D43*
X156528200Y-70107800D02*
X156915500Y-69720500D01*
X156528200Y-71170800D02*
X156528200Y-70107800D01*
D45*
X106641600Y-65069500D02*
X106641600Y-64690500D01*
X106641600Y-66230500D02*
X106641600Y-65069500D01*
X105194100Y-67703000D02*
X105194100Y-67678000D01*
X105194100Y-67678000D02*
X106641600Y-66230500D01*
X117062600Y-63449900D02*
X116433600Y-63449900D01*
X117398800Y-63786100D02*
X117062600Y-63449900D01*
X117398800Y-64122100D02*
X117398800Y-63786100D01*
X117504600Y-64227900D02*
X117398800Y-64122100D01*
X118133600Y-64227900D02*
X117504600Y-64227900D01*
X110274100Y-63212900D02*
X110274100Y-61683900D01*
X116433600Y-63449900D02*
X110511100Y-63449900D01*
X110511100Y-63449900D02*
X110274100Y-63212900D01*
D43*
X110515400Y-61925200D02*
X110274100Y-61683900D01*
X114274600Y-61925200D02*
X110515400Y-61925200D01*
D45*
X118133600Y-62384900D02*
X118133600Y-63727900D01*
X118973600Y-61544900D02*
X118133600Y-62384900D01*
D44*
X134487400Y-65382100D02*
X134487400Y-64995100D01*
X134423899Y-65445601D02*
X134487400Y-65382100D01*
X133244201Y-65445601D02*
X134423899Y-65445601D01*
X133166200Y-65367600D02*
X133244201Y-65445601D01*
X132664200Y-65367600D02*
X133166200Y-65367600D01*
X137459200Y-65382100D02*
X137459200Y-64995100D01*
X137395699Y-65445601D02*
X137459200Y-65382100D01*
X136138000Y-65367600D02*
X136216001Y-65445601D01*
X135636000Y-65367600D02*
X136138000Y-65367600D01*
X136216001Y-65445601D02*
X137395699Y-65445601D01*
X129717800Y-68466400D02*
X130219800Y-68466400D01*
X129717800Y-69054102D02*
X129710259Y-69061643D01*
X130297801Y-68544401D02*
X131477499Y-68544401D01*
X129717800Y-68466400D02*
X129717800Y-69054102D01*
X131541000Y-68480900D02*
X131541000Y-68093900D01*
X130219800Y-68466400D02*
X130297801Y-68544401D01*
X131477499Y-68544401D02*
X131541000Y-68480900D01*
X134423899Y-68544401D02*
X134487400Y-68480900D01*
X133166200Y-68466400D02*
X133244201Y-68544401D01*
X132664200Y-68466400D02*
X133166200Y-68466400D01*
X133244201Y-68544401D02*
X134423899Y-68544401D01*
X134487400Y-68480900D02*
X134487400Y-68093900D01*
X137395699Y-68544401D02*
X137459200Y-68480900D01*
X136138000Y-68466400D02*
X136216001Y-68544401D01*
X136216001Y-68544401D02*
X137395699Y-68544401D01*
X137459200Y-68480900D02*
X137459200Y-68093900D01*
X135636000Y-68466400D02*
X136138000Y-68466400D01*
X144226300Y-65303400D02*
X144241600Y-65318700D01*
X143205200Y-65303400D02*
X144226300Y-65303400D01*
X92994800Y-105079800D02*
X92882800Y-105191800D01*
X94373800Y-105079800D02*
X92994800Y-105079800D01*
X92882800Y-105191800D02*
X92794800Y-105191800D01*
X92794800Y-105191800D02*
X92682800Y-105079800D01*
X102189600Y-105105200D02*
X102077600Y-105217200D01*
X103568600Y-105105200D02*
X102189600Y-105105200D01*
X102077600Y-105217200D02*
X101989600Y-105217200D01*
X101989600Y-105217200D02*
X101877600Y-105105200D01*
X111359000Y-105130600D02*
X111247000Y-105242600D01*
X111247000Y-105242600D02*
X111159000Y-105242600D01*
X111159000Y-105242600D02*
X111047000Y-105130600D01*
X112738000Y-105130600D02*
X111359000Y-105130600D01*
X121907400Y-105130600D02*
X120528400Y-105130600D01*
X120416400Y-105242600D02*
X120328400Y-105242600D01*
X120328400Y-105242600D02*
X120216400Y-105130600D01*
X120528400Y-105130600D02*
X120416400Y-105242600D01*
X129687400Y-105268000D02*
X129599400Y-105268000D01*
X129799400Y-105156000D02*
X129687400Y-105268000D01*
X129599400Y-105268000D02*
X129487400Y-105156000D01*
X131178400Y-105156000D02*
X129799400Y-105156000D01*
X138968800Y-105156000D02*
X138856800Y-105268000D01*
X138768800Y-105268000D02*
X138656800Y-105156000D01*
X140347800Y-105156000D02*
X138968800Y-105156000D01*
X138856800Y-105268000D02*
X138768800Y-105268000D01*
X149568000Y-105156000D02*
X148189000Y-105156000D01*
X148189000Y-105156000D02*
X148077000Y-105268000D01*
X147989000Y-105268000D02*
X147877000Y-105156000D01*
X148077000Y-105268000D02*
X147989000Y-105268000D01*
D45*
X83980300Y-73698100D02*
X83868300Y-73810100D01*
X85356800Y-73698100D02*
X83980300Y-73698100D01*
X83731800Y-73946600D02*
X83868300Y-73810100D01*
X83731800Y-74460100D02*
X83731800Y-73946600D01*
X83681000Y-77070800D02*
X83817500Y-76934300D01*
X83681000Y-77584300D02*
X83681000Y-77070800D01*
X85306000Y-76822300D02*
X83929500Y-76822300D01*
X83929500Y-76822300D02*
X83817500Y-76934300D01*
X78526400Y-71894200D02*
X78526400Y-72019200D01*
X78072400Y-71440200D02*
X78526400Y-71894200D01*
X76649201Y-71440199D02*
X78072400Y-71440200D01*
X75641200Y-71819200D02*
X76270200Y-71819200D01*
X76270200Y-71819200D02*
X76649201Y-71440199D01*
X75641200Y-71819200D02*
X75641200Y-72593200D01*
X106781600Y-69203000D02*
X106781600Y-69900800D01*
X107604800Y-71706700D02*
X108054800Y-71706700D01*
X108054800Y-71706700D02*
X108254800Y-71906700D01*
D43*
X127050100Y-60171900D02*
X127812800Y-60934600D01*
X122148600Y-60171900D02*
X123736100Y-60171900D01*
X155028200Y-73964800D02*
X155028200Y-71170800D01*
D45*
X158585400Y-80050400D02*
X158460400Y-80050400D01*
X159039400Y-79596400D02*
X158585400Y-80050400D01*
X159039401Y-78224001D02*
X159039400Y-79596400D01*
X158660400Y-77216000D02*
X158660400Y-77845000D01*
X158660400Y-77845000D02*
X159039401Y-78224001D01*
X158660400Y-77216000D02*
X158660400Y-76491400D01*
X158660400Y-76491400D02*
X158648400Y-76479400D01*
X126743700Y-71819000D02*
X126743700Y-71694000D01*
X127197700Y-72273000D02*
X126743700Y-71819000D01*
X128608199Y-72273001D02*
X127197700Y-72273000D01*
X129616200Y-71894000D02*
X128987200Y-71894000D01*
X128987200Y-71894000D02*
X128608199Y-72273001D01*
X129616200Y-71894000D02*
X130542600Y-71894000D01*
X130542600Y-71894000D02*
X130556000Y-71907400D01*
X163081600Y-71018600D02*
X164236200Y-71018600D01*
X164236200Y-71018600D02*
X164236400Y-71018400D01*
X146758900Y-71844400D02*
X146758900Y-71719400D01*
X147212900Y-72298400D02*
X146758900Y-71844400D01*
X148623399Y-72298401D02*
X147212900Y-72298400D01*
X149631400Y-71919400D02*
X149002400Y-71919400D01*
X149002400Y-71919400D02*
X148623399Y-72298401D01*
X149631400Y-71919400D02*
X149522041Y-71919400D01*
X149522041Y-71919400D02*
X149443506Y-71997935D01*
X118293229Y-67691000D02*
X117754400Y-67691000D01*
X119358600Y-65952900D02*
X119358600Y-66625629D01*
X119358600Y-66625629D02*
X118293229Y-67691000D01*
D43*
X124560900Y-60171900D02*
X127050100Y-60171900D01*
X123736100Y-60171900D02*
X124560900Y-60171900D01*
X124560900Y-60171900D02*
X124916500Y-60171900D01*
X127431800Y-62687200D02*
X127076200Y-62331600D01*
X127431800Y-67005200D02*
X127431800Y-62687200D01*
X124916500Y-60171900D02*
X127076200Y-62331600D01*
X145352200Y-69519800D02*
X145352200Y-68720400D01*
X145352200Y-68720400D02*
X145338800Y-68707000D01*
X155028200Y-74789600D02*
X155448000Y-75209400D01*
X155028200Y-73964800D02*
X155028200Y-74789600D01*
D44*
X130738328Y-66159372D02*
X129935979Y-66159372D01*
X131541000Y-65356700D02*
X130738328Y-66159372D01*
X129935979Y-66159372D02*
X129540000Y-66159372D01*
X131541000Y-64969700D02*
X131541000Y-65356700D01*
X132911200Y-66141600D02*
X132969000Y-66141600D01*
X132664200Y-65367600D02*
X132664200Y-65894600D01*
X132664200Y-65894600D02*
X132911200Y-66141600D01*
X135636000Y-65367600D02*
X135636000Y-65956186D01*
X135636000Y-65956186D02*
X135432800Y-66159386D01*
X132664200Y-69291200D02*
X132613400Y-69342000D01*
X132664200Y-68466400D02*
X132664200Y-69291200D01*
X135636000Y-68466400D02*
X135636000Y-69062600D01*
X135636000Y-69062600D02*
X135382000Y-69316600D01*
D45*
X129540000Y-65537800D02*
X129717800Y-65360000D01*
X129540000Y-66159372D02*
X129540000Y-65537800D01*
D43*
X155028200Y-70133200D02*
X154615500Y-69720500D01*
X155028200Y-71170800D02*
X155028200Y-70133200D01*
X154615500Y-69720500D02*
X154615500Y-67820500D01*
D45*
X109004800Y-79227200D02*
X109418300Y-78813700D01*
X109004800Y-80467200D02*
X109004800Y-79227200D01*
X105602300Y-78813700D02*
X105460800Y-78955200D01*
X107218300Y-78813700D02*
X105602300Y-78813700D01*
X107504800Y-79100200D02*
X107218300Y-78813700D01*
X107504800Y-80467200D02*
X107504800Y-79100200D01*
X95733300Y-105320300D02*
X95973800Y-105079800D01*
X95733300Y-106540300D02*
X95733300Y-105320300D01*
X132537900Y-105396500D02*
X132778400Y-105156000D01*
X132537900Y-106616500D02*
X132537900Y-105396500D01*
X86956800Y-74918100D02*
X86716300Y-75158600D01*
X86956800Y-73698100D02*
X86956800Y-74918100D01*
X104928100Y-105345700D02*
X105168600Y-105105200D01*
X104928100Y-106565700D02*
X104928100Y-105345700D01*
X141707300Y-106616500D02*
X141707300Y-105396500D01*
X141707300Y-105396500D02*
X141947800Y-105156000D01*
X123266900Y-105371100D02*
X123507400Y-105130600D01*
X123266900Y-106591100D02*
X123266900Y-105371100D01*
X114097500Y-106591100D02*
X114097500Y-105371100D01*
X114097500Y-105371100D02*
X114338000Y-105130600D01*
X150927500Y-105396500D02*
X151168000Y-105156000D01*
X150927500Y-106616500D02*
X150927500Y-105396500D01*
X86956800Y-78042300D02*
X86716300Y-78282800D01*
X86956800Y-76822300D02*
X86956800Y-78042300D01*
X161950400Y-77661200D02*
X162826000Y-77661200D01*
X162826000Y-77661200D02*
X162864800Y-77622400D01*
X161950400Y-78802800D02*
X161950400Y-77661200D01*
X77177200Y-73609200D02*
X75883200Y-73609200D01*
X77228000Y-73660000D02*
X77177200Y-73609200D01*
X77825600Y-73660000D02*
X77228000Y-73660000D01*
X164096000Y-76161200D02*
X164744400Y-76809600D01*
X161950400Y-76161200D02*
X164096000Y-76161200D01*
X75477900Y-76809600D02*
X76581900Y-76809600D01*
X74383200Y-75714900D02*
X75477900Y-76809600D01*
X74383200Y-73609200D02*
X74383200Y-75714900D01*
X98907600Y-64655000D02*
X98832100Y-64579500D01*
X100241100Y-64655000D02*
X98907600Y-64655000D01*
X101205600Y-63690500D02*
X100241100Y-64655000D01*
X101841600Y-63690500D02*
X101205600Y-63690500D01*
X100165600Y-66230500D02*
X100241100Y-66155000D01*
X98832100Y-66230500D02*
X100165600Y-66230500D01*
X101705600Y-64690500D02*
X100241100Y-66155000D01*
X101841600Y-64690500D02*
X101705600Y-64690500D01*
X103241600Y-66252600D02*
X103241600Y-65590500D01*
X100431600Y-67135500D02*
X100638100Y-66929000D01*
X100431600Y-67639500D02*
X100431600Y-67135500D01*
X100638100Y-66929000D02*
X101569171Y-66929000D01*
X101569171Y-66929000D02*
X102051781Y-66446390D01*
X102051781Y-66446390D02*
X103047810Y-66446390D01*
X103047810Y-66446390D02*
X103241600Y-66252600D01*
X104615899Y-67048999D02*
X104025398Y-67639500D01*
X104025398Y-67639500D02*
X103606600Y-67639500D01*
X105041431Y-67048999D02*
X104615899Y-67048999D01*
X105741600Y-66348830D02*
X105041431Y-67048999D01*
X105741600Y-65590500D02*
X105741600Y-66348830D01*
X106781600Y-66725800D02*
X106781600Y-67703000D01*
X107365800Y-66141600D02*
X106781600Y-66725800D01*
X107365800Y-63810700D02*
X107365800Y-66141600D01*
X106641600Y-63690500D02*
X107245600Y-63690500D01*
X107245600Y-63690500D02*
X107365800Y-63810700D01*
X106981600Y-67703000D02*
X106781600Y-67703000D01*
X107823000Y-70358000D02*
X107823000Y-68544400D01*
X107619800Y-70561200D02*
X107823000Y-70358000D01*
X106222800Y-70561200D02*
X107619800Y-70561200D01*
X93014800Y-70180200D02*
X105841800Y-70180200D01*
X105841800Y-70180200D02*
X106222800Y-70561200D01*
X81968300Y-74460100D02*
X81389300Y-74460100D01*
X81389300Y-74460100D02*
X81254600Y-74325400D01*
X81254600Y-72186800D02*
X81965800Y-71475600D01*
X107823000Y-68544400D02*
X106981600Y-67703000D01*
X81965800Y-71475600D02*
X91719400Y-71475600D01*
X81254600Y-74325400D02*
X81254600Y-72186800D01*
X91719400Y-71475600D02*
X93014800Y-70180200D01*
X121083600Y-62787000D02*
X121615200Y-62255400D01*
X123536100Y-61671900D02*
X123736100Y-61671900D01*
X121615200Y-62255400D02*
X122952600Y-62255400D01*
X122952600Y-62255400D02*
X123536100Y-61671900D01*
X81389300Y-77584300D02*
X80797400Y-76992400D01*
X81968300Y-77584300D02*
X81389300Y-77584300D01*
X80797400Y-76992400D02*
X80797400Y-71882000D01*
X80797400Y-71882000D02*
X81584800Y-71094600D01*
X81584800Y-71094600D02*
X91561572Y-71094600D01*
X91561572Y-71094600D02*
X92856981Y-69799190D01*
X92856981Y-69799190D02*
X97282010Y-69799190D01*
X97282010Y-69799190D02*
X97815400Y-69265800D01*
X121094021Y-63523600D02*
X121083600Y-63523600D01*
X121651021Y-62966600D02*
X121094021Y-63523600D01*
X122047000Y-62966600D02*
X121651021Y-62966600D01*
X121083600Y-63727900D02*
X121083600Y-63523600D01*
X121083600Y-63523600D02*
X121083600Y-62787000D01*
D44*
X137459200Y-64257500D02*
X137459200Y-63632600D01*
X137459200Y-63632600D02*
X137591800Y-63500000D01*
D45*
X152424700Y-72923400D02*
X152246900Y-73101200D01*
X153009600Y-72923400D02*
X152424700Y-72923400D01*
X141453190Y-61239410D02*
X141300200Y-61392400D01*
X150723001Y-66522001D02*
X150723001Y-65302801D01*
X151003000Y-66802000D02*
X150723001Y-66522001D01*
X150723001Y-65302801D02*
X149453590Y-64033390D01*
X149453590Y-64033390D02*
X149453590Y-63022818D01*
X149453590Y-63022818D02*
X147670182Y-61239410D01*
X147670182Y-61239410D02*
X141453190Y-61239410D01*
X151003000Y-66802000D02*
X156718000Y-66802000D01*
X156915500Y-66999500D02*
X156915500Y-67820500D01*
X156718000Y-66802000D02*
X156915500Y-66999500D01*
D44*
X83921600Y-84328000D02*
X84378800Y-83870800D01*
X84378800Y-83870800D02*
X84785200Y-83870800D01*
X157683200Y-83870800D02*
X84785200Y-83870800D01*
X84785200Y-83870800D02*
X74574400Y-83870800D01*
X93573600Y-83870800D02*
X93980000Y-83870800D01*
X102768400Y-83870800D02*
X103174800Y-83870800D01*
X111963200Y-83870800D02*
X112369600Y-83870800D01*
X121158000Y-83870800D02*
X121564400Y-83870800D01*
X130352800Y-83870800D02*
X130759200Y-83870800D01*
X139547600Y-83870800D02*
X139954000Y-83870800D01*
X148742400Y-83870800D02*
X149148800Y-83870800D01*
X93116400Y-84328000D02*
X93573600Y-83870800D01*
X102311200Y-84328000D02*
X102768400Y-83870800D01*
X111506000Y-84328000D02*
X111963200Y-83870800D01*
X120700800Y-84328000D02*
X121158000Y-83870800D01*
X129895600Y-84328000D02*
X130352800Y-83870800D01*
X139090400Y-84328000D02*
X139547600Y-83870800D01*
X148285200Y-84328000D02*
X148742400Y-83870800D01*
D45*
X128043700Y-70520100D02*
X128383600Y-70180200D01*
X128043700Y-71694000D02*
X128043700Y-70520100D01*
X152246900Y-71577200D02*
X152933400Y-71577200D01*
X152933400Y-71577200D02*
X152984200Y-71628000D01*
X146691600Y-63689700D02*
X146502769Y-63500869D01*
X146502769Y-63500869D02*
X146356594Y-63500869D01*
X146691600Y-64368700D02*
X146691600Y-63689700D01*
X145846800Y-61976000D02*
X145923000Y-62052200D01*
X129717800Y-61976000D02*
X145846800Y-61976000D01*
X128383600Y-70180200D02*
X128383600Y-63310200D01*
X128383600Y-63310200D02*
X129717800Y-61976000D01*
X152246900Y-71577200D02*
X152246900Y-69392100D01*
X152246900Y-69392100D02*
X149580600Y-66725800D01*
X149580600Y-66725800D02*
X149580600Y-66548000D01*
X157683200Y-83474821D02*
X157240979Y-83032600D01*
X157683200Y-83870800D02*
X157683200Y-83474821D01*
X157240979Y-83032600D02*
X155473400Y-83032600D01*
X155473400Y-83032600D02*
X151561800Y-83032600D01*
X151561800Y-83032600D02*
X150469600Y-81940400D01*
X150469600Y-81940400D02*
X150469600Y-74625200D01*
X150469600Y-74625200D02*
X150672800Y-74422000D01*
D44*
X134487400Y-63632600D02*
X134620000Y-63500000D01*
X134487400Y-64257500D02*
X134487400Y-63632600D01*
D45*
X147202021Y-63831600D02*
X147191600Y-63831600D01*
X147432021Y-63601600D02*
X147202021Y-63831600D01*
X147828000Y-63601600D02*
X147432021Y-63601600D01*
X147191600Y-63831600D02*
X147191600Y-64368700D01*
X135381978Y-62738022D02*
X145279668Y-62738022D01*
X145508859Y-62967213D02*
X146337141Y-62967213D01*
X145279668Y-62738022D02*
X145508859Y-62967213D01*
X146337141Y-62967213D02*
X146387941Y-62916413D01*
X147191600Y-62965200D02*
X147191600Y-63831600D01*
X134620000Y-63500000D02*
X135381978Y-62738022D01*
X146387941Y-62916413D02*
X147142813Y-62916413D01*
X147142813Y-62916413D02*
X147191600Y-62965200D01*
D44*
X131541000Y-64257500D02*
X131541000Y-63632600D01*
X131541000Y-63632600D02*
X131673600Y-63500000D01*
D45*
X146230122Y-62535402D02*
X148260402Y-62535402D01*
X146179322Y-62586202D02*
X146230122Y-62535402D01*
X146191600Y-67447700D02*
X146191600Y-66768700D01*
X146892100Y-68148200D02*
X146191600Y-67447700D01*
X148361400Y-68148200D02*
X146892100Y-68148200D01*
X148844000Y-67665600D02*
X148361400Y-68148200D01*
X145666678Y-62586202D02*
X146179322Y-62586202D01*
X148844000Y-63119000D02*
X148844000Y-67665600D01*
X145437487Y-62357011D02*
X145666678Y-62586202D01*
X132816589Y-62357011D02*
X145437487Y-62357011D01*
X131673600Y-63500000D02*
X132816589Y-62357011D01*
X148260402Y-62535402D02*
X148844000Y-63119000D01*
D44*
X137459200Y-67381700D02*
X137459200Y-66756800D01*
X137459200Y-66756800D02*
X137591800Y-66624200D01*
D45*
X137736300Y-66768700D02*
X137591800Y-66624200D01*
X144691600Y-66768700D02*
X137736300Y-66768700D01*
D44*
X134487400Y-66756800D02*
X134620000Y-66624200D01*
X134487400Y-67381700D02*
X134487400Y-66756800D01*
D45*
X142381946Y-63119033D02*
X145120933Y-63119033D01*
X138912600Y-66192400D02*
X139308579Y-66192400D01*
X145120933Y-63119033D02*
X145691600Y-63689700D01*
X139308579Y-66192400D02*
X142381946Y-63119033D01*
X145691600Y-63689700D02*
X145691600Y-64368700D01*
D44*
X131541000Y-67381700D02*
X131541000Y-66756800D01*
X131541000Y-66756800D02*
X131673600Y-66624200D01*
D45*
X131622800Y-69367400D02*
X131622800Y-71797717D01*
X131622800Y-71797717D02*
X131817101Y-71992018D01*
X156504400Y-78750400D02*
X158460400Y-78750400D01*
X155702000Y-79552800D02*
X156504400Y-78750400D01*
D44*
X137109200Y-64257500D02*
X137109200Y-63761610D01*
X137109200Y-63761610D02*
X136824024Y-63476434D01*
D45*
X146989800Y-105892600D02*
X146202400Y-105892600D01*
X146202400Y-105892600D02*
X146177000Y-105918000D01*
X161131600Y-69568600D02*
X161131600Y-68131340D01*
X160183260Y-67183000D02*
X160355630Y-67355370D01*
X159334811Y-67183000D02*
X160183260Y-67183000D01*
X161131600Y-68131340D02*
X160355630Y-67355370D01*
X137516201Y-59790399D02*
X137262199Y-60044401D01*
X147837659Y-59790399D02*
X137516201Y-59790399D01*
X150596622Y-62549362D02*
X147837659Y-59790399D01*
X152298378Y-65201778D02*
X150596622Y-63500022D01*
X158202038Y-65201778D02*
X152298378Y-65201778D01*
X160355630Y-67355370D02*
X158202038Y-65201778D01*
X150596622Y-63500022D02*
X150596622Y-62549362D01*
X137262199Y-60044401D02*
X136982200Y-60324400D01*
X166522999Y-67107399D02*
X166243000Y-66827400D01*
X166598600Y-67183000D02*
X166522999Y-67107399D01*
X166598600Y-75428938D02*
X166598600Y-67183000D01*
X166610423Y-75440761D02*
X166598600Y-75428938D01*
X166610423Y-78178439D02*
X166610423Y-75440761D01*
X166598600Y-78190262D02*
X166610423Y-78178439D01*
X166598600Y-78492218D02*
X166598600Y-78190262D01*
X166610423Y-80195159D02*
X166610423Y-78504041D01*
X166598600Y-100812600D02*
X166598600Y-80206982D01*
X161678267Y-102082600D02*
X165328600Y-102082600D01*
X145795997Y-104444803D02*
X159316064Y-104444803D01*
X145465800Y-105796000D02*
X145465800Y-104775000D01*
X146179500Y-105930700D02*
X145600500Y-105930700D01*
X166598600Y-80206982D02*
X166610423Y-80195159D01*
X145465800Y-104775000D02*
X145795997Y-104444803D01*
X166610423Y-78504041D02*
X166598600Y-78492218D01*
X145600500Y-105930700D02*
X145465800Y-105796000D01*
X159316064Y-104444803D02*
X161678267Y-102082600D01*
X165328600Y-102082600D02*
X166598600Y-100812600D01*
D44*
X134137400Y-63761610D02*
X133852224Y-63476434D01*
X134137400Y-64257500D02*
X134137400Y-63761610D01*
D45*
X136982200Y-105892600D02*
X136956800Y-105918000D01*
X137769600Y-105892600D02*
X136982200Y-105892600D01*
X163081600Y-70114600D02*
X163474410Y-69721790D01*
X163081600Y-70518600D02*
X163081600Y-70114600D01*
X163474410Y-69721790D02*
X163474410Y-67558581D01*
X161393331Y-66370200D02*
X161393331Y-66371931D01*
X163474410Y-67558581D02*
X162286029Y-66370200D01*
X162286029Y-66370200D02*
X161393331Y-66370200D01*
X160986948Y-66370200D02*
X161393331Y-66370200D01*
X158675496Y-64058748D02*
X160986948Y-66370200D01*
X152019000Y-63068200D02*
X153009548Y-64058748D01*
X153009548Y-64058748D02*
X158675496Y-64058748D01*
X136959300Y-105930700D02*
X136380299Y-105930699D01*
X166217589Y-100584011D02*
X166217589Y-80049163D01*
X136093200Y-104343200D02*
X136372608Y-104063792D01*
X136372608Y-104063792D02*
X159158245Y-104063792D01*
X136380299Y-105930699D02*
X136093200Y-105643600D01*
X159158245Y-104063792D02*
X161520448Y-101701589D01*
X165100011Y-101701589D02*
X166217589Y-100584011D01*
X161520448Y-101701589D02*
X165100011Y-101701589D01*
X166229412Y-75598580D02*
X166217589Y-75586757D01*
X166229412Y-80037340D02*
X166229412Y-78661860D01*
X163494391Y-67538600D02*
X163474410Y-67558581D01*
X166229412Y-78020620D02*
X166229412Y-75598580D01*
X166217589Y-78032443D02*
X166229412Y-78020620D01*
X166217589Y-78650037D02*
X166217589Y-78032443D01*
X166229412Y-78661860D02*
X166217589Y-78650037D01*
X166217589Y-67538600D02*
X163494391Y-67538600D01*
X136093200Y-105643600D02*
X136093200Y-104343200D01*
X166217589Y-80049163D02*
X166229412Y-80037340D01*
X166217589Y-75586757D02*
X166217589Y-67538600D01*
D44*
X131191000Y-63761610D02*
X130905824Y-63476434D01*
X131191000Y-64257500D02*
X131191000Y-63761610D01*
D45*
X128600200Y-105892600D02*
X127812800Y-105892600D01*
X127812800Y-105892600D02*
X127787400Y-105918000D01*
X147828000Y-60858400D02*
X131038600Y-60858400D01*
X149834600Y-62865000D02*
X147828000Y-60858400D01*
X149834600Y-63830200D02*
X149834600Y-62865000D01*
X160131600Y-71968600D02*
X158785800Y-71968600D01*
X158419800Y-66497200D02*
X157886400Y-65963800D01*
X131038600Y-60858400D02*
X130911600Y-60985400D01*
X158785800Y-71968600D02*
X158419800Y-71602600D01*
X151968200Y-65963800D02*
X149834600Y-63830200D01*
X158419800Y-71602600D02*
X158419800Y-66497200D01*
X157886400Y-65963800D02*
X151968200Y-65963800D01*
X159727600Y-71968600D02*
X160131600Y-71968600D01*
X159080200Y-73837800D02*
X159080200Y-72616000D01*
X159080200Y-72616000D02*
X159727600Y-71968600D01*
X165848401Y-78819679D02*
X165836578Y-78807856D01*
X164744400Y-73903579D02*
X164744400Y-73507600D01*
X126906100Y-105613200D02*
X126906100Y-104132300D01*
X164744400Y-74652398D02*
X164744400Y-73903579D01*
X165848401Y-75756399D02*
X164744400Y-74652398D01*
X165848401Y-79879521D02*
X165848401Y-78819679D01*
X165848401Y-77862801D02*
X165848401Y-75756399D01*
X165836578Y-77874624D02*
X165848401Y-77862801D01*
X159000426Y-103682781D02*
X161362629Y-101320578D01*
X165836578Y-78807856D02*
X165836578Y-77874624D01*
X165836578Y-79891344D02*
X165848401Y-79879521D01*
X127210900Y-105918000D02*
X126906100Y-105613200D01*
X165836578Y-100406222D02*
X165836578Y-79891344D01*
X164922222Y-101320578D02*
X165836578Y-100406222D01*
X126906100Y-104132300D02*
X127355619Y-103682781D01*
X127789900Y-105918000D02*
X127210900Y-105918000D01*
X161362629Y-101320578D02*
X164922222Y-101320578D01*
X127355619Y-103682781D02*
X159000426Y-103682781D01*
D44*
X137109200Y-66885810D02*
X136824024Y-66600634D01*
X137109200Y-67381700D02*
X137109200Y-66885810D01*
D45*
X118541800Y-105867200D02*
X118516400Y-105892600D01*
X119329200Y-105867200D02*
X118541800Y-105867200D01*
X158800811Y-67962811D02*
X158800811Y-66339381D01*
X150215611Y-62707181D02*
X147832830Y-60324400D01*
X158800811Y-66339381D02*
X158044219Y-65582789D01*
X150215611Y-63672381D02*
X150215611Y-62707181D01*
X140476979Y-60324400D02*
X140081000Y-60324400D01*
X152126019Y-65582789D02*
X150215611Y-63672381D01*
X147832830Y-60324400D02*
X140476979Y-60324400D01*
X158044219Y-65582789D02*
X152126019Y-65582789D01*
X158800811Y-67975549D02*
X158800811Y-67962811D01*
X159271535Y-68050294D02*
X158875556Y-68050294D01*
X158875556Y-68050294D02*
X158800811Y-67975549D01*
X160018000Y-69568600D02*
X158800811Y-68351411D01*
X160131600Y-69568600D02*
X160018000Y-69568600D01*
X158800811Y-68351411D02*
X158800811Y-67962811D01*
X118059230Y-103301770D02*
X158198847Y-103301770D01*
X158198847Y-103301770D02*
X158414895Y-103085722D01*
X117602000Y-105567400D02*
X117602000Y-103759000D01*
X117939900Y-105905300D02*
X117602000Y-105567400D01*
X117602000Y-103759000D02*
X118059230Y-103301770D01*
X118518900Y-105905300D02*
X117939900Y-105905300D01*
X158414895Y-103085722D02*
X158810874Y-103085722D01*
D44*
X134137400Y-67381700D02*
X134137400Y-66885810D01*
X134137400Y-66885810D02*
X133852224Y-66600634D01*
D45*
X132120379Y-60324400D02*
X131724400Y-60324400D01*
X161512611Y-68421611D02*
X161512611Y-67973521D01*
X147995478Y-59409388D02*
X137106890Y-59409388D01*
X136038888Y-60477390D02*
X132273369Y-60477390D01*
X161512611Y-67973521D02*
X158359857Y-64820767D01*
X137106890Y-59409388D02*
X136038888Y-60477390D01*
X158359857Y-64820767D02*
X152456197Y-64820767D01*
X150977633Y-63342203D02*
X150977633Y-62391543D01*
X132273369Y-60477390D02*
X132120379Y-60324400D01*
X150977633Y-62391543D02*
X147995478Y-59409388D01*
X161631600Y-68540600D02*
X161512611Y-68421611D01*
X152456197Y-64820767D02*
X150977633Y-63342203D01*
X161631600Y-69568600D02*
X161631600Y-68540600D01*
X161366200Y-67310600D02*
X161366200Y-67827111D01*
X108783200Y-105905300D02*
X108432600Y-105554700D01*
X108432600Y-105554700D02*
X108432600Y-103682800D01*
X158295745Y-102536855D02*
X158828091Y-102536855D01*
X108432600Y-103682800D02*
X109194640Y-102920760D01*
X109362200Y-105905300D02*
X108783200Y-105905300D01*
X157911840Y-102920760D02*
X158295745Y-102536855D01*
X158828091Y-102536855D02*
X159224070Y-102536855D01*
X109194640Y-102920760D02*
X157911840Y-102920760D01*
X109367155Y-105872445D02*
X109766820Y-105872445D01*
X109347000Y-105892600D02*
X109367155Y-105872445D01*
X109766820Y-105872445D02*
X110162799Y-105872445D01*
D44*
X131191000Y-67381700D02*
X131191000Y-66885810D01*
X131191000Y-66885810D02*
X130905824Y-66600634D01*
D45*
X158517676Y-64439756D02*
X160854520Y-66776600D01*
X151358644Y-63184384D02*
X152614016Y-64439756D01*
X150423548Y-61082252D02*
X151358644Y-62017348D01*
X151358644Y-62017348D02*
X151358644Y-63184384D01*
X160854520Y-66776600D02*
X162153600Y-66776600D01*
X162153600Y-66776600D02*
X163093400Y-67716400D01*
X162631600Y-69293600D02*
X162631600Y-69568600D01*
X163093400Y-67716400D02*
X163093400Y-68831800D01*
X152614016Y-64439756D02*
X158517676Y-64439756D01*
X163093400Y-68831800D02*
X162631600Y-69293600D01*
X100192800Y-105879900D02*
X99613800Y-105879900D01*
X99613800Y-105879900D02*
X99491800Y-105757900D01*
X157754021Y-102539750D02*
X158338171Y-101955600D01*
X159268421Y-101955600D02*
X159664400Y-101955600D01*
X158338171Y-101955600D02*
X159268421Y-101955600D01*
X99491800Y-105757900D02*
X99491800Y-103251000D01*
X99491800Y-103251000D02*
X100203050Y-102539750D01*
X100203050Y-102539750D02*
X157754021Y-102539750D01*
X100597406Y-105847054D02*
X100993385Y-105847054D01*
X100197746Y-105847054D02*
X100597406Y-105847054D01*
X100177600Y-105867200D02*
X100197746Y-105847054D01*
X162131600Y-71968600D02*
X162131600Y-73402600D01*
X162131600Y-73402600D02*
X162128200Y-73406000D01*
X162128200Y-74168000D02*
X162128200Y-73406000D01*
X161671000Y-74625200D02*
X162128200Y-74168000D01*
X158445200Y-74625200D02*
X161671000Y-74625200D01*
X157099000Y-75971400D02*
X158445200Y-74625200D01*
X152755600Y-75971400D02*
X157099000Y-75971400D01*
X148058900Y-71140400D02*
X148384100Y-70815200D01*
X148058900Y-71719400D02*
X148058900Y-71140400D01*
X150342600Y-70815200D02*
X151384000Y-71856600D01*
X151384000Y-71856600D02*
X151384000Y-74599800D01*
X148384100Y-70815200D02*
X150342600Y-70815200D01*
X151384000Y-74599800D02*
X152755600Y-75971400D01*
X161631600Y-72835800D02*
X161631600Y-71968600D01*
X161391600Y-73075800D02*
X161631600Y-72835800D01*
X162631600Y-71968600D02*
X163713400Y-71968600D01*
X163713400Y-71968600D02*
X163880800Y-72136000D01*
X160631600Y-69568600D02*
X160631600Y-68607400D01*
X160631600Y-68607400D02*
X160248600Y-68224400D01*
X91008200Y-105816400D02*
X90982800Y-105841800D01*
X91795600Y-105816400D02*
X91008200Y-105816400D01*
X162662201Y-68040393D02*
X162068104Y-67446296D01*
X162662201Y-68556921D02*
X162662201Y-68040393D01*
X162131600Y-69568600D02*
X162131600Y-69087522D01*
X162131600Y-69087522D02*
X162662201Y-68556921D01*
X90403800Y-105841800D02*
X89992200Y-105430200D01*
X90982800Y-105841800D02*
X90403800Y-105841800D01*
X89992200Y-105430200D02*
X89992200Y-102793800D01*
X90627260Y-102158740D02*
X100045231Y-102158740D01*
X89992200Y-102793800D02*
X90627260Y-102158740D01*
X100045231Y-102158740D02*
X108879002Y-102158740D01*
X108879002Y-102158740D02*
X154127200Y-102158740D01*
X154127200Y-102158740D02*
X157378460Y-102158740D01*
X157378460Y-102158740D02*
X157784800Y-101752400D01*
X94184800Y-106491800D02*
X94233300Y-106540300D01*
X92882800Y-106491800D02*
X94184800Y-106491800D01*
X129687400Y-106568000D02*
X130989400Y-106568000D01*
X130989400Y-106568000D02*
X131037900Y-106616500D01*
X83916800Y-75158600D02*
X83868300Y-75110100D01*
X85216300Y-75158600D02*
X83916800Y-75158600D01*
X103379600Y-106517200D02*
X103428100Y-106565700D01*
X102077600Y-106517200D02*
X103379600Y-106517200D01*
X138856800Y-106568000D02*
X140158800Y-106568000D01*
X140158800Y-106568000D02*
X140207300Y-106616500D01*
X121718400Y-106542600D02*
X121766900Y-106591100D01*
X120416400Y-106542600D02*
X121718400Y-106542600D01*
X112549000Y-106542600D02*
X112597500Y-106591100D01*
X111247000Y-106542600D02*
X112549000Y-106542600D01*
X149379000Y-106568000D02*
X149427500Y-106616500D01*
X148077000Y-106568000D02*
X149379000Y-106568000D01*
X83916800Y-78282800D02*
X83868300Y-78234300D01*
X85216300Y-78282800D02*
X83916800Y-78282800D01*
X103416800Y-80455200D02*
X98755200Y-75793600D01*
X105460800Y-80455200D02*
X103416800Y-80455200D01*
X122784300Y-80442500D02*
X118135400Y-75793600D01*
X124599700Y-80442500D02*
X122784300Y-80442500D01*
X142748700Y-80467900D02*
X138074400Y-75793600D01*
X144487900Y-80467900D02*
X142748700Y-80467900D01*
X106022800Y-76913700D02*
X105460800Y-76351700D01*
X107218300Y-76913700D02*
X106022800Y-76913700D01*
X107218300Y-75419700D02*
X107504800Y-75133200D01*
X107218300Y-76913700D02*
X107218300Y-75419700D01*
D44*
X162926021Y-84734400D02*
X162722821Y-84937600D01*
X163322000Y-84734400D02*
X162926021Y-84734400D01*
X80975200Y-84937600D02*
X80822800Y-84785200D01*
X89611200Y-85445600D02*
X90119200Y-84937600D01*
X90119200Y-84937600D02*
X90474800Y-84937600D01*
X162722821Y-84937600D02*
X90474800Y-84937600D01*
X90474800Y-84937600D02*
X80975200Y-84937600D01*
X99314000Y-84937600D02*
X99669600Y-84937600D01*
X108508800Y-84937600D02*
X108864400Y-84937600D01*
X117703600Y-84937600D02*
X118059200Y-84937600D01*
X126898400Y-84937600D02*
X127254000Y-84937600D01*
X136093200Y-84937600D02*
X136448800Y-84937600D01*
X145288000Y-84937600D02*
X145643600Y-84937600D01*
X154482800Y-84937600D02*
X154838400Y-84937600D01*
X98806000Y-85445600D02*
X99314000Y-84937600D01*
X108000800Y-85445600D02*
X108508800Y-84937600D01*
X117195600Y-85445600D02*
X117703600Y-84937600D01*
X126390400Y-85445600D02*
X126898400Y-84937600D01*
X135585200Y-85445600D02*
X136093200Y-84937600D01*
X144780000Y-85445600D02*
X145288000Y-84937600D01*
X153974800Y-85445600D02*
X154482800Y-84937600D01*
D45*
X160360400Y-79400400D02*
X161671000Y-79400400D01*
X161950400Y-79679800D02*
X161950400Y-80302800D01*
X161671000Y-79400400D02*
X161950400Y-79679800D01*
X77226400Y-72158400D02*
X78677200Y-73609200D01*
X77226400Y-72019200D02*
X77226400Y-72158400D01*
D44*
X157982900Y-95719900D02*
X157284400Y-95021400D01*
X157284400Y-95021400D02*
X157284400Y-86258400D01*
X148792900Y-95719900D02*
X148094400Y-95021400D01*
X148094400Y-95021400D02*
X148094400Y-86258400D01*
X139602900Y-95719900D02*
X138904400Y-95021400D01*
X138904400Y-95021400D02*
X138904400Y-86258400D01*
X130412900Y-95719900D02*
X129714400Y-95021400D01*
X129714400Y-95021400D02*
X129714400Y-86258400D01*
X121222900Y-95719900D02*
X120524400Y-95021400D01*
X120524400Y-95021400D02*
X120524400Y-86258400D01*
X112032900Y-95719900D02*
X111334400Y-95021400D01*
X111334400Y-95021400D02*
X111334400Y-86258400D01*
X102842900Y-95719900D02*
X102144400Y-95021400D01*
X102144400Y-95021400D02*
X102144400Y-86258400D01*
X93652900Y-95719900D02*
X92954400Y-95021400D01*
X92954400Y-95021400D02*
X92954400Y-86258400D01*
X84462900Y-95719900D02*
X83764400Y-95021400D01*
X83764400Y-95021400D02*
X83764400Y-86258400D01*
X75272900Y-95719900D02*
X74574400Y-95021400D01*
X74574400Y-95021400D02*
X74574400Y-86258400D01*
X136759200Y-64995100D02*
X136609919Y-64995100D01*
X136609919Y-64995100D02*
X136262133Y-64647314D01*
X133787400Y-64995100D02*
X133638119Y-64995100D01*
X133638119Y-64995100D02*
X133290333Y-64647314D01*
X130841000Y-64969700D02*
X130719911Y-64969700D01*
X130719911Y-64969700D02*
X130616327Y-64866116D01*
X130616327Y-64866116D02*
X130336328Y-64586117D01*
X136609919Y-68093900D02*
X136262133Y-67746114D01*
X136759200Y-68093900D02*
X136609919Y-68093900D01*
X133638119Y-68093900D02*
X133290333Y-67746114D01*
X133787400Y-68093900D02*
X133638119Y-68093900D01*
D45*
X140258800Y-67309400D02*
X138277000Y-69291200D01*
X134087202Y-69850602D02*
X134087199Y-69850599D01*
X136223124Y-69291200D02*
X135663722Y-69850602D01*
X138277000Y-69291200D02*
X136223124Y-69291200D01*
X134087199Y-69850599D02*
X133807200Y-69570600D01*
X135663722Y-69850602D02*
X134087202Y-69850602D01*
D44*
X130841000Y-68093900D02*
X130691719Y-68093900D01*
X130691719Y-68093900D02*
X130343933Y-67746114D01*
X158262901Y-88200899D02*
X157665400Y-88798400D01*
X157665400Y-92989400D02*
X157665400Y-93788900D01*
X158262901Y-86157401D02*
X158262901Y-88200899D01*
X157665400Y-88798400D02*
X157665400Y-92989400D01*
X157665400Y-93788900D02*
X157881900Y-94005400D01*
X157665400Y-85559900D02*
X158262901Y-86157401D01*
X161512921Y-90665899D02*
X161792920Y-90385900D01*
X161157900Y-92731902D02*
X161157900Y-91020920D01*
X161859898Y-93433900D02*
X161157900Y-92731902D01*
X161157900Y-91020920D02*
X161512921Y-90665899D01*
X161861400Y-86893400D02*
X160268900Y-86893400D01*
X163062900Y-90639900D02*
X163062900Y-88036406D01*
X163163907Y-87935399D02*
X163443906Y-87655400D01*
X163062900Y-88036406D02*
X163163907Y-87935399D01*
X161856400Y-91846400D02*
X163062900Y-90639900D01*
X163036901Y-87184896D02*
X163316900Y-86904897D01*
X160339888Y-90993919D02*
X160339888Y-89881909D01*
X160339888Y-89881909D02*
X163036901Y-87184896D01*
X162427900Y-94830900D02*
X162427900Y-96989900D01*
X163697900Y-93560900D02*
X162427900Y-94830900D01*
X161919900Y-97497900D02*
X159283400Y-97497900D01*
X162427900Y-96989900D02*
X161919900Y-97497900D01*
X161538900Y-94957900D02*
X159283400Y-94957900D01*
X162935900Y-93560900D02*
X161538900Y-94957900D01*
X163634400Y-91211400D02*
X162935900Y-91909900D01*
X162935900Y-91909900D02*
X162935900Y-93560900D01*
X149072901Y-88200899D02*
X148475400Y-88798400D01*
X148475400Y-92989400D02*
X148475400Y-93788900D01*
X149072901Y-86157401D02*
X149072901Y-88200899D01*
X148475400Y-88798400D02*
X148475400Y-92989400D01*
X148475400Y-93788900D02*
X148691900Y-94005400D01*
X148475400Y-85559900D02*
X149072901Y-86157401D01*
X152322921Y-90665899D02*
X152602920Y-90385900D01*
X151967900Y-92731902D02*
X151967900Y-91020920D01*
X152669898Y-93433900D02*
X151967900Y-92731902D01*
X151967900Y-91020920D02*
X152322921Y-90665899D01*
X152671400Y-86893400D02*
X151078900Y-86893400D01*
X153872900Y-90639900D02*
X153872900Y-88036406D01*
X153973907Y-87935399D02*
X154253906Y-87655400D01*
X153872900Y-88036406D02*
X153973907Y-87935399D01*
X152666400Y-91846400D02*
X153872900Y-90639900D01*
X153846901Y-87184896D02*
X154126900Y-86904897D01*
X151149888Y-90993919D02*
X151149888Y-89881909D01*
X151149888Y-89881909D02*
X153846901Y-87184896D01*
X153237900Y-94830900D02*
X153237900Y-96989900D01*
X154507900Y-93560900D02*
X153237900Y-94830900D01*
X152729900Y-97497900D02*
X150093400Y-97497900D01*
X153237900Y-96989900D02*
X152729900Y-97497900D01*
X152348900Y-94957900D02*
X150093400Y-94957900D01*
X153745900Y-93560900D02*
X152348900Y-94957900D01*
X154444400Y-91211400D02*
X153745900Y-91909900D01*
X153745900Y-91909900D02*
X153745900Y-93560900D01*
X139882901Y-88200899D02*
X139285400Y-88798400D01*
X139285400Y-92989400D02*
X139285400Y-93788900D01*
X139882901Y-86157401D02*
X139882901Y-88200899D01*
X139285400Y-88798400D02*
X139285400Y-92989400D01*
X139285400Y-93788900D02*
X139501900Y-94005400D01*
X139285400Y-85559900D02*
X139882901Y-86157401D01*
X143132921Y-90665899D02*
X143412920Y-90385900D01*
X142777900Y-92731902D02*
X142777900Y-91020920D01*
X143479898Y-93433900D02*
X142777900Y-92731902D01*
X142777900Y-91020920D02*
X143132921Y-90665899D01*
X143481400Y-86893400D02*
X141888900Y-86893400D01*
X144682900Y-90639900D02*
X144682900Y-88036406D01*
X144783907Y-87935399D02*
X145063906Y-87655400D01*
X144682900Y-88036406D02*
X144783907Y-87935399D01*
X143476400Y-91846400D02*
X144682900Y-90639900D01*
X144656901Y-87184896D02*
X144936900Y-86904897D01*
X141959888Y-90993919D02*
X141959888Y-89881909D01*
X141959888Y-89881909D02*
X144656901Y-87184896D01*
X144047900Y-94830900D02*
X144047900Y-96989900D01*
X145317900Y-93560900D02*
X144047900Y-94830900D01*
X143539900Y-97497900D02*
X140903400Y-97497900D01*
X144047900Y-96989900D02*
X143539900Y-97497900D01*
X143158900Y-94957900D02*
X140903400Y-94957900D01*
X144555900Y-93560900D02*
X143158900Y-94957900D01*
X145254400Y-91211400D02*
X144555900Y-91909900D01*
X144555900Y-91909900D02*
X144555900Y-93560900D01*
X130692901Y-88200899D02*
X130095400Y-88798400D01*
X130095400Y-92989400D02*
X130095400Y-93788900D01*
X130692901Y-86157401D02*
X130692901Y-88200899D01*
X130095400Y-88798400D02*
X130095400Y-92989400D01*
X130095400Y-93788900D02*
X130311900Y-94005400D01*
X130095400Y-85559900D02*
X130692901Y-86157401D01*
X133942921Y-90665899D02*
X134222920Y-90385900D01*
X133587900Y-92731902D02*
X133587900Y-91020920D01*
X134289898Y-93433900D02*
X133587900Y-92731902D01*
X133587900Y-91020920D02*
X133942921Y-90665899D01*
X134291400Y-86893400D02*
X132698900Y-86893400D01*
X135492900Y-90639900D02*
X135492900Y-88036406D01*
X135593907Y-87935399D02*
X135873906Y-87655400D01*
X135492900Y-88036406D02*
X135593907Y-87935399D01*
X134286400Y-91846400D02*
X135492900Y-90639900D01*
X135466901Y-87184896D02*
X135746900Y-86904897D01*
X132769888Y-90993919D02*
X132769888Y-89881909D01*
X132769888Y-89881909D02*
X135466901Y-87184896D01*
X134857900Y-94830900D02*
X134857900Y-96989900D01*
X136127900Y-93560900D02*
X134857900Y-94830900D01*
X134349900Y-97497900D02*
X131713400Y-97497900D01*
X134857900Y-96989900D02*
X134349900Y-97497900D01*
X133968900Y-94957900D02*
X131713400Y-94957900D01*
X135365900Y-93560900D02*
X133968900Y-94957900D01*
X136064400Y-91211400D02*
X135365900Y-91909900D01*
X135365900Y-91909900D02*
X135365900Y-93560900D01*
X121502901Y-88200899D02*
X120905400Y-88798400D01*
X120905400Y-92989400D02*
X120905400Y-93788900D01*
X121502901Y-86157401D02*
X121502901Y-88200899D01*
X120905400Y-88798400D02*
X120905400Y-92989400D01*
X120905400Y-93788900D02*
X121121900Y-94005400D01*
X120905400Y-85559900D02*
X121502901Y-86157401D01*
X124752921Y-90665899D02*
X125032920Y-90385900D01*
X124397900Y-92731902D02*
X124397900Y-91020920D01*
X125099898Y-93433900D02*
X124397900Y-92731902D01*
X124397900Y-91020920D02*
X124752921Y-90665899D01*
X125101400Y-86893400D02*
X123508900Y-86893400D01*
X126302900Y-90639900D02*
X126302900Y-88036406D01*
X126403907Y-87935399D02*
X126683906Y-87655400D01*
X126302900Y-88036406D02*
X126403907Y-87935399D01*
X125096400Y-91846400D02*
X126302900Y-90639900D01*
X126276901Y-87184896D02*
X126556900Y-86904897D01*
X123579888Y-90993919D02*
X123579888Y-89881909D01*
X123579888Y-89881909D02*
X126276901Y-87184896D01*
X125667900Y-94830900D02*
X125667900Y-96989900D01*
X126937900Y-93560900D02*
X125667900Y-94830900D01*
X125159900Y-97497900D02*
X122523400Y-97497900D01*
X125667900Y-96989900D02*
X125159900Y-97497900D01*
X124778900Y-94957900D02*
X122523400Y-94957900D01*
X126175900Y-93560900D02*
X124778900Y-94957900D01*
X126874400Y-91211400D02*
X126175900Y-91909900D01*
X126175900Y-91909900D02*
X126175900Y-93560900D01*
X112312901Y-88200899D02*
X111715400Y-88798400D01*
X111715400Y-92989400D02*
X111715400Y-93788900D01*
X112312901Y-86157401D02*
X112312901Y-88200899D01*
X111715400Y-88798400D02*
X111715400Y-92989400D01*
X111715400Y-93788900D02*
X111931900Y-94005400D01*
X111715400Y-85559900D02*
X112312901Y-86157401D01*
X115562921Y-90665899D02*
X115842920Y-90385900D01*
X115207900Y-92731902D02*
X115207900Y-91020920D01*
X115909898Y-93433900D02*
X115207900Y-92731902D01*
X115207900Y-91020920D02*
X115562921Y-90665899D01*
X115911400Y-86893400D02*
X114318900Y-86893400D01*
X117112900Y-90639900D02*
X117112900Y-88036406D01*
X117213907Y-87935399D02*
X117493906Y-87655400D01*
X117112900Y-88036406D02*
X117213907Y-87935399D01*
X115906400Y-91846400D02*
X117112900Y-90639900D01*
X117086901Y-87184896D02*
X117366900Y-86904897D01*
X114389888Y-90993919D02*
X114389888Y-89881909D01*
X114389888Y-89881909D02*
X117086901Y-87184896D01*
X116477900Y-94830900D02*
X116477900Y-96989900D01*
X117747900Y-93560900D02*
X116477900Y-94830900D01*
X115969900Y-97497900D02*
X113333400Y-97497900D01*
X116477900Y-96989900D02*
X115969900Y-97497900D01*
X115588900Y-94957900D02*
X113333400Y-94957900D01*
X116985900Y-93560900D02*
X115588900Y-94957900D01*
X117684400Y-91211400D02*
X116985900Y-91909900D01*
X116985900Y-91909900D02*
X116985900Y-93560900D01*
X103122901Y-88200899D02*
X102525400Y-88798400D01*
X102525400Y-92989400D02*
X102525400Y-93788900D01*
X103122901Y-86157401D02*
X103122901Y-88200899D01*
X102525400Y-88798400D02*
X102525400Y-92989400D01*
X102525400Y-93788900D02*
X102741900Y-94005400D01*
X102525400Y-85559900D02*
X103122901Y-86157401D01*
X106372921Y-90665899D02*
X106652920Y-90385900D01*
X106017900Y-92731902D02*
X106017900Y-91020920D01*
X106719898Y-93433900D02*
X106017900Y-92731902D01*
X106017900Y-91020920D02*
X106372921Y-90665899D01*
X106721400Y-86893400D02*
X105128900Y-86893400D01*
X107922900Y-90639900D02*
X107922900Y-88036406D01*
X108023907Y-87935399D02*
X108303906Y-87655400D01*
X107922900Y-88036406D02*
X108023907Y-87935399D01*
X106716400Y-91846400D02*
X107922900Y-90639900D01*
X107896901Y-87184896D02*
X108176900Y-86904897D01*
X105199888Y-90993919D02*
X105199888Y-89881909D01*
X105199888Y-89881909D02*
X107896901Y-87184896D01*
X107287900Y-94830900D02*
X107287900Y-96989900D01*
X108557900Y-93560900D02*
X107287900Y-94830900D01*
X106779900Y-97497900D02*
X104143400Y-97497900D01*
X107287900Y-96989900D02*
X106779900Y-97497900D01*
X106398900Y-94957900D02*
X104143400Y-94957900D01*
X107795900Y-93560900D02*
X106398900Y-94957900D01*
X108494400Y-91211400D02*
X107795900Y-91909900D01*
X107795900Y-91909900D02*
X107795900Y-93560900D01*
X93932901Y-88200899D02*
X93335400Y-88798400D01*
X93335400Y-92989400D02*
X93335400Y-93788900D01*
X93932901Y-86157401D02*
X93932901Y-88200899D01*
X93335400Y-88798400D02*
X93335400Y-92989400D01*
X93335400Y-93788900D02*
X93551900Y-94005400D01*
X93335400Y-85559900D02*
X93932901Y-86157401D01*
X97182921Y-90665899D02*
X97462920Y-90385900D01*
X96827900Y-92731902D02*
X96827900Y-91020920D01*
X97529898Y-93433900D02*
X96827900Y-92731902D01*
X96827900Y-91020920D02*
X97182921Y-90665899D01*
X97531400Y-86893400D02*
X95938900Y-86893400D01*
X98732900Y-90639900D02*
X98732900Y-88036406D01*
X98833907Y-87935399D02*
X99113906Y-87655400D01*
X98732900Y-88036406D02*
X98833907Y-87935399D01*
X97526400Y-91846400D02*
X98732900Y-90639900D01*
X98706901Y-87184896D02*
X98986900Y-86904897D01*
X96009888Y-90993919D02*
X96009888Y-89881909D01*
X96009888Y-89881909D02*
X98706901Y-87184896D01*
X98097900Y-94830900D02*
X98097900Y-96989900D01*
X99367900Y-93560900D02*
X98097900Y-94830900D01*
X97589900Y-97497900D02*
X94953400Y-97497900D01*
X98097900Y-96989900D02*
X97589900Y-97497900D01*
X97208900Y-94957900D02*
X94953400Y-94957900D01*
X98605900Y-93560900D02*
X97208900Y-94957900D01*
X99304400Y-91211400D02*
X98605900Y-91909900D01*
X98605900Y-91909900D02*
X98605900Y-93560900D01*
X84742901Y-88200899D02*
X84145400Y-88798400D01*
X84145400Y-92989400D02*
X84145400Y-93788900D01*
X84742901Y-86157401D02*
X84742901Y-88200899D01*
X84145400Y-88798400D02*
X84145400Y-92989400D01*
X84145400Y-93788900D02*
X84361900Y-94005400D01*
X84145400Y-85559900D02*
X84742901Y-86157401D01*
X87992921Y-90665899D02*
X88272920Y-90385900D01*
X87637900Y-92731902D02*
X87637900Y-91020920D01*
X88339898Y-93433900D02*
X87637900Y-92731902D01*
X87637900Y-91020920D02*
X87992921Y-90665899D01*
X88341400Y-86893400D02*
X86748900Y-86893400D01*
X89542900Y-90639900D02*
X89542900Y-88036406D01*
X89643907Y-87935399D02*
X89923906Y-87655400D01*
X89542900Y-88036406D02*
X89643907Y-87935399D01*
X88336400Y-91846400D02*
X89542900Y-90639900D01*
X89516901Y-87184896D02*
X89796900Y-86904897D01*
X86819888Y-90993919D02*
X86819888Y-89881909D01*
X86819888Y-89881909D02*
X89516901Y-87184896D01*
X88907900Y-94830900D02*
X88907900Y-96989900D01*
X90177900Y-93560900D02*
X88907900Y-94830900D01*
X88399900Y-97497900D02*
X85763400Y-97497900D01*
X88907900Y-96989900D02*
X88399900Y-97497900D01*
X88018900Y-94957900D02*
X85763400Y-94957900D01*
X89415900Y-93560900D02*
X88018900Y-94957900D01*
X90114400Y-91211400D02*
X89415900Y-91909900D01*
X89415900Y-91909900D02*
X89415900Y-93560900D01*
X74955400Y-85559900D02*
X75552901Y-86157401D01*
X74955400Y-88798400D02*
X74955400Y-92989400D01*
X75552901Y-88200899D02*
X74955400Y-88798400D01*
X75552901Y-86157401D02*
X75552901Y-88200899D01*
X74955400Y-92989400D02*
X74955400Y-93788900D01*
X74955400Y-93788900D02*
X75171900Y-94005400D01*
X79149898Y-93433900D02*
X78447900Y-92731902D01*
X78447900Y-92731902D02*
X78447900Y-91020920D01*
X78802921Y-90665899D02*
X79082920Y-90385900D01*
X78447900Y-91020920D02*
X78802921Y-90665899D01*
X79151400Y-86893400D02*
X77558900Y-86893400D01*
X80352900Y-88036406D02*
X80453907Y-87935399D01*
X80453907Y-87935399D02*
X80733906Y-87655400D01*
X79146400Y-91846400D02*
X80352900Y-90639900D01*
X80352900Y-90639900D02*
X80352900Y-88036406D01*
X80326901Y-87184896D02*
X80606900Y-86904897D01*
X77629888Y-89881909D02*
X80326901Y-87184896D01*
X77629888Y-90993919D02*
X77629888Y-89881909D01*
D45*
X77876400Y-70698200D02*
X78145800Y-70967600D01*
X77876400Y-70119200D02*
X77876400Y-70698200D01*
X78145800Y-70967600D02*
X78968600Y-70967600D01*
X78968600Y-70967600D02*
X79476600Y-71475600D01*
X79476600Y-71475600D02*
X79476600Y-81000600D01*
X79476600Y-81000600D02*
X79502000Y-81026000D01*
D44*
X79209900Y-97497900D02*
X76573400Y-97497900D01*
X79717900Y-96989900D02*
X79209900Y-97497900D01*
X80987900Y-93560900D02*
X79717900Y-94830900D01*
X79717900Y-94830900D02*
X79717900Y-96989900D01*
X78828900Y-94957900D02*
X76573400Y-94957900D01*
X80225900Y-93560900D02*
X78828900Y-94957900D01*
X80924400Y-91211400D02*
X80225900Y-91909900D01*
X80225900Y-91909900D02*
X80225900Y-93560900D01*
D45*
X103741600Y-64765500D02*
X103329100Y-64353000D01*
X103741600Y-65590500D02*
X103741600Y-64765500D01*
X102019100Y-69139500D02*
X103606600Y-69139500D01*
X105130600Y-69139500D02*
X105194100Y-69203000D01*
X103606600Y-69139500D02*
X105130600Y-69139500D01*
X97332100Y-66230500D02*
X98056700Y-66230500D01*
X98056700Y-66230500D02*
X98069400Y-66217800D01*
X103606600Y-69139500D02*
X103606600Y-68376800D01*
X108254800Y-74383200D02*
X108254800Y-73606700D01*
X109004800Y-75133200D02*
X108254800Y-74383200D01*
X102019100Y-67017900D02*
X102019100Y-67639500D01*
X102031800Y-67005200D02*
X102019100Y-67017900D01*
X104120868Y-67005200D02*
X102031800Y-67005200D01*
X105241600Y-66310000D02*
X105003600Y-66548000D01*
X105241600Y-65590500D02*
X105241600Y-66310000D01*
X105003600Y-66548000D02*
X104698800Y-66548000D01*
X104698800Y-66548000D02*
X104578812Y-66667988D01*
X104578812Y-66667988D02*
X104458080Y-66667988D01*
X104458080Y-66667988D02*
X104120868Y-67005200D01*
X113919000Y-66840800D02*
X113919000Y-67944300D01*
X114623000Y-66840800D02*
X114914400Y-67132200D01*
X113919000Y-66840800D02*
X114623000Y-66840800D01*
X114914400Y-67132200D02*
X118313200Y-67132200D01*
X118858600Y-66586800D02*
X118858600Y-65952900D01*
X118313200Y-67132200D02*
X118858600Y-66586800D01*
X122148600Y-61671900D02*
X120561100Y-61671900D01*
X120358600Y-61874400D02*
X120561100Y-61671900D01*
X120358600Y-63002900D02*
X120358600Y-61874400D01*
X126643700Y-76614500D02*
X126357200Y-76901000D01*
X126643700Y-75120500D02*
X126643700Y-76614500D01*
X125161700Y-76901000D02*
X124599700Y-76339000D01*
X126357200Y-76901000D02*
X125161700Y-76901000D01*
X146308900Y-75622900D02*
X146658900Y-75272900D01*
X146308900Y-77053400D02*
X146308900Y-75622900D01*
X145240400Y-77053400D02*
X144487900Y-76300900D01*
X146308900Y-77053400D02*
X145240400Y-77053400D01*
X110340800Y-71706700D02*
X110540800Y-71906700D01*
X108904800Y-71706700D02*
X110340800Y-71706700D01*
X110540800Y-71906700D02*
X110540800Y-71907400D01*
X110540800Y-71907400D02*
X111353600Y-72720200D01*
X128143700Y-79214500D02*
X128557200Y-78801000D01*
X128143700Y-80454500D02*
X128143700Y-79214500D01*
X126215700Y-78942500D02*
X126357200Y-78801000D01*
X124599700Y-78942500D02*
X126215700Y-78942500D01*
X126643700Y-79087500D02*
X126357200Y-78801000D01*
X126643700Y-80454500D02*
X126643700Y-79087500D01*
X148158900Y-79303400D02*
X148508900Y-78953400D01*
X148158900Y-80606900D02*
X148158900Y-79303400D01*
X144502400Y-78953400D02*
X144487900Y-78967900D01*
X146308900Y-78953400D02*
X144502400Y-78953400D01*
X146658900Y-79303400D02*
X146308900Y-78953400D01*
X146658900Y-80606900D02*
X146658900Y-79303400D01*
D43*
X109418300Y-77863700D02*
X109418300Y-76913700D01*
X109418300Y-76913700D02*
X108282700Y-76913700D01*
X108282700Y-76913700D02*
X108254800Y-76885800D01*
X128445400Y-77012800D02*
X128557200Y-76901000D01*
X127482600Y-77012800D02*
X128445400Y-77012800D01*
X128557200Y-77851000D02*
X128557200Y-76901000D01*
X148508900Y-78003400D02*
X148508900Y-77053400D01*
X148508900Y-77053400D02*
X147513000Y-77053400D01*
X147513000Y-77053400D02*
X147497800Y-77038200D01*
D45*
X127393700Y-74370500D02*
X127393700Y-73594000D01*
X128143700Y-75120500D02*
X127393700Y-74370500D01*
X147408900Y-74522900D02*
X147408900Y-73619400D01*
X148158900Y-75272900D02*
X147408900Y-74522900D01*
G36*
X102109841Y-62013238D02*
G01*
X102149945Y-62039509D01*
X102172819Y-62072689D01*
X102145889Y-62094789D01*
X102098278Y-62152804D01*
X102062899Y-62218992D01*
X102041113Y-62290811D01*
X102033757Y-62365500D01*
X102033757Y-63182657D01*
X101868141Y-63182657D01*
X101866547Y-63182500D01*
X101230544Y-63182500D01*
X101205600Y-63180043D01*
X101180656Y-63182500D01*
X101180653Y-63182500D01*
X101106015Y-63189851D01*
X101010257Y-63218899D01*
X100969176Y-63240857D01*
X100922004Y-63266071D01*
X100867410Y-63310876D01*
X100844652Y-63329552D01*
X100828750Y-63348929D01*
X100525279Y-63652400D01*
X97084853Y-63652400D01*
X97060172Y-63654821D01*
X96963330Y-63674007D01*
X96939500Y-63681216D01*
X96917697Y-63692827D01*
X96835485Y-63747486D01*
X96816203Y-63763236D01*
X96800473Y-63782284D01*
X96745311Y-63864160D01*
X96733491Y-63886072D01*
X96726212Y-63909677D01*
X96706433Y-64006399D01*
X96703860Y-64031065D01*
X96674024Y-68898782D01*
X96661798Y-68958609D01*
X96634783Y-68998738D01*
X96594519Y-69025545D01*
X96534629Y-69037464D01*
X86753642Y-69047249D01*
X86693441Y-69035329D01*
X86653002Y-69008346D01*
X86625982Y-68967939D01*
X86614000Y-68907744D01*
X86614000Y-63493643D01*
X90015000Y-63493643D01*
X90089689Y-63486287D01*
X90161508Y-63464501D01*
X90227696Y-63429122D01*
X90285711Y-63381511D01*
X90333322Y-63323496D01*
X90368701Y-63257308D01*
X90390487Y-63185489D01*
X90397843Y-63110800D01*
X90397843Y-62012756D01*
X102050442Y-62001649D01*
X102109841Y-62013238D01*
X102109841Y-62013238D01*
G37*
X102109841Y-62013238D02*
X102149945Y-62039509D01*
X102172819Y-62072689D01*
X102145889Y-62094789D01*
X102098278Y-62152804D01*
X102062899Y-62218992D01*
X102041113Y-62290811D01*
X102033757Y-62365500D01*
X102033757Y-63182657D01*
X101868141Y-63182657D01*
X101866547Y-63182500D01*
X101230544Y-63182500D01*
X101205600Y-63180043D01*
X101180656Y-63182500D01*
X101180653Y-63182500D01*
X101106015Y-63189851D01*
X101010257Y-63218899D01*
X100969176Y-63240857D01*
X100922004Y-63266071D01*
X100867410Y-63310876D01*
X100844652Y-63329552D01*
X100828750Y-63348929D01*
X100525279Y-63652400D01*
X97084853Y-63652400D01*
X97060172Y-63654821D01*
X96963330Y-63674007D01*
X96939500Y-63681216D01*
X96917697Y-63692827D01*
X96835485Y-63747486D01*
X96816203Y-63763236D01*
X96800473Y-63782284D01*
X96745311Y-63864160D01*
X96733491Y-63886072D01*
X96726212Y-63909677D01*
X96706433Y-64006399D01*
X96703860Y-64031065D01*
X96674024Y-68898782D01*
X96661798Y-68958609D01*
X96634783Y-68998738D01*
X96594519Y-69025545D01*
X96534629Y-69037464D01*
X86753642Y-69047249D01*
X86693441Y-69035329D01*
X86653002Y-69008346D01*
X86625982Y-68967939D01*
X86614000Y-68907744D01*
X86614000Y-63493643D01*
X90015000Y-63493643D01*
X90089689Y-63486287D01*
X90161508Y-63464501D01*
X90227696Y-63429122D01*
X90285711Y-63381511D01*
X90333322Y-63323496D01*
X90368701Y-63257308D01*
X90390487Y-63185489D01*
X90397843Y-63110800D01*
X90397843Y-62012756D01*
X102050442Y-62001649D01*
X102109841Y-62013238D01*
G36*
X112442649Y-60489367D02*
G01*
X112483043Y-60516357D01*
X112510033Y-60556751D01*
X112522000Y-60616910D01*
X112522000Y-64211200D01*
X112524440Y-64235977D01*
X112543775Y-64333179D01*
X112551002Y-64357003D01*
X112562738Y-64378959D01*
X112617798Y-64461362D01*
X112633592Y-64480608D01*
X112652838Y-64496402D01*
X112735241Y-64551462D01*
X112757197Y-64563198D01*
X112781021Y-64570425D01*
X112878223Y-64589760D01*
X112903000Y-64592200D01*
X118300690Y-64592200D01*
X118325757Y-64597186D01*
X118325757Y-65377900D01*
X118333113Y-65452589D01*
X118354899Y-65524408D01*
X118361622Y-65536985D01*
X118335284Y-65623806D01*
X118327600Y-65701816D01*
X118327600Y-65933047D01*
X118300690Y-65938400D01*
X107873800Y-65938400D01*
X107873800Y-63835643D01*
X107876257Y-63810699D01*
X107873800Y-63785753D01*
X107866449Y-63711115D01*
X107837401Y-63615357D01*
X107790229Y-63527105D01*
X107726748Y-63449752D01*
X107707365Y-63433845D01*
X107622455Y-63348935D01*
X107606548Y-63329552D01*
X107529195Y-63266071D01*
X107440943Y-63218899D01*
X107345185Y-63189851D01*
X107270547Y-63182500D01*
X107270544Y-63182500D01*
X107245600Y-63180043D01*
X107220656Y-63182500D01*
X106616653Y-63182500D01*
X106615059Y-63182657D01*
X106449443Y-63182657D01*
X106449443Y-62365500D01*
X106442087Y-62290811D01*
X106420301Y-62218992D01*
X106384922Y-62152804D01*
X106337311Y-62094789D01*
X106299000Y-62063348D01*
X106299000Y-60616910D01*
X106310967Y-60556751D01*
X106337957Y-60516357D01*
X106378351Y-60489367D01*
X106438510Y-60477400D01*
X112382490Y-60477400D01*
X112442649Y-60489367D01*
X112442649Y-60489367D01*
G37*
X112442649Y-60489367D02*
X112483043Y-60516357D01*
X112510033Y-60556751D01*
X112522000Y-60616910D01*
X112522000Y-64211200D01*
X112524440Y-64235977D01*
X112543775Y-64333179D01*
X112551002Y-64357003D01*
X112562738Y-64378959D01*
X112617798Y-64461362D01*
X112633592Y-64480608D01*
X112652838Y-64496402D01*
X112735241Y-64551462D01*
X112757197Y-64563198D01*
X112781021Y-64570425D01*
X112878223Y-64589760D01*
X112903000Y-64592200D01*
X118300690Y-64592200D01*
X118325757Y-64597186D01*
X118325757Y-65377900D01*
X118333113Y-65452589D01*
X118354899Y-65524408D01*
X118361622Y-65536985D01*
X118335284Y-65623806D01*
X118327600Y-65701816D01*
X118327600Y-65933047D01*
X118300690Y-65938400D01*
X107873800Y-65938400D01*
X107873800Y-63835643D01*
X107876257Y-63810699D01*
X107873800Y-63785753D01*
X107866449Y-63711115D01*
X107837401Y-63615357D01*
X107790229Y-63527105D01*
X107726748Y-63449752D01*
X107707365Y-63433845D01*
X107622455Y-63348935D01*
X107606548Y-63329552D01*
X107529195Y-63266071D01*
X107440943Y-63218899D01*
X107345185Y-63189851D01*
X107270547Y-63182500D01*
X107270544Y-63182500D01*
X107245600Y-63180043D01*
X107220656Y-63182500D01*
X106616653Y-63182500D01*
X106615059Y-63182657D01*
X106449443Y-63182657D01*
X106449443Y-62365500D01*
X106442087Y-62290811D01*
X106420301Y-62218992D01*
X106384922Y-62152804D01*
X106337311Y-62094789D01*
X106299000Y-62063348D01*
X106299000Y-60616910D01*
X106310967Y-60556751D01*
X106337957Y-60516357D01*
X106378351Y-60489367D01*
X106438510Y-60477400D01*
X112382490Y-60477400D01*
X112442649Y-60489367D01*
G36*
X127581049Y-66610767D02*
G01*
X127621443Y-66637757D01*
X127648433Y-66678151D01*
X127660400Y-66738310D01*
X127660400Y-69761290D01*
X127648433Y-69821449D01*
X127621443Y-69861843D01*
X127581049Y-69888833D01*
X127520890Y-69900800D01*
X120860802Y-69900800D01*
X120871279Y-69848131D01*
X120878600Y-69773800D01*
X120878600Y-66598800D01*
X127520890Y-66598800D01*
X127581049Y-66610767D01*
X127581049Y-66610767D01*
G37*
X127581049Y-66610767D02*
X127621443Y-66637757D01*
X127648433Y-66678151D01*
X127660400Y-66738310D01*
X127660400Y-69761290D01*
X127648433Y-69821449D01*
X127621443Y-69861843D01*
X127581049Y-69888833D01*
X127520890Y-69900800D01*
X120860802Y-69900800D01*
X120871279Y-69848131D01*
X120878600Y-69773800D01*
X120878600Y-66598800D01*
X127520890Y-66598800D01*
X127581049Y-66610767D01*
G36*
X120291249Y-65645567D02*
G01*
X120331643Y-65672557D01*
X120358633Y-65712951D01*
X120370600Y-65773110D01*
X120370600Y-68038161D01*
X120332404Y-68058578D01*
X120274389Y-68106189D01*
X120226778Y-68164204D01*
X120191399Y-68230392D01*
X120169613Y-68302211D01*
X120162257Y-68376900D01*
X120162257Y-69900800D01*
X115430110Y-69900800D01*
X115369951Y-69888833D01*
X115329557Y-69861843D01*
X115302567Y-69821449D01*
X115290600Y-69761290D01*
X115290600Y-67805110D01*
X115302567Y-67744951D01*
X115329557Y-67704557D01*
X115369951Y-67677567D01*
X115430110Y-67665600D01*
X117093400Y-67665600D01*
X117093400Y-67756103D01*
X117118802Y-67883807D01*
X117168630Y-68004101D01*
X117240968Y-68112363D01*
X117333037Y-68204432D01*
X117441299Y-68276770D01*
X117561593Y-68326598D01*
X117689297Y-68352000D01*
X117819503Y-68352000D01*
X117947207Y-68326598D01*
X118067501Y-68276770D01*
X118175763Y-68204432D01*
X118181195Y-68199000D01*
X118268285Y-68199000D01*
X118293229Y-68201457D01*
X118318173Y-68199000D01*
X118318176Y-68199000D01*
X118392814Y-68191649D01*
X118488572Y-68162601D01*
X118576824Y-68115429D01*
X118654177Y-68051948D01*
X118670084Y-68032565D01*
X119037049Y-67665600D01*
X119354600Y-67665600D01*
X119379377Y-67663160D01*
X119476579Y-67643825D01*
X119500403Y-67636598D01*
X119522359Y-67624862D01*
X119604762Y-67569802D01*
X119624008Y-67554008D01*
X119639802Y-67534762D01*
X119694862Y-67452359D01*
X119706598Y-67430403D01*
X119713825Y-67406579D01*
X119733160Y-67309377D01*
X119735600Y-67284600D01*
X119735600Y-66967018D01*
X119760352Y-66936857D01*
X119783029Y-66909225D01*
X119815431Y-66848605D01*
X119830201Y-66820972D01*
X119859249Y-66725214D01*
X119866600Y-66650576D01*
X119866600Y-66650574D01*
X119869057Y-66625630D01*
X119866600Y-66600686D01*
X119866600Y-66332486D01*
X119881917Y-66281994D01*
X119889600Y-66203984D01*
X119889600Y-65701817D01*
X119882882Y-65633600D01*
X120231090Y-65633600D01*
X120291249Y-65645567D01*
X120291249Y-65645567D01*
G37*
X120291249Y-65645567D02*
X120331643Y-65672557D01*
X120358633Y-65712951D01*
X120370600Y-65773110D01*
X120370600Y-68038161D01*
X120332404Y-68058578D01*
X120274389Y-68106189D01*
X120226778Y-68164204D01*
X120191399Y-68230392D01*
X120169613Y-68302211D01*
X120162257Y-68376900D01*
X120162257Y-69900800D01*
X115430110Y-69900800D01*
X115369951Y-69888833D01*
X115329557Y-69861843D01*
X115302567Y-69821449D01*
X115290600Y-69761290D01*
X115290600Y-67805110D01*
X115302567Y-67744951D01*
X115329557Y-67704557D01*
X115369951Y-67677567D01*
X115430110Y-67665600D01*
X117093400Y-67665600D01*
X117093400Y-67756103D01*
X117118802Y-67883807D01*
X117168630Y-68004101D01*
X117240968Y-68112363D01*
X117333037Y-68204432D01*
X117441299Y-68276770D01*
X117561593Y-68326598D01*
X117689297Y-68352000D01*
X117819503Y-68352000D01*
X117947207Y-68326598D01*
X118067501Y-68276770D01*
X118175763Y-68204432D01*
X118181195Y-68199000D01*
X118268285Y-68199000D01*
X118293229Y-68201457D01*
X118318173Y-68199000D01*
X118318176Y-68199000D01*
X118392814Y-68191649D01*
X118488572Y-68162601D01*
X118576824Y-68115429D01*
X118654177Y-68051948D01*
X118670084Y-68032565D01*
X119037049Y-67665600D01*
X119354600Y-67665600D01*
X119379377Y-67663160D01*
X119476579Y-67643825D01*
X119500403Y-67636598D01*
X119522359Y-67624862D01*
X119604762Y-67569802D01*
X119624008Y-67554008D01*
X119639802Y-67534762D01*
X119694862Y-67452359D01*
X119706598Y-67430403D01*
X119713825Y-67406579D01*
X119733160Y-67309377D01*
X119735600Y-67284600D01*
X119735600Y-66967018D01*
X119760352Y-66936857D01*
X119783029Y-66909225D01*
X119815431Y-66848605D01*
X119830201Y-66820972D01*
X119859249Y-66725214D01*
X119866600Y-66650576D01*
X119866600Y-66650574D01*
X119869057Y-66625630D01*
X119866600Y-66600686D01*
X119866600Y-66332486D01*
X119881917Y-66281994D01*
X119889600Y-66203984D01*
X119889600Y-65701817D01*
X119882882Y-65633600D01*
X120231090Y-65633600D01*
X120291249Y-65645567D01*
G36*
X126133249Y-62851567D02*
G01*
X126173643Y-62878557D01*
X126200633Y-62918951D01*
X126212600Y-62979110D01*
X126212600Y-65265490D01*
X126200633Y-65325649D01*
X126173643Y-65366043D01*
X126133249Y-65393033D01*
X126073090Y-65405000D01*
X120916510Y-65405000D01*
X120889307Y-65399589D01*
X120891443Y-65377900D01*
X120891443Y-64258900D01*
X121334684Y-64258900D01*
X121412694Y-64251217D01*
X121512788Y-64220853D01*
X121605035Y-64171546D01*
X121649566Y-64135000D01*
X123037600Y-64135000D01*
X123062377Y-64132560D01*
X123159579Y-64113225D01*
X123183403Y-64105998D01*
X123205359Y-64094262D01*
X123287762Y-64039202D01*
X123307008Y-64023408D01*
X123322802Y-64004162D01*
X123377862Y-63921759D01*
X123389598Y-63899803D01*
X123396825Y-63875979D01*
X123416160Y-63778777D01*
X123418600Y-63754000D01*
X123418600Y-62979110D01*
X123430567Y-62918951D01*
X123457557Y-62878557D01*
X123497951Y-62851567D01*
X123558110Y-62839600D01*
X126073090Y-62839600D01*
X126133249Y-62851567D01*
X126133249Y-62851567D01*
G37*
X126133249Y-62851567D02*
X126173643Y-62878557D01*
X126200633Y-62918951D01*
X126212600Y-62979110D01*
X126212600Y-65265490D01*
X126200633Y-65325649D01*
X126173643Y-65366043D01*
X126133249Y-65393033D01*
X126073090Y-65405000D01*
X120916510Y-65405000D01*
X120889307Y-65399589D01*
X120891443Y-65377900D01*
X120891443Y-64258900D01*
X121334684Y-64258900D01*
X121412694Y-64251217D01*
X121512788Y-64220853D01*
X121605035Y-64171546D01*
X121649566Y-64135000D01*
X123037600Y-64135000D01*
X123062377Y-64132560D01*
X123159579Y-64113225D01*
X123183403Y-64105998D01*
X123205359Y-64094262D01*
X123287762Y-64039202D01*
X123307008Y-64023408D01*
X123322802Y-64004162D01*
X123377862Y-63921759D01*
X123389598Y-63899803D01*
X123396825Y-63875979D01*
X123416160Y-63778777D01*
X123418600Y-63754000D01*
X123418600Y-62979110D01*
X123430567Y-62918951D01*
X123457557Y-62878557D01*
X123497951Y-62851567D01*
X123558110Y-62839600D01*
X126073090Y-62839600D01*
X126133249Y-62851567D01*
M02*
