G04 #@! TF.GenerationSoftware,KiCad,Pcbnew,(5.1.4)-1*
G04 #@! TF.CreationDate,2019-12-15T14:44:31-06:00*
G04 #@! TF.ProjectId,Incrementor,496e6372-656d-4656-9e74-6f722e6b6963,rev?*
G04 #@! TF.SameCoordinates,Original*
G04 #@! TF.FileFunction,Legend,Bot*
G04 #@! TF.FilePolarity,Positive*
%FSLAX46Y46*%
G04 Gerber Fmt 4.6, Leading zero omitted, Abs format (unit mm)*
G04 Created by KiCad (PCBNEW (5.1.4)-1) date 2019-12-15 14:44:31*
%MOMM*%
%LPD*%
G04 APERTURE LIST*
%ADD10C,0.150000*%
%ADD11C,0.300000*%
%ADD12C,0.010000*%
%ADD13C,0.120000*%
G04 APERTURE END LIST*
D10*
X145144547Y-60285380D02*
X145144547Y-60999666D01*
X145192166Y-61142523D01*
X145287404Y-61237761D01*
X145430261Y-61285380D01*
X145525500Y-61285380D01*
X144192166Y-61285380D02*
X144668357Y-61285380D01*
X144668357Y-60285380D01*
X143287404Y-61190142D02*
X143335023Y-61237761D01*
X143477880Y-61285380D01*
X143573119Y-61285380D01*
X143715976Y-61237761D01*
X143811214Y-61142523D01*
X143858833Y-61047285D01*
X143906452Y-60856809D01*
X143906452Y-60713952D01*
X143858833Y-60523476D01*
X143811214Y-60428238D01*
X143715976Y-60333000D01*
X143573119Y-60285380D01*
X143477880Y-60285380D01*
X143335023Y-60333000D01*
X143287404Y-60380619D01*
X142573119Y-60285380D02*
X142573119Y-60999666D01*
X142620738Y-61142523D01*
X142715976Y-61237761D01*
X142858833Y-61285380D01*
X142954071Y-61285380D01*
X141620738Y-61285380D02*
X142096928Y-61285380D01*
X142096928Y-60285380D01*
X140715976Y-61190142D02*
X140763595Y-61237761D01*
X140906452Y-61285380D01*
X141001690Y-61285380D01*
X141144547Y-61237761D01*
X141239785Y-61142523D01*
X141287404Y-61047285D01*
X141335023Y-60856809D01*
X141335023Y-60713952D01*
X141287404Y-60523476D01*
X141239785Y-60428238D01*
X141144547Y-60333000D01*
X141001690Y-60285380D01*
X140906452Y-60285380D01*
X140763595Y-60333000D01*
X140715976Y-60380619D01*
X140001690Y-60285380D02*
X140001690Y-60999666D01*
X140049309Y-61142523D01*
X140144547Y-61237761D01*
X140287404Y-61285380D01*
X140382642Y-61285380D01*
X139049309Y-61285380D02*
X139525500Y-61285380D01*
X139525500Y-60285380D01*
X138144547Y-61190142D02*
X138192166Y-61237761D01*
X138335023Y-61285380D01*
X138430261Y-61285380D01*
X138573119Y-61237761D01*
X138668357Y-61142523D01*
X138715976Y-61047285D01*
X138763595Y-60856809D01*
X138763595Y-60713952D01*
X138715976Y-60523476D01*
X138668357Y-60428238D01*
X138573119Y-60333000D01*
X138430261Y-60285380D01*
X138335023Y-60285380D01*
X138192166Y-60333000D01*
X138144547Y-60380619D01*
X137430261Y-60285380D02*
X137430261Y-60999666D01*
X137477880Y-61142523D01*
X137573119Y-61237761D01*
X137715976Y-61285380D01*
X137811214Y-61285380D01*
X136477880Y-61285380D02*
X136954071Y-61285380D01*
X136954071Y-60285380D01*
X135573119Y-61190142D02*
X135620738Y-61237761D01*
X135763595Y-61285380D01*
X135858833Y-61285380D01*
X136001690Y-61237761D01*
X136096928Y-61142523D01*
X136144547Y-61047285D01*
X136192166Y-60856809D01*
X136192166Y-60713952D01*
X136144547Y-60523476D01*
X136096928Y-60428238D01*
X136001690Y-60333000D01*
X135858833Y-60285380D01*
X135763595Y-60285380D01*
X135620738Y-60333000D01*
X135573119Y-60380619D01*
D11*
X123478928Y-61692071D02*
X123478928Y-60192071D01*
X122764642Y-60692071D02*
X122764642Y-61692071D01*
X122764642Y-60834928D02*
X122693214Y-60763500D01*
X122550357Y-60692071D01*
X122336071Y-60692071D01*
X122193214Y-60763500D01*
X122121785Y-60906357D01*
X122121785Y-61692071D01*
X120764642Y-61620642D02*
X120907500Y-61692071D01*
X121193214Y-61692071D01*
X121336071Y-61620642D01*
X121407500Y-61549214D01*
X121478928Y-61406357D01*
X121478928Y-60977785D01*
X121407500Y-60834928D01*
X121336071Y-60763500D01*
X121193214Y-60692071D01*
X120907500Y-60692071D01*
X120764642Y-60763500D01*
X120121785Y-61692071D02*
X120121785Y-60692071D01*
X120121785Y-60977785D02*
X120050357Y-60834928D01*
X119978928Y-60763500D01*
X119836071Y-60692071D01*
X119693214Y-60692071D01*
X118621785Y-61620642D02*
X118764642Y-61692071D01*
X119050357Y-61692071D01*
X119193214Y-61620642D01*
X119264642Y-61477785D01*
X119264642Y-60906357D01*
X119193214Y-60763500D01*
X119050357Y-60692071D01*
X118764642Y-60692071D01*
X118621785Y-60763500D01*
X118550357Y-60906357D01*
X118550357Y-61049214D01*
X119264642Y-61192071D01*
X117907500Y-61692071D02*
X117907500Y-60692071D01*
X117907500Y-60834928D02*
X117836071Y-60763500D01*
X117693214Y-60692071D01*
X117478928Y-60692071D01*
X117336071Y-60763500D01*
X117264642Y-60906357D01*
X117264642Y-61692071D01*
X117264642Y-60906357D02*
X117193214Y-60763500D01*
X117050357Y-60692071D01*
X116836071Y-60692071D01*
X116693214Y-60763500D01*
X116621785Y-60906357D01*
X116621785Y-61692071D01*
X115336071Y-61620642D02*
X115478928Y-61692071D01*
X115764642Y-61692071D01*
X115907500Y-61620642D01*
X115978928Y-61477785D01*
X115978928Y-60906357D01*
X115907500Y-60763500D01*
X115764642Y-60692071D01*
X115478928Y-60692071D01*
X115336071Y-60763500D01*
X115264642Y-60906357D01*
X115264642Y-61049214D01*
X115978928Y-61192071D01*
X114621785Y-60692071D02*
X114621785Y-61692071D01*
X114621785Y-60834928D02*
X114550357Y-60763500D01*
X114407500Y-60692071D01*
X114193214Y-60692071D01*
X114050357Y-60763500D01*
X113978928Y-60906357D01*
X113978928Y-61692071D01*
X113478928Y-60692071D02*
X112907500Y-60692071D01*
X113264642Y-60192071D02*
X113264642Y-61477785D01*
X113193214Y-61620642D01*
X113050357Y-61692071D01*
X112907500Y-61692071D01*
X112193214Y-61692071D02*
X112336071Y-61620642D01*
X112407500Y-61549214D01*
X112478928Y-61406357D01*
X112478928Y-60977785D01*
X112407500Y-60834928D01*
X112336071Y-60763500D01*
X112193214Y-60692071D01*
X111978928Y-60692071D01*
X111836071Y-60763500D01*
X111764642Y-60834928D01*
X111693214Y-60977785D01*
X111693214Y-61406357D01*
X111764642Y-61549214D01*
X111836071Y-61620642D01*
X111978928Y-61692071D01*
X112193214Y-61692071D01*
X111050357Y-61692071D02*
X111050357Y-60692071D01*
X111050357Y-60977785D02*
X110978928Y-60834928D01*
X110907500Y-60763500D01*
X110764642Y-60692071D01*
X110621785Y-60692071D01*
X119121785Y-64242071D02*
X119621785Y-63527785D01*
X119978928Y-64242071D02*
X119978928Y-62742071D01*
X119407500Y-62742071D01*
X119264642Y-62813500D01*
X119193214Y-62884928D01*
X119121785Y-63027785D01*
X119121785Y-63242071D01*
X119193214Y-63384928D01*
X119264642Y-63456357D01*
X119407500Y-63527785D01*
X119978928Y-63527785D01*
X117907500Y-64170642D02*
X118050357Y-64242071D01*
X118336071Y-64242071D01*
X118478928Y-64170642D01*
X118550357Y-64027785D01*
X118550357Y-63456357D01*
X118478928Y-63313500D01*
X118336071Y-63242071D01*
X118050357Y-63242071D01*
X117907500Y-63313500D01*
X117836071Y-63456357D01*
X117836071Y-63599214D01*
X118550357Y-63742071D01*
X117336071Y-63242071D02*
X116978928Y-64242071D01*
X116621785Y-63242071D01*
X114978928Y-63813500D02*
X114264642Y-63813500D01*
X115121785Y-64242071D02*
X114621785Y-62742071D01*
X114121785Y-64242071D01*
X119728928Y-65434928D02*
X119657500Y-65363500D01*
X119514642Y-65292071D01*
X119157500Y-65292071D01*
X119014642Y-65363500D01*
X118943214Y-65434928D01*
X118871785Y-65577785D01*
X118871785Y-65720642D01*
X118943214Y-65934928D01*
X119800357Y-66792071D01*
X118871785Y-66792071D01*
X117943214Y-65292071D02*
X117800357Y-65292071D01*
X117657500Y-65363500D01*
X117586071Y-65434928D01*
X117514642Y-65577785D01*
X117443214Y-65863500D01*
X117443214Y-66220642D01*
X117514642Y-66506357D01*
X117586071Y-66649214D01*
X117657500Y-66720642D01*
X117800357Y-66792071D01*
X117943214Y-66792071D01*
X118086071Y-66720642D01*
X118157500Y-66649214D01*
X118228928Y-66506357D01*
X118300357Y-66220642D01*
X118300357Y-65863500D01*
X118228928Y-65577785D01*
X118157500Y-65434928D01*
X118086071Y-65363500D01*
X117943214Y-65292071D01*
X116014642Y-66792071D02*
X116871785Y-66792071D01*
X116443214Y-66792071D02*
X116443214Y-65292071D01*
X116586071Y-65506357D01*
X116728928Y-65649214D01*
X116871785Y-65720642D01*
X115300357Y-66792071D02*
X115014642Y-66792071D01*
X114871785Y-66720642D01*
X114800357Y-66649214D01*
X114657500Y-66434928D01*
X114586071Y-66149214D01*
X114586071Y-65577785D01*
X114657500Y-65434928D01*
X114728928Y-65363500D01*
X114871785Y-65292071D01*
X115157500Y-65292071D01*
X115300357Y-65363500D01*
X115371785Y-65434928D01*
X115443214Y-65577785D01*
X115443214Y-65934928D01*
X115371785Y-66077785D01*
X115300357Y-66149214D01*
X115157500Y-66220642D01*
X114871785Y-66220642D01*
X114728928Y-66149214D01*
X114657500Y-66077785D01*
X114586071Y-65934928D01*
D10*
X152386400Y-73188200D02*
X151036400Y-73188200D01*
X152386400Y-68063200D02*
X157036400Y-68063200D01*
X152386400Y-73313200D02*
X157036400Y-73313200D01*
X152386400Y-68063200D02*
X152386400Y-68288200D01*
X157036400Y-68063200D02*
X157036400Y-68288200D01*
X157036400Y-73313200D02*
X157036400Y-73088200D01*
X152386400Y-73313200D02*
X152386400Y-73188200D01*
D12*
G36*
X148140036Y-64319150D02*
G01*
X148138494Y-64649052D01*
X148136934Y-64931981D01*
X148135239Y-65171761D01*
X148133292Y-65372219D01*
X148130977Y-65537181D01*
X148128178Y-65670472D01*
X148124776Y-65775918D01*
X148120656Y-65857345D01*
X148115701Y-65918580D01*
X148109793Y-65963447D01*
X148102817Y-65995774D01*
X148094655Y-66019385D01*
X148087698Y-66033650D01*
X148042596Y-66116200D01*
X148856700Y-66116200D01*
X148856700Y-66040000D01*
X148860059Y-65986452D01*
X148868149Y-65963804D01*
X148868273Y-65963800D01*
X148894391Y-65976784D01*
X148946774Y-66009537D01*
X148973597Y-66027421D01*
X149105897Y-66094647D01*
X149265563Y-66141589D01*
X149434478Y-66165338D01*
X149594523Y-66162984D01*
X149694900Y-66143247D01*
X149878962Y-66061939D01*
X150044090Y-65940200D01*
X150178983Y-65787510D01*
X150240345Y-65685694D01*
X150307769Y-65528029D01*
X150351645Y-65361951D01*
X150374786Y-65173403D01*
X150380259Y-64986913D01*
X150379498Y-64973200D01*
X149579364Y-64973200D01*
X149574866Y-65148895D01*
X149561251Y-65282414D01*
X149536023Y-65381949D01*
X149496688Y-65455691D01*
X149440749Y-65511831D01*
X149408484Y-65534170D01*
X149302079Y-65572164D01*
X149176356Y-65569176D01*
X149041297Y-65525728D01*
X149017001Y-65513773D01*
X148920200Y-65463557D01*
X148913358Y-64914487D01*
X148906515Y-64365416D01*
X148973609Y-64321454D01*
X149037140Y-64294707D01*
X149126832Y-64274044D01*
X149184867Y-64267065D01*
X149273245Y-64263970D01*
X149332209Y-64274095D01*
X149382515Y-64302683D01*
X149408573Y-64323568D01*
X149475917Y-64397167D01*
X149524836Y-64492737D01*
X149557159Y-64617234D01*
X149574713Y-64777611D01*
X149579364Y-64973200D01*
X150379498Y-64973200D01*
X150363825Y-64690965D01*
X150315958Y-64431134D01*
X150237329Y-64208509D01*
X150128611Y-64024180D01*
X149990475Y-63879237D01*
X149823594Y-63774768D01*
X149628640Y-63711864D01*
X149589330Y-63704835D01*
X149473797Y-63696575D01*
X149346437Y-63703429D01*
X149219839Y-63722852D01*
X149106588Y-63752299D01*
X149019272Y-63789225D01*
X148971238Y-63829815D01*
X148950373Y-63854282D01*
X148934330Y-63849192D01*
X148922575Y-63810657D01*
X148914576Y-63734788D01*
X148909798Y-63617701D01*
X148907707Y-63455506D01*
X148907500Y-63365670D01*
X148908023Y-63191573D01*
X148910031Y-63060217D01*
X148914189Y-62963550D01*
X148921157Y-62893519D01*
X148931599Y-62842073D01*
X148946178Y-62801158D01*
X148955562Y-62781470D01*
X149003624Y-62687200D01*
X148147272Y-62687200D01*
X148140036Y-64319150D01*
X148140036Y-64319150D01*
G37*
X148140036Y-64319150D02*
X148138494Y-64649052D01*
X148136934Y-64931981D01*
X148135239Y-65171761D01*
X148133292Y-65372219D01*
X148130977Y-65537181D01*
X148128178Y-65670472D01*
X148124776Y-65775918D01*
X148120656Y-65857345D01*
X148115701Y-65918580D01*
X148109793Y-65963447D01*
X148102817Y-65995774D01*
X148094655Y-66019385D01*
X148087698Y-66033650D01*
X148042596Y-66116200D01*
X148856700Y-66116200D01*
X148856700Y-66040000D01*
X148860059Y-65986452D01*
X148868149Y-65963804D01*
X148868273Y-65963800D01*
X148894391Y-65976784D01*
X148946774Y-66009537D01*
X148973597Y-66027421D01*
X149105897Y-66094647D01*
X149265563Y-66141589D01*
X149434478Y-66165338D01*
X149594523Y-66162984D01*
X149694900Y-66143247D01*
X149878962Y-66061939D01*
X150044090Y-65940200D01*
X150178983Y-65787510D01*
X150240345Y-65685694D01*
X150307769Y-65528029D01*
X150351645Y-65361951D01*
X150374786Y-65173403D01*
X150380259Y-64986913D01*
X150379498Y-64973200D01*
X149579364Y-64973200D01*
X149574866Y-65148895D01*
X149561251Y-65282414D01*
X149536023Y-65381949D01*
X149496688Y-65455691D01*
X149440749Y-65511831D01*
X149408484Y-65534170D01*
X149302079Y-65572164D01*
X149176356Y-65569176D01*
X149041297Y-65525728D01*
X149017001Y-65513773D01*
X148920200Y-65463557D01*
X148913358Y-64914487D01*
X148906515Y-64365416D01*
X148973609Y-64321454D01*
X149037140Y-64294707D01*
X149126832Y-64274044D01*
X149184867Y-64267065D01*
X149273245Y-64263970D01*
X149332209Y-64274095D01*
X149382515Y-64302683D01*
X149408573Y-64323568D01*
X149475917Y-64397167D01*
X149524836Y-64492737D01*
X149557159Y-64617234D01*
X149574713Y-64777611D01*
X149579364Y-64973200D01*
X150379498Y-64973200D01*
X150363825Y-64690965D01*
X150315958Y-64431134D01*
X150237329Y-64208509D01*
X150128611Y-64024180D01*
X149990475Y-63879237D01*
X149823594Y-63774768D01*
X149628640Y-63711864D01*
X149589330Y-63704835D01*
X149473797Y-63696575D01*
X149346437Y-63703429D01*
X149219839Y-63722852D01*
X149106588Y-63752299D01*
X149019272Y-63789225D01*
X148971238Y-63829815D01*
X148950373Y-63854282D01*
X148934330Y-63849192D01*
X148922575Y-63810657D01*
X148914576Y-63734788D01*
X148909798Y-63617701D01*
X148907707Y-63455506D01*
X148907500Y-63365670D01*
X148908023Y-63191573D01*
X148910031Y-63060217D01*
X148914189Y-62963550D01*
X148921157Y-62893519D01*
X148931599Y-62842073D01*
X148946178Y-62801158D01*
X148955562Y-62781470D01*
X149003624Y-62687200D01*
X148147272Y-62687200D01*
X148140036Y-64319150D01*
G36*
X151359880Y-63714359D02*
G01*
X151183924Y-63754264D01*
X151064987Y-63798895D01*
X150972402Y-63854778D01*
X150889721Y-63928360D01*
X150836583Y-63983188D01*
X150793104Y-64034829D01*
X150758209Y-64088992D01*
X150730824Y-64151387D01*
X150709876Y-64227723D01*
X150694291Y-64323710D01*
X150682996Y-64445058D01*
X150674915Y-64597475D01*
X150668977Y-64786670D01*
X150664106Y-65018355D01*
X150661951Y-65139477D01*
X150657693Y-65371434D01*
X150653570Y-65558051D01*
X150649224Y-65704785D01*
X150644297Y-65817095D01*
X150638432Y-65900437D01*
X150631269Y-65960269D01*
X150622451Y-66002049D01*
X150611620Y-66031234D01*
X150602365Y-66047527D01*
X150557329Y-66116200D01*
X151368082Y-66116200D01*
X151384000Y-65962698D01*
X151483398Y-66030483D01*
X151639554Y-66109254D01*
X151820408Y-66155178D01*
X152010205Y-66166137D01*
X152193191Y-66140011D01*
X152226666Y-66130436D01*
X152413071Y-66048112D01*
X152563980Y-65930585D01*
X152676848Y-65781321D01*
X152749125Y-65603786D01*
X152778265Y-65401443D01*
X152778712Y-65379600D01*
X152778048Y-65350545D01*
X152049793Y-65350545D01*
X152045537Y-65439884D01*
X152035410Y-65470502D01*
X151972721Y-65551089D01*
X151877777Y-65605481D01*
X151764173Y-65629352D01*
X151645504Y-65618378D01*
X151607904Y-65606508D01*
X151520717Y-65564968D01*
X151465076Y-65512366D01*
X151434606Y-65437280D01*
X151422934Y-65328289D01*
X151422100Y-65273572D01*
X151422100Y-65074800D01*
X151588016Y-65074800D01*
X151751753Y-65089824D01*
X151890372Y-65132733D01*
X151985824Y-65193555D01*
X152028431Y-65260298D01*
X152049793Y-65350545D01*
X152778048Y-65350545D01*
X152776097Y-65265273D01*
X152762449Y-65177974D01*
X152732950Y-65094311D01*
X152709618Y-65044215D01*
X152605277Y-64887636D01*
X152460896Y-64761758D01*
X152277131Y-64666878D01*
X152054638Y-64603291D01*
X151794074Y-64571295D01*
X151653706Y-64567241D01*
X151415412Y-64566800D01*
X151429304Y-64463228D01*
X151465238Y-64349960D01*
X151537156Y-64271507D01*
X151643776Y-64228163D01*
X151783813Y-64220223D01*
X151955984Y-64247980D01*
X152132991Y-64302144D01*
X152217449Y-64329413D01*
X152282442Y-64344373D01*
X152314305Y-64343908D01*
X152314638Y-64343589D01*
X152332224Y-64311872D01*
X152362320Y-64245912D01*
X152399598Y-64158745D01*
X152438727Y-64063404D01*
X152474378Y-63972925D01*
X152501220Y-63900340D01*
X152513925Y-63858685D01*
X152514300Y-63855302D01*
X152492510Y-63836617D01*
X152449053Y-63830200D01*
X152397469Y-63824037D01*
X152310650Y-63807424D01*
X152202397Y-63783175D01*
X152125203Y-63764173D01*
X151859404Y-63713360D01*
X151600724Y-63696718D01*
X151359880Y-63714359D01*
X151359880Y-63714359D01*
G37*
X151359880Y-63714359D02*
X151183924Y-63754264D01*
X151064987Y-63798895D01*
X150972402Y-63854778D01*
X150889721Y-63928360D01*
X150836583Y-63983188D01*
X150793104Y-64034829D01*
X150758209Y-64088992D01*
X150730824Y-64151387D01*
X150709876Y-64227723D01*
X150694291Y-64323710D01*
X150682996Y-64445058D01*
X150674915Y-64597475D01*
X150668977Y-64786670D01*
X150664106Y-65018355D01*
X150661951Y-65139477D01*
X150657693Y-65371434D01*
X150653570Y-65558051D01*
X150649224Y-65704785D01*
X150644297Y-65817095D01*
X150638432Y-65900437D01*
X150631269Y-65960269D01*
X150622451Y-66002049D01*
X150611620Y-66031234D01*
X150602365Y-66047527D01*
X150557329Y-66116200D01*
X151368082Y-66116200D01*
X151384000Y-65962698D01*
X151483398Y-66030483D01*
X151639554Y-66109254D01*
X151820408Y-66155178D01*
X152010205Y-66166137D01*
X152193191Y-66140011D01*
X152226666Y-66130436D01*
X152413071Y-66048112D01*
X152563980Y-65930585D01*
X152676848Y-65781321D01*
X152749125Y-65603786D01*
X152778265Y-65401443D01*
X152778712Y-65379600D01*
X152778048Y-65350545D01*
X152049793Y-65350545D01*
X152045537Y-65439884D01*
X152035410Y-65470502D01*
X151972721Y-65551089D01*
X151877777Y-65605481D01*
X151764173Y-65629352D01*
X151645504Y-65618378D01*
X151607904Y-65606508D01*
X151520717Y-65564968D01*
X151465076Y-65512366D01*
X151434606Y-65437280D01*
X151422934Y-65328289D01*
X151422100Y-65273572D01*
X151422100Y-65074800D01*
X151588016Y-65074800D01*
X151751753Y-65089824D01*
X151890372Y-65132733D01*
X151985824Y-65193555D01*
X152028431Y-65260298D01*
X152049793Y-65350545D01*
X152778048Y-65350545D01*
X152776097Y-65265273D01*
X152762449Y-65177974D01*
X152732950Y-65094311D01*
X152709618Y-65044215D01*
X152605277Y-64887636D01*
X152460896Y-64761758D01*
X152277131Y-64666878D01*
X152054638Y-64603291D01*
X151794074Y-64571295D01*
X151653706Y-64567241D01*
X151415412Y-64566800D01*
X151429304Y-64463228D01*
X151465238Y-64349960D01*
X151537156Y-64271507D01*
X151643776Y-64228163D01*
X151783813Y-64220223D01*
X151955984Y-64247980D01*
X152132991Y-64302144D01*
X152217449Y-64329413D01*
X152282442Y-64344373D01*
X152314305Y-64343908D01*
X152314638Y-64343589D01*
X152332224Y-64311872D01*
X152362320Y-64245912D01*
X152399598Y-64158745D01*
X152438727Y-64063404D01*
X152474378Y-63972925D01*
X152501220Y-63900340D01*
X152513925Y-63858685D01*
X152514300Y-63855302D01*
X152492510Y-63836617D01*
X152449053Y-63830200D01*
X152397469Y-63824037D01*
X152310650Y-63807424D01*
X152202397Y-63783175D01*
X152125203Y-63764173D01*
X151859404Y-63713360D01*
X151600724Y-63696718D01*
X151359880Y-63714359D01*
G36*
X153442824Y-62868341D02*
G01*
X153401589Y-62878143D01*
X153330621Y-62900829D01*
X153235327Y-62936963D01*
X153127979Y-62981187D01*
X153020847Y-63028147D01*
X152926202Y-63072487D01*
X152856315Y-63108851D01*
X152825436Y-63129598D01*
X152835126Y-63152582D01*
X152867464Y-63207508D01*
X152916036Y-63284651D01*
X152974426Y-63374288D01*
X153036219Y-63466695D01*
X153094998Y-63552151D01*
X153144348Y-63620930D01*
X153176823Y-63662159D01*
X153205264Y-63659624D01*
X153257419Y-63629335D01*
X153301093Y-63595312D01*
X153446202Y-63503226D01*
X153611013Y-63457559D01*
X153769402Y-63456284D01*
X153940102Y-63496902D01*
X154084241Y-63580127D01*
X154201255Y-63704925D01*
X154290581Y-63870260D01*
X154351657Y-64075097D01*
X154383919Y-64318401D01*
X154387074Y-64592200D01*
X154365633Y-64839826D01*
X154320516Y-65045741D01*
X154249870Y-65214105D01*
X154151843Y-65349080D01*
X154024583Y-65454826D01*
X153994921Y-65473151D01*
X153917727Y-65513415D01*
X153846262Y-65534876D01*
X153758473Y-65542676D01*
X153695400Y-65543009D01*
X153535683Y-65527354D01*
X153396953Y-65479392D01*
X153262875Y-65392613D01*
X153212654Y-65350663D01*
X153158408Y-65306162D01*
X153122086Y-65282225D01*
X153114445Y-65280969D01*
X153092284Y-65314288D01*
X153053002Y-65378333D01*
X153002270Y-65463348D01*
X152945757Y-65559575D01*
X152889134Y-65657257D01*
X152838069Y-65746636D01*
X152798235Y-65817956D01*
X152775299Y-65861460D01*
X152772047Y-65870180D01*
X152797282Y-65883554D01*
X152855156Y-65914253D01*
X152933438Y-65955786D01*
X152938043Y-65958230D01*
X153100353Y-66038612D01*
X153243288Y-66093928D01*
X153385228Y-66128986D01*
X153544553Y-66148593D01*
X153695400Y-66156340D01*
X153888215Y-66157569D01*
X154040250Y-66148113D01*
X154131064Y-66132565D01*
X154363299Y-66047718D01*
X154576341Y-65918718D01*
X154766134Y-65749906D01*
X154928622Y-65545623D01*
X155059748Y-65310209D01*
X155155456Y-65048005D01*
X155159952Y-65031632D01*
X155196250Y-64845026D01*
X155215155Y-64630920D01*
X155216677Y-64407257D01*
X155200831Y-64191982D01*
X155167628Y-64003040D01*
X155159203Y-63971044D01*
X155057439Y-63697435D01*
X154914768Y-63451468D01*
X154733696Y-63236653D01*
X154516730Y-63056495D01*
X154495500Y-63042082D01*
X154317856Y-62949504D01*
X154109802Y-62883748D01*
X153885302Y-62846907D01*
X153658322Y-62841073D01*
X153442824Y-62868341D01*
X153442824Y-62868341D01*
G37*
X153442824Y-62868341D02*
X153401589Y-62878143D01*
X153330621Y-62900829D01*
X153235327Y-62936963D01*
X153127979Y-62981187D01*
X153020847Y-63028147D01*
X152926202Y-63072487D01*
X152856315Y-63108851D01*
X152825436Y-63129598D01*
X152835126Y-63152582D01*
X152867464Y-63207508D01*
X152916036Y-63284651D01*
X152974426Y-63374288D01*
X153036219Y-63466695D01*
X153094998Y-63552151D01*
X153144348Y-63620930D01*
X153176823Y-63662159D01*
X153205264Y-63659624D01*
X153257419Y-63629335D01*
X153301093Y-63595312D01*
X153446202Y-63503226D01*
X153611013Y-63457559D01*
X153769402Y-63456284D01*
X153940102Y-63496902D01*
X154084241Y-63580127D01*
X154201255Y-63704925D01*
X154290581Y-63870260D01*
X154351657Y-64075097D01*
X154383919Y-64318401D01*
X154387074Y-64592200D01*
X154365633Y-64839826D01*
X154320516Y-65045741D01*
X154249870Y-65214105D01*
X154151843Y-65349080D01*
X154024583Y-65454826D01*
X153994921Y-65473151D01*
X153917727Y-65513415D01*
X153846262Y-65534876D01*
X153758473Y-65542676D01*
X153695400Y-65543009D01*
X153535683Y-65527354D01*
X153396953Y-65479392D01*
X153262875Y-65392613D01*
X153212654Y-65350663D01*
X153158408Y-65306162D01*
X153122086Y-65282225D01*
X153114445Y-65280969D01*
X153092284Y-65314288D01*
X153053002Y-65378333D01*
X153002270Y-65463348D01*
X152945757Y-65559575D01*
X152889134Y-65657257D01*
X152838069Y-65746636D01*
X152798235Y-65817956D01*
X152775299Y-65861460D01*
X152772047Y-65870180D01*
X152797282Y-65883554D01*
X152855156Y-65914253D01*
X152933438Y-65955786D01*
X152938043Y-65958230D01*
X153100353Y-66038612D01*
X153243288Y-66093928D01*
X153385228Y-66128986D01*
X153544553Y-66148593D01*
X153695400Y-66156340D01*
X153888215Y-66157569D01*
X154040250Y-66148113D01*
X154131064Y-66132565D01*
X154363299Y-66047718D01*
X154576341Y-65918718D01*
X154766134Y-65749906D01*
X154928622Y-65545623D01*
X155059748Y-65310209D01*
X155155456Y-65048005D01*
X155159952Y-65031632D01*
X155196250Y-64845026D01*
X155215155Y-64630920D01*
X155216677Y-64407257D01*
X155200831Y-64191982D01*
X155167628Y-64003040D01*
X155159203Y-63971044D01*
X155057439Y-63697435D01*
X154914768Y-63451468D01*
X154733696Y-63236653D01*
X154516730Y-63056495D01*
X154495500Y-63042082D01*
X154317856Y-62949504D01*
X154109802Y-62883748D01*
X153885302Y-62846907D01*
X153658322Y-62841073D01*
X153442824Y-62868341D01*
G36*
X155536137Y-62304699D02*
G01*
X155514345Y-62311976D01*
X155495914Y-62328420D01*
X155480565Y-62357197D01*
X155468019Y-62401474D01*
X155457995Y-62464418D01*
X155450217Y-62549194D01*
X155444404Y-62658971D01*
X155440277Y-62796914D01*
X155437557Y-62966191D01*
X155435965Y-63169968D01*
X155435223Y-63411411D01*
X155435050Y-63693687D01*
X155435168Y-64019964D01*
X155435297Y-64393407D01*
X155435300Y-64452500D01*
X155435378Y-64827884D01*
X155435651Y-65155711D01*
X155436182Y-65439221D01*
X155437031Y-65681658D01*
X155438260Y-65886261D01*
X155439931Y-66056274D01*
X155442105Y-66194939D01*
X155444843Y-66305496D01*
X155448208Y-66391188D01*
X155452259Y-66455257D01*
X155457059Y-66500944D01*
X155462669Y-66531492D01*
X155469151Y-66550141D01*
X155475215Y-66558885D01*
X155486291Y-66565992D01*
X155506499Y-66572213D01*
X155539010Y-66577606D01*
X155586997Y-66582229D01*
X155653633Y-66586140D01*
X155742090Y-66589396D01*
X155855540Y-66592056D01*
X155997156Y-66594175D01*
X156170110Y-66595813D01*
X156377576Y-66597028D01*
X156622724Y-66597876D01*
X156908729Y-66598415D01*
X157238761Y-66598703D01*
X157615995Y-66598798D01*
X157670501Y-66598800D01*
X158054324Y-66598726D01*
X158390520Y-66598467D01*
X158682261Y-66597965D01*
X158932719Y-66597162D01*
X159145068Y-66596000D01*
X159322479Y-66594422D01*
X159468125Y-66592371D01*
X159585178Y-66589787D01*
X159676812Y-66586615D01*
X159746197Y-66582795D01*
X159796508Y-66578271D01*
X159830916Y-66572985D01*
X159852593Y-66566879D01*
X159864713Y-66559895D01*
X159865786Y-66558885D01*
X159873035Y-66547627D01*
X159879362Y-66527152D01*
X159884828Y-66494219D01*
X159889494Y-66445586D01*
X159893422Y-66378011D01*
X159896674Y-66288252D01*
X159899310Y-66173068D01*
X159901393Y-66029217D01*
X159902983Y-65853456D01*
X159904142Y-65642544D01*
X159904932Y-65393239D01*
X159905414Y-65102300D01*
X159905649Y-64766484D01*
X159905700Y-64452500D01*
X159905623Y-64077115D01*
X159905350Y-63749288D01*
X159904819Y-63465778D01*
X159903970Y-63223341D01*
X159902741Y-63018738D01*
X159901552Y-62897729D01*
X159626301Y-62897729D01*
X159615863Y-62922638D01*
X159589556Y-62976844D01*
X159575501Y-63004699D01*
X159564568Y-63027774D01*
X159555326Y-63053420D01*
X159547633Y-63085859D01*
X159541348Y-63129308D01*
X159536328Y-63187988D01*
X159532432Y-63266117D01*
X159529517Y-63367917D01*
X159527443Y-63497605D01*
X159526066Y-63659401D01*
X159525246Y-63857525D01*
X159524841Y-64096197D01*
X159524709Y-64379635D01*
X159524701Y-64516290D01*
X159525061Y-64779726D01*
X159526098Y-65028037D01*
X159527744Y-65256556D01*
X159529932Y-65460618D01*
X159532597Y-65635558D01*
X159535670Y-65776711D01*
X159539085Y-65879410D01*
X159542776Y-65938991D01*
X159545276Y-65952370D01*
X159569700Y-65992136D01*
X159595532Y-66046350D01*
X159625211Y-66116200D01*
X159098706Y-66115811D01*
X158943533Y-66114849D01*
X158809150Y-66112381D01*
X158702501Y-66108674D01*
X158630530Y-66103992D01*
X158600181Y-66098600D01*
X158600406Y-66096761D01*
X158630355Y-66062826D01*
X158666168Y-66004626D01*
X158670256Y-65996811D01*
X158685182Y-65959521D01*
X158696193Y-65909267D01*
X158703831Y-65838556D01*
X158708634Y-65739898D01*
X158711144Y-65605800D01*
X158711899Y-65428772D01*
X158711900Y-65418961D01*
X158710667Y-65241347D01*
X158707104Y-65098876D01*
X158701422Y-64995727D01*
X158693828Y-64936078D01*
X158687086Y-64922400D01*
X158657586Y-64941770D01*
X158619859Y-64988744D01*
X158617585Y-64992250D01*
X158577007Y-65049268D01*
X158542801Y-65087500D01*
X158512353Y-65124632D01*
X158472417Y-65186966D01*
X158458829Y-65210833D01*
X158416680Y-65277930D01*
X158353973Y-65366720D01*
X158282908Y-65460064D01*
X158268958Y-65477533D01*
X158160839Y-65620344D01*
X158070362Y-65756967D01*
X158002111Y-65879349D01*
X157960669Y-65979440D01*
X157949900Y-66037923D01*
X157949900Y-66116200D01*
X156823445Y-66116200D01*
X156835571Y-66102488D01*
X156679900Y-66102488D01*
X156655801Y-66106757D01*
X156588704Y-66110485D01*
X156486411Y-66113448D01*
X156356722Y-66115426D01*
X156207439Y-66116196D01*
X156197300Y-66116200D01*
X156020533Y-66115408D01*
X155889399Y-66112806D01*
X155798753Y-66108056D01*
X155743450Y-66100818D01*
X155718344Y-66090752D01*
X155715508Y-66084450D01*
X155730462Y-66040554D01*
X155753608Y-66003395D01*
X155762802Y-65984692D01*
X155770398Y-65952195D01*
X155776541Y-65901498D01*
X155781373Y-65828196D01*
X155785036Y-65727883D01*
X155787674Y-65596154D01*
X155789430Y-65428604D01*
X155790447Y-65220827D01*
X155790867Y-64968418D01*
X155790900Y-64854045D01*
X155790900Y-63754000D01*
X156655805Y-63754000D01*
X156617053Y-63828938D01*
X156607022Y-63854815D01*
X156598833Y-63893092D01*
X156592308Y-63948607D01*
X156587274Y-64026197D01*
X156583553Y-64130700D01*
X156580971Y-64266954D01*
X156579352Y-64439797D01*
X156578521Y-64654067D01*
X156578300Y-64896750D01*
X156578414Y-65148440D01*
X156578915Y-65354511D01*
X156580045Y-65520147D01*
X156582045Y-65650527D01*
X156585155Y-65750835D01*
X156589617Y-65826251D01*
X156595671Y-65881957D01*
X156603559Y-65923135D01*
X156613521Y-65954967D01*
X156625799Y-65982635D01*
X156629100Y-65989200D01*
X156660010Y-66052636D01*
X156678020Y-66095110D01*
X156679900Y-66102488D01*
X156835571Y-66102488D01*
X156885023Y-66046570D01*
X156928945Y-65997266D01*
X156957127Y-65966290D01*
X156959300Y-65964020D01*
X157017055Y-65900905D01*
X157088537Y-65816689D01*
X157163603Y-65724065D01*
X157232109Y-65635725D01*
X157283912Y-65564361D01*
X157304124Y-65532547D01*
X157344345Y-65468584D01*
X157407838Y-65377299D01*
X157485696Y-65270680D01*
X157569013Y-65160715D01*
X157648883Y-65059390D01*
X157711227Y-64984607D01*
X157771671Y-64907548D01*
X157828341Y-64823943D01*
X157832522Y-64817050D01*
X157959863Y-64618936D01*
X158055506Y-64488356D01*
X158125464Y-64397212D01*
X158044032Y-64309760D01*
X157973840Y-64230661D01*
X157883785Y-64123892D01*
X157784443Y-64002451D01*
X157686393Y-63879339D01*
X157600211Y-63767555D01*
X157571349Y-63728815D01*
X157266559Y-63348892D01*
X157027221Y-63091787D01*
X156828441Y-62890400D01*
X157373753Y-62890400D01*
X157558950Y-62890523D01*
X157699502Y-62891861D01*
X157801563Y-62895867D01*
X157871288Y-62903993D01*
X157914831Y-62917691D01*
X157938347Y-62938416D01*
X157947989Y-62967618D01*
X157949914Y-63006751D01*
X157949900Y-63026390D01*
X157965488Y-63079842D01*
X158004559Y-63147121D01*
X158022201Y-63170362D01*
X158080848Y-63247668D01*
X158143610Y-63338586D01*
X158165698Y-63373000D01*
X158208948Y-63439764D01*
X158242588Y-63486931D01*
X158254261Y-63500000D01*
X158284055Y-63529339D01*
X158333255Y-63585018D01*
X158392978Y-63656108D01*
X158454338Y-63731681D01*
X158508453Y-63800808D01*
X158546437Y-63852561D01*
X158559500Y-63875483D01*
X158576318Y-63904974D01*
X158618354Y-63952717D01*
X158635701Y-63969900D01*
X158711901Y-64042904D01*
X158711900Y-63623088D01*
X158710307Y-63440302D01*
X158704605Y-63297476D01*
X158693407Y-63183840D01*
X158675328Y-63088629D01*
X158648982Y-63001075D01*
X158623336Y-62934850D01*
X158620106Y-62919771D01*
X158628851Y-62908538D01*
X158655795Y-62900591D01*
X158707162Y-62895367D01*
X158789176Y-62892303D01*
X158908061Y-62890838D01*
X159070040Y-62890410D01*
X159115583Y-62890400D01*
X159270417Y-62890746D01*
X159406378Y-62891712D01*
X159515883Y-62893190D01*
X159591349Y-62895071D01*
X159625192Y-62897245D01*
X159626301Y-62897729D01*
X159901552Y-62897729D01*
X159901070Y-62848725D01*
X159898896Y-62710060D01*
X159896158Y-62599503D01*
X159892793Y-62513811D01*
X159888742Y-62449742D01*
X159883942Y-62404055D01*
X159878332Y-62373507D01*
X159871850Y-62354858D01*
X159865786Y-62346114D01*
X159853322Y-62337934D01*
X159831063Y-62330938D01*
X159795309Y-62325034D01*
X159742359Y-62320133D01*
X159668512Y-62316144D01*
X159570069Y-62312978D01*
X159443327Y-62310544D01*
X159284587Y-62308752D01*
X159090147Y-62307511D01*
X158856307Y-62306733D01*
X158579365Y-62306326D01*
X158255622Y-62306200D01*
X156629100Y-62306200D01*
X156629100Y-62402418D01*
X156609021Y-62518335D01*
X156555975Y-62637000D01*
X156480746Y-62737991D01*
X156428494Y-62782244D01*
X156314954Y-62829370D01*
X156184000Y-62839636D01*
X156049872Y-62815918D01*
X155926810Y-62761089D01*
X155829052Y-62678023D01*
X155813700Y-62658147D01*
X155766694Y-62557428D01*
X155745061Y-62441877D01*
X155733810Y-62306199D01*
X155624470Y-62306200D01*
X155590920Y-62304977D01*
X155561569Y-62303421D01*
X155536137Y-62304699D01*
X155536137Y-62304699D01*
G37*
X155536137Y-62304699D02*
X155514345Y-62311976D01*
X155495914Y-62328420D01*
X155480565Y-62357197D01*
X155468019Y-62401474D01*
X155457995Y-62464418D01*
X155450217Y-62549194D01*
X155444404Y-62658971D01*
X155440277Y-62796914D01*
X155437557Y-62966191D01*
X155435965Y-63169968D01*
X155435223Y-63411411D01*
X155435050Y-63693687D01*
X155435168Y-64019964D01*
X155435297Y-64393407D01*
X155435300Y-64452500D01*
X155435378Y-64827884D01*
X155435651Y-65155711D01*
X155436182Y-65439221D01*
X155437031Y-65681658D01*
X155438260Y-65886261D01*
X155439931Y-66056274D01*
X155442105Y-66194939D01*
X155444843Y-66305496D01*
X155448208Y-66391188D01*
X155452259Y-66455257D01*
X155457059Y-66500944D01*
X155462669Y-66531492D01*
X155469151Y-66550141D01*
X155475215Y-66558885D01*
X155486291Y-66565992D01*
X155506499Y-66572213D01*
X155539010Y-66577606D01*
X155586997Y-66582229D01*
X155653633Y-66586140D01*
X155742090Y-66589396D01*
X155855540Y-66592056D01*
X155997156Y-66594175D01*
X156170110Y-66595813D01*
X156377576Y-66597028D01*
X156622724Y-66597876D01*
X156908729Y-66598415D01*
X157238761Y-66598703D01*
X157615995Y-66598798D01*
X157670501Y-66598800D01*
X158054324Y-66598726D01*
X158390520Y-66598467D01*
X158682261Y-66597965D01*
X158932719Y-66597162D01*
X159145068Y-66596000D01*
X159322479Y-66594422D01*
X159468125Y-66592371D01*
X159585178Y-66589787D01*
X159676812Y-66586615D01*
X159746197Y-66582795D01*
X159796508Y-66578271D01*
X159830916Y-66572985D01*
X159852593Y-66566879D01*
X159864713Y-66559895D01*
X159865786Y-66558885D01*
X159873035Y-66547627D01*
X159879362Y-66527152D01*
X159884828Y-66494219D01*
X159889494Y-66445586D01*
X159893422Y-66378011D01*
X159896674Y-66288252D01*
X159899310Y-66173068D01*
X159901393Y-66029217D01*
X159902983Y-65853456D01*
X159904142Y-65642544D01*
X159904932Y-65393239D01*
X159905414Y-65102300D01*
X159905649Y-64766484D01*
X159905700Y-64452500D01*
X159905623Y-64077115D01*
X159905350Y-63749288D01*
X159904819Y-63465778D01*
X159903970Y-63223341D01*
X159902741Y-63018738D01*
X159901552Y-62897729D01*
X159626301Y-62897729D01*
X159615863Y-62922638D01*
X159589556Y-62976844D01*
X159575501Y-63004699D01*
X159564568Y-63027774D01*
X159555326Y-63053420D01*
X159547633Y-63085859D01*
X159541348Y-63129308D01*
X159536328Y-63187988D01*
X159532432Y-63266117D01*
X159529517Y-63367917D01*
X159527443Y-63497605D01*
X159526066Y-63659401D01*
X159525246Y-63857525D01*
X159524841Y-64096197D01*
X159524709Y-64379635D01*
X159524701Y-64516290D01*
X159525061Y-64779726D01*
X159526098Y-65028037D01*
X159527744Y-65256556D01*
X159529932Y-65460618D01*
X159532597Y-65635558D01*
X159535670Y-65776711D01*
X159539085Y-65879410D01*
X159542776Y-65938991D01*
X159545276Y-65952370D01*
X159569700Y-65992136D01*
X159595532Y-66046350D01*
X159625211Y-66116200D01*
X159098706Y-66115811D01*
X158943533Y-66114849D01*
X158809150Y-66112381D01*
X158702501Y-66108674D01*
X158630530Y-66103992D01*
X158600181Y-66098600D01*
X158600406Y-66096761D01*
X158630355Y-66062826D01*
X158666168Y-66004626D01*
X158670256Y-65996811D01*
X158685182Y-65959521D01*
X158696193Y-65909267D01*
X158703831Y-65838556D01*
X158708634Y-65739898D01*
X158711144Y-65605800D01*
X158711899Y-65428772D01*
X158711900Y-65418961D01*
X158710667Y-65241347D01*
X158707104Y-65098876D01*
X158701422Y-64995727D01*
X158693828Y-64936078D01*
X158687086Y-64922400D01*
X158657586Y-64941770D01*
X158619859Y-64988744D01*
X158617585Y-64992250D01*
X158577007Y-65049268D01*
X158542801Y-65087500D01*
X158512353Y-65124632D01*
X158472417Y-65186966D01*
X158458829Y-65210833D01*
X158416680Y-65277930D01*
X158353973Y-65366720D01*
X158282908Y-65460064D01*
X158268958Y-65477533D01*
X158160839Y-65620344D01*
X158070362Y-65756967D01*
X158002111Y-65879349D01*
X157960669Y-65979440D01*
X157949900Y-66037923D01*
X157949900Y-66116200D01*
X156823445Y-66116200D01*
X156835571Y-66102488D01*
X156679900Y-66102488D01*
X156655801Y-66106757D01*
X156588704Y-66110485D01*
X156486411Y-66113448D01*
X156356722Y-66115426D01*
X156207439Y-66116196D01*
X156197300Y-66116200D01*
X156020533Y-66115408D01*
X155889399Y-66112806D01*
X155798753Y-66108056D01*
X155743450Y-66100818D01*
X155718344Y-66090752D01*
X155715508Y-66084450D01*
X155730462Y-66040554D01*
X155753608Y-66003395D01*
X155762802Y-65984692D01*
X155770398Y-65952195D01*
X155776541Y-65901498D01*
X155781373Y-65828196D01*
X155785036Y-65727883D01*
X155787674Y-65596154D01*
X155789430Y-65428604D01*
X155790447Y-65220827D01*
X155790867Y-64968418D01*
X155790900Y-64854045D01*
X155790900Y-63754000D01*
X156655805Y-63754000D01*
X156617053Y-63828938D01*
X156607022Y-63854815D01*
X156598833Y-63893092D01*
X156592308Y-63948607D01*
X156587274Y-64026197D01*
X156583553Y-64130700D01*
X156580971Y-64266954D01*
X156579352Y-64439797D01*
X156578521Y-64654067D01*
X156578300Y-64896750D01*
X156578414Y-65148440D01*
X156578915Y-65354511D01*
X156580045Y-65520147D01*
X156582045Y-65650527D01*
X156585155Y-65750835D01*
X156589617Y-65826251D01*
X156595671Y-65881957D01*
X156603559Y-65923135D01*
X156613521Y-65954967D01*
X156625799Y-65982635D01*
X156629100Y-65989200D01*
X156660010Y-66052636D01*
X156678020Y-66095110D01*
X156679900Y-66102488D01*
X156835571Y-66102488D01*
X156885023Y-66046570D01*
X156928945Y-65997266D01*
X156957127Y-65966290D01*
X156959300Y-65964020D01*
X157017055Y-65900905D01*
X157088537Y-65816689D01*
X157163603Y-65724065D01*
X157232109Y-65635725D01*
X157283912Y-65564361D01*
X157304124Y-65532547D01*
X157344345Y-65468584D01*
X157407838Y-65377299D01*
X157485696Y-65270680D01*
X157569013Y-65160715D01*
X157648883Y-65059390D01*
X157711227Y-64984607D01*
X157771671Y-64907548D01*
X157828341Y-64823943D01*
X157832522Y-64817050D01*
X157959863Y-64618936D01*
X158055506Y-64488356D01*
X158125464Y-64397212D01*
X158044032Y-64309760D01*
X157973840Y-64230661D01*
X157883785Y-64123892D01*
X157784443Y-64002451D01*
X157686393Y-63879339D01*
X157600211Y-63767555D01*
X157571349Y-63728815D01*
X157266559Y-63348892D01*
X157027221Y-63091787D01*
X156828441Y-62890400D01*
X157373753Y-62890400D01*
X157558950Y-62890523D01*
X157699502Y-62891861D01*
X157801563Y-62895867D01*
X157871288Y-62903993D01*
X157914831Y-62917691D01*
X157938347Y-62938416D01*
X157947989Y-62967618D01*
X157949914Y-63006751D01*
X157949900Y-63026390D01*
X157965488Y-63079842D01*
X158004559Y-63147121D01*
X158022201Y-63170362D01*
X158080848Y-63247668D01*
X158143610Y-63338586D01*
X158165698Y-63373000D01*
X158208948Y-63439764D01*
X158242588Y-63486931D01*
X158254261Y-63500000D01*
X158284055Y-63529339D01*
X158333255Y-63585018D01*
X158392978Y-63656108D01*
X158454338Y-63731681D01*
X158508453Y-63800808D01*
X158546437Y-63852561D01*
X158559500Y-63875483D01*
X158576318Y-63904974D01*
X158618354Y-63952717D01*
X158635701Y-63969900D01*
X158711901Y-64042904D01*
X158711900Y-63623088D01*
X158710307Y-63440302D01*
X158704605Y-63297476D01*
X158693407Y-63183840D01*
X158675328Y-63088629D01*
X158648982Y-63001075D01*
X158623336Y-62934850D01*
X158620106Y-62919771D01*
X158628851Y-62908538D01*
X158655795Y-62900591D01*
X158707162Y-62895367D01*
X158789176Y-62892303D01*
X158908061Y-62890838D01*
X159070040Y-62890410D01*
X159115583Y-62890400D01*
X159270417Y-62890746D01*
X159406378Y-62891712D01*
X159515883Y-62893190D01*
X159591349Y-62895071D01*
X159625192Y-62897245D01*
X159626301Y-62897729D01*
X159901552Y-62897729D01*
X159901070Y-62848725D01*
X159898896Y-62710060D01*
X159896158Y-62599503D01*
X159892793Y-62513811D01*
X159888742Y-62449742D01*
X159883942Y-62404055D01*
X159878332Y-62373507D01*
X159871850Y-62354858D01*
X159865786Y-62346114D01*
X159853322Y-62337934D01*
X159831063Y-62330938D01*
X159795309Y-62325034D01*
X159742359Y-62320133D01*
X159668512Y-62316144D01*
X159570069Y-62312978D01*
X159443327Y-62310544D01*
X159284587Y-62308752D01*
X159090147Y-62307511D01*
X158856307Y-62306733D01*
X158579365Y-62306326D01*
X158255622Y-62306200D01*
X156629100Y-62306200D01*
X156629100Y-62402418D01*
X156609021Y-62518335D01*
X156555975Y-62637000D01*
X156480746Y-62737991D01*
X156428494Y-62782244D01*
X156314954Y-62829370D01*
X156184000Y-62839636D01*
X156049872Y-62815918D01*
X155926810Y-62761089D01*
X155829052Y-62678023D01*
X155813700Y-62658147D01*
X155766694Y-62557428D01*
X155745061Y-62441877D01*
X155733810Y-62306199D01*
X155624470Y-62306200D01*
X155590920Y-62304977D01*
X155561569Y-62303421D01*
X155536137Y-62304699D01*
G36*
X123032870Y-65730235D02*
G01*
X123031270Y-65845139D01*
X123035847Y-65925699D01*
X123042328Y-66069889D01*
X123046601Y-66290787D01*
X123048663Y-66563525D01*
X123048510Y-66863236D01*
X123046139Y-67165051D01*
X123041548Y-67444102D01*
X123036063Y-67640200D01*
X123039553Y-67810355D01*
X123056487Y-68019731D01*
X123070622Y-68134007D01*
X123091291Y-68299198D01*
X123088384Y-68393117D01*
X123055367Y-68444649D01*
X122992467Y-68479599D01*
X122832978Y-68603483D01*
X122689459Y-68822739D01*
X122560515Y-69139699D01*
X122521021Y-69265800D01*
X122370299Y-69904192D01*
X122303212Y-70509277D01*
X122314148Y-71002724D01*
X122335146Y-71253716D01*
X122353117Y-71510472D01*
X122364699Y-71724100D01*
X122365873Y-71755000D01*
X122405408Y-72227818D01*
X122488375Y-72612206D01*
X122521167Y-72708528D01*
X122568507Y-72864127D01*
X122592401Y-73000520D01*
X122593100Y-73018923D01*
X122613914Y-73115287D01*
X122669793Y-73275991D01*
X122750896Y-73474240D01*
X122802608Y-73589395D01*
X122901756Y-73810986D01*
X122999280Y-74042466D01*
X123086495Y-74261592D01*
X123154718Y-74446119D01*
X123195266Y-74573803D01*
X123202700Y-74614297D01*
X123156748Y-74627555D01*
X123030344Y-74615949D01*
X122840672Y-74582733D01*
X122604912Y-74531157D01*
X122340246Y-74464474D01*
X122186753Y-74422014D01*
X121823435Y-74303260D01*
X121542253Y-74176325D01*
X121385449Y-74079262D01*
X121213722Y-73960538D01*
X121048415Y-73850964D01*
X120952973Y-73791098D01*
X120824796Y-73705976D01*
X120659387Y-73584960D01*
X120526733Y-73481475D01*
X120373193Y-73374889D01*
X120143598Y-73237774D01*
X119855623Y-73078817D01*
X119526941Y-72906705D01*
X119175224Y-72730124D01*
X118818146Y-72557760D01*
X118473381Y-72398300D01*
X118158600Y-72260431D01*
X117891478Y-72152839D01*
X117689688Y-72084210D01*
X117676481Y-72080551D01*
X117457936Y-72028165D01*
X117298403Y-72003752D01*
X117215150Y-72009807D01*
X117210534Y-72013259D01*
X117172002Y-72091034D01*
X117135975Y-72221636D01*
X117131322Y-72245385D01*
X117116846Y-72358966D01*
X117139425Y-72432577D01*
X117218494Y-72498810D01*
X117317869Y-72558242D01*
X117507663Y-72654530D01*
X117721178Y-72744574D01*
X117792476Y-72770057D01*
X117970927Y-72835909D01*
X118192040Y-72926396D01*
X118402076Y-73019271D01*
X118592545Y-73106958D01*
X118762425Y-73184279D01*
X118877630Y-73235729D01*
X118884700Y-73238798D01*
X118963158Y-73283492D01*
X118948106Y-73313482D01*
X118935500Y-73318094D01*
X118790901Y-73353442D01*
X118576276Y-73392800D01*
X118322833Y-73431576D01*
X118061784Y-73465180D01*
X117824335Y-73489021D01*
X117729000Y-73495588D01*
X117514034Y-73514706D01*
X117393653Y-73544297D01*
X117360700Y-73580467D01*
X117408307Y-73620162D01*
X117538694Y-73653463D01*
X117733211Y-73679851D01*
X117973208Y-73698811D01*
X118240035Y-73709824D01*
X118515043Y-73712374D01*
X118779582Y-73705942D01*
X119015002Y-73690013D01*
X119202653Y-73664069D01*
X119308904Y-73634499D01*
X119437667Y-73589111D01*
X119529959Y-73592778D01*
X119639824Y-73648404D01*
X119646865Y-73652673D01*
X119764508Y-73736732D01*
X119919506Y-73863690D01*
X120067357Y-73996007D01*
X120228564Y-74141842D01*
X120387155Y-74276416D01*
X120498367Y-74362839D01*
X120628999Y-74479548D01*
X120730435Y-74609955D01*
X120739267Y-74625908D01*
X120769274Y-74686089D01*
X120781326Y-74732298D01*
X120764087Y-74767284D01*
X120706223Y-74793794D01*
X120596398Y-74814577D01*
X120423278Y-74832380D01*
X120175527Y-74849953D01*
X119841810Y-74870042D01*
X119697500Y-74878475D01*
X119367470Y-74899732D01*
X119043532Y-74924102D01*
X118750947Y-74949433D01*
X118514971Y-74973574D01*
X118386928Y-74990122D01*
X118016155Y-75046818D01*
X118031328Y-75280509D01*
X118046500Y-75514200D01*
X118540410Y-75497770D01*
X118865016Y-75499886D01*
X119221804Y-75522531D01*
X119531010Y-75559439D01*
X119883176Y-75599702D01*
X120325813Y-75624677D01*
X120848868Y-75633844D01*
X120967500Y-75633714D01*
X121309088Y-75632305D01*
X121655380Y-75630842D01*
X121977676Y-75629450D01*
X122247274Y-75628251D01*
X122389900Y-75627591D01*
X122671571Y-75630970D01*
X122980590Y-75642001D01*
X123258479Y-75658468D01*
X123306148Y-75662301D01*
X123739796Y-75699312D01*
X124011407Y-76431645D01*
X124137442Y-76762159D01*
X124237666Y-77002011D01*
X124315866Y-77157731D01*
X124375829Y-77235849D01*
X124421340Y-77242895D01*
X124453194Y-77193560D01*
X124483690Y-77151881D01*
X124528169Y-77185394D01*
X124580048Y-77264039D01*
X124673976Y-77386794D01*
X124746808Y-77413721D01*
X124791774Y-77355700D01*
X124833943Y-77343037D01*
X124914664Y-77417239D01*
X124926694Y-77431900D01*
X125067000Y-77546052D01*
X125222836Y-77560060D01*
X125392137Y-77473846D01*
X125420278Y-77450795D01*
X125529836Y-77373335D01*
X125611067Y-77366627D01*
X125648576Y-77384857D01*
X125769827Y-77406001D01*
X125905762Y-77343945D01*
X126034821Y-77210404D01*
X126070509Y-77155568D01*
X126142108Y-77058487D01*
X126191226Y-77052952D01*
X126200983Y-77065352D01*
X126271707Y-77107245D01*
X126363329Y-77066910D01*
X126455495Y-76954967D01*
X126472972Y-76923438D01*
X126519748Y-76811036D01*
X126582476Y-76630895D01*
X126650866Y-76413430D01*
X126684445Y-76298524D01*
X126747091Y-76088533D01*
X126804424Y-75914837D01*
X126848290Y-75801265D01*
X126864618Y-75772039D01*
X126925705Y-75758452D01*
X127073927Y-75745323D01*
X127294815Y-75733332D01*
X127573905Y-75723161D01*
X127896729Y-75715488D01*
X128141701Y-75711962D01*
X128548696Y-75705234D01*
X128984875Y-75693819D01*
X129433106Y-75678531D01*
X129876256Y-75660183D01*
X130297192Y-75639589D01*
X130678784Y-75617562D01*
X131003898Y-75594916D01*
X131255402Y-75572464D01*
X131368800Y-75558720D01*
X131533900Y-75534996D01*
X131533900Y-74512063D01*
X131318000Y-74542463D01*
X131193203Y-74554755D01*
X130978658Y-74569848D01*
X130686159Y-74587165D01*
X130327502Y-74606129D01*
X129914483Y-74626164D01*
X129458897Y-74646691D01*
X128972539Y-74667135D01*
X128467205Y-74686919D01*
X128061711Y-74701723D01*
X127781612Y-74709381D01*
X127542382Y-74711651D01*
X127360039Y-74708733D01*
X127250602Y-74700829D01*
X127226190Y-74691267D01*
X127258204Y-74623011D01*
X127314188Y-74500110D01*
X127337938Y-74447400D01*
X127412545Y-74299929D01*
X127486284Y-74182155D01*
X127503945Y-74160038D01*
X127557449Y-74065902D01*
X127616910Y-73911573D01*
X127654695Y-73784747D01*
X127708046Y-73605973D01*
X127764908Y-73453957D01*
X127798538Y-73386308D01*
X127842178Y-73286766D01*
X127900333Y-73112282D01*
X127966133Y-72887238D01*
X128032709Y-72636017D01*
X128093191Y-72383000D01*
X128129345Y-72212200D01*
X128147091Y-72091766D01*
X128169789Y-71892797D01*
X128195111Y-71638094D01*
X128220730Y-71350461D01*
X128234283Y-71184209D01*
X128260263Y-70811901D01*
X128270479Y-70514561D01*
X128262117Y-70266387D01*
X128232363Y-70041575D01*
X128178403Y-69814322D01*
X128097423Y-69558825D01*
X128038914Y-69392937D01*
X127927438Y-69128928D01*
X127796465Y-68921861D01*
X127659371Y-68767188D01*
X127531877Y-68635314D01*
X127463793Y-68545821D01*
X127442931Y-68469009D01*
X127457099Y-68375178D01*
X127473221Y-68313669D01*
X127505077Y-68137661D01*
X127522176Y-67923045D01*
X127524335Y-67703476D01*
X127511373Y-67512609D01*
X127483111Y-67384100D01*
X127478279Y-67373682D01*
X127429500Y-67231368D01*
X127415737Y-67150428D01*
X126800785Y-67150428D01*
X126788215Y-67259748D01*
X126760809Y-67402413D01*
X126724480Y-67546075D01*
X126697044Y-67629552D01*
X126588735Y-67783453D01*
X126418331Y-67880547D01*
X126211575Y-67915085D01*
X125994211Y-67881319D01*
X125855295Y-67817519D01*
X125704908Y-67700148D01*
X125654543Y-67597530D01*
X124715214Y-67597530D01*
X124652921Y-67692361D01*
X124578208Y-67771107D01*
X124394046Y-67892250D01*
X124181464Y-67915885D01*
X123940645Y-67841997D01*
X123917705Y-67830621D01*
X123760807Y-67730680D01*
X123682847Y-67615776D01*
X123668707Y-67454845D01*
X123681245Y-67344736D01*
X123705067Y-67203400D01*
X123731754Y-67144846D01*
X123778998Y-67151342D01*
X123837866Y-67187779D01*
X123939217Y-67304000D01*
X123974572Y-67453689D01*
X123995918Y-67580296D01*
X124047975Y-67637904D01*
X124130573Y-67656348D01*
X124277165Y-67633028D01*
X124382112Y-67547803D01*
X124473311Y-67465211D01*
X124555219Y-67455977D01*
X124609940Y-67476308D01*
X124700165Y-67532215D01*
X124715214Y-67597530D01*
X125654543Y-67597530D01*
X125652035Y-67592421D01*
X125697927Y-67497425D01*
X125718756Y-67480453D01*
X125827139Y-67419587D01*
X125898452Y-67442279D01*
X125955144Y-67538600D01*
X126046574Y-67644489D01*
X126129876Y-67665600D01*
X126252246Y-67628111D01*
X126362753Y-67537016D01*
X126430622Y-67424366D01*
X126435619Y-67347177D01*
X126449476Y-67270466D01*
X126545686Y-67202357D01*
X126591553Y-67181823D01*
X126712223Y-67133526D01*
X126785908Y-67107999D01*
X126792606Y-67106800D01*
X126800785Y-67150428D01*
X127415737Y-67150428D01*
X127398592Y-67049605D01*
X127389371Y-66869611D01*
X127405652Y-66732605D01*
X127416406Y-66705433D01*
X127444797Y-66573507D01*
X127421280Y-66370503D01*
X127419244Y-66360599D01*
X127393842Y-66154833D01*
X127419602Y-65976684D01*
X127439968Y-65913000D01*
X127479916Y-65783937D01*
X127494908Y-65701870D01*
X127492382Y-65690262D01*
X127435410Y-65692512D01*
X127334232Y-65728631D01*
X127231378Y-65779575D01*
X127169377Y-65826303D01*
X127165100Y-65836800D01*
X127115656Y-65884820D01*
X126971239Y-65943049D01*
X126737720Y-66009343D01*
X126606300Y-66040965D01*
X126390363Y-66102436D01*
X126156963Y-66185993D01*
X126052924Y-66229886D01*
X125911833Y-66289454D01*
X125790999Y-66323279D01*
X125657298Y-66335326D01*
X125477606Y-66329563D01*
X125317712Y-66317928D01*
X124955924Y-66270857D01*
X124603770Y-66182128D01*
X124372489Y-66103126D01*
X124162946Y-66028601D01*
X123923545Y-65947635D01*
X123676056Y-65867083D01*
X123442253Y-65793799D01*
X123243908Y-65734637D01*
X123102793Y-65696453D01*
X123046393Y-65685638D01*
X123032870Y-65730235D01*
X123032870Y-65730235D01*
G37*
X123032870Y-65730235D02*
X123031270Y-65845139D01*
X123035847Y-65925699D01*
X123042328Y-66069889D01*
X123046601Y-66290787D01*
X123048663Y-66563525D01*
X123048510Y-66863236D01*
X123046139Y-67165051D01*
X123041548Y-67444102D01*
X123036063Y-67640200D01*
X123039553Y-67810355D01*
X123056487Y-68019731D01*
X123070622Y-68134007D01*
X123091291Y-68299198D01*
X123088384Y-68393117D01*
X123055367Y-68444649D01*
X122992467Y-68479599D01*
X122832978Y-68603483D01*
X122689459Y-68822739D01*
X122560515Y-69139699D01*
X122521021Y-69265800D01*
X122370299Y-69904192D01*
X122303212Y-70509277D01*
X122314148Y-71002724D01*
X122335146Y-71253716D01*
X122353117Y-71510472D01*
X122364699Y-71724100D01*
X122365873Y-71755000D01*
X122405408Y-72227818D01*
X122488375Y-72612206D01*
X122521167Y-72708528D01*
X122568507Y-72864127D01*
X122592401Y-73000520D01*
X122593100Y-73018923D01*
X122613914Y-73115287D01*
X122669793Y-73275991D01*
X122750896Y-73474240D01*
X122802608Y-73589395D01*
X122901756Y-73810986D01*
X122999280Y-74042466D01*
X123086495Y-74261592D01*
X123154718Y-74446119D01*
X123195266Y-74573803D01*
X123202700Y-74614297D01*
X123156748Y-74627555D01*
X123030344Y-74615949D01*
X122840672Y-74582733D01*
X122604912Y-74531157D01*
X122340246Y-74464474D01*
X122186753Y-74422014D01*
X121823435Y-74303260D01*
X121542253Y-74176325D01*
X121385449Y-74079262D01*
X121213722Y-73960538D01*
X121048415Y-73850964D01*
X120952973Y-73791098D01*
X120824796Y-73705976D01*
X120659387Y-73584960D01*
X120526733Y-73481475D01*
X120373193Y-73374889D01*
X120143598Y-73237774D01*
X119855623Y-73078817D01*
X119526941Y-72906705D01*
X119175224Y-72730124D01*
X118818146Y-72557760D01*
X118473381Y-72398300D01*
X118158600Y-72260431D01*
X117891478Y-72152839D01*
X117689688Y-72084210D01*
X117676481Y-72080551D01*
X117457936Y-72028165D01*
X117298403Y-72003752D01*
X117215150Y-72009807D01*
X117210534Y-72013259D01*
X117172002Y-72091034D01*
X117135975Y-72221636D01*
X117131322Y-72245385D01*
X117116846Y-72358966D01*
X117139425Y-72432577D01*
X117218494Y-72498810D01*
X117317869Y-72558242D01*
X117507663Y-72654530D01*
X117721178Y-72744574D01*
X117792476Y-72770057D01*
X117970927Y-72835909D01*
X118192040Y-72926396D01*
X118402076Y-73019271D01*
X118592545Y-73106958D01*
X118762425Y-73184279D01*
X118877630Y-73235729D01*
X118884700Y-73238798D01*
X118963158Y-73283492D01*
X118948106Y-73313482D01*
X118935500Y-73318094D01*
X118790901Y-73353442D01*
X118576276Y-73392800D01*
X118322833Y-73431576D01*
X118061784Y-73465180D01*
X117824335Y-73489021D01*
X117729000Y-73495588D01*
X117514034Y-73514706D01*
X117393653Y-73544297D01*
X117360700Y-73580467D01*
X117408307Y-73620162D01*
X117538694Y-73653463D01*
X117733211Y-73679851D01*
X117973208Y-73698811D01*
X118240035Y-73709824D01*
X118515043Y-73712374D01*
X118779582Y-73705942D01*
X119015002Y-73690013D01*
X119202653Y-73664069D01*
X119308904Y-73634499D01*
X119437667Y-73589111D01*
X119529959Y-73592778D01*
X119639824Y-73648404D01*
X119646865Y-73652673D01*
X119764508Y-73736732D01*
X119919506Y-73863690D01*
X120067357Y-73996007D01*
X120228564Y-74141842D01*
X120387155Y-74276416D01*
X120498367Y-74362839D01*
X120628999Y-74479548D01*
X120730435Y-74609955D01*
X120739267Y-74625908D01*
X120769274Y-74686089D01*
X120781326Y-74732298D01*
X120764087Y-74767284D01*
X120706223Y-74793794D01*
X120596398Y-74814577D01*
X120423278Y-74832380D01*
X120175527Y-74849953D01*
X119841810Y-74870042D01*
X119697500Y-74878475D01*
X119367470Y-74899732D01*
X119043532Y-74924102D01*
X118750947Y-74949433D01*
X118514971Y-74973574D01*
X118386928Y-74990122D01*
X118016155Y-75046818D01*
X118031328Y-75280509D01*
X118046500Y-75514200D01*
X118540410Y-75497770D01*
X118865016Y-75499886D01*
X119221804Y-75522531D01*
X119531010Y-75559439D01*
X119883176Y-75599702D01*
X120325813Y-75624677D01*
X120848868Y-75633844D01*
X120967500Y-75633714D01*
X121309088Y-75632305D01*
X121655380Y-75630842D01*
X121977676Y-75629450D01*
X122247274Y-75628251D01*
X122389900Y-75627591D01*
X122671571Y-75630970D01*
X122980590Y-75642001D01*
X123258479Y-75658468D01*
X123306148Y-75662301D01*
X123739796Y-75699312D01*
X124011407Y-76431645D01*
X124137442Y-76762159D01*
X124237666Y-77002011D01*
X124315866Y-77157731D01*
X124375829Y-77235849D01*
X124421340Y-77242895D01*
X124453194Y-77193560D01*
X124483690Y-77151881D01*
X124528169Y-77185394D01*
X124580048Y-77264039D01*
X124673976Y-77386794D01*
X124746808Y-77413721D01*
X124791774Y-77355700D01*
X124833943Y-77343037D01*
X124914664Y-77417239D01*
X124926694Y-77431900D01*
X125067000Y-77546052D01*
X125222836Y-77560060D01*
X125392137Y-77473846D01*
X125420278Y-77450795D01*
X125529836Y-77373335D01*
X125611067Y-77366627D01*
X125648576Y-77384857D01*
X125769827Y-77406001D01*
X125905762Y-77343945D01*
X126034821Y-77210404D01*
X126070509Y-77155568D01*
X126142108Y-77058487D01*
X126191226Y-77052952D01*
X126200983Y-77065352D01*
X126271707Y-77107245D01*
X126363329Y-77066910D01*
X126455495Y-76954967D01*
X126472972Y-76923438D01*
X126519748Y-76811036D01*
X126582476Y-76630895D01*
X126650866Y-76413430D01*
X126684445Y-76298524D01*
X126747091Y-76088533D01*
X126804424Y-75914837D01*
X126848290Y-75801265D01*
X126864618Y-75772039D01*
X126925705Y-75758452D01*
X127073927Y-75745323D01*
X127294815Y-75733332D01*
X127573905Y-75723161D01*
X127896729Y-75715488D01*
X128141701Y-75711962D01*
X128548696Y-75705234D01*
X128984875Y-75693819D01*
X129433106Y-75678531D01*
X129876256Y-75660183D01*
X130297192Y-75639589D01*
X130678784Y-75617562D01*
X131003898Y-75594916D01*
X131255402Y-75572464D01*
X131368800Y-75558720D01*
X131533900Y-75534996D01*
X131533900Y-74512063D01*
X131318000Y-74542463D01*
X131193203Y-74554755D01*
X130978658Y-74569848D01*
X130686159Y-74587165D01*
X130327502Y-74606129D01*
X129914483Y-74626164D01*
X129458897Y-74646691D01*
X128972539Y-74667135D01*
X128467205Y-74686919D01*
X128061711Y-74701723D01*
X127781612Y-74709381D01*
X127542382Y-74711651D01*
X127360039Y-74708733D01*
X127250602Y-74700829D01*
X127226190Y-74691267D01*
X127258204Y-74623011D01*
X127314188Y-74500110D01*
X127337938Y-74447400D01*
X127412545Y-74299929D01*
X127486284Y-74182155D01*
X127503945Y-74160038D01*
X127557449Y-74065902D01*
X127616910Y-73911573D01*
X127654695Y-73784747D01*
X127708046Y-73605973D01*
X127764908Y-73453957D01*
X127798538Y-73386308D01*
X127842178Y-73286766D01*
X127900333Y-73112282D01*
X127966133Y-72887238D01*
X128032709Y-72636017D01*
X128093191Y-72383000D01*
X128129345Y-72212200D01*
X128147091Y-72091766D01*
X128169789Y-71892797D01*
X128195111Y-71638094D01*
X128220730Y-71350461D01*
X128234283Y-71184209D01*
X128260263Y-70811901D01*
X128270479Y-70514561D01*
X128262117Y-70266387D01*
X128232363Y-70041575D01*
X128178403Y-69814322D01*
X128097423Y-69558825D01*
X128038914Y-69392937D01*
X127927438Y-69128928D01*
X127796465Y-68921861D01*
X127659371Y-68767188D01*
X127531877Y-68635314D01*
X127463793Y-68545821D01*
X127442931Y-68469009D01*
X127457099Y-68375178D01*
X127473221Y-68313669D01*
X127505077Y-68137661D01*
X127522176Y-67923045D01*
X127524335Y-67703476D01*
X127511373Y-67512609D01*
X127483111Y-67384100D01*
X127478279Y-67373682D01*
X127429500Y-67231368D01*
X127415737Y-67150428D01*
X126800785Y-67150428D01*
X126788215Y-67259748D01*
X126760809Y-67402413D01*
X126724480Y-67546075D01*
X126697044Y-67629552D01*
X126588735Y-67783453D01*
X126418331Y-67880547D01*
X126211575Y-67915085D01*
X125994211Y-67881319D01*
X125855295Y-67817519D01*
X125704908Y-67700148D01*
X125654543Y-67597530D01*
X124715214Y-67597530D01*
X124652921Y-67692361D01*
X124578208Y-67771107D01*
X124394046Y-67892250D01*
X124181464Y-67915885D01*
X123940645Y-67841997D01*
X123917705Y-67830621D01*
X123760807Y-67730680D01*
X123682847Y-67615776D01*
X123668707Y-67454845D01*
X123681245Y-67344736D01*
X123705067Y-67203400D01*
X123731754Y-67144846D01*
X123778998Y-67151342D01*
X123837866Y-67187779D01*
X123939217Y-67304000D01*
X123974572Y-67453689D01*
X123995918Y-67580296D01*
X124047975Y-67637904D01*
X124130573Y-67656348D01*
X124277165Y-67633028D01*
X124382112Y-67547803D01*
X124473311Y-67465211D01*
X124555219Y-67455977D01*
X124609940Y-67476308D01*
X124700165Y-67532215D01*
X124715214Y-67597530D01*
X125654543Y-67597530D01*
X125652035Y-67592421D01*
X125697927Y-67497425D01*
X125718756Y-67480453D01*
X125827139Y-67419587D01*
X125898452Y-67442279D01*
X125955144Y-67538600D01*
X126046574Y-67644489D01*
X126129876Y-67665600D01*
X126252246Y-67628111D01*
X126362753Y-67537016D01*
X126430622Y-67424366D01*
X126435619Y-67347177D01*
X126449476Y-67270466D01*
X126545686Y-67202357D01*
X126591553Y-67181823D01*
X126712223Y-67133526D01*
X126785908Y-67107999D01*
X126792606Y-67106800D01*
X126800785Y-67150428D01*
X127415737Y-67150428D01*
X127398592Y-67049605D01*
X127389371Y-66869611D01*
X127405652Y-66732605D01*
X127416406Y-66705433D01*
X127444797Y-66573507D01*
X127421280Y-66370503D01*
X127419244Y-66360599D01*
X127393842Y-66154833D01*
X127419602Y-65976684D01*
X127439968Y-65913000D01*
X127479916Y-65783937D01*
X127494908Y-65701870D01*
X127492382Y-65690262D01*
X127435410Y-65692512D01*
X127334232Y-65728631D01*
X127231378Y-65779575D01*
X127169377Y-65826303D01*
X127165100Y-65836800D01*
X127115656Y-65884820D01*
X126971239Y-65943049D01*
X126737720Y-66009343D01*
X126606300Y-66040965D01*
X126390363Y-66102436D01*
X126156963Y-66185993D01*
X126052924Y-66229886D01*
X125911833Y-66289454D01*
X125790999Y-66323279D01*
X125657298Y-66335326D01*
X125477606Y-66329563D01*
X125317712Y-66317928D01*
X124955924Y-66270857D01*
X124603770Y-66182128D01*
X124372489Y-66103126D01*
X124162946Y-66028601D01*
X123923545Y-65947635D01*
X123676056Y-65867083D01*
X123442253Y-65793799D01*
X123243908Y-65734637D01*
X123102793Y-65696453D01*
X123046393Y-65685638D01*
X123032870Y-65730235D01*
G36*
X118283730Y-75882807D02*
G01*
X118208943Y-76004733D01*
X118154645Y-76161198D01*
X118148218Y-76191839D01*
X118130100Y-76330505D01*
X118152356Y-76380181D01*
X118225309Y-76348929D01*
X118288845Y-76301692D01*
X118390704Y-76183728D01*
X118452859Y-76039532D01*
X118464722Y-75904757D01*
X118429897Y-75826679D01*
X118362788Y-75816447D01*
X118283730Y-75882807D01*
X118283730Y-75882807D01*
G37*
X118283730Y-75882807D02*
X118208943Y-76004733D01*
X118154645Y-76161198D01*
X118148218Y-76191839D01*
X118130100Y-76330505D01*
X118152356Y-76380181D01*
X118225309Y-76348929D01*
X118288845Y-76301692D01*
X118390704Y-76183728D01*
X118452859Y-76039532D01*
X118464722Y-75904757D01*
X118429897Y-75826679D01*
X118362788Y-75816447D01*
X118283730Y-75882807D01*
G36*
X117530077Y-75614217D02*
G01*
X117376395Y-75685309D01*
X117236890Y-75787482D01*
X117138325Y-75905381D01*
X117106700Y-76008980D01*
X117113092Y-76068314D01*
X117146351Y-76089198D01*
X117227608Y-76071121D01*
X117377991Y-76013573D01*
X117407292Y-76001717D01*
X117575742Y-75914670D01*
X117705574Y-75812939D01*
X117779587Y-75714168D01*
X117780575Y-75636002D01*
X117772923Y-75626702D01*
X117671174Y-75589563D01*
X117530077Y-75614217D01*
X117530077Y-75614217D01*
G37*
X117530077Y-75614217D02*
X117376395Y-75685309D01*
X117236890Y-75787482D01*
X117138325Y-75905381D01*
X117106700Y-76008980D01*
X117113092Y-76068314D01*
X117146351Y-76089198D01*
X117227608Y-76071121D01*
X117377991Y-76013573D01*
X117407292Y-76001717D01*
X117575742Y-75914670D01*
X117705574Y-75812939D01*
X117779587Y-75714168D01*
X117780575Y-75636002D01*
X117772923Y-75626702D01*
X117671174Y-75589563D01*
X117530077Y-75614217D01*
G36*
X117708087Y-74289295D02*
G01*
X117633561Y-74343492D01*
X117649471Y-74424854D01*
X117754743Y-74526044D01*
X117926778Y-74628912D01*
X118118178Y-74707633D01*
X118251926Y-74721972D01*
X118319397Y-74671851D01*
X118325900Y-74632617D01*
X118292948Y-74533415D01*
X118212494Y-74416445D01*
X118201326Y-74404017D01*
X118073478Y-74304473D01*
X117913903Y-74270413D01*
X117874124Y-74269600D01*
X117708087Y-74289295D01*
X117708087Y-74289295D01*
G37*
X117708087Y-74289295D02*
X117633561Y-74343492D01*
X117649471Y-74424854D01*
X117754743Y-74526044D01*
X117926778Y-74628912D01*
X118118178Y-74707633D01*
X118251926Y-74721972D01*
X118319397Y-74671851D01*
X118325900Y-74632617D01*
X118292948Y-74533415D01*
X118212494Y-74416445D01*
X118201326Y-74404017D01*
X118073478Y-74304473D01*
X117913903Y-74270413D01*
X117874124Y-74269600D01*
X117708087Y-74289295D01*
G36*
X128568546Y-74181661D02*
G01*
X128536700Y-74234695D01*
X128568412Y-74308424D01*
X128644866Y-74401848D01*
X128738042Y-74488211D01*
X128819919Y-74540755D01*
X128857723Y-74541244D01*
X128893520Y-74444302D01*
X128873502Y-74322863D01*
X128808103Y-74229464D01*
X128794040Y-74220587D01*
X128663059Y-74173548D01*
X128568546Y-74181661D01*
X128568546Y-74181661D01*
G37*
X128568546Y-74181661D02*
X128536700Y-74234695D01*
X128568412Y-74308424D01*
X128644866Y-74401848D01*
X128738042Y-74488211D01*
X128819919Y-74540755D01*
X128857723Y-74541244D01*
X128893520Y-74444302D01*
X128873502Y-74322863D01*
X128808103Y-74229464D01*
X128794040Y-74220587D01*
X128663059Y-74173548D01*
X128568546Y-74181661D01*
G36*
X128823884Y-73775528D02*
G01*
X128809969Y-73837455D01*
X128822823Y-73901300D01*
X128868657Y-74016553D01*
X128950242Y-74167609D01*
X129046693Y-74320804D01*
X129137124Y-74442473D01*
X129190672Y-74494227D01*
X129258733Y-74494384D01*
X129266215Y-74488352D01*
X129286556Y-74421301D01*
X129297872Y-74293298D01*
X129298700Y-74245237D01*
X129278027Y-74074295D01*
X129201020Y-73944380D01*
X129156221Y-73898104D01*
X129034485Y-73808270D01*
X128918290Y-73762926D01*
X128901253Y-73761600D01*
X128823884Y-73775528D01*
X128823884Y-73775528D01*
G37*
X128823884Y-73775528D02*
X128809969Y-73837455D01*
X128822823Y-73901300D01*
X128868657Y-74016553D01*
X128950242Y-74167609D01*
X129046693Y-74320804D01*
X129137124Y-74442473D01*
X129190672Y-74494227D01*
X129258733Y-74494384D01*
X129266215Y-74488352D01*
X129286556Y-74421301D01*
X129297872Y-74293298D01*
X129298700Y-74245237D01*
X129278027Y-74074295D01*
X129201020Y-73944380D01*
X129156221Y-73898104D01*
X129034485Y-73808270D01*
X128918290Y-73762926D01*
X128901253Y-73761600D01*
X128823884Y-73775528D01*
G36*
X117030427Y-72773988D02*
G01*
X116909694Y-72844805D01*
X116792273Y-72936529D01*
X116704988Y-73027640D01*
X116674660Y-73096617D01*
X116678063Y-73106317D01*
X116754303Y-73143752D01*
X116890675Y-73144400D01*
X117053410Y-73110278D01*
X117138702Y-73078828D01*
X117257941Y-73015239D01*
X117331356Y-72954897D01*
X117333575Y-72951591D01*
X117337185Y-72867087D01*
X117269141Y-72789763D01*
X117157268Y-72747452D01*
X117127648Y-72745600D01*
X117030427Y-72773988D01*
X117030427Y-72773988D01*
G37*
X117030427Y-72773988D02*
X116909694Y-72844805D01*
X116792273Y-72936529D01*
X116704988Y-73027640D01*
X116674660Y-73096617D01*
X116678063Y-73106317D01*
X116754303Y-73143752D01*
X116890675Y-73144400D01*
X117053410Y-73110278D01*
X117138702Y-73078828D01*
X117257941Y-73015239D01*
X117331356Y-72954897D01*
X117333575Y-72951591D01*
X117337185Y-72867087D01*
X117269141Y-72789763D01*
X117157268Y-72747452D01*
X117127648Y-72745600D01*
X117030427Y-72773988D01*
G36*
X119353179Y-72001035D02*
G01*
X119350802Y-72117035D01*
X119411225Y-72305931D01*
X119442132Y-72377300D01*
X119535978Y-72534139D01*
X119629618Y-72589785D01*
X119723868Y-72544636D01*
X119742035Y-72524549D01*
X119767778Y-72423926D01*
X119740819Y-72283087D01*
X119675001Y-72138591D01*
X119584166Y-72026998D01*
X119543208Y-71999397D01*
X119417575Y-71960849D01*
X119353179Y-72001035D01*
X119353179Y-72001035D01*
G37*
X119353179Y-72001035D02*
X119350802Y-72117035D01*
X119411225Y-72305931D01*
X119442132Y-72377300D01*
X119535978Y-72534139D01*
X119629618Y-72589785D01*
X119723868Y-72544636D01*
X119742035Y-72524549D01*
X119767778Y-72423926D01*
X119740819Y-72283087D01*
X119675001Y-72138591D01*
X119584166Y-72026998D01*
X119543208Y-71999397D01*
X119417575Y-71960849D01*
X119353179Y-72001035D01*
G36*
X119061671Y-71584836D02*
G01*
X118981900Y-71638569D01*
X118895799Y-71750315D01*
X118874646Y-71787888D01*
X118818453Y-71944212D01*
X118809349Y-72083112D01*
X118839262Y-72186270D01*
X118900122Y-72235373D01*
X118983857Y-72212104D01*
X119038499Y-72159714D01*
X119080958Y-72065378D01*
X119116170Y-71913167D01*
X119127869Y-71824451D01*
X119138338Y-71673211D01*
X119127567Y-71599735D01*
X119089276Y-71581291D01*
X119061671Y-71584836D01*
X119061671Y-71584836D01*
G37*
X119061671Y-71584836D02*
X118981900Y-71638569D01*
X118895799Y-71750315D01*
X118874646Y-71787888D01*
X118818453Y-71944212D01*
X118809349Y-72083112D01*
X118839262Y-72186270D01*
X118900122Y-72235373D01*
X118983857Y-72212104D01*
X119038499Y-72159714D01*
X119080958Y-72065378D01*
X119116170Y-71913167D01*
X119127869Y-71824451D01*
X119138338Y-71673211D01*
X119127567Y-71599735D01*
X119089276Y-71581291D01*
X119061671Y-71584836D01*
G36*
X118201272Y-71481158D02*
G01*
X118175288Y-71523060D01*
X118125134Y-71715935D01*
X118171688Y-71909820D01*
X118243478Y-72016747D01*
X118364256Y-72157159D01*
X118400036Y-71897009D01*
X118409410Y-71704450D01*
X118385832Y-71552629D01*
X118337691Y-71455503D01*
X118273375Y-71427027D01*
X118201272Y-71481158D01*
X118201272Y-71481158D01*
G37*
X118201272Y-71481158D02*
X118175288Y-71523060D01*
X118125134Y-71715935D01*
X118171688Y-71909820D01*
X118243478Y-72016747D01*
X118364256Y-72157159D01*
X118400036Y-71897009D01*
X118409410Y-71704450D01*
X118385832Y-71552629D01*
X118337691Y-71455503D01*
X118273375Y-71427027D01*
X118201272Y-71481158D01*
D13*
X85759500Y-66930000D02*
X80359500Y-66930000D01*
X85759500Y-70230000D02*
X80359500Y-70230000D01*
X85759500Y-66930000D02*
X85759500Y-70230000D01*
D12*
G36*
X102298500Y-79692500D02*
G01*
X105854500Y-79692500D01*
X105854500Y-76644500D01*
X105346500Y-76644500D01*
X105346500Y-79184500D01*
X102806500Y-79184500D01*
X102806500Y-76644500D01*
X105346500Y-76644500D01*
X105854500Y-76644500D01*
X105854500Y-76136500D01*
X102298500Y-76136500D01*
X102298500Y-79692500D01*
X102298500Y-79692500D01*
G37*
X102298500Y-79692500D02*
X105854500Y-79692500D01*
X105854500Y-76644500D01*
X105346500Y-76644500D01*
X105346500Y-79184500D01*
X102806500Y-79184500D01*
X102806500Y-76644500D01*
X105346500Y-76644500D01*
X105854500Y-76644500D01*
X105854500Y-76136500D01*
X102298500Y-76136500D01*
X102298500Y-79692500D01*
G36*
X96202500Y-77152500D02*
G01*
X96456500Y-77152500D01*
X96636408Y-77173479D01*
X96702718Y-77272440D01*
X96710500Y-77406500D01*
X96731479Y-77586408D01*
X96830440Y-77652719D01*
X96964500Y-77660500D01*
X97144408Y-77639521D01*
X97210718Y-77540560D01*
X97218500Y-77406500D01*
X97197521Y-77226592D01*
X97098560Y-77160282D01*
X96964500Y-77152500D01*
X96710500Y-77152500D01*
X96710500Y-76136500D01*
X96202500Y-76136500D01*
X96202500Y-77152500D01*
X96202500Y-77152500D01*
G37*
X96202500Y-77152500D02*
X96456500Y-77152500D01*
X96636408Y-77173479D01*
X96702718Y-77272440D01*
X96710500Y-77406500D01*
X96731479Y-77586408D01*
X96830440Y-77652719D01*
X96964500Y-77660500D01*
X97144408Y-77639521D01*
X97210718Y-77540560D01*
X97218500Y-77406500D01*
X97197521Y-77226592D01*
X97098560Y-77160282D01*
X96964500Y-77152500D01*
X96710500Y-77152500D01*
X96710500Y-76136500D01*
X96202500Y-76136500D01*
X96202500Y-77152500D01*
G36*
X96202500Y-75120500D02*
G01*
X96456500Y-75120500D01*
X96636408Y-75141479D01*
X96702718Y-75240440D01*
X96710500Y-75374500D01*
X96731479Y-75554408D01*
X96830440Y-75620719D01*
X96964500Y-75628500D01*
X97144408Y-75649479D01*
X97210718Y-75748440D01*
X97218500Y-75882500D01*
X97239479Y-76062408D01*
X97338440Y-76128719D01*
X97472500Y-76136500D01*
X97726500Y-76136500D01*
X97726500Y-75120500D01*
X97980500Y-75120500D01*
X98160408Y-75141479D01*
X98226718Y-75240440D01*
X98234500Y-75374500D01*
X98255479Y-75554408D01*
X98354440Y-75620719D01*
X98488500Y-75628500D01*
X98668408Y-75649479D01*
X98734718Y-75748440D01*
X98742500Y-75882500D01*
X98721521Y-76062408D01*
X98622560Y-76128719D01*
X98488500Y-76136500D01*
X98308592Y-76157479D01*
X98242281Y-76256440D01*
X98234500Y-76390500D01*
X98255479Y-76570408D01*
X98354440Y-76636719D01*
X98488500Y-76644500D01*
X98668408Y-76665479D01*
X98734718Y-76764440D01*
X98742500Y-76898500D01*
X98721521Y-77078408D01*
X98622560Y-77144719D01*
X98488500Y-77152500D01*
X98234500Y-77152500D01*
X98234500Y-78676500D01*
X99250500Y-78676500D01*
X99250500Y-77660500D01*
X98996500Y-77660500D01*
X98816592Y-77639521D01*
X98750281Y-77540560D01*
X98742500Y-77406500D01*
X98742500Y-77152500D01*
X99758500Y-77152500D01*
X99758500Y-79184500D01*
X98742500Y-79184500D01*
X98742500Y-79692500D01*
X99758500Y-79692500D01*
X99758500Y-79438500D01*
X99779479Y-79258592D01*
X99878440Y-79192282D01*
X100012500Y-79184500D01*
X100192408Y-79205479D01*
X100258718Y-79304440D01*
X100266500Y-79438500D01*
X100266500Y-79692500D01*
X101790500Y-79692500D01*
X101790500Y-78676500D01*
X101536500Y-78676500D01*
X101356592Y-78655521D01*
X101290281Y-78556560D01*
X101282500Y-78422500D01*
X101303479Y-78242592D01*
X101402440Y-78176282D01*
X101536500Y-78168500D01*
X100774500Y-78168500D01*
X100774500Y-79184500D01*
X100266500Y-79184500D01*
X100266500Y-78168500D01*
X100774500Y-78168500D01*
X101536500Y-78168500D01*
X101716408Y-78147521D01*
X101782718Y-78048560D01*
X101790500Y-77914500D01*
X101790500Y-77660500D01*
X100774500Y-77660500D01*
X100774500Y-77406500D01*
X100795479Y-77226592D01*
X100894440Y-77160282D01*
X101028500Y-77152500D01*
X101208408Y-77131521D01*
X101274718Y-77032560D01*
X101282500Y-76898500D01*
X101303479Y-76718592D01*
X101402440Y-76652282D01*
X101536500Y-76644500D01*
X101790500Y-76644500D01*
X101790500Y-76136500D01*
X101282500Y-76136500D01*
X101282500Y-76390500D01*
X101261521Y-76570408D01*
X101162560Y-76636719D01*
X101028500Y-76644500D01*
X100848592Y-76665479D01*
X100782281Y-76764440D01*
X100774500Y-76898500D01*
X100753521Y-77078408D01*
X100654560Y-77144719D01*
X100520500Y-77152500D01*
X100266500Y-77152500D01*
X100266500Y-76136500D01*
X101282500Y-76136500D01*
X101790500Y-76136500D01*
X101790500Y-75628500D01*
X100266500Y-75628500D01*
X100266500Y-75374500D01*
X99250500Y-75374500D01*
X99229521Y-75554408D01*
X99130560Y-75620719D01*
X98996500Y-75628500D01*
X98816592Y-75607521D01*
X98750281Y-75508560D01*
X98742500Y-75374500D01*
X98763479Y-75194592D01*
X98862440Y-75128282D01*
X98996500Y-75120500D01*
X99176408Y-75141479D01*
X99242718Y-75240440D01*
X99250500Y-75374500D01*
X100266500Y-75374500D01*
X100266500Y-74612500D01*
X100012500Y-74612500D01*
X99832592Y-74633479D01*
X99766281Y-74732440D01*
X99758500Y-74866500D01*
X99737521Y-75046408D01*
X99638560Y-75112719D01*
X99504500Y-75120500D01*
X99250500Y-75120500D01*
X99250500Y-74104500D01*
X98742500Y-74104500D01*
X98742500Y-75120500D01*
X98488500Y-75120500D01*
X98308592Y-75099521D01*
X98242281Y-75000560D01*
X98234500Y-74866500D01*
X98213521Y-74686592D01*
X98114560Y-74620282D01*
X97980500Y-74612500D01*
X97800592Y-74633479D01*
X97734281Y-74732440D01*
X97726500Y-74866500D01*
X97705521Y-75046408D01*
X97606560Y-75112719D01*
X97472500Y-75120500D01*
X97218500Y-75120500D01*
X97218500Y-74104500D01*
X97472500Y-74104500D01*
X97652408Y-74083521D01*
X97718718Y-73984560D01*
X97726500Y-73850500D01*
X97726500Y-73596500D01*
X99250500Y-73596500D01*
X99250500Y-73342500D01*
X97726500Y-73342500D01*
X97705521Y-73522408D01*
X97606560Y-73588719D01*
X97472500Y-73596500D01*
X97292592Y-73575521D01*
X97226281Y-73476560D01*
X97218500Y-73342500D01*
X97239479Y-73162592D01*
X97338440Y-73096282D01*
X97472500Y-73088500D01*
X97652408Y-73109479D01*
X97718718Y-73208440D01*
X97726500Y-73342500D01*
X99250500Y-73342500D01*
X99271479Y-73162592D01*
X99370440Y-73096282D01*
X99504500Y-73088500D01*
X99684408Y-73109479D01*
X99750718Y-73208440D01*
X99758500Y-73342500D01*
X99758500Y-73596500D01*
X101790500Y-73596500D01*
X101790500Y-73850500D01*
X101769521Y-74030408D01*
X101670560Y-74096719D01*
X101536500Y-74104500D01*
X101356592Y-74125479D01*
X101290281Y-74224440D01*
X101282500Y-74358500D01*
X101282500Y-74612500D01*
X102806500Y-74612500D01*
X102806500Y-74358500D01*
X102785521Y-74178592D01*
X102686560Y-74112282D01*
X102552500Y-74104500D01*
X102372592Y-74083521D01*
X102306281Y-73984560D01*
X102298500Y-73850500D01*
X102298500Y-73596500D01*
X103314500Y-73596500D01*
X103314500Y-73850500D01*
X103335479Y-74030408D01*
X103434440Y-74096719D01*
X103568500Y-74104500D01*
X103748408Y-74125479D01*
X103814718Y-74224440D01*
X103822500Y-74358500D01*
X103801521Y-74538408D01*
X103702560Y-74604719D01*
X103568500Y-74612500D01*
X103388592Y-74633479D01*
X103322281Y-74732440D01*
X103314500Y-74866500D01*
X103314500Y-75120500D01*
X102298500Y-75120500D01*
X102298500Y-75628500D01*
X103314500Y-75628500D01*
X103314500Y-75374500D01*
X103335479Y-75194592D01*
X103434440Y-75128282D01*
X103568500Y-75120500D01*
X103748408Y-75099521D01*
X103814718Y-75000560D01*
X103822500Y-74866500D01*
X103843479Y-74686592D01*
X103942440Y-74620282D01*
X104076500Y-74612500D01*
X104256408Y-74591521D01*
X104322718Y-74492560D01*
X104330500Y-74358500D01*
X104351479Y-74178592D01*
X104450440Y-74112282D01*
X104584500Y-74104500D01*
X104838500Y-74104500D01*
X104838500Y-73088500D01*
X105854500Y-73088500D01*
X105854500Y-71564500D01*
X105346500Y-71564500D01*
X105346500Y-72580500D01*
X105092500Y-72580500D01*
X104912592Y-72601479D01*
X104846281Y-72700440D01*
X104838500Y-72834500D01*
X104838500Y-73088500D01*
X103822500Y-73088500D01*
X103822500Y-73342500D01*
X103843479Y-73522408D01*
X103942440Y-73588719D01*
X104076500Y-73596500D01*
X104256408Y-73617479D01*
X104322718Y-73716440D01*
X104330500Y-73850500D01*
X104309521Y-74030408D01*
X104210560Y-74096719D01*
X104076500Y-74104500D01*
X103896592Y-74083521D01*
X103830281Y-73984560D01*
X103822500Y-73850500D01*
X103801521Y-73670592D01*
X103702560Y-73604282D01*
X103568500Y-73596500D01*
X103388592Y-73575521D01*
X103322281Y-73476560D01*
X103314500Y-73342500D01*
X103314500Y-73088500D01*
X102298500Y-73088500D01*
X102298500Y-72834500D01*
X101790500Y-72834500D01*
X101769521Y-73014408D01*
X101670560Y-73080719D01*
X101536500Y-73088500D01*
X101356592Y-73067521D01*
X101290281Y-72968560D01*
X101282500Y-72834500D01*
X101282500Y-72580500D01*
X100266500Y-72580500D01*
X100266500Y-72834500D01*
X100245521Y-73014408D01*
X100146560Y-73080719D01*
X100012500Y-73088500D01*
X99758500Y-73088500D01*
X99758500Y-72072500D01*
X101282500Y-72072500D01*
X101282500Y-72326500D01*
X101303479Y-72506408D01*
X101402440Y-72572719D01*
X101536500Y-72580500D01*
X101716408Y-72601479D01*
X101782718Y-72700440D01*
X101790500Y-72834500D01*
X102298500Y-72834500D01*
X102319479Y-72654592D01*
X102418440Y-72588282D01*
X102552500Y-72580500D01*
X102732408Y-72559521D01*
X102798718Y-72460560D01*
X102806500Y-72326500D01*
X102806500Y-72072500D01*
X101282500Y-72072500D01*
X101282500Y-71564500D01*
X99758500Y-71564500D01*
X99758500Y-71310500D01*
X99737521Y-71130592D01*
X99638560Y-71064282D01*
X99504500Y-71056500D01*
X99250500Y-71056500D01*
X99250500Y-72580500D01*
X97218500Y-72580500D01*
X97218500Y-72326500D01*
X97197521Y-72146592D01*
X97098560Y-72080282D01*
X96964500Y-72072500D01*
X96784592Y-72093479D01*
X96718281Y-72192440D01*
X96710500Y-72326500D01*
X96689521Y-72506408D01*
X96590560Y-72572719D01*
X96456500Y-72580500D01*
X96202500Y-72580500D01*
X96202500Y-73596500D01*
X96710500Y-73596500D01*
X96710500Y-74612500D01*
X96456500Y-74612500D01*
X96276592Y-74633479D01*
X96210281Y-74732440D01*
X96202500Y-74866500D01*
X96181521Y-75046408D01*
X96082560Y-75112719D01*
X95948500Y-75120500D01*
X95768592Y-75099521D01*
X95702281Y-75000560D01*
X95694500Y-74866500D01*
X95673521Y-74686592D01*
X95574560Y-74620282D01*
X95440500Y-74612500D01*
X95260592Y-74591521D01*
X95194281Y-74492560D01*
X95186500Y-74358500D01*
X95207479Y-74178592D01*
X95306440Y-74112282D01*
X95440500Y-74104500D01*
X94678500Y-74104500D01*
X94678500Y-75120500D01*
X94170500Y-75120500D01*
X94170500Y-74104500D01*
X94678500Y-74104500D01*
X95440500Y-74104500D01*
X95694500Y-74104500D01*
X95694500Y-73088500D01*
X95186500Y-73088500D01*
X95186500Y-73596500D01*
X94170500Y-73596500D01*
X94170500Y-73342500D01*
X94149521Y-73162592D01*
X94050560Y-73096282D01*
X93916500Y-73088500D01*
X93662500Y-73088500D01*
X93662500Y-74104500D01*
X93154500Y-74104500D01*
X93154500Y-76644500D01*
X92138500Y-76644500D01*
X92138500Y-76390500D01*
X92159479Y-76210592D01*
X92258440Y-76144282D01*
X92392500Y-76136500D01*
X92646500Y-76136500D01*
X92646500Y-75120500D01*
X92138500Y-75120500D01*
X92138500Y-74104500D01*
X91884500Y-74104500D01*
X91704592Y-74083521D01*
X91638281Y-73984560D01*
X91630500Y-73850500D01*
X91651479Y-73670592D01*
X91750440Y-73604282D01*
X91884500Y-73596500D01*
X92138500Y-73596500D01*
X92138500Y-72580500D01*
X92392500Y-72580500D01*
X92572408Y-72601479D01*
X92638718Y-72700440D01*
X92646500Y-72834500D01*
X92667479Y-73014408D01*
X92766440Y-73080719D01*
X92900500Y-73088500D01*
X93080408Y-73067521D01*
X93146718Y-72968560D01*
X93154500Y-72834500D01*
X93154500Y-72580500D01*
X94170500Y-72580500D01*
X94170500Y-73088500D01*
X95186500Y-73088500D01*
X95694500Y-73088500D01*
X95694500Y-72326500D01*
X95186500Y-72326500D01*
X95165521Y-72506408D01*
X95066560Y-72572719D01*
X94932500Y-72580500D01*
X94752592Y-72559521D01*
X94686281Y-72460560D01*
X94678500Y-72326500D01*
X94699479Y-72146592D01*
X94798440Y-72080282D01*
X94932500Y-72072500D01*
X95112408Y-72093479D01*
X95178718Y-72192440D01*
X95186500Y-72326500D01*
X95694500Y-72326500D01*
X95694500Y-72072500D01*
X95948500Y-72072500D01*
X96128408Y-72051521D01*
X96194718Y-71952560D01*
X96202500Y-71818500D01*
X96181521Y-71638592D01*
X96082560Y-71572282D01*
X95948500Y-71564500D01*
X95768592Y-71543521D01*
X95702281Y-71444560D01*
X95694500Y-71310500D01*
X95694500Y-71056500D01*
X96710500Y-71056500D01*
X96710500Y-70802500D01*
X96689521Y-70622592D01*
X96590560Y-70556282D01*
X96456500Y-70548500D01*
X96276592Y-70527521D01*
X96210281Y-70428560D01*
X96202500Y-70294500D01*
X96181521Y-70114592D01*
X96082560Y-70048282D01*
X95948500Y-70040500D01*
X95694500Y-70040500D01*
X95694500Y-69024500D01*
X97218500Y-69024500D01*
X97218500Y-68770500D01*
X97197521Y-68590592D01*
X97098560Y-68524282D01*
X96964500Y-68516500D01*
X96784592Y-68495521D01*
X96718281Y-68396560D01*
X96710500Y-68262500D01*
X96202500Y-68262500D01*
X96181521Y-68442408D01*
X96082560Y-68508719D01*
X95948500Y-68516500D01*
X95768592Y-68495521D01*
X95702281Y-68396560D01*
X95694500Y-68262500D01*
X95715479Y-68082592D01*
X95814440Y-68016282D01*
X95948500Y-68008500D01*
X96128408Y-68029479D01*
X96194718Y-68128440D01*
X96202500Y-68262500D01*
X96710500Y-68262500D01*
X96731479Y-68082592D01*
X96830440Y-68016282D01*
X96964500Y-68008500D01*
X97144408Y-67987521D01*
X97210718Y-67888560D01*
X97218500Y-67754500D01*
X97239479Y-67574592D01*
X97338440Y-67508282D01*
X97472500Y-67500500D01*
X97652408Y-67521479D01*
X97718718Y-67620440D01*
X97726500Y-67754500D01*
X97747479Y-67934408D01*
X97846440Y-68000719D01*
X97980500Y-68008500D01*
X98160408Y-68029479D01*
X98226718Y-68128440D01*
X98234500Y-68262500D01*
X98255479Y-68442408D01*
X98354440Y-68508719D01*
X98488500Y-68516500D01*
X98742500Y-68516500D01*
X98742500Y-67500500D01*
X98488500Y-67500500D01*
X98308592Y-67479521D01*
X98242281Y-67380560D01*
X98234500Y-67246500D01*
X98255479Y-67066592D01*
X98354440Y-67000282D01*
X98488500Y-66992500D01*
X98742500Y-66992500D01*
X98742500Y-65976500D01*
X98234500Y-65976500D01*
X98234500Y-66484500D01*
X97218500Y-66484500D01*
X97218500Y-66230500D01*
X96710500Y-66230500D01*
X96710500Y-66484500D01*
X95694500Y-66484500D01*
X95694500Y-65468500D01*
X95948500Y-65468500D01*
X96128408Y-65489479D01*
X96194718Y-65588440D01*
X96202500Y-65722500D01*
X96223479Y-65902408D01*
X96322440Y-65968719D01*
X96456500Y-65976500D01*
X96636408Y-65997479D01*
X96702718Y-66096440D01*
X96710500Y-66230500D01*
X97218500Y-66230500D01*
X97218500Y-65976500D01*
X98234500Y-65976500D01*
X98742500Y-65976500D01*
X98996500Y-65976500D01*
X99176408Y-65997479D01*
X99242718Y-66096440D01*
X99250500Y-66230500D01*
X99271479Y-66410408D01*
X99370440Y-66476719D01*
X99504500Y-66484500D01*
X99684408Y-66505479D01*
X99750718Y-66604440D01*
X99758500Y-66738500D01*
X99758500Y-66992500D01*
X101282500Y-66992500D01*
X101282500Y-67246500D01*
X101261521Y-67426408D01*
X101162560Y-67492719D01*
X101028500Y-67500500D01*
X100848592Y-67521479D01*
X100782281Y-67620440D01*
X100774500Y-67754500D01*
X100795479Y-67934408D01*
X100894440Y-68000719D01*
X101028500Y-68008500D01*
X101208408Y-68029479D01*
X101274718Y-68128440D01*
X101282500Y-68262500D01*
X101261521Y-68442408D01*
X101162560Y-68508719D01*
X101028500Y-68516500D01*
X100848592Y-68537479D01*
X100782281Y-68636440D01*
X100774500Y-68770500D01*
X100774500Y-69024500D01*
X101790500Y-69024500D01*
X101790500Y-69532500D01*
X102806500Y-69532500D01*
X102806500Y-70040500D01*
X101790500Y-70040500D01*
X101790500Y-70548500D01*
X102806500Y-70548500D01*
X102806500Y-71056500D01*
X101790500Y-71056500D01*
X101790500Y-71564500D01*
X102806500Y-71564500D01*
X102806500Y-71818500D01*
X102827479Y-71998408D01*
X102926440Y-72064719D01*
X103060500Y-72072500D01*
X103240408Y-72051521D01*
X103306718Y-71952560D01*
X103314500Y-71818500D01*
X103335479Y-71638592D01*
X103434440Y-71572282D01*
X103568500Y-71564500D01*
X103748408Y-71543521D01*
X103814718Y-71444560D01*
X103822500Y-71310500D01*
X103843479Y-71130592D01*
X103942440Y-71064282D01*
X104076500Y-71056500D01*
X104256408Y-71077479D01*
X104322718Y-71176440D01*
X104330500Y-71310500D01*
X104330500Y-71564500D01*
X105346500Y-71564500D01*
X105854500Y-71564500D01*
X105854500Y-71056500D01*
X104838500Y-71056500D01*
X104838500Y-69532500D01*
X105092500Y-69532500D01*
X105272408Y-69553479D01*
X105338718Y-69652440D01*
X105346500Y-69786500D01*
X105367479Y-69966408D01*
X105466440Y-70032719D01*
X105600500Y-70040500D01*
X105854500Y-70040500D01*
X105854500Y-69024500D01*
X104838500Y-69024500D01*
X104838500Y-69278500D01*
X104817521Y-69458408D01*
X104718560Y-69524719D01*
X104584500Y-69532500D01*
X104404592Y-69511521D01*
X104338281Y-69412560D01*
X104330500Y-69278500D01*
X104309521Y-69098592D01*
X104210560Y-69032282D01*
X104076500Y-69024500D01*
X103896592Y-69045479D01*
X103830281Y-69144440D01*
X103822500Y-69278500D01*
X103843479Y-69458408D01*
X103942440Y-69524719D01*
X104076500Y-69532500D01*
X104256408Y-69553479D01*
X104322718Y-69652440D01*
X104330500Y-69786500D01*
X104309521Y-69966408D01*
X104210560Y-70032719D01*
X104076500Y-70040500D01*
X103896592Y-70061479D01*
X103830281Y-70160440D01*
X103822500Y-70294500D01*
X103801521Y-70474408D01*
X103702560Y-70540719D01*
X103568500Y-70548500D01*
X103314500Y-70548500D01*
X103314500Y-69532500D01*
X103060500Y-69532500D01*
X102880592Y-69511521D01*
X102814281Y-69412560D01*
X102806500Y-69278500D01*
X102806500Y-69024500D01*
X101790500Y-69024500D01*
X101790500Y-66992500D01*
X101536500Y-66992500D01*
X101356592Y-66971521D01*
X101290281Y-66872560D01*
X101282500Y-66738500D01*
X101303479Y-66558592D01*
X101402440Y-66492282D01*
X101536500Y-66484500D01*
X101790500Y-66484500D01*
X101790500Y-65468500D01*
X101536500Y-65468500D01*
X101356592Y-65447521D01*
X101290281Y-65348560D01*
X101282500Y-65214500D01*
X101261521Y-65034592D01*
X101162560Y-64968282D01*
X101028500Y-64960500D01*
X100848592Y-64981479D01*
X100782281Y-65080440D01*
X100774500Y-65214500D01*
X100795479Y-65394408D01*
X100894440Y-65460719D01*
X101028500Y-65468500D01*
X101208408Y-65489479D01*
X101274718Y-65588440D01*
X101282500Y-65722500D01*
X101282500Y-65976500D01*
X100266500Y-65976500D01*
X100266500Y-65722500D01*
X100245521Y-65542592D01*
X100146560Y-65476282D01*
X100012500Y-65468500D01*
X99832592Y-65447521D01*
X99766281Y-65348560D01*
X99758500Y-65214500D01*
X99758500Y-64960500D01*
X97726500Y-64960500D01*
X97726500Y-65214500D01*
X97705521Y-65394408D01*
X97606560Y-65460719D01*
X97472500Y-65468500D01*
X97292592Y-65489479D01*
X97226281Y-65588440D01*
X97218500Y-65722500D01*
X97197521Y-65902408D01*
X97098560Y-65968719D01*
X96964500Y-65976500D01*
X96784592Y-65955521D01*
X96718281Y-65856560D01*
X96710500Y-65722500D01*
X96689521Y-65542592D01*
X96590560Y-65476282D01*
X96456500Y-65468500D01*
X96276592Y-65447521D01*
X96210281Y-65348560D01*
X96202500Y-65214500D01*
X96181521Y-65034592D01*
X96082560Y-64968282D01*
X95948500Y-64960500D01*
X95768592Y-64981479D01*
X95702281Y-65080440D01*
X95694500Y-65214500D01*
X95673521Y-65394408D01*
X95574560Y-65460719D01*
X95440500Y-65468500D01*
X95186500Y-65468500D01*
X95186500Y-66484500D01*
X95440500Y-66484500D01*
X95620408Y-66505479D01*
X95686718Y-66604440D01*
X95694500Y-66738500D01*
X95694500Y-66992500D01*
X96710500Y-66992500D01*
X96710500Y-66738500D01*
X96731479Y-66558592D01*
X96830440Y-66492282D01*
X96964500Y-66484500D01*
X97218500Y-66484500D01*
X97218500Y-67500500D01*
X96964500Y-67500500D01*
X96784592Y-67521479D01*
X96718281Y-67620440D01*
X96710500Y-67754500D01*
X96689521Y-67934408D01*
X96590560Y-68000719D01*
X96456500Y-68008500D01*
X96276592Y-67987521D01*
X96210281Y-67888560D01*
X96202500Y-67754500D01*
X96202500Y-67500500D01*
X95186500Y-67500500D01*
X95186500Y-68516500D01*
X95440500Y-68516500D01*
X95620408Y-68537479D01*
X95686718Y-68636440D01*
X95694500Y-68770500D01*
X95673521Y-68950408D01*
X95574560Y-69016719D01*
X95440500Y-69024500D01*
X95186500Y-69024500D01*
X95186500Y-70040500D01*
X94678500Y-70040500D01*
X94678500Y-69024500D01*
X93154500Y-69024500D01*
X93154500Y-69278500D01*
X93133521Y-69458408D01*
X93034560Y-69524719D01*
X92900500Y-69532500D01*
X92646500Y-69532500D01*
X92646500Y-70040500D01*
X91630500Y-70040500D01*
X91630500Y-69532500D01*
X92646500Y-69532500D01*
X92900500Y-69532500D01*
X92720592Y-69511521D01*
X92654281Y-69412560D01*
X92646500Y-69278500D01*
X92646500Y-69024500D01*
X91630500Y-69024500D01*
X91630500Y-69278500D01*
X91609521Y-69458408D01*
X91510560Y-69524719D01*
X91376500Y-69532500D01*
X91196592Y-69553479D01*
X91130281Y-69652440D01*
X91122500Y-69786500D01*
X91143479Y-69966408D01*
X91242440Y-70032719D01*
X91376500Y-70040500D01*
X91630500Y-70040500D01*
X91630500Y-71056500D01*
X91376500Y-71056500D01*
X91196592Y-71077479D01*
X91130281Y-71176440D01*
X91122500Y-71310500D01*
X91122500Y-71564500D01*
X92138500Y-71564500D01*
X92138500Y-71310500D01*
X92159479Y-71130592D01*
X92258440Y-71064282D01*
X92392500Y-71056500D01*
X92572408Y-71077479D01*
X92638718Y-71176440D01*
X92646500Y-71310500D01*
X92667479Y-71490408D01*
X92766440Y-71556719D01*
X92900500Y-71564500D01*
X93080408Y-71543521D01*
X93146718Y-71444560D01*
X93154500Y-71310500D01*
X93175479Y-71130592D01*
X93274440Y-71064282D01*
X93408500Y-71056500D01*
X93662500Y-71056500D01*
X93662500Y-70802500D01*
X93154500Y-70802500D01*
X93133521Y-70982408D01*
X93034560Y-71048719D01*
X92900500Y-71056500D01*
X92720592Y-71035521D01*
X92654281Y-70936560D01*
X92646500Y-70802500D01*
X92667479Y-70622592D01*
X92766440Y-70556282D01*
X92900500Y-70548500D01*
X93080408Y-70569479D01*
X93146718Y-70668440D01*
X93154500Y-70802500D01*
X93662500Y-70802500D01*
X93662500Y-70040500D01*
X93408500Y-70040500D01*
X93228592Y-70019521D01*
X93162281Y-69920560D01*
X93154500Y-69786500D01*
X93154500Y-69532500D01*
X94170500Y-69532500D01*
X94170500Y-69786500D01*
X94191479Y-69966408D01*
X94290440Y-70032719D01*
X94424500Y-70040500D01*
X94604408Y-70061479D01*
X94670718Y-70160440D01*
X94678500Y-70294500D01*
X94678500Y-70548500D01*
X95694500Y-70548500D01*
X95694500Y-71056500D01*
X94170500Y-71056500D01*
X94170500Y-71310500D01*
X94191479Y-71490408D01*
X94290440Y-71556719D01*
X94424500Y-71564500D01*
X94604408Y-71585479D01*
X94670718Y-71684440D01*
X94678500Y-71818500D01*
X94678500Y-72072500D01*
X91122500Y-72072500D01*
X91122500Y-72326500D01*
X91143479Y-72506408D01*
X91242440Y-72572719D01*
X91376500Y-72580500D01*
X91630500Y-72580500D01*
X91630500Y-73596500D01*
X91122500Y-73596500D01*
X91122500Y-75120500D01*
X92138500Y-75120500D01*
X92138500Y-75628500D01*
X91122500Y-75628500D01*
X91122500Y-75882500D01*
X91143479Y-76062408D01*
X91242440Y-76128719D01*
X91376500Y-76136500D01*
X91556408Y-76157479D01*
X91622718Y-76256440D01*
X91630500Y-76390500D01*
X91609521Y-76570408D01*
X91510560Y-76636719D01*
X91376500Y-76644500D01*
X91122500Y-76644500D01*
X91122500Y-77660500D01*
X91376500Y-77660500D01*
X91556408Y-77681479D01*
X91622718Y-77780440D01*
X91630500Y-77914500D01*
X91609521Y-78094408D01*
X91510560Y-78160719D01*
X91376500Y-78168500D01*
X91196592Y-78189479D01*
X91130281Y-78288440D01*
X91122500Y-78422500D01*
X91143479Y-78602408D01*
X91242440Y-78668719D01*
X91376500Y-78676500D01*
X91630500Y-78676500D01*
X91630500Y-79692500D01*
X92138500Y-79692500D01*
X92138500Y-78676500D01*
X93154500Y-78676500D01*
X93154500Y-78930500D01*
X93133521Y-79110408D01*
X93034560Y-79176719D01*
X92900500Y-79184500D01*
X92720592Y-79205479D01*
X92654281Y-79304440D01*
X92646500Y-79438500D01*
X92646500Y-79692500D01*
X95694500Y-79692500D01*
X95694500Y-79438500D01*
X95715479Y-79258592D01*
X95814440Y-79192282D01*
X95948500Y-79184500D01*
X96202500Y-79184500D01*
X96202500Y-77660500D01*
X95694500Y-77660500D01*
X95186500Y-77660500D01*
X95186500Y-78676500D01*
X94932500Y-78676500D01*
X94752592Y-78697479D01*
X94686281Y-78796440D01*
X94678500Y-78930500D01*
X94678500Y-79184500D01*
X93662500Y-79184500D01*
X93662500Y-78422500D01*
X92138500Y-78422500D01*
X92117521Y-78602408D01*
X92018560Y-78668719D01*
X91884500Y-78676500D01*
X91704592Y-78655521D01*
X91638281Y-78556560D01*
X91630500Y-78422500D01*
X91651479Y-78242592D01*
X91750440Y-78176282D01*
X91884500Y-78168500D01*
X92064408Y-78189479D01*
X92130718Y-78288440D01*
X92138500Y-78422500D01*
X93662500Y-78422500D01*
X93662500Y-78168500D01*
X94678500Y-78168500D01*
X94678500Y-77914500D01*
X94699479Y-77734592D01*
X94798440Y-77668282D01*
X94932500Y-77660500D01*
X95186500Y-77660500D01*
X95694500Y-77660500D01*
X95694500Y-76136500D01*
X96202500Y-76136500D01*
X96202500Y-75628500D01*
X95186500Y-75628500D01*
X95186500Y-77152500D01*
X93662500Y-77152500D01*
X93154500Y-77152500D01*
X93154500Y-77660500D01*
X92138500Y-77660500D01*
X92138500Y-77152500D01*
X93154500Y-77152500D01*
X93662500Y-77152500D01*
X93662500Y-75628500D01*
X95186500Y-75628500D01*
X96202500Y-75628500D01*
X96202500Y-75120500D01*
X96202500Y-75120500D01*
G37*
X96202500Y-75120500D02*
X96456500Y-75120500D01*
X96636408Y-75141479D01*
X96702718Y-75240440D01*
X96710500Y-75374500D01*
X96731479Y-75554408D01*
X96830440Y-75620719D01*
X96964500Y-75628500D01*
X97144408Y-75649479D01*
X97210718Y-75748440D01*
X97218500Y-75882500D01*
X97239479Y-76062408D01*
X97338440Y-76128719D01*
X97472500Y-76136500D01*
X97726500Y-76136500D01*
X97726500Y-75120500D01*
X97980500Y-75120500D01*
X98160408Y-75141479D01*
X98226718Y-75240440D01*
X98234500Y-75374500D01*
X98255479Y-75554408D01*
X98354440Y-75620719D01*
X98488500Y-75628500D01*
X98668408Y-75649479D01*
X98734718Y-75748440D01*
X98742500Y-75882500D01*
X98721521Y-76062408D01*
X98622560Y-76128719D01*
X98488500Y-76136500D01*
X98308592Y-76157479D01*
X98242281Y-76256440D01*
X98234500Y-76390500D01*
X98255479Y-76570408D01*
X98354440Y-76636719D01*
X98488500Y-76644500D01*
X98668408Y-76665479D01*
X98734718Y-76764440D01*
X98742500Y-76898500D01*
X98721521Y-77078408D01*
X98622560Y-77144719D01*
X98488500Y-77152500D01*
X98234500Y-77152500D01*
X98234500Y-78676500D01*
X99250500Y-78676500D01*
X99250500Y-77660500D01*
X98996500Y-77660500D01*
X98816592Y-77639521D01*
X98750281Y-77540560D01*
X98742500Y-77406500D01*
X98742500Y-77152500D01*
X99758500Y-77152500D01*
X99758500Y-79184500D01*
X98742500Y-79184500D01*
X98742500Y-79692500D01*
X99758500Y-79692500D01*
X99758500Y-79438500D01*
X99779479Y-79258592D01*
X99878440Y-79192282D01*
X100012500Y-79184500D01*
X100192408Y-79205479D01*
X100258718Y-79304440D01*
X100266500Y-79438500D01*
X100266500Y-79692500D01*
X101790500Y-79692500D01*
X101790500Y-78676500D01*
X101536500Y-78676500D01*
X101356592Y-78655521D01*
X101290281Y-78556560D01*
X101282500Y-78422500D01*
X101303479Y-78242592D01*
X101402440Y-78176282D01*
X101536500Y-78168500D01*
X100774500Y-78168500D01*
X100774500Y-79184500D01*
X100266500Y-79184500D01*
X100266500Y-78168500D01*
X100774500Y-78168500D01*
X101536500Y-78168500D01*
X101716408Y-78147521D01*
X101782718Y-78048560D01*
X101790500Y-77914500D01*
X101790500Y-77660500D01*
X100774500Y-77660500D01*
X100774500Y-77406500D01*
X100795479Y-77226592D01*
X100894440Y-77160282D01*
X101028500Y-77152500D01*
X101208408Y-77131521D01*
X101274718Y-77032560D01*
X101282500Y-76898500D01*
X101303479Y-76718592D01*
X101402440Y-76652282D01*
X101536500Y-76644500D01*
X101790500Y-76644500D01*
X101790500Y-76136500D01*
X101282500Y-76136500D01*
X101282500Y-76390500D01*
X101261521Y-76570408D01*
X101162560Y-76636719D01*
X101028500Y-76644500D01*
X100848592Y-76665479D01*
X100782281Y-76764440D01*
X100774500Y-76898500D01*
X100753521Y-77078408D01*
X100654560Y-77144719D01*
X100520500Y-77152500D01*
X100266500Y-77152500D01*
X100266500Y-76136500D01*
X101282500Y-76136500D01*
X101790500Y-76136500D01*
X101790500Y-75628500D01*
X100266500Y-75628500D01*
X100266500Y-75374500D01*
X99250500Y-75374500D01*
X99229521Y-75554408D01*
X99130560Y-75620719D01*
X98996500Y-75628500D01*
X98816592Y-75607521D01*
X98750281Y-75508560D01*
X98742500Y-75374500D01*
X98763479Y-75194592D01*
X98862440Y-75128282D01*
X98996500Y-75120500D01*
X99176408Y-75141479D01*
X99242718Y-75240440D01*
X99250500Y-75374500D01*
X100266500Y-75374500D01*
X100266500Y-74612500D01*
X100012500Y-74612500D01*
X99832592Y-74633479D01*
X99766281Y-74732440D01*
X99758500Y-74866500D01*
X99737521Y-75046408D01*
X99638560Y-75112719D01*
X99504500Y-75120500D01*
X99250500Y-75120500D01*
X99250500Y-74104500D01*
X98742500Y-74104500D01*
X98742500Y-75120500D01*
X98488500Y-75120500D01*
X98308592Y-75099521D01*
X98242281Y-75000560D01*
X98234500Y-74866500D01*
X98213521Y-74686592D01*
X98114560Y-74620282D01*
X97980500Y-74612500D01*
X97800592Y-74633479D01*
X97734281Y-74732440D01*
X97726500Y-74866500D01*
X97705521Y-75046408D01*
X97606560Y-75112719D01*
X97472500Y-75120500D01*
X97218500Y-75120500D01*
X97218500Y-74104500D01*
X97472500Y-74104500D01*
X97652408Y-74083521D01*
X97718718Y-73984560D01*
X97726500Y-73850500D01*
X97726500Y-73596500D01*
X99250500Y-73596500D01*
X99250500Y-73342500D01*
X97726500Y-73342500D01*
X97705521Y-73522408D01*
X97606560Y-73588719D01*
X97472500Y-73596500D01*
X97292592Y-73575521D01*
X97226281Y-73476560D01*
X97218500Y-73342500D01*
X97239479Y-73162592D01*
X97338440Y-73096282D01*
X97472500Y-73088500D01*
X97652408Y-73109479D01*
X97718718Y-73208440D01*
X97726500Y-73342500D01*
X99250500Y-73342500D01*
X99271479Y-73162592D01*
X99370440Y-73096282D01*
X99504500Y-73088500D01*
X99684408Y-73109479D01*
X99750718Y-73208440D01*
X99758500Y-73342500D01*
X99758500Y-73596500D01*
X101790500Y-73596500D01*
X101790500Y-73850500D01*
X101769521Y-74030408D01*
X101670560Y-74096719D01*
X101536500Y-74104500D01*
X101356592Y-74125479D01*
X101290281Y-74224440D01*
X101282500Y-74358500D01*
X101282500Y-74612500D01*
X102806500Y-74612500D01*
X102806500Y-74358500D01*
X102785521Y-74178592D01*
X102686560Y-74112282D01*
X102552500Y-74104500D01*
X102372592Y-74083521D01*
X102306281Y-73984560D01*
X102298500Y-73850500D01*
X102298500Y-73596500D01*
X103314500Y-73596500D01*
X103314500Y-73850500D01*
X103335479Y-74030408D01*
X103434440Y-74096719D01*
X103568500Y-74104500D01*
X103748408Y-74125479D01*
X103814718Y-74224440D01*
X103822500Y-74358500D01*
X103801521Y-74538408D01*
X103702560Y-74604719D01*
X103568500Y-74612500D01*
X103388592Y-74633479D01*
X103322281Y-74732440D01*
X103314500Y-74866500D01*
X103314500Y-75120500D01*
X102298500Y-75120500D01*
X102298500Y-75628500D01*
X103314500Y-75628500D01*
X103314500Y-75374500D01*
X103335479Y-75194592D01*
X103434440Y-75128282D01*
X103568500Y-75120500D01*
X103748408Y-75099521D01*
X103814718Y-75000560D01*
X103822500Y-74866500D01*
X103843479Y-74686592D01*
X103942440Y-74620282D01*
X104076500Y-74612500D01*
X104256408Y-74591521D01*
X104322718Y-74492560D01*
X104330500Y-74358500D01*
X104351479Y-74178592D01*
X104450440Y-74112282D01*
X104584500Y-74104500D01*
X104838500Y-74104500D01*
X104838500Y-73088500D01*
X105854500Y-73088500D01*
X105854500Y-71564500D01*
X105346500Y-71564500D01*
X105346500Y-72580500D01*
X105092500Y-72580500D01*
X104912592Y-72601479D01*
X104846281Y-72700440D01*
X104838500Y-72834500D01*
X104838500Y-73088500D01*
X103822500Y-73088500D01*
X103822500Y-73342500D01*
X103843479Y-73522408D01*
X103942440Y-73588719D01*
X104076500Y-73596500D01*
X104256408Y-73617479D01*
X104322718Y-73716440D01*
X104330500Y-73850500D01*
X104309521Y-74030408D01*
X104210560Y-74096719D01*
X104076500Y-74104500D01*
X103896592Y-74083521D01*
X103830281Y-73984560D01*
X103822500Y-73850500D01*
X103801521Y-73670592D01*
X103702560Y-73604282D01*
X103568500Y-73596500D01*
X103388592Y-73575521D01*
X103322281Y-73476560D01*
X103314500Y-73342500D01*
X103314500Y-73088500D01*
X102298500Y-73088500D01*
X102298500Y-72834500D01*
X101790500Y-72834500D01*
X101769521Y-73014408D01*
X101670560Y-73080719D01*
X101536500Y-73088500D01*
X101356592Y-73067521D01*
X101290281Y-72968560D01*
X101282500Y-72834500D01*
X101282500Y-72580500D01*
X100266500Y-72580500D01*
X100266500Y-72834500D01*
X100245521Y-73014408D01*
X100146560Y-73080719D01*
X100012500Y-73088500D01*
X99758500Y-73088500D01*
X99758500Y-72072500D01*
X101282500Y-72072500D01*
X101282500Y-72326500D01*
X101303479Y-72506408D01*
X101402440Y-72572719D01*
X101536500Y-72580500D01*
X101716408Y-72601479D01*
X101782718Y-72700440D01*
X101790500Y-72834500D01*
X102298500Y-72834500D01*
X102319479Y-72654592D01*
X102418440Y-72588282D01*
X102552500Y-72580500D01*
X102732408Y-72559521D01*
X102798718Y-72460560D01*
X102806500Y-72326500D01*
X102806500Y-72072500D01*
X101282500Y-72072500D01*
X101282500Y-71564500D01*
X99758500Y-71564500D01*
X99758500Y-71310500D01*
X99737521Y-71130592D01*
X99638560Y-71064282D01*
X99504500Y-71056500D01*
X99250500Y-71056500D01*
X99250500Y-72580500D01*
X97218500Y-72580500D01*
X97218500Y-72326500D01*
X97197521Y-72146592D01*
X97098560Y-72080282D01*
X96964500Y-72072500D01*
X96784592Y-72093479D01*
X96718281Y-72192440D01*
X96710500Y-72326500D01*
X96689521Y-72506408D01*
X96590560Y-72572719D01*
X96456500Y-72580500D01*
X96202500Y-72580500D01*
X96202500Y-73596500D01*
X96710500Y-73596500D01*
X96710500Y-74612500D01*
X96456500Y-74612500D01*
X96276592Y-74633479D01*
X96210281Y-74732440D01*
X96202500Y-74866500D01*
X96181521Y-75046408D01*
X96082560Y-75112719D01*
X95948500Y-75120500D01*
X95768592Y-75099521D01*
X95702281Y-75000560D01*
X95694500Y-74866500D01*
X95673521Y-74686592D01*
X95574560Y-74620282D01*
X95440500Y-74612500D01*
X95260592Y-74591521D01*
X95194281Y-74492560D01*
X95186500Y-74358500D01*
X95207479Y-74178592D01*
X95306440Y-74112282D01*
X95440500Y-74104500D01*
X94678500Y-74104500D01*
X94678500Y-75120500D01*
X94170500Y-75120500D01*
X94170500Y-74104500D01*
X94678500Y-74104500D01*
X95440500Y-74104500D01*
X95694500Y-74104500D01*
X95694500Y-73088500D01*
X95186500Y-73088500D01*
X95186500Y-73596500D01*
X94170500Y-73596500D01*
X94170500Y-73342500D01*
X94149521Y-73162592D01*
X94050560Y-73096282D01*
X93916500Y-73088500D01*
X93662500Y-73088500D01*
X93662500Y-74104500D01*
X93154500Y-74104500D01*
X93154500Y-76644500D01*
X92138500Y-76644500D01*
X92138500Y-76390500D01*
X92159479Y-76210592D01*
X92258440Y-76144282D01*
X92392500Y-76136500D01*
X92646500Y-76136500D01*
X92646500Y-75120500D01*
X92138500Y-75120500D01*
X92138500Y-74104500D01*
X91884500Y-74104500D01*
X91704592Y-74083521D01*
X91638281Y-73984560D01*
X91630500Y-73850500D01*
X91651479Y-73670592D01*
X91750440Y-73604282D01*
X91884500Y-73596500D01*
X92138500Y-73596500D01*
X92138500Y-72580500D01*
X92392500Y-72580500D01*
X92572408Y-72601479D01*
X92638718Y-72700440D01*
X92646500Y-72834500D01*
X92667479Y-73014408D01*
X92766440Y-73080719D01*
X92900500Y-73088500D01*
X93080408Y-73067521D01*
X93146718Y-72968560D01*
X93154500Y-72834500D01*
X93154500Y-72580500D01*
X94170500Y-72580500D01*
X94170500Y-73088500D01*
X95186500Y-73088500D01*
X95694500Y-73088500D01*
X95694500Y-72326500D01*
X95186500Y-72326500D01*
X95165521Y-72506408D01*
X95066560Y-72572719D01*
X94932500Y-72580500D01*
X94752592Y-72559521D01*
X94686281Y-72460560D01*
X94678500Y-72326500D01*
X94699479Y-72146592D01*
X94798440Y-72080282D01*
X94932500Y-72072500D01*
X95112408Y-72093479D01*
X95178718Y-72192440D01*
X95186500Y-72326500D01*
X95694500Y-72326500D01*
X95694500Y-72072500D01*
X95948500Y-72072500D01*
X96128408Y-72051521D01*
X96194718Y-71952560D01*
X96202500Y-71818500D01*
X96181521Y-71638592D01*
X96082560Y-71572282D01*
X95948500Y-71564500D01*
X95768592Y-71543521D01*
X95702281Y-71444560D01*
X95694500Y-71310500D01*
X95694500Y-71056500D01*
X96710500Y-71056500D01*
X96710500Y-70802500D01*
X96689521Y-70622592D01*
X96590560Y-70556282D01*
X96456500Y-70548500D01*
X96276592Y-70527521D01*
X96210281Y-70428560D01*
X96202500Y-70294500D01*
X96181521Y-70114592D01*
X96082560Y-70048282D01*
X95948500Y-70040500D01*
X95694500Y-70040500D01*
X95694500Y-69024500D01*
X97218500Y-69024500D01*
X97218500Y-68770500D01*
X97197521Y-68590592D01*
X97098560Y-68524282D01*
X96964500Y-68516500D01*
X96784592Y-68495521D01*
X96718281Y-68396560D01*
X96710500Y-68262500D01*
X96202500Y-68262500D01*
X96181521Y-68442408D01*
X96082560Y-68508719D01*
X95948500Y-68516500D01*
X95768592Y-68495521D01*
X95702281Y-68396560D01*
X95694500Y-68262500D01*
X95715479Y-68082592D01*
X95814440Y-68016282D01*
X95948500Y-68008500D01*
X96128408Y-68029479D01*
X96194718Y-68128440D01*
X96202500Y-68262500D01*
X96710500Y-68262500D01*
X96731479Y-68082592D01*
X96830440Y-68016282D01*
X96964500Y-68008500D01*
X97144408Y-67987521D01*
X97210718Y-67888560D01*
X97218500Y-67754500D01*
X97239479Y-67574592D01*
X97338440Y-67508282D01*
X97472500Y-67500500D01*
X97652408Y-67521479D01*
X97718718Y-67620440D01*
X97726500Y-67754500D01*
X97747479Y-67934408D01*
X97846440Y-68000719D01*
X97980500Y-68008500D01*
X98160408Y-68029479D01*
X98226718Y-68128440D01*
X98234500Y-68262500D01*
X98255479Y-68442408D01*
X98354440Y-68508719D01*
X98488500Y-68516500D01*
X98742500Y-68516500D01*
X98742500Y-67500500D01*
X98488500Y-67500500D01*
X98308592Y-67479521D01*
X98242281Y-67380560D01*
X98234500Y-67246500D01*
X98255479Y-67066592D01*
X98354440Y-67000282D01*
X98488500Y-66992500D01*
X98742500Y-66992500D01*
X98742500Y-65976500D01*
X98234500Y-65976500D01*
X98234500Y-66484500D01*
X97218500Y-66484500D01*
X97218500Y-66230500D01*
X96710500Y-66230500D01*
X96710500Y-66484500D01*
X95694500Y-66484500D01*
X95694500Y-65468500D01*
X95948500Y-65468500D01*
X96128408Y-65489479D01*
X96194718Y-65588440D01*
X96202500Y-65722500D01*
X96223479Y-65902408D01*
X96322440Y-65968719D01*
X96456500Y-65976500D01*
X96636408Y-65997479D01*
X96702718Y-66096440D01*
X96710500Y-66230500D01*
X97218500Y-66230500D01*
X97218500Y-65976500D01*
X98234500Y-65976500D01*
X98742500Y-65976500D01*
X98996500Y-65976500D01*
X99176408Y-65997479D01*
X99242718Y-66096440D01*
X99250500Y-66230500D01*
X99271479Y-66410408D01*
X99370440Y-66476719D01*
X99504500Y-66484500D01*
X99684408Y-66505479D01*
X99750718Y-66604440D01*
X99758500Y-66738500D01*
X99758500Y-66992500D01*
X101282500Y-66992500D01*
X101282500Y-67246500D01*
X101261521Y-67426408D01*
X101162560Y-67492719D01*
X101028500Y-67500500D01*
X100848592Y-67521479D01*
X100782281Y-67620440D01*
X100774500Y-67754500D01*
X100795479Y-67934408D01*
X100894440Y-68000719D01*
X101028500Y-68008500D01*
X101208408Y-68029479D01*
X101274718Y-68128440D01*
X101282500Y-68262500D01*
X101261521Y-68442408D01*
X101162560Y-68508719D01*
X101028500Y-68516500D01*
X100848592Y-68537479D01*
X100782281Y-68636440D01*
X100774500Y-68770500D01*
X100774500Y-69024500D01*
X101790500Y-69024500D01*
X101790500Y-69532500D01*
X102806500Y-69532500D01*
X102806500Y-70040500D01*
X101790500Y-70040500D01*
X101790500Y-70548500D01*
X102806500Y-70548500D01*
X102806500Y-71056500D01*
X101790500Y-71056500D01*
X101790500Y-71564500D01*
X102806500Y-71564500D01*
X102806500Y-71818500D01*
X102827479Y-71998408D01*
X102926440Y-72064719D01*
X103060500Y-72072500D01*
X103240408Y-72051521D01*
X103306718Y-71952560D01*
X103314500Y-71818500D01*
X103335479Y-71638592D01*
X103434440Y-71572282D01*
X103568500Y-71564500D01*
X103748408Y-71543521D01*
X103814718Y-71444560D01*
X103822500Y-71310500D01*
X103843479Y-71130592D01*
X103942440Y-71064282D01*
X104076500Y-71056500D01*
X104256408Y-71077479D01*
X104322718Y-71176440D01*
X104330500Y-71310500D01*
X104330500Y-71564500D01*
X105346500Y-71564500D01*
X105854500Y-71564500D01*
X105854500Y-71056500D01*
X104838500Y-71056500D01*
X104838500Y-69532500D01*
X105092500Y-69532500D01*
X105272408Y-69553479D01*
X105338718Y-69652440D01*
X105346500Y-69786500D01*
X105367479Y-69966408D01*
X105466440Y-70032719D01*
X105600500Y-70040500D01*
X105854500Y-70040500D01*
X105854500Y-69024500D01*
X104838500Y-69024500D01*
X104838500Y-69278500D01*
X104817521Y-69458408D01*
X104718560Y-69524719D01*
X104584500Y-69532500D01*
X104404592Y-69511521D01*
X104338281Y-69412560D01*
X104330500Y-69278500D01*
X104309521Y-69098592D01*
X104210560Y-69032282D01*
X104076500Y-69024500D01*
X103896592Y-69045479D01*
X103830281Y-69144440D01*
X103822500Y-69278500D01*
X103843479Y-69458408D01*
X103942440Y-69524719D01*
X104076500Y-69532500D01*
X104256408Y-69553479D01*
X104322718Y-69652440D01*
X104330500Y-69786500D01*
X104309521Y-69966408D01*
X104210560Y-70032719D01*
X104076500Y-70040500D01*
X103896592Y-70061479D01*
X103830281Y-70160440D01*
X103822500Y-70294500D01*
X103801521Y-70474408D01*
X103702560Y-70540719D01*
X103568500Y-70548500D01*
X103314500Y-70548500D01*
X103314500Y-69532500D01*
X103060500Y-69532500D01*
X102880592Y-69511521D01*
X102814281Y-69412560D01*
X102806500Y-69278500D01*
X102806500Y-69024500D01*
X101790500Y-69024500D01*
X101790500Y-66992500D01*
X101536500Y-66992500D01*
X101356592Y-66971521D01*
X101290281Y-66872560D01*
X101282500Y-66738500D01*
X101303479Y-66558592D01*
X101402440Y-66492282D01*
X101536500Y-66484500D01*
X101790500Y-66484500D01*
X101790500Y-65468500D01*
X101536500Y-65468500D01*
X101356592Y-65447521D01*
X101290281Y-65348560D01*
X101282500Y-65214500D01*
X101261521Y-65034592D01*
X101162560Y-64968282D01*
X101028500Y-64960500D01*
X100848592Y-64981479D01*
X100782281Y-65080440D01*
X100774500Y-65214500D01*
X100795479Y-65394408D01*
X100894440Y-65460719D01*
X101028500Y-65468500D01*
X101208408Y-65489479D01*
X101274718Y-65588440D01*
X101282500Y-65722500D01*
X101282500Y-65976500D01*
X100266500Y-65976500D01*
X100266500Y-65722500D01*
X100245521Y-65542592D01*
X100146560Y-65476282D01*
X100012500Y-65468500D01*
X99832592Y-65447521D01*
X99766281Y-65348560D01*
X99758500Y-65214500D01*
X99758500Y-64960500D01*
X97726500Y-64960500D01*
X97726500Y-65214500D01*
X97705521Y-65394408D01*
X97606560Y-65460719D01*
X97472500Y-65468500D01*
X97292592Y-65489479D01*
X97226281Y-65588440D01*
X97218500Y-65722500D01*
X97197521Y-65902408D01*
X97098560Y-65968719D01*
X96964500Y-65976500D01*
X96784592Y-65955521D01*
X96718281Y-65856560D01*
X96710500Y-65722500D01*
X96689521Y-65542592D01*
X96590560Y-65476282D01*
X96456500Y-65468500D01*
X96276592Y-65447521D01*
X96210281Y-65348560D01*
X96202500Y-65214500D01*
X96181521Y-65034592D01*
X96082560Y-64968282D01*
X95948500Y-64960500D01*
X95768592Y-64981479D01*
X95702281Y-65080440D01*
X95694500Y-65214500D01*
X95673521Y-65394408D01*
X95574560Y-65460719D01*
X95440500Y-65468500D01*
X95186500Y-65468500D01*
X95186500Y-66484500D01*
X95440500Y-66484500D01*
X95620408Y-66505479D01*
X95686718Y-66604440D01*
X95694500Y-66738500D01*
X95694500Y-66992500D01*
X96710500Y-66992500D01*
X96710500Y-66738500D01*
X96731479Y-66558592D01*
X96830440Y-66492282D01*
X96964500Y-66484500D01*
X97218500Y-66484500D01*
X97218500Y-67500500D01*
X96964500Y-67500500D01*
X96784592Y-67521479D01*
X96718281Y-67620440D01*
X96710500Y-67754500D01*
X96689521Y-67934408D01*
X96590560Y-68000719D01*
X96456500Y-68008500D01*
X96276592Y-67987521D01*
X96210281Y-67888560D01*
X96202500Y-67754500D01*
X96202500Y-67500500D01*
X95186500Y-67500500D01*
X95186500Y-68516500D01*
X95440500Y-68516500D01*
X95620408Y-68537479D01*
X95686718Y-68636440D01*
X95694500Y-68770500D01*
X95673521Y-68950408D01*
X95574560Y-69016719D01*
X95440500Y-69024500D01*
X95186500Y-69024500D01*
X95186500Y-70040500D01*
X94678500Y-70040500D01*
X94678500Y-69024500D01*
X93154500Y-69024500D01*
X93154500Y-69278500D01*
X93133521Y-69458408D01*
X93034560Y-69524719D01*
X92900500Y-69532500D01*
X92646500Y-69532500D01*
X92646500Y-70040500D01*
X91630500Y-70040500D01*
X91630500Y-69532500D01*
X92646500Y-69532500D01*
X92900500Y-69532500D01*
X92720592Y-69511521D01*
X92654281Y-69412560D01*
X92646500Y-69278500D01*
X92646500Y-69024500D01*
X91630500Y-69024500D01*
X91630500Y-69278500D01*
X91609521Y-69458408D01*
X91510560Y-69524719D01*
X91376500Y-69532500D01*
X91196592Y-69553479D01*
X91130281Y-69652440D01*
X91122500Y-69786500D01*
X91143479Y-69966408D01*
X91242440Y-70032719D01*
X91376500Y-70040500D01*
X91630500Y-70040500D01*
X91630500Y-71056500D01*
X91376500Y-71056500D01*
X91196592Y-71077479D01*
X91130281Y-71176440D01*
X91122500Y-71310500D01*
X91122500Y-71564500D01*
X92138500Y-71564500D01*
X92138500Y-71310500D01*
X92159479Y-71130592D01*
X92258440Y-71064282D01*
X92392500Y-71056500D01*
X92572408Y-71077479D01*
X92638718Y-71176440D01*
X92646500Y-71310500D01*
X92667479Y-71490408D01*
X92766440Y-71556719D01*
X92900500Y-71564500D01*
X93080408Y-71543521D01*
X93146718Y-71444560D01*
X93154500Y-71310500D01*
X93175479Y-71130592D01*
X93274440Y-71064282D01*
X93408500Y-71056500D01*
X93662500Y-71056500D01*
X93662500Y-70802500D01*
X93154500Y-70802500D01*
X93133521Y-70982408D01*
X93034560Y-71048719D01*
X92900500Y-71056500D01*
X92720592Y-71035521D01*
X92654281Y-70936560D01*
X92646500Y-70802500D01*
X92667479Y-70622592D01*
X92766440Y-70556282D01*
X92900500Y-70548500D01*
X93080408Y-70569479D01*
X93146718Y-70668440D01*
X93154500Y-70802500D01*
X93662500Y-70802500D01*
X93662500Y-70040500D01*
X93408500Y-70040500D01*
X93228592Y-70019521D01*
X93162281Y-69920560D01*
X93154500Y-69786500D01*
X93154500Y-69532500D01*
X94170500Y-69532500D01*
X94170500Y-69786500D01*
X94191479Y-69966408D01*
X94290440Y-70032719D01*
X94424500Y-70040500D01*
X94604408Y-70061479D01*
X94670718Y-70160440D01*
X94678500Y-70294500D01*
X94678500Y-70548500D01*
X95694500Y-70548500D01*
X95694500Y-71056500D01*
X94170500Y-71056500D01*
X94170500Y-71310500D01*
X94191479Y-71490408D01*
X94290440Y-71556719D01*
X94424500Y-71564500D01*
X94604408Y-71585479D01*
X94670718Y-71684440D01*
X94678500Y-71818500D01*
X94678500Y-72072500D01*
X91122500Y-72072500D01*
X91122500Y-72326500D01*
X91143479Y-72506408D01*
X91242440Y-72572719D01*
X91376500Y-72580500D01*
X91630500Y-72580500D01*
X91630500Y-73596500D01*
X91122500Y-73596500D01*
X91122500Y-75120500D01*
X92138500Y-75120500D01*
X92138500Y-75628500D01*
X91122500Y-75628500D01*
X91122500Y-75882500D01*
X91143479Y-76062408D01*
X91242440Y-76128719D01*
X91376500Y-76136500D01*
X91556408Y-76157479D01*
X91622718Y-76256440D01*
X91630500Y-76390500D01*
X91609521Y-76570408D01*
X91510560Y-76636719D01*
X91376500Y-76644500D01*
X91122500Y-76644500D01*
X91122500Y-77660500D01*
X91376500Y-77660500D01*
X91556408Y-77681479D01*
X91622718Y-77780440D01*
X91630500Y-77914500D01*
X91609521Y-78094408D01*
X91510560Y-78160719D01*
X91376500Y-78168500D01*
X91196592Y-78189479D01*
X91130281Y-78288440D01*
X91122500Y-78422500D01*
X91143479Y-78602408D01*
X91242440Y-78668719D01*
X91376500Y-78676500D01*
X91630500Y-78676500D01*
X91630500Y-79692500D01*
X92138500Y-79692500D01*
X92138500Y-78676500D01*
X93154500Y-78676500D01*
X93154500Y-78930500D01*
X93133521Y-79110408D01*
X93034560Y-79176719D01*
X92900500Y-79184500D01*
X92720592Y-79205479D01*
X92654281Y-79304440D01*
X92646500Y-79438500D01*
X92646500Y-79692500D01*
X95694500Y-79692500D01*
X95694500Y-79438500D01*
X95715479Y-79258592D01*
X95814440Y-79192282D01*
X95948500Y-79184500D01*
X96202500Y-79184500D01*
X96202500Y-77660500D01*
X95694500Y-77660500D01*
X95186500Y-77660500D01*
X95186500Y-78676500D01*
X94932500Y-78676500D01*
X94752592Y-78697479D01*
X94686281Y-78796440D01*
X94678500Y-78930500D01*
X94678500Y-79184500D01*
X93662500Y-79184500D01*
X93662500Y-78422500D01*
X92138500Y-78422500D01*
X92117521Y-78602408D01*
X92018560Y-78668719D01*
X91884500Y-78676500D01*
X91704592Y-78655521D01*
X91638281Y-78556560D01*
X91630500Y-78422500D01*
X91651479Y-78242592D01*
X91750440Y-78176282D01*
X91884500Y-78168500D01*
X92064408Y-78189479D01*
X92130718Y-78288440D01*
X92138500Y-78422500D01*
X93662500Y-78422500D01*
X93662500Y-78168500D01*
X94678500Y-78168500D01*
X94678500Y-77914500D01*
X94699479Y-77734592D01*
X94798440Y-77668282D01*
X94932500Y-77660500D01*
X95186500Y-77660500D01*
X95694500Y-77660500D01*
X95694500Y-76136500D01*
X96202500Y-76136500D01*
X96202500Y-75628500D01*
X95186500Y-75628500D01*
X95186500Y-77152500D01*
X93662500Y-77152500D01*
X93154500Y-77152500D01*
X93154500Y-77660500D01*
X92138500Y-77660500D01*
X92138500Y-77152500D01*
X93154500Y-77152500D01*
X93662500Y-77152500D01*
X93662500Y-75628500D01*
X95186500Y-75628500D01*
X96202500Y-75628500D01*
X96202500Y-75120500D01*
G36*
X96710500Y-79692500D02*
G01*
X97218500Y-79692500D01*
X97218500Y-78676500D01*
X96710500Y-78676500D01*
X96710500Y-79692500D01*
X96710500Y-79692500D01*
G37*
X96710500Y-79692500D02*
X97218500Y-79692500D01*
X97218500Y-78676500D01*
X96710500Y-78676500D01*
X96710500Y-79692500D01*
G36*
X105420592Y-75141479D02*
G01*
X105354281Y-75240440D01*
X105346500Y-75374500D01*
X105367479Y-75554408D01*
X105466440Y-75620719D01*
X105600500Y-75628500D01*
X105780408Y-75607521D01*
X105846718Y-75508560D01*
X105854500Y-75374500D01*
X105833521Y-75194592D01*
X105734560Y-75128282D01*
X105600500Y-75120500D01*
X105420592Y-75141479D01*
X105420592Y-75141479D01*
G37*
X105420592Y-75141479D02*
X105354281Y-75240440D01*
X105346500Y-75374500D01*
X105367479Y-75554408D01*
X105466440Y-75620719D01*
X105600500Y-75628500D01*
X105780408Y-75607521D01*
X105846718Y-75508560D01*
X105854500Y-75374500D01*
X105833521Y-75194592D01*
X105734560Y-75128282D01*
X105600500Y-75120500D01*
X105420592Y-75141479D01*
G36*
X104404592Y-75141479D02*
G01*
X104338281Y-75240440D01*
X104330500Y-75374500D01*
X104351479Y-75554408D01*
X104450440Y-75620719D01*
X104584500Y-75628500D01*
X104764408Y-75607521D01*
X104830718Y-75508560D01*
X104838500Y-75374500D01*
X104817521Y-75194592D01*
X104718560Y-75128282D01*
X104584500Y-75120500D01*
X104404592Y-75141479D01*
X104404592Y-75141479D01*
G37*
X104404592Y-75141479D02*
X104338281Y-75240440D01*
X104330500Y-75374500D01*
X104351479Y-75554408D01*
X104450440Y-75620719D01*
X104584500Y-75628500D01*
X104764408Y-75607521D01*
X104830718Y-75508560D01*
X104838500Y-75374500D01*
X104817521Y-75194592D01*
X104718560Y-75128282D01*
X104584500Y-75120500D01*
X104404592Y-75141479D01*
G36*
X105420592Y-74125479D02*
G01*
X105354281Y-74224440D01*
X105346500Y-74358500D01*
X105367479Y-74538408D01*
X105466440Y-74604719D01*
X105600500Y-74612500D01*
X105780408Y-74591521D01*
X105846718Y-74492560D01*
X105854500Y-74358500D01*
X105833521Y-74178592D01*
X105734560Y-74112282D01*
X105600500Y-74104500D01*
X105420592Y-74125479D01*
X105420592Y-74125479D01*
G37*
X105420592Y-74125479D02*
X105354281Y-74224440D01*
X105346500Y-74358500D01*
X105367479Y-74538408D01*
X105466440Y-74604719D01*
X105600500Y-74612500D01*
X105780408Y-74591521D01*
X105846718Y-74492560D01*
X105854500Y-74358500D01*
X105833521Y-74178592D01*
X105734560Y-74112282D01*
X105600500Y-74104500D01*
X105420592Y-74125479D01*
G36*
X102298500Y-68516500D02*
G01*
X105854500Y-68516500D01*
X105854500Y-65468500D01*
X105346500Y-65468500D01*
X105346500Y-68008500D01*
X102806500Y-68008500D01*
X102806500Y-65468500D01*
X105346500Y-65468500D01*
X105854500Y-65468500D01*
X105854500Y-64960500D01*
X102298500Y-64960500D01*
X102298500Y-68516500D01*
X102298500Y-68516500D01*
G37*
X102298500Y-68516500D02*
X105854500Y-68516500D01*
X105854500Y-65468500D01*
X105346500Y-65468500D01*
X105346500Y-68008500D01*
X102806500Y-68008500D01*
X102806500Y-65468500D01*
X105346500Y-65468500D01*
X105854500Y-65468500D01*
X105854500Y-64960500D01*
X102298500Y-64960500D01*
X102298500Y-68516500D01*
G36*
X91122500Y-68516500D02*
G01*
X94678500Y-68516500D01*
X94678500Y-65468500D01*
X94170500Y-65468500D01*
X94170500Y-68008500D01*
X91630500Y-68008500D01*
X91630500Y-65468500D01*
X94170500Y-65468500D01*
X94678500Y-65468500D01*
X94678500Y-64960500D01*
X91122500Y-64960500D01*
X91122500Y-68516500D01*
X91122500Y-68516500D01*
G37*
X91122500Y-68516500D02*
X94678500Y-68516500D01*
X94678500Y-65468500D01*
X94170500Y-65468500D01*
X94170500Y-68008500D01*
X91630500Y-68008500D01*
X91630500Y-65468500D01*
X94170500Y-65468500D01*
X94678500Y-65468500D01*
X94678500Y-64960500D01*
X91122500Y-64960500D01*
X91122500Y-68516500D01*
G36*
X103314500Y-78676500D02*
G01*
X104838500Y-78676500D01*
X104838500Y-77152500D01*
X103314500Y-77152500D01*
X103314500Y-78676500D01*
X103314500Y-78676500D01*
G37*
X103314500Y-78676500D02*
X104838500Y-78676500D01*
X104838500Y-77152500D01*
X103314500Y-77152500D01*
X103314500Y-78676500D01*
G36*
X94244592Y-76157479D02*
G01*
X94178281Y-76256440D01*
X94170500Y-76390500D01*
X94191479Y-76570408D01*
X94290440Y-76636719D01*
X94424500Y-76644500D01*
X94604408Y-76623521D01*
X94670718Y-76524560D01*
X94678500Y-76390500D01*
X94657521Y-76210592D01*
X94558560Y-76144282D01*
X94424500Y-76136500D01*
X94244592Y-76157479D01*
X94244592Y-76157479D01*
G37*
X94244592Y-76157479D02*
X94178281Y-76256440D01*
X94170500Y-76390500D01*
X94191479Y-76570408D01*
X94290440Y-76636719D01*
X94424500Y-76644500D01*
X94604408Y-76623521D01*
X94670718Y-76524560D01*
X94678500Y-76390500D01*
X94657521Y-76210592D01*
X94558560Y-76144282D01*
X94424500Y-76136500D01*
X94244592Y-76157479D01*
G36*
X92720592Y-73617479D02*
G01*
X92654281Y-73716440D01*
X92646500Y-73850500D01*
X92667479Y-74030408D01*
X92766440Y-74096719D01*
X92900500Y-74104500D01*
X93080408Y-74083521D01*
X93146718Y-73984560D01*
X93154500Y-73850500D01*
X93133521Y-73670592D01*
X93034560Y-73604282D01*
X92900500Y-73596500D01*
X92720592Y-73617479D01*
X92720592Y-73617479D01*
G37*
X92720592Y-73617479D02*
X92654281Y-73716440D01*
X92646500Y-73850500D01*
X92667479Y-74030408D01*
X92766440Y-74096719D01*
X92900500Y-74104500D01*
X93080408Y-74083521D01*
X93146718Y-73984560D01*
X93154500Y-73850500D01*
X93133521Y-73670592D01*
X93034560Y-73604282D01*
X92900500Y-73596500D01*
X92720592Y-73617479D01*
G36*
X103896592Y-72093479D02*
G01*
X103830281Y-72192440D01*
X103822500Y-72326500D01*
X103843479Y-72506408D01*
X103942440Y-72572719D01*
X104076500Y-72580500D01*
X104256408Y-72559521D01*
X104322718Y-72460560D01*
X104330500Y-72326500D01*
X104309521Y-72146592D01*
X104210560Y-72080282D01*
X104076500Y-72072500D01*
X103896592Y-72093479D01*
X103896592Y-72093479D01*
G37*
X103896592Y-72093479D02*
X103830281Y-72192440D01*
X103822500Y-72326500D01*
X103843479Y-72506408D01*
X103942440Y-72572719D01*
X104076500Y-72580500D01*
X104256408Y-72559521D01*
X104322718Y-72460560D01*
X104330500Y-72326500D01*
X104309521Y-72146592D01*
X104210560Y-72080282D01*
X104076500Y-72072500D01*
X103896592Y-72093479D01*
G36*
X97218500Y-69532500D02*
G01*
X96202500Y-69532500D01*
X96202500Y-70040500D01*
X97218500Y-70040500D01*
X97218500Y-71056500D01*
X96964500Y-71056500D01*
X96784592Y-71077479D01*
X96718281Y-71176440D01*
X96710500Y-71310500D01*
X96710500Y-71564500D01*
X97726500Y-71564500D01*
X97726500Y-71056500D01*
X98742500Y-71056500D01*
X98742500Y-70548500D01*
X97726500Y-70548500D01*
X97726500Y-69532500D01*
X97980500Y-69532500D01*
X98160408Y-69511521D01*
X98226718Y-69412560D01*
X98234500Y-69278500D01*
X98234500Y-69024500D01*
X97218500Y-69024500D01*
X97218500Y-69532500D01*
X97218500Y-69532500D01*
G37*
X97218500Y-69532500D02*
X96202500Y-69532500D01*
X96202500Y-70040500D01*
X97218500Y-70040500D01*
X97218500Y-71056500D01*
X96964500Y-71056500D01*
X96784592Y-71077479D01*
X96718281Y-71176440D01*
X96710500Y-71310500D01*
X96710500Y-71564500D01*
X97726500Y-71564500D01*
X97726500Y-71056500D01*
X98742500Y-71056500D01*
X98742500Y-70548500D01*
X97726500Y-70548500D01*
X97726500Y-69532500D01*
X97980500Y-69532500D01*
X98160408Y-69511521D01*
X98226718Y-69412560D01*
X98234500Y-69278500D01*
X98234500Y-69024500D01*
X97218500Y-69024500D01*
X97218500Y-69532500D01*
G36*
X100340592Y-69045479D02*
G01*
X100274281Y-69144440D01*
X100266500Y-69278500D01*
X100245521Y-69458408D01*
X100146560Y-69524719D01*
X100012500Y-69532500D01*
X99832592Y-69553479D01*
X99766281Y-69652440D01*
X99758500Y-69786500D01*
X99779479Y-69966408D01*
X99878440Y-70032719D01*
X100012500Y-70040500D01*
X100192408Y-70061479D01*
X100258718Y-70160440D01*
X100266500Y-70294500D01*
X100266500Y-70548500D01*
X101282500Y-70548500D01*
X101282500Y-70802500D01*
X101303479Y-70982408D01*
X101402440Y-71048719D01*
X101536500Y-71056500D01*
X101716408Y-71035521D01*
X101782718Y-70936560D01*
X101790500Y-70802500D01*
X101769521Y-70622592D01*
X101670560Y-70556282D01*
X101536500Y-70548500D01*
X101356592Y-70527521D01*
X101290281Y-70428560D01*
X101282500Y-70294500D01*
X101303479Y-70114592D01*
X101402440Y-70048282D01*
X101536500Y-70040500D01*
X101716408Y-70019521D01*
X101782718Y-69920560D01*
X101790500Y-69786500D01*
X101769521Y-69606592D01*
X101670560Y-69540282D01*
X101536500Y-69532500D01*
X101356592Y-69553479D01*
X101290281Y-69652440D01*
X101282500Y-69786500D01*
X101261521Y-69966408D01*
X101162560Y-70032719D01*
X101028500Y-70040500D01*
X100774500Y-70040500D01*
X100774500Y-69024500D01*
X100520500Y-69024500D01*
X100340592Y-69045479D01*
X100340592Y-69045479D01*
G37*
X100340592Y-69045479D02*
X100274281Y-69144440D01*
X100266500Y-69278500D01*
X100245521Y-69458408D01*
X100146560Y-69524719D01*
X100012500Y-69532500D01*
X99832592Y-69553479D01*
X99766281Y-69652440D01*
X99758500Y-69786500D01*
X99779479Y-69966408D01*
X99878440Y-70032719D01*
X100012500Y-70040500D01*
X100192408Y-70061479D01*
X100258718Y-70160440D01*
X100266500Y-70294500D01*
X100266500Y-70548500D01*
X101282500Y-70548500D01*
X101282500Y-70802500D01*
X101303479Y-70982408D01*
X101402440Y-71048719D01*
X101536500Y-71056500D01*
X101716408Y-71035521D01*
X101782718Y-70936560D01*
X101790500Y-70802500D01*
X101769521Y-70622592D01*
X101670560Y-70556282D01*
X101536500Y-70548500D01*
X101356592Y-70527521D01*
X101290281Y-70428560D01*
X101282500Y-70294500D01*
X101303479Y-70114592D01*
X101402440Y-70048282D01*
X101536500Y-70040500D01*
X101716408Y-70019521D01*
X101782718Y-69920560D01*
X101790500Y-69786500D01*
X101769521Y-69606592D01*
X101670560Y-69540282D01*
X101536500Y-69532500D01*
X101356592Y-69553479D01*
X101290281Y-69652440D01*
X101282500Y-69786500D01*
X101261521Y-69966408D01*
X101162560Y-70032719D01*
X101028500Y-70040500D01*
X100774500Y-70040500D01*
X100774500Y-69024500D01*
X100520500Y-69024500D01*
X100340592Y-69045479D01*
G36*
X99832592Y-67521479D02*
G01*
X99766281Y-67620440D01*
X99758500Y-67754500D01*
X99737521Y-67934408D01*
X99638560Y-68000719D01*
X99504500Y-68008500D01*
X99250500Y-68008500D01*
X99250500Y-69024500D01*
X99758500Y-69024500D01*
X99758500Y-68008500D01*
X100012500Y-68008500D01*
X100192408Y-68029479D01*
X100258718Y-68128440D01*
X100266500Y-68262500D01*
X100287479Y-68442408D01*
X100386440Y-68508719D01*
X100520500Y-68516500D01*
X100700408Y-68495521D01*
X100766718Y-68396560D01*
X100774500Y-68262500D01*
X100753521Y-68082592D01*
X100654560Y-68016282D01*
X100520500Y-68008500D01*
X100340592Y-67987521D01*
X100274281Y-67888560D01*
X100266500Y-67754500D01*
X100245521Y-67574592D01*
X100146560Y-67508282D01*
X100012500Y-67500500D01*
X99832592Y-67521479D01*
X99832592Y-67521479D01*
G37*
X99832592Y-67521479D02*
X99766281Y-67620440D01*
X99758500Y-67754500D01*
X99737521Y-67934408D01*
X99638560Y-68000719D01*
X99504500Y-68008500D01*
X99250500Y-68008500D01*
X99250500Y-69024500D01*
X99758500Y-69024500D01*
X99758500Y-68008500D01*
X100012500Y-68008500D01*
X100192408Y-68029479D01*
X100258718Y-68128440D01*
X100266500Y-68262500D01*
X100287479Y-68442408D01*
X100386440Y-68508719D01*
X100520500Y-68516500D01*
X100700408Y-68495521D01*
X100766718Y-68396560D01*
X100774500Y-68262500D01*
X100753521Y-68082592D01*
X100654560Y-68016282D01*
X100520500Y-68008500D01*
X100340592Y-67987521D01*
X100274281Y-67888560D01*
X100266500Y-67754500D01*
X100245521Y-67574592D01*
X100146560Y-67508282D01*
X100012500Y-67500500D01*
X99832592Y-67521479D01*
G36*
X97292592Y-68029479D02*
G01*
X97226281Y-68128440D01*
X97218500Y-68262500D01*
X97239479Y-68442408D01*
X97338440Y-68508719D01*
X97472500Y-68516500D01*
X97652408Y-68495521D01*
X97718718Y-68396560D01*
X97726500Y-68262500D01*
X97705521Y-68082592D01*
X97606560Y-68016282D01*
X97472500Y-68008500D01*
X97292592Y-68029479D01*
X97292592Y-68029479D01*
G37*
X97292592Y-68029479D02*
X97226281Y-68128440D01*
X97218500Y-68262500D01*
X97239479Y-68442408D01*
X97338440Y-68508719D01*
X97472500Y-68516500D01*
X97652408Y-68495521D01*
X97718718Y-68396560D01*
X97726500Y-68262500D01*
X97705521Y-68082592D01*
X97606560Y-68016282D01*
X97472500Y-68008500D01*
X97292592Y-68029479D01*
G36*
X98816592Y-67013479D02*
G01*
X98750281Y-67112440D01*
X98742500Y-67246500D01*
X98763479Y-67426408D01*
X98862440Y-67492719D01*
X98996500Y-67500500D01*
X99176408Y-67479521D01*
X99242718Y-67380560D01*
X99250500Y-67246500D01*
X99229521Y-67066592D01*
X99130560Y-67000282D01*
X98996500Y-66992500D01*
X98816592Y-67013479D01*
X98816592Y-67013479D01*
G37*
X98816592Y-67013479D02*
X98750281Y-67112440D01*
X98742500Y-67246500D01*
X98763479Y-67426408D01*
X98862440Y-67492719D01*
X98996500Y-67500500D01*
X99176408Y-67479521D01*
X99242718Y-67380560D01*
X99250500Y-67246500D01*
X99229521Y-67066592D01*
X99130560Y-67000282D01*
X98996500Y-66992500D01*
X98816592Y-67013479D01*
G36*
X103314500Y-67500500D02*
G01*
X104838500Y-67500500D01*
X104838500Y-65976500D01*
X103314500Y-65976500D01*
X103314500Y-67500500D01*
X103314500Y-67500500D01*
G37*
X103314500Y-67500500D02*
X104838500Y-67500500D01*
X104838500Y-65976500D01*
X103314500Y-65976500D01*
X103314500Y-67500500D01*
G36*
X92138500Y-67500500D02*
G01*
X93662500Y-67500500D01*
X93662500Y-65976500D01*
X92138500Y-65976500D01*
X92138500Y-67500500D01*
X92138500Y-67500500D01*
G37*
X92138500Y-67500500D02*
X93662500Y-67500500D01*
X93662500Y-65976500D01*
X92138500Y-65976500D01*
X92138500Y-67500500D01*
D13*
X163570200Y-72001000D02*
X163570200Y-71001000D01*
X162210200Y-71001000D02*
X162210200Y-72001000D01*
X160522200Y-72001000D02*
X160522200Y-71001000D01*
X159162200Y-71001000D02*
X159162200Y-72001000D01*
X162046200Y-72001000D02*
X162046200Y-71001000D01*
X160686200Y-71001000D02*
X160686200Y-72001000D01*
X161716200Y-68665800D02*
X161016200Y-68665800D01*
X161016200Y-69865800D02*
X161716200Y-69865800D01*
X132531400Y-68216400D02*
X132531400Y-67216400D01*
X131171400Y-67216400D02*
X131171400Y-68216400D01*
X135503200Y-68216400D02*
X135503200Y-67216400D01*
X134143200Y-67216400D02*
X134143200Y-68216400D01*
X138602000Y-68216400D02*
X138602000Y-67216400D01*
X137242000Y-67216400D02*
X137242000Y-68216400D01*
X132531400Y-65110000D02*
X132531400Y-64110000D01*
X131171400Y-64110000D02*
X131171400Y-65110000D01*
X135503200Y-65117600D02*
X135503200Y-64117600D01*
X134143200Y-64117600D02*
X134143200Y-65117600D01*
X131058200Y-68216400D02*
X131058200Y-67216400D01*
X129698200Y-67216400D02*
X129698200Y-68216400D01*
X134004600Y-68216400D02*
X134004600Y-67216400D01*
X132644600Y-67216400D02*
X132644600Y-68216400D01*
X136976400Y-68216400D02*
X136976400Y-67216400D01*
X135616400Y-67216400D02*
X135616400Y-68216400D01*
X131058200Y-65110000D02*
X131058200Y-64110000D01*
X129698200Y-64110000D02*
X129698200Y-65110000D01*
X134004600Y-65117600D02*
X134004600Y-64117600D01*
X132644600Y-64117600D02*
X132644600Y-65117600D01*
X150421800Y-76408500D02*
X152871800Y-76408500D01*
X152221800Y-79628500D02*
X150421800Y-79628500D01*
X130125900Y-76241000D02*
X132575900Y-76241000D01*
X131925900Y-79461000D02*
X130125900Y-79461000D01*
X111279100Y-76749000D02*
X113729100Y-76749000D01*
X113079100Y-79969000D02*
X111279100Y-79969000D01*
X147758900Y-74672900D02*
X147058900Y-74672900D01*
X147058900Y-75872900D02*
X147758900Y-75872900D01*
X127743700Y-74520500D02*
X127043700Y-74520500D01*
X127043700Y-75720500D02*
X127743700Y-75720500D01*
X147913800Y-77691500D02*
X147913800Y-78391500D01*
X149113800Y-78391500D02*
X149113800Y-77691500D01*
X127631900Y-77437500D02*
X127631900Y-78137500D01*
X128831900Y-78137500D02*
X128831900Y-77437500D01*
X108785100Y-77628000D02*
X108785100Y-78328000D01*
X109985100Y-78328000D02*
X109985100Y-77628000D01*
X153527200Y-77628000D02*
X153527200Y-78328000D01*
X154727200Y-78328000D02*
X154727200Y-77628000D01*
X133092900Y-77120000D02*
X133092900Y-77820000D01*
X134292900Y-77820000D02*
X134292900Y-77120000D01*
X114246100Y-77628000D02*
X114246100Y-78328000D01*
X115446100Y-78328000D02*
X115446100Y-77628000D01*
X110679000Y-71953900D02*
X112079000Y-71953900D01*
X112079000Y-74273900D02*
X110179000Y-74273900D01*
X111879000Y-70211400D02*
X110879000Y-70211400D01*
X110879000Y-71571400D02*
X111879000Y-71571400D01*
X111729000Y-74787200D02*
X111029000Y-74787200D01*
X111029000Y-75987200D02*
X111729000Y-75987200D01*
X107654800Y-72306700D02*
X107654800Y-73006700D01*
X108854800Y-73006700D02*
X108854800Y-72306700D01*
X108604800Y-74533200D02*
X107904800Y-74533200D01*
X107904800Y-75733200D02*
X108604800Y-75733200D01*
X120532400Y-70184200D02*
X118532400Y-70184200D01*
X118532400Y-68144200D02*
X120532400Y-68144200D01*
D10*
X82951900Y-83140900D02*
X76976900Y-83140900D01*
X81376900Y-88665900D02*
X76976900Y-88665900D01*
X92141900Y-83140900D02*
X86166900Y-83140900D01*
X90566900Y-88665900D02*
X86166900Y-88665900D01*
X101331900Y-83140900D02*
X95356900Y-83140900D01*
X99756900Y-88665900D02*
X95356900Y-88665900D01*
X110521900Y-83140900D02*
X104546900Y-83140900D01*
X108946900Y-88665900D02*
X104546900Y-88665900D01*
X119711900Y-83140900D02*
X113736900Y-83140900D01*
X118136900Y-88665900D02*
X113736900Y-88665900D01*
X128901900Y-83140900D02*
X122926900Y-83140900D01*
X127326900Y-88665900D02*
X122926900Y-88665900D01*
X138091900Y-83140900D02*
X132116900Y-83140900D01*
X136516900Y-88665900D02*
X132116900Y-88665900D01*
X147281900Y-83140900D02*
X141306900Y-83140900D01*
X145706900Y-88665900D02*
X141306900Y-88665900D01*
X156471900Y-83140900D02*
X150496900Y-83140900D01*
X154896900Y-88665900D02*
X150496900Y-88665900D01*
D13*
X82550400Y-82556900D02*
X83550400Y-82556900D01*
X83550400Y-81196900D02*
X82550400Y-81196900D01*
X91740400Y-82556900D02*
X92740400Y-82556900D01*
X92740400Y-81196900D02*
X91740400Y-81196900D01*
X100930400Y-82556900D02*
X101930400Y-82556900D01*
X101930400Y-81196900D02*
X100930400Y-81196900D01*
X110120400Y-82556900D02*
X111120400Y-82556900D01*
X111120400Y-81196900D02*
X110120400Y-81196900D01*
X119310400Y-82556900D02*
X120310400Y-82556900D01*
X120310400Y-81196900D02*
X119310400Y-81196900D01*
X128500400Y-82556900D02*
X129500400Y-82556900D01*
X129500400Y-81196900D02*
X128500400Y-81196900D01*
X137690400Y-82556900D02*
X138690400Y-82556900D01*
X138690400Y-81196900D02*
X137690400Y-81196900D01*
X146880400Y-82556900D02*
X147880400Y-82556900D01*
X147880400Y-81196900D02*
X146880400Y-81196900D01*
X156070400Y-82556900D02*
X157070400Y-82556900D01*
X157070400Y-81196900D02*
X156070400Y-81196900D01*
X80276900Y-97178400D02*
X78076900Y-97178400D01*
X80276900Y-90578400D02*
X78076900Y-90578400D01*
X89466900Y-97178400D02*
X87266900Y-97178400D01*
X89466900Y-90578400D02*
X87266900Y-90578400D01*
X98656900Y-97178400D02*
X96456900Y-97178400D01*
X98656900Y-90578400D02*
X96456900Y-90578400D01*
X107846900Y-97178400D02*
X105646900Y-97178400D01*
X107846900Y-90578400D02*
X105646900Y-90578400D01*
X117036900Y-97178400D02*
X114836900Y-97178400D01*
X117036900Y-90578400D02*
X114836900Y-90578400D01*
X126226900Y-97178400D02*
X124026900Y-97178400D01*
X126226900Y-90578400D02*
X124026900Y-90578400D01*
X135416900Y-97178400D02*
X133216900Y-97178400D01*
X135416900Y-90578400D02*
X133216900Y-90578400D01*
X144606900Y-97178400D02*
X142406900Y-97178400D01*
X144606900Y-90578400D02*
X142406900Y-90578400D01*
X153796900Y-97178400D02*
X151596900Y-97178400D01*
X153796900Y-90578400D02*
X151596900Y-90578400D01*
X78826900Y-90160400D02*
X79526900Y-90160400D01*
X79526900Y-88960400D02*
X78826900Y-88960400D01*
X88016900Y-90160400D02*
X88716900Y-90160400D01*
X88716900Y-88960400D02*
X88016900Y-88960400D01*
X97206900Y-90160400D02*
X97906900Y-90160400D01*
X97906900Y-88960400D02*
X97206900Y-88960400D01*
X106396900Y-90160400D02*
X107096900Y-90160400D01*
X107096900Y-88960400D02*
X106396900Y-88960400D01*
X115586900Y-90160400D02*
X116286900Y-90160400D01*
X116286900Y-88960400D02*
X115586900Y-88960400D01*
X124776900Y-90160400D02*
X125476900Y-90160400D01*
X125476900Y-88960400D02*
X124776900Y-88960400D01*
X133966900Y-90160400D02*
X134666900Y-90160400D01*
X134666900Y-88960400D02*
X133966900Y-88960400D01*
X143156900Y-90160400D02*
X143856900Y-90160400D01*
X143856900Y-88960400D02*
X143156900Y-88960400D01*
X152346900Y-90160400D02*
X153046900Y-90160400D01*
X153046900Y-88960400D02*
X152346900Y-88960400D01*
D10*
X164086900Y-88665900D02*
X159686900Y-88665900D01*
X165661900Y-83140900D02*
X159686900Y-83140900D01*
X142277200Y-73287800D02*
X142277200Y-73162800D01*
X146927200Y-73287800D02*
X146927200Y-73062800D01*
X146927200Y-68037800D02*
X146927200Y-68262800D01*
X142277200Y-68037800D02*
X142277200Y-68262800D01*
X142277200Y-73287800D02*
X146927200Y-73287800D01*
X142277200Y-68037800D02*
X146927200Y-68037800D01*
X142277200Y-73162800D02*
X140927200Y-73162800D01*
D13*
X162986900Y-90578400D02*
X160786900Y-90578400D01*
X162986900Y-97178400D02*
X160786900Y-97178400D01*
X78427200Y-72929200D02*
X77427200Y-72929200D01*
X77427200Y-74289200D02*
X78427200Y-74289200D01*
X163812600Y-82556900D02*
X164812600Y-82556900D01*
X164812600Y-81196900D02*
X163812600Y-81196900D01*
X162630400Y-80052800D02*
X162630400Y-79052800D01*
X161270400Y-79052800D02*
X161270400Y-80052800D01*
X146629500Y-107309200D02*
X147629500Y-107309200D01*
X147629500Y-105949200D02*
X146629500Y-105949200D01*
X109812200Y-107283800D02*
X110812200Y-107283800D01*
X110812200Y-105923800D02*
X109812200Y-105923800D01*
X118968900Y-107283800D02*
X119968900Y-107283800D01*
X119968900Y-105923800D02*
X118968900Y-105923800D01*
X137409300Y-107309200D02*
X138409300Y-107309200D01*
X138409300Y-105949200D02*
X137409300Y-105949200D01*
X100642800Y-107258400D02*
X101642800Y-107258400D01*
X101642800Y-105898400D02*
X100642800Y-105898400D01*
X128239900Y-107296500D02*
X129239900Y-107296500D01*
X129239900Y-105936500D02*
X128239900Y-105936500D01*
X91435300Y-107220300D02*
X92435300Y-107220300D01*
X92435300Y-105860300D02*
X91435300Y-105860300D01*
X135616400Y-64117600D02*
X135616400Y-65117600D01*
X136976400Y-65117600D02*
X136976400Y-64117600D01*
X137242000Y-64117600D02*
X137242000Y-65117600D01*
X138602000Y-65117600D02*
X138602000Y-64117600D01*
X144608000Y-64447800D02*
X144608000Y-65447800D01*
X145968000Y-65447800D02*
X145968000Y-64447800D01*
X146132000Y-64447800D02*
X146132000Y-65447800D01*
X147492000Y-65447800D02*
X147492000Y-64447800D01*
X76288000Y-74042400D02*
X76288000Y-71492400D01*
X74588000Y-74042400D02*
X74588000Y-71492400D01*
X76288000Y-74042400D02*
X74588000Y-74042400D01*
X162536000Y-76366000D02*
X159986000Y-76366000D01*
X162536000Y-78066000D02*
X159986000Y-78066000D01*
X162536000Y-76366000D02*
X162536000Y-78066000D01*
X162236900Y-88960400D02*
X161536900Y-88960400D01*
X161536900Y-90160400D02*
X162236900Y-90160400D01*
X83285300Y-76984300D02*
X82585300Y-76984300D01*
X82585300Y-78184300D02*
X83285300Y-78184300D01*
X147479500Y-104568700D02*
X146779500Y-104568700D01*
X146779500Y-105768700D02*
X147479500Y-105768700D01*
X110662200Y-104543300D02*
X109962200Y-104543300D01*
X109962200Y-105743300D02*
X110662200Y-105743300D01*
X119818900Y-104543300D02*
X119118900Y-104543300D01*
X119118900Y-105743300D02*
X119818900Y-105743300D01*
X138259300Y-104568700D02*
X137559300Y-104568700D01*
X137559300Y-105768700D02*
X138259300Y-105768700D01*
X101492800Y-104517900D02*
X100792800Y-104517900D01*
X100792800Y-105717900D02*
X101492800Y-105717900D01*
X83331800Y-73860100D02*
X82631800Y-73860100D01*
X82631800Y-75060100D02*
X83331800Y-75060100D01*
X129089900Y-104556000D02*
X128389900Y-104556000D01*
X128389900Y-105756000D02*
X129089900Y-105756000D01*
X92282800Y-104479800D02*
X91582800Y-104479800D01*
X91582800Y-105679800D02*
X92282800Y-105679800D01*
X145674600Y-67579800D02*
X146374600Y-67579800D01*
X146374600Y-66379800D02*
X145674600Y-66379800D01*
X155061400Y-73695000D02*
X154361400Y-73695000D01*
X154361400Y-74895000D02*
X155061400Y-74895000D01*
D10*
X156425685Y-66825880D02*
X156425685Y-67635404D01*
X156378066Y-67730642D01*
X156330447Y-67778261D01*
X156235209Y-67825880D01*
X156044733Y-67825880D01*
X155949495Y-67778261D01*
X155901876Y-67730642D01*
X155854257Y-67635404D01*
X155854257Y-66825880D01*
X154949495Y-67159214D02*
X154949495Y-67825880D01*
X155187590Y-66778261D02*
X155425685Y-67492547D01*
X154806638Y-67492547D01*
X154235209Y-66825880D02*
X154139971Y-66825880D01*
X154044733Y-66873500D01*
X153997114Y-66921119D01*
X153949495Y-67016357D01*
X153901876Y-67206833D01*
X153901876Y-67444928D01*
X153949495Y-67635404D01*
X153997114Y-67730642D01*
X154044733Y-67778261D01*
X154139971Y-67825880D01*
X154235209Y-67825880D01*
X154330447Y-67778261D01*
X154378066Y-67730642D01*
X154425685Y-67635404D01*
X154473304Y-67444928D01*
X154473304Y-67206833D01*
X154425685Y-67016357D01*
X154378066Y-66921119D01*
X154330447Y-66873500D01*
X154235209Y-66825880D01*
X152949495Y-67825880D02*
X153520923Y-67825880D01*
X153235209Y-67825880D02*
X153235209Y-66825880D01*
X153330447Y-66968738D01*
X153425685Y-67063976D01*
X153520923Y-67111595D01*
X153036085Y-74570880D02*
X153036085Y-75380404D01*
X152988466Y-75475642D01*
X152940847Y-75523261D01*
X152845609Y-75570880D01*
X152655133Y-75570880D01*
X152559895Y-75523261D01*
X152512276Y-75475642D01*
X152464657Y-75380404D01*
X152464657Y-74570880D01*
X152083704Y-74570880D02*
X151417038Y-74570880D01*
X151845609Y-75570880D01*
X150845609Y-74570880D02*
X150750371Y-74570880D01*
X150655133Y-74618500D01*
X150607514Y-74666119D01*
X150559895Y-74761357D01*
X150512276Y-74951833D01*
X150512276Y-75189928D01*
X150559895Y-75380404D01*
X150607514Y-75475642D01*
X150655133Y-75523261D01*
X150750371Y-75570880D01*
X150845609Y-75570880D01*
X150940847Y-75523261D01*
X150988466Y-75475642D01*
X151036085Y-75380404D01*
X151083704Y-75189928D01*
X151083704Y-74951833D01*
X151036085Y-74761357D01*
X150988466Y-74666119D01*
X150940847Y-74618500D01*
X150845609Y-74570880D01*
X149655133Y-74570880D02*
X149845609Y-74570880D01*
X149940847Y-74618500D01*
X149988466Y-74666119D01*
X150083704Y-74808976D01*
X150131323Y-74999452D01*
X150131323Y-75380404D01*
X150083704Y-75475642D01*
X150036085Y-75523261D01*
X149940847Y-75570880D01*
X149750371Y-75570880D01*
X149655133Y-75523261D01*
X149607514Y-75475642D01*
X149559895Y-75380404D01*
X149559895Y-75142309D01*
X149607514Y-75047071D01*
X149655133Y-74999452D01*
X149750371Y-74951833D01*
X149940847Y-74951833D01*
X150036085Y-74999452D01*
X150083704Y-75047071D01*
X150131323Y-75142309D01*
X132740185Y-79970380D02*
X132740185Y-80779904D01*
X132692566Y-80875142D01*
X132644947Y-80922761D01*
X132549709Y-80970380D01*
X132359233Y-80970380D01*
X132263995Y-80922761D01*
X132216376Y-80875142D01*
X132168757Y-80779904D01*
X132168757Y-79970380D01*
X131787804Y-79970380D02*
X131121138Y-79970380D01*
X131549709Y-80970380D01*
X130549709Y-79970380D02*
X130454471Y-79970380D01*
X130359233Y-80018000D01*
X130311614Y-80065619D01*
X130263995Y-80160857D01*
X130216376Y-80351333D01*
X130216376Y-80589428D01*
X130263995Y-80779904D01*
X130311614Y-80875142D01*
X130359233Y-80922761D01*
X130454471Y-80970380D01*
X130549709Y-80970380D01*
X130644947Y-80922761D01*
X130692566Y-80875142D01*
X130740185Y-80779904D01*
X130787804Y-80589428D01*
X130787804Y-80351333D01*
X130740185Y-80160857D01*
X130692566Y-80065619D01*
X130644947Y-80018000D01*
X130549709Y-79970380D01*
X129883042Y-79970380D02*
X129263995Y-79970380D01*
X129597328Y-80351333D01*
X129454471Y-80351333D01*
X129359233Y-80398952D01*
X129311614Y-80446571D01*
X129263995Y-80541809D01*
X129263995Y-80779904D01*
X129311614Y-80875142D01*
X129359233Y-80922761D01*
X129454471Y-80970380D01*
X129740185Y-80970380D01*
X129835423Y-80922761D01*
X129883042Y-80875142D01*
X118046285Y-79716380D02*
X118046285Y-80525904D01*
X117998666Y-80621142D01*
X117951047Y-80668761D01*
X117855809Y-80716380D01*
X117665333Y-80716380D01*
X117570095Y-80668761D01*
X117522476Y-80621142D01*
X117474857Y-80525904D01*
X117474857Y-79716380D01*
X117093904Y-79716380D02*
X116427238Y-79716380D01*
X116855809Y-80716380D01*
X115855809Y-79716380D02*
X115760571Y-79716380D01*
X115665333Y-79764000D01*
X115617714Y-79811619D01*
X115570095Y-79906857D01*
X115522476Y-80097333D01*
X115522476Y-80335428D01*
X115570095Y-80525904D01*
X115617714Y-80621142D01*
X115665333Y-80668761D01*
X115760571Y-80716380D01*
X115855809Y-80716380D01*
X115951047Y-80668761D01*
X115998666Y-80621142D01*
X116046285Y-80525904D01*
X116093904Y-80335428D01*
X116093904Y-80097333D01*
X116046285Y-79906857D01*
X115998666Y-79811619D01*
X115951047Y-79764000D01*
X115855809Y-79716380D01*
X115141523Y-79811619D02*
X115093904Y-79764000D01*
X114998666Y-79716380D01*
X114760571Y-79716380D01*
X114665333Y-79764000D01*
X114617714Y-79811619D01*
X114570095Y-79906857D01*
X114570095Y-80002095D01*
X114617714Y-80144952D01*
X115189142Y-80716380D01*
X114570095Y-80716380D01*
X113142780Y-71386914D02*
X113952304Y-71386914D01*
X114047542Y-71434533D01*
X114095161Y-71482152D01*
X114142780Y-71577390D01*
X114142780Y-71767866D01*
X114095161Y-71863104D01*
X114047542Y-71910723D01*
X113952304Y-71958342D01*
X113142780Y-71958342D01*
X113142780Y-72339295D02*
X113142780Y-73005961D01*
X114142780Y-72577390D01*
X113142780Y-73577390D02*
X113142780Y-73672628D01*
X113190400Y-73767866D01*
X113238019Y-73815485D01*
X113333257Y-73863104D01*
X113523733Y-73910723D01*
X113761828Y-73910723D01*
X113952304Y-73863104D01*
X114047542Y-73815485D01*
X114095161Y-73767866D01*
X114142780Y-73672628D01*
X114142780Y-73577390D01*
X114095161Y-73482152D01*
X114047542Y-73434533D01*
X113952304Y-73386914D01*
X113761828Y-73339295D01*
X113523733Y-73339295D01*
X113333257Y-73386914D01*
X113238019Y-73434533D01*
X113190400Y-73482152D01*
X113142780Y-73577390D01*
X113476114Y-74767866D02*
X114142780Y-74767866D01*
X113095161Y-74529771D02*
X113809447Y-74291676D01*
X113809447Y-74910723D01*
X81367376Y-81843280D02*
X81367376Y-82652804D01*
X81319757Y-82748042D01*
X81272138Y-82795661D01*
X81176900Y-82843280D01*
X80986423Y-82843280D01*
X80891185Y-82795661D01*
X80843566Y-82748042D01*
X80795947Y-82652804D01*
X80795947Y-81843280D01*
X79795947Y-82843280D02*
X80367376Y-82843280D01*
X80081661Y-82843280D02*
X80081661Y-81843280D01*
X80176900Y-81986138D01*
X80272138Y-82081376D01*
X80367376Y-82128995D01*
X79224519Y-82271852D02*
X79319757Y-82224233D01*
X79367376Y-82176614D01*
X79414995Y-82081376D01*
X79414995Y-82033757D01*
X79367376Y-81938519D01*
X79319757Y-81890900D01*
X79224519Y-81843280D01*
X79034042Y-81843280D01*
X78938804Y-81890900D01*
X78891185Y-81938519D01*
X78843566Y-82033757D01*
X78843566Y-82081376D01*
X78891185Y-82176614D01*
X78938804Y-82224233D01*
X79034042Y-82271852D01*
X79224519Y-82271852D01*
X79319757Y-82319471D01*
X79367376Y-82367090D01*
X79414995Y-82462328D01*
X79414995Y-82652804D01*
X79367376Y-82748042D01*
X79319757Y-82795661D01*
X79224519Y-82843280D01*
X79034042Y-82843280D01*
X78938804Y-82795661D01*
X78891185Y-82748042D01*
X78843566Y-82652804D01*
X78843566Y-82462328D01*
X78891185Y-82367090D01*
X78938804Y-82319471D01*
X79034042Y-82271852D01*
X78224519Y-81843280D02*
X78129280Y-81843280D01*
X78034042Y-81890900D01*
X77986423Y-81938519D01*
X77938804Y-82033757D01*
X77891185Y-82224233D01*
X77891185Y-82462328D01*
X77938804Y-82652804D01*
X77986423Y-82748042D01*
X78034042Y-82795661D01*
X78129280Y-82843280D01*
X78224519Y-82843280D01*
X78319757Y-82795661D01*
X78367376Y-82748042D01*
X78414995Y-82652804D01*
X78462614Y-82462328D01*
X78462614Y-82224233D01*
X78414995Y-82033757D01*
X78367376Y-81938519D01*
X78319757Y-81890900D01*
X78224519Y-81843280D01*
X76938804Y-82843280D02*
X77510233Y-82843280D01*
X77224519Y-82843280D02*
X77224519Y-81843280D01*
X77319757Y-81986138D01*
X77414995Y-82081376D01*
X77510233Y-82128995D01*
X90557376Y-81843280D02*
X90557376Y-82652804D01*
X90509757Y-82748042D01*
X90462138Y-82795661D01*
X90366900Y-82843280D01*
X90176423Y-82843280D01*
X90081185Y-82795661D01*
X90033566Y-82748042D01*
X89985947Y-82652804D01*
X89985947Y-81843280D01*
X88985947Y-82843280D02*
X89557376Y-82843280D01*
X89271661Y-82843280D02*
X89271661Y-81843280D01*
X89366900Y-81986138D01*
X89462138Y-82081376D01*
X89557376Y-82128995D01*
X88652614Y-81843280D02*
X87985947Y-81843280D01*
X88414519Y-82843280D01*
X87414519Y-81843280D02*
X87319280Y-81843280D01*
X87224042Y-81890900D01*
X87176423Y-81938519D01*
X87128804Y-82033757D01*
X87081185Y-82224233D01*
X87081185Y-82462328D01*
X87128804Y-82652804D01*
X87176423Y-82748042D01*
X87224042Y-82795661D01*
X87319280Y-82843280D01*
X87414519Y-82843280D01*
X87509757Y-82795661D01*
X87557376Y-82748042D01*
X87604995Y-82652804D01*
X87652614Y-82462328D01*
X87652614Y-82224233D01*
X87604995Y-82033757D01*
X87557376Y-81938519D01*
X87509757Y-81890900D01*
X87414519Y-81843280D01*
X86128804Y-82843280D02*
X86700233Y-82843280D01*
X86414519Y-82843280D02*
X86414519Y-81843280D01*
X86509757Y-81986138D01*
X86604995Y-82081376D01*
X86700233Y-82128995D01*
X99747376Y-81843280D02*
X99747376Y-82652804D01*
X99699757Y-82748042D01*
X99652138Y-82795661D01*
X99556900Y-82843280D01*
X99366423Y-82843280D01*
X99271185Y-82795661D01*
X99223566Y-82748042D01*
X99175947Y-82652804D01*
X99175947Y-81843280D01*
X98175947Y-82843280D02*
X98747376Y-82843280D01*
X98461661Y-82843280D02*
X98461661Y-81843280D01*
X98556900Y-81986138D01*
X98652138Y-82081376D01*
X98747376Y-82128995D01*
X97318804Y-81843280D02*
X97509280Y-81843280D01*
X97604519Y-81890900D01*
X97652138Y-81938519D01*
X97747376Y-82081376D01*
X97794995Y-82271852D01*
X97794995Y-82652804D01*
X97747376Y-82748042D01*
X97699757Y-82795661D01*
X97604519Y-82843280D01*
X97414042Y-82843280D01*
X97318804Y-82795661D01*
X97271185Y-82748042D01*
X97223566Y-82652804D01*
X97223566Y-82414709D01*
X97271185Y-82319471D01*
X97318804Y-82271852D01*
X97414042Y-82224233D01*
X97604519Y-82224233D01*
X97699757Y-82271852D01*
X97747376Y-82319471D01*
X97794995Y-82414709D01*
X96604519Y-81843280D02*
X96509280Y-81843280D01*
X96414042Y-81890900D01*
X96366423Y-81938519D01*
X96318804Y-82033757D01*
X96271185Y-82224233D01*
X96271185Y-82462328D01*
X96318804Y-82652804D01*
X96366423Y-82748042D01*
X96414042Y-82795661D01*
X96509280Y-82843280D01*
X96604519Y-82843280D01*
X96699757Y-82795661D01*
X96747376Y-82748042D01*
X96794995Y-82652804D01*
X96842614Y-82462328D01*
X96842614Y-82224233D01*
X96794995Y-82033757D01*
X96747376Y-81938519D01*
X96699757Y-81890900D01*
X96604519Y-81843280D01*
X95318804Y-82843280D02*
X95890233Y-82843280D01*
X95604519Y-82843280D02*
X95604519Y-81843280D01*
X95699757Y-81986138D01*
X95794995Y-82081376D01*
X95890233Y-82128995D01*
X108937376Y-81843280D02*
X108937376Y-82652804D01*
X108889757Y-82748042D01*
X108842138Y-82795661D01*
X108746900Y-82843280D01*
X108556423Y-82843280D01*
X108461185Y-82795661D01*
X108413566Y-82748042D01*
X108365947Y-82652804D01*
X108365947Y-81843280D01*
X107365947Y-82843280D02*
X107937376Y-82843280D01*
X107651661Y-82843280D02*
X107651661Y-81843280D01*
X107746900Y-81986138D01*
X107842138Y-82081376D01*
X107937376Y-82128995D01*
X106461185Y-81843280D02*
X106937376Y-81843280D01*
X106984995Y-82319471D01*
X106937376Y-82271852D01*
X106842138Y-82224233D01*
X106604042Y-82224233D01*
X106508804Y-82271852D01*
X106461185Y-82319471D01*
X106413566Y-82414709D01*
X106413566Y-82652804D01*
X106461185Y-82748042D01*
X106508804Y-82795661D01*
X106604042Y-82843280D01*
X106842138Y-82843280D01*
X106937376Y-82795661D01*
X106984995Y-82748042D01*
X105794519Y-81843280D02*
X105699280Y-81843280D01*
X105604042Y-81890900D01*
X105556423Y-81938519D01*
X105508804Y-82033757D01*
X105461185Y-82224233D01*
X105461185Y-82462328D01*
X105508804Y-82652804D01*
X105556423Y-82748042D01*
X105604042Y-82795661D01*
X105699280Y-82843280D01*
X105794519Y-82843280D01*
X105889757Y-82795661D01*
X105937376Y-82748042D01*
X105984995Y-82652804D01*
X106032614Y-82462328D01*
X106032614Y-82224233D01*
X105984995Y-82033757D01*
X105937376Y-81938519D01*
X105889757Y-81890900D01*
X105794519Y-81843280D01*
X104508804Y-82843280D02*
X105080233Y-82843280D01*
X104794519Y-82843280D02*
X104794519Y-81843280D01*
X104889757Y-81986138D01*
X104984995Y-82081376D01*
X105080233Y-82128995D01*
X118127376Y-81843280D02*
X118127376Y-82652804D01*
X118079757Y-82748042D01*
X118032138Y-82795661D01*
X117936900Y-82843280D01*
X117746423Y-82843280D01*
X117651185Y-82795661D01*
X117603566Y-82748042D01*
X117555947Y-82652804D01*
X117555947Y-81843280D01*
X116555947Y-82843280D02*
X117127376Y-82843280D01*
X116841661Y-82843280D02*
X116841661Y-81843280D01*
X116936900Y-81986138D01*
X117032138Y-82081376D01*
X117127376Y-82128995D01*
X115698804Y-82176614D02*
X115698804Y-82843280D01*
X115936900Y-81795661D02*
X116174995Y-82509947D01*
X115555947Y-82509947D01*
X114984519Y-81843280D02*
X114889280Y-81843280D01*
X114794042Y-81890900D01*
X114746423Y-81938519D01*
X114698804Y-82033757D01*
X114651185Y-82224233D01*
X114651185Y-82462328D01*
X114698804Y-82652804D01*
X114746423Y-82748042D01*
X114794042Y-82795661D01*
X114889280Y-82843280D01*
X114984519Y-82843280D01*
X115079757Y-82795661D01*
X115127376Y-82748042D01*
X115174995Y-82652804D01*
X115222614Y-82462328D01*
X115222614Y-82224233D01*
X115174995Y-82033757D01*
X115127376Y-81938519D01*
X115079757Y-81890900D01*
X114984519Y-81843280D01*
X113698804Y-82843280D02*
X114270233Y-82843280D01*
X113984519Y-82843280D02*
X113984519Y-81843280D01*
X114079757Y-81986138D01*
X114174995Y-82081376D01*
X114270233Y-82128995D01*
X127317376Y-81843280D02*
X127317376Y-82652804D01*
X127269757Y-82748042D01*
X127222138Y-82795661D01*
X127126900Y-82843280D01*
X126936423Y-82843280D01*
X126841185Y-82795661D01*
X126793566Y-82748042D01*
X126745947Y-82652804D01*
X126745947Y-81843280D01*
X125745947Y-82843280D02*
X126317376Y-82843280D01*
X126031661Y-82843280D02*
X126031661Y-81843280D01*
X126126900Y-81986138D01*
X126222138Y-82081376D01*
X126317376Y-82128995D01*
X125412614Y-81843280D02*
X124793566Y-81843280D01*
X125126900Y-82224233D01*
X124984042Y-82224233D01*
X124888804Y-82271852D01*
X124841185Y-82319471D01*
X124793566Y-82414709D01*
X124793566Y-82652804D01*
X124841185Y-82748042D01*
X124888804Y-82795661D01*
X124984042Y-82843280D01*
X125269757Y-82843280D01*
X125364995Y-82795661D01*
X125412614Y-82748042D01*
X124174519Y-81843280D02*
X124079280Y-81843280D01*
X123984042Y-81890900D01*
X123936423Y-81938519D01*
X123888804Y-82033757D01*
X123841185Y-82224233D01*
X123841185Y-82462328D01*
X123888804Y-82652804D01*
X123936423Y-82748042D01*
X123984042Y-82795661D01*
X124079280Y-82843280D01*
X124174519Y-82843280D01*
X124269757Y-82795661D01*
X124317376Y-82748042D01*
X124364995Y-82652804D01*
X124412614Y-82462328D01*
X124412614Y-82224233D01*
X124364995Y-82033757D01*
X124317376Y-81938519D01*
X124269757Y-81890900D01*
X124174519Y-81843280D01*
X122888804Y-82843280D02*
X123460233Y-82843280D01*
X123174519Y-82843280D02*
X123174519Y-81843280D01*
X123269757Y-81986138D01*
X123364995Y-82081376D01*
X123460233Y-82128995D01*
X136507376Y-81843280D02*
X136507376Y-82652804D01*
X136459757Y-82748042D01*
X136412138Y-82795661D01*
X136316900Y-82843280D01*
X136126423Y-82843280D01*
X136031185Y-82795661D01*
X135983566Y-82748042D01*
X135935947Y-82652804D01*
X135935947Y-81843280D01*
X134935947Y-82843280D02*
X135507376Y-82843280D01*
X135221661Y-82843280D02*
X135221661Y-81843280D01*
X135316900Y-81986138D01*
X135412138Y-82081376D01*
X135507376Y-82128995D01*
X134554995Y-81938519D02*
X134507376Y-81890900D01*
X134412138Y-81843280D01*
X134174042Y-81843280D01*
X134078804Y-81890900D01*
X134031185Y-81938519D01*
X133983566Y-82033757D01*
X133983566Y-82128995D01*
X134031185Y-82271852D01*
X134602614Y-82843280D01*
X133983566Y-82843280D01*
X133364519Y-81843280D02*
X133269280Y-81843280D01*
X133174042Y-81890900D01*
X133126423Y-81938519D01*
X133078804Y-82033757D01*
X133031185Y-82224233D01*
X133031185Y-82462328D01*
X133078804Y-82652804D01*
X133126423Y-82748042D01*
X133174042Y-82795661D01*
X133269280Y-82843280D01*
X133364519Y-82843280D01*
X133459757Y-82795661D01*
X133507376Y-82748042D01*
X133554995Y-82652804D01*
X133602614Y-82462328D01*
X133602614Y-82224233D01*
X133554995Y-82033757D01*
X133507376Y-81938519D01*
X133459757Y-81890900D01*
X133364519Y-81843280D01*
X132078804Y-82843280D02*
X132650233Y-82843280D01*
X132364519Y-82843280D02*
X132364519Y-81843280D01*
X132459757Y-81986138D01*
X132554995Y-82081376D01*
X132650233Y-82128995D01*
X145697376Y-81843280D02*
X145697376Y-82652804D01*
X145649757Y-82748042D01*
X145602138Y-82795661D01*
X145506900Y-82843280D01*
X145316423Y-82843280D01*
X145221185Y-82795661D01*
X145173566Y-82748042D01*
X145125947Y-82652804D01*
X145125947Y-81843280D01*
X144125947Y-82843280D02*
X144697376Y-82843280D01*
X144411661Y-82843280D02*
X144411661Y-81843280D01*
X144506900Y-81986138D01*
X144602138Y-82081376D01*
X144697376Y-82128995D01*
X143173566Y-82843280D02*
X143744995Y-82843280D01*
X143459280Y-82843280D02*
X143459280Y-81843280D01*
X143554519Y-81986138D01*
X143649757Y-82081376D01*
X143744995Y-82128995D01*
X142554519Y-81843280D02*
X142459280Y-81843280D01*
X142364042Y-81890900D01*
X142316423Y-81938519D01*
X142268804Y-82033757D01*
X142221185Y-82224233D01*
X142221185Y-82462328D01*
X142268804Y-82652804D01*
X142316423Y-82748042D01*
X142364042Y-82795661D01*
X142459280Y-82843280D01*
X142554519Y-82843280D01*
X142649757Y-82795661D01*
X142697376Y-82748042D01*
X142744995Y-82652804D01*
X142792614Y-82462328D01*
X142792614Y-82224233D01*
X142744995Y-82033757D01*
X142697376Y-81938519D01*
X142649757Y-81890900D01*
X142554519Y-81843280D01*
X141268804Y-82843280D02*
X141840233Y-82843280D01*
X141554519Y-82843280D02*
X141554519Y-81843280D01*
X141649757Y-81986138D01*
X141744995Y-82081376D01*
X141840233Y-82128995D01*
X154887376Y-81843280D02*
X154887376Y-82652804D01*
X154839757Y-82748042D01*
X154792138Y-82795661D01*
X154696900Y-82843280D01*
X154506423Y-82843280D01*
X154411185Y-82795661D01*
X154363566Y-82748042D01*
X154315947Y-82652804D01*
X154315947Y-81843280D01*
X153315947Y-82843280D02*
X153887376Y-82843280D01*
X153601661Y-82843280D02*
X153601661Y-81843280D01*
X153696900Y-81986138D01*
X153792138Y-82081376D01*
X153887376Y-82128995D01*
X152696900Y-81843280D02*
X152601661Y-81843280D01*
X152506423Y-81890900D01*
X152458804Y-81938519D01*
X152411185Y-82033757D01*
X152363566Y-82224233D01*
X152363566Y-82462328D01*
X152411185Y-82652804D01*
X152458804Y-82748042D01*
X152506423Y-82795661D01*
X152601661Y-82843280D01*
X152696900Y-82843280D01*
X152792138Y-82795661D01*
X152839757Y-82748042D01*
X152887376Y-82652804D01*
X152934995Y-82462328D01*
X152934995Y-82224233D01*
X152887376Y-82033757D01*
X152839757Y-81938519D01*
X152792138Y-81890900D01*
X152696900Y-81843280D01*
X151744519Y-81843280D02*
X151649280Y-81843280D01*
X151554042Y-81890900D01*
X151506423Y-81938519D01*
X151458804Y-82033757D01*
X151411185Y-82224233D01*
X151411185Y-82462328D01*
X151458804Y-82652804D01*
X151506423Y-82748042D01*
X151554042Y-82795661D01*
X151649280Y-82843280D01*
X151744519Y-82843280D01*
X151839757Y-82795661D01*
X151887376Y-82748042D01*
X151934995Y-82652804D01*
X151982614Y-82462328D01*
X151982614Y-82224233D01*
X151934995Y-82033757D01*
X151887376Y-81938519D01*
X151839757Y-81890900D01*
X151744519Y-81843280D01*
X150458804Y-82843280D02*
X151030233Y-82843280D01*
X150744519Y-82843280D02*
X150744519Y-81843280D01*
X150839757Y-81986138D01*
X150934995Y-82081376D01*
X151030233Y-82128995D01*
X162902685Y-81843280D02*
X162902685Y-82652804D01*
X162855066Y-82748042D01*
X162807447Y-82795661D01*
X162712209Y-82843280D01*
X162521733Y-82843280D01*
X162426495Y-82795661D01*
X162378876Y-82748042D01*
X162331257Y-82652804D01*
X162331257Y-81843280D01*
X161807447Y-82843280D02*
X161616971Y-82843280D01*
X161521733Y-82795661D01*
X161474114Y-82748042D01*
X161378876Y-82605185D01*
X161331257Y-82414709D01*
X161331257Y-82033757D01*
X161378876Y-81938519D01*
X161426495Y-81890900D01*
X161521733Y-81843280D01*
X161712209Y-81843280D01*
X161807447Y-81890900D01*
X161855066Y-81938519D01*
X161902685Y-82033757D01*
X161902685Y-82271852D01*
X161855066Y-82367090D01*
X161807447Y-82414709D01*
X161712209Y-82462328D01*
X161521733Y-82462328D01*
X161426495Y-82414709D01*
X161378876Y-82367090D01*
X161331257Y-82271852D01*
X160712209Y-81843280D02*
X160616971Y-81843280D01*
X160521733Y-81890900D01*
X160474114Y-81938519D01*
X160426495Y-82033757D01*
X160378876Y-82224233D01*
X160378876Y-82462328D01*
X160426495Y-82652804D01*
X160474114Y-82748042D01*
X160521733Y-82795661D01*
X160616971Y-82843280D01*
X160712209Y-82843280D01*
X160807447Y-82795661D01*
X160855066Y-82748042D01*
X160902685Y-82652804D01*
X160950304Y-82462328D01*
X160950304Y-82224233D01*
X160902685Y-82033757D01*
X160855066Y-81938519D01*
X160807447Y-81890900D01*
X160712209Y-81843280D01*
X159426495Y-82843280D02*
X159997923Y-82843280D01*
X159712209Y-82843280D02*
X159712209Y-81843280D01*
X159807447Y-81986138D01*
X159902685Y-82081376D01*
X159997923Y-82128995D01*
X145579885Y-73721980D02*
X145579885Y-74531504D01*
X145532266Y-74626742D01*
X145484647Y-74674361D01*
X145389409Y-74721980D01*
X145198933Y-74721980D01*
X145103695Y-74674361D01*
X145056076Y-74626742D01*
X145008457Y-74531504D01*
X145008457Y-73721980D01*
X144056076Y-73721980D02*
X144532266Y-73721980D01*
X144579885Y-74198171D01*
X144532266Y-74150552D01*
X144437028Y-74102933D01*
X144198933Y-74102933D01*
X144103695Y-74150552D01*
X144056076Y-74198171D01*
X144008457Y-74293409D01*
X144008457Y-74531504D01*
X144056076Y-74626742D01*
X144103695Y-74674361D01*
X144198933Y-74721980D01*
X144437028Y-74721980D01*
X144532266Y-74674361D01*
X144579885Y-74626742D01*
X143389409Y-73721980D02*
X143294171Y-73721980D01*
X143198933Y-73769600D01*
X143151314Y-73817219D01*
X143103695Y-73912457D01*
X143056076Y-74102933D01*
X143056076Y-74341028D01*
X143103695Y-74531504D01*
X143151314Y-74626742D01*
X143198933Y-74674361D01*
X143294171Y-74721980D01*
X143389409Y-74721980D01*
X143484647Y-74674361D01*
X143532266Y-74626742D01*
X143579885Y-74531504D01*
X143627504Y-74341028D01*
X143627504Y-74102933D01*
X143579885Y-73912457D01*
X143532266Y-73817219D01*
X143484647Y-73769600D01*
X143389409Y-73721980D01*
X142722742Y-73721980D02*
X142056076Y-73721980D01*
X142484647Y-74721980D01*
M02*
