G04 #@! TF.GenerationSoftware,KiCad,Pcbnew,(5.1.4)-1*
G04 #@! TF.CreationDate,2019-12-15T14:44:31-06:00*
G04 #@! TF.ProjectId,Incrementor,496e6372-656d-4656-9e74-6f722e6b6963,rev?*
G04 #@! TF.SameCoordinates,Original*
G04 #@! TF.FileFunction,Soldermask,Top*
G04 #@! TF.FilePolarity,Negative*
%FSLAX46Y46*%
G04 Gerber Fmt 4.6, Leading zero omitted, Abs format (unit mm)*
G04 Created by KiCad (PCBNEW (5.1.4)-1) date 2019-12-15 14:44:31*
%MOMM*%
%LPD*%
G04 APERTURE LIST*
%ADD10C,0.100000*%
G04 APERTURE END LIST*
D10*
G36*
X86334600Y-108661200D02*
G01*
X81864200Y-108661200D01*
X81864200Y-106781600D01*
X86334600Y-106781600D01*
X86334600Y-108661200D01*
G37*
X86334600Y-108661200D02*
X81864200Y-108661200D01*
X81864200Y-106781600D01*
X86334600Y-106781600D01*
X86334600Y-108661200D01*
G36*
X151228500Y-107130200D02*
G01*
X150626500Y-107130200D01*
X150626500Y-106128200D01*
X151228500Y-106128200D01*
X151228500Y-107130200D01*
X151228500Y-107130200D01*
G37*
G36*
X149728500Y-107130200D02*
G01*
X149126500Y-107130200D01*
X149126500Y-106128200D01*
X149728500Y-106128200D01*
X149728500Y-107130200D01*
X149728500Y-107130200D01*
G37*
G36*
X140508300Y-107130200D02*
G01*
X139906300Y-107130200D01*
X139906300Y-106128200D01*
X140508300Y-106128200D01*
X140508300Y-107130200D01*
X140508300Y-107130200D01*
G37*
G36*
X142008300Y-107130200D02*
G01*
X141406300Y-107130200D01*
X141406300Y-106128200D01*
X142008300Y-106128200D01*
X142008300Y-107130200D01*
X142008300Y-107130200D01*
G37*
G36*
X131338900Y-107117500D02*
G01*
X130736900Y-107117500D01*
X130736900Y-106115500D01*
X131338900Y-106115500D01*
X131338900Y-107117500D01*
X131338900Y-107117500D01*
G37*
G36*
X132838900Y-107117500D02*
G01*
X132236900Y-107117500D01*
X132236900Y-106115500D01*
X132838900Y-106115500D01*
X132838900Y-107117500D01*
X132838900Y-107117500D01*
G37*
G36*
X122067900Y-107104800D02*
G01*
X121465900Y-107104800D01*
X121465900Y-106102800D01*
X122067900Y-106102800D01*
X122067900Y-107104800D01*
X122067900Y-107104800D01*
G37*
G36*
X114411200Y-107104800D02*
G01*
X113809200Y-107104800D01*
X113809200Y-106102800D01*
X114411200Y-106102800D01*
X114411200Y-107104800D01*
X114411200Y-107104800D01*
G37*
G36*
X112911200Y-107104800D02*
G01*
X112309200Y-107104800D01*
X112309200Y-106102800D01*
X112911200Y-106102800D01*
X112911200Y-107104800D01*
X112911200Y-107104800D01*
G37*
G36*
X123567900Y-107104800D02*
G01*
X122965900Y-107104800D01*
X122965900Y-106102800D01*
X123567900Y-106102800D01*
X123567900Y-107104800D01*
X123567900Y-107104800D01*
G37*
G36*
X103741800Y-107079400D02*
G01*
X103139800Y-107079400D01*
X103139800Y-106077400D01*
X103741800Y-106077400D01*
X103741800Y-107079400D01*
X103741800Y-107079400D01*
G37*
G36*
X105241800Y-107079400D02*
G01*
X104639800Y-107079400D01*
X104639800Y-106077400D01*
X105241800Y-106077400D01*
X105241800Y-107079400D01*
X105241800Y-107079400D01*
G37*
G36*
X96034300Y-107041300D02*
G01*
X95432300Y-107041300D01*
X95432300Y-106039300D01*
X96034300Y-106039300D01*
X96034300Y-107041300D01*
X96034300Y-107041300D01*
G37*
G36*
X94534300Y-107041300D02*
G01*
X93932300Y-107041300D01*
X93932300Y-106039300D01*
X94534300Y-106039300D01*
X94534300Y-107041300D01*
X94534300Y-107041300D01*
G37*
G36*
X78128185Y-103838002D02*
G01*
X78278010Y-103867804D01*
X78560274Y-103984721D01*
X78814305Y-104154459D01*
X79030341Y-104370495D01*
X79200079Y-104624526D01*
X79316996Y-104906790D01*
X79336392Y-105004300D01*
X79376600Y-105206439D01*
X79376600Y-105511961D01*
X79365274Y-105568900D01*
X79316996Y-105811610D01*
X79200079Y-106093874D01*
X79030341Y-106347905D01*
X78814305Y-106563941D01*
X78560274Y-106733679D01*
X78278010Y-106850596D01*
X78128185Y-106880398D01*
X77978361Y-106910200D01*
X77672839Y-106910200D01*
X77523015Y-106880398D01*
X77373190Y-106850596D01*
X77090926Y-106733679D01*
X76836895Y-106563941D01*
X76620859Y-106347905D01*
X76451121Y-106093874D01*
X76334204Y-105811610D01*
X76285926Y-105568900D01*
X76274600Y-105511961D01*
X76274600Y-105206439D01*
X76314808Y-105004300D01*
X76334204Y-104906790D01*
X76451121Y-104624526D01*
X76620859Y-104370495D01*
X76836895Y-104154459D01*
X77090926Y-103984721D01*
X77373190Y-103867804D01*
X77523015Y-103838002D01*
X77672839Y-103808200D01*
X77978361Y-103808200D01*
X78128185Y-103838002D01*
X78128185Y-103838002D01*
G37*
G36*
X163370585Y-103838002D02*
G01*
X163520410Y-103867804D01*
X163802674Y-103984721D01*
X164056705Y-104154459D01*
X164272741Y-104370495D01*
X164442479Y-104624526D01*
X164559396Y-104906790D01*
X164578792Y-105004300D01*
X164619000Y-105206439D01*
X164619000Y-105511961D01*
X164607674Y-105568900D01*
X164559396Y-105811610D01*
X164442479Y-106093874D01*
X164272741Y-106347905D01*
X164056705Y-106563941D01*
X163802674Y-106733679D01*
X163520410Y-106850596D01*
X163370585Y-106880398D01*
X163220761Y-106910200D01*
X162915239Y-106910200D01*
X162765415Y-106880398D01*
X162615590Y-106850596D01*
X162333326Y-106733679D01*
X162079295Y-106563941D01*
X161863259Y-106347905D01*
X161693521Y-106093874D01*
X161576604Y-105811610D01*
X161528326Y-105568900D01*
X161517000Y-105511961D01*
X161517000Y-105206439D01*
X161557208Y-105004300D01*
X161576604Y-104906790D01*
X161693521Y-104624526D01*
X161863259Y-104370495D01*
X162079295Y-104154459D01*
X162333326Y-103984721D01*
X162615590Y-103867804D01*
X162765415Y-103838002D01*
X162915239Y-103808200D01*
X163220761Y-103808200D01*
X163370585Y-103838002D01*
X163370585Y-103838002D01*
G37*
G36*
X137335300Y-106831700D02*
G01*
X136583300Y-106831700D01*
X136583300Y-105029700D01*
X137335300Y-105029700D01*
X137335300Y-106831700D01*
X137335300Y-106831700D01*
G37*
G36*
X139235300Y-106831700D02*
G01*
X138483300Y-106831700D01*
X138483300Y-106329700D01*
X139235300Y-106329700D01*
X139235300Y-106831700D01*
X139235300Y-106831700D01*
G37*
G36*
X148455500Y-106831700D02*
G01*
X147703500Y-106831700D01*
X147703500Y-106329700D01*
X148455500Y-106329700D01*
X148455500Y-106831700D01*
X148455500Y-106831700D01*
G37*
G36*
X146555500Y-106831700D02*
G01*
X145803500Y-106831700D01*
X145803500Y-105029700D01*
X146555500Y-105029700D01*
X146555500Y-106831700D01*
X146555500Y-106831700D01*
G37*
G36*
X128165900Y-106819000D02*
G01*
X127413900Y-106819000D01*
X127413900Y-105017000D01*
X128165900Y-105017000D01*
X128165900Y-106819000D01*
X128165900Y-106819000D01*
G37*
G36*
X130065900Y-106819000D02*
G01*
X129313900Y-106819000D01*
X129313900Y-106317000D01*
X130065900Y-106317000D01*
X130065900Y-106819000D01*
X130065900Y-106819000D01*
G37*
G36*
X109738200Y-106806300D02*
G01*
X108986200Y-106806300D01*
X108986200Y-105004300D01*
X109738200Y-105004300D01*
X109738200Y-106806300D01*
X109738200Y-106806300D01*
G37*
G36*
X111638200Y-106806300D02*
G01*
X110886200Y-106806300D01*
X110886200Y-106304300D01*
X111638200Y-106304300D01*
X111638200Y-106806300D01*
X111638200Y-106806300D01*
G37*
G36*
X118894900Y-106806300D02*
G01*
X118142900Y-106806300D01*
X118142900Y-105004300D01*
X118894900Y-105004300D01*
X118894900Y-106806300D01*
X118894900Y-106806300D01*
G37*
G36*
X120794900Y-106806300D02*
G01*
X120042900Y-106806300D01*
X120042900Y-106304300D01*
X120794900Y-106304300D01*
X120794900Y-106806300D01*
X120794900Y-106806300D01*
G37*
G36*
X102468800Y-106780900D02*
G01*
X101716800Y-106780900D01*
X101716800Y-106278900D01*
X102468800Y-106278900D01*
X102468800Y-106780900D01*
X102468800Y-106780900D01*
G37*
G36*
X100568800Y-106780900D02*
G01*
X99816800Y-106780900D01*
X99816800Y-104978900D01*
X100568800Y-104978900D01*
X100568800Y-106780900D01*
X100568800Y-106780900D01*
G37*
G36*
X91358800Y-106742800D02*
G01*
X90606800Y-106742800D01*
X90606800Y-104940800D01*
X91358800Y-104940800D01*
X91358800Y-106742800D01*
X91358800Y-106742800D01*
G37*
G36*
X93258800Y-106742800D02*
G01*
X92506800Y-106742800D01*
X92506800Y-106240800D01*
X93258800Y-106240800D01*
X93258800Y-106742800D01*
X93258800Y-106742800D01*
G37*
G36*
X150019000Y-105619700D02*
G01*
X149117000Y-105619700D01*
X149117000Y-104717700D01*
X150019000Y-104717700D01*
X150019000Y-105619700D01*
X150019000Y-105619700D01*
G37*
G36*
X140798800Y-105619700D02*
G01*
X139896800Y-105619700D01*
X139896800Y-104717700D01*
X140798800Y-104717700D01*
X140798800Y-105619700D01*
X140798800Y-105619700D01*
G37*
G36*
X142398800Y-105619700D02*
G01*
X141496800Y-105619700D01*
X141496800Y-104717700D01*
X142398800Y-104717700D01*
X142398800Y-105619700D01*
X142398800Y-105619700D01*
G37*
G36*
X151619000Y-105619700D02*
G01*
X150717000Y-105619700D01*
X150717000Y-104717700D01*
X151619000Y-104717700D01*
X151619000Y-105619700D01*
X151619000Y-105619700D01*
G37*
G36*
X131629400Y-105607000D02*
G01*
X130727400Y-105607000D01*
X130727400Y-104705000D01*
X131629400Y-104705000D01*
X131629400Y-105607000D01*
X131629400Y-105607000D01*
G37*
G36*
X133229400Y-105607000D02*
G01*
X132327400Y-105607000D01*
X132327400Y-104705000D01*
X133229400Y-104705000D01*
X133229400Y-105607000D01*
X133229400Y-105607000D01*
G37*
G36*
X113201700Y-105594300D02*
G01*
X112299700Y-105594300D01*
X112299700Y-104692300D01*
X113201700Y-104692300D01*
X113201700Y-105594300D01*
X113201700Y-105594300D01*
G37*
G36*
X114801700Y-105594300D02*
G01*
X113899700Y-105594300D01*
X113899700Y-104692300D01*
X114801700Y-104692300D01*
X114801700Y-105594300D01*
X114801700Y-105594300D01*
G37*
G36*
X122358400Y-105594300D02*
G01*
X121456400Y-105594300D01*
X121456400Y-104692300D01*
X122358400Y-104692300D01*
X122358400Y-105594300D01*
X122358400Y-105594300D01*
G37*
G36*
X123958400Y-105594300D02*
G01*
X123056400Y-105594300D01*
X123056400Y-104692300D01*
X123958400Y-104692300D01*
X123958400Y-105594300D01*
X123958400Y-105594300D01*
G37*
G36*
X105632300Y-105568900D02*
G01*
X104730300Y-105568900D01*
X104730300Y-104666900D01*
X105632300Y-104666900D01*
X105632300Y-105568900D01*
X105632300Y-105568900D01*
G37*
G36*
X104032300Y-105568900D02*
G01*
X103130300Y-105568900D01*
X103130300Y-104666900D01*
X104032300Y-104666900D01*
X104032300Y-105568900D01*
X104032300Y-105568900D01*
G37*
G36*
X139235300Y-105531700D02*
G01*
X138483300Y-105531700D01*
X138483300Y-105029700D01*
X139235300Y-105029700D01*
X139235300Y-105531700D01*
X139235300Y-105531700D01*
G37*
G36*
X148455500Y-105531700D02*
G01*
X147703500Y-105531700D01*
X147703500Y-105029700D01*
X148455500Y-105029700D01*
X148455500Y-105531700D01*
X148455500Y-105531700D01*
G37*
G36*
X94824800Y-105530800D02*
G01*
X93922800Y-105530800D01*
X93922800Y-104628800D01*
X94824800Y-104628800D01*
X94824800Y-105530800D01*
X94824800Y-105530800D01*
G37*
G36*
X96424800Y-105530800D02*
G01*
X95522800Y-105530800D01*
X95522800Y-104628800D01*
X96424800Y-104628800D01*
X96424800Y-105530800D01*
X96424800Y-105530800D01*
G37*
G36*
X130065900Y-105519000D02*
G01*
X129313900Y-105519000D01*
X129313900Y-105017000D01*
X130065900Y-105017000D01*
X130065900Y-105519000D01*
X130065900Y-105519000D01*
G37*
G36*
X120794900Y-105506300D02*
G01*
X120042900Y-105506300D01*
X120042900Y-105004300D01*
X120794900Y-105004300D01*
X120794900Y-105506300D01*
X120794900Y-105506300D01*
G37*
G36*
X111638200Y-105506300D02*
G01*
X110886200Y-105506300D01*
X110886200Y-105004300D01*
X111638200Y-105004300D01*
X111638200Y-105506300D01*
X111638200Y-105506300D01*
G37*
G36*
X102468800Y-105480900D02*
G01*
X101716800Y-105480900D01*
X101716800Y-104978900D01*
X102468800Y-104978900D01*
X102468800Y-105480900D01*
X102468800Y-105480900D01*
G37*
G36*
X93258800Y-105442800D02*
G01*
X92506800Y-105442800D01*
X92506800Y-104940800D01*
X93258800Y-104940800D01*
X93258800Y-105442800D01*
X93258800Y-105442800D01*
G37*
G36*
X146231628Y-99219603D02*
G01*
X146386500Y-99283753D01*
X146525881Y-99376885D01*
X146644415Y-99495419D01*
X146737547Y-99634800D01*
X146801697Y-99789672D01*
X146834400Y-99954084D01*
X146834400Y-100121716D01*
X146801697Y-100286128D01*
X146737547Y-100441000D01*
X146644415Y-100580381D01*
X146525881Y-100698915D01*
X146386500Y-100792047D01*
X146231628Y-100856197D01*
X146067216Y-100888900D01*
X145899584Y-100888900D01*
X145735172Y-100856197D01*
X145580300Y-100792047D01*
X145440919Y-100698915D01*
X145322385Y-100580381D01*
X145229253Y-100441000D01*
X145165103Y-100286128D01*
X145132400Y-100121716D01*
X145132400Y-99954084D01*
X145165103Y-99789672D01*
X145229253Y-99634800D01*
X145322385Y-99495419D01*
X145440919Y-99376885D01*
X145580300Y-99283753D01*
X145735172Y-99219603D01*
X145899584Y-99186900D01*
X146067216Y-99186900D01*
X146231628Y-99219603D01*
X146231628Y-99219603D01*
G37*
G36*
X86011628Y-99219603D02*
G01*
X86166500Y-99283753D01*
X86305881Y-99376885D01*
X86424415Y-99495419D01*
X86517547Y-99634800D01*
X86581697Y-99789672D01*
X86614400Y-99954084D01*
X86614400Y-100121716D01*
X86581697Y-100286128D01*
X86517547Y-100441000D01*
X86424415Y-100580381D01*
X86305881Y-100698915D01*
X86166500Y-100792047D01*
X86011628Y-100856197D01*
X85847216Y-100888900D01*
X85679584Y-100888900D01*
X85515172Y-100856197D01*
X85360300Y-100792047D01*
X85220919Y-100698915D01*
X85102385Y-100580381D01*
X85009253Y-100441000D01*
X84945103Y-100286128D01*
X84912400Y-100121716D01*
X84912400Y-99954084D01*
X84945103Y-99789672D01*
X85009253Y-99634800D01*
X85102385Y-99495419D01*
X85220919Y-99376885D01*
X85360300Y-99283753D01*
X85515172Y-99219603D01*
X85679584Y-99186900D01*
X85847216Y-99186900D01*
X86011628Y-99219603D01*
X86011628Y-99219603D01*
G37*
G36*
X81901628Y-99219603D02*
G01*
X82056500Y-99283753D01*
X82195881Y-99376885D01*
X82314415Y-99495419D01*
X82407547Y-99634800D01*
X82471697Y-99789672D01*
X82504400Y-99954084D01*
X82504400Y-100121716D01*
X82471697Y-100286128D01*
X82407547Y-100441000D01*
X82314415Y-100580381D01*
X82195881Y-100698915D01*
X82056500Y-100792047D01*
X81901628Y-100856197D01*
X81737216Y-100888900D01*
X81569584Y-100888900D01*
X81405172Y-100856197D01*
X81250300Y-100792047D01*
X81110919Y-100698915D01*
X80992385Y-100580381D01*
X80899253Y-100441000D01*
X80835103Y-100286128D01*
X80802400Y-100121716D01*
X80802400Y-99954084D01*
X80835103Y-99789672D01*
X80899253Y-99634800D01*
X80992385Y-99495419D01*
X81110919Y-99376885D01*
X81250300Y-99283753D01*
X81405172Y-99219603D01*
X81569584Y-99186900D01*
X81737216Y-99186900D01*
X81901628Y-99219603D01*
X81901628Y-99219603D01*
G37*
G36*
X131961628Y-99219603D02*
G01*
X132116500Y-99283753D01*
X132255881Y-99376885D01*
X132374415Y-99495419D01*
X132467547Y-99634800D01*
X132531697Y-99789672D01*
X132564400Y-99954084D01*
X132564400Y-100121716D01*
X132531697Y-100286128D01*
X132467547Y-100441000D01*
X132374415Y-100580381D01*
X132255881Y-100698915D01*
X132116500Y-100792047D01*
X131961628Y-100856197D01*
X131797216Y-100888900D01*
X131629584Y-100888900D01*
X131465172Y-100856197D01*
X131310300Y-100792047D01*
X131170919Y-100698915D01*
X131052385Y-100580381D01*
X130959253Y-100441000D01*
X130895103Y-100286128D01*
X130862400Y-100121716D01*
X130862400Y-99954084D01*
X130895103Y-99789672D01*
X130959253Y-99634800D01*
X131052385Y-99495419D01*
X131170919Y-99376885D01*
X131310300Y-99283753D01*
X131465172Y-99219603D01*
X131629584Y-99186900D01*
X131797216Y-99186900D01*
X131961628Y-99219603D01*
X131961628Y-99219603D01*
G37*
G36*
X137041628Y-99219603D02*
G01*
X137196500Y-99283753D01*
X137335881Y-99376885D01*
X137454415Y-99495419D01*
X137547547Y-99634800D01*
X137611697Y-99789672D01*
X137644400Y-99954084D01*
X137644400Y-100121716D01*
X137611697Y-100286128D01*
X137547547Y-100441000D01*
X137454415Y-100580381D01*
X137335881Y-100698915D01*
X137196500Y-100792047D01*
X137041628Y-100856197D01*
X136877216Y-100888900D01*
X136709584Y-100888900D01*
X136545172Y-100856197D01*
X136390300Y-100792047D01*
X136250919Y-100698915D01*
X136132385Y-100580381D01*
X136039253Y-100441000D01*
X135975103Y-100286128D01*
X135942400Y-100121716D01*
X135942400Y-99954084D01*
X135975103Y-99789672D01*
X136039253Y-99634800D01*
X136132385Y-99495419D01*
X136250919Y-99376885D01*
X136390300Y-99283753D01*
X136545172Y-99219603D01*
X136709584Y-99186900D01*
X136877216Y-99186900D01*
X137041628Y-99219603D01*
X137041628Y-99219603D01*
G37*
G36*
X76821628Y-99219603D02*
G01*
X76976500Y-99283753D01*
X77115881Y-99376885D01*
X77234415Y-99495419D01*
X77327547Y-99634800D01*
X77391697Y-99789672D01*
X77424400Y-99954084D01*
X77424400Y-100121716D01*
X77391697Y-100286128D01*
X77327547Y-100441000D01*
X77234415Y-100580381D01*
X77115881Y-100698915D01*
X76976500Y-100792047D01*
X76821628Y-100856197D01*
X76657216Y-100888900D01*
X76489584Y-100888900D01*
X76325172Y-100856197D01*
X76170300Y-100792047D01*
X76030919Y-100698915D01*
X75912385Y-100580381D01*
X75819253Y-100441000D01*
X75755103Y-100286128D01*
X75722400Y-100121716D01*
X75722400Y-99954084D01*
X75755103Y-99789672D01*
X75819253Y-99634800D01*
X75912385Y-99495419D01*
X76030919Y-99376885D01*
X76170300Y-99283753D01*
X76325172Y-99219603D01*
X76489584Y-99186900D01*
X76657216Y-99186900D01*
X76821628Y-99219603D01*
X76821628Y-99219603D01*
G37*
G36*
X159531628Y-99219603D02*
G01*
X159686500Y-99283753D01*
X159825881Y-99376885D01*
X159944415Y-99495419D01*
X160037547Y-99634800D01*
X160101697Y-99789672D01*
X160134400Y-99954084D01*
X160134400Y-100121716D01*
X160101697Y-100286128D01*
X160037547Y-100441000D01*
X159944415Y-100580381D01*
X159825881Y-100698915D01*
X159686500Y-100792047D01*
X159531628Y-100856197D01*
X159367216Y-100888900D01*
X159199584Y-100888900D01*
X159035172Y-100856197D01*
X158880300Y-100792047D01*
X158740919Y-100698915D01*
X158622385Y-100580381D01*
X158529253Y-100441000D01*
X158465103Y-100286128D01*
X158432400Y-100121716D01*
X158432400Y-99954084D01*
X158465103Y-99789672D01*
X158529253Y-99634800D01*
X158622385Y-99495419D01*
X158740919Y-99376885D01*
X158880300Y-99283753D01*
X159035172Y-99219603D01*
X159199584Y-99186900D01*
X159367216Y-99186900D01*
X159531628Y-99219603D01*
X159531628Y-99219603D01*
G37*
G36*
X150341628Y-99219603D02*
G01*
X150496500Y-99283753D01*
X150635881Y-99376885D01*
X150754415Y-99495419D01*
X150847547Y-99634800D01*
X150911697Y-99789672D01*
X150944400Y-99954084D01*
X150944400Y-100121716D01*
X150911697Y-100286128D01*
X150847547Y-100441000D01*
X150754415Y-100580381D01*
X150635881Y-100698915D01*
X150496500Y-100792047D01*
X150341628Y-100856197D01*
X150177216Y-100888900D01*
X150009584Y-100888900D01*
X149845172Y-100856197D01*
X149690300Y-100792047D01*
X149550919Y-100698915D01*
X149432385Y-100580381D01*
X149339253Y-100441000D01*
X149275103Y-100286128D01*
X149242400Y-100121716D01*
X149242400Y-99954084D01*
X149275103Y-99789672D01*
X149339253Y-99634800D01*
X149432385Y-99495419D01*
X149550919Y-99376885D01*
X149690300Y-99283753D01*
X149845172Y-99219603D01*
X150009584Y-99186900D01*
X150177216Y-99186900D01*
X150341628Y-99219603D01*
X150341628Y-99219603D01*
G37*
G36*
X164611628Y-99219603D02*
G01*
X164766500Y-99283753D01*
X164905881Y-99376885D01*
X165024415Y-99495419D01*
X165117547Y-99634800D01*
X165181697Y-99789672D01*
X165214400Y-99954084D01*
X165214400Y-100121716D01*
X165181697Y-100286128D01*
X165117547Y-100441000D01*
X165024415Y-100580381D01*
X164905881Y-100698915D01*
X164766500Y-100792047D01*
X164611628Y-100856197D01*
X164447216Y-100888900D01*
X164279584Y-100888900D01*
X164115172Y-100856197D01*
X163960300Y-100792047D01*
X163820919Y-100698915D01*
X163702385Y-100580381D01*
X163609253Y-100441000D01*
X163545103Y-100286128D01*
X163512400Y-100121716D01*
X163512400Y-99954084D01*
X163545103Y-99789672D01*
X163609253Y-99634800D01*
X163702385Y-99495419D01*
X163820919Y-99376885D01*
X163960300Y-99283753D01*
X164115172Y-99219603D01*
X164279584Y-99186900D01*
X164447216Y-99186900D01*
X164611628Y-99219603D01*
X164611628Y-99219603D01*
G37*
G36*
X155421628Y-99219603D02*
G01*
X155576500Y-99283753D01*
X155715881Y-99376885D01*
X155834415Y-99495419D01*
X155927547Y-99634800D01*
X155991697Y-99789672D01*
X156024400Y-99954084D01*
X156024400Y-100121716D01*
X155991697Y-100286128D01*
X155927547Y-100441000D01*
X155834415Y-100580381D01*
X155715881Y-100698915D01*
X155576500Y-100792047D01*
X155421628Y-100856197D01*
X155257216Y-100888900D01*
X155089584Y-100888900D01*
X154925172Y-100856197D01*
X154770300Y-100792047D01*
X154630919Y-100698915D01*
X154512385Y-100580381D01*
X154419253Y-100441000D01*
X154355103Y-100286128D01*
X154322400Y-100121716D01*
X154322400Y-99954084D01*
X154355103Y-99789672D01*
X154419253Y-99634800D01*
X154512385Y-99495419D01*
X154630919Y-99376885D01*
X154770300Y-99283753D01*
X154925172Y-99219603D01*
X155089584Y-99186900D01*
X155257216Y-99186900D01*
X155421628Y-99219603D01*
X155421628Y-99219603D01*
G37*
G36*
X91091628Y-99219603D02*
G01*
X91246500Y-99283753D01*
X91385881Y-99376885D01*
X91504415Y-99495419D01*
X91597547Y-99634800D01*
X91661697Y-99789672D01*
X91694400Y-99954084D01*
X91694400Y-100121716D01*
X91661697Y-100286128D01*
X91597547Y-100441000D01*
X91504415Y-100580381D01*
X91385881Y-100698915D01*
X91246500Y-100792047D01*
X91091628Y-100856197D01*
X90927216Y-100888900D01*
X90759584Y-100888900D01*
X90595172Y-100856197D01*
X90440300Y-100792047D01*
X90300919Y-100698915D01*
X90182385Y-100580381D01*
X90089253Y-100441000D01*
X90025103Y-100286128D01*
X89992400Y-100121716D01*
X89992400Y-99954084D01*
X90025103Y-99789672D01*
X90089253Y-99634800D01*
X90182385Y-99495419D01*
X90300919Y-99376885D01*
X90440300Y-99283753D01*
X90595172Y-99219603D01*
X90759584Y-99186900D01*
X90927216Y-99186900D01*
X91091628Y-99219603D01*
X91091628Y-99219603D01*
G37*
G36*
X95201628Y-99219603D02*
G01*
X95356500Y-99283753D01*
X95495881Y-99376885D01*
X95614415Y-99495419D01*
X95707547Y-99634800D01*
X95771697Y-99789672D01*
X95804400Y-99954084D01*
X95804400Y-100121716D01*
X95771697Y-100286128D01*
X95707547Y-100441000D01*
X95614415Y-100580381D01*
X95495881Y-100698915D01*
X95356500Y-100792047D01*
X95201628Y-100856197D01*
X95037216Y-100888900D01*
X94869584Y-100888900D01*
X94705172Y-100856197D01*
X94550300Y-100792047D01*
X94410919Y-100698915D01*
X94292385Y-100580381D01*
X94199253Y-100441000D01*
X94135103Y-100286128D01*
X94102400Y-100121716D01*
X94102400Y-99954084D01*
X94135103Y-99789672D01*
X94199253Y-99634800D01*
X94292385Y-99495419D01*
X94410919Y-99376885D01*
X94550300Y-99283753D01*
X94705172Y-99219603D01*
X94869584Y-99186900D01*
X95037216Y-99186900D01*
X95201628Y-99219603D01*
X95201628Y-99219603D01*
G37*
G36*
X100281628Y-99219603D02*
G01*
X100436500Y-99283753D01*
X100575881Y-99376885D01*
X100694415Y-99495419D01*
X100787547Y-99634800D01*
X100851697Y-99789672D01*
X100884400Y-99954084D01*
X100884400Y-100121716D01*
X100851697Y-100286128D01*
X100787547Y-100441000D01*
X100694415Y-100580381D01*
X100575881Y-100698915D01*
X100436500Y-100792047D01*
X100281628Y-100856197D01*
X100117216Y-100888900D01*
X99949584Y-100888900D01*
X99785172Y-100856197D01*
X99630300Y-100792047D01*
X99490919Y-100698915D01*
X99372385Y-100580381D01*
X99279253Y-100441000D01*
X99215103Y-100286128D01*
X99182400Y-100121716D01*
X99182400Y-99954084D01*
X99215103Y-99789672D01*
X99279253Y-99634800D01*
X99372385Y-99495419D01*
X99490919Y-99376885D01*
X99630300Y-99283753D01*
X99785172Y-99219603D01*
X99949584Y-99186900D01*
X100117216Y-99186900D01*
X100281628Y-99219603D01*
X100281628Y-99219603D01*
G37*
G36*
X104391628Y-99219603D02*
G01*
X104546500Y-99283753D01*
X104685881Y-99376885D01*
X104804415Y-99495419D01*
X104897547Y-99634800D01*
X104961697Y-99789672D01*
X104994400Y-99954084D01*
X104994400Y-100121716D01*
X104961697Y-100286128D01*
X104897547Y-100441000D01*
X104804415Y-100580381D01*
X104685881Y-100698915D01*
X104546500Y-100792047D01*
X104391628Y-100856197D01*
X104227216Y-100888900D01*
X104059584Y-100888900D01*
X103895172Y-100856197D01*
X103740300Y-100792047D01*
X103600919Y-100698915D01*
X103482385Y-100580381D01*
X103389253Y-100441000D01*
X103325103Y-100286128D01*
X103292400Y-100121716D01*
X103292400Y-99954084D01*
X103325103Y-99789672D01*
X103389253Y-99634800D01*
X103482385Y-99495419D01*
X103600919Y-99376885D01*
X103740300Y-99283753D01*
X103895172Y-99219603D01*
X104059584Y-99186900D01*
X104227216Y-99186900D01*
X104391628Y-99219603D01*
X104391628Y-99219603D01*
G37*
G36*
X109471628Y-99219603D02*
G01*
X109626500Y-99283753D01*
X109765881Y-99376885D01*
X109884415Y-99495419D01*
X109977547Y-99634800D01*
X110041697Y-99789672D01*
X110074400Y-99954084D01*
X110074400Y-100121716D01*
X110041697Y-100286128D01*
X109977547Y-100441000D01*
X109884415Y-100580381D01*
X109765881Y-100698915D01*
X109626500Y-100792047D01*
X109471628Y-100856197D01*
X109307216Y-100888900D01*
X109139584Y-100888900D01*
X108975172Y-100856197D01*
X108820300Y-100792047D01*
X108680919Y-100698915D01*
X108562385Y-100580381D01*
X108469253Y-100441000D01*
X108405103Y-100286128D01*
X108372400Y-100121716D01*
X108372400Y-99954084D01*
X108405103Y-99789672D01*
X108469253Y-99634800D01*
X108562385Y-99495419D01*
X108680919Y-99376885D01*
X108820300Y-99283753D01*
X108975172Y-99219603D01*
X109139584Y-99186900D01*
X109307216Y-99186900D01*
X109471628Y-99219603D01*
X109471628Y-99219603D01*
G37*
G36*
X113581628Y-99219603D02*
G01*
X113736500Y-99283753D01*
X113875881Y-99376885D01*
X113994415Y-99495419D01*
X114087547Y-99634800D01*
X114151697Y-99789672D01*
X114184400Y-99954084D01*
X114184400Y-100121716D01*
X114151697Y-100286128D01*
X114087547Y-100441000D01*
X113994415Y-100580381D01*
X113875881Y-100698915D01*
X113736500Y-100792047D01*
X113581628Y-100856197D01*
X113417216Y-100888900D01*
X113249584Y-100888900D01*
X113085172Y-100856197D01*
X112930300Y-100792047D01*
X112790919Y-100698915D01*
X112672385Y-100580381D01*
X112579253Y-100441000D01*
X112515103Y-100286128D01*
X112482400Y-100121716D01*
X112482400Y-99954084D01*
X112515103Y-99789672D01*
X112579253Y-99634800D01*
X112672385Y-99495419D01*
X112790919Y-99376885D01*
X112930300Y-99283753D01*
X113085172Y-99219603D01*
X113249584Y-99186900D01*
X113417216Y-99186900D01*
X113581628Y-99219603D01*
X113581628Y-99219603D01*
G37*
G36*
X122771628Y-99219603D02*
G01*
X122926500Y-99283753D01*
X123065881Y-99376885D01*
X123184415Y-99495419D01*
X123277547Y-99634800D01*
X123341697Y-99789672D01*
X123374400Y-99954084D01*
X123374400Y-100121716D01*
X123341697Y-100286128D01*
X123277547Y-100441000D01*
X123184415Y-100580381D01*
X123065881Y-100698915D01*
X122926500Y-100792047D01*
X122771628Y-100856197D01*
X122607216Y-100888900D01*
X122439584Y-100888900D01*
X122275172Y-100856197D01*
X122120300Y-100792047D01*
X121980919Y-100698915D01*
X121862385Y-100580381D01*
X121769253Y-100441000D01*
X121705103Y-100286128D01*
X121672400Y-100121716D01*
X121672400Y-99954084D01*
X121705103Y-99789672D01*
X121769253Y-99634800D01*
X121862385Y-99495419D01*
X121980919Y-99376885D01*
X122120300Y-99283753D01*
X122275172Y-99219603D01*
X122439584Y-99186900D01*
X122607216Y-99186900D01*
X122771628Y-99219603D01*
X122771628Y-99219603D01*
G37*
G36*
X118661628Y-99219603D02*
G01*
X118816500Y-99283753D01*
X118955881Y-99376885D01*
X119074415Y-99495419D01*
X119167547Y-99634800D01*
X119231697Y-99789672D01*
X119264400Y-99954084D01*
X119264400Y-100121716D01*
X119231697Y-100286128D01*
X119167547Y-100441000D01*
X119074415Y-100580381D01*
X118955881Y-100698915D01*
X118816500Y-100792047D01*
X118661628Y-100856197D01*
X118497216Y-100888900D01*
X118329584Y-100888900D01*
X118165172Y-100856197D01*
X118010300Y-100792047D01*
X117870919Y-100698915D01*
X117752385Y-100580381D01*
X117659253Y-100441000D01*
X117595103Y-100286128D01*
X117562400Y-100121716D01*
X117562400Y-99954084D01*
X117595103Y-99789672D01*
X117659253Y-99634800D01*
X117752385Y-99495419D01*
X117870919Y-99376885D01*
X118010300Y-99283753D01*
X118165172Y-99219603D01*
X118329584Y-99186900D01*
X118497216Y-99186900D01*
X118661628Y-99219603D01*
X118661628Y-99219603D01*
G37*
G36*
X127851628Y-99219603D02*
G01*
X128006500Y-99283753D01*
X128145881Y-99376885D01*
X128264415Y-99495419D01*
X128357547Y-99634800D01*
X128421697Y-99789672D01*
X128454400Y-99954084D01*
X128454400Y-100121716D01*
X128421697Y-100286128D01*
X128357547Y-100441000D01*
X128264415Y-100580381D01*
X128145881Y-100698915D01*
X128006500Y-100792047D01*
X127851628Y-100856197D01*
X127687216Y-100888900D01*
X127519584Y-100888900D01*
X127355172Y-100856197D01*
X127200300Y-100792047D01*
X127060919Y-100698915D01*
X126942385Y-100580381D01*
X126849253Y-100441000D01*
X126785103Y-100286128D01*
X126752400Y-100121716D01*
X126752400Y-99954084D01*
X126785103Y-99789672D01*
X126849253Y-99634800D01*
X126942385Y-99495419D01*
X127060919Y-99376885D01*
X127200300Y-99283753D01*
X127355172Y-99219603D01*
X127519584Y-99186900D01*
X127687216Y-99186900D01*
X127851628Y-99219603D01*
X127851628Y-99219603D01*
G37*
G36*
X141151628Y-99219603D02*
G01*
X141306500Y-99283753D01*
X141445881Y-99376885D01*
X141564415Y-99495419D01*
X141657547Y-99634800D01*
X141721697Y-99789672D01*
X141754400Y-99954084D01*
X141754400Y-100121716D01*
X141721697Y-100286128D01*
X141657547Y-100441000D01*
X141564415Y-100580381D01*
X141445881Y-100698915D01*
X141306500Y-100792047D01*
X141151628Y-100856197D01*
X140987216Y-100888900D01*
X140819584Y-100888900D01*
X140655172Y-100856197D01*
X140500300Y-100792047D01*
X140360919Y-100698915D01*
X140242385Y-100580381D01*
X140149253Y-100441000D01*
X140085103Y-100286128D01*
X140052400Y-100121716D01*
X140052400Y-99954084D01*
X140085103Y-99789672D01*
X140149253Y-99634800D01*
X140242385Y-99495419D01*
X140360919Y-99376885D01*
X140500300Y-99283753D01*
X140655172Y-99219603D01*
X140819584Y-99186900D01*
X140987216Y-99186900D01*
X141151628Y-99219603D01*
X141151628Y-99219603D01*
G37*
G36*
X150341628Y-96679603D02*
G01*
X150496500Y-96743753D01*
X150635881Y-96836885D01*
X150754415Y-96955419D01*
X150847547Y-97094800D01*
X150911697Y-97249672D01*
X150944400Y-97414084D01*
X150944400Y-97581716D01*
X150911697Y-97746128D01*
X150847547Y-97901000D01*
X150754415Y-98040381D01*
X150635881Y-98158915D01*
X150496500Y-98252047D01*
X150341628Y-98316197D01*
X150177216Y-98348900D01*
X150009584Y-98348900D01*
X149845172Y-98316197D01*
X149690300Y-98252047D01*
X149550919Y-98158915D01*
X149432385Y-98040381D01*
X149339253Y-97901000D01*
X149275103Y-97746128D01*
X149242400Y-97581716D01*
X149242400Y-97414084D01*
X149275103Y-97249672D01*
X149339253Y-97094800D01*
X149432385Y-96955419D01*
X149550919Y-96836885D01*
X149690300Y-96743753D01*
X149845172Y-96679603D01*
X150009584Y-96646900D01*
X150177216Y-96646900D01*
X150341628Y-96679603D01*
X150341628Y-96679603D01*
G37*
G36*
X95201628Y-96679603D02*
G01*
X95356500Y-96743753D01*
X95495881Y-96836885D01*
X95614415Y-96955419D01*
X95707547Y-97094800D01*
X95771697Y-97249672D01*
X95804400Y-97414084D01*
X95804400Y-97581716D01*
X95771697Y-97746128D01*
X95707547Y-97901000D01*
X95614415Y-98040381D01*
X95495881Y-98158915D01*
X95356500Y-98252047D01*
X95201628Y-98316197D01*
X95037216Y-98348900D01*
X94869584Y-98348900D01*
X94705172Y-98316197D01*
X94550300Y-98252047D01*
X94410919Y-98158915D01*
X94292385Y-98040381D01*
X94199253Y-97901000D01*
X94135103Y-97746128D01*
X94102400Y-97581716D01*
X94102400Y-97414084D01*
X94135103Y-97249672D01*
X94199253Y-97094800D01*
X94292385Y-96955419D01*
X94410919Y-96836885D01*
X94550300Y-96743753D01*
X94705172Y-96679603D01*
X94869584Y-96646900D01*
X95037216Y-96646900D01*
X95201628Y-96679603D01*
X95201628Y-96679603D01*
G37*
G36*
X122771628Y-96679603D02*
G01*
X122926500Y-96743753D01*
X123065881Y-96836885D01*
X123184415Y-96955419D01*
X123277547Y-97094800D01*
X123341697Y-97249672D01*
X123374400Y-97414084D01*
X123374400Y-97581716D01*
X123341697Y-97746128D01*
X123277547Y-97901000D01*
X123184415Y-98040381D01*
X123065881Y-98158915D01*
X122926500Y-98252047D01*
X122771628Y-98316197D01*
X122607216Y-98348900D01*
X122439584Y-98348900D01*
X122275172Y-98316197D01*
X122120300Y-98252047D01*
X121980919Y-98158915D01*
X121862385Y-98040381D01*
X121769253Y-97901000D01*
X121705103Y-97746128D01*
X121672400Y-97581716D01*
X121672400Y-97414084D01*
X121705103Y-97249672D01*
X121769253Y-97094800D01*
X121862385Y-96955419D01*
X121980919Y-96836885D01*
X122120300Y-96743753D01*
X122275172Y-96679603D01*
X122439584Y-96646900D01*
X122607216Y-96646900D01*
X122771628Y-96679603D01*
X122771628Y-96679603D01*
G37*
G36*
X137041628Y-96679603D02*
G01*
X137196500Y-96743753D01*
X137335881Y-96836885D01*
X137454415Y-96955419D01*
X137547547Y-97094800D01*
X137611697Y-97249672D01*
X137644400Y-97414084D01*
X137644400Y-97581716D01*
X137611697Y-97746128D01*
X137547547Y-97901000D01*
X137454415Y-98040381D01*
X137335881Y-98158915D01*
X137196500Y-98252047D01*
X137041628Y-98316197D01*
X136877216Y-98348900D01*
X136709584Y-98348900D01*
X136545172Y-98316197D01*
X136390300Y-98252047D01*
X136250919Y-98158915D01*
X136132385Y-98040381D01*
X136039253Y-97901000D01*
X135975103Y-97746128D01*
X135942400Y-97581716D01*
X135942400Y-97414084D01*
X135975103Y-97249672D01*
X136039253Y-97094800D01*
X136132385Y-96955419D01*
X136250919Y-96836885D01*
X136390300Y-96743753D01*
X136545172Y-96679603D01*
X136709584Y-96646900D01*
X136877216Y-96646900D01*
X137041628Y-96679603D01*
X137041628Y-96679603D01*
G37*
G36*
X131961628Y-96679603D02*
G01*
X132116500Y-96743753D01*
X132255881Y-96836885D01*
X132374415Y-96955419D01*
X132467547Y-97094800D01*
X132531697Y-97249672D01*
X132564400Y-97414084D01*
X132564400Y-97581716D01*
X132531697Y-97746128D01*
X132467547Y-97901000D01*
X132374415Y-98040381D01*
X132255881Y-98158915D01*
X132116500Y-98252047D01*
X131961628Y-98316197D01*
X131797216Y-98348900D01*
X131629584Y-98348900D01*
X131465172Y-98316197D01*
X131310300Y-98252047D01*
X131170919Y-98158915D01*
X131052385Y-98040381D01*
X130959253Y-97901000D01*
X130895103Y-97746128D01*
X130862400Y-97581716D01*
X130862400Y-97414084D01*
X130895103Y-97249672D01*
X130959253Y-97094800D01*
X131052385Y-96955419D01*
X131170919Y-96836885D01*
X131310300Y-96743753D01*
X131465172Y-96679603D01*
X131629584Y-96646900D01*
X131797216Y-96646900D01*
X131961628Y-96679603D01*
X131961628Y-96679603D01*
G37*
G36*
X155421628Y-96679603D02*
G01*
X155576500Y-96743753D01*
X155715881Y-96836885D01*
X155834415Y-96955419D01*
X155927547Y-97094800D01*
X155991697Y-97249672D01*
X156024400Y-97414084D01*
X156024400Y-97581716D01*
X155991697Y-97746128D01*
X155927547Y-97901000D01*
X155834415Y-98040381D01*
X155715881Y-98158915D01*
X155576500Y-98252047D01*
X155421628Y-98316197D01*
X155257216Y-98348900D01*
X155089584Y-98348900D01*
X154925172Y-98316197D01*
X154770300Y-98252047D01*
X154630919Y-98158915D01*
X154512385Y-98040381D01*
X154419253Y-97901000D01*
X154355103Y-97746128D01*
X154322400Y-97581716D01*
X154322400Y-97414084D01*
X154355103Y-97249672D01*
X154419253Y-97094800D01*
X154512385Y-96955419D01*
X154630919Y-96836885D01*
X154770300Y-96743753D01*
X154925172Y-96679603D01*
X155089584Y-96646900D01*
X155257216Y-96646900D01*
X155421628Y-96679603D01*
X155421628Y-96679603D01*
G37*
G36*
X146231628Y-96679603D02*
G01*
X146386500Y-96743753D01*
X146525881Y-96836885D01*
X146644415Y-96955419D01*
X146737547Y-97094800D01*
X146801697Y-97249672D01*
X146834400Y-97414084D01*
X146834400Y-97581716D01*
X146801697Y-97746128D01*
X146737547Y-97901000D01*
X146644415Y-98040381D01*
X146525881Y-98158915D01*
X146386500Y-98252047D01*
X146231628Y-98316197D01*
X146067216Y-98348900D01*
X145899584Y-98348900D01*
X145735172Y-98316197D01*
X145580300Y-98252047D01*
X145440919Y-98158915D01*
X145322385Y-98040381D01*
X145229253Y-97901000D01*
X145165103Y-97746128D01*
X145132400Y-97581716D01*
X145132400Y-97414084D01*
X145165103Y-97249672D01*
X145229253Y-97094800D01*
X145322385Y-96955419D01*
X145440919Y-96836885D01*
X145580300Y-96743753D01*
X145735172Y-96679603D01*
X145899584Y-96646900D01*
X146067216Y-96646900D01*
X146231628Y-96679603D01*
X146231628Y-96679603D01*
G37*
G36*
X104391628Y-96679603D02*
G01*
X104546500Y-96743753D01*
X104685881Y-96836885D01*
X104804415Y-96955419D01*
X104897547Y-97094800D01*
X104961697Y-97249672D01*
X104994400Y-97414084D01*
X104994400Y-97581716D01*
X104961697Y-97746128D01*
X104897547Y-97901000D01*
X104804415Y-98040381D01*
X104685881Y-98158915D01*
X104546500Y-98252047D01*
X104391628Y-98316197D01*
X104227216Y-98348900D01*
X104059584Y-98348900D01*
X103895172Y-98316197D01*
X103740300Y-98252047D01*
X103600919Y-98158915D01*
X103482385Y-98040381D01*
X103389253Y-97901000D01*
X103325103Y-97746128D01*
X103292400Y-97581716D01*
X103292400Y-97414084D01*
X103325103Y-97249672D01*
X103389253Y-97094800D01*
X103482385Y-96955419D01*
X103600919Y-96836885D01*
X103740300Y-96743753D01*
X103895172Y-96679603D01*
X104059584Y-96646900D01*
X104227216Y-96646900D01*
X104391628Y-96679603D01*
X104391628Y-96679603D01*
G37*
G36*
X141151628Y-96679603D02*
G01*
X141306500Y-96743753D01*
X141445881Y-96836885D01*
X141564415Y-96955419D01*
X141657547Y-97094800D01*
X141721697Y-97249672D01*
X141754400Y-97414084D01*
X141754400Y-97581716D01*
X141721697Y-97746128D01*
X141657547Y-97901000D01*
X141564415Y-98040381D01*
X141445881Y-98158915D01*
X141306500Y-98252047D01*
X141151628Y-98316197D01*
X140987216Y-98348900D01*
X140819584Y-98348900D01*
X140655172Y-98316197D01*
X140500300Y-98252047D01*
X140360919Y-98158915D01*
X140242385Y-98040381D01*
X140149253Y-97901000D01*
X140085103Y-97746128D01*
X140052400Y-97581716D01*
X140052400Y-97414084D01*
X140085103Y-97249672D01*
X140149253Y-97094800D01*
X140242385Y-96955419D01*
X140360919Y-96836885D01*
X140500300Y-96743753D01*
X140655172Y-96679603D01*
X140819584Y-96646900D01*
X140987216Y-96646900D01*
X141151628Y-96679603D01*
X141151628Y-96679603D01*
G37*
G36*
X109471628Y-96679603D02*
G01*
X109626500Y-96743753D01*
X109765881Y-96836885D01*
X109884415Y-96955419D01*
X109977547Y-97094800D01*
X110041697Y-97249672D01*
X110074400Y-97414084D01*
X110074400Y-97581716D01*
X110041697Y-97746128D01*
X109977547Y-97901000D01*
X109884415Y-98040381D01*
X109765881Y-98158915D01*
X109626500Y-98252047D01*
X109471628Y-98316197D01*
X109307216Y-98348900D01*
X109139584Y-98348900D01*
X108975172Y-98316197D01*
X108820300Y-98252047D01*
X108680919Y-98158915D01*
X108562385Y-98040381D01*
X108469253Y-97901000D01*
X108405103Y-97746128D01*
X108372400Y-97581716D01*
X108372400Y-97414084D01*
X108405103Y-97249672D01*
X108469253Y-97094800D01*
X108562385Y-96955419D01*
X108680919Y-96836885D01*
X108820300Y-96743753D01*
X108975172Y-96679603D01*
X109139584Y-96646900D01*
X109307216Y-96646900D01*
X109471628Y-96679603D01*
X109471628Y-96679603D01*
G37*
G36*
X100281628Y-96679603D02*
G01*
X100436500Y-96743753D01*
X100575881Y-96836885D01*
X100694415Y-96955419D01*
X100787547Y-97094800D01*
X100851697Y-97249672D01*
X100884400Y-97414084D01*
X100884400Y-97581716D01*
X100851697Y-97746128D01*
X100787547Y-97901000D01*
X100694415Y-98040381D01*
X100575881Y-98158915D01*
X100436500Y-98252047D01*
X100281628Y-98316197D01*
X100117216Y-98348900D01*
X99949584Y-98348900D01*
X99785172Y-98316197D01*
X99630300Y-98252047D01*
X99490919Y-98158915D01*
X99372385Y-98040381D01*
X99279253Y-97901000D01*
X99215103Y-97746128D01*
X99182400Y-97581716D01*
X99182400Y-97414084D01*
X99215103Y-97249672D01*
X99279253Y-97094800D01*
X99372385Y-96955419D01*
X99490919Y-96836885D01*
X99630300Y-96743753D01*
X99785172Y-96679603D01*
X99949584Y-96646900D01*
X100117216Y-96646900D01*
X100281628Y-96679603D01*
X100281628Y-96679603D01*
G37*
G36*
X159531628Y-96679603D02*
G01*
X159686500Y-96743753D01*
X159825881Y-96836885D01*
X159944415Y-96955419D01*
X160037547Y-97094800D01*
X160101697Y-97249672D01*
X160134400Y-97414084D01*
X160134400Y-97581716D01*
X160101697Y-97746128D01*
X160037547Y-97901000D01*
X159944415Y-98040381D01*
X159825881Y-98158915D01*
X159686500Y-98252047D01*
X159531628Y-98316197D01*
X159367216Y-98348900D01*
X159199584Y-98348900D01*
X159035172Y-98316197D01*
X158880300Y-98252047D01*
X158740919Y-98158915D01*
X158622385Y-98040381D01*
X158529253Y-97901000D01*
X158465103Y-97746128D01*
X158432400Y-97581716D01*
X158432400Y-97414084D01*
X158465103Y-97249672D01*
X158529253Y-97094800D01*
X158622385Y-96955419D01*
X158740919Y-96836885D01*
X158880300Y-96743753D01*
X159035172Y-96679603D01*
X159199584Y-96646900D01*
X159367216Y-96646900D01*
X159531628Y-96679603D01*
X159531628Y-96679603D01*
G37*
G36*
X81901628Y-96679603D02*
G01*
X82056500Y-96743753D01*
X82195881Y-96836885D01*
X82314415Y-96955419D01*
X82407547Y-97094800D01*
X82471697Y-97249672D01*
X82504400Y-97414084D01*
X82504400Y-97581716D01*
X82471697Y-97746128D01*
X82407547Y-97901000D01*
X82314415Y-98040381D01*
X82195881Y-98158915D01*
X82056500Y-98252047D01*
X81901628Y-98316197D01*
X81737216Y-98348900D01*
X81569584Y-98348900D01*
X81405172Y-98316197D01*
X81250300Y-98252047D01*
X81110919Y-98158915D01*
X80992385Y-98040381D01*
X80899253Y-97901000D01*
X80835103Y-97746128D01*
X80802400Y-97581716D01*
X80802400Y-97414084D01*
X80835103Y-97249672D01*
X80899253Y-97094800D01*
X80992385Y-96955419D01*
X81110919Y-96836885D01*
X81250300Y-96743753D01*
X81405172Y-96679603D01*
X81569584Y-96646900D01*
X81737216Y-96646900D01*
X81901628Y-96679603D01*
X81901628Y-96679603D01*
G37*
G36*
X118661628Y-96679603D02*
G01*
X118816500Y-96743753D01*
X118955881Y-96836885D01*
X119074415Y-96955419D01*
X119167547Y-97094800D01*
X119231697Y-97249672D01*
X119264400Y-97414084D01*
X119264400Y-97581716D01*
X119231697Y-97746128D01*
X119167547Y-97901000D01*
X119074415Y-98040381D01*
X118955881Y-98158915D01*
X118816500Y-98252047D01*
X118661628Y-98316197D01*
X118497216Y-98348900D01*
X118329584Y-98348900D01*
X118165172Y-98316197D01*
X118010300Y-98252047D01*
X117870919Y-98158915D01*
X117752385Y-98040381D01*
X117659253Y-97901000D01*
X117595103Y-97746128D01*
X117562400Y-97581716D01*
X117562400Y-97414084D01*
X117595103Y-97249672D01*
X117659253Y-97094800D01*
X117752385Y-96955419D01*
X117870919Y-96836885D01*
X118010300Y-96743753D01*
X118165172Y-96679603D01*
X118329584Y-96646900D01*
X118497216Y-96646900D01*
X118661628Y-96679603D01*
X118661628Y-96679603D01*
G37*
G36*
X127851628Y-96679603D02*
G01*
X128006500Y-96743753D01*
X128145881Y-96836885D01*
X128264415Y-96955419D01*
X128357547Y-97094800D01*
X128421697Y-97249672D01*
X128454400Y-97414084D01*
X128454400Y-97581716D01*
X128421697Y-97746128D01*
X128357547Y-97901000D01*
X128264415Y-98040381D01*
X128145881Y-98158915D01*
X128006500Y-98252047D01*
X127851628Y-98316197D01*
X127687216Y-98348900D01*
X127519584Y-98348900D01*
X127355172Y-98316197D01*
X127200300Y-98252047D01*
X127060919Y-98158915D01*
X126942385Y-98040381D01*
X126849253Y-97901000D01*
X126785103Y-97746128D01*
X126752400Y-97581716D01*
X126752400Y-97414084D01*
X126785103Y-97249672D01*
X126849253Y-97094800D01*
X126942385Y-96955419D01*
X127060919Y-96836885D01*
X127200300Y-96743753D01*
X127355172Y-96679603D01*
X127519584Y-96646900D01*
X127687216Y-96646900D01*
X127851628Y-96679603D01*
X127851628Y-96679603D01*
G37*
G36*
X113581628Y-96679603D02*
G01*
X113736500Y-96743753D01*
X113875881Y-96836885D01*
X113994415Y-96955419D01*
X114087547Y-97094800D01*
X114151697Y-97249672D01*
X114184400Y-97414084D01*
X114184400Y-97581716D01*
X114151697Y-97746128D01*
X114087547Y-97901000D01*
X113994415Y-98040381D01*
X113875881Y-98158915D01*
X113736500Y-98252047D01*
X113581628Y-98316197D01*
X113417216Y-98348900D01*
X113249584Y-98348900D01*
X113085172Y-98316197D01*
X112930300Y-98252047D01*
X112790919Y-98158915D01*
X112672385Y-98040381D01*
X112579253Y-97901000D01*
X112515103Y-97746128D01*
X112482400Y-97581716D01*
X112482400Y-97414084D01*
X112515103Y-97249672D01*
X112579253Y-97094800D01*
X112672385Y-96955419D01*
X112790919Y-96836885D01*
X112930300Y-96743753D01*
X113085172Y-96679603D01*
X113249584Y-96646900D01*
X113417216Y-96646900D01*
X113581628Y-96679603D01*
X113581628Y-96679603D01*
G37*
G36*
X76821628Y-96679603D02*
G01*
X76976500Y-96743753D01*
X77115881Y-96836885D01*
X77234415Y-96955419D01*
X77327547Y-97094800D01*
X77391697Y-97249672D01*
X77424400Y-97414084D01*
X77424400Y-97581716D01*
X77391697Y-97746128D01*
X77327547Y-97901000D01*
X77234415Y-98040381D01*
X77115881Y-98158915D01*
X76976500Y-98252047D01*
X76821628Y-98316197D01*
X76657216Y-98348900D01*
X76489584Y-98348900D01*
X76325172Y-98316197D01*
X76170300Y-98252047D01*
X76030919Y-98158915D01*
X75912385Y-98040381D01*
X75819253Y-97901000D01*
X75755103Y-97746128D01*
X75722400Y-97581716D01*
X75722400Y-97414084D01*
X75755103Y-97249672D01*
X75819253Y-97094800D01*
X75912385Y-96955419D01*
X76030919Y-96836885D01*
X76170300Y-96743753D01*
X76325172Y-96679603D01*
X76489584Y-96646900D01*
X76657216Y-96646900D01*
X76821628Y-96679603D01*
X76821628Y-96679603D01*
G37*
G36*
X91091628Y-96679603D02*
G01*
X91246500Y-96743753D01*
X91385881Y-96836885D01*
X91504415Y-96955419D01*
X91597547Y-97094800D01*
X91661697Y-97249672D01*
X91694400Y-97414084D01*
X91694400Y-97581716D01*
X91661697Y-97746128D01*
X91597547Y-97901000D01*
X91504415Y-98040381D01*
X91385881Y-98158915D01*
X91246500Y-98252047D01*
X91091628Y-98316197D01*
X90927216Y-98348900D01*
X90759584Y-98348900D01*
X90595172Y-98316197D01*
X90440300Y-98252047D01*
X90300919Y-98158915D01*
X90182385Y-98040381D01*
X90089253Y-97901000D01*
X90025103Y-97746128D01*
X89992400Y-97581716D01*
X89992400Y-97414084D01*
X90025103Y-97249672D01*
X90089253Y-97094800D01*
X90182385Y-96955419D01*
X90300919Y-96836885D01*
X90440300Y-96743753D01*
X90595172Y-96679603D01*
X90759584Y-96646900D01*
X90927216Y-96646900D01*
X91091628Y-96679603D01*
X91091628Y-96679603D01*
G37*
G36*
X164611628Y-96679603D02*
G01*
X164766500Y-96743753D01*
X164905881Y-96836885D01*
X165024415Y-96955419D01*
X165117547Y-97094800D01*
X165181697Y-97249672D01*
X165214400Y-97414084D01*
X165214400Y-97581716D01*
X165181697Y-97746128D01*
X165117547Y-97901000D01*
X165024415Y-98040381D01*
X164905881Y-98158915D01*
X164766500Y-98252047D01*
X164611628Y-98316197D01*
X164447216Y-98348900D01*
X164279584Y-98348900D01*
X164115172Y-98316197D01*
X163960300Y-98252047D01*
X163820919Y-98158915D01*
X163702385Y-98040381D01*
X163609253Y-97901000D01*
X163545103Y-97746128D01*
X163512400Y-97581716D01*
X163512400Y-97414084D01*
X163545103Y-97249672D01*
X163609253Y-97094800D01*
X163702385Y-96955419D01*
X163820919Y-96836885D01*
X163960300Y-96743753D01*
X164115172Y-96679603D01*
X164279584Y-96646900D01*
X164447216Y-96646900D01*
X164611628Y-96679603D01*
X164611628Y-96679603D01*
G37*
G36*
X86011628Y-96679603D02*
G01*
X86166500Y-96743753D01*
X86305881Y-96836885D01*
X86424415Y-96955419D01*
X86517547Y-97094800D01*
X86581697Y-97249672D01*
X86614400Y-97414084D01*
X86614400Y-97581716D01*
X86581697Y-97746128D01*
X86517547Y-97901000D01*
X86424415Y-98040381D01*
X86305881Y-98158915D01*
X86166500Y-98252047D01*
X86011628Y-98316197D01*
X85847216Y-98348900D01*
X85679584Y-98348900D01*
X85515172Y-98316197D01*
X85360300Y-98252047D01*
X85220919Y-98158915D01*
X85102385Y-98040381D01*
X85009253Y-97901000D01*
X84945103Y-97746128D01*
X84912400Y-97581716D01*
X84912400Y-97414084D01*
X84945103Y-97249672D01*
X85009253Y-97094800D01*
X85102385Y-96955419D01*
X85220919Y-96836885D01*
X85360300Y-96743753D01*
X85515172Y-96679603D01*
X85679584Y-96646900D01*
X85847216Y-96646900D01*
X86011628Y-96679603D01*
X86011628Y-96679603D01*
G37*
G36*
X86011628Y-94139603D02*
G01*
X86166500Y-94203753D01*
X86305881Y-94296885D01*
X86424415Y-94415419D01*
X86517547Y-94554800D01*
X86581697Y-94709672D01*
X86614400Y-94874084D01*
X86614400Y-95041716D01*
X86581697Y-95206128D01*
X86517547Y-95361000D01*
X86424415Y-95500381D01*
X86305881Y-95618915D01*
X86166500Y-95712047D01*
X86011628Y-95776197D01*
X85847216Y-95808900D01*
X85679584Y-95808900D01*
X85515172Y-95776197D01*
X85360300Y-95712047D01*
X85220919Y-95618915D01*
X85102385Y-95500381D01*
X85009253Y-95361000D01*
X84945103Y-95206128D01*
X84912400Y-95041716D01*
X84912400Y-94874084D01*
X84945103Y-94709672D01*
X85009253Y-94554800D01*
X85102385Y-94415419D01*
X85220919Y-94296885D01*
X85360300Y-94203753D01*
X85515172Y-94139603D01*
X85679584Y-94106900D01*
X85847216Y-94106900D01*
X86011628Y-94139603D01*
X86011628Y-94139603D01*
G37*
G36*
X76821628Y-94139603D02*
G01*
X76976500Y-94203753D01*
X77115881Y-94296885D01*
X77234415Y-94415419D01*
X77327547Y-94554800D01*
X77391697Y-94709672D01*
X77424400Y-94874084D01*
X77424400Y-95041716D01*
X77391697Y-95206128D01*
X77327547Y-95361000D01*
X77234415Y-95500381D01*
X77115881Y-95618915D01*
X76976500Y-95712047D01*
X76821628Y-95776197D01*
X76657216Y-95808900D01*
X76489584Y-95808900D01*
X76325172Y-95776197D01*
X76170300Y-95712047D01*
X76030919Y-95618915D01*
X75912385Y-95500381D01*
X75819253Y-95361000D01*
X75755103Y-95206128D01*
X75722400Y-95041716D01*
X75722400Y-94874084D01*
X75755103Y-94709672D01*
X75819253Y-94554800D01*
X75912385Y-94415419D01*
X76030919Y-94296885D01*
X76170300Y-94203753D01*
X76325172Y-94139603D01*
X76489584Y-94106900D01*
X76657216Y-94106900D01*
X76821628Y-94139603D01*
X76821628Y-94139603D01*
G37*
G36*
X91091628Y-94139603D02*
G01*
X91246500Y-94203753D01*
X91385881Y-94296885D01*
X91504415Y-94415419D01*
X91597547Y-94554800D01*
X91661697Y-94709672D01*
X91694400Y-94874084D01*
X91694400Y-95041716D01*
X91661697Y-95206128D01*
X91597547Y-95361000D01*
X91504415Y-95500381D01*
X91385881Y-95618915D01*
X91246500Y-95712047D01*
X91091628Y-95776197D01*
X90927216Y-95808900D01*
X90759584Y-95808900D01*
X90595172Y-95776197D01*
X90440300Y-95712047D01*
X90300919Y-95618915D01*
X90182385Y-95500381D01*
X90089253Y-95361000D01*
X90025103Y-95206128D01*
X89992400Y-95041716D01*
X89992400Y-94874084D01*
X90025103Y-94709672D01*
X90089253Y-94554800D01*
X90182385Y-94415419D01*
X90300919Y-94296885D01*
X90440300Y-94203753D01*
X90595172Y-94139603D01*
X90759584Y-94106900D01*
X90927216Y-94106900D01*
X91091628Y-94139603D01*
X91091628Y-94139603D01*
G37*
G36*
X95201628Y-94139603D02*
G01*
X95356500Y-94203753D01*
X95495881Y-94296885D01*
X95614415Y-94415419D01*
X95707547Y-94554800D01*
X95771697Y-94709672D01*
X95804400Y-94874084D01*
X95804400Y-95041716D01*
X95771697Y-95206128D01*
X95707547Y-95361000D01*
X95614415Y-95500381D01*
X95495881Y-95618915D01*
X95356500Y-95712047D01*
X95201628Y-95776197D01*
X95037216Y-95808900D01*
X94869584Y-95808900D01*
X94705172Y-95776197D01*
X94550300Y-95712047D01*
X94410919Y-95618915D01*
X94292385Y-95500381D01*
X94199253Y-95361000D01*
X94135103Y-95206128D01*
X94102400Y-95041716D01*
X94102400Y-94874084D01*
X94135103Y-94709672D01*
X94199253Y-94554800D01*
X94292385Y-94415419D01*
X94410919Y-94296885D01*
X94550300Y-94203753D01*
X94705172Y-94139603D01*
X94869584Y-94106900D01*
X95037216Y-94106900D01*
X95201628Y-94139603D01*
X95201628Y-94139603D01*
G37*
G36*
X100281628Y-94139603D02*
G01*
X100436500Y-94203753D01*
X100575881Y-94296885D01*
X100694415Y-94415419D01*
X100787547Y-94554800D01*
X100851697Y-94709672D01*
X100884400Y-94874084D01*
X100884400Y-95041716D01*
X100851697Y-95206128D01*
X100787547Y-95361000D01*
X100694415Y-95500381D01*
X100575881Y-95618915D01*
X100436500Y-95712047D01*
X100281628Y-95776197D01*
X100117216Y-95808900D01*
X99949584Y-95808900D01*
X99785172Y-95776197D01*
X99630300Y-95712047D01*
X99490919Y-95618915D01*
X99372385Y-95500381D01*
X99279253Y-95361000D01*
X99215103Y-95206128D01*
X99182400Y-95041716D01*
X99182400Y-94874084D01*
X99215103Y-94709672D01*
X99279253Y-94554800D01*
X99372385Y-94415419D01*
X99490919Y-94296885D01*
X99630300Y-94203753D01*
X99785172Y-94139603D01*
X99949584Y-94106900D01*
X100117216Y-94106900D01*
X100281628Y-94139603D01*
X100281628Y-94139603D01*
G37*
G36*
X122771628Y-94139603D02*
G01*
X122926500Y-94203753D01*
X123065881Y-94296885D01*
X123184415Y-94415419D01*
X123277547Y-94554800D01*
X123341697Y-94709672D01*
X123374400Y-94874084D01*
X123374400Y-95041716D01*
X123341697Y-95206128D01*
X123277547Y-95361000D01*
X123184415Y-95500381D01*
X123065881Y-95618915D01*
X122926500Y-95712047D01*
X122771628Y-95776197D01*
X122607216Y-95808900D01*
X122439584Y-95808900D01*
X122275172Y-95776197D01*
X122120300Y-95712047D01*
X121980919Y-95618915D01*
X121862385Y-95500381D01*
X121769253Y-95361000D01*
X121705103Y-95206128D01*
X121672400Y-95041716D01*
X121672400Y-94874084D01*
X121705103Y-94709672D01*
X121769253Y-94554800D01*
X121862385Y-94415419D01*
X121980919Y-94296885D01*
X122120300Y-94203753D01*
X122275172Y-94139603D01*
X122439584Y-94106900D01*
X122607216Y-94106900D01*
X122771628Y-94139603D01*
X122771628Y-94139603D01*
G37*
G36*
X127851628Y-94139603D02*
G01*
X128006500Y-94203753D01*
X128145881Y-94296885D01*
X128264415Y-94415419D01*
X128357547Y-94554800D01*
X128421697Y-94709672D01*
X128454400Y-94874084D01*
X128454400Y-95041716D01*
X128421697Y-95206128D01*
X128357547Y-95361000D01*
X128264415Y-95500381D01*
X128145881Y-95618915D01*
X128006500Y-95712047D01*
X127851628Y-95776197D01*
X127687216Y-95808900D01*
X127519584Y-95808900D01*
X127355172Y-95776197D01*
X127200300Y-95712047D01*
X127060919Y-95618915D01*
X126942385Y-95500381D01*
X126849253Y-95361000D01*
X126785103Y-95206128D01*
X126752400Y-95041716D01*
X126752400Y-94874084D01*
X126785103Y-94709672D01*
X126849253Y-94554800D01*
X126942385Y-94415419D01*
X127060919Y-94296885D01*
X127200300Y-94203753D01*
X127355172Y-94139603D01*
X127519584Y-94106900D01*
X127687216Y-94106900D01*
X127851628Y-94139603D01*
X127851628Y-94139603D01*
G37*
G36*
X131961628Y-94139603D02*
G01*
X132116500Y-94203753D01*
X132255881Y-94296885D01*
X132374415Y-94415419D01*
X132467547Y-94554800D01*
X132531697Y-94709672D01*
X132564400Y-94874084D01*
X132564400Y-95041716D01*
X132531697Y-95206128D01*
X132467547Y-95361000D01*
X132374415Y-95500381D01*
X132255881Y-95618915D01*
X132116500Y-95712047D01*
X131961628Y-95776197D01*
X131797216Y-95808900D01*
X131629584Y-95808900D01*
X131465172Y-95776197D01*
X131310300Y-95712047D01*
X131170919Y-95618915D01*
X131052385Y-95500381D01*
X130959253Y-95361000D01*
X130895103Y-95206128D01*
X130862400Y-95041716D01*
X130862400Y-94874084D01*
X130895103Y-94709672D01*
X130959253Y-94554800D01*
X131052385Y-94415419D01*
X131170919Y-94296885D01*
X131310300Y-94203753D01*
X131465172Y-94139603D01*
X131629584Y-94106900D01*
X131797216Y-94106900D01*
X131961628Y-94139603D01*
X131961628Y-94139603D01*
G37*
G36*
X137041628Y-94139603D02*
G01*
X137196500Y-94203753D01*
X137335881Y-94296885D01*
X137454415Y-94415419D01*
X137547547Y-94554800D01*
X137611697Y-94709672D01*
X137644400Y-94874084D01*
X137644400Y-95041716D01*
X137611697Y-95206128D01*
X137547547Y-95361000D01*
X137454415Y-95500381D01*
X137335881Y-95618915D01*
X137196500Y-95712047D01*
X137041628Y-95776197D01*
X136877216Y-95808900D01*
X136709584Y-95808900D01*
X136545172Y-95776197D01*
X136390300Y-95712047D01*
X136250919Y-95618915D01*
X136132385Y-95500381D01*
X136039253Y-95361000D01*
X135975103Y-95206128D01*
X135942400Y-95041716D01*
X135942400Y-94874084D01*
X135975103Y-94709672D01*
X136039253Y-94554800D01*
X136132385Y-94415419D01*
X136250919Y-94296885D01*
X136390300Y-94203753D01*
X136545172Y-94139603D01*
X136709584Y-94106900D01*
X136877216Y-94106900D01*
X137041628Y-94139603D01*
X137041628Y-94139603D01*
G37*
G36*
X141151628Y-94139603D02*
G01*
X141306500Y-94203753D01*
X141445881Y-94296885D01*
X141564415Y-94415419D01*
X141657547Y-94554800D01*
X141721697Y-94709672D01*
X141754400Y-94874084D01*
X141754400Y-95041716D01*
X141721697Y-95206128D01*
X141657547Y-95361000D01*
X141564415Y-95500381D01*
X141445881Y-95618915D01*
X141306500Y-95712047D01*
X141151628Y-95776197D01*
X140987216Y-95808900D01*
X140819584Y-95808900D01*
X140655172Y-95776197D01*
X140500300Y-95712047D01*
X140360919Y-95618915D01*
X140242385Y-95500381D01*
X140149253Y-95361000D01*
X140085103Y-95206128D01*
X140052400Y-95041716D01*
X140052400Y-94874084D01*
X140085103Y-94709672D01*
X140149253Y-94554800D01*
X140242385Y-94415419D01*
X140360919Y-94296885D01*
X140500300Y-94203753D01*
X140655172Y-94139603D01*
X140819584Y-94106900D01*
X140987216Y-94106900D01*
X141151628Y-94139603D01*
X141151628Y-94139603D01*
G37*
G36*
X104391628Y-94139603D02*
G01*
X104546500Y-94203753D01*
X104685881Y-94296885D01*
X104804415Y-94415419D01*
X104897547Y-94554800D01*
X104961697Y-94709672D01*
X104994400Y-94874084D01*
X104994400Y-95041716D01*
X104961697Y-95206128D01*
X104897547Y-95361000D01*
X104804415Y-95500381D01*
X104685881Y-95618915D01*
X104546500Y-95712047D01*
X104391628Y-95776197D01*
X104227216Y-95808900D01*
X104059584Y-95808900D01*
X103895172Y-95776197D01*
X103740300Y-95712047D01*
X103600919Y-95618915D01*
X103482385Y-95500381D01*
X103389253Y-95361000D01*
X103325103Y-95206128D01*
X103292400Y-95041716D01*
X103292400Y-94874084D01*
X103325103Y-94709672D01*
X103389253Y-94554800D01*
X103482385Y-94415419D01*
X103600919Y-94296885D01*
X103740300Y-94203753D01*
X103895172Y-94139603D01*
X104059584Y-94106900D01*
X104227216Y-94106900D01*
X104391628Y-94139603D01*
X104391628Y-94139603D01*
G37*
G36*
X109471628Y-94139603D02*
G01*
X109626500Y-94203753D01*
X109765881Y-94296885D01*
X109884415Y-94415419D01*
X109977547Y-94554800D01*
X110041697Y-94709672D01*
X110074400Y-94874084D01*
X110074400Y-95041716D01*
X110041697Y-95206128D01*
X109977547Y-95361000D01*
X109884415Y-95500381D01*
X109765881Y-95618915D01*
X109626500Y-95712047D01*
X109471628Y-95776197D01*
X109307216Y-95808900D01*
X109139584Y-95808900D01*
X108975172Y-95776197D01*
X108820300Y-95712047D01*
X108680919Y-95618915D01*
X108562385Y-95500381D01*
X108469253Y-95361000D01*
X108405103Y-95206128D01*
X108372400Y-95041716D01*
X108372400Y-94874084D01*
X108405103Y-94709672D01*
X108469253Y-94554800D01*
X108562385Y-94415419D01*
X108680919Y-94296885D01*
X108820300Y-94203753D01*
X108975172Y-94139603D01*
X109139584Y-94106900D01*
X109307216Y-94106900D01*
X109471628Y-94139603D01*
X109471628Y-94139603D01*
G37*
G36*
X146231628Y-94139603D02*
G01*
X146386500Y-94203753D01*
X146525881Y-94296885D01*
X146644415Y-94415419D01*
X146737547Y-94554800D01*
X146801697Y-94709672D01*
X146834400Y-94874084D01*
X146834400Y-95041716D01*
X146801697Y-95206128D01*
X146737547Y-95361000D01*
X146644415Y-95500381D01*
X146525881Y-95618915D01*
X146386500Y-95712047D01*
X146231628Y-95776197D01*
X146067216Y-95808900D01*
X145899584Y-95808900D01*
X145735172Y-95776197D01*
X145580300Y-95712047D01*
X145440919Y-95618915D01*
X145322385Y-95500381D01*
X145229253Y-95361000D01*
X145165103Y-95206128D01*
X145132400Y-95041716D01*
X145132400Y-94874084D01*
X145165103Y-94709672D01*
X145229253Y-94554800D01*
X145322385Y-94415419D01*
X145440919Y-94296885D01*
X145580300Y-94203753D01*
X145735172Y-94139603D01*
X145899584Y-94106900D01*
X146067216Y-94106900D01*
X146231628Y-94139603D01*
X146231628Y-94139603D01*
G37*
G36*
X150341628Y-94139603D02*
G01*
X150496500Y-94203753D01*
X150635881Y-94296885D01*
X150754415Y-94415419D01*
X150847547Y-94554800D01*
X150911697Y-94709672D01*
X150944400Y-94874084D01*
X150944400Y-95041716D01*
X150911697Y-95206128D01*
X150847547Y-95361000D01*
X150754415Y-95500381D01*
X150635881Y-95618915D01*
X150496500Y-95712047D01*
X150341628Y-95776197D01*
X150177216Y-95808900D01*
X150009584Y-95808900D01*
X149845172Y-95776197D01*
X149690300Y-95712047D01*
X149550919Y-95618915D01*
X149432385Y-95500381D01*
X149339253Y-95361000D01*
X149275103Y-95206128D01*
X149242400Y-95041716D01*
X149242400Y-94874084D01*
X149275103Y-94709672D01*
X149339253Y-94554800D01*
X149432385Y-94415419D01*
X149550919Y-94296885D01*
X149690300Y-94203753D01*
X149845172Y-94139603D01*
X150009584Y-94106900D01*
X150177216Y-94106900D01*
X150341628Y-94139603D01*
X150341628Y-94139603D01*
G37*
G36*
X155421628Y-94139603D02*
G01*
X155576500Y-94203753D01*
X155715881Y-94296885D01*
X155834415Y-94415419D01*
X155927547Y-94554800D01*
X155991697Y-94709672D01*
X156024400Y-94874084D01*
X156024400Y-95041716D01*
X155991697Y-95206128D01*
X155927547Y-95361000D01*
X155834415Y-95500381D01*
X155715881Y-95618915D01*
X155576500Y-95712047D01*
X155421628Y-95776197D01*
X155257216Y-95808900D01*
X155089584Y-95808900D01*
X154925172Y-95776197D01*
X154770300Y-95712047D01*
X154630919Y-95618915D01*
X154512385Y-95500381D01*
X154419253Y-95361000D01*
X154355103Y-95206128D01*
X154322400Y-95041716D01*
X154322400Y-94874084D01*
X154355103Y-94709672D01*
X154419253Y-94554800D01*
X154512385Y-94415419D01*
X154630919Y-94296885D01*
X154770300Y-94203753D01*
X154925172Y-94139603D01*
X155089584Y-94106900D01*
X155257216Y-94106900D01*
X155421628Y-94139603D01*
X155421628Y-94139603D01*
G37*
G36*
X159531628Y-94139603D02*
G01*
X159686500Y-94203753D01*
X159825881Y-94296885D01*
X159944415Y-94415419D01*
X160037547Y-94554800D01*
X160101697Y-94709672D01*
X160134400Y-94874084D01*
X160134400Y-95041716D01*
X160101697Y-95206128D01*
X160037547Y-95361000D01*
X159944415Y-95500381D01*
X159825881Y-95618915D01*
X159686500Y-95712047D01*
X159531628Y-95776197D01*
X159367216Y-95808900D01*
X159199584Y-95808900D01*
X159035172Y-95776197D01*
X158880300Y-95712047D01*
X158740919Y-95618915D01*
X158622385Y-95500381D01*
X158529253Y-95361000D01*
X158465103Y-95206128D01*
X158432400Y-95041716D01*
X158432400Y-94874084D01*
X158465103Y-94709672D01*
X158529253Y-94554800D01*
X158622385Y-94415419D01*
X158740919Y-94296885D01*
X158880300Y-94203753D01*
X159035172Y-94139603D01*
X159199584Y-94106900D01*
X159367216Y-94106900D01*
X159531628Y-94139603D01*
X159531628Y-94139603D01*
G37*
G36*
X113581628Y-94139603D02*
G01*
X113736500Y-94203753D01*
X113875881Y-94296885D01*
X113994415Y-94415419D01*
X114087547Y-94554800D01*
X114151697Y-94709672D01*
X114184400Y-94874084D01*
X114184400Y-95041716D01*
X114151697Y-95206128D01*
X114087547Y-95361000D01*
X113994415Y-95500381D01*
X113875881Y-95618915D01*
X113736500Y-95712047D01*
X113581628Y-95776197D01*
X113417216Y-95808900D01*
X113249584Y-95808900D01*
X113085172Y-95776197D01*
X112930300Y-95712047D01*
X112790919Y-95618915D01*
X112672385Y-95500381D01*
X112579253Y-95361000D01*
X112515103Y-95206128D01*
X112482400Y-95041716D01*
X112482400Y-94874084D01*
X112515103Y-94709672D01*
X112579253Y-94554800D01*
X112672385Y-94415419D01*
X112790919Y-94296885D01*
X112930300Y-94203753D01*
X113085172Y-94139603D01*
X113249584Y-94106900D01*
X113417216Y-94106900D01*
X113581628Y-94139603D01*
X113581628Y-94139603D01*
G37*
G36*
X81901628Y-94139603D02*
G01*
X82056500Y-94203753D01*
X82195881Y-94296885D01*
X82314415Y-94415419D01*
X82407547Y-94554800D01*
X82471697Y-94709672D01*
X82504400Y-94874084D01*
X82504400Y-95041716D01*
X82471697Y-95206128D01*
X82407547Y-95361000D01*
X82314415Y-95500381D01*
X82195881Y-95618915D01*
X82056500Y-95712047D01*
X81901628Y-95776197D01*
X81737216Y-95808900D01*
X81569584Y-95808900D01*
X81405172Y-95776197D01*
X81250300Y-95712047D01*
X81110919Y-95618915D01*
X80992385Y-95500381D01*
X80899253Y-95361000D01*
X80835103Y-95206128D01*
X80802400Y-95041716D01*
X80802400Y-94874084D01*
X80835103Y-94709672D01*
X80899253Y-94554800D01*
X80992385Y-94415419D01*
X81110919Y-94296885D01*
X81250300Y-94203753D01*
X81405172Y-94139603D01*
X81569584Y-94106900D01*
X81737216Y-94106900D01*
X81901628Y-94139603D01*
X81901628Y-94139603D01*
G37*
G36*
X164611628Y-94139603D02*
G01*
X164766500Y-94203753D01*
X164905881Y-94296885D01*
X165024415Y-94415419D01*
X165117547Y-94554800D01*
X165181697Y-94709672D01*
X165214400Y-94874084D01*
X165214400Y-95041716D01*
X165181697Y-95206128D01*
X165117547Y-95361000D01*
X165024415Y-95500381D01*
X164905881Y-95618915D01*
X164766500Y-95712047D01*
X164611628Y-95776197D01*
X164447216Y-95808900D01*
X164279584Y-95808900D01*
X164115172Y-95776197D01*
X163960300Y-95712047D01*
X163820919Y-95618915D01*
X163702385Y-95500381D01*
X163609253Y-95361000D01*
X163545103Y-95206128D01*
X163512400Y-95041716D01*
X163512400Y-94874084D01*
X163545103Y-94709672D01*
X163609253Y-94554800D01*
X163702385Y-94415419D01*
X163820919Y-94296885D01*
X163960300Y-94203753D01*
X164115172Y-94139603D01*
X164279584Y-94106900D01*
X164447216Y-94106900D01*
X164611628Y-94139603D01*
X164611628Y-94139603D01*
G37*
G36*
X118661628Y-94139603D02*
G01*
X118816500Y-94203753D01*
X118955881Y-94296885D01*
X119074415Y-94415419D01*
X119167547Y-94554800D01*
X119231697Y-94709672D01*
X119264400Y-94874084D01*
X119264400Y-95041716D01*
X119231697Y-95206128D01*
X119167547Y-95361000D01*
X119074415Y-95500381D01*
X118955881Y-95618915D01*
X118816500Y-95712047D01*
X118661628Y-95776197D01*
X118497216Y-95808900D01*
X118329584Y-95808900D01*
X118165172Y-95776197D01*
X118010300Y-95712047D01*
X117870919Y-95618915D01*
X117752385Y-95500381D01*
X117659253Y-95361000D01*
X117595103Y-95206128D01*
X117562400Y-95041716D01*
X117562400Y-94874084D01*
X117595103Y-94709672D01*
X117659253Y-94554800D01*
X117752385Y-94415419D01*
X117870919Y-94296885D01*
X118010300Y-94203753D01*
X118165172Y-94139603D01*
X118329584Y-94106900D01*
X118497216Y-94106900D01*
X118661628Y-94139603D01*
X118661628Y-94139603D01*
G37*
G36*
X131961628Y-91599603D02*
G01*
X132116500Y-91663753D01*
X132255881Y-91756885D01*
X132374415Y-91875419D01*
X132467547Y-92014800D01*
X132531697Y-92169672D01*
X132564400Y-92334084D01*
X132564400Y-92501716D01*
X132531697Y-92666128D01*
X132467547Y-92821000D01*
X132374415Y-92960381D01*
X132255881Y-93078915D01*
X132116500Y-93172047D01*
X131961628Y-93236197D01*
X131797216Y-93268900D01*
X131629584Y-93268900D01*
X131465172Y-93236197D01*
X131310300Y-93172047D01*
X131170919Y-93078915D01*
X131052385Y-92960381D01*
X130959253Y-92821000D01*
X130895103Y-92666128D01*
X130862400Y-92501716D01*
X130862400Y-92334084D01*
X130895103Y-92169672D01*
X130959253Y-92014800D01*
X131052385Y-91875419D01*
X131170919Y-91756885D01*
X131310300Y-91663753D01*
X131465172Y-91599603D01*
X131629584Y-91566900D01*
X131797216Y-91566900D01*
X131961628Y-91599603D01*
X131961628Y-91599603D01*
G37*
G36*
X109471628Y-91599603D02*
G01*
X109626500Y-91663753D01*
X109765881Y-91756885D01*
X109884415Y-91875419D01*
X109977547Y-92014800D01*
X110041697Y-92169672D01*
X110074400Y-92334084D01*
X110074400Y-92501716D01*
X110041697Y-92666128D01*
X109977547Y-92821000D01*
X109884415Y-92960381D01*
X109765881Y-93078915D01*
X109626500Y-93172047D01*
X109471628Y-93236197D01*
X109307216Y-93268900D01*
X109139584Y-93268900D01*
X108975172Y-93236197D01*
X108820300Y-93172047D01*
X108680919Y-93078915D01*
X108562385Y-92960381D01*
X108469253Y-92821000D01*
X108405103Y-92666128D01*
X108372400Y-92501716D01*
X108372400Y-92334084D01*
X108405103Y-92169672D01*
X108469253Y-92014800D01*
X108562385Y-91875419D01*
X108680919Y-91756885D01*
X108820300Y-91663753D01*
X108975172Y-91599603D01*
X109139584Y-91566900D01*
X109307216Y-91566900D01*
X109471628Y-91599603D01*
X109471628Y-91599603D01*
G37*
G36*
X113581628Y-91599603D02*
G01*
X113736500Y-91663753D01*
X113875881Y-91756885D01*
X113994415Y-91875419D01*
X114087547Y-92014800D01*
X114151697Y-92169672D01*
X114184400Y-92334084D01*
X114184400Y-92501716D01*
X114151697Y-92666128D01*
X114087547Y-92821000D01*
X113994415Y-92960381D01*
X113875881Y-93078915D01*
X113736500Y-93172047D01*
X113581628Y-93236197D01*
X113417216Y-93268900D01*
X113249584Y-93268900D01*
X113085172Y-93236197D01*
X112930300Y-93172047D01*
X112790919Y-93078915D01*
X112672385Y-92960381D01*
X112579253Y-92821000D01*
X112515103Y-92666128D01*
X112482400Y-92501716D01*
X112482400Y-92334084D01*
X112515103Y-92169672D01*
X112579253Y-92014800D01*
X112672385Y-91875419D01*
X112790919Y-91756885D01*
X112930300Y-91663753D01*
X113085172Y-91599603D01*
X113249584Y-91566900D01*
X113417216Y-91566900D01*
X113581628Y-91599603D01*
X113581628Y-91599603D01*
G37*
G36*
X76821628Y-91599603D02*
G01*
X76976500Y-91663753D01*
X77115881Y-91756885D01*
X77234415Y-91875419D01*
X77327547Y-92014800D01*
X77391697Y-92169672D01*
X77424400Y-92334084D01*
X77424400Y-92501716D01*
X77391697Y-92666128D01*
X77327547Y-92821000D01*
X77234415Y-92960381D01*
X77115881Y-93078915D01*
X76976500Y-93172047D01*
X76821628Y-93236197D01*
X76657216Y-93268900D01*
X76489584Y-93268900D01*
X76325172Y-93236197D01*
X76170300Y-93172047D01*
X76030919Y-93078915D01*
X75912385Y-92960381D01*
X75819253Y-92821000D01*
X75755103Y-92666128D01*
X75722400Y-92501716D01*
X75722400Y-92334084D01*
X75755103Y-92169672D01*
X75819253Y-92014800D01*
X75912385Y-91875419D01*
X76030919Y-91756885D01*
X76170300Y-91663753D01*
X76325172Y-91599603D01*
X76489584Y-91566900D01*
X76657216Y-91566900D01*
X76821628Y-91599603D01*
X76821628Y-91599603D01*
G37*
G36*
X91091628Y-91599603D02*
G01*
X91246500Y-91663753D01*
X91385881Y-91756885D01*
X91504415Y-91875419D01*
X91597547Y-92014800D01*
X91661697Y-92169672D01*
X91694400Y-92334084D01*
X91694400Y-92501716D01*
X91661697Y-92666128D01*
X91597547Y-92821000D01*
X91504415Y-92960381D01*
X91385881Y-93078915D01*
X91246500Y-93172047D01*
X91091628Y-93236197D01*
X90927216Y-93268900D01*
X90759584Y-93268900D01*
X90595172Y-93236197D01*
X90440300Y-93172047D01*
X90300919Y-93078915D01*
X90182385Y-92960381D01*
X90089253Y-92821000D01*
X90025103Y-92666128D01*
X89992400Y-92501716D01*
X89992400Y-92334084D01*
X90025103Y-92169672D01*
X90089253Y-92014800D01*
X90182385Y-91875419D01*
X90300919Y-91756885D01*
X90440300Y-91663753D01*
X90595172Y-91599603D01*
X90759584Y-91566900D01*
X90927216Y-91566900D01*
X91091628Y-91599603D01*
X91091628Y-91599603D01*
G37*
G36*
X95201628Y-91599603D02*
G01*
X95356500Y-91663753D01*
X95495881Y-91756885D01*
X95614415Y-91875419D01*
X95707547Y-92014800D01*
X95771697Y-92169672D01*
X95804400Y-92334084D01*
X95804400Y-92501716D01*
X95771697Y-92666128D01*
X95707547Y-92821000D01*
X95614415Y-92960381D01*
X95495881Y-93078915D01*
X95356500Y-93172047D01*
X95201628Y-93236197D01*
X95037216Y-93268900D01*
X94869584Y-93268900D01*
X94705172Y-93236197D01*
X94550300Y-93172047D01*
X94410919Y-93078915D01*
X94292385Y-92960381D01*
X94199253Y-92821000D01*
X94135103Y-92666128D01*
X94102400Y-92501716D01*
X94102400Y-92334084D01*
X94135103Y-92169672D01*
X94199253Y-92014800D01*
X94292385Y-91875419D01*
X94410919Y-91756885D01*
X94550300Y-91663753D01*
X94705172Y-91599603D01*
X94869584Y-91566900D01*
X95037216Y-91566900D01*
X95201628Y-91599603D01*
X95201628Y-91599603D01*
G37*
G36*
X86011628Y-91599603D02*
G01*
X86166500Y-91663753D01*
X86305881Y-91756885D01*
X86424415Y-91875419D01*
X86517547Y-92014800D01*
X86581697Y-92169672D01*
X86614400Y-92334084D01*
X86614400Y-92501716D01*
X86581697Y-92666128D01*
X86517547Y-92821000D01*
X86424415Y-92960381D01*
X86305881Y-93078915D01*
X86166500Y-93172047D01*
X86011628Y-93236197D01*
X85847216Y-93268900D01*
X85679584Y-93268900D01*
X85515172Y-93236197D01*
X85360300Y-93172047D01*
X85220919Y-93078915D01*
X85102385Y-92960381D01*
X85009253Y-92821000D01*
X84945103Y-92666128D01*
X84912400Y-92501716D01*
X84912400Y-92334084D01*
X84945103Y-92169672D01*
X85009253Y-92014800D01*
X85102385Y-91875419D01*
X85220919Y-91756885D01*
X85360300Y-91663753D01*
X85515172Y-91599603D01*
X85679584Y-91566900D01*
X85847216Y-91566900D01*
X86011628Y-91599603D01*
X86011628Y-91599603D01*
G37*
G36*
X81901628Y-91599603D02*
G01*
X82056500Y-91663753D01*
X82195881Y-91756885D01*
X82314415Y-91875419D01*
X82407547Y-92014800D01*
X82471697Y-92169672D01*
X82504400Y-92334084D01*
X82504400Y-92501716D01*
X82471697Y-92666128D01*
X82407547Y-92821000D01*
X82314415Y-92960381D01*
X82195881Y-93078915D01*
X82056500Y-93172047D01*
X81901628Y-93236197D01*
X81737216Y-93268900D01*
X81569584Y-93268900D01*
X81405172Y-93236197D01*
X81250300Y-93172047D01*
X81110919Y-93078915D01*
X80992385Y-92960381D01*
X80899253Y-92821000D01*
X80835103Y-92666128D01*
X80802400Y-92501716D01*
X80802400Y-92334084D01*
X80835103Y-92169672D01*
X80899253Y-92014800D01*
X80992385Y-91875419D01*
X81110919Y-91756885D01*
X81250300Y-91663753D01*
X81405172Y-91599603D01*
X81569584Y-91566900D01*
X81737216Y-91566900D01*
X81901628Y-91599603D01*
X81901628Y-91599603D01*
G37*
G36*
X100281628Y-91599603D02*
G01*
X100436500Y-91663753D01*
X100575881Y-91756885D01*
X100694415Y-91875419D01*
X100787547Y-92014800D01*
X100851697Y-92169672D01*
X100884400Y-92334084D01*
X100884400Y-92501716D01*
X100851697Y-92666128D01*
X100787547Y-92821000D01*
X100694415Y-92960381D01*
X100575881Y-93078915D01*
X100436500Y-93172047D01*
X100281628Y-93236197D01*
X100117216Y-93268900D01*
X99949584Y-93268900D01*
X99785172Y-93236197D01*
X99630300Y-93172047D01*
X99490919Y-93078915D01*
X99372385Y-92960381D01*
X99279253Y-92821000D01*
X99215103Y-92666128D01*
X99182400Y-92501716D01*
X99182400Y-92334084D01*
X99215103Y-92169672D01*
X99279253Y-92014800D01*
X99372385Y-91875419D01*
X99490919Y-91756885D01*
X99630300Y-91663753D01*
X99785172Y-91599603D01*
X99949584Y-91566900D01*
X100117216Y-91566900D01*
X100281628Y-91599603D01*
X100281628Y-91599603D01*
G37*
G36*
X104391628Y-91599603D02*
G01*
X104546500Y-91663753D01*
X104685881Y-91756885D01*
X104804415Y-91875419D01*
X104897547Y-92014800D01*
X104961697Y-92169672D01*
X104994400Y-92334084D01*
X104994400Y-92501716D01*
X104961697Y-92666128D01*
X104897547Y-92821000D01*
X104804415Y-92960381D01*
X104685881Y-93078915D01*
X104546500Y-93172047D01*
X104391628Y-93236197D01*
X104227216Y-93268900D01*
X104059584Y-93268900D01*
X103895172Y-93236197D01*
X103740300Y-93172047D01*
X103600919Y-93078915D01*
X103482385Y-92960381D01*
X103389253Y-92821000D01*
X103325103Y-92666128D01*
X103292400Y-92501716D01*
X103292400Y-92334084D01*
X103325103Y-92169672D01*
X103389253Y-92014800D01*
X103482385Y-91875419D01*
X103600919Y-91756885D01*
X103740300Y-91663753D01*
X103895172Y-91599603D01*
X104059584Y-91566900D01*
X104227216Y-91566900D01*
X104391628Y-91599603D01*
X104391628Y-91599603D01*
G37*
G36*
X164611628Y-91599603D02*
G01*
X164766500Y-91663753D01*
X164905881Y-91756885D01*
X165024415Y-91875419D01*
X165117547Y-92014800D01*
X165181697Y-92169672D01*
X165214400Y-92334084D01*
X165214400Y-92501716D01*
X165181697Y-92666128D01*
X165117547Y-92821000D01*
X165024415Y-92960381D01*
X164905881Y-93078915D01*
X164766500Y-93172047D01*
X164611628Y-93236197D01*
X164447216Y-93268900D01*
X164279584Y-93268900D01*
X164115172Y-93236197D01*
X163960300Y-93172047D01*
X163820919Y-93078915D01*
X163702385Y-92960381D01*
X163609253Y-92821000D01*
X163545103Y-92666128D01*
X163512400Y-92501716D01*
X163512400Y-92334084D01*
X163545103Y-92169672D01*
X163609253Y-92014800D01*
X163702385Y-91875419D01*
X163820919Y-91756885D01*
X163960300Y-91663753D01*
X164115172Y-91599603D01*
X164279584Y-91566900D01*
X164447216Y-91566900D01*
X164611628Y-91599603D01*
X164611628Y-91599603D01*
G37*
G36*
X155421628Y-91599603D02*
G01*
X155576500Y-91663753D01*
X155715881Y-91756885D01*
X155834415Y-91875419D01*
X155927547Y-92014800D01*
X155991697Y-92169672D01*
X156024400Y-92334084D01*
X156024400Y-92501716D01*
X155991697Y-92666128D01*
X155927547Y-92821000D01*
X155834415Y-92960381D01*
X155715881Y-93078915D01*
X155576500Y-93172047D01*
X155421628Y-93236197D01*
X155257216Y-93268900D01*
X155089584Y-93268900D01*
X154925172Y-93236197D01*
X154770300Y-93172047D01*
X154630919Y-93078915D01*
X154512385Y-92960381D01*
X154419253Y-92821000D01*
X154355103Y-92666128D01*
X154322400Y-92501716D01*
X154322400Y-92334084D01*
X154355103Y-92169672D01*
X154419253Y-92014800D01*
X154512385Y-91875419D01*
X154630919Y-91756885D01*
X154770300Y-91663753D01*
X154925172Y-91599603D01*
X155089584Y-91566900D01*
X155257216Y-91566900D01*
X155421628Y-91599603D01*
X155421628Y-91599603D01*
G37*
G36*
X150341628Y-91599603D02*
G01*
X150496500Y-91663753D01*
X150635881Y-91756885D01*
X150754415Y-91875419D01*
X150847547Y-92014800D01*
X150911697Y-92169672D01*
X150944400Y-92334084D01*
X150944400Y-92501716D01*
X150911697Y-92666128D01*
X150847547Y-92821000D01*
X150754415Y-92960381D01*
X150635881Y-93078915D01*
X150496500Y-93172047D01*
X150341628Y-93236197D01*
X150177216Y-93268900D01*
X150009584Y-93268900D01*
X149845172Y-93236197D01*
X149690300Y-93172047D01*
X149550919Y-93078915D01*
X149432385Y-92960381D01*
X149339253Y-92821000D01*
X149275103Y-92666128D01*
X149242400Y-92501716D01*
X149242400Y-92334084D01*
X149275103Y-92169672D01*
X149339253Y-92014800D01*
X149432385Y-91875419D01*
X149550919Y-91756885D01*
X149690300Y-91663753D01*
X149845172Y-91599603D01*
X150009584Y-91566900D01*
X150177216Y-91566900D01*
X150341628Y-91599603D01*
X150341628Y-91599603D01*
G37*
G36*
X146231628Y-91599603D02*
G01*
X146386500Y-91663753D01*
X146525881Y-91756885D01*
X146644415Y-91875419D01*
X146737547Y-92014800D01*
X146801697Y-92169672D01*
X146834400Y-92334084D01*
X146834400Y-92501716D01*
X146801697Y-92666128D01*
X146737547Y-92821000D01*
X146644415Y-92960381D01*
X146525881Y-93078915D01*
X146386500Y-93172047D01*
X146231628Y-93236197D01*
X146067216Y-93268900D01*
X145899584Y-93268900D01*
X145735172Y-93236197D01*
X145580300Y-93172047D01*
X145440919Y-93078915D01*
X145322385Y-92960381D01*
X145229253Y-92821000D01*
X145165103Y-92666128D01*
X145132400Y-92501716D01*
X145132400Y-92334084D01*
X145165103Y-92169672D01*
X145229253Y-92014800D01*
X145322385Y-91875419D01*
X145440919Y-91756885D01*
X145580300Y-91663753D01*
X145735172Y-91599603D01*
X145899584Y-91566900D01*
X146067216Y-91566900D01*
X146231628Y-91599603D01*
X146231628Y-91599603D01*
G37*
G36*
X141151628Y-91599603D02*
G01*
X141306500Y-91663753D01*
X141445881Y-91756885D01*
X141564415Y-91875419D01*
X141657547Y-92014800D01*
X141721697Y-92169672D01*
X141754400Y-92334084D01*
X141754400Y-92501716D01*
X141721697Y-92666128D01*
X141657547Y-92821000D01*
X141564415Y-92960381D01*
X141445881Y-93078915D01*
X141306500Y-93172047D01*
X141151628Y-93236197D01*
X140987216Y-93268900D01*
X140819584Y-93268900D01*
X140655172Y-93236197D01*
X140500300Y-93172047D01*
X140360919Y-93078915D01*
X140242385Y-92960381D01*
X140149253Y-92821000D01*
X140085103Y-92666128D01*
X140052400Y-92501716D01*
X140052400Y-92334084D01*
X140085103Y-92169672D01*
X140149253Y-92014800D01*
X140242385Y-91875419D01*
X140360919Y-91756885D01*
X140500300Y-91663753D01*
X140655172Y-91599603D01*
X140819584Y-91566900D01*
X140987216Y-91566900D01*
X141151628Y-91599603D01*
X141151628Y-91599603D01*
G37*
G36*
X137041628Y-91599603D02*
G01*
X137196500Y-91663753D01*
X137335881Y-91756885D01*
X137454415Y-91875419D01*
X137547547Y-92014800D01*
X137611697Y-92169672D01*
X137644400Y-92334084D01*
X137644400Y-92501716D01*
X137611697Y-92666128D01*
X137547547Y-92821000D01*
X137454415Y-92960381D01*
X137335881Y-93078915D01*
X137196500Y-93172047D01*
X137041628Y-93236197D01*
X136877216Y-93268900D01*
X136709584Y-93268900D01*
X136545172Y-93236197D01*
X136390300Y-93172047D01*
X136250919Y-93078915D01*
X136132385Y-92960381D01*
X136039253Y-92821000D01*
X135975103Y-92666128D01*
X135942400Y-92501716D01*
X135942400Y-92334084D01*
X135975103Y-92169672D01*
X136039253Y-92014800D01*
X136132385Y-91875419D01*
X136250919Y-91756885D01*
X136390300Y-91663753D01*
X136545172Y-91599603D01*
X136709584Y-91566900D01*
X136877216Y-91566900D01*
X137041628Y-91599603D01*
X137041628Y-91599603D01*
G37*
G36*
X122771628Y-91599603D02*
G01*
X122926500Y-91663753D01*
X123065881Y-91756885D01*
X123184415Y-91875419D01*
X123277547Y-92014800D01*
X123341697Y-92169672D01*
X123374400Y-92334084D01*
X123374400Y-92501716D01*
X123341697Y-92666128D01*
X123277547Y-92821000D01*
X123184415Y-92960381D01*
X123065881Y-93078915D01*
X122926500Y-93172047D01*
X122771628Y-93236197D01*
X122607216Y-93268900D01*
X122439584Y-93268900D01*
X122275172Y-93236197D01*
X122120300Y-93172047D01*
X121980919Y-93078915D01*
X121862385Y-92960381D01*
X121769253Y-92821000D01*
X121705103Y-92666128D01*
X121672400Y-92501716D01*
X121672400Y-92334084D01*
X121705103Y-92169672D01*
X121769253Y-92014800D01*
X121862385Y-91875419D01*
X121980919Y-91756885D01*
X122120300Y-91663753D01*
X122275172Y-91599603D01*
X122439584Y-91566900D01*
X122607216Y-91566900D01*
X122771628Y-91599603D01*
X122771628Y-91599603D01*
G37*
G36*
X127851628Y-91599603D02*
G01*
X128006500Y-91663753D01*
X128145881Y-91756885D01*
X128264415Y-91875419D01*
X128357547Y-92014800D01*
X128421697Y-92169672D01*
X128454400Y-92334084D01*
X128454400Y-92501716D01*
X128421697Y-92666128D01*
X128357547Y-92821000D01*
X128264415Y-92960381D01*
X128145881Y-93078915D01*
X128006500Y-93172047D01*
X127851628Y-93236197D01*
X127687216Y-93268900D01*
X127519584Y-93268900D01*
X127355172Y-93236197D01*
X127200300Y-93172047D01*
X127060919Y-93078915D01*
X126942385Y-92960381D01*
X126849253Y-92821000D01*
X126785103Y-92666128D01*
X126752400Y-92501716D01*
X126752400Y-92334084D01*
X126785103Y-92169672D01*
X126849253Y-92014800D01*
X126942385Y-91875419D01*
X127060919Y-91756885D01*
X127200300Y-91663753D01*
X127355172Y-91599603D01*
X127519584Y-91566900D01*
X127687216Y-91566900D01*
X127851628Y-91599603D01*
X127851628Y-91599603D01*
G37*
G36*
X159531628Y-91599603D02*
G01*
X159686500Y-91663753D01*
X159825881Y-91756885D01*
X159944415Y-91875419D01*
X160037547Y-92014800D01*
X160101697Y-92169672D01*
X160134400Y-92334084D01*
X160134400Y-92501716D01*
X160101697Y-92666128D01*
X160037547Y-92821000D01*
X159944415Y-92960381D01*
X159825881Y-93078915D01*
X159686500Y-93172047D01*
X159531628Y-93236197D01*
X159367216Y-93268900D01*
X159199584Y-93268900D01*
X159035172Y-93236197D01*
X158880300Y-93172047D01*
X158740919Y-93078915D01*
X158622385Y-92960381D01*
X158529253Y-92821000D01*
X158465103Y-92666128D01*
X158432400Y-92501716D01*
X158432400Y-92334084D01*
X158465103Y-92169672D01*
X158529253Y-92014800D01*
X158622385Y-91875419D01*
X158740919Y-91756885D01*
X158880300Y-91663753D01*
X159035172Y-91599603D01*
X159199584Y-91566900D01*
X159367216Y-91566900D01*
X159531628Y-91599603D01*
X159531628Y-91599603D01*
G37*
G36*
X118661628Y-91599603D02*
G01*
X118816500Y-91663753D01*
X118955881Y-91756885D01*
X119074415Y-91875419D01*
X119167547Y-92014800D01*
X119231697Y-92169672D01*
X119264400Y-92334084D01*
X119264400Y-92501716D01*
X119231697Y-92666128D01*
X119167547Y-92821000D01*
X119074415Y-92960381D01*
X118955881Y-93078915D01*
X118816500Y-93172047D01*
X118661628Y-93236197D01*
X118497216Y-93268900D01*
X118329584Y-93268900D01*
X118165172Y-93236197D01*
X118010300Y-93172047D01*
X117870919Y-93078915D01*
X117752385Y-92960381D01*
X117659253Y-92821000D01*
X117595103Y-92666128D01*
X117562400Y-92501716D01*
X117562400Y-92334084D01*
X117595103Y-92169672D01*
X117659253Y-92014800D01*
X117752385Y-91875419D01*
X117870919Y-91756885D01*
X118010300Y-91663753D01*
X118165172Y-91599603D01*
X118329584Y-91566900D01*
X118497216Y-91566900D01*
X118661628Y-91599603D01*
X118661628Y-91599603D01*
G37*
G36*
X91091628Y-89059603D02*
G01*
X91246500Y-89123753D01*
X91385881Y-89216885D01*
X91504415Y-89335419D01*
X91597547Y-89474800D01*
X91661697Y-89629672D01*
X91694400Y-89794084D01*
X91694400Y-89961716D01*
X91661697Y-90126128D01*
X91597547Y-90281000D01*
X91504415Y-90420381D01*
X91385881Y-90538915D01*
X91246500Y-90632047D01*
X91091628Y-90696197D01*
X90927216Y-90728900D01*
X90759584Y-90728900D01*
X90595172Y-90696197D01*
X90440300Y-90632047D01*
X90300919Y-90538915D01*
X90182385Y-90420381D01*
X90089253Y-90281000D01*
X90025103Y-90126128D01*
X89992400Y-89961716D01*
X89992400Y-89794084D01*
X90025103Y-89629672D01*
X90089253Y-89474800D01*
X90182385Y-89335419D01*
X90300919Y-89216885D01*
X90440300Y-89123753D01*
X90595172Y-89059603D01*
X90759584Y-89026900D01*
X90927216Y-89026900D01*
X91091628Y-89059603D01*
X91091628Y-89059603D01*
G37*
G36*
X155421628Y-89059603D02*
G01*
X155576500Y-89123753D01*
X155715881Y-89216885D01*
X155834415Y-89335419D01*
X155927547Y-89474800D01*
X155991697Y-89629672D01*
X156024400Y-89794084D01*
X156024400Y-89961716D01*
X155991697Y-90126128D01*
X155927547Y-90281000D01*
X155834415Y-90420381D01*
X155715881Y-90538915D01*
X155576500Y-90632047D01*
X155421628Y-90696197D01*
X155257216Y-90728900D01*
X155089584Y-90728900D01*
X154925172Y-90696197D01*
X154770300Y-90632047D01*
X154630919Y-90538915D01*
X154512385Y-90420381D01*
X154419253Y-90281000D01*
X154355103Y-90126128D01*
X154322400Y-89961716D01*
X154322400Y-89794084D01*
X154355103Y-89629672D01*
X154419253Y-89474800D01*
X154512385Y-89335419D01*
X154630919Y-89216885D01*
X154770300Y-89123753D01*
X154925172Y-89059603D01*
X155089584Y-89026900D01*
X155257216Y-89026900D01*
X155421628Y-89059603D01*
X155421628Y-89059603D01*
G37*
G36*
X132564400Y-90728900D02*
G01*
X130862400Y-90728900D01*
X130862400Y-89026900D01*
X132564400Y-89026900D01*
X132564400Y-90728900D01*
X132564400Y-90728900D01*
G37*
G36*
X146231628Y-89059603D02*
G01*
X146386500Y-89123753D01*
X146525881Y-89216885D01*
X146644415Y-89335419D01*
X146737547Y-89474800D01*
X146801697Y-89629672D01*
X146834400Y-89794084D01*
X146834400Y-89961716D01*
X146801697Y-90126128D01*
X146737547Y-90281000D01*
X146644415Y-90420381D01*
X146525881Y-90538915D01*
X146386500Y-90632047D01*
X146231628Y-90696197D01*
X146067216Y-90728900D01*
X145899584Y-90728900D01*
X145735172Y-90696197D01*
X145580300Y-90632047D01*
X145440919Y-90538915D01*
X145322385Y-90420381D01*
X145229253Y-90281000D01*
X145165103Y-90126128D01*
X145132400Y-89961716D01*
X145132400Y-89794084D01*
X145165103Y-89629672D01*
X145229253Y-89474800D01*
X145322385Y-89335419D01*
X145440919Y-89216885D01*
X145580300Y-89123753D01*
X145735172Y-89059603D01*
X145899584Y-89026900D01*
X146067216Y-89026900D01*
X146231628Y-89059603D01*
X146231628Y-89059603D01*
G37*
G36*
X141754400Y-90728900D02*
G01*
X140052400Y-90728900D01*
X140052400Y-89026900D01*
X141754400Y-89026900D01*
X141754400Y-90728900D01*
X141754400Y-90728900D01*
G37*
G36*
X86614400Y-90728900D02*
G01*
X84912400Y-90728900D01*
X84912400Y-89026900D01*
X86614400Y-89026900D01*
X86614400Y-90728900D01*
X86614400Y-90728900D01*
G37*
G36*
X118661628Y-89059603D02*
G01*
X118816500Y-89123753D01*
X118955881Y-89216885D01*
X119074415Y-89335419D01*
X119167547Y-89474800D01*
X119231697Y-89629672D01*
X119264400Y-89794084D01*
X119264400Y-89961716D01*
X119231697Y-90126128D01*
X119167547Y-90281000D01*
X119074415Y-90420381D01*
X118955881Y-90538915D01*
X118816500Y-90632047D01*
X118661628Y-90696197D01*
X118497216Y-90728900D01*
X118329584Y-90728900D01*
X118165172Y-90696197D01*
X118010300Y-90632047D01*
X117870919Y-90538915D01*
X117752385Y-90420381D01*
X117659253Y-90281000D01*
X117595103Y-90126128D01*
X117562400Y-89961716D01*
X117562400Y-89794084D01*
X117595103Y-89629672D01*
X117659253Y-89474800D01*
X117752385Y-89335419D01*
X117870919Y-89216885D01*
X118010300Y-89123753D01*
X118165172Y-89059603D01*
X118329584Y-89026900D01*
X118497216Y-89026900D01*
X118661628Y-89059603D01*
X118661628Y-89059603D01*
G37*
G36*
X114184400Y-90728900D02*
G01*
X112482400Y-90728900D01*
X112482400Y-89026900D01*
X114184400Y-89026900D01*
X114184400Y-90728900D01*
X114184400Y-90728900D01*
G37*
G36*
X127851628Y-89059603D02*
G01*
X128006500Y-89123753D01*
X128145881Y-89216885D01*
X128264415Y-89335419D01*
X128357547Y-89474800D01*
X128421697Y-89629672D01*
X128454400Y-89794084D01*
X128454400Y-89961716D01*
X128421697Y-90126128D01*
X128357547Y-90281000D01*
X128264415Y-90420381D01*
X128145881Y-90538915D01*
X128006500Y-90632047D01*
X127851628Y-90696197D01*
X127687216Y-90728900D01*
X127519584Y-90728900D01*
X127355172Y-90696197D01*
X127200300Y-90632047D01*
X127060919Y-90538915D01*
X126942385Y-90420381D01*
X126849253Y-90281000D01*
X126785103Y-90126128D01*
X126752400Y-89961716D01*
X126752400Y-89794084D01*
X126785103Y-89629672D01*
X126849253Y-89474800D01*
X126942385Y-89335419D01*
X127060919Y-89216885D01*
X127200300Y-89123753D01*
X127355172Y-89059603D01*
X127519584Y-89026900D01*
X127687216Y-89026900D01*
X127851628Y-89059603D01*
X127851628Y-89059603D01*
G37*
G36*
X123374400Y-90728900D02*
G01*
X121672400Y-90728900D01*
X121672400Y-89026900D01*
X123374400Y-89026900D01*
X123374400Y-90728900D01*
X123374400Y-90728900D01*
G37*
G36*
X160134400Y-90728900D02*
G01*
X158432400Y-90728900D01*
X158432400Y-89026900D01*
X160134400Y-89026900D01*
X160134400Y-90728900D01*
X160134400Y-90728900D01*
G37*
G36*
X104994400Y-90728900D02*
G01*
X103292400Y-90728900D01*
X103292400Y-89026900D01*
X104994400Y-89026900D01*
X104994400Y-90728900D01*
X104994400Y-90728900D01*
G37*
G36*
X137041628Y-89059603D02*
G01*
X137196500Y-89123753D01*
X137335881Y-89216885D01*
X137454415Y-89335419D01*
X137547547Y-89474800D01*
X137611697Y-89629672D01*
X137644400Y-89794084D01*
X137644400Y-89961716D01*
X137611697Y-90126128D01*
X137547547Y-90281000D01*
X137454415Y-90420381D01*
X137335881Y-90538915D01*
X137196500Y-90632047D01*
X137041628Y-90696197D01*
X136877216Y-90728900D01*
X136709584Y-90728900D01*
X136545172Y-90696197D01*
X136390300Y-90632047D01*
X136250919Y-90538915D01*
X136132385Y-90420381D01*
X136039253Y-90281000D01*
X135975103Y-90126128D01*
X135942400Y-89961716D01*
X135942400Y-89794084D01*
X135975103Y-89629672D01*
X136039253Y-89474800D01*
X136132385Y-89335419D01*
X136250919Y-89216885D01*
X136390300Y-89123753D01*
X136545172Y-89059603D01*
X136709584Y-89026900D01*
X136877216Y-89026900D01*
X137041628Y-89059603D01*
X137041628Y-89059603D01*
G37*
G36*
X77424400Y-90728900D02*
G01*
X75722400Y-90728900D01*
X75722400Y-89026900D01*
X77424400Y-89026900D01*
X77424400Y-90728900D01*
X77424400Y-90728900D01*
G37*
G36*
X100281628Y-89059603D02*
G01*
X100436500Y-89123753D01*
X100575881Y-89216885D01*
X100694415Y-89335419D01*
X100787547Y-89474800D01*
X100851697Y-89629672D01*
X100884400Y-89794084D01*
X100884400Y-89961716D01*
X100851697Y-90126128D01*
X100787547Y-90281000D01*
X100694415Y-90420381D01*
X100575881Y-90538915D01*
X100436500Y-90632047D01*
X100281628Y-90696197D01*
X100117216Y-90728900D01*
X99949584Y-90728900D01*
X99785172Y-90696197D01*
X99630300Y-90632047D01*
X99490919Y-90538915D01*
X99372385Y-90420381D01*
X99279253Y-90281000D01*
X99215103Y-90126128D01*
X99182400Y-89961716D01*
X99182400Y-89794084D01*
X99215103Y-89629672D01*
X99279253Y-89474800D01*
X99372385Y-89335419D01*
X99490919Y-89216885D01*
X99630300Y-89123753D01*
X99785172Y-89059603D01*
X99949584Y-89026900D01*
X100117216Y-89026900D01*
X100281628Y-89059603D01*
X100281628Y-89059603D01*
G37*
G36*
X81901628Y-89059603D02*
G01*
X82056500Y-89123753D01*
X82195881Y-89216885D01*
X82314415Y-89335419D01*
X82407547Y-89474800D01*
X82471697Y-89629672D01*
X82504400Y-89794084D01*
X82504400Y-89961716D01*
X82471697Y-90126128D01*
X82407547Y-90281000D01*
X82314415Y-90420381D01*
X82195881Y-90538915D01*
X82056500Y-90632047D01*
X81901628Y-90696197D01*
X81737216Y-90728900D01*
X81569584Y-90728900D01*
X81405172Y-90696197D01*
X81250300Y-90632047D01*
X81110919Y-90538915D01*
X80992385Y-90420381D01*
X80899253Y-90281000D01*
X80835103Y-90126128D01*
X80802400Y-89961716D01*
X80802400Y-89794084D01*
X80835103Y-89629672D01*
X80899253Y-89474800D01*
X80992385Y-89335419D01*
X81110919Y-89216885D01*
X81250300Y-89123753D01*
X81405172Y-89059603D01*
X81569584Y-89026900D01*
X81737216Y-89026900D01*
X81901628Y-89059603D01*
X81901628Y-89059603D01*
G37*
G36*
X95804400Y-90728900D02*
G01*
X94102400Y-90728900D01*
X94102400Y-89026900D01*
X95804400Y-89026900D01*
X95804400Y-90728900D01*
X95804400Y-90728900D01*
G37*
G36*
X109471628Y-89059603D02*
G01*
X109626500Y-89123753D01*
X109765881Y-89216885D01*
X109884415Y-89335419D01*
X109977547Y-89474800D01*
X110041697Y-89629672D01*
X110074400Y-89794084D01*
X110074400Y-89961716D01*
X110041697Y-90126128D01*
X109977547Y-90281000D01*
X109884415Y-90420381D01*
X109765881Y-90538915D01*
X109626500Y-90632047D01*
X109471628Y-90696197D01*
X109307216Y-90728900D01*
X109139584Y-90728900D01*
X108975172Y-90696197D01*
X108820300Y-90632047D01*
X108680919Y-90538915D01*
X108562385Y-90420381D01*
X108469253Y-90281000D01*
X108405103Y-90126128D01*
X108372400Y-89961716D01*
X108372400Y-89794084D01*
X108405103Y-89629672D01*
X108469253Y-89474800D01*
X108562385Y-89335419D01*
X108680919Y-89216885D01*
X108820300Y-89123753D01*
X108975172Y-89059603D01*
X109139584Y-89026900D01*
X109307216Y-89026900D01*
X109471628Y-89059603D01*
X109471628Y-89059603D01*
G37*
G36*
X164611628Y-89059603D02*
G01*
X164766500Y-89123753D01*
X164905881Y-89216885D01*
X165024415Y-89335419D01*
X165117547Y-89474800D01*
X165181697Y-89629672D01*
X165214400Y-89794084D01*
X165214400Y-89961716D01*
X165181697Y-90126128D01*
X165117547Y-90281000D01*
X165024415Y-90420381D01*
X164905881Y-90538915D01*
X164766500Y-90632047D01*
X164611628Y-90696197D01*
X164447216Y-90728900D01*
X164279584Y-90728900D01*
X164115172Y-90696197D01*
X163960300Y-90632047D01*
X163820919Y-90538915D01*
X163702385Y-90420381D01*
X163609253Y-90281000D01*
X163545103Y-90126128D01*
X163512400Y-89961716D01*
X163512400Y-89794084D01*
X163545103Y-89629672D01*
X163609253Y-89474800D01*
X163702385Y-89335419D01*
X163820919Y-89216885D01*
X163960300Y-89123753D01*
X164115172Y-89059603D01*
X164279584Y-89026900D01*
X164447216Y-89026900D01*
X164611628Y-89059603D01*
X164611628Y-89059603D01*
G37*
G36*
X150944400Y-90728900D02*
G01*
X149242400Y-90728900D01*
X149242400Y-89026900D01*
X150944400Y-89026900D01*
X150944400Y-90728900D01*
X150944400Y-90728900D01*
G37*
G36*
X147109900Y-81032900D02*
G01*
X146207900Y-81032900D01*
X146207900Y-80180900D01*
X147109900Y-80180900D01*
X147109900Y-81032900D01*
X147109900Y-81032900D01*
G37*
G36*
X148609900Y-81032900D02*
G01*
X147707900Y-81032900D01*
X147707900Y-80180900D01*
X148609900Y-80180900D01*
X148609900Y-81032900D01*
X148609900Y-81032900D01*
G37*
G36*
X107955800Y-80893200D02*
G01*
X107053800Y-80893200D01*
X107053800Y-80041200D01*
X107955800Y-80041200D01*
X107955800Y-80893200D01*
X107955800Y-80893200D01*
G37*
G36*
X109455800Y-80893200D02*
G01*
X108553800Y-80893200D01*
X108553800Y-80041200D01*
X109455800Y-80041200D01*
X109455800Y-80893200D01*
X109455800Y-80893200D01*
G37*
G36*
X127094700Y-80880500D02*
G01*
X126192700Y-80880500D01*
X126192700Y-80028500D01*
X127094700Y-80028500D01*
X127094700Y-80880500D01*
X127094700Y-80880500D01*
G37*
G36*
X128594700Y-80880500D02*
G01*
X127692700Y-80880500D01*
X127692700Y-80028500D01*
X128594700Y-80028500D01*
X128594700Y-80880500D01*
X128594700Y-80880500D01*
G37*
G36*
X144988900Y-80768900D02*
G01*
X143986900Y-80768900D01*
X143986900Y-80166900D01*
X144988900Y-80166900D01*
X144988900Y-80768900D01*
X144988900Y-80768900D01*
G37*
G36*
X105961800Y-80756200D02*
G01*
X104959800Y-80756200D01*
X104959800Y-80154200D01*
X105961800Y-80154200D01*
X105961800Y-80756200D01*
X105961800Y-80756200D01*
G37*
G36*
X125100700Y-80743500D02*
G01*
X124098700Y-80743500D01*
X124098700Y-80141500D01*
X125100700Y-80141500D01*
X125100700Y-80743500D01*
X125100700Y-80743500D01*
G37*
G36*
X162451400Y-80603800D02*
G01*
X161449400Y-80603800D01*
X161449400Y-80001800D01*
X162451400Y-80001800D01*
X162451400Y-80603800D01*
X162451400Y-80603800D01*
G37*
G36*
X160736400Y-80301400D02*
G01*
X159984400Y-80301400D01*
X159984400Y-78499400D01*
X160736400Y-78499400D01*
X160736400Y-80301400D01*
X160736400Y-80301400D01*
G37*
G36*
X158836400Y-80301400D02*
G01*
X158084400Y-80301400D01*
X158084400Y-79799400D01*
X158836400Y-79799400D01*
X158836400Y-80301400D01*
X158836400Y-80301400D01*
G37*
G36*
X76692342Y-78455118D02*
G01*
X76758527Y-78461637D01*
X76928366Y-78513157D01*
X77084891Y-78596822D01*
X77120629Y-78626152D01*
X77222086Y-78709414D01*
X77283132Y-78783800D01*
X77334678Y-78846609D01*
X77418343Y-79003134D01*
X77469863Y-79172973D01*
X77487259Y-79349600D01*
X77469863Y-79526227D01*
X77418343Y-79696066D01*
X77334678Y-79852591D01*
X77305348Y-79888329D01*
X77222086Y-79989786D01*
X77120629Y-80073048D01*
X77084891Y-80102378D01*
X76928366Y-80186043D01*
X76758527Y-80237563D01*
X76692343Y-80244081D01*
X76626160Y-80250600D01*
X76537640Y-80250600D01*
X76471457Y-80244081D01*
X76405273Y-80237563D01*
X76235434Y-80186043D01*
X76078909Y-80102378D01*
X76043171Y-80073048D01*
X75941714Y-79989786D01*
X75858452Y-79888329D01*
X75829122Y-79852591D01*
X75745457Y-79696066D01*
X75693937Y-79526227D01*
X75676541Y-79349600D01*
X75693937Y-79172973D01*
X75745457Y-79003134D01*
X75829122Y-78846609D01*
X75880668Y-78783800D01*
X75941714Y-78709414D01*
X76043171Y-78626152D01*
X76078909Y-78596822D01*
X76235434Y-78513157D01*
X76405273Y-78461637D01*
X76471458Y-78455118D01*
X76537640Y-78448600D01*
X76626160Y-78448600D01*
X76692342Y-78455118D01*
X76692342Y-78455118D01*
G37*
G36*
X164854842Y-78455118D02*
G01*
X164921027Y-78461637D01*
X165090866Y-78513157D01*
X165247391Y-78596822D01*
X165283129Y-78626152D01*
X165384586Y-78709414D01*
X165445632Y-78783800D01*
X165497178Y-78846609D01*
X165580843Y-79003134D01*
X165632363Y-79172973D01*
X165649759Y-79349600D01*
X165632363Y-79526227D01*
X165580843Y-79696066D01*
X165497178Y-79852591D01*
X165467848Y-79888329D01*
X165384586Y-79989786D01*
X165283129Y-80073048D01*
X165247391Y-80102378D01*
X165090866Y-80186043D01*
X164921027Y-80237563D01*
X164854843Y-80244081D01*
X164788660Y-80250600D01*
X164700140Y-80250600D01*
X164633957Y-80244081D01*
X164567773Y-80237563D01*
X164397934Y-80186043D01*
X164241409Y-80102378D01*
X164205671Y-80073048D01*
X164104214Y-79989786D01*
X164020952Y-79888329D01*
X163991622Y-79852591D01*
X163907957Y-79696066D01*
X163856437Y-79526227D01*
X163839041Y-79349600D01*
X163856437Y-79172973D01*
X163907957Y-79003134D01*
X163991622Y-78846609D01*
X164043168Y-78783800D01*
X164104214Y-78709414D01*
X164205671Y-78626152D01*
X164241409Y-78596822D01*
X164397934Y-78513157D01*
X164567773Y-78461637D01*
X164633958Y-78455118D01*
X164700140Y-78448600D01*
X164788660Y-78448600D01*
X164854842Y-78455118D01*
X164854842Y-78455118D01*
G37*
G36*
X146889900Y-79329400D02*
G01*
X145727900Y-79329400D01*
X145727900Y-76677400D01*
X146889900Y-76677400D01*
X146889900Y-79329400D01*
X146889900Y-79329400D01*
G37*
G36*
X149089900Y-79329400D02*
G01*
X147927900Y-79329400D01*
X147927900Y-76677400D01*
X149089900Y-76677400D01*
X149089900Y-79329400D01*
X149089900Y-79329400D01*
G37*
G36*
X144988900Y-79268900D02*
G01*
X143986900Y-79268900D01*
X143986900Y-78666900D01*
X144988900Y-78666900D01*
X144988900Y-79268900D01*
X144988900Y-79268900D01*
G37*
G36*
X105961800Y-79256200D02*
G01*
X104959800Y-79256200D01*
X104959800Y-78654200D01*
X105961800Y-78654200D01*
X105961800Y-79256200D01*
X105961800Y-79256200D01*
G37*
G36*
X125100700Y-79243500D02*
G01*
X124098700Y-79243500D01*
X124098700Y-78641500D01*
X125100700Y-78641500D01*
X125100700Y-79243500D01*
X125100700Y-79243500D01*
G37*
G36*
X107799300Y-79189700D02*
G01*
X106637300Y-79189700D01*
X106637300Y-76537700D01*
X107799300Y-76537700D01*
X107799300Y-79189700D01*
X107799300Y-79189700D01*
G37*
G36*
X109999300Y-79189700D02*
G01*
X108837300Y-79189700D01*
X108837300Y-76537700D01*
X109999300Y-76537700D01*
X109999300Y-79189700D01*
X109999300Y-79189700D01*
G37*
G36*
X129138200Y-79177000D02*
G01*
X127976200Y-79177000D01*
X127976200Y-76525000D01*
X129138200Y-76525000D01*
X129138200Y-79177000D01*
X129138200Y-79177000D01*
G37*
G36*
X126938200Y-79177000D02*
G01*
X125776200Y-79177000D01*
X125776200Y-76525000D01*
X126938200Y-76525000D01*
X126938200Y-79177000D01*
X126938200Y-79177000D01*
G37*
G36*
X162451400Y-79103800D02*
G01*
X161449400Y-79103800D01*
X161449400Y-78501800D01*
X162451400Y-78501800D01*
X162451400Y-79103800D01*
X162451400Y-79103800D01*
G37*
G36*
X158836400Y-79001400D02*
G01*
X158084400Y-79001400D01*
X158084400Y-78499400D01*
X158836400Y-78499400D01*
X158836400Y-79001400D01*
X158836400Y-79001400D01*
G37*
G36*
X85517300Y-78783800D02*
G01*
X84915300Y-78783800D01*
X84915300Y-77781800D01*
X85517300Y-77781800D01*
X85517300Y-78783800D01*
X85517300Y-78783800D01*
G37*
G36*
X87017300Y-78783800D02*
G01*
X86415300Y-78783800D01*
X86415300Y-77781800D01*
X87017300Y-77781800D01*
X87017300Y-78783800D01*
X87017300Y-78783800D01*
G37*
G36*
X82344300Y-78485300D02*
G01*
X81592300Y-78485300D01*
X81592300Y-76683300D01*
X82344300Y-76683300D01*
X82344300Y-78485300D01*
X82344300Y-78485300D01*
G37*
G36*
X84244300Y-78485300D02*
G01*
X83492300Y-78485300D01*
X83492300Y-77983300D01*
X84244300Y-77983300D01*
X84244300Y-78485300D01*
X84244300Y-78485300D01*
G37*
G36*
X105961800Y-78152700D02*
G01*
X104959800Y-78152700D01*
X104959800Y-77550700D01*
X105961800Y-77550700D01*
X105961800Y-78152700D01*
X105961800Y-78152700D01*
G37*
G36*
X125100700Y-78140000D02*
G01*
X124098700Y-78140000D01*
X124098700Y-77538000D01*
X125100700Y-77538000D01*
X125100700Y-78140000D01*
X125100700Y-78140000D01*
G37*
G36*
X144988900Y-78101900D02*
G01*
X143986900Y-78101900D01*
X143986900Y-77499900D01*
X144988900Y-77499900D01*
X144988900Y-78101900D01*
X144988900Y-78101900D01*
G37*
G36*
X162451400Y-77962200D02*
G01*
X161449400Y-77962200D01*
X161449400Y-77360200D01*
X162451400Y-77360200D01*
X162451400Y-77962200D01*
X162451400Y-77962200D01*
G37*
G36*
X77482900Y-77710600D02*
G01*
X75680900Y-77710600D01*
X75680900Y-75908600D01*
X77482900Y-75908600D01*
X77482900Y-77710600D01*
X77482900Y-77710600D01*
G37*
G36*
X165645400Y-77710600D02*
G01*
X163843400Y-77710600D01*
X163843400Y-75908600D01*
X165645400Y-75908600D01*
X165645400Y-77710600D01*
X165645400Y-77710600D01*
G37*
G36*
X160611400Y-77642000D02*
G01*
X159709400Y-77642000D01*
X159709400Y-76790000D01*
X160611400Y-76790000D01*
X160611400Y-77642000D01*
X160611400Y-77642000D01*
G37*
G36*
X159111400Y-77642000D02*
G01*
X158209400Y-77642000D01*
X158209400Y-76790000D01*
X159111400Y-76790000D01*
X159111400Y-77642000D01*
X159111400Y-77642000D01*
G37*
G36*
X87407800Y-77273300D02*
G01*
X86505800Y-77273300D01*
X86505800Y-76371300D01*
X87407800Y-76371300D01*
X87407800Y-77273300D01*
X87407800Y-77273300D01*
G37*
G36*
X85807800Y-77273300D02*
G01*
X84905800Y-77273300D01*
X84905800Y-76371300D01*
X85807800Y-76371300D01*
X85807800Y-77273300D01*
X85807800Y-77273300D01*
G37*
G36*
X84244300Y-77185300D02*
G01*
X83492300Y-77185300D01*
X83492300Y-76683300D01*
X84244300Y-76683300D01*
X84244300Y-77185300D01*
X84244300Y-77185300D01*
G37*
G36*
X105961800Y-76652700D02*
G01*
X104959800Y-76652700D01*
X104959800Y-76050700D01*
X105961800Y-76050700D01*
X105961800Y-76652700D01*
X105961800Y-76652700D01*
G37*
G36*
X125100700Y-76640000D02*
G01*
X124098700Y-76640000D01*
X124098700Y-76038000D01*
X125100700Y-76038000D01*
X125100700Y-76640000D01*
X125100700Y-76640000D01*
G37*
G36*
X144988900Y-76601900D02*
G01*
X143986900Y-76601900D01*
X143986900Y-75999900D01*
X144988900Y-75999900D01*
X144988900Y-76601900D01*
X144988900Y-76601900D01*
G37*
G36*
X162451400Y-76462200D02*
G01*
X161449400Y-76462200D01*
X161449400Y-75860200D01*
X162451400Y-75860200D01*
X162451400Y-76462200D01*
X162451400Y-76462200D01*
G37*
G36*
X146959900Y-75773900D02*
G01*
X146357900Y-75773900D01*
X146357900Y-74771900D01*
X146959900Y-74771900D01*
X146959900Y-75773900D01*
X146959900Y-75773900D01*
G37*
G36*
X148459900Y-75773900D02*
G01*
X147857900Y-75773900D01*
X147857900Y-74771900D01*
X148459900Y-74771900D01*
X148459900Y-75773900D01*
X148459900Y-75773900D01*
G37*
G36*
X87017300Y-75659600D02*
G01*
X86415300Y-75659600D01*
X86415300Y-74657600D01*
X87017300Y-74657600D01*
X87017300Y-75659600D01*
X87017300Y-75659600D01*
G37*
G36*
X85517300Y-75659600D02*
G01*
X84915300Y-75659600D01*
X84915300Y-74657600D01*
X85517300Y-74657600D01*
X85517300Y-75659600D01*
X85517300Y-75659600D01*
G37*
G36*
X107805800Y-75634200D02*
G01*
X107203800Y-75634200D01*
X107203800Y-74632200D01*
X107805800Y-74632200D01*
X107805800Y-75634200D01*
X107805800Y-75634200D01*
G37*
G36*
X109305800Y-75634200D02*
G01*
X108703800Y-75634200D01*
X108703800Y-74632200D01*
X109305800Y-74632200D01*
X109305800Y-75634200D01*
X109305800Y-75634200D01*
G37*
G36*
X126944700Y-75621500D02*
G01*
X126342700Y-75621500D01*
X126342700Y-74619500D01*
X126944700Y-74619500D01*
X126944700Y-75621500D01*
X126944700Y-75621500D01*
G37*
G36*
X128444700Y-75621500D02*
G01*
X127842700Y-75621500D01*
X127842700Y-74619500D01*
X128444700Y-74619500D01*
X128444700Y-75621500D01*
X128444700Y-75621500D01*
G37*
G36*
X84244300Y-75361100D02*
G01*
X83492300Y-75361100D01*
X83492300Y-74859100D01*
X84244300Y-74859100D01*
X84244300Y-75361100D01*
X84244300Y-75361100D01*
G37*
G36*
X82344300Y-75361100D02*
G01*
X81592300Y-75361100D01*
X81592300Y-73559100D01*
X82344300Y-73559100D01*
X82344300Y-75361100D01*
X82344300Y-75361100D01*
G37*
G36*
X155479200Y-74390800D02*
G01*
X154577200Y-74390800D01*
X154577200Y-73538800D01*
X155479200Y-73538800D01*
X155479200Y-74390800D01*
X155479200Y-74390800D01*
G37*
G36*
X156979200Y-74390800D02*
G01*
X156077200Y-74390800D01*
X156077200Y-73538800D01*
X156979200Y-73538800D01*
X156979200Y-74390800D01*
X156979200Y-74390800D01*
G37*
G36*
X87407800Y-74149100D02*
G01*
X86505800Y-74149100D01*
X86505800Y-73247100D01*
X87407800Y-73247100D01*
X87407800Y-74149100D01*
X87407800Y-74149100D01*
G37*
G36*
X85807800Y-74149100D02*
G01*
X84905800Y-74149100D01*
X84905800Y-73247100D01*
X85807800Y-73247100D01*
X85807800Y-74149100D01*
X85807800Y-74149100D01*
G37*
G36*
X74684200Y-74110200D02*
G01*
X74082200Y-74110200D01*
X74082200Y-73108200D01*
X74684200Y-73108200D01*
X74684200Y-74110200D01*
X74684200Y-74110200D01*
G37*
G36*
X76184200Y-74110200D02*
G01*
X75582200Y-74110200D01*
X75582200Y-73108200D01*
X76184200Y-73108200D01*
X76184200Y-74110200D01*
X76184200Y-74110200D01*
G37*
G36*
X78978200Y-74110200D02*
G01*
X78376200Y-74110200D01*
X78376200Y-73108200D01*
X78978200Y-73108200D01*
X78978200Y-74110200D01*
X78978200Y-74110200D01*
G37*
G36*
X77478200Y-74110200D02*
G01*
X76876200Y-74110200D01*
X76876200Y-73108200D01*
X77478200Y-73108200D01*
X77478200Y-74110200D01*
X77478200Y-74110200D01*
G37*
G36*
X84244300Y-74061100D02*
G01*
X83492300Y-74061100D01*
X83492300Y-73559100D01*
X84244300Y-73559100D01*
X84244300Y-74061100D01*
X84244300Y-74061100D01*
G37*
G36*
X148309900Y-73995400D02*
G01*
X146507900Y-73995400D01*
X146507900Y-73243400D01*
X148309900Y-73243400D01*
X148309900Y-73995400D01*
X148309900Y-73995400D01*
G37*
G36*
X109155800Y-73982700D02*
G01*
X107353800Y-73982700D01*
X107353800Y-73230700D01*
X109155800Y-73230700D01*
X109155800Y-73982700D01*
X109155800Y-73982700D01*
G37*
G36*
X128294700Y-73970000D02*
G01*
X126492700Y-73970000D01*
X126492700Y-73218000D01*
X128294700Y-73218000D01*
X128294700Y-73970000D01*
X128294700Y-73970000D01*
G37*
G36*
X150057400Y-73870400D02*
G01*
X149205400Y-73870400D01*
X149205400Y-72968400D01*
X150057400Y-72968400D01*
X150057400Y-73870400D01*
X150057400Y-73870400D01*
G37*
G36*
X130042200Y-73845000D02*
G01*
X129190200Y-73845000D01*
X129190200Y-72943000D01*
X130042200Y-72943000D01*
X130042200Y-73845000D01*
X130042200Y-73845000D01*
G37*
G36*
X111041800Y-73707700D02*
G01*
X110039800Y-73707700D01*
X110039800Y-73105700D01*
X111041800Y-73105700D01*
X111041800Y-73707700D01*
X111041800Y-73707700D01*
G37*
G36*
X154047900Y-73602200D02*
G01*
X153445900Y-73602200D01*
X153445900Y-72600200D01*
X154047900Y-72600200D01*
X154047900Y-73602200D01*
X154047900Y-73602200D01*
G37*
G36*
X152547900Y-73602200D02*
G01*
X151945900Y-73602200D01*
X151945900Y-72600200D01*
X152547900Y-72600200D01*
X152547900Y-73602200D01*
X152547900Y-73602200D01*
G37*
G36*
X156979200Y-72993800D02*
G01*
X156077200Y-72993800D01*
X156077200Y-72141800D01*
X156979200Y-72141800D01*
X156979200Y-72993800D01*
X156979200Y-72993800D01*
G37*
G36*
X155479200Y-72993800D02*
G01*
X154577200Y-72993800D01*
X154577200Y-72141800D01*
X155479200Y-72141800D01*
X155479200Y-72993800D01*
X155479200Y-72993800D01*
G37*
G36*
X162832600Y-70044600D02*
G01*
X162582599Y-70044600D01*
X162558213Y-70047002D01*
X162534764Y-70054115D01*
X162513153Y-70065666D01*
X162494211Y-70081211D01*
X162478666Y-70100153D01*
X162467115Y-70121764D01*
X162460002Y-70145213D01*
X162457600Y-70169599D01*
X162457600Y-70192601D01*
X162460002Y-70216987D01*
X162467115Y-70240436D01*
X162478666Y-70262047D01*
X162494211Y-70280989D01*
X162513153Y-70296534D01*
X162534764Y-70308085D01*
X162558213Y-70315198D01*
X162582599Y-70317600D01*
X163557600Y-70317600D01*
X163557600Y-71219600D01*
X162582599Y-71219600D01*
X162558213Y-71222002D01*
X162534764Y-71229115D01*
X162513153Y-71240666D01*
X162494211Y-71256211D01*
X162478666Y-71275153D01*
X162467115Y-71296764D01*
X162460002Y-71320213D01*
X162457600Y-71344599D01*
X162457600Y-71367601D01*
X162460002Y-71391987D01*
X162467115Y-71415436D01*
X162478666Y-71437047D01*
X162494211Y-71455989D01*
X162513153Y-71471534D01*
X162534764Y-71483085D01*
X162558213Y-71490198D01*
X162582599Y-71492600D01*
X162832600Y-71492600D01*
X162832600Y-72444600D01*
X159930600Y-72444600D01*
X159930600Y-71492600D01*
X160180601Y-71492600D01*
X160204987Y-71490198D01*
X160228436Y-71483085D01*
X160250047Y-71471534D01*
X160268989Y-71455989D01*
X160284534Y-71437047D01*
X160296085Y-71415436D01*
X160303198Y-71391987D01*
X160305600Y-71367601D01*
X160305600Y-71344599D01*
X160303198Y-71320213D01*
X160296085Y-71296764D01*
X160284534Y-71275153D01*
X160268989Y-71256211D01*
X160250047Y-71240666D01*
X160228436Y-71229115D01*
X160204987Y-71222002D01*
X160180601Y-71219600D01*
X159205600Y-71219600D01*
X159205600Y-70317600D01*
X160180601Y-70317600D01*
X160204987Y-70315198D01*
X160228436Y-70308085D01*
X160250047Y-70296534D01*
X160268989Y-70280989D01*
X160284534Y-70262047D01*
X160296085Y-70240436D01*
X160303198Y-70216987D01*
X160305600Y-70192601D01*
X160305600Y-70169599D01*
X160303198Y-70145213D01*
X160296085Y-70121764D01*
X160284534Y-70100153D01*
X160268989Y-70081211D01*
X160250047Y-70065666D01*
X160228436Y-70054115D01*
X160204987Y-70047002D01*
X160180601Y-70044600D01*
X159930600Y-70044600D01*
X159930600Y-69092600D01*
X162832600Y-69092600D01*
X162832600Y-70044600D01*
X162832600Y-70044600D01*
G37*
G36*
X78777400Y-72395200D02*
G01*
X78275400Y-72395200D01*
X78275400Y-71643200D01*
X78777400Y-71643200D01*
X78777400Y-72395200D01*
X78777400Y-72395200D01*
G37*
G36*
X77477400Y-72395200D02*
G01*
X76975400Y-72395200D01*
X76975400Y-71643200D01*
X77477400Y-71643200D01*
X77477400Y-72395200D01*
X77477400Y-72395200D01*
G37*
G36*
X150057400Y-72370400D02*
G01*
X149205400Y-72370400D01*
X149205400Y-71468400D01*
X150057400Y-71468400D01*
X150057400Y-72370400D01*
X150057400Y-72370400D01*
G37*
G36*
X130042200Y-72345000D02*
G01*
X129190200Y-72345000D01*
X129190200Y-71443000D01*
X130042200Y-71443000D01*
X130042200Y-72345000D01*
X130042200Y-72345000D01*
G37*
G36*
X76067200Y-72270200D02*
G01*
X75215200Y-72270200D01*
X75215200Y-71368200D01*
X76067200Y-71368200D01*
X76067200Y-72270200D01*
X76067200Y-72270200D01*
G37*
G36*
X111041800Y-72207700D02*
G01*
X110039800Y-72207700D01*
X110039800Y-71605700D01*
X111041800Y-71605700D01*
X111041800Y-72207700D01*
X111041800Y-72207700D01*
G37*
G36*
X147009900Y-72095400D02*
G01*
X146507900Y-72095400D01*
X146507900Y-71343400D01*
X147009900Y-71343400D01*
X147009900Y-72095400D01*
X147009900Y-72095400D01*
G37*
G36*
X148309900Y-72095400D02*
G01*
X147807900Y-72095400D01*
X147807900Y-71343400D01*
X148309900Y-71343400D01*
X148309900Y-72095400D01*
X148309900Y-72095400D01*
G37*
G36*
X109155800Y-72082700D02*
G01*
X108653800Y-72082700D01*
X108653800Y-71330700D01*
X109155800Y-71330700D01*
X109155800Y-72082700D01*
X109155800Y-72082700D01*
G37*
G36*
X107855800Y-72082700D02*
G01*
X107353800Y-72082700D01*
X107353800Y-71330700D01*
X107855800Y-71330700D01*
X107855800Y-72082700D01*
X107855800Y-72082700D01*
G37*
G36*
X154047900Y-72078200D02*
G01*
X153445900Y-72078200D01*
X153445900Y-71076200D01*
X154047900Y-71076200D01*
X154047900Y-72078200D01*
X154047900Y-72078200D01*
G37*
G36*
X152547900Y-72078200D02*
G01*
X151945900Y-72078200D01*
X151945900Y-71076200D01*
X152547900Y-71076200D01*
X152547900Y-72078200D01*
X152547900Y-72078200D01*
G37*
G36*
X128294700Y-72070000D02*
G01*
X127792700Y-72070000D01*
X127792700Y-71318000D01*
X128294700Y-71318000D01*
X128294700Y-72070000D01*
X128294700Y-72070000D01*
G37*
G36*
X126994700Y-72070000D02*
G01*
X126492700Y-72070000D01*
X126492700Y-71318000D01*
X126994700Y-71318000D01*
X126994700Y-72070000D01*
X126994700Y-72070000D01*
G37*
G36*
X155479200Y-71596800D02*
G01*
X154577200Y-71596800D01*
X154577200Y-70744800D01*
X155479200Y-70744800D01*
X155479200Y-71596800D01*
X155479200Y-71596800D01*
G37*
G36*
X156979200Y-71596800D02*
G01*
X156077200Y-71596800D01*
X156077200Y-70744800D01*
X156979200Y-70744800D01*
X156979200Y-71596800D01*
X156979200Y-71596800D01*
G37*
G36*
X76067200Y-70770200D02*
G01*
X75215200Y-70770200D01*
X75215200Y-69868200D01*
X76067200Y-69868200D01*
X76067200Y-70770200D01*
X76067200Y-70770200D01*
G37*
G36*
X128684600Y-70681200D02*
G01*
X128082600Y-70681200D01*
X128082600Y-69679200D01*
X128684600Y-69679200D01*
X128684600Y-70681200D01*
X128684600Y-70681200D01*
G37*
G36*
X130184600Y-70681200D02*
G01*
X129582600Y-70681200D01*
X129582600Y-69679200D01*
X130184600Y-69679200D01*
X130184600Y-70681200D01*
X130184600Y-70681200D01*
G37*
G36*
X78777400Y-70495200D02*
G01*
X76975400Y-70495200D01*
X76975400Y-69743200D01*
X78777400Y-69743200D01*
X78777400Y-70495200D01*
X78777400Y-70495200D01*
G37*
G36*
X157616500Y-70321500D02*
G01*
X156214500Y-70321500D01*
X156214500Y-69119500D01*
X157616500Y-69119500D01*
X157616500Y-70321500D01*
X157616500Y-70321500D01*
G37*
G36*
X155316500Y-70321500D02*
G01*
X153914500Y-70321500D01*
X153914500Y-69119500D01*
X155316500Y-69119500D01*
X155316500Y-70321500D01*
X155316500Y-70321500D01*
G37*
G36*
X121596100Y-70027900D02*
G01*
X120494100Y-70027900D01*
X120494100Y-68325900D01*
X121596100Y-68325900D01*
X121596100Y-70027900D01*
X121596100Y-70027900D01*
G37*
G36*
X118596100Y-70027900D02*
G01*
X117494100Y-70027900D01*
X117494100Y-68325900D01*
X118596100Y-68325900D01*
X118596100Y-70027900D01*
X118596100Y-70027900D01*
G37*
G36*
X145803200Y-69945800D02*
G01*
X144901200Y-69945800D01*
X144901200Y-69093800D01*
X145803200Y-69093800D01*
X145803200Y-69945800D01*
X145803200Y-69945800D01*
G37*
G36*
X144303200Y-69945800D02*
G01*
X143401200Y-69945800D01*
X143401200Y-69093800D01*
X144303200Y-69093800D01*
X144303200Y-69945800D01*
X144303200Y-69945800D01*
G37*
G36*
X114420000Y-69745300D02*
G01*
X113418000Y-69745300D01*
X113418000Y-69143300D01*
X114420000Y-69143300D01*
X114420000Y-69745300D01*
X114420000Y-69745300D01*
G37*
G36*
X105620100Y-69654000D02*
G01*
X104768100Y-69654000D01*
X104768100Y-68752000D01*
X105620100Y-68752000D01*
X105620100Y-69654000D01*
X105620100Y-69654000D01*
G37*
G36*
X126261600Y-69646800D02*
G01*
X123369600Y-69646800D01*
X123369600Y-67641800D01*
X126261600Y-67641800D01*
X126261600Y-69646800D01*
X126261600Y-69646800D01*
G37*
G36*
X107282600Y-69504000D02*
G01*
X106280600Y-69504000D01*
X106280600Y-68902000D01*
X107282600Y-68902000D01*
X107282600Y-69504000D01*
X107282600Y-69504000D01*
G37*
G36*
X100932600Y-69440500D02*
G01*
X99930600Y-69440500D01*
X99930600Y-68838500D01*
X100932600Y-68838500D01*
X100932600Y-69440500D01*
X100932600Y-69440500D01*
G37*
G36*
X102520100Y-69440500D02*
G01*
X101518100Y-69440500D01*
X101518100Y-68838500D01*
X102520100Y-68838500D01*
X102520100Y-69440500D01*
X102520100Y-69440500D01*
G37*
G36*
X104107600Y-69440500D02*
G01*
X103105600Y-69440500D01*
X103105600Y-68838500D01*
X104107600Y-68838500D01*
X104107600Y-69440500D01*
X104107600Y-69440500D01*
G37*
G36*
X111675100Y-69359900D02*
G01*
X108873100Y-69359900D01*
X108873100Y-66707900D01*
X111675100Y-66707900D01*
X111675100Y-69359900D01*
X111675100Y-69359900D01*
G37*
G36*
X90066000Y-69161800D02*
G01*
X86464000Y-69161800D01*
X86464000Y-65559800D01*
X90066000Y-65559800D01*
X90066000Y-69161800D01*
X90066000Y-69161800D01*
G37*
G36*
X136062000Y-68917400D02*
G01*
X135210000Y-68917400D01*
X135210000Y-68015400D01*
X136062000Y-68015400D01*
X136062000Y-68917400D01*
X136062000Y-68917400D01*
G37*
G36*
X130143800Y-68917400D02*
G01*
X129291800Y-68917400D01*
X129291800Y-68015400D01*
X130143800Y-68015400D01*
X130143800Y-68917400D01*
X130143800Y-68917400D01*
G37*
G36*
X133090200Y-68917400D02*
G01*
X132238200Y-68917400D01*
X132238200Y-68015400D01*
X133090200Y-68015400D01*
X133090200Y-68917400D01*
X133090200Y-68917400D01*
G37*
G36*
X82262942Y-67085881D02*
G01*
X82408714Y-67146262D01*
X82408716Y-67146263D01*
X82539908Y-67233922D01*
X82651478Y-67345492D01*
X82689235Y-67402000D01*
X82739138Y-67476686D01*
X82799519Y-67622458D01*
X82830300Y-67777207D01*
X82830300Y-67934993D01*
X82799519Y-68089742D01*
X82772902Y-68154000D01*
X82739137Y-68235516D01*
X82651478Y-68366708D01*
X82539908Y-68478278D01*
X82408716Y-68565937D01*
X82408715Y-68565938D01*
X82408714Y-68565938D01*
X82262942Y-68626319D01*
X82108193Y-68657100D01*
X81950407Y-68657100D01*
X81795658Y-68626319D01*
X81649886Y-68565938D01*
X81649885Y-68565938D01*
X81649884Y-68565937D01*
X81518692Y-68478278D01*
X81407122Y-68366708D01*
X81319463Y-68235516D01*
X81285698Y-68154000D01*
X81259081Y-68089742D01*
X81228300Y-67934993D01*
X81228300Y-67777207D01*
X81259081Y-67622458D01*
X81319462Y-67476686D01*
X81369365Y-67402000D01*
X81407122Y-67345492D01*
X81518692Y-67233922D01*
X81649884Y-67146263D01*
X81649886Y-67146262D01*
X81795658Y-67085881D01*
X81950407Y-67055100D01*
X82108193Y-67055100D01*
X82262942Y-67085881D01*
X82262942Y-67085881D01*
G37*
G36*
X116840100Y-68624400D02*
G01*
X115138100Y-68624400D01*
X115138100Y-67522400D01*
X116840100Y-67522400D01*
X116840100Y-68624400D01*
X116840100Y-68624400D01*
G37*
G36*
X155316500Y-68421500D02*
G01*
X153914500Y-68421500D01*
X153914500Y-67219500D01*
X155316500Y-67219500D01*
X155316500Y-68421500D01*
X155316500Y-68421500D01*
G37*
G36*
X157616500Y-68421500D02*
G01*
X156214500Y-68421500D01*
X156214500Y-67219500D01*
X157616500Y-67219500D01*
X157616500Y-68421500D01*
X157616500Y-68421500D01*
G37*
G36*
X134638400Y-68404900D02*
G01*
X133636400Y-68404900D01*
X133636400Y-67027900D01*
X134638400Y-67027900D01*
X134638400Y-68404900D01*
X134638400Y-68404900D01*
G37*
G36*
X131692000Y-68404900D02*
G01*
X130690000Y-68404900D01*
X130690000Y-67027900D01*
X131692000Y-67027900D01*
X131692000Y-68404900D01*
X131692000Y-68404900D01*
G37*
G36*
X137610200Y-68404900D02*
G01*
X136608200Y-68404900D01*
X136608200Y-67027900D01*
X137610200Y-67027900D01*
X137610200Y-68404900D01*
X137610200Y-68404900D01*
G37*
G36*
X114420000Y-68245300D02*
G01*
X113418000Y-68245300D01*
X113418000Y-67643300D01*
X114420000Y-67643300D01*
X114420000Y-68245300D01*
X114420000Y-68245300D01*
G37*
G36*
X105620100Y-68154000D02*
G01*
X104768100Y-68154000D01*
X104768100Y-67252000D01*
X105620100Y-67252000D01*
X105620100Y-68154000D01*
X105620100Y-68154000D01*
G37*
G36*
X107282600Y-68004000D02*
G01*
X106280600Y-68004000D01*
X106280600Y-67402000D01*
X107282600Y-67402000D01*
X107282600Y-68004000D01*
X107282600Y-68004000D01*
G37*
G36*
X104107600Y-67940500D02*
G01*
X103105600Y-67940500D01*
X103105600Y-67338500D01*
X104107600Y-67338500D01*
X104107600Y-67940500D01*
X104107600Y-67940500D01*
G37*
G36*
X102520100Y-67940500D02*
G01*
X101518100Y-67940500D01*
X101518100Y-67338500D01*
X102520100Y-67338500D01*
X102520100Y-67940500D01*
X102520100Y-67940500D01*
G37*
G36*
X100932600Y-67940500D02*
G01*
X99930600Y-67940500D01*
X99930600Y-67338500D01*
X100932600Y-67338500D01*
X100932600Y-67940500D01*
X100932600Y-67940500D01*
G37*
G36*
X136062000Y-67417400D02*
G01*
X135210000Y-67417400D01*
X135210000Y-66515400D01*
X136062000Y-66515400D01*
X136062000Y-67417400D01*
X136062000Y-67417400D01*
G37*
G36*
X133090200Y-67417400D02*
G01*
X132238200Y-67417400D01*
X132238200Y-66515400D01*
X133090200Y-66515400D01*
X133090200Y-67417400D01*
X133090200Y-67417400D01*
G37*
G36*
X130143800Y-67417400D02*
G01*
X129291800Y-67417400D01*
X129291800Y-66515400D01*
X130143800Y-66515400D01*
X130143800Y-67417400D01*
X130143800Y-67417400D01*
G37*
G36*
X147392600Y-64844700D02*
G01*
X147142599Y-64844700D01*
X147118213Y-64847102D01*
X147094764Y-64854215D01*
X147073153Y-64865766D01*
X147054211Y-64881311D01*
X147038666Y-64900253D01*
X147027115Y-64921864D01*
X147020002Y-64945313D01*
X147017600Y-64969699D01*
X147017600Y-64992701D01*
X147020002Y-65017087D01*
X147027115Y-65040536D01*
X147038666Y-65062147D01*
X147054211Y-65081089D01*
X147073153Y-65096634D01*
X147094764Y-65108185D01*
X147118213Y-65115298D01*
X147142599Y-65117700D01*
X148117600Y-65117700D01*
X148117600Y-66019700D01*
X147142599Y-66019700D01*
X147118213Y-66022102D01*
X147094764Y-66029215D01*
X147073153Y-66040766D01*
X147054211Y-66056311D01*
X147038666Y-66075253D01*
X147027115Y-66096864D01*
X147020002Y-66120313D01*
X147017600Y-66144699D01*
X147017600Y-66167701D01*
X147020002Y-66192087D01*
X147027115Y-66215536D01*
X147038666Y-66237147D01*
X147054211Y-66256089D01*
X147073153Y-66271634D01*
X147094764Y-66283185D01*
X147118213Y-66290298D01*
X147142599Y-66292700D01*
X147392600Y-66292700D01*
X147392600Y-67244700D01*
X144490600Y-67244700D01*
X144490600Y-66292700D01*
X144740601Y-66292700D01*
X144764987Y-66290298D01*
X144788436Y-66283185D01*
X144810047Y-66271634D01*
X144828989Y-66256089D01*
X144844534Y-66237147D01*
X144856085Y-66215536D01*
X144863198Y-66192087D01*
X144865600Y-66167701D01*
X144865600Y-66144699D01*
X144863198Y-66120313D01*
X144856085Y-66096864D01*
X144844534Y-66075253D01*
X144828989Y-66056311D01*
X144810047Y-66040766D01*
X144788436Y-66029215D01*
X144764987Y-66022102D01*
X144740601Y-66019700D01*
X143765600Y-66019700D01*
X143765600Y-65117700D01*
X144740601Y-65117700D01*
X144764987Y-65115298D01*
X144788436Y-65108185D01*
X144810047Y-65096634D01*
X144828989Y-65081089D01*
X144844534Y-65062147D01*
X144856085Y-65040536D01*
X144863198Y-65017087D01*
X144865600Y-64992701D01*
X144865600Y-64969699D01*
X144863198Y-64945313D01*
X144856085Y-64921864D01*
X144844534Y-64900253D01*
X144828989Y-64881311D01*
X144810047Y-64865766D01*
X144788436Y-64854215D01*
X144764987Y-64847102D01*
X144740601Y-64844700D01*
X144490600Y-64844700D01*
X144490600Y-63892700D01*
X147392600Y-63892700D01*
X147392600Y-64844700D01*
X147392600Y-64844700D01*
G37*
G36*
X114420000Y-67141800D02*
G01*
X113418000Y-67141800D01*
X113418000Y-66539800D01*
X114420000Y-66539800D01*
X114420000Y-67141800D01*
X114420000Y-67141800D01*
G37*
G36*
X97633100Y-66731500D02*
G01*
X97031100Y-66731500D01*
X97031100Y-65729500D01*
X97633100Y-65729500D01*
X97633100Y-66731500D01*
X97633100Y-66731500D01*
G37*
G36*
X99133100Y-66731500D02*
G01*
X98531100Y-66731500D01*
X98531100Y-65729500D01*
X99133100Y-65729500D01*
X99133100Y-66731500D01*
X99133100Y-66731500D01*
G37*
G36*
X100742100Y-66456000D02*
G01*
X99740100Y-66456000D01*
X99740100Y-65854000D01*
X100742100Y-65854000D01*
X100742100Y-66456000D01*
X100742100Y-66456000D01*
G37*
G36*
X118898001Y-62579808D02*
G01*
X118916947Y-62585555D01*
X118935891Y-62591302D01*
X118970810Y-62609966D01*
X119001416Y-62635084D01*
X119011979Y-62647955D01*
X119029302Y-62665278D01*
X119049677Y-62678892D01*
X119072315Y-62688270D01*
X119096349Y-62693050D01*
X119120853Y-62693050D01*
X119144886Y-62688270D01*
X119167525Y-62678892D01*
X119187899Y-62665279D01*
X119205217Y-62647961D01*
X119215785Y-62635084D01*
X119246391Y-62609966D01*
X119281310Y-62591302D01*
X119300254Y-62585555D01*
X119319200Y-62579808D01*
X119354296Y-62576352D01*
X119358600Y-62575928D01*
X119358601Y-62575928D01*
X119398001Y-62579808D01*
X119416947Y-62585555D01*
X119435891Y-62591302D01*
X119470810Y-62609966D01*
X119501416Y-62635084D01*
X119511979Y-62647955D01*
X119529302Y-62665278D01*
X119549677Y-62678892D01*
X119572315Y-62688270D01*
X119596349Y-62693050D01*
X119620853Y-62693050D01*
X119644886Y-62688270D01*
X119667525Y-62678892D01*
X119687899Y-62665279D01*
X119705217Y-62647961D01*
X119715785Y-62635084D01*
X119746391Y-62609966D01*
X119781310Y-62591302D01*
X119800254Y-62585555D01*
X119819200Y-62579808D01*
X119854296Y-62576352D01*
X119858600Y-62575928D01*
X119858601Y-62575928D01*
X119898001Y-62579808D01*
X119916947Y-62585555D01*
X119935891Y-62591302D01*
X119970810Y-62609966D01*
X120001416Y-62635084D01*
X120011979Y-62647955D01*
X120029302Y-62665278D01*
X120049677Y-62678892D01*
X120072315Y-62688270D01*
X120096349Y-62693050D01*
X120120853Y-62693050D01*
X120144886Y-62688270D01*
X120167525Y-62678892D01*
X120187899Y-62665279D01*
X120205217Y-62647961D01*
X120215785Y-62635084D01*
X120246391Y-62609966D01*
X120281310Y-62591302D01*
X120300254Y-62585555D01*
X120319200Y-62579808D01*
X120354296Y-62576352D01*
X120358600Y-62575928D01*
X120358601Y-62575928D01*
X120398001Y-62579808D01*
X120416947Y-62585555D01*
X120435891Y-62591302D01*
X120470810Y-62609966D01*
X120501416Y-62635084D01*
X120526534Y-62665690D01*
X120533590Y-62678892D01*
X120545197Y-62700607D01*
X120556692Y-62738499D01*
X120559600Y-62768026D01*
X120559600Y-63237774D01*
X120556692Y-63267301D01*
X120556691Y-63267303D01*
X120545198Y-63305191D01*
X120526534Y-63340110D01*
X120526531Y-63340114D01*
X120525001Y-63342976D01*
X120515624Y-63365614D01*
X120510843Y-63389647D01*
X120510843Y-63414152D01*
X120515623Y-63438185D01*
X120525000Y-63460824D01*
X120538613Y-63481198D01*
X120555940Y-63498526D01*
X120575961Y-63511904D01*
X120580666Y-63520706D01*
X120596211Y-63539648D01*
X120615153Y-63555193D01*
X120636764Y-63566744D01*
X120660213Y-63573857D01*
X120684599Y-63576259D01*
X120708985Y-63573857D01*
X120732434Y-63566744D01*
X120743524Y-63561499D01*
X120746386Y-63559969D01*
X120746390Y-63559966D01*
X120781309Y-63541302D01*
X120819199Y-63529808D01*
X120848726Y-63526900D01*
X121318474Y-63526900D01*
X121348001Y-63529808D01*
X121366947Y-63535555D01*
X121385891Y-63541302D01*
X121420810Y-63559966D01*
X121451416Y-63585084D01*
X121476534Y-63615690D01*
X121489260Y-63639500D01*
X121495197Y-63650607D01*
X121506692Y-63688499D01*
X121510572Y-63727900D01*
X121506692Y-63767301D01*
X121506691Y-63767303D01*
X121495198Y-63805191D01*
X121476534Y-63840110D01*
X121451416Y-63870716D01*
X121438545Y-63881279D01*
X121421223Y-63898601D01*
X121407609Y-63918975D01*
X121398232Y-63941614D01*
X121393451Y-63965647D01*
X121393451Y-63990151D01*
X121398231Y-64014184D01*
X121407608Y-64036823D01*
X121421222Y-64057198D01*
X121438545Y-64074521D01*
X121451416Y-64085084D01*
X121476534Y-64115690D01*
X121494066Y-64148490D01*
X121495197Y-64150607D01*
X121506692Y-64188499D01*
X121510572Y-64227900D01*
X121506692Y-64267301D01*
X121506691Y-64267303D01*
X121495198Y-64305191D01*
X121476534Y-64340110D01*
X121451416Y-64370716D01*
X121438545Y-64381279D01*
X121421223Y-64398601D01*
X121407609Y-64418975D01*
X121398232Y-64441614D01*
X121393451Y-64465647D01*
X121393451Y-64490151D01*
X121398231Y-64514184D01*
X121407608Y-64536823D01*
X121421222Y-64557198D01*
X121438545Y-64574521D01*
X121451416Y-64585084D01*
X121476534Y-64615690D01*
X121494066Y-64648490D01*
X121495197Y-64650607D01*
X121506692Y-64688499D01*
X121510572Y-64727900D01*
X121506692Y-64767301D01*
X121506691Y-64767303D01*
X121495198Y-64805191D01*
X121476534Y-64840110D01*
X121451416Y-64870716D01*
X121438545Y-64881279D01*
X121421223Y-64898601D01*
X121407609Y-64918975D01*
X121398232Y-64941614D01*
X121393451Y-64965647D01*
X121393451Y-64990151D01*
X121398231Y-65014184D01*
X121407608Y-65036823D01*
X121421222Y-65057198D01*
X121438545Y-65074521D01*
X121451416Y-65085084D01*
X121476534Y-65115690D01*
X121491486Y-65143664D01*
X121495197Y-65150607D01*
X121506692Y-65188499D01*
X121510572Y-65227900D01*
X121506692Y-65267301D01*
X121506691Y-65267303D01*
X121495198Y-65305191D01*
X121476534Y-65340110D01*
X121451416Y-65370716D01*
X121420810Y-65395834D01*
X121385891Y-65414498D01*
X121366947Y-65420244D01*
X121348001Y-65425992D01*
X121318474Y-65428900D01*
X120848726Y-65428900D01*
X120819199Y-65425992D01*
X120781309Y-65414498D01*
X120781307Y-65414497D01*
X120746390Y-65395834D01*
X120746386Y-65395831D01*
X120743524Y-65394301D01*
X120720886Y-65384924D01*
X120696853Y-65380143D01*
X120672348Y-65380143D01*
X120648315Y-65384923D01*
X120625676Y-65394300D01*
X120605302Y-65407913D01*
X120587974Y-65425240D01*
X120574596Y-65445261D01*
X120565794Y-65449966D01*
X120546852Y-65465511D01*
X120531307Y-65484453D01*
X120519756Y-65506064D01*
X120512643Y-65529513D01*
X120510241Y-65553899D01*
X120512643Y-65578285D01*
X120519756Y-65601734D01*
X120525001Y-65612824D01*
X120526531Y-65615686D01*
X120526534Y-65615690D01*
X120545198Y-65650609D01*
X120556692Y-65688499D01*
X120559600Y-65718026D01*
X120559600Y-66187774D01*
X120556692Y-66217301D01*
X120556691Y-66217303D01*
X120545198Y-66255191D01*
X120526534Y-66290110D01*
X120501416Y-66320716D01*
X120470809Y-66345834D01*
X120435890Y-66364498D01*
X120416946Y-66370245D01*
X120398000Y-66375992D01*
X120362904Y-66379448D01*
X120358600Y-66379872D01*
X120358599Y-66379872D01*
X120319199Y-66375992D01*
X120300253Y-66370245D01*
X120281309Y-66364498D01*
X120246390Y-66345834D01*
X120215784Y-66320716D01*
X120205222Y-66307846D01*
X120187899Y-66290523D01*
X120167525Y-66276909D01*
X120144886Y-66267532D01*
X120120853Y-66262751D01*
X120096349Y-66262751D01*
X120072316Y-66267531D01*
X120049677Y-66276908D01*
X120029302Y-66290522D01*
X120011979Y-66307845D01*
X120001416Y-66320716D01*
X119970809Y-66345834D01*
X119935890Y-66364498D01*
X119916946Y-66370245D01*
X119898000Y-66375992D01*
X119862904Y-66379448D01*
X119858600Y-66379872D01*
X119858599Y-66379872D01*
X119819199Y-66375992D01*
X119800253Y-66370245D01*
X119781309Y-66364498D01*
X119746390Y-66345834D01*
X119715784Y-66320716D01*
X119705222Y-66307846D01*
X119687899Y-66290523D01*
X119667525Y-66276909D01*
X119644886Y-66267532D01*
X119620853Y-66262751D01*
X119596349Y-66262751D01*
X119572316Y-66267531D01*
X119549677Y-66276908D01*
X119529302Y-66290522D01*
X119511979Y-66307845D01*
X119501416Y-66320716D01*
X119470809Y-66345834D01*
X119435890Y-66364498D01*
X119416946Y-66370245D01*
X119398000Y-66375992D01*
X119362904Y-66379448D01*
X119358600Y-66379872D01*
X119358599Y-66379872D01*
X119319199Y-66375992D01*
X119300253Y-66370245D01*
X119281309Y-66364498D01*
X119246390Y-66345834D01*
X119215784Y-66320716D01*
X119205222Y-66307846D01*
X119187899Y-66290523D01*
X119167525Y-66276909D01*
X119144886Y-66267532D01*
X119120853Y-66262751D01*
X119096349Y-66262751D01*
X119072316Y-66267531D01*
X119049677Y-66276908D01*
X119029302Y-66290522D01*
X119011979Y-66307845D01*
X119001416Y-66320716D01*
X118970809Y-66345834D01*
X118935890Y-66364498D01*
X118916946Y-66370245D01*
X118898000Y-66375992D01*
X118862904Y-66379448D01*
X118858600Y-66379872D01*
X118858599Y-66379872D01*
X118819199Y-66375992D01*
X118800253Y-66370245D01*
X118781309Y-66364498D01*
X118746390Y-66345834D01*
X118715784Y-66320716D01*
X118690666Y-66290109D01*
X118676043Y-66262751D01*
X118672003Y-66255192D01*
X118660508Y-66217300D01*
X118657600Y-66187773D01*
X118657600Y-65718031D01*
X118660509Y-65688499D01*
X118672003Y-65650609D01*
X118690667Y-65615690D01*
X118690670Y-65615686D01*
X118692200Y-65612824D01*
X118701577Y-65590186D01*
X118706358Y-65566153D01*
X118706358Y-65541648D01*
X118701578Y-65517615D01*
X118692201Y-65494976D01*
X118678588Y-65474602D01*
X118661261Y-65457274D01*
X118641238Y-65443895D01*
X118636534Y-65435094D01*
X118620989Y-65416152D01*
X118602047Y-65400607D01*
X118580436Y-65389056D01*
X118556987Y-65381943D01*
X118532601Y-65379541D01*
X118508215Y-65381943D01*
X118484766Y-65389056D01*
X118473676Y-65394301D01*
X118470814Y-65395831D01*
X118470810Y-65395834D01*
X118435893Y-65414497D01*
X118435891Y-65414498D01*
X118398001Y-65425992D01*
X118368474Y-65428900D01*
X117898726Y-65428900D01*
X117869199Y-65425992D01*
X117850253Y-65420245D01*
X117831309Y-65414498D01*
X117796390Y-65395834D01*
X117765784Y-65370716D01*
X117740666Y-65340110D01*
X117722002Y-65305191D01*
X117710509Y-65267303D01*
X117710508Y-65267301D01*
X117706628Y-65227900D01*
X117710508Y-65188499D01*
X117722003Y-65150607D01*
X117725714Y-65143664D01*
X117740666Y-65115690D01*
X117765784Y-65085084D01*
X117778655Y-65074521D01*
X117795977Y-65057199D01*
X117809591Y-65036825D01*
X117818968Y-65014186D01*
X117823749Y-64990153D01*
X117823749Y-64965649D01*
X117818969Y-64941616D01*
X117809592Y-64918977D01*
X117795978Y-64898602D01*
X117778655Y-64881279D01*
X117765784Y-64870716D01*
X117740666Y-64840110D01*
X117722002Y-64805191D01*
X117710509Y-64767303D01*
X117710508Y-64767301D01*
X117706628Y-64727900D01*
X117710508Y-64688499D01*
X117722003Y-64650607D01*
X117723134Y-64648490D01*
X117740666Y-64615690D01*
X117765784Y-64585084D01*
X117778655Y-64574521D01*
X117795977Y-64557199D01*
X117809591Y-64536825D01*
X117818968Y-64514186D01*
X117823749Y-64490153D01*
X117823749Y-64465649D01*
X117818969Y-64441616D01*
X117809592Y-64418977D01*
X117795978Y-64398602D01*
X117778655Y-64381279D01*
X117765784Y-64370716D01*
X117740666Y-64340110D01*
X117722002Y-64305191D01*
X117710509Y-64267303D01*
X117710508Y-64267301D01*
X117706628Y-64227900D01*
X117710508Y-64188499D01*
X117722003Y-64150607D01*
X117723134Y-64148490D01*
X117740666Y-64115690D01*
X117765784Y-64085084D01*
X117778655Y-64074521D01*
X117795977Y-64057199D01*
X117809591Y-64036825D01*
X117818968Y-64014186D01*
X117823749Y-63990153D01*
X117823749Y-63965649D01*
X117818969Y-63941616D01*
X117809592Y-63918977D01*
X117795978Y-63898602D01*
X117778655Y-63881279D01*
X117765784Y-63870716D01*
X117740666Y-63840110D01*
X117722002Y-63805191D01*
X117710509Y-63767303D01*
X117710508Y-63767301D01*
X117706628Y-63727900D01*
X117710508Y-63688499D01*
X117722003Y-63650607D01*
X117727940Y-63639500D01*
X117740666Y-63615690D01*
X117765784Y-63585084D01*
X117796390Y-63559966D01*
X117831309Y-63541302D01*
X117850253Y-63535555D01*
X117869199Y-63529808D01*
X117898726Y-63526900D01*
X118368474Y-63526900D01*
X118398001Y-63529808D01*
X118435891Y-63541302D01*
X118470810Y-63559966D01*
X118470814Y-63559969D01*
X118473676Y-63561499D01*
X118496314Y-63570876D01*
X118520347Y-63575657D01*
X118544852Y-63575657D01*
X118568885Y-63570877D01*
X118591524Y-63561500D01*
X118611898Y-63547887D01*
X118629226Y-63530560D01*
X118642603Y-63510540D01*
X118651407Y-63505834D01*
X118670349Y-63490289D01*
X118685894Y-63471347D01*
X118697445Y-63449736D01*
X118704558Y-63426287D01*
X118706960Y-63401901D01*
X118704558Y-63377515D01*
X118697445Y-63354066D01*
X118692199Y-63342975D01*
X118690669Y-63340113D01*
X118690666Y-63340109D01*
X118672002Y-63305190D01*
X118660509Y-63267302D01*
X118660508Y-63267300D01*
X118657600Y-63237773D01*
X118657600Y-62768031D01*
X118660509Y-62738499D01*
X118672004Y-62700607D01*
X118683611Y-62678892D01*
X118690667Y-62665690D01*
X118715785Y-62635084D01*
X118746391Y-62609966D01*
X118781310Y-62591302D01*
X118800254Y-62585555D01*
X118819200Y-62579808D01*
X118854296Y-62576352D01*
X118858600Y-62575928D01*
X118858601Y-62575928D01*
X118898001Y-62579808D01*
X118898001Y-62579808D01*
G37*
G36*
X85366000Y-66161800D02*
G01*
X81764000Y-66161800D01*
X81764000Y-62559800D01*
X85366000Y-62559800D01*
X85366000Y-66161800D01*
X85366000Y-66161800D01*
G37*
G36*
X105917600Y-62189501D02*
G01*
X105920002Y-62213887D01*
X105927115Y-62237336D01*
X105938666Y-62258947D01*
X105954211Y-62277889D01*
X105973153Y-62293434D01*
X105994764Y-62304985D01*
X106018213Y-62312098D01*
X106042599Y-62314500D01*
X106117600Y-62314500D01*
X106117600Y-62389501D01*
X106120002Y-62413887D01*
X106127115Y-62437336D01*
X106138666Y-62458947D01*
X106154211Y-62477889D01*
X106173153Y-62493434D01*
X106194764Y-62504985D01*
X106218213Y-62512098D01*
X106242599Y-62514500D01*
X107042600Y-62514500D01*
X107042600Y-64866500D01*
X106242599Y-64866500D01*
X106218213Y-64868902D01*
X106194764Y-64876015D01*
X106173153Y-64887566D01*
X106154211Y-64903111D01*
X106138666Y-64922053D01*
X106127115Y-64943664D01*
X106120002Y-64967113D01*
X106117600Y-64991499D01*
X106117600Y-65066500D01*
X106042599Y-65066500D01*
X106018213Y-65068902D01*
X105994764Y-65076015D01*
X105973153Y-65087566D01*
X105954211Y-65103111D01*
X105938666Y-65122053D01*
X105927115Y-65143664D01*
X105920002Y-65167113D01*
X105917600Y-65191499D01*
X105917600Y-65991500D01*
X102565600Y-65991500D01*
X102565600Y-65191499D01*
X102563198Y-65167113D01*
X102556085Y-65143664D01*
X102544534Y-65122053D01*
X102528989Y-65103111D01*
X102510047Y-65087566D01*
X102488436Y-65076015D01*
X102464987Y-65068902D01*
X102440601Y-65066500D01*
X102365600Y-65066500D01*
X102365600Y-64991499D01*
X102363198Y-64967113D01*
X102356085Y-64943664D01*
X102344534Y-64922053D01*
X102328989Y-64903111D01*
X102310047Y-64887566D01*
X102288436Y-64876015D01*
X102264987Y-64868902D01*
X102240601Y-64866500D01*
X101440600Y-64866500D01*
X101440600Y-62514500D01*
X102240601Y-62514500D01*
X102264987Y-62512098D01*
X102288436Y-62504985D01*
X102310047Y-62493434D01*
X102328989Y-62477889D01*
X102344534Y-62458947D01*
X102356085Y-62437336D01*
X102363198Y-62413887D01*
X102365600Y-62389501D01*
X102365600Y-62314500D01*
X102440601Y-62314500D01*
X102464987Y-62312098D01*
X102488436Y-62304985D01*
X102510047Y-62293434D01*
X102528989Y-62277889D01*
X102544534Y-62258947D01*
X102556085Y-62237336D01*
X102563198Y-62213887D01*
X102565600Y-62189501D01*
X102565600Y-61389500D01*
X105917600Y-61389500D01*
X105917600Y-62189501D01*
X105917600Y-62189501D01*
G37*
G36*
X133090200Y-65818600D02*
G01*
X132238200Y-65818600D01*
X132238200Y-64916600D01*
X133090200Y-64916600D01*
X133090200Y-65818600D01*
X133090200Y-65818600D01*
G37*
G36*
X136062000Y-65818600D02*
G01*
X135210000Y-65818600D01*
X135210000Y-64916600D01*
X136062000Y-64916600D01*
X136062000Y-65818600D01*
X136062000Y-65818600D01*
G37*
G36*
X130143800Y-65811000D02*
G01*
X129291800Y-65811000D01*
X129291800Y-64909000D01*
X130143800Y-64909000D01*
X130143800Y-65811000D01*
X130143800Y-65811000D01*
G37*
G36*
X114420000Y-65641800D02*
G01*
X113418000Y-65641800D01*
X113418000Y-65039800D01*
X114420000Y-65039800D01*
X114420000Y-65641800D01*
X114420000Y-65641800D01*
G37*
G36*
X116840100Y-65624400D02*
G01*
X115138100Y-65624400D01*
X115138100Y-64522400D01*
X116840100Y-64522400D01*
X116840100Y-65624400D01*
X116840100Y-65624400D01*
G37*
G36*
X137610200Y-65306100D02*
G01*
X136608200Y-65306100D01*
X136608200Y-63929100D01*
X137610200Y-63929100D01*
X137610200Y-65306100D01*
X137610200Y-65306100D01*
G37*
G36*
X134638400Y-65306100D02*
G01*
X133636400Y-65306100D01*
X133636400Y-63929100D01*
X134638400Y-63929100D01*
X134638400Y-65306100D01*
X134638400Y-65306100D01*
G37*
G36*
X131692000Y-65298500D02*
G01*
X130690000Y-65298500D01*
X130690000Y-63921500D01*
X131692000Y-63921500D01*
X131692000Y-65298500D01*
X131692000Y-65298500D01*
G37*
G36*
X78077385Y-62105802D02*
G01*
X78227210Y-62135604D01*
X78509474Y-62252521D01*
X78763505Y-62422259D01*
X78979541Y-62638295D01*
X79149279Y-62892326D01*
X79266196Y-63174590D01*
X79284638Y-63267303D01*
X79325800Y-63474239D01*
X79325800Y-63779761D01*
X79302161Y-63898601D01*
X79266196Y-64079410D01*
X79149279Y-64361674D01*
X78979541Y-64615705D01*
X78763505Y-64831741D01*
X78509474Y-65001479D01*
X78227210Y-65118396D01*
X78100179Y-65143664D01*
X77927561Y-65178000D01*
X77622039Y-65178000D01*
X77449421Y-65143664D01*
X77322390Y-65118396D01*
X77040126Y-65001479D01*
X76786095Y-64831741D01*
X76570059Y-64615705D01*
X76400321Y-64361674D01*
X76283404Y-64079410D01*
X76247439Y-63898601D01*
X76223800Y-63779761D01*
X76223800Y-63474239D01*
X76264962Y-63267303D01*
X76283404Y-63174590D01*
X76400321Y-62892326D01*
X76570059Y-62638295D01*
X76786095Y-62422259D01*
X77040126Y-62252521D01*
X77322390Y-62135604D01*
X77472215Y-62105802D01*
X77622039Y-62076000D01*
X77927561Y-62076000D01*
X78077385Y-62105802D01*
X78077385Y-62105802D01*
G37*
G36*
X163319785Y-62105802D02*
G01*
X163469610Y-62135604D01*
X163751874Y-62252521D01*
X164005905Y-62422259D01*
X164221941Y-62638295D01*
X164391679Y-62892326D01*
X164508596Y-63174590D01*
X164527038Y-63267303D01*
X164568200Y-63474239D01*
X164568200Y-63779761D01*
X164544561Y-63898601D01*
X164508596Y-64079410D01*
X164391679Y-64361674D01*
X164221941Y-64615705D01*
X164005905Y-64831741D01*
X163751874Y-65001479D01*
X163469610Y-65118396D01*
X163342579Y-65143664D01*
X163169961Y-65178000D01*
X162864439Y-65178000D01*
X162691821Y-65143664D01*
X162564790Y-65118396D01*
X162282526Y-65001479D01*
X162028495Y-64831741D01*
X161812459Y-64615705D01*
X161642721Y-64361674D01*
X161525804Y-64079410D01*
X161489839Y-63898601D01*
X161466200Y-63779761D01*
X161466200Y-63474239D01*
X161507362Y-63267303D01*
X161525804Y-63174590D01*
X161642721Y-62892326D01*
X161812459Y-62638295D01*
X162028495Y-62422259D01*
X162282526Y-62252521D01*
X162564790Y-62135604D01*
X162714615Y-62105802D01*
X162864439Y-62076000D01*
X163169961Y-62076000D01*
X163319785Y-62105802D01*
X163319785Y-62105802D01*
G37*
G36*
X97633100Y-65080500D02*
G01*
X97031100Y-65080500D01*
X97031100Y-64078500D01*
X97633100Y-64078500D01*
X97633100Y-65080500D01*
X97633100Y-65080500D01*
G37*
G36*
X99133100Y-65080500D02*
G01*
X98531100Y-65080500D01*
X98531100Y-64078500D01*
X99133100Y-64078500D01*
X99133100Y-65080500D01*
X99133100Y-65080500D01*
G37*
G36*
X100742100Y-64956000D02*
G01*
X99740100Y-64956000D01*
X99740100Y-64354000D01*
X100742100Y-64354000D01*
X100742100Y-64956000D01*
X100742100Y-64956000D01*
G37*
G36*
X126261600Y-64793800D02*
G01*
X123369600Y-64793800D01*
X123369600Y-62788800D01*
X126261600Y-62788800D01*
X126261600Y-64793800D01*
X126261600Y-64793800D01*
G37*
G36*
X136062000Y-64318600D02*
G01*
X135210000Y-64318600D01*
X135210000Y-63416600D01*
X136062000Y-63416600D01*
X136062000Y-64318600D01*
X136062000Y-64318600D01*
G37*
G36*
X133090200Y-64318600D02*
G01*
X132238200Y-64318600D01*
X132238200Y-63416600D01*
X133090200Y-63416600D01*
X133090200Y-64318600D01*
X133090200Y-64318600D01*
G37*
G36*
X130143800Y-64311000D02*
G01*
X129291800Y-64311000D01*
X129291800Y-63409000D01*
X130143800Y-63409000D01*
X130143800Y-64311000D01*
X130143800Y-64311000D01*
G37*
G36*
X116859600Y-63900900D02*
G01*
X116007600Y-63900900D01*
X116007600Y-62998900D01*
X116859600Y-62998900D01*
X116859600Y-63900900D01*
X116859600Y-63900900D01*
G37*
G36*
X90066000Y-63161800D02*
G01*
X86464000Y-63161800D01*
X86464000Y-59559800D01*
X90066000Y-59559800D01*
X90066000Y-63161800D01*
X90066000Y-63161800D01*
G37*
G36*
X100794100Y-63113500D02*
G01*
X99942100Y-63113500D01*
X99942100Y-62211500D01*
X100794100Y-62211500D01*
X100794100Y-63113500D01*
X100794100Y-63113500D01*
G37*
G36*
X99333600Y-63113500D02*
G01*
X98481600Y-63113500D01*
X98481600Y-62211500D01*
X99333600Y-62211500D01*
X99333600Y-63113500D01*
X99333600Y-63113500D01*
G37*
G36*
X97873100Y-63113500D02*
G01*
X97021100Y-63113500D01*
X97021100Y-62211500D01*
X97873100Y-62211500D01*
X97873100Y-63113500D01*
X97873100Y-63113500D01*
G37*
G36*
X111675100Y-63009900D02*
G01*
X108873100Y-63009900D01*
X108873100Y-60357900D01*
X111675100Y-60357900D01*
X111675100Y-63009900D01*
X111675100Y-63009900D01*
G37*
G36*
X114508242Y-61154981D02*
G01*
X114654014Y-61215362D01*
X114654016Y-61215363D01*
X114785208Y-61303022D01*
X114896778Y-61414592D01*
X114953110Y-61498900D01*
X114984438Y-61545786D01*
X115044819Y-61691558D01*
X115075600Y-61846307D01*
X115075600Y-62004093D01*
X115044819Y-62158842D01*
X115003354Y-62258947D01*
X114984437Y-62304616D01*
X114896778Y-62435808D01*
X114785208Y-62547378D01*
X114654016Y-62635037D01*
X114654015Y-62635038D01*
X114654014Y-62635038D01*
X114508242Y-62695419D01*
X114353493Y-62726200D01*
X114195707Y-62726200D01*
X114040958Y-62695419D01*
X113895186Y-62635038D01*
X113895185Y-62635038D01*
X113895184Y-62635037D01*
X113763992Y-62547378D01*
X113652422Y-62435808D01*
X113564763Y-62304616D01*
X113545846Y-62258947D01*
X113504381Y-62158842D01*
X113473600Y-62004093D01*
X113473600Y-61846307D01*
X113504381Y-61691558D01*
X113564762Y-61545786D01*
X113596090Y-61498900D01*
X113652422Y-61414592D01*
X113763992Y-61303022D01*
X113895184Y-61215363D01*
X113895186Y-61215362D01*
X114040958Y-61154981D01*
X114195707Y-61124200D01*
X114353493Y-61124200D01*
X114508242Y-61154981D01*
X114508242Y-61154981D01*
G37*
G36*
X116859600Y-62400900D02*
G01*
X116007600Y-62400900D01*
X116007600Y-61498900D01*
X116859600Y-61498900D01*
X116859600Y-62400900D01*
X116859600Y-62400900D01*
G37*
G36*
X119399600Y-61995900D02*
G01*
X118547600Y-61995900D01*
X118547600Y-61093900D01*
X119399600Y-61093900D01*
X119399600Y-61995900D01*
X119399600Y-61995900D01*
G37*
G36*
X124237100Y-61972900D02*
G01*
X123235100Y-61972900D01*
X123235100Y-61370900D01*
X124237100Y-61370900D01*
X124237100Y-61972900D01*
X124237100Y-61972900D01*
G37*
G36*
X121062100Y-61972900D02*
G01*
X120060100Y-61972900D01*
X120060100Y-61370900D01*
X121062100Y-61370900D01*
X121062100Y-61972900D01*
X121062100Y-61972900D01*
G37*
G36*
X122649600Y-61972900D02*
G01*
X121647600Y-61972900D01*
X121647600Y-61370900D01*
X122649600Y-61370900D01*
X122649600Y-61972900D01*
X122649600Y-61972900D01*
G37*
G36*
X128046442Y-60164381D02*
G01*
X128192214Y-60224762D01*
X128192216Y-60224763D01*
X128323408Y-60312422D01*
X128434978Y-60423992D01*
X128483025Y-60495900D01*
X128522638Y-60555186D01*
X128583019Y-60700958D01*
X128613800Y-60855707D01*
X128613800Y-61013493D01*
X128583019Y-61168242D01*
X128527191Y-61303022D01*
X128522637Y-61314016D01*
X128434978Y-61445208D01*
X128323408Y-61556778D01*
X128192216Y-61644437D01*
X128192215Y-61644438D01*
X128192214Y-61644438D01*
X128046442Y-61704819D01*
X127891693Y-61735600D01*
X127733907Y-61735600D01*
X127579158Y-61704819D01*
X127433386Y-61644438D01*
X127433385Y-61644438D01*
X127433384Y-61644437D01*
X127302192Y-61556778D01*
X127190622Y-61445208D01*
X127102963Y-61314016D01*
X127098409Y-61303022D01*
X127042581Y-61168242D01*
X127011800Y-61013493D01*
X127011800Y-60855707D01*
X127042581Y-60700958D01*
X127102962Y-60555186D01*
X127142575Y-60495900D01*
X127190622Y-60423992D01*
X127302192Y-60312422D01*
X127433384Y-60224763D01*
X127433386Y-60224762D01*
X127579158Y-60164381D01*
X127733907Y-60133600D01*
X127891693Y-60133600D01*
X128046442Y-60164381D01*
X128046442Y-60164381D01*
G37*
G36*
X99333600Y-61613500D02*
G01*
X98481600Y-61613500D01*
X98481600Y-60711500D01*
X99333600Y-60711500D01*
X99333600Y-61613500D01*
X99333600Y-61613500D01*
G37*
G36*
X100794100Y-61613500D02*
G01*
X99942100Y-61613500D01*
X99942100Y-60711500D01*
X100794100Y-60711500D01*
X100794100Y-61613500D01*
X100794100Y-61613500D01*
G37*
G36*
X97873100Y-61613500D02*
G01*
X97021100Y-61613500D01*
X97021100Y-60711500D01*
X97873100Y-60711500D01*
X97873100Y-61613500D01*
X97873100Y-61613500D01*
G37*
G36*
X158508000Y-61480000D02*
G01*
X156706000Y-61480000D01*
X156706000Y-59678000D01*
X158508000Y-59678000D01*
X158508000Y-61480000D01*
X158508000Y-61480000D01*
G37*
G36*
X119399600Y-60495900D02*
G01*
X118547600Y-60495900D01*
X118547600Y-59593900D01*
X119399600Y-59593900D01*
X119399600Y-60495900D01*
X119399600Y-60495900D01*
G37*
G36*
X121062100Y-60472900D02*
G01*
X120060100Y-60472900D01*
X120060100Y-59870900D01*
X121062100Y-59870900D01*
X121062100Y-60472900D01*
X121062100Y-60472900D01*
G37*
G36*
X122649600Y-60472900D02*
G01*
X121647600Y-60472900D01*
X121647600Y-59870900D01*
X122649600Y-59870900D01*
X122649600Y-60472900D01*
X122649600Y-60472900D01*
G37*
G36*
X124237100Y-60472900D02*
G01*
X123235100Y-60472900D01*
X123235100Y-59870900D01*
X124237100Y-59870900D01*
X124237100Y-60472900D01*
X124237100Y-60472900D01*
G37*
M02*
